<?xml version="1.0" encoding="UTF-8" standalone="no"?>
<!-- Created with Inkscape (http://www.inkscape.org/) -->

<svg
   xmlns:dc="http://purl.org/dc/elements/1.1/"
   xmlns:cc="http://creativecommons.org/ns#"
   xmlns:rdf="http://www.w3.org/1999/02/22-rdf-syntax-ns#"
   xmlns:svg="http://www.w3.org/2000/svg"
   xmlns="http://www.w3.org/2000/svg"
   xmlns:sodipodi="http://sodipodi.sourceforge.net/DTD/sodipodi-0.dtd"
   xmlns:inkscape="http://www.inkscape.org/namespaces/inkscape"
   version="1.1"
   id="svg2"
   width="40.331001"
   height="40"
   viewBox="0 0 40.331001 40"
   sodipodi:docname="shipping.svg"
   inkscape:version="0.92.1 r15371">
  <metadata
     id="metadata8">
    <rdf:RDF>
      <cc:Work
         rdf:about="">
        <dc:format>image/svg+xml</dc:format>
        <dc:type
           rdf:resource="http://purl.org/dc/dcmitype/StillImage" />
        <dc:title></dc:title>
      </cc:Work>
    </rdf:RDF>
  </metadata>
  <defs
     id="defs6" />
  <sodipodi:namedview
     pagecolor="#ffffff"
     bordercolor="#666666"
     borderopacity="1"
     objecttolerance="10"
     gridtolerance="10"
     guidetolerance="10"
     inkscape:pageopacity="0"
     inkscape:pageshadow="2"
     inkscape:window-width="1366"
     inkscape:window-height="715"
     id="namedview4"
     showgrid="false"
     fit-margin-top="0"
     fit-margin-left="0"
     fit-margin-right="0"
     fit-margin-bottom="0"
     inkscape:zoom="5.1726027"
     inkscape:cx="53.639045"
     inkscape:cy="23.080826"
     inkscape:window-x="-8"
     inkscape:window-y="-8"
     inkscape:window-maximized="1"
     inkscape:current-layer="svg2" />
  <path
     style="fill:#ff7373;fill-opacity:1;stroke-width:0.05500828"
     d="M 0.0367523,32.01831 C 0.0165385,27.62838 0,22.22838 0,20.01831 V 16 h 7.0682415 7.0682425 l 0.01409,5.03093 0.01409,5.03093 2.995075,-1.85377 2.995075,-1.85376 2.996608,1.85432 2.996608,1.85432 0.01409,-5.03148 L 26.176223,16 H 33.253611 40.331 l -0.03674,8.75342 c -0.02021,4.81439 -0.03675,10.21439 -0.03676,12 L 40.257484,40 H 20.165494 0.0735047 Z M 0.4093339,11.84932 C 0.4266859,11.76642 0.8635016,9.13425 1.3800354,6 1.8965693,2.86575 2.3336265,0.23356 2.3512737,0.15068 L 2.3833596,0 h 5.8768501 5.8768493 v 6 6 H 7.2574213 0.3777847 Z M 18.168329,6 V 0 h 1.988024 1.988024 v 6 6 h -1.988024 -1.988024 z m 8.007319,0 V 0 h 5.880185 5.880186 l 0.02736,0.12329 c 0.01505,0.0678 0.450564,2.72466 0.967808,5.90411 0.517244,3.17945 0.950382,5.82397 0.96253,5.87671 0.02094,0.0909 -0.333463,0.0959 -6.847993,0.0959 h -6.87008 z"
     id="path12"
     inkscape:connector-curvature="0" />
</svg>
