<?xml version="1.0" encoding="UTF-8" standalone="no"?>
<!-- Created with Inkscape (http://www.inkscape.org/) -->

<svg
   xmlns:dc="http://purl.org/dc/elements/1.1/"
   xmlns:cc="http://creativecommons.org/ns#"
   xmlns:rdf="http://www.w3.org/1999/02/22-rdf-syntax-ns#"
   xmlns:svg="http://www.w3.org/2000/svg"
   xmlns="http://www.w3.org/2000/svg"
   xmlns:sodipodi="http://sodipodi.sourceforge.net/DTD/sodipodi-0.dtd"
   xmlns:inkscape="http://www.inkscape.org/namespaces/inkscape"
   version="1.1"
   id="svg2"
   width="800"
   height="679"
   viewBox="0 0 800 679"
   sodipodi:docname="coin.svg"
   inkscape:version="0.92.2 (5c3e80d, 2017-08-06)">
  <metadata
     id="metadata8">
    <rdf:RDF>
      <cc:Work
         rdf:about="">
        <dc:format>image/svg+xml</dc:format>
        <dc:type
           rdf:resource="http://purl.org/dc/dcmitype/StillImage" />
        <dc:title></dc:title>
      </cc:Work>
    </rdf:RDF>
  </metadata>
  <defs
     id="defs6" />
  <sodipodi:namedview
     pagecolor="#ffffff"
     bordercolor="#666666"
     borderopacity="1"
     objecttolerance="10"
     gridtolerance="10"
     guidetolerance="10"
     inkscape:pageopacity="0"
     inkscape:pageshadow="2"
     inkscape:window-width="1366"
     inkscape:window-height="715"
     id="namedview4"
     showgrid="false"
     inkscape:zoom="0.69513991"
     inkscape:cx="355.32625"
     inkscape:cy="298.0206"
     inkscape:window-x="-8"
     inkscape:window-y="22"
     inkscape:window-maximized="1"
     inkscape:current-layer="svg2" />
  <path
     style="fill:#00bd0f;fill-opacity:0.94117647"
     d="M 312.5,677.94421 C 230.64743,670.39581 157.10116,636.16231 100.34027,579.19046 23.408331,501.9726 -11.247454,395.61261 5.13445,287 13.671091,230.40177 39.017056,173.07496 75.858366,127.03859 85.374136,115.14782 107.58447,92.261254 119.5,82.068208 197.04268,15.73494 297.95613,-12.071912 398.89748,5.0798142 521.00409,25.827894 624.44368,115.23808 663.15922,233.5 c 18.8225,57.49591 21.90987,120.09118 8.83292,179.08402 -4.95948,22.37323 -3.40634,19.83685 -33.30474,54.38915 -14.74693,17.04239 -27.15459,31.19754 -27.57259,31.45587 -0.41799,0.25834 -6.35232,-3.87559 -13.1874,-9.18651 -28.46209,-22.11531 -50.70552,-38.47455 -55.4111,-40.75286 -20.63269,-9.98981 -39.13115,-5.94312 -57.65032,12.61147 -11.76055,11.78305 -16.07712,20.28209 -16.67736,32.83663 -0.55695,11.64904 1.12937,17.08185 9.30409,29.97495 3.61097,5.69518 19.86353,27.64242 36.11681,48.77165 25.17817,32.73155 29.3625,38.64441 28.27477,39.95504 -2.31599,2.7906 -26.15031,18.1015 -39.36925,25.29037 -36.85623,20.04356 -77.72691,33.13488 -120.51505,38.60226 -14.87706,1.90096 -55.29446,2.7222 -69.5,1.41217 z M 361,570.24845 c 6.27342,-3.13393 6.99668,-6.08247 6.99845,-28.53057 0.002,-22.21957 0.67072,-25.32068 6.19137,-28.70081 1.8206,-1.11469 7.03961,-3.16917 11.5978,-4.56551 35.84913,-10.98188 63.95791,-40.31798 72.90547,-76.08875 2.66586,-10.65763 2.40851,-34.14604 -0.5025,-45.86281 -2.70455,-10.88574 -11.17882,-28.48321 -18.10352,-37.5933 C 424.68817,328.648 407.71111,317.91038 358.31222,297.18586 334.32269,287.12144 324.43099,281.81088 316.48879,274.73211 308.06448,267.22364 305.5,262.15197 305.5,253 c 0,-6.37641 0.41093,-8.19903 2.74295,-12.16604 C 316.06667,227.525 331.08323,222.1298 357,223.31634 c 19.75981,0.90466 38.32389,5.32461 55.78516,13.28196 8.33294,3.79745 14.03627,4.3692 16.47597,1.6517 2.25269,-2.50919 3.98374,-7.35596 10.21237,-28.59364 3.03957,-10.364 5.5265,-20.62384 5.5265,-22.79966 0,-8.20071 -3.16512,-10.91754 -20,-17.16727 -11.21343,-4.16285 -21.93085,-6.97132 -35,-9.17165 -19.68928,-3.3149 -19.31161,-2.81599 -20.04062,-26.4737 -0.61301,-19.89282 -1.53874,-23.09009 -7.22924,-24.96813 -1.86951,-0.61699 -11.77693,-1.14436 -22.8136,-1.21435 -20.62261,-0.13079 -24.54662,0.58792 -26.48779,4.85141 -0.44749,0.98285 -1.06452,11.09162 -1.37118,22.46394 -0.69563,25.79682 0.0822,24.37528 -17.14778,31.33764 -6.82538,2.75803 -15.33479,6.53471 -18.90979,8.39263 -33.08329,17.19331 -50.97115,45.28875 -52.7187,82.80225 -0.36129,7.75558 -0.11096,15.05138 0.68624,20 3.56892,22.15405 15.50499,41.24592 35.45964,56.71806 15.62593,12.1158 26.60088,17.87413 60.57282,31.78129 37.16151,15.21289 47.95341,22.11993 54.69666,35.00703 2.41713,4.6194 2.76738,6.41636 2.78415,14.28415 0.0162,7.60732 -0.36061,9.74343 -2.43521,13.80435 -8.97137,17.56095 -34.64474,25.88344 -65.62811,21.27454 -20.42033,-3.0376 -41.26928,-9.51226 -58.64253,-18.21149 -13.06673,-6.54285 -15.12163,-4.90324 -21.75321,17.35696 -10.24157,34.37781 -10.73292,38.81656 -4.84519,43.77075 9.8095,8.25415 33.62861,16.37632 64.26535,21.91408 19.93256,3.60292 18.92043,2.1585 19.55693,27.91001 0.72151,29.19104 0.084,28.58244 30.00116,28.6401 16.61419,0.032 20.01797,-0.22116 23,-1.71085 z m 249.5,74.93078 C 605.8716,642.20809 605.0593,641.20259 557.44047,579.5 512.62227,521.42636 499.7366,503.63021 498.53103,498.14129 496.66798,489.65889 511.56945,474 521.50461,474 c 6.65353,0 9.99369,2.35216 72.99539,51.40366 11,8.56432 20.29316,15.46458 20.65146,15.33391 0.5553,-0.2025 30.11156,-34.27965 129.03307,-148.76978 9.72649,-11.25729 19.62649,-21.73848 22,-23.29155 7.86687,-5.14756 16.41189,-2.35151 29.06547,9.51063 4.55337,4.26857 4.75,4.68103 4.75,9.9638 0,6.58672 7.30533,-4.46206 -73.62289,111.34933 -96.17824,137.63478 -99.69186,142.58794 -102.63321,144.68236 -4.11846,2.9326 -9.58721,3.34424 -13.2439,0.99687 z"
     id="path12"
     inkscape:connector-curvature="0" />
</svg>
