<?xml version="1.0" encoding="UTF-8" standalone="no"?>
<!-- Created with Inkscape (http://www.inkscape.org/) -->

<svg
   xmlns:dc="http://purl.org/dc/elements/1.1/"
   xmlns:cc="http://creativecommons.org/ns#"
   xmlns:rdf="http://www.w3.org/1999/02/22-rdf-syntax-ns#"
   xmlns:svg="http://www.w3.org/2000/svg"
   xmlns="http://www.w3.org/2000/svg"
   xmlns:sodipodi="http://sodipodi.sourceforge.net/DTD/sodipodi-0.dtd"
   xmlns:inkscape="http://www.inkscape.org/namespaces/inkscape"
   version="1.1"
   id="svg5638"
   width="685"
   height="800"
   viewBox="0 0 685 800"
   sodipodi:docname="piggy-bank.svg"
   inkscape:version="0.92.2 (5c3e80d, 2017-08-06)">
  <metadata
     id="metadata5644">
    <rdf:RDF>
      <cc:Work
         rdf:about="">
        <dc:format>image/svg+xml</dc:format>
        <dc:type
           rdf:resource="http://purl.org/dc/dcmitype/StillImage" />
        <dc:title></dc:title>
      </cc:Work>
    </rdf:RDF>
  </metadata>
  <defs
     id="defs5642" />
  <sodipodi:namedview
     pagecolor="#ffffff"
     bordercolor="#666666"
     borderopacity="1"
     objecttolerance="10"
     gridtolerance="10"
     guidetolerance="10"
     inkscape:pageopacity="0"
     inkscape:pageshadow="2"
     inkscape:window-width="1366"
     inkscape:window-height="715"
     id="namedview5640"
     showgrid="false"
     inkscape:zoom="0.834386"
     inkscape:cx="354.91018"
     inkscape:cy="406.51454"
     inkscape:window-x="-8"
     inkscape:window-y="22"
     inkscape:window-maximized="1"
     inkscape:current-layer="svg5638" />
  <path
     style="fill:#00bd0f;fill-opacity:0.94117647"
     d="m 161.22312,797.88141 c -6.95238,-3.44136 -8.86617,-7.93536 -9.5911,-22.52208 C 150.27087,747.97127 142.26205,722.32595 128.25407,700.5 123.35633,692.86879 118.23704,686.56071 107.56566,675.00742 93.081161,659.32588 79.929757,639.76981 66.845807,614.4572 49.029208,579.98865 40.226362,553.72097 35.861486,522 c -1.921921,-13.96721 -1.662374,-46.88722 0.480933,-61 3.23738,-21.31679 9.818978,-44.93141 17.063056,-61.22185 l 2.544408,-5.72185 8.275059,5.9364 C 119.0168,439.29953 191.86585,453.22297 259.5,437.31508 c 43.32705,-10.19074 87.58273,-35.52264 118.11929,-67.61134 29.00442,-30.47868 47.48851,-63.24967 59.86063,-106.12871 2.5272,-8.75874 6.17989,-18.94119 8.11708,-22.62767 12.86587,-24.48379 44.0302,-44.19058 82.06008,-51.89078 C 533.24348,187.92546 539.7389,187 542.09136,187 552.46927,187 561,195.42606 561,205.67662 c 0,4.55548 -0.88541,6.97875 -6.41393,17.55422 -13.05931,24.98109 -16.28516,45.05695 -10.81951,67.33454 1.69017,6.88902 1.93313,7.24086 9.73344,14.09525 33.7278,29.63771 59.8458,66.72383 74.10389,105.22345 L 631.35026,420 h 14.81414 c 12.2006,0 15.70794,0.33962 19.88037,1.92501 7.27374,2.76381 13.07057,7.95441 17.02122,15.24116 L 686.5,443.5 V 491 c 0,46.5697 -0.0423,47.59157 -2.16089,52.17567 -3.22866,6.98609 -9.44357,13.14931 -16.41392,16.27742 -5.36507,2.40769 -7.75805,2.80074 -20.61149,3.38543 l -14.54173,0.66148 -3.27277,9 c -7.36786,20.26132 -16.03166,37.38305 -28.08367,55.5 -10.91208,16.40339 -19.0647,25.83934 -41.90375,48.5 -23.74845,23.56295 -29.65219,31.08935 -35.62624,45.41825 -6.46527,15.50712 -7.0535,18.75716 -7.79749,43.08175 -0.71916,23.51284 -1.21078,26.08613 -5.77227,30.21422 -5.24843,4.74977 -5.75886,4.78716 -65.03366,4.76382 -51.98448,-0.0205 -56.05444,-0.14701 -59.78212,-1.85877 -8.53993,-3.92155 -10.39614,-8.71593 -10.45611,-27.00695 L 375,757.72464 l -5.34311,0.62797 c -18.19386,2.13834 -49.24579,1.70424 -72.40689,-1.01222 l -5.25,-0.61575 -0.0439,13.88768 c -0.0595,18.83704 -1.85358,23.55665 -10.45611,27.50695 -3.72835,1.71206 -7.8031,1.83824 -60,1.85798 -55.03994,0.0208 -56.07332,-0.0151 -60.27688,-2.09584 z M 532.0902,423.62888 c 6.19359,-2.21392 10.70629,-6.47006 14.03999,-13.24176 2.79465,-5.67675 3.08776,-7.08318 2.63963,-12.66589 -0.79459,-9.89896 -5.9509,-17.69789 -14.76982,-22.33943 -5.154,-2.71262 -17.16293,-2.55051 -22.5,0.30375 -19.03813,10.18156 -19.39033,36.71468 -0.61753,46.52171 6.02522,3.14761 14.74412,3.73207 21.20773,1.42162 z M 183.71711,401.95597 C 116.03932,394.87503 56.933902,355.00302 25.167855,295 -4.350454,239.24274 -5.546696,171.22734 21.988207,114.21304 65.747845,23.603505 169.29146,-21.032894 264.45848,9.6870472 334.43695,32.276118 385.01326,89.0171 400.66892,162.5 c 2.62188,12.30631 2.76967,14.38739 2.76967,39 0,24.60135 -0.14881,26.69933 -2.76635,39 -18.02927,84.72539 -83.26223,147.06584 -167.4901,160.06336 -12.15782,1.87612 -37.91337,2.60123 -49.46503,1.39261 z m 32.42211,-64.86451 c 2.2307,-1.80338 2.38833,-2.68996 2.86078,-16.08991 0.57152,-16.20975 0.81785,-16.6821 10.14425,-19.45175 10.5592,-3.13574 18.08506,-7.75194 26.95706,-16.53485 13.06852,-12.93729 17.86485,-24.25675 17.88682,-42.21333 0.0189,-15.40675 -5.21317,-28.87683 -15.97885,-41.13827 -7.09028,-8.07538 -20.32763,-15.78676 -44.0478,-25.65991 -14.99697,-6.24225 -21.38,-9.76549 -26.23578,-14.48136 -8.91908,-8.6621 -6.83657,-20.67141 4.65009,-26.81593 3.67653,-1.96667 5.58964,-2.20355 17.62421,-2.1822 14.48947,0.0257 20.95228,1.24409 32.379,6.10419 8.99585,3.82618 12.1076,4.09865 13.94455,1.22099 2.05342,-3.21678 8.67645,-25.83498 8.67645,-29.6308 0,-3.15238 -1.59218,-5.39452 -5.20301,-7.32698 -4.23758,-2.26788 -16.62217,-6.003626 -26.28485,-7.928682 C 227.14298,93.693765 223.04518,92.358486 222.25,91.292865 221.47906,90.259729 220.99786,86.33757 220.99442,81.05887 220.98702,69.691999 219.71851,65.241995 216.20515,64.257795 214.71732,63.841008 208.22857,63.5 201.78571,63.5 c -15.55383,0 -15.17787,-0.391671 -15.63177,16.285182 -0.25257,9.279508 -0.73667,13.153832 -1.79176,14.339703 -0.79514,0.893686 -5.45326,3.285993 -10.35139,5.316237 -27.07331,11.221728 -40.09237,29.392868 -40.14701,56.034558 -0.03,14.61696 3.72837,24.54026 13.23323,34.94009 9.62453,10.53076 18.92626,16.07472 45.62113,27.19081 8.44243,3.51553 16.57207,7.158 18.06586,8.09438 10.51527,6.59144 14.61444,12.46153 14.54239,20.82499 -0.0762,8.84565 -5.27947,15.20745 -15.55544,19.01897 -4.14549,1.53763 -7.61968,1.93161 -16.27095,1.84516 -13.09886,-0.13089 -25.42669,-3.03637 -39.62694,-9.33947 -5.14988,-2.28589 -9.98285,-3.83315 -10.98229,-3.51594 -2.06056,0.654 -4.60668,6.9818 -8.3751,20.81441 -3.32571,12.20755 -3.09731,15.36072 1.3279,18.3324 5.70412,3.8305 18.43341,8.16812 31.74088,10.81598 7.014,1.39562 13.31231,3.00189 13.99624,3.5695 0.79812,0.66239 1.50062,5.68102 1.96138,14.01219 0.94328,17.05578 0.79988,16.92085 17.982,16.92085 10.56732,0 12.57937,-0.26275 14.61515,-1.90854 z"
     id="path5648"
     inkscape:connector-curvature="0" />
</svg>
