<?xml version="1.0" encoding="UTF-8" standalone="no"?>
<!-- Created with Inkscape (http://www.inkscape.org/) -->

<svg
   xmlns:dc="http://purl.org/dc/elements/1.1/"
   xmlns:cc="http://creativecommons.org/ns#"
   xmlns:rdf="http://www.w3.org/1999/02/22-rdf-syntax-ns#"
   xmlns:svg="http://www.w3.org/2000/svg"
   xmlns="http://www.w3.org/2000/svg"
   xmlns:sodipodi="http://sodipodi.sourceforge.net/DTD/sodipodi-0.dtd"
   xmlns:inkscape="http://www.inkscape.org/namespaces/inkscape"
   version="1.1"
   id="svg3079"
   width="40"
   height="28.019596"
   viewBox="0 0 40 28.019596"
   sodipodi:docname="delivery.svg"
   inkscape:version="0.92.1 r15371">
  <metadata
     id="metadata3085">
    <rdf:RDF>
      <cc:Work
         rdf:about="">
        <dc:format>image/svg+xml</dc:format>
        <dc:type
           rdf:resource="http://purl.org/dc/dcmitype/StillImage" />
        <dc:title></dc:title>
      </cc:Work>
    </rdf:RDF>
  </metadata>
  <defs
     id="defs3083" />
  <sodipodi:namedview
     pagecolor="#ffffff"
     bordercolor="#666666"
     borderopacity="1"
     objecttolerance="10"
     gridtolerance="10"
     guidetolerance="10"
     inkscape:pageopacity="0"
     inkscape:pageshadow="2"
     inkscape:window-width="1366"
     inkscape:window-height="715"
     id="namedview3081"
     showgrid="false"
     fit-margin-top="0"
     fit-margin-left="0"
     fit-margin-right="0"
     fit-margin-bottom="0"
     inkscape:zoom="2.6997323"
     inkscape:cx="151.90361"
     inkscape:cy="104.02952"
     inkscape:window-x="-8"
     inkscape:window-y="-8"
     inkscape:window-maximized="1"
     inkscape:current-layer="svg3079" />
  <path
     style="fill:#ff7373;fill-opacity:1;stroke-width:0.02831982"
     d="M 9.3842887,27.98807 C 7.5015391,27.78995 5.7889427,26.67026 4.8326576,25.01224 4.6712685,24.73242 4.3878273,24.12337 4.3878273,24.05641 c 0,-0.023 -0.5966499,-0.0317 -2.1939136,-0.0317 H 0 v -4.1475 C 0,17.20099 0.01048729,15.62568 0.02956426,15.43636 0.28593789,12.89211 2.0784057,10.81367 4.5576787,10.18583 4.9349512,10.09033 5.3637163,10.03172 5.8215352,10.01316 6.316725,9.99306 6.5787884,9.93996 6.8648266,9.80166 7.2894378,9.59635 7.5818389,9.30461 7.7867711,8.88179 7.9926902,8.45694 7.9896215,8.48537 8.0115315,6.79946 8.0325165,5.18475 8.0398675,5.09153 8.1924988,4.50456 8.5667731,3.0652 9.4639176,1.81264 10.714791,0.98302 11.282718,0.60636 12.164177,0.24467 12.824797,0.11723 13.330921,0.01963 13.669557,0 14.850841,0 h 1.143497 v 6.99778 6.99777 H 27.997169 40 v 5.01448 5.01448 l -3.186604,0.007 -3.186602,0.007 -0.105294,0.25545 c -0.370559,0.89902 -0.972308,1.7129 -1.745138,2.36035 -1.748008,1.46442 -4.259769,1.77756 -6.312809,0.78703 -0.644448,-0.31093 -1.095118,-0.62237 -1.581404,-1.09286 -0.615163,-0.59517 -1.083857,-1.27718 -1.392788,-2.02666 l -0.116777,-0.28331 h -3.376091 -3.376092 l -0.06394,0.16998 c -0.03517,0.0935 -0.141886,0.32551 -0.237149,0.51559 -1.106751,2.20832 -3.4931,3.52053 -5.9350203,3.26358 z m 1.1107073,-4.03649 c 0.383375,-0.0985 0.808511,-0.36758 1.039831,-0.65803 0.165505,-0.2078 0.336438,-0.53691 0.400109,-0.77034 0.07727,-0.28331 0.07108,-0.7756 -0.01318,-1.04825 -0.115024,-0.37219 -0.243579,-0.58353 -0.525815,-0.86443 -0.3579,-0.3562 -0.68276,-0.51733 -1.163438,-0.57705 -0.6093275,-0.0757 -1.2088949,0.13758 -1.6555446,0.58893 -0.6100926,0.61652 -0.7426568,1.54308 -0.3339134,2.33388 0.1401424,0.27114 0.4758823,0.62699 0.7359788,0.78007 0.1931796,0.1137 0.5029713,0.22466 0.7239145,0.2593 0.203328,0.0319 0.5776007,0.0111 0.7920587,-0.0441 z m 18.004245,6.2e-4 c 0.08975,-0.0227 0.27146,-0.0941 0.403802,-0.15857 0.196215,-0.0956 0.288176,-0.16483 0.498288,-0.37511 0.209941,-0.21011 0.279385,-0.30247 0.374944,-0.49868 0.162864,-0.33442 0.213429,-0.5492 0.213429,-0.9066 0,-0.55955 -0.177571,-0.98799 -0.576546,-1.39107 -0.353008,-0.35665 -0.6979,-0.52924 -1.17641,-0.58869 -1.268997,-0.15767 -2.360468,0.93079 -2.217329,2.21121 0.05229,0.46771 0.223572,0.81637 0.576476,1.17343 0.321047,0.32484 0.675989,0.51023 1.104034,0.57667 0.209114,0.0325 0.581321,0.0126 0.799312,-0.0426 z M 19.985846,5.00044 V 0 H 29.992923 40 v 5.00044 5.00043 H 29.992923 19.985846 Z"
     id="path3089"
     inkscape:connector-curvature="0" />
</svg>
