<?xml version="1.0" encoding="UTF-8" standalone="no"?>
<!-- Created with Inkscape (http://www.inkscape.org/) -->

<svg
   xmlns:dc="http://purl.org/dc/elements/1.1/"
   xmlns:cc="http://creativecommons.org/ns#"
   xmlns:rdf="http://www.w3.org/1999/02/22-rdf-syntax-ns#"
   xmlns:svg="http://www.w3.org/2000/svg"
   xmlns="http://www.w3.org/2000/svg"
   xmlns:sodipodi="http://sodipodi.sourceforge.net/DTD/sodipodi-0.dtd"
   xmlns:inkscape="http://www.inkscape.org/namespaces/inkscape"
   version="1.1"
   id="svg1963"
   width="40.898998"
   height="40.920998"
   viewBox="0 0 40.898998 40.920998"
   sodipodi:docname="prices.svg"
   inkscape:version="0.92.1 r15371">
  <metadata
     id="metadata1969">
    <rdf:RDF>
      <cc:Work
         rdf:about="">
        <dc:format>image/svg+xml</dc:format>
        <dc:type
           rdf:resource="http://purl.org/dc/dcmitype/StillImage" />
        <dc:title></dc:title>
      </cc:Work>
    </rdf:RDF>
  </metadata>
  <defs
     id="defs1967" />
  <sodipodi:namedview
     pagecolor="#ffffff"
     bordercolor="#666666"
     borderopacity="1"
     objecttolerance="10"
     gridtolerance="10"
     guidetolerance="10"
     inkscape:pageopacity="0"
     inkscape:pageshadow="2"
     inkscape:window-width="1366"
     inkscape:window-height="715"
     id="namedview1965"
     showgrid="false"
     fit-margin-top="0"
     fit-margin-left="0"
     fit-margin-right="0"
     fit-margin-bottom="0"
     inkscape:zoom="0.70870871"
     inkscape:cx="816.09069"
     inkscape:cy="329.22612"
     inkscape:window-x="-8"
     inkscape:window-y="-8"
     inkscape:window-maximized="1"
     inkscape:current-layer="svg1963" />
  <path
     style="fill:#ff7373;fill-opacity:1;stroke-width:0.06143473"
     d="m 18.790486,40.855017 c -4.108462,-0.35425 -7.919335,-1.87726 -11.1475829,-4.4551 -0.865588,-0.6912 -2.4332375,-2.25926 -3.1274191,-3.12824 -1.6565709,-2.07372 -2.9981732,-4.65916 -3.71783717,-7.16477 -1.06352911,-3.70282 -1.06352911,-7.59241 0,-11.29523 0.71966397,-2.5056 2.06126627,-5.0910495 3.71783717,-7.1647695 0.6935242,-0.86816 2.2610179,-2.43627 3.1274191,-3.12866 5.2333089,-4.18219003 12.0576389,-5.55813 18.4506589,-3.72006003 2.504339,0.72003003 5.088477,2.06231003 7.161143,3.71972003 0.867059,0.69335 2.434425,2.26151 3.127419,3.129 1.65657,2.07372 2.998173,4.6591695 3.717837,7.1647695 1.486317,5.17481 0.886115,10.64487 -1.69229,15.42302 -0.451516,0.83672 -1.220359,2.00148 -1.903276,2.88335 -0.679663,0.87767 -2.35106,2.56657 -3.24969,3.28372 -2.08077,1.66054 -4.658447,2.99907 -7.161143,3.71863 -2.336164,0.67167 -4.965607,0.93617 -7.303076,0.73462 z m 3.685237,-9.31931 6.1e-5,-1.21365 0.349813,-0.14261 c 1.704008,-0.69473 3.074818,-2.27669 3.562604,-4.11136 0.138185,-0.51975 0.159681,-0.72468 0.159681,-1.52235 0,-0.79418 -0.02177,-1.00357 -0.15728,-1.51288 -0.479859,-1.80352 -1.698969,-3.26235 -3.385628,-4.05136 -0.676879,-0.31664 -1.374641,-0.48353 -2.294258,-0.54874 -0.675872,-0.0479 -0.818894,-0.0782 -1.158183,-0.24533 -0.713956,-0.35167 -1.130562,-1.02032 -1.130562,-1.81458 0,-1.0044 0.664754,-1.79811 1.685347,-2.01229 0.639063,-0.13411 1.381662,0.12564 1.85039,0.64724 0.278289,0.30968 0.517929,0.84283 0.517929,1.15228 v 0.18205 h 2.064759 2.064759 l -0.04422,-0.47624 c -0.185121,-1.99362 -1.324091,-3.78375 -3.034014,-4.76861 -0.25729,-0.14819 -0.598979,-0.32148 -0.75931,-0.38509 l -0.291511,-0.11566 -2.46e-4,-1.2136495 -2.46e-4,-1.21364 H 20.448773 18.42194 l -2.46e-4,1.21364 -2.45e-4,1.2136495 -0.291511,0.11566 c -1.720363,0.68257 -3.130296,2.2941 -3.620617,4.13831 -0.138185,0.51975 -0.159681,0.72468 -0.159681,1.52235 0,0.79418 0.02177,1.00357 0.15728,1.51288 0.479836,1.80344 1.698323,3.26159 3.385628,4.05156 0.690917,0.32347 1.345643,0.48099 2.273378,0.54694 0.697949,0.0496 0.837992,0.0789 1.179086,0.24694 1.516378,0.74689 1.507442,2.89674 -0.01521,3.65836 -0.312289,0.1562 -0.426929,0.17957 -0.881063,0.17957 -0.454135,0 -0.568775,-0.0234 -0.881064,-0.17957 -0.615405,-0.30786 -1.145708,-1.06275 -1.145708,-1.63102 v -0.18205 h -2.064759 -2.064759 l 0.04422,0.47624 c 0.210258,2.26433 1.687495,4.29185 3.735311,5.12675 l 0.349813,0.14261 6.2e-5,1.21365 6.1e-5,1.21364 h 2.026833 2.026834 l 6.1e-5,-1.21364 z"
     id="path1973"
     inkscape:connector-curvature="0" />
</svg>
