<?xml version="1.0" encoding="UTF-8" standalone="no"?>
<!-- Created with Inkscape (http://www.inkscape.org/) -->

<svg
   xmlns:dc="http://purl.org/dc/elements/1.1/"
   xmlns:cc="http://creativecommons.org/ns#"
   xmlns:rdf="http://www.w3.org/1999/02/22-rdf-syntax-ns#"
   xmlns:svg="http://www.w3.org/2000/svg"
   xmlns="http://www.w3.org/2000/svg"
   xmlns:sodipodi="http://sodipodi.sourceforge.net/DTD/sodipodi-0.dtd"
   xmlns:inkscape="http://www.inkscape.org/namespaces/inkscape"
   version="1.1"
   id="svg1405"
   width="40.299011"
   height="40.818932"
   viewBox="0 0 40.299011 40.818932"
   sodipodi:docname="support.svg"
   inkscape:version="0.92.1 r15371">
  <metadata
     id="metadata1411">
    <rdf:RDF>
      <cc:Work
         rdf:about="">
        <dc:format>image/svg+xml</dc:format>
        <dc:type
           rdf:resource="http://purl.org/dc/dcmitype/StillImage" />
        <dc:title></dc:title>
      </cc:Work>
    </rdf:RDF>
  </metadata>
  <defs
     id="defs1409" />
  <sodipodi:namedview
     pagecolor="#ffffff"
     bordercolor="#666666"
     borderopacity="1"
     objecttolerance="10"
     gridtolerance="10"
     guidetolerance="10"
     inkscape:pageopacity="0"
     inkscape:pageshadow="2"
     inkscape:window-width="1366"
     inkscape:window-height="715"
     id="namedview1407"
     showgrid="false"
     fit-margin-top="0"
     fit-margin-left="0"
     fit-margin-right="0"
     fit-margin-bottom="0"
     inkscape:zoom="5.0889488"
     inkscape:cx="33.020589"
     inkscape:cy="11.871488"
     inkscape:window-x="-8"
     inkscape:window-y="-8"
     inkscape:window-maximized="1"
     inkscape:current-layer="svg1405" />
  <path
     style="fill:#ff737f;fill-opacity:0.94117647;stroke-width:0.05495286"
     d="m 24.264125,40.788894 c -4.153737,-0.40482 -8.983859,-2.89736 -13.60956,-7.02309 C 5.9115169,29.535404 2.2899095,24.393474 0.75919403,19.716454 0.20478482,18.022474 0.00444974,16.858664 7.2255409e-5,15.306444 -0.00433974,13.741794 0.19273517,12.775594 0.74651883,11.646864 1.1515073,10.821414 1.5209853,10.396764 3.9884418,7.9207836 c 2.5557561,-2.56458 2.6421314,-2.63662 3.5143483,-2.93112 0.3956263,-0.13358 0.5160681,-0.14804 1.2331415,-0.14804 0.717073,0 0.837515,0.0145 1.233142,0.14804 0.8661314,0.29245 0.9588944,0.36972 3.5527564,2.95963 1.321004,1.31899 2.513774,2.5469204 2.650602,2.7287404 0.928102,1.23325 1.119809,2.83163 0.504543,4.20669 -0.248879,0.55623 -0.576219,0.96068 -1.634078,2.01904 -1.13575,1.13629 -1.101057,1.06145 -0.846642,1.82638 0.700233,2.10534 3.101779,4.97314 5.551191,6.62894 0.94627,0.63968 2.209848,1.21527 2.667837,1.21527 0.125789,0 0.346507,-0.19189 1.225057,-1.06508 1.318755,-1.31071 1.613331,-1.52158 2.525375,-1.80775 0.587697,-0.18441 1.601548,-0.18449 2.188938,-1.7e-4 0.524773,0.16467 0.931471,0.37235 1.352961,0.69088 0.395097,0.29859 4.907695,4.89911 5.13276,5.23276 0.471831,0.69948 0.644213,1.24162 0.681408,2.14301 0.03572,0.8656 -0.04756,1.27465 -0.411908,2.02333 -0.247295,0.50814 -0.295412,0.56504 -1.770619,2.09379 -2.337628,2.42247 -3.355331,3.40659 -3.892932,3.76449 -0.816482,0.54355 -1.665539,0.87381 -2.723183,1.05923 -0.58666,0.10285 -1.814811,0.14284 -2.459015,0.0801 z m 11.419322,-16.18785 c -0.77428,-0.77886 -1.407784,-1.43735 -1.407784,-1.46332 0,-0.026 0.109539,-0.22415 0.24342,-0.44041 0.800804,-1.29353 1.401756,-2.98668 1.655191,-4.66343 0.130602,-0.86407 0.130002,-2.59252 -0.0012,-3.49608 -0.305987,-2.10708 -1.071093,-3.95169 -2.346976,-5.6583704 -1.766317,-2.3627 -4.405146,-4.0323 -7.250707,-4.58755 -1.575095,-0.30735 -3.528023,-0.27689 -5.047794,0.0788 -1.319308,0.30872 -2.605419,0.84489 -3.740051,1.55921 l -0.347676,0.21888 -1.368472,-1.37192 c -0.752659,-0.75456 -1.391743,-1.41399 -1.420187,-1.4654 -0.04293,-0.0776 0.03446,-0.15346 0.455603,-0.44658 1.775769,-1.23595 3.838401,-2.12116998 5.93234,-2.54598998 2.10388,-0.42684 4.407793,-0.42517 6.483249,0.005 3.205985,0.66402 6.315042,2.45174998 8.521009,4.89963998 2.467065,2.73763 3.857934,5.9019204 4.208715,9.5750404 0.09467,0.99132 0.04004,2.92739 -0.110586,3.91928 -0.273839,1.80325 -0.860657,3.59166 -1.710198,5.21207 -0.3105,0.59225 -1.193151,1.99629 -1.294591,2.05932 -0.02503,0.0155 -0.679012,-0.60897 -1.453294,-1.38784 z M 22.163473,13.267754 V 8.1710136 h 2.00043 2.000429 v 3.0580404 3.05804 h 2.027833 2.027833 v 2.0387 2.03869 h -4.028262 -4.028263 z"
     id="path1415"
     inkscape:connector-curvature="0" />
</svg>
