<svg width="225" height="20" viewBox="0 0 225 20" fill="none" xmlns="http://www.w3.org/2000/svg">
<path d="M205.765 10.105C205.765 15.2633 209.947 19.445 215.105 19.445C220.263 19.445 224.445 15.2633 224.445 10.105C224.445 4.94661 220.263 0.764953 215.105 0.764953C209.947 0.764953 205.765 4.94661 205.765 10.105Z" fill="#FD2B38"/>
<path d="M164.655 10.105C164.655 15.2633 168.837 19.445 173.995 19.445C179.153 19.445 183.335 15.2633 183.335 10.105C183.335 4.94661 179.153 0.764953 173.995 0.764953C168.837 0.764953 164.655 4.94661 164.655 10.105Z" fill="#FD2B38"/>
<path d="M123.555 10.105C123.555 15.2633 127.737 19.445 132.895 19.445C138.053 19.445 142.235 15.2633 142.235 10.105C142.235 4.94661 138.053 0.764953 132.895 0.764953C127.737 0.764953 123.555 4.94661 123.555 10.105Z" fill="#FD2B38"/>
<path d="M82.445 10.105C82.445 15.2633 86.6267 19.445 91.785 19.445C96.9433 19.445 101.125 15.2633 101.125 10.105C101.125 4.94661 96.9433 0.764953 91.785 0.764953C86.6267 0.764953 82.445 4.94661 82.445 10.105Z" fill="white"/>
<path d="M41.3349 10.105C41.3349 15.2633 45.5166 19.445 50.6749 19.445C55.8333 19.445 60.0149 15.2633 60.0149 10.105C60.0149 4.94661 55.8333 0.764953 50.6749 0.764953C45.5166 0.764953 41.3349 4.94661 41.3349 10.105Z" fill="white"/>
<path d="M0.235054 10.105C0.235053 15.2633 4.41668 19.445 9.57502 19.445C14.7334 19.445 18.915 15.2633 18.915 10.105C18.915 4.94661 14.7334 0.764953 9.57502 0.764953C4.41668 0.764953 0.235054 4.94661 0.235054 10.105Z" fill="white"/>
</svg>
