<svg width="512" height="512" viewBox="0 0 512 512" fill="none" xmlns="http://www.w3.org/2000/svg">
<path d="M512 256C512 397.385 397.385 512 256 512C114.615 512 0 397.385 0 256C0 114.615 114.615 0 256 0C397.385 0 512 114.615 512 256Z" fill="white"/>
<path d="M302.345 158.484H329V112.056C324.401 111.424 308.586 110 290.167 110C251.736 110 225.409 134.175 225.409 178.608V219.5H183V271.403H225.409V402H277.405V271.415H318.1L324.56 219.512H277.393V183.754C277.405 168.753 281.444 158.484 302.345 158.484Z" fill="black"/>
</svg>
