<svg width="3913" height="1920" viewBox="0 0 3913 1920" fill="none" xmlns="http://www.w3.org/2000/svg">
<path d="M1809.36 285.05C1809.2 266.33 1812.75 247.765 1819.81 230.425C1826.86 213.085 1837.28 197.313 1850.46 184.021C1863.65 170.728 1879.33 160.177 1896.61 152.977C1913.89 145.776 1932.42 142.069 1951.14 142.069C1969.87 142.069 1988.4 145.776 2005.68 152.977C2022.96 160.177 2038.64 170.728 2051.83 184.021C2065.01 197.313 2075.43 213.085 2082.48 230.425C2089.54 247.765 2093.09 266.33 2092.93 285.05H1809.36Z" fill="white"/>
<path d="M1713.63 285.05C1713.63 263.169 1722.32 242.185 1737.79 226.713C1753.27 211.242 1774.25 202.55 1796.13 202.55C1818.01 202.55 1838.99 211.242 1854.47 226.713C1869.94 242.185 1878.63 263.169 1878.63 285.05H1713.63Z" fill="white"/>
<path d="M1911.25 644.17C1898.09 644.154 1885.48 638.921 1876.18 629.619C1866.88 620.317 1861.65 607.705 1861.63 594.55V527.06H1868.63V594.55C1868.54 600.207 1869.58 605.824 1871.69 611.075C1873.79 616.326 1876.92 621.106 1880.89 625.137C1884.86 629.167 1889.59 632.368 1894.81 634.553C1900.03 636.738 1905.63 637.863 1911.28 637.863C1916.94 637.863 1922.54 636.738 1927.76 634.553C1932.98 632.368 1937.71 629.167 1941.68 625.137C1945.65 621.106 1948.78 616.326 1950.88 611.075C1952.99 605.824 1954.03 600.207 1953.94 594.55V54.37C1953.84 47.1687 1955.18 40.0197 1957.86 33.3382C1960.55 26.6567 1964.54 20.5759 1969.6 15.4489C1974.66 10.3219 1980.68 6.25084 1987.33 3.4722C1993.97 0.693562 2001.1 -0.737305 2008.3 -0.737305C2015.51 -0.737305 2022.64 0.693562 2029.28 3.4722C2035.93 6.25084 2041.95 10.3219 2047.01 15.4489C2052.07 20.5759 2056.06 26.6567 2058.75 33.3382C2061.43 40.0197 2062.77 47.1687 2062.67 54.37V642.37H2055.67V54.37C2055.67 41.7988 2050.68 29.7424 2041.79 20.8532C2032.9 11.9639 2020.84 6.97004 2008.27 6.97004C1995.7 6.97004 1983.64 11.9639 1974.75 20.8532C1965.86 29.7424 1960.87 41.7988 1960.87 54.37V594.55C1960.85 607.705 1955.62 620.317 1946.32 629.619C1937.02 638.921 1924.41 644.154 1911.25 644.17V644.17Z" fill="#FD2B38"/>
<path d="M1495.7 227.57C1513.89 227.57 1528.64 212.822 1528.64 194.63C1528.64 176.438 1513.89 161.69 1495.7 161.69C1477.51 161.69 1462.76 176.438 1462.76 194.63C1462.76 212.822 1477.51 227.57 1495.7 227.57Z" fill="white"/>
<path d="M1878.81 186.69L1899.63 179.69C1899.95 179.578 1900.23 179.369 1900.43 179.091C1900.63 178.814 1900.73 178.481 1900.73 178.14C1900.73 177.799 1900.63 177.466 1900.43 177.188C1900.23 176.911 1899.95 176.701 1899.63 176.59L1878.81 169.59C1877.65 169.195 1876.59 168.539 1875.73 167.672C1874.86 166.805 1874.2 165.751 1873.81 164.59L1866.81 143.76C1866.7 143.438 1866.49 143.158 1866.21 142.96C1865.93 142.762 1865.6 142.656 1865.26 142.656C1864.92 142.656 1864.59 142.762 1864.31 142.96C1864.03 143.158 1863.82 143.438 1863.71 143.76L1856.71 164.59C1856.32 165.751 1855.66 166.805 1854.79 167.672C1853.93 168.539 1852.87 169.195 1851.71 169.59L1830.88 176.59C1830.56 176.701 1830.28 176.911 1830.08 177.188C1829.88 177.466 1829.78 177.799 1829.78 178.14C1829.78 178.481 1829.88 178.814 1830.08 179.091C1830.28 179.369 1830.56 179.578 1830.88 179.69L1851.71 186.69C1852.87 187.084 1853.93 187.741 1854.79 188.608C1855.66 189.474 1856.32 190.529 1856.71 191.69L1863.71 212.51C1863.82 212.832 1864.03 213.112 1864.31 213.31C1864.59 213.508 1864.92 213.614 1865.26 213.614C1865.6 213.614 1865.93 213.508 1866.21 213.31C1866.49 213.112 1866.7 212.832 1866.81 212.51L1873.81 191.69C1874.2 190.529 1874.86 189.474 1875.73 188.608C1876.59 187.741 1877.65 187.084 1878.81 186.69Z" fill="#554AFF"/>
<path d="M2772.18 1297.59H852.18V85.75L1812.18 275.04L2772.18 85.75V1297.59Z" fill="#FD2B38"/>
<path d="M2817.47 1517.12H639.16V142.25L1728.32 357L2817.47 142.25V1517.12Z" fill="#E02631"/>
<path d="M3912.49 1736.14H1734.17V361.27L2823.33 576.02L3912.49 361.27V1736.14Z" fill="#C6074E"/>
<path d="M2178.31 1919.16H0V544.29L1089.16 759.03L2178.31 544.29V1919.16Z" fill="black"/>
</svg>
