<svg xmlns="http://www.w3.org/2000/svg" xmlns:xlink="http://www.w3.org/1999/xlink" viewBox="0 0 3912.49 1919.16"><defs><style>.cls-1{fill:none;}.cls-2{clip-path:url(#clip-path);}.cls-3{fill:#fff;}.cls-4{fill:#fd2b38;}.cls-5{fill:#554aff;}.cls-6{clip-path:url(#clip-path-2);}.cls-7{fill:#e02631;}.cls-8{fill:#c6074e;}</style><clipPath id="clip-path" transform="translate(1497.18 -112.31)"><rect class="cls-1" width="630" height="934"/></clipPath><clipPath id="clip-path-2" transform="translate(1497.18 -112.31)"><rect class="cls-1" x="-644.91" y="162.06" width="1920" height="774.39"/></clipPath></defs><g id="Layer_2" data-name="Layer 2"><g id="Слой_7" data-name="Слой 7"><g class="cls-2"><path class="cls-3" d="M312.18,397.36a141.79,141.79,0,1,1,283.57,0Z" transform="translate(1497.18 -112.31)"/><path class="cls-3" d="M216.45,397.36a82.5,82.5,0,0,1,165,0Z" transform="translate(1497.18 -112.31)"/><path class="cls-4" d="M414.07,756.48a49.68,49.68,0,0,1-49.62-49.62V639.37h7v67.49a42.66,42.66,0,1,0,85.31,0V166.68a54.37,54.37,0,1,1,108.73,0v588h-7V166.68a47.4,47.4,0,0,0-94.8,0V706.86A49.68,49.68,0,0,1,414.07,756.48Z" transform="translate(1497.18 -112.31)"/><circle class="cls-3" cx="1495.7" cy="194.63" r="32.94"/><path class="cls-5" d="M381.63,299l20.82-7a1.64,1.64,0,0,0,0-3.1l-20.82-7a8,8,0,0,1-5-5l-7-20.83a1.64,1.64,0,0,0-3.1,0l-7,20.83a8,8,0,0,1-5,5l-20.83,7a1.64,1.64,0,0,0,0,3.1l20.83,7a8,8,0,0,1,5,5l7,20.82a1.64,1.64,0,0,0,3.1,0l7-20.82A8,8,0,0,1,381.63,299Z" transform="translate(1497.18 -112.31)"/><g class="cls-6"><polygon class="cls-4" points="2772.18 1297.59 852.18 1297.59 852.18 85.75 1812.18 275.04 2772.18 85.75 2772.18 1297.59"/><polygon class="cls-7" points="2817.47 1517.12 639.16 1517.12 639.16 142.25 1728.32 357 2817.47 142.25 2817.47 1517.12"/><polygon class="cls-8" points="3912.49 1736.14 1734.17 1736.14 1734.17 361.27 2823.33 576.02 3912.49 361.27 3912.49 1736.14"/><polygon points="2178.31 1919.16 0 1919.16 0 544.29 1089.16 759.03 2178.31 544.29 2178.31 1919.16"/></g></g></g></g></svg>