<svg xmlns="http://www.w3.org/2000/svg" viewBox="0 0 714.51 618.9"><defs><style>.cls-1{fill:#fff;}.cls-2,.cls-4,.cls-5,.cls-6,.cls-7{fill:none;stroke-miterlimit:10;}.cls-2{stroke:#fd2b38;}.cls-2,.cls-6{stroke-width:6.26px;}.cls-3{fill:#fd2b38;}.cls-4{stroke:#fff;stroke-width:0.89px;}.cls-5{stroke:#c6074e;stroke-width:6.25px;}.cls-6{stroke:#554aff;}.cls-7{stroke:#000;stroke-width:2.68px;}.cls-8{fill:#1f1a5c;}.cls-9{fill:#554aff;}.cls-10{fill:#bdbdff;}.cls-11{fill:#bd0758;}.cls-12{fill:#e60008;}</style></defs><g id="Layer_2" data-name="Layer 2"><g id="Слой_7" data-name="Слой 7"><path class="cls-1" d="M458.43,607a128,128,0,1,1,256.08,0Z" transform="translate(0 -41.75)"/><path class="cls-1" d="M372,607a74.5,74.5,0,1,1,149,0Z" transform="translate(0 -41.75)"/><path class="cls-1" d="M403.13,194.1a97.43,97.43,0,1,0-194.85,0Z" transform="translate(0 -41.75)"/><path class="cls-1" d="M468.9,194.1a56.69,56.69,0,1,0-113.37,0Z" transform="translate(0 -41.75)"/><path class="cls-2" d="M371.41,619V90.6a45.73,45.73,0,0,0-45.73-45.72h0A45.72,45.72,0,0,0,280,90.6V576a41.46,41.46,0,0,1-41.46,41.46h0A41.46,41.46,0,0,1,197,576V515.38" transform="translate(0 -41.75)"/><path class="cls-1" d="M310.51,194.1h92.62a97.43,97.43,0,0,0-92.62-97.31Z" transform="translate(0 -41.75)"/><circle class="cls-1" cx="478.47" cy="60.35" r="9"/><circle class="cls-1" cx="454.18" cy="194.94" r="5.75"/><circle class="cls-3" cx="452.33" cy="126.63" r="4.47"/><circle class="cls-3" cx="472" cy="126.63" r="4.47"/><circle class="cls-3" cx="491.67" cy="126.63" r="4.47"/><circle class="cls-1" cx="511.35" cy="126.63" r="4.47"/><circle class="cls-1" cx="531.02" cy="126.63" r="4.47"/><circle class="cls-1" cx="550.69" cy="126.63" r="4.47"/><path class="cls-4" d="M613.37,263.61l11.77-4a.92.92,0,0,0,0-1.75l-11.77-4a4.51,4.51,0,0,1-2.84-2.84l-4-11.77a.93.93,0,0,0-1.76,0l-4,11.77a4.51,4.51,0,0,1-2.84,2.84l-11.77,4a.92.92,0,0,0,0,1.75l11.77,4a4.53,4.53,0,0,1,2.84,2.84l4,11.77a.93.93,0,0,0,1.76,0l4-11.77A4.53,4.53,0,0,1,613.37,263.61Z" transform="translate(0 -41.75)"/><path class="cls-5" d="M371.41,607.07v19.15a31.23,31.23,0,0,0,31.17,31.3h116a31.24,31.24,0,0,0,31.18-31.3V490.75" transform="translate(0 -41.75)"/><path class="cls-6" d="M603.45,149.5V87.13A35.55,35.55,0,0,1,639,51.58h0a35.55,35.55,0,0,1,35.55,35.55V547.41a31.3,31.3,0,0,1-31.3,31.3H536.83a31.29,31.29,0,0,1-31.29-31.3V474.09" transform="translate(0 -41.75)"/><line class="cls-7" x1="315.36" y1="73.2" x2="315.36" y2="387.83"/><line class="cls-7" x1="361.05" y1="128" x2="361.05" y2="363.19"/><line class="cls-7" x1="406.74" y1="169.78" x2="406.74" y2="333.73"/><line class="cls-7" x1="269.67" y1="169.78" x2="269.67" y2="412.51"/><line class="cls-7" x1="223.98" y1="229.76" x2="223.98" y2="362.26"/><line class="cls-7" x1="174.93" y1="197.21" x2="174.93" y2="345.77"/><rect class="cls-8" x="296.48" y="145.24" width="27.81" height="255.8" transform="translate(620.76 504.53) rotate(-180)"/><rect class="cls-3" x="301.46" y="145.24" width="27.81" height="255.8" transform="translate(630.72 504.53) rotate(-180)"/><rect class="cls-8" x="342.35" y="188.84" width="27.81" height="187.64" transform="translate(712.51 523.58) rotate(-180)"/><rect class="cls-1" x="347.15" y="187.76" width="27.81" height="189.82" transform="translate(722.1 523.58) rotate(-180)"/><rect class="cls-8" x="388.01" y="264.3" width="27.81" height="90.42" transform="translate(803.82 577.26) rotate(-180)"/><rect class="cls-1" x="392.84" y="263.75" width="27.81" height="91.51" transform="translate(813.48 577.26) rotate(-180)"/><rect class="cls-8" x="204.91" y="294" width="27.81" height="92.9" transform="translate(437.62 639.16) rotate(-180)"/><rect class="cls-1" x="210.08" y="293.43" width="27.81" height="94.06" transform="translate(447.96 639.16) rotate(-180)"/><rect class="cls-8" x="158.45" y="316.93" width="27.81" height="52.13" transform="translate(344.7 644.25) rotate(-180)"/><rect class="cls-1" x="163.62" y="315.97" width="27.81" height="54.06" transform="translate(355.04 644.25) rotate(-180)"/><rect class="cls-8" x="250.96" y="242.5" width="27.81" height="187.52" transform="translate(529.73 630.76) rotate(-180)"/><rect class="cls-9" x="255.77" y="241.62" width="27.81" height="189.27" transform="translate(539.34 630.76) rotate(-180)"/><rect class="cls-10" x="4.42" y="397.56" width="65.45" height="19.44"/><rect class="cls-1" x="11.3" y="397.56" width="6.88" height="19.44"/><rect class="cls-1" x="45.81" y="397.56" width="17.05" height="19.44"/><rect x="4.42" y="397.56" width="6.88" height="19.44"/><rect x="4.42" y="414.17" width="65.45" height="2.83"/><rect class="cls-10" y="416.99" width="65.45" height="19.44"/><rect class="cls-1" x="6.88" y="416.99" width="6.88" height="19.44"/><rect class="cls-1" x="41.39" y="416.99" width="17.05" height="19.44"/><rect y="416.99" width="6.88" height="19.44"/><rect y="433.61" width="65.45" height="2.83"/><rect class="cls-10" x="6.88" y="436.43" width="65.45" height="19.44"/><rect class="cls-1" x="13.76" y="436.43" width="6.88" height="19.44"/><rect class="cls-1" x="48.27" y="436.43" width="17.05" height="19.44"/><rect x="6.88" y="436.43" width="6.88" height="19.44"/><rect x="6.88" y="453.05" width="65.45" height="2.83"/><rect class="cls-10" x="10.32" y="455.87" width="65.45" height="19.44"/><rect class="cls-1" x="17.19" y="455.87" width="6.88" height="19.44"/><rect class="cls-1" x="51.71" y="455.87" width="17.05" height="19.44"/><rect x="10.32" y="455.87" width="6.88" height="19.44"/><rect x="10.32" y="472.49" width="65.45" height="2.83"/><rect class="cls-10" x="82.58" y="397.56" width="65.45" height="19.44"/><rect class="cls-1" x="89.46" y="397.56" width="6.88" height="19.44"/><rect class="cls-1" x="123.97" y="397.56" width="17.05" height="19.44"/><rect x="82.58" y="397.56" width="6.88" height="19.44"/><rect x="82.58" y="414.17" width="65.45" height="2.83"/><rect class="cls-10" x="79.99" y="378.11" width="65.45" height="19.44"/><rect class="cls-1" x="86.87" y="378.11" width="6.88" height="19.44"/><rect class="cls-1" x="121.38" y="378.11" width="17.05" height="19.44"/><rect x="79.99" y="378.11" width="6.88" height="19.44"/><rect x="79.99" y="394.73" width="65.45" height="2.83"/><rect class="cls-10" x="74.37" y="358.68" width="65.45" height="19.44"/><rect class="cls-1" x="81.25" y="358.68" width="6.88" height="19.44"/><rect class="cls-1" x="115.76" y="358.68" width="17.05" height="19.44"/><rect x="74.37" y="358.68" width="6.88" height="19.44"/><rect x="74.37" y="375.29" width="65.45" height="2.83"/><rect class="cls-10" x="78.16" y="416.99" width="65.45" height="19.44"/><rect class="cls-1" x="85.04" y="416.99" width="6.88" height="19.44"/><rect class="cls-1" x="119.55" y="416.99" width="17.05" height="19.44"/><rect x="78.16" y="416.99" width="6.88" height="19.44"/><rect x="78.16" y="433.61" width="65.45" height="2.83"/><rect class="cls-10" x="85.04" y="436.43" width="65.45" height="19.44"/><rect class="cls-1" x="91.92" y="436.43" width="6.88" height="19.44"/><rect class="cls-1" x="126.43" y="436.43" width="17.05" height="19.44"/><rect x="85.04" y="436.43" width="6.88" height="19.44"/><rect x="85.04" y="453.05" width="65.45" height="2.83"/><rect class="cls-10" x="88.48" y="455.87" width="65.45" height="19.44"/><rect class="cls-1" x="95.36" y="455.87" width="6.88" height="19.44"/><rect class="cls-1" x="129.87" y="455.87" width="17.05" height="19.44"/><rect x="88.48" y="455.87" width="6.88" height="19.44"/><rect x="88.48" y="472.49" width="65.45" height="2.83"/><rect class="cls-10" x="163.06" y="416.99" width="65.45" height="19.44"/><rect class="cls-1" x="169.94" y="416.99" width="6.88" height="19.44"/><rect class="cls-1" x="204.45" y="416.99" width="17.05" height="19.44"/><rect x="163.06" y="416.99" width="6.88" height="19.44"/><rect x="163.06" y="433.61" width="65.45" height="2.83"/><rect class="cls-10" x="161.27" y="436.43" width="65.45" height="19.44"/><rect class="cls-1" x="168.15" y="436.43" width="6.88" height="19.44"/><rect class="cls-1" x="202.66" y="436.43" width="17.05" height="19.44"/><rect x="161.27" y="436.43" width="6.88" height="19.44"/><rect x="161.27" y="453.05" width="65.45" height="2.83"/><rect class="cls-10" x="164.71" y="455.87" width="65.45" height="19.44"/><rect class="cls-1" x="171.59" y="455.87" width="6.88" height="19.44"/><rect class="cls-1" x="206.1" y="455.87" width="17.05" height="19.44"/><rect x="164.71" y="455.87" width="6.88" height="19.44"/><rect x="164.71" y="472.49" width="65.45" height="2.83"/><path class="cls-3" d="M537.84,499.18a89.63,89.63,0,1,1,47.09-166l-21.07,34.28a49.38,49.38,0,1,0,16.2,67.92l34.28,21.07A89,89,0,0,1,558.8,496.7,90.32,90.32,0,0,1,537.84,499.18Z" transform="translate(0 -41.75)"/><path class="cls-11" d="M614.34,456.46l-34.28-21.07a49.08,49.08,0,0,0,7.28-27.92l40.2-1.72A89.1,89.1,0,0,1,614.34,456.46Z" transform="translate(0 -41.75)"/><path class="cls-12" d="M587.34,407.47a49.39,49.39,0,0,0-23.48-40l21.07-34.28a89.55,89.55,0,0,1,42.61,72.55Z" transform="translate(0 -41.75)"/><circle class="cls-1" cx="404.49" cy="418.93" r="4.47"/><circle class="cls-3" cx="424.16" cy="418.93" r="4.47"/><circle class="cls-1" cx="443.84" cy="418.93" r="4.47"/><circle class="cls-1" cx="463.51" cy="418.93" r="4.47"/><circle class="cls-1" cx="483.18" cy="418.93" r="4.47"/><circle class="cls-8" cx="550.77" cy="536.34" r="18"/><circle class="cls-1" cx="550.77" cy="536.34" r="8"/></g></g></svg>