<svg xmlns="http://www.w3.org/2000/svg" viewBox="0 0 119.05 106.81"><defs><style>.cls-1{fill:#333266;}.cls-2{fill:#bdbdff;}.cls-3{fill:#7b7bff;}.cls-4{fill:#d2d2ff;}.cls-5{fill:#fff;}</style></defs><g id="Layer_2" data-name="Layer 2"><g id="Слой_7" data-name="Слой 7"><path class="cls-1" d="M27.9,91.16a53.39,53.39,0,1,1,75.5-75.51A53.39,53.39,0,1,1,27.9,91.16Z"/><path class="cls-2" d="M15.65,91.16A53.39,53.39,0,1,1,91.16,15.65,53.39,53.39,0,1,1,15.65,91.16Z"/><path class="cls-3" d="M6.59,65.33A48.61,48.61,0,0,1,5.12,53.4,48.29,48.29,0,0,1,87.55,19.26,48,48,0,0,1,98,34.81l-4.79,2A43.12,43.12,0,0,0,11.63,64.06Z"/><path class="cls-4" d="M24.49,92.09a49,49,0,0,1-5.23-4.54A48.24,48.24,0,0,1,6.59,65.33l5-1.27a42.94,42.94,0,0,0,11.3,19.82,45,45,0,0,0,4.67,4.06Z"/><path class="cls-5" d="M53.4,101.69a47.8,47.8,0,0,1-28.91-9.6l3.11-4.16A43.1,43.1,0,0,0,96.5,53.4a42.82,42.82,0,0,0-3.3-16.59l4.79-2A48.3,48.3,0,0,1,53.4,101.69Z"/><path class="cls-5" d="M60.4,75.56H32.73v-7h5V36.09h-5v-7H59.81a12.64,12.64,0,0,1,9.24,21.27,14.08,14.08,0,0,1-8.65,25.2Zm-15.7-7H60.4a7.09,7.09,0,0,0,0-14.18H44.7Zm0-21.18H59.81a5.65,5.65,0,1,0,0-11.29H44.7Z"/><rect class="cls-5" x="41.49" y="23.15" width="7" height="9.43"/><rect class="cls-5" x="56.03" y="23.15" width="7" height="9.43"/><rect class="cls-5" x="41.49" y="72.06" width="7" height="9.63"/><rect class="cls-5" x="56.03" y="72.06" width="7" height="9.63"/></g></g></svg>