<svg xmlns="http://www.w3.org/2000/svg" viewBox="0 0 704.67 570.34"><defs><style>.cls-1{fill:#fff;}.cls-2{fill:#c6074e;}.cls-3{fill:#3d33b3;}.cls-4{fill:#554aff;}.cls-5{fill:#1f1a5c;}.cls-6{fill:#fd2b38;}.cls-7{fill:#9593b2;}.cls-8{fill:#a8074e;}.cls-9{fill:#8a0639;}.cls-10{fill:#f2f2f2;}.cls-11{fill:#bdbdff;}.cls-12{fill:#333266;}.cls-13{fill:#fefefe;}.cls-14{fill:#7b7bff;}</style></defs><g id="Layer_2" data-name="Layer 2"><g id="Слой_7" data-name="Слой 7"><path class="cls-1" d="M235.46,315.44a129.52,129.52,0,1,1,259,0Z" transform="translate(-34.49 -148.51)"/><path class="cls-1" d="M148,315.44a75.36,75.36,0,0,1,150.72,0Z" transform="translate(-34.49 -148.51)"/><path class="cls-2" d="M308.49,462.9H211.61a76.12,76.12,0,0,1,0-152.24h96.88v6H211.61a70.12,70.12,0,0,0,0,140.24h96.88Z" transform="translate(-34.49 -148.51)"/><path class="cls-1" d="M655.87,562.53a123.36,123.36,0,0,0-246.72,0Z" transform="translate(-34.49 -148.51)"/><path class="cls-1" d="M739.15,562.53a71.78,71.78,0,0,0-143.55,0Z" transform="translate(-34.49 -148.51)"/><rect x="246" y="162.15" width="15.33" height="6"/><rect x="246" y="308.4" width="15.33" height="6"/><circle class="cls-1" cx="257.96" cy="13.4" r="13.4"/><circle class="cls-1" cx="582.97" cy="551.9" r="18.44"/><path class="cls-3" d="M222.22,235.53l-10.29-3.47a.82.82,0,0,1,0-1.54l10.29-3.47a4,4,0,0,0,2.48-2.48l3.47-10.28a.8.8,0,0,1,1.53,0l3.47,10.28a4,4,0,0,0,2.48,2.48l10.29,3.47a.82.82,0,0,1,0,1.54l-10.29,3.47a4,4,0,0,0-2.48,2.48l-3.47,10.28a.8.8,0,0,1-1.53,0L224.7,238A4,4,0,0,0,222.22,235.53Z" transform="translate(-34.49 -148.51)"/><path class="cls-4" d="M686.52,358.41H566v7H686.52a34.32,34.32,0,1,1,0,68.63h-118v7h118a41.32,41.32,0,1,0,0-82.63Z" transform="translate(-34.49 -148.51)"/><rect class="cls-5" x="531.49" y="285.54" width="19.67" height="7"/><rect class="cls-5" x="531.49" y="209.91" width="19.67" height="7"/><circle class="cls-6" cx="639" cy="141.82" r="5"/><circle class="cls-7" cx="639" cy="163.82" r="5"/><circle class="cls-7" cx="639" cy="185.82" r="5"/><circle class="cls-7" cx="639" cy="238.16" r="5"/><rect class="cls-8" x="293.91" y="257.5" width="236.99" height="441.66" rx="37.7" transform="translate(790.31 808.16) rotate(-180)"/><rect class="cls-6" x="334.91" y="257.5" width="236.99" height="441.66" rx="37.7" transform="translate(872.31 808.16) rotate(-180)"/><rect class="cls-9" x="259.42" y="397.01" width="57.92" height="6"/><rect class="cls-5" x="553.63" y="455.27" width="18.26" height="64.52" transform="translate(1091.04 826.56) rotate(-180)"/><polygon class="cls-5" points="518.1 203.9 537.47 190.67 537.47 145.4 518.1 145.4 518.1 203.9"/><rect class="cls-10" x="248.73" y="376" width="409.34" height="204.67" rx="21.54" transform="translate(897.24 -123.58) rotate(90)"/><path class="cls-1" d="M515,683l-164-164V661.46A21.54,21.54,0,0,0,372.61,683Z" transform="translate(-34.49 -148.51)"/><rect class="cls-11" x="426.86" y="554.13" width="53.08" height="188.51" rx="13.47" transform="translate(1067.3 46.48) rotate(90)"/><rect class="cls-12" x="502.65" y="629.92" width="36.92" height="36.92" rx="5.39" transform="translate(1007.74 1148.26) rotate(-180)"/><rect class="cls-1" x="457.68" y="629.92" width="36.92" height="36.92" rx="5.39" transform="translate(917.8 1148.26) rotate(-180)"/><rect class="cls-2" x="412.71" y="629.92" width="36.92" height="36.92" rx="5.39" transform="translate(827.85 1148.26) rotate(-180)"/><rect class="cls-13" x="367.73" y="629.92" width="36.92" height="36.92" rx="5.39" transform="translate(737.9 1148.26) rotate(-180)"/><rect class="cls-14" x="502.65" y="311.36" width="36.92" height="36.92" rx="5.39" transform="translate(1007.74 511.14) rotate(-180)"/><rect class="cls-6" x="457.68" y="311.36" width="36.92" height="36.92" rx="5.39" transform="translate(917.8 511.14) rotate(-180)"/><rect class="cls-5" x="412.71" y="311.36" width="36.92" height="36.92" rx="5.39" transform="translate(827.85 511.14) rotate(-180)"/><rect class="cls-6" x="367.73" y="311.36" width="36.92" height="36.92" rx="5.39" transform="translate(737.9 511.14) rotate(-180)"/><rect class="cls-5" x="502.65" y="364.45" width="36.92" height="36.92" rx="5.39" transform="translate(1007.74 617.3) rotate(-180)"/><rect class="cls-5" x="457.68" y="364.45" width="36.92" height="36.92" rx="5.39" transform="translate(917.8 617.3) rotate(-180)"/><rect class="cls-14" x="412.71" y="364.45" width="36.92" height="36.92" rx="5.39" transform="translate(827.85 617.3) rotate(-180)"/><rect class="cls-5" x="367.73" y="364.45" width="36.92" height="36.92" rx="5.39" transform="translate(737.9 617.3) rotate(-180)"/><rect class="cls-11" x="412.71" y="417.53" width="36.92" height="36.92" rx="5.39" transform="translate(827.85 723.47) rotate(-180)"/><rect class="cls-14" x="367.73" y="417.53" width="36.92" height="36.92" rx="5.39" transform="translate(737.9 723.47) rotate(-180)"/><rect class="cls-5" x="412.71" y="470.61" width="36.92" height="36.92" rx="5.39" transform="translate(827.85 829.63) rotate(-180)"/><rect class="cls-11" x="367.73" y="470.61" width="36.92" height="36.92" rx="5.39" transform="translate(737.9 829.63) rotate(-180)"/><rect class="cls-5" x="367.73" y="523.69" width="36.92" height="36.92" rx="5.39" transform="translate(737.9 935.79) rotate(-180)"/><circle class="cls-1" cx="486.63" cy="499.88" r="10.77"/><circle class="cls-12" cx="351.71" cy="499.88" r="10.77"/><circle class="cls-1" cx="351.71" cy="287.48" r="10.77"/><circle class="cls-1" cx="441.66" cy="234.4" r="10.77"/><path class="cls-6" d="M418.39,289.09h70a16.16,16.16,0,0,0,16.16-16.15H402.23A16.16,16.16,0,0,0,418.39,289.09Z" transform="translate(-34.49 -148.51)"/><path class="cls-1" d="M430.51,278.32H473.6a2.69,2.69,0,0,0,2.69-2.69h0a2.69,2.69,0,0,0-2.69-2.69H430.51a2.68,2.68,0,0,0-2.69,2.69h0A2.68,2.68,0,0,0,430.51,278.32Z" transform="translate(-34.49 -148.51)"/><path class="cls-4" d="M699.79,566.72a6.78,6.78,0,0,0-6.72,6.82V600.2a6.72,6.72,0,1,0,13.43,0V573.54a6.77,6.77,0,0,0-6.71-6.82m-81,0a6.77,6.77,0,0,0-6.71,6.82V600.2a6.72,6.72,0,1,0,13.43,0V573.54a6.78,6.78,0,0,0-6.72-6.82" transform="translate(-34.49 -148.51)"/><path class="cls-4" d="M689,566.72v48.9a5.23,5.23,0,0,1-5.23,5.24h-6v14.83a6.72,6.72,0,1,1-13.43,0V620.86H653.94v14.83a6.72,6.72,0,1,1-13.43,0V620.86h-6a5.12,5.12,0,0,1-5.1-5.24v-48.9Z" transform="translate(-34.49 -148.51)"/><path class="cls-4" d="M646.28,554.33a3.31,3.31,0,1,1,3.3-3.31,3.31,3.31,0,0,1-3.3,3.31m25.62,0a3.31,3.31,0,1,1,3.3-3.31,3.31,3.31,0,0,1-3.3,3.31M645.13,541.7c-8.77,4.08-14.92,11.84-15.71,20.89H689c-.78-9.05-6.8-16.81-15.57-20.89l5.51-8a.95.95,0,1,0-1.55-1.07l-5.73,8.32a34.27,34.27,0,0,0-24.79,0l-5.73-8.32a.95.95,0,1,0-1.55,1.07l5.51,8" transform="translate(-34.49 -148.51)"/><path class="cls-6" d="M542.92,497l-4.56-.2v0h-1l0,27.49c0,22.22,0,47.4,0,47.82A23.05,23.05,0,0,1,514.48,593H398.16v6.07H514.48a29.13,29.13,0,0,0,28.89-26.61c0-.14,0-12.48,0-47.18l0-28.26Z" transform="translate(-34.49 -148.51)"/><rect class="cls-9" x="362.43" y="444.53" width="19.67" height="6.05"/><rect class="cls-9" x="502.86" y="348.32" width="6.07" height="19.67"/><path class="cls-14" d="M596.79,505.9a18.37,18.37,0,1,0,0-36.73H530.64a18.37,18.37,0,1,0,0,36.73Z" transform="translate(-34.49 -148.51)"/><path class="cls-1" d="M595,494.07h-62.6a6.53,6.53,0,0,1-6.53-6.54h0a6.53,6.53,0,0,1,6.53-6.53H595a6.54,6.54,0,0,1,6.54,6.53h0A6.54,6.54,0,0,1,595,494.07Z" transform="translate(-34.49 -148.51)"/><path class="cls-1" d="M557.18,494.07H532.41a6.53,6.53,0,0,1-6.53-6.54h0a6.53,6.53,0,0,1,6.53-6.53h24.77a6.53,6.53,0,0,1,6.53,6.53h0A6.53,6.53,0,0,1,557.18,494.07Z" transform="translate(-34.49 -148.51)"/><circle class="cls-6" cx="529.23" cy="339.03" r="9.8"/><path class="cls-11" d="M521.51,292.71h34.26V327l64.53-40.33a57.13,57.13,0,0,0,26.84-48.42V235.6A57.11,57.11,0,0,0,590,178.5H521.51a57.1,57.1,0,0,0-57.1,57.1h0A57.1,57.1,0,0,0,521.51,292.71Z" transform="translate(-34.49 -148.51)"/><path class="cls-1" d="M607.24,215.62H592.32a5,5,0,0,0-5,5h0a5,5,0,0,0,5,5h14.92a5,5,0,0,0,5-5h0A5,5,0,0,0,607.24,215.62Z" transform="translate(-34.49 -148.51)"/><path class="cls-1" d="M556,233.13H539.22a5,5,0,0,0-5,5h0a5,5,0,0,0,5,5H556a5,5,0,0,0,5-5h0A5,5,0,0,0,556,233.13Z" transform="translate(-34.49 -148.51)"/><path class="cls-1" d="M523.79,233.13H505.91a5,5,0,0,0-5,5h0a5,5,0,0,0,5,5h17.88a5,5,0,0,0,5-5h0A5,5,0,0,0,523.79,233.13Z" transform="translate(-34.49 -148.51)"/><path class="cls-5" d="M576.21,215.66H518.84a5,5,0,0,0-5,5h0a5,5,0,0,0,5,5h57.37a5,5,0,0,0,5-5h0A5,5,0,0,0,576.21,215.66Z" transform="translate(-34.49 -148.51)"/><path class="cls-5" d="M607.24,233.13h-35.4a5,5,0,0,0-5,5h0a5,5,0,0,0,5,5h35.4a5,5,0,0,0,5-5h0A5,5,0,0,0,607.24,233.13Z" transform="translate(-34.49 -148.51)"/><rect class="cls-5" x="479.35" y="102.14" width="34.61" height="10.01" rx="4.37"/><path class="cls-6" d="M294,612.9h-28.5a21,21,0,0,1-21-21,15,15,0,0,0-15-15H53a18.5,18.5,0,0,1,0-37H365.37A25.15,25.15,0,0,1,390.49,565V591.9h-6V565a19.15,19.15,0,0,0-19.12-19.12H53a12.5,12.5,0,0,0,0,25h176.5a21,21,0,0,1,21,21,15,15,0,0,0,15,15H294Z" transform="translate(-34.49 -148.51)"/><path class="cls-1" d="M241.87,417.59c3.73-4.66,6.45-11.07,5.75-17.53-5.57.21-12.21,3.68-16.16,8.36-3.56,4-6.65,10.7-5.77,17C231.75,425.79,238,422.27,241.87,417.59Z" transform="translate(-34.49 -148.51)"/><path class="cls-1" d="M257.91,468.49v-.17a24.84,24.84,0,0,1-1.86-13.39v-.16h0c.69-5.8,4.43-11.73,7.41-13.88l.12-.09h0a32.67,32.67,0,0,1,3.82-3.17,24.9,24.9,0,0,0-20.26-10.78c-7.91-.66-16.12,5-20.55,4.88-4.28.13-10.75-5-17.58-4.66H209l-1.38.06c-9.05.23-17.08,5.56-21.63,13.65v0h0v0c-1.8,2.91-4,9.71-4.29,14V455c-.43,2.73,0,10,.48,13.49a1.35,1.35,0,0,1,0,.18h0a67.07,67.07,0,0,0,3.48,13.51v0h0l0,0v0h0a83.27,83.27,0,0,0,7.13,14v0h0c4.64,6.67,10.1,14.15,17.3,13.83,7-.27,9.52-4.62,17.9-4.55s10.69,4.34,18,4.37c7.48-.32,12.12-7,16.76-13.65a72.93,72.93,0,0,0,7.1-14h0c.14-.41.36-1.05.5-1.51-4.91-1.4-10.43-7.88-12.36-12.2" transform="translate(-34.49 -148.51)"/><line class="cls-1" x1="147.64" y1="319.99" x2="147.65" y2="319.98"/><rect class="cls-9" x="246" y="458.4" width="13.63" height="6"/><rect class="cls-9" x="380.67" y="572.9" width="13.63" height="6" transform="translate(928.9 39.91) rotate(90)"/><rect class="cls-9" x="88.75" y="422.38" width="50.64" height="6"/><circle class="cls-4" cx="113.75" cy="425.29" r="18"/><circle class="cls-1" cx="113.75" cy="425.29" r="8"/><circle class="cls-4" cx="352.93" cy="447.87" r="18"/><circle class="cls-1" cx="352.93" cy="447.87" r="8"/><path class="cls-1" d="M615.63,265.94a.44.44,0,0,1,.44.32l6.3,18.67a8.22,8.22,0,0,0,5.13,5.13l18.67,6.3a.45.45,0,0,1,.32.44.46.46,0,0,1-.32.45l-18.67,6.3a8.22,8.22,0,0,0-5.13,5.13l-6.3,18.67a.44.44,0,0,1-.44.31.45.45,0,0,1-.45-.31l-6.3-18.67a8.22,8.22,0,0,0-5.13-5.13l-18.67-6.3a.45.45,0,0,1-.31-.45.44.44,0,0,1,.31-.44l18.67-6.3a8.22,8.22,0,0,0,5.13-5.13l6.3-18.67a.45.45,0,0,1,.45-.32m0-1a1.44,1.44,0,0,0-1.39,1l-6.3,18.67a7.18,7.18,0,0,1-4.51,4.5l-18.67,6.3a1.47,1.47,0,0,0,0,2.78l18.67,6.3a7.22,7.22,0,0,1,4.51,4.51l6.3,18.67a1.43,1.43,0,0,0,1.39,1,1.45,1.45,0,0,0,1.39-1l6.3-18.67a7.18,7.18,0,0,1,4.5-4.51l18.67-6.3a1.47,1.47,0,0,0,0-2.78l-18.67-6.3a7.14,7.14,0,0,1-4.5-4.5L617,265.94a1.46,1.46,0,0,0-1.39-1Z" transform="translate(-34.49 -148.51)"/></g></g></svg>