<svg xmlns="http://www.w3.org/2000/svg" viewBox="0 0 796.28 624.28"><defs><style>.cls-1{fill:#fff;}.cls-2{fill:#333266;}.cls-3{fill:#c6074e;}.cls-4{fill:#bdbdff;}.cls-5{fill:#554aff;}.cls-6{fill:#fd2b38;}.cls-7{fill:#2f78eb;}.cls-8{fill:#c40a3f;}.cls-9{fill:#8a0639;}.cls-10{fill:#a8074e;}.cls-11{fill:#6e0433;}.cls-12{fill:#d2d2ff;}.cls-13{fill:#1f1a5c;}.cls-14{fill:#7b7bff;}.cls-15{fill:#e6e6e6;}.cls-16{fill:#7f82a0;}.cls-17{fill:#9593b2;}</style></defs><g id="Layer_2" data-name="Layer 2"><g id="Слой_7" data-name="Слой 7"><circle class="cls-1" cx="587.35" cy="8.96" r="8.96"/><polygon class="cls-2" points="530.65 201.6 488.09 201.6 518.5 175.07 561.06 175.07 530.65 201.6"/><polygon class="cls-3" points="530.65 148.54 488.09 148.54 518.5 175.07 561.06 175.07 530.65 148.54"/><polygon class="cls-4" points="487.76 201.6 530.32 201.6 499.9 175.07 457.35 175.07 487.76 201.6"/><polygon class="cls-1" points="487.76 148.54 530.32 148.54 499.9 175.07 457.35 175.07 487.76 148.54"/><path class="cls-3" d="M244.8,609.64H184.61c-61.71,0-111.93-50.47-111.93-112.5s50.22-112.5,111.93-112.5H295.74a36.74,36.74,0,0,1,36.61,36.78V521.64h-6V421.42a30.73,30.73,0,0,0-30.61-30.78H184.61c-58.41,0-105.93,47.77-105.93,106.5s47.52,106.5,105.93,106.5H244.8Z" transform="translate(-72.68 -106.16)"/><path class="cls-1" d="M206.86,364.33a140.32,140.32,0,0,1,280.63,0Z" transform="translate(-72.68 -106.16)"/><path class="cls-1" d="M112.13,364.33a81.65,81.65,0,0,1,163.29,0Z" transform="translate(-72.68 -106.16)"/><circle class="cls-1" cx="563.15" cy="526.23" r="14.49"/><path class="cls-5" d="M524.67,704.46l-14.88-5a1.17,1.17,0,0,1,0-2.22l14.88-5a5.74,5.74,0,0,0,3.6-3.59l5-14.88a1.17,1.17,0,0,1,2.21,0l5,14.88a5.72,5.72,0,0,0,3.59,3.59l14.88,5a1.17,1.17,0,0,1,0,2.22l-14.88,5a5.72,5.72,0,0,0-3.59,3.59l-5,14.88a1.17,1.17,0,0,1-2.21,0l-5-14.88A5.74,5.74,0,0,0,524.67,704.46Z" transform="translate(-72.68 -106.16)"/><path class="cls-6" d="M836.24,312.12l-13.86-4.68a1.09,1.09,0,0,1,0-2.06l13.86-4.68a5.34,5.34,0,0,0,3.35-3.35l4.68-13.87a1.09,1.09,0,0,1,2.06,0L851,297.35a5.35,5.35,0,0,0,3.34,3.35l13.87,4.68a1.09,1.09,0,0,1,0,2.06l-13.87,4.68a5.35,5.35,0,0,0-3.34,3.35l-4.69,13.87a1.09,1.09,0,0,1-2.06,0l-4.68-13.87A5.34,5.34,0,0,0,836.24,312.12Z" transform="translate(-72.68 -106.16)"/><circle class="cls-1" cx="441.82" cy="104.85" r="10.07"/><rect class="cls-7" x="370.2" y="328.51" width="23.48" height="6"/><rect class="cls-5" x="269.59" y="328.54" width="100.61" height="6"/><rect class="cls-2" x="266.09" y="328.54" width="19" height="6"/><rect x="191.78" y="278.47" width="19.67" height="6"/><rect x="152.78" y="497.47" width="19.67" height="6"/><rect class="cls-8" x="231.97" y="328.54" width="19" height="6"/><path class="cls-6" d="M305.05,440.68v-6a27.78,27.78,0,0,1-27.75-27.74V318.32h-6v88.62A33.79,33.79,0,0,0,305.05,440.68Z" transform="translate(-72.68 -106.16)"/><rect class="cls-9" x="198.62" y="192.48" width="6" height="19.67"/><path class="cls-3" d="M751.3,490.43A24.69,24.69,0,0,1,776,515.1a17.69,17.69,0,0,0,17.67,17.66l8,0a24.7,24.7,0,0,1,24.67,24.67V634l-7-1.55V557.41a17.69,17.69,0,0,0-17.67-17.67l-8,0A24.69,24.69,0,0,1,769,515.1a17.69,17.69,0,0,0-17.66-17.67h-43v-7Z" transform="translate(-72.68 -106.16)"/><path class="cls-5" d="M792.75,709a27.41,27.41,0,0,0,27.13-24.82c0-.42,0-14.07,0-40.57h1v0l5.5.23h.5c0,35.75,0,40.53-.06,40.71A34.41,34.41,0,0,1,792.75,716H707.84v-7Z" transform="translate(-72.68 -106.16)"/><path class="cls-3" d="M588.81,557.47c0,26.51,0,126.24.05,126.65A27.41,27.41,0,0,0,616,709h82.06v7H616a34.42,34.42,0,0,1-34.13-31.43c0-.1,0-86.47-.05-126.8Z" transform="translate(-72.68 -106.16)"/><rect x="653.57" y="384.27" width="19.67" height="7"/><rect x="509.12" y="457.97" width="7" height="19.67"/><rect x="592.49" y="602.79" width="19.67" height="7"/><rect class="cls-2" x="639.24" y="602.79" width="19.67" height="7"/><circle class="cls-5" cx="625.19" cy="606.28" r="18"/><circle class="cls-1" cx="625.19" cy="606.28" r="8"/><rect x="746.67" y="510.14" width="7" height="15.01"/><rect class="cls-2" x="747.25" y="551.31" width="7" height="19.67"/><circle class="cls-5" cx="750.21" cy="542.61" r="18"/><circle class="cls-1" cx="750.21" cy="542.61" r="8"/><rect class="cls-10" x="509.2" y="256.66" width="149.82" height="208.8"/><rect class="cls-6" x="432.07" y="362.82" width="149.82" height="208.8" transform="translate(941.28 828.28) rotate(-180)"/><rect x="581.89" y="362.82" width="149.82" height="13.22" transform="translate(1240.91 632.7) rotate(-180)"/><rect class="cls-10" x="432.07" y="362.82" width="149.82" height="13.22" transform="translate(941.28 632.7) rotate(-180)"/><rect class="cls-3" x="635.52" y="362.82" width="42.56" height="208.8" transform="translate(1240.91 828.28) rotate(-180)"/><rect class="cls-1" x="413.02" y="256.66" width="42.56" height="208.8"/><rect class="cls-11" x="635.52" y="362.82" width="42.56" height="13.22" transform="translate(1240.91 632.7) rotate(-180)"/><rect class="cls-12" x="485.7" y="362.82" width="42.56" height="13.22" transform="translate(941.28 632.7) rotate(-180)"/><rect class="cls-10" x="581.89" y="307.36" width="160.89" height="56.97" transform="translate(1251.98 565.53) rotate(-180)"/><rect class="cls-6" x="421" y="307.36" width="160.89" height="56.97" transform="translate(930.21 565.53) rotate(-180)"/><rect class="cls-3" x="641.05" y="307.36" width="42.56" height="56.95" transform="translate(1251.98 565.5) rotate(-180)"/><rect class="cls-1" x="407.48" y="201.2" width="42.56" height="56.95"/><path class="cls-13" d="M303.65,287.43a52.35,52.35,0,1,0-37,15.34A52,52,0,0,0,303.65,287.43Z" transform="translate(-72.68 -106.16)"/><path class="cls-4" d="M315.66,287.43a52.35,52.35,0,1,0-37,15.34A52,52,0,0,0,315.66,287.43Z" transform="translate(-72.68 -106.16)"/><path class="cls-14" d="M324.54,262.1A47.68,47.68,0,0,0,326,250.41a47.36,47.36,0,0,0-91.05-18.23l4.69,2a42.26,42.26,0,0,1,81.27,16.27,42.55,42.55,0,0,1-1.29,10.45Z" transform="translate(-72.68 -106.16)"/><path class="cls-12" d="M307,288.34a48.12,48.12,0,0,0,5.13-4.45,47.25,47.25,0,0,0,12.42-21.79l-4.94-1.24a42.14,42.14,0,0,1-11.08,19.43,44.27,44.27,0,0,1-4.58,4Z" transform="translate(-72.68 -106.16)"/><path class="cls-1" d="M278.64,297.75A46.84,46.84,0,0,0,307,288.34l-3.05-4.07a42.29,42.29,0,0,1-64.32-50.13l-4.69-2a47.36,47.36,0,0,0,43.71,65.57Z" transform="translate(-72.68 -106.16)"/><circle class="cls-6" cx="184.09" cy="380.46" r="5"/><circle class="cls-1" cx="206.09" cy="380.46" r="5"/><circle class="cls-1" cx="228.09" cy="380.46" r="5"/><circle class="cls-1" cx="280.42" cy="380.46" r="5"/><circle class="cls-6" cx="682.38" cy="538.65" r="9.82"/><path class="cls-13" d="M468.53,681.18H262.74a14.45,14.45,0,0,1-14.44-14.44H483A14.45,14.45,0,0,1,468.53,681.18Z" transform="translate(-72.68 -106.16)"/><path class="cls-13" d="M190.06,409.39H395.84a14.44,14.44,0,0,1,14.44,14.44V560.57a0,0,0,0,1,0,0H175.62a0,0,0,0,1,0,0V423.84a14.44,14.44,0,0,1,14.44-14.44Z"/><path class="cls-1" d="M185.54,409.39H391.33a14.44,14.44,0,0,1,14.44,14.44V560.57a0,0,0,0,1,0,0H171.1a0,0,0,0,1,0,0V423.84A14.44,14.44,0,0,1,185.54,409.39Z"/><path class="cls-15" d="M298.23,478.33H436.71a0,0,0,0,1,0,0V708.48a0,0,0,0,1,0,0H300.07a10,10,0,0,1-10-10V486.52A8.19,8.19,0,0,1,298.23,478.33Z" transform="translate(884.1 123.86) rotate(90)"/><rect class="cls-16" x="299.97" y="488.26" width="122.3" height="205.78" transform="translate(879.59 123.86) rotate(90)"/><path class="cls-17" d="M401,681.18H195.22a14.44,14.44,0,0,1-14.44-14.44H415.44A14.44,14.44,0,0,1,401,681.18Z" transform="translate(-72.68 -106.16)"/><path class="cls-4" d="M324,674H272.27a7.22,7.22,0,0,1-7.22-7.22h66.12A7.22,7.22,0,0,1,324,674Z" transform="translate(-72.68 -106.16)"/><rect class="cls-1" x="195.85" y="431.96" width="5.42" height="5.42"/><rect class="cls-1" x="206.68" y="431.96" width="5.42" height="5.42"/><rect class="cls-1" x="217.52" y="431.96" width="19.58" height="5.42"/><rect class="cls-1" x="292.75" y="431.96" width="19.58" height="5.42"/><rect class="cls-1" x="242.51" y="431.96" width="44.83" height="5.42"/><rect class="cls-1" x="195.85" y="442.79" width="5.42" height="5.42"/><rect class="cls-1" x="206.68" y="442.79" width="5.42" height="5.42"/><rect class="cls-1" x="217.52" y="442.79" width="19.58" height="5.42"/><rect class="cls-1" x="292.75" y="442.79" width="39.79" height="5.42"/><rect class="cls-1" x="242.51" y="442.79" width="44.83" height="5.42"/><rect class="cls-1" x="195.85" y="453.62" width="5.42" height="5.42"/><rect class="cls-1" x="206.68" y="453.62" width="5.42" height="5.42"/><rect class="cls-1" x="217.52" y="453.62" width="19.58" height="5.42"/><rect class="cls-1" x="292.75" y="453.62" width="19.58" height="5.42"/><rect class="cls-1" x="242.51" y="453.62" width="44.83" height="5.42"/><rect class="cls-1" x="195.85" y="464.45" width="5.42" height="5.42"/><rect class="cls-1" x="206.68" y="464.45" width="5.42" height="5.42"/><rect class="cls-1" x="217.52" y="464.45" width="19.58" height="5.42"/><rect class="cls-1" x="292.75" y="464.45" width="5.42" height="5.42"/><rect class="cls-1" x="242.51" y="464.45" width="44.83" height="5.42"/><rect class="cls-1" x="195.85" y="475.28" width="5.42" height="5.42"/><rect class="cls-1" x="206.68" y="475.28" width="5.42" height="5.42"/><rect class="cls-1" x="217.52" y="475.28" width="19.58" height="5.42"/><rect class="cls-1" x="292.75" y="475.28" width="19.58" height="5.42"/><rect class="cls-1" x="242.51" y="475.28" width="44.83" height="5.42"/><rect class="cls-1" x="195.85" y="486.11" width="5.42" height="5.42"/><rect class="cls-1" x="206.68" y="486.11" width="5.42" height="5.42"/><rect class="cls-1" x="217.52" y="486.11" width="19.58" height="5.42"/><rect class="cls-1" x="292.75" y="486.11" width="19.58" height="5.42"/><rect class="cls-1" x="242.51" y="486.11" width="44.83" height="5.42"/><rect class="cls-1" x="195.85" y="496.94" width="5.42" height="5.42"/><rect class="cls-1" x="206.68" y="496.94" width="5.42" height="5.42"/><rect class="cls-1" x="217.52" y="496.94" width="19.58" height="5.42"/><rect class="cls-1" x="292.75" y="496.94" width="5.42" height="5.42"/><rect class="cls-1" x="242.51" y="496.94" width="44.83" height="5.42"/><rect class="cls-1" x="195.85" y="507.77" width="5.42" height="5.42"/><rect class="cls-1" x="206.68" y="507.77" width="5.42" height="5.42"/><rect class="cls-1" x="217.52" y="507.77" width="19.58" height="5.42"/><rect class="cls-1" x="292.75" y="507.77" width="19.58" height="5.42"/><rect class="cls-1" x="242.51" y="507.77" width="44.83" height="5.42"/><circle class="cls-6" cx="256.36" cy="331.51" r="18"/><circle class="cls-1" cx="256.36" cy="331.51" r="8"/><path class="cls-1" d="M721.07,396.91a1.77,1.77,0,0,1,1.72,1.23l12.07,35.76a14.85,14.85,0,0,0,9.26,9.26l35.75,12.07a1.75,1.75,0,0,1,1.23,1.71,1.77,1.77,0,0,1-1.23,1.72l-35.75,12.07a14.8,14.8,0,0,0-9.26,9.26l-12.07,35.75a1.77,1.77,0,0,1-1.72,1.23,1.75,1.75,0,0,1-1.71-1.23L707.29,480a14.85,14.85,0,0,0-9.26-9.26l-35.76-12.07a1.77,1.77,0,0,1-1.23-1.72,1.75,1.75,0,0,1,1.23-1.71L698,443.16a14.89,14.89,0,0,0,9.26-9.26l12.07-35.76a1.75,1.75,0,0,1,1.71-1.23m0-1a2.77,2.77,0,0,0-2.66,1.91l-12.07,35.76a13.76,13.76,0,0,1-8.63,8.63L662,454.28a2.81,2.81,0,0,0,0,5.32l35.76,12.08a13.74,13.74,0,0,1,8.63,8.63l12.07,35.75a2.81,2.81,0,0,0,5.33,0l12.07-35.75a13.72,13.72,0,0,1,8.63-8.63l35.75-12.08a2.81,2.81,0,0,0,0-5.32l-35.75-12.07a13.74,13.74,0,0,1-8.63-8.63l-12.07-35.76a2.77,2.77,0,0,0-2.67-1.91Z" transform="translate(-72.68 -106.16)"/></g></g></svg>