<svg width="729" height="612" viewBox="0 0 729 612" fill="none" xmlns="http://www.w3.org/2000/svg">
<path d="M432.36 43.53C444.212 43.53 453.82 33.922 453.82 22.07C453.82 10.218 444.212 0.609985 432.36 0.609985C420.508 0.609985 410.9 10.218 410.9 22.07C410.9 33.922 420.508 43.53 432.36 43.53Z" fill="white"/>
<path d="M249.63 166.94C256.009 166.94 261.18 161.769 261.18 155.39C261.18 149.011 256.009 143.84 249.63 143.84C243.251 143.84 238.08 149.011 238.08 155.39C238.08 161.769 243.251 166.94 249.63 166.94Z" fill="white"/>
<path d="M203.66 453.07V571.07C203.506 580.069 199.823 588.648 193.405 594.958C186.986 601.268 178.346 604.804 169.345 604.804C160.344 604.804 151.704 601.268 145.285 594.958C138.866 588.648 135.184 580.069 135.03 571.07V450.52H128.03V571.07C128.199 581.916 132.626 592.261 140.355 599.871C148.085 607.482 158.498 611.747 169.345 611.747C180.192 611.747 190.605 607.482 198.334 599.871C206.064 592.261 210.491 581.916 210.66 571.07V453.07H203.66Z" fill="#C6074E"/>
<path d="M411.27 152.92C404.165 152.928 397.353 155.754 392.328 160.778C387.304 165.803 384.478 172.615 384.47 179.72C384.446 184.997 382.338 190.05 378.605 193.779C374.872 197.509 369.817 199.612 364.54 199.63H338.15H321.35C314.245 199.638 307.433 202.464 302.408 207.488C297.384 212.513 294.558 219.325 294.55 226.43C294.55 228.116 294.339 229.796 293.92 231.43V231.56L300.69 232.82V232.7C301.19 230.644 301.442 228.536 301.44 226.42C301.445 221.14 303.544 216.078 307.277 212.344C311.009 208.61 316.07 206.508 321.35 206.5H326.62H364.52C371.625 206.492 378.437 203.666 383.462 198.642C388.486 193.617 391.312 186.805 391.32 179.7C391.341 174.422 393.448 169.366 397.181 165.634C400.915 161.903 405.972 159.798 411.25 159.78H428.02V152.9L411.27 152.92Z" fill="#C6074E"/>
<path d="M491.82 269.69V246.51H498.69V269.69" fill="black"/>
<path d="M491.81 269.03V322.77C491.808 330.391 488.953 337.735 483.808 343.358C478.663 348.98 471.601 352.473 464.01 353.15C462.6 353.23 239.19 353.27 236.93 353.27H236.68V360.14H236.93C239.19 360.14 463.21 360.14 464.38 360.02C473.714 359.207 482.407 354.936 488.754 348.045C495.102 341.153 498.645 332.139 498.69 322.77V269.03H491.81Z" fill="#C6074E"/>
<path d="M411.27 216.76C404.165 216.768 397.353 219.594 392.328 224.618C387.304 229.643 384.478 236.455 384.47 243.56C384.451 248.84 382.346 253.899 378.612 257.632C374.879 261.366 369.82 263.472 364.54 263.49H326.06V263.74L326.73 270.23V270.36H364.52C371.625 270.352 378.437 267.526 383.462 262.502C388.486 257.477 391.312 250.665 391.32 243.56C391.338 238.276 393.447 233.215 397.185 229.481C400.923 225.747 405.986 223.643 411.27 223.63H428.04V216.76H411.27Z" fill="#C6074E"/>
<path d="M463.95 353.18H440.75V360.02H463.95V353.18Z" fill="black"/>
<path d="M429.62 152.93H411.38V159.8H429.62V152.93Z" fill="black"/>
<path d="M429.62 216.76H411V223.63H429.62V216.76Z" fill="black"/>
<path d="M210.66 474.23L203.66 467.58V456.1H210.66V474.23Z" fill="black"/>
<path d="M135.03 461.77H128.03V481.44H135.03V461.77Z" fill="black"/>
<path d="M539.83 454.63L560.83 447.55C561.16 447.443 561.447 447.235 561.651 446.954C561.854 446.674 561.964 446.336 561.964 445.99C561.964 445.644 561.854 445.306 561.651 445.026C561.447 444.745 561.16 444.537 560.83 444.43L539.83 437.35C538.653 436.951 537.584 436.287 536.707 435.407C535.829 434.528 535.166 433.458 534.77 432.28L527.69 411.28C527.58 410.952 527.37 410.666 527.089 410.464C526.808 410.262 526.471 410.153 526.125 410.153C525.779 410.153 525.442 410.262 525.161 410.464C524.88 410.666 524.67 410.952 524.56 411.28L517.48 432.28C517.085 433.458 516.423 434.529 515.545 435.409C514.667 436.288 513.598 436.953 512.42 437.35L491.42 444.43C491.095 444.542 490.814 444.752 490.614 445.032C490.415 445.312 490.307 445.647 490.307 445.99C490.307 446.333 490.415 446.668 490.614 446.948C490.814 447.228 491.095 447.438 491.42 447.55L512.42 454.63C513.598 455.023 514.669 455.684 515.547 456.563C516.426 457.441 517.087 458.512 517.48 459.69L524.56 480.69C524.67 481.018 524.88 481.304 525.161 481.506C525.442 481.708 525.779 481.817 526.125 481.817C526.471 481.817 526.808 481.708 527.089 481.506C527.37 481.304 527.58 481.018 527.69 480.69L534.77 459.69C535.167 458.514 535.83 457.445 536.708 456.568C537.585 455.69 538.654 455.027 539.83 454.63Z" fill="#554AFF"/>
<path d="M511.32 361.79C514.081 361.79 516.32 359.551 516.32 356.79C516.32 354.029 514.081 351.79 511.32 351.79C508.559 351.79 506.32 354.029 506.32 356.79C506.32 359.551 508.559 361.79 511.32 361.79Z" fill="#9593B2"/>
<path d="M533.32 361.79C536.081 361.79 538.32 359.551 538.32 356.79C538.32 354.029 536.081 351.79 533.32 351.79C530.559 351.79 528.32 354.029 528.32 356.79C528.32 359.551 530.559 361.79 533.32 361.79Z" fill="#9593B2"/>
<path d="M555.32 361.79C558.081 361.79 560.32 359.551 560.32 356.79C560.32 354.029 558.081 351.79 555.32 351.79C552.559 351.79 550.32 354.029 550.32 356.79C550.32 359.551 552.559 361.79 555.32 361.79Z" fill="#1F1A5C"/>
<path d="M577.32 361.79C580.081 361.79 582.32 359.551 582.32 356.79C582.32 354.029 580.081 351.79 577.32 351.79C574.559 351.79 572.32 354.029 572.32 356.79C572.32 359.551 574.559 361.79 577.32 361.79Z" fill="#9593B2"/>
<path d="M599.32 361.79C602.081 361.79 604.32 359.551 604.32 356.79C604.32 354.029 602.081 351.79 599.32 351.79C596.559 351.79 594.32 354.029 594.32 356.79C594.32 359.551 596.559 361.79 599.32 361.79Z" fill="#9593B2"/>
<path d="M659.54 195.92H426.9V240.23H659.54V195.92Z" fill="#A7ADCE"/>
<path d="M659.54 195.91V240.23H426.9V246.87H666.18V240.23V195.91H659.54Z" fill="#1F1A5C"/>
<path d="M445.73 223.61C448.79 223.61 451.27 221.13 451.27 218.07C451.27 215.01 448.79 212.53 445.73 212.53C442.67 212.53 440.19 215.01 440.19 218.07C440.19 221.13 442.67 223.61 445.73 223.61Z" fill="white"/>
<path d="M470.1 223.61C473.16 223.61 475.64 221.13 475.64 218.07C475.64 215.01 473.16 212.53 470.1 212.53C467.04 212.53 464.56 215.01 464.56 218.07C464.56 221.13 467.04 223.61 470.1 223.61Z" fill="white"/>
<path d="M494.48 223.61C497.54 223.61 500.02 221.13 500.02 218.07C500.02 215.01 497.54 212.53 494.48 212.53C491.42 212.53 488.94 215.01 488.94 218.07C488.94 221.13 491.42 223.61 494.48 223.61Z" fill="#554AFF"/>
<path d="M659.54 133.88H426.9V178.19H659.54V133.88Z" fill="#A7ADCE"/>
<path d="M659.54 133.88V178.19H426.9V184.84H666.18V178.19V133.88H659.54Z" fill="#1F1A5C"/>
<path d="M445.73 161.58C448.79 161.58 451.27 159.1 451.27 156.04C451.27 152.98 448.79 150.5 445.73 150.5C442.67 150.5 440.19 152.98 440.19 156.04C440.19 159.1 442.67 161.58 445.73 161.58Z" fill="white"/>
<path d="M470.1 161.58C473.16 161.58 475.64 159.1 475.64 156.04C475.64 152.98 473.16 150.5 470.1 150.5C467.04 150.5 464.56 152.98 464.56 156.04C464.56 159.1 467.04 161.58 470.1 161.58Z" fill="#554AFF"/>
<path d="M494.48 161.58C497.54 161.58 500.02 159.1 500.02 156.04C500.02 152.98 497.54 150.5 494.48 150.5C491.42 150.5 488.94 152.98 488.94 156.04C488.94 159.1 491.42 161.58 494.48 161.58Z" fill="white"/>
<path d="M659.54 71.84H426.9V116.15H659.54V71.84Z" fill="#A7ADCE"/>
<path d="M659.54 71.84V116.16H426.9V122.8H666.18V116.16V71.84H659.54Z" fill="#1F1A5C"/>
<path d="M646.25 209.21H639.6V226.93H646.25V209.21Z" fill="#1F1A5C"/>
<path d="M632.95 209.21H626.3V226.93H632.95V209.21Z" fill="#1F1A5C"/>
<path d="M619.66 209.21H613.01V226.93H619.66V209.21Z" fill="#1F1A5C"/>
<path d="M606.37 209.21H599.72V226.93H606.37V209.21Z" fill="#1F1A5C"/>
<path d="M646.25 147.17H639.6V164.89H646.25V147.17Z" fill="#1F1A5C"/>
<path d="M632.95 147.17H626.3V164.89H632.95V147.17Z" fill="#1F1A5C"/>
<path d="M619.66 147.17H613.01V164.89H619.66V147.17Z" fill="#1F1A5C"/>
<path d="M606.37 147.17H599.72V164.89H606.37V147.17Z" fill="#1F1A5C"/>
<path d="M646.25 85.14H639.6V102.86H646.25V85.14Z" fill="#1F1A5C"/>
<path d="M632.95 85.14H626.3V102.86H632.95V85.14Z" fill="#1F1A5C"/>
<path d="M619.66 85.14H613.01V102.86H619.66V85.14Z" fill="#1F1A5C"/>
<path d="M606.37 85.14H599.72V102.86H606.37V85.14Z" fill="#1F1A5C"/>
<path d="M445.73 99.54C448.79 99.54 451.27 97.0596 451.27 94C451.27 90.9403 448.79 88.46 445.73 88.46C442.67 88.46 440.19 90.9403 440.19 94C440.19 97.0596 442.67 99.54 445.73 99.54Z" fill="#554AFF"/>
<path d="M470.1 99.54C473.16 99.54 475.64 97.0596 475.64 94C475.64 90.9403 473.16 88.46 470.1 88.46C467.04 88.46 464.56 90.9403 464.56 94C464.56 97.0596 467.04 99.54 470.1 99.54Z" fill="#554AFF"/>
<path d="M494.48 99.54C497.54 99.54 500.02 97.0596 500.02 94C500.02 90.9403 497.54 88.46 494.48 88.46C491.42 88.46 488.94 90.9403 488.94 94C488.94 97.0596 491.42 99.54 494.48 99.54Z" fill="white"/>
<path d="M691.16 216.96H666.18V223.61H691.16V216.96Z" fill="#1F1A5C"/>
<path d="M691.16 152.71H666.18V159.36H691.16V152.71Z" fill="#1F1A5C"/>
<path d="M691.16 88.46H666.18V95.11H691.16V88.46Z" fill="#1F1A5C"/>
<path d="M693.27 223.63H691.05V216.98H693.27C697.052 216.98 700.797 216.235 704.291 214.788C707.785 213.34 710.96 211.219 713.635 208.545C716.309 205.87 718.43 202.695 719.878 199.201C721.325 195.707 722.07 191.962 722.07 188.18C722.07 184.398 721.325 180.653 719.878 177.159C718.43 173.665 716.309 170.49 713.635 167.815C710.96 165.141 707.785 163.02 704.291 161.572C700.797 160.125 697.052 159.38 693.27 159.38H691.05V152.73H693.27C702.672 152.73 711.689 156.465 718.337 163.113C724.985 169.761 728.72 178.778 728.72 188.18C728.72 197.582 724.985 206.599 718.337 213.247C711.689 219.895 702.672 223.63 693.27 223.63Z" fill="#554AFF"/>
<path d="M693.27 159.36H691.05V152.71H693.27C700.908 152.71 708.234 149.676 713.635 144.275C719.036 138.874 722.07 131.548 722.07 123.91C722.07 116.272 719.036 108.946 713.635 103.545C708.234 98.1442 700.908 95.11 693.27 95.11H691.05V88.46H693.27C702.672 88.46 711.689 92.1949 718.337 98.843C724.985 105.491 728.72 114.508 728.72 123.91C728.72 133.312 724.985 142.329 718.337 148.977C711.689 155.625 702.672 159.36 693.27 159.36Z" fill="#554AFF"/>
<path d="M207.14 449.08H146.47V456.08H207.14V449.08Z" fill="#554AFF"/>
<path d="M207.28 456.08H189.67L183.27 449.08H207.28V456.08Z" fill="#1F1A5C"/>
<path fill-rule="evenodd" clip-rule="evenodd" d="M127.67 456.08H48.84C35.9319 456.08 23.5525 450.952 14.4251 441.825C5.2977 432.697 0.169983 420.318 0.169983 407.41C0.169983 394.502 5.2977 382.123 14.4251 372.995C23.5525 363.868 35.9319 358.74 48.84 358.74H169.35C175.051 358.735 180.516 356.468 184.547 352.437C188.578 348.406 190.845 342.941 190.85 337.24V112.5C193.326 112.518 193.806 140.069 194.5 113C194.981 113.664 195.622 112.484 197.85 112.5V337.24C197.842 344.796 194.837 352.041 189.494 357.384C184.151 362.727 176.906 365.732 169.35 365.74H48.84C37.7884 365.74 27.1895 370.13 19.3748 377.945C11.5602 385.759 7.16998 396.358 7.16998 407.41C7.16998 418.462 11.5602 429.06 19.3748 436.875C27.1895 444.69 37.7884 449.08 48.84 449.08H127.67V456.08Z" fill="#554AFF"/>
<path d="M197.83 112.5H190.83V126.57H197.83V112.5Z" fill="#1F1A5C"/>
<path d="M143.47 358.7H121.04V365.7H143.47V358.7Z" fill="#1F1A5C"/>
<path d="M177.8 358.7H155.37V365.7H177.8V358.7Z" fill="#1F1A5C"/>
<path d="M135.68 101.26H128.68V450.74H135.68V101.26Z" fill="#C6074E"/>
<path d="M127.2 449.08H103.19V456.08H127.2V449.08Z" fill="#1F1A5C"/>
<path d="M190.84 286.06V258.58L197.84 252.08V286.06H190.84Z" fill="#1F1A5C"/>
<path d="M161.78 449.08H137.77V456.08H161.78V449.08Z" fill="#1F1A5C"/>
<path d="M277.83 99.74C280.591 99.74 282.83 97.5014 282.83 94.74C282.83 91.9786 280.591 89.74 277.83 89.74C275.069 89.74 272.83 91.9786 272.83 94.74C272.83 97.5014 275.069 99.74 277.83 99.74Z" fill="#1F1A5C"/>
<path d="M299.83 99.74C302.591 99.74 304.83 97.5014 304.83 94.74C304.83 91.9786 302.591 89.74 299.83 89.74C297.069 89.74 294.83 91.9786 294.83 94.74C294.83 97.5014 297.069 99.74 299.83 99.74Z" fill="#1F1A5C"/>
<path d="M321.83 99.74C324.591 99.74 326.83 97.5014 326.83 94.74C326.83 91.9786 324.591 89.74 321.83 89.74C319.069 89.74 316.83 91.9786 316.83 94.74C316.83 97.5014 319.069 99.74 321.83 99.74Z" fill="white"/>
<path d="M374.16 99.74C376.921 99.74 379.16 97.5014 379.16 94.74C379.16 91.9786 376.921 89.74 374.16 89.74C371.399 89.74 369.16 91.9786 369.16 94.74C369.16 97.5014 371.399 99.74 374.16 99.74Z" fill="white"/>
<path d="M135.68 111.95H128.68V131.62H135.68V111.95Z" fill="black"/>
<path d="M132.18 117.75C142.121 117.75 150.18 109.691 150.18 99.75C150.18 89.8089 142.121 81.75 132.18 81.75C122.239 81.75 114.18 89.8089 114.18 99.75C114.18 109.691 122.239 117.75 132.18 117.75Z" fill="#554AFF"/>
<path d="M132.18 107.75C136.598 107.75 140.18 104.168 140.18 99.75C140.18 95.3317 136.598 91.75 132.18 91.75C127.762 91.75 124.18 95.3317 124.18 99.75C124.18 104.168 127.762 107.75 132.18 107.75Z" fill="white"/>
<path d="M230.91 453.17C218.541 440.866 208.733 426.233 202.055 410.115C195.376 393.998 191.958 376.716 192 359.27C192 286.06 251.54 226.51 324.75 226.53C359.967 226.543 393.737 240.539 418.639 265.441C443.541 290.343 457.537 324.113 457.55 359.33C457.55 432.54 398.02 492.09 324.81 492.08C307.364 492.122 290.082 488.704 273.965 482.025C257.847 475.347 243.214 465.539 230.91 453.17Z" fill="#A8074E"/>
<path d="M200.47 453.17C178.76 431.447 165.254 402.869 162.252 372.305C159.251 341.74 166.939 311.081 184.008 285.549C201.077 260.018 226.471 241.195 255.862 232.287C285.253 223.379 316.823 224.937 345.194 236.696C373.566 248.455 396.982 269.687 411.454 296.775C425.926 323.862 430.558 355.13 424.562 385.25C418.565 415.371 402.31 442.48 378.567 461.96C354.824 481.439 325.061 492.084 294.35 492.08C276.907 492.119 259.629 488.7 243.515 482.022C227.402 475.343 212.771 465.537 200.47 453.17Z" fill="#FD2B38"/>
<path d="M177.95 388.95C175.509 379.256 174.276 369.297 174.28 359.3C174.311 331.561 183.943 304.688 201.539 283.244C219.135 261.8 243.611 247.108 270.811 241.663C298.01 236.217 326.256 240.354 350.752 253.371C375.247 266.387 394.482 287.481 405.19 313.07L393.28 318.07C383.739 295.212 366.575 276.363 344.708 264.73C322.84 253.097 297.617 249.397 273.33 254.259C249.042 259.122 227.188 272.247 211.484 291.402C195.78 310.557 187.196 334.56 187.19 359.33C187.183 368.258 188.282 377.152 190.46 385.81L177.95 388.95Z" fill="#A8074E"/>
<path d="M222.44 455.47C217.848 452.019 213.504 448.249 209.44 444.19C194.157 428.951 183.277 409.865 177.95 388.95L190.46 385.78C196.579 409.507 210.59 430.445 230.19 445.15L222.44 455.47Z" fill="#FFA5A1"/>
<path d="M294.35 479.35C268.423 479.447 243.176 471.06 222.46 455.47L230.21 445.15C249.042 459.168 271.954 466.618 295.428 466.357C318.903 466.096 341.643 458.138 360.159 443.706C378.675 429.273 391.942 409.163 397.925 386.462C403.909 363.761 402.277 339.724 393.28 318.04L405.19 313.04C412.795 331.29 415.777 351.136 413.872 370.815C411.966 390.494 405.232 409.399 394.268 425.851C383.303 442.304 368.446 455.795 351.016 465.127C333.586 474.46 314.121 479.345 294.35 479.35Z" fill="white"/>
<path d="M317.96 423.56H241.42V404.2H255.17V314.4H241.42V295.04H316.35C323.155 295.056 329.808 297.056 335.495 300.795C341.181 304.534 345.654 309.849 348.366 316.091C351.079 322.332 351.912 329.229 350.766 335.937C349.619 342.646 346.542 348.874 341.91 353.86C348.29 358.858 352.954 365.72 355.254 373.492C357.555 381.264 357.376 389.559 354.745 397.224C352.113 404.89 347.158 411.545 340.569 416.265C333.98 420.985 326.085 423.535 317.98 423.56H317.96ZM274.53 404.2H317.96C323.083 404.084 327.957 401.968 331.539 398.304C335.121 394.64 337.127 389.719 337.127 384.595C337.127 379.471 335.121 374.55 331.539 370.886C327.957 367.222 323.083 365.106 317.96 364.99H274.53V404.2ZM274.53 345.63H316.35C320.423 345.527 324.294 343.837 327.139 340.919C329.983 338.002 331.575 334.089 331.575 330.015C331.575 325.941 329.983 322.028 327.139 319.111C324.294 316.194 320.423 314.503 316.35 314.4H274.55L274.53 345.63Z" fill="white"/>
<path d="M285 278.63H265.64V304.72H285V278.63Z" fill="white"/>
<path d="M325.23 278.63H305.87V304.72H325.23V278.63Z" fill="white"/>
<path d="M285 413.88H265.64V440.51H285V413.88Z" fill="white"/>
<path d="M325.23 413.88H305.87V440.51H325.23V413.88Z" fill="white"/>
<path d="M248.13 253.03C247.813 253.037 247.501 252.944 247.239 252.764C246.978 252.585 246.778 252.328 246.67 252.03L242.21 238.83C241.984 238.163 241.607 237.556 241.11 237.057C240.612 236.557 240.007 236.179 239.34 235.95L226.13 231.49C225.823 231.39 225.555 231.196 225.365 230.934C225.175 230.673 225.073 230.358 225.073 230.035C225.073 229.712 225.175 229.397 225.365 229.136C225.555 228.874 225.823 228.68 226.13 228.58L239.35 224.07C240.016 223.843 240.621 223.466 241.119 222.969C241.616 222.471 241.993 221.866 242.22 221.2L246.68 207.99C246.78 207.683 246.974 207.415 247.236 207.225C247.497 207.035 247.812 206.933 248.135 206.933C248.458 206.933 248.773 207.035 249.034 207.225C249.296 207.415 249.49 207.683 249.59 207.99L254.05 221.2C254.279 221.867 254.657 222.472 255.156 222.97C255.656 223.467 256.262 223.844 256.93 224.07L270.13 228.53C270.437 228.63 270.705 228.824 270.895 229.086C271.085 229.347 271.187 229.662 271.187 229.985C271.187 230.308 271.085 230.623 270.895 230.884C270.705 231.146 270.437 231.34 270.13 231.44L256.93 235.9C256.262 236.129 255.655 236.507 255.156 237.006C254.657 237.505 254.279 238.112 254.05 238.78L249.59 251.98C249.493 252.289 249.298 252.559 249.035 252.748C248.772 252.937 248.454 253.036 248.13 253.03ZM248.13 207.94C248.016 207.937 247.905 207.972 247.813 208.039C247.72 208.106 247.653 208.201 247.62 208.31L243.16 221.52C242.883 222.332 242.424 223.07 241.817 223.677C241.21 224.284 240.472 224.743 239.66 225.02L226.45 229.48C226.341 229.513 226.246 229.58 226.179 229.673C226.112 229.765 226.077 229.876 226.08 229.99C226.079 230.103 226.114 230.214 226.181 230.306C226.248 230.398 226.342 230.466 226.45 230.5L239.66 234.96C240.472 235.237 241.21 235.696 241.817 236.303C242.424 236.91 242.883 237.648 243.16 238.46L247.62 251.66C247.653 251.769 247.72 251.864 247.813 251.931C247.905 251.998 248.016 252.033 248.13 252.03C248.243 252.031 248.354 251.996 248.446 251.929C248.538 251.862 248.606 251.768 248.64 251.66L253.09 238.46C253.369 237.647 253.831 236.91 254.439 236.303C255.047 235.696 255.787 235.237 256.6 234.96L269.8 230.5C269.908 230.466 270.002 230.398 270.069 230.306C270.136 230.214 270.171 230.103 270.17 229.99C270.173 229.876 270.138 229.765 270.071 229.673C270.004 229.58 269.909 229.513 269.8 229.48L256.6 225.02C255.787 224.743 255.047 224.284 254.439 223.677C253.831 223.07 253.369 222.333 253.09 221.52L248.64 208.31C248.606 208.202 248.538 208.108 248.446 208.041C248.354 207.974 248.243 207.939 248.13 207.94Z" fill="white"/>
<path d="M135.68 423.6H128.68V443.27H135.68V423.6Z" fill="black"/>
<path d="M132.36 470.23C142.301 470.23 150.36 462.171 150.36 452.23C150.36 442.289 142.301 434.23 132.36 434.23C122.419 434.23 114.36 442.289 114.36 452.23C114.36 462.171 122.419 470.23 132.36 470.23Z" fill="#3D33B3"/>
<path d="M132.36 460.23C136.778 460.23 140.36 456.648 140.36 452.23C140.36 447.812 136.778 444.23 132.36 444.23C127.942 444.23 124.36 447.812 124.36 452.23C124.36 456.648 127.942 460.23 132.36 460.23Z" fill="white"/>
</svg>
