<svg width="769" height="625" viewBox="0 0 769 625" fill="none" xmlns="http://www.w3.org/2000/svg">
<path d="M587.35 17.92C592.298 17.92 596.31 13.9085 596.31 8.96C596.31 4.01153 592.298 0 587.35 0C582.402 0 578.39 4.01153 578.39 8.96C578.39 13.9085 582.402 17.92 587.35 17.92Z" fill="white"/>
<path d="M530.65 201.6H488.09L518.5 175.07H561.06L530.65 201.6Z" fill="#333266"/>
<path d="M530.65 148.54H488.09L518.5 175.07H561.06L530.65 148.54Z" fill="#C6074E"/>
<path d="M487.76 201.6H530.32L499.9 175.07H457.35L487.76 201.6Z" fill="#BDBDFF"/>
<path d="M487.76 148.54H530.32L499.9 175.07H457.35L487.76 148.54Z" fill="white"/>
<path d="M172.12 503.48H111.93C50.22 503.48 0 453.01 0 390.98C0 328.95 50.22 278.48 111.93 278.48H223.06C232.788 278.514 242.106 282.406 248.969 289.301C255.832 296.196 259.681 305.531 259.67 315.26V415.48H253.67V315.26C253.683 307.122 250.468 299.311 244.73 293.541C238.991 287.77 231.198 284.512 223.06 284.48H111.93C53.52 284.48 6 332.25 6 390.98C6 449.71 53.52 497.48 111.93 497.48H172.12V503.48Z" fill="#C6074E"/>
<path d="M134.18 258.17C134.492 221.161 149.413 185.775 175.693 159.715C201.974 133.656 237.485 119.035 274.495 119.035C311.505 119.035 347.016 133.656 373.297 159.715C399.577 185.775 414.498 221.161 414.81 258.17H134.18Z" fill="white"/>
<path d="M39.45 258.17C39.6879 236.673 48.3946 216.137 63.6801 201.02C78.9657 185.902 99.5966 177.424 121.095 177.424C142.593 177.424 163.224 185.902 178.51 201.02C193.795 216.137 202.502 236.673 202.74 258.17H39.45Z" fill="white"/>
<path d="M563.15 540.72C571.153 540.72 577.64 534.233 577.64 526.23C577.64 518.227 571.153 511.74 563.15 511.74C555.147 511.74 548.66 518.227 548.66 526.23C548.66 534.233 555.147 540.72 563.15 540.72Z" fill="white"/>
<path d="M441.82 114.92C447.382 114.92 451.89 110.412 451.89 104.85C451.89 99.2885 447.382 94.78 441.82 94.78C436.259 94.78 431.75 99.2885 431.75 104.85C431.75 110.412 436.259 114.92 441.82 114.92Z" fill="white"/>
<path d="M393.68 328.51H370.2V334.51H393.68V328.51Z" fill="#2F78EB"/>
<path d="M370.2 328.54H269.59V334.54H370.2V328.54Z" fill="#554AFF"/>
<path d="M285.09 328.54H266.09V334.54H285.09V328.54Z" fill="#333266"/>
<path d="M211.45 278.47H191.78V284.47H211.45V278.47Z" fill="black"/>
<path d="M172.45 497.47H152.78V503.47H172.45V497.47Z" fill="black"/>
<path d="M250.97 328.54H231.97V334.54H250.97V328.54Z" fill="#C40A3F"/>
<path d="M232.37 334.52V328.52C225.014 328.512 217.962 325.587 212.76 320.387C207.558 315.187 204.631 308.136 204.62 300.78V212.16H198.62V300.78C198.633 309.726 202.194 318.302 208.52 324.627C214.847 330.952 223.424 334.509 232.37 334.52V334.52Z" fill="#FD2B38"/>
<path d="M204.62 192.48H198.62V212.15H204.62V192.48Z" fill="#8A0639"/>
<path d="M678.62 384.27C685.166 384.267 691.446 386.865 696.078 391.491C700.71 396.117 703.315 402.394 703.32 408.94C703.328 413.623 705.192 418.112 708.505 421.422C711.817 424.733 716.307 426.595 720.99 426.6H728.99C735.53 426.608 741.801 429.21 746.426 433.834C751.05 438.459 753.652 444.73 753.66 451.27V527.84L746.66 526.29V451.25C746.655 446.565 744.791 442.074 741.479 438.761C738.166 435.449 733.675 433.585 728.99 433.58H720.99C714.454 433.575 708.187 430.978 703.562 426.359C698.938 421.74 696.333 415.476 696.32 408.94C696.315 404.257 694.453 399.767 691.142 396.455C687.832 393.143 683.343 391.278 678.66 391.27H635.66V384.27H678.62Z" fill="#C6074E"/>
<path d="M720.07 602.84C726.864 602.801 733.401 600.24 738.414 595.654C743.427 591.068 746.558 584.784 747.2 578.02C747.2 577.6 747.2 563.95 747.2 537.45H748.2L753.7 537.68H754.2C754.2 573.43 754.2 578.21 754.14 578.39C753.402 586.935 749.5 594.897 743.197 600.715C736.895 606.533 728.647 609.787 720.07 609.84H635.16V602.84H720.07Z" fill="#554AFF"/>
<path d="M516.13 451.31C516.13 477.82 516.13 577.55 516.18 577.96C516.808 584.736 519.934 591.037 524.951 595.635C529.967 600.234 536.515 602.802 543.32 602.84H625.38V609.84H543.32C534.736 609.8 526.478 606.555 520.163 600.74C513.849 594.925 509.936 586.961 509.19 578.41C509.19 578.31 509.19 491.94 509.14 451.61L516.13 451.31Z" fill="#C6074E"/>
<path d="M673.24 384.27H653.57V391.27H673.24V384.27Z" fill="black"/>
<path d="M516.12 457.97H509.12V477.64H516.12V457.97Z" fill="black"/>
<path d="M612.16 602.79H592.49V609.79H612.16V602.79Z" fill="black"/>
<path d="M658.91 602.79H639.24V609.79H658.91V602.79Z" fill="#333266"/>
<path d="M625.19 624.28C635.131 624.28 643.19 616.221 643.19 606.28C643.19 596.339 635.131 588.28 625.19 588.28C615.249 588.28 607.19 596.339 607.19 606.28C607.19 616.221 615.249 624.28 625.19 624.28Z" fill="#554AFF"/>
<path d="M625.19 614.28C629.608 614.28 633.19 610.698 633.19 606.28C633.19 601.862 629.608 598.28 625.19 598.28C620.772 598.28 617.19 601.862 617.19 606.28C617.19 610.698 620.772 614.28 625.19 614.28Z" fill="white"/>
<path d="M753.67 510.14H746.67V525.15H753.67V510.14Z" fill="black"/>
<path d="M754.25 551.31H747.25V570.98H754.25V551.31Z" fill="#333266"/>
<path d="M750.21 560.61C760.151 560.61 768.21 552.551 768.21 542.61C768.21 532.669 760.151 524.61 750.21 524.61C740.269 524.61 732.21 532.669 732.21 542.61C732.21 552.551 740.269 560.61 750.21 560.61Z" fill="#554AFF"/>
<path d="M750.21 550.61C754.628 550.61 758.21 547.028 758.21 542.61C758.21 538.192 754.628 534.61 750.21 534.61C745.792 534.61 742.21 538.192 742.21 542.61C742.21 547.028 745.792 550.61 750.21 550.61Z" fill="white"/>
<path d="M659.02 256.66H509.2V465.46H659.02V256.66Z" fill="#A8074E"/>
<path d="M359.39 465.46H509.21V256.66H359.39V465.46Z" fill="#FD2B38"/>
<path d="M509.2 269.88H659.02V256.66H509.2V269.88Z" fill="black"/>
<path d="M359.39 269.88H509.21V256.66H359.39V269.88Z" fill="#A8074E"/>
<path d="M562.83 465.46H605.39V256.66H562.83V465.46Z" fill="#C6074E"/>
<path d="M455.58 256.66H413.02V465.46H455.58V256.66Z" fill="white"/>
<path d="M562.83 269.88H605.39V256.66H562.83V269.88Z" fill="#6E0433"/>
<path d="M413.02 269.88H455.58V256.66H413.02V269.88Z" fill="#D2D2FF"/>
<path d="M509.2 258.17H670.09V201.2L509.2 201.2V258.17Z" fill="#A8074E"/>
<path d="M348.32 258.17H509.21V201.2L348.32 201.2V258.17Z" fill="#FD2B38"/>
<path d="M568.37 258.14H610.93V201.19H568.37V258.14Z" fill="#C6074E"/>
<path d="M450.04 201.2H407.48V258.15H450.04V201.2Z" fill="white"/>
<path d="M184.09 385.46C186.851 385.46 189.09 383.221 189.09 380.46C189.09 377.699 186.851 375.46 184.09 375.46C181.329 375.46 179.09 377.699 179.09 380.46C179.09 383.221 181.329 385.46 184.09 385.46Z" fill="#FD2B38"/>
<path d="M206.09 385.46C208.851 385.46 211.09 383.221 211.09 380.46C211.09 377.699 208.851 375.46 206.09 375.46C203.329 375.46 201.09 377.699 201.09 380.46C201.09 383.221 203.329 385.46 206.09 385.46Z" fill="white"/>
<path d="M228.09 385.46C230.851 385.46 233.09 383.221 233.09 380.46C233.09 377.699 230.851 375.46 228.09 375.46C225.329 375.46 223.09 377.699 223.09 380.46C223.09 383.221 225.329 385.46 228.09 385.46Z" fill="white"/>
<path d="M280.42 385.46C283.181 385.46 285.42 383.221 285.42 380.46C285.42 377.699 283.181 375.46 280.42 375.46C277.659 375.46 275.42 377.699 275.42 380.46C275.42 383.221 277.659 385.46 280.42 385.46Z" fill="white"/>
<path d="M395.85 575.02H190.06C186.231 575.017 182.56 573.495 179.852 570.788C177.145 568.08 175.623 564.409 175.62 560.58H410.32C410.319 562.478 409.943 564.358 409.215 566.111C408.487 567.865 407.421 569.457 406.077 570.798C404.733 572.139 403.138 573.202 401.384 573.927C399.629 574.651 397.748 575.023 395.85 575.02V575.02Z" fill="#1F1A5C"/>
<path d="M190.06 409.39H395.84C399.67 409.39 403.343 410.911 406.051 413.619C408.759 416.327 410.28 420 410.28 423.83V560.57H175.62V423.84C175.62 420.01 177.141 416.337 179.849 413.629C182.557 410.921 186.23 409.4 190.06 409.4V409.39Z" fill="#1F1A5C"/>
<path d="M185.54 409.39H391.33C395.16 409.39 398.833 410.911 401.541 413.619C404.249 416.327 405.77 420 405.77 423.83V560.57H171.1V423.84C171.099 421.943 171.471 420.064 172.196 418.311C172.921 416.558 173.985 414.965 175.326 413.623C176.667 412.281 178.259 411.216 180.012 410.49C181.764 409.764 183.643 409.39 185.54 409.39Z" fill="white"/>
<path d="M405.77 422.09V560.57H175.62V423.93C175.62 421.278 176.674 418.734 178.549 416.859C180.424 414.984 182.968 413.93 185.62 413.93H397.58C399.747 413.93 401.826 414.789 403.361 416.318C404.896 417.848 405.762 419.923 405.77 422.09V422.09Z" fill="#E6E6E6"/>
<path d="M391.33 546.13V423.83H185.55V546.13H391.33Z" fill="#7F82A0"/>
<path d="M328.32 575.02H122.54C120.644 575.02 118.766 574.647 117.014 573.921C115.262 573.195 113.67 572.132 112.329 570.791C110.989 569.45 109.925 567.858 109.199 566.106C108.474 564.354 108.1 562.476 108.1 560.58H342.76C342.76 562.476 342.387 564.354 341.661 566.106C340.935 567.858 339.872 569.45 338.531 570.791C337.19 572.132 335.598 573.195 333.846 573.921C332.094 574.647 330.216 575.02 328.32 575.02Z" fill="#9593B2"/>
<path d="M251.32 567.84H199.59C197.675 567.84 195.839 567.079 194.485 565.725C193.131 564.371 192.37 562.535 192.37 560.62H258.49C258.49 562.526 257.736 564.355 256.393 565.708C255.05 567.06 253.226 567.827 251.32 567.84V567.84Z" fill="#BDBDFF"/>
<path d="M201.27 431.96H195.85V437.38H201.27V431.96Z" fill="white"/>
<path d="M212.1 431.96H206.68V437.38H212.1V431.96Z" fill="white"/>
<path d="M237.1 431.96H217.52V437.38H237.1V431.96Z" fill="white"/>
<path d="M312.33 431.96H292.75V437.38H312.33V431.96Z" fill="white"/>
<path d="M287.34 431.96H242.51V437.38H287.34V431.96Z" fill="white"/>
<path d="M201.27 442.79H195.85V448.21H201.27V442.79Z" fill="white"/>
<path d="M212.1 442.79H206.68V448.21H212.1V442.79Z" fill="white"/>
<path d="M237.1 442.79H217.52V448.21H237.1V442.79Z" fill="white"/>
<path d="M332.54 442.79H292.75V448.21H332.54V442.79Z" fill="white"/>
<path d="M287.34 442.79H242.51V448.21H287.34V442.79Z" fill="white"/>
<path d="M201.27 453.62H195.85V459.04H201.27V453.62Z" fill="white"/>
<path d="M212.1 453.62H206.68V459.04H212.1V453.62Z" fill="white"/>
<path d="M237.1 453.62H217.52V459.04H237.1V453.62Z" fill="white"/>
<path d="M312.33 453.62H292.75V459.04H312.33V453.62Z" fill="white"/>
<path d="M287.34 453.62H242.51V459.04H287.34V453.62Z" fill="white"/>
<path d="M201.27 464.45H195.85V469.87H201.27V464.45Z" fill="white"/>
<path d="M212.1 464.45H206.68V469.87H212.1V464.45Z" fill="white"/>
<path d="M237.1 464.45H217.52V469.87H237.1V464.45Z" fill="white"/>
<path d="M298.17 464.45H292.75V469.87H298.17V464.45Z" fill="white"/>
<path d="M287.34 464.45H242.51V469.87H287.34V464.45Z" fill="white"/>
<path d="M201.27 475.28H195.85V480.7H201.27V475.28Z" fill="white"/>
<path d="M212.1 475.28H206.68V480.7H212.1V475.28Z" fill="white"/>
<path d="M237.1 475.28H217.52V480.7H237.1V475.28Z" fill="white"/>
<path d="M312.33 475.28H292.75V480.7H312.33V475.28Z" fill="white"/>
<path d="M287.34 475.28H242.51V480.7H287.34V475.28Z" fill="white"/>
<path d="M201.27 486.11H195.85V491.53H201.27V486.11Z" fill="white"/>
<path d="M212.1 486.11H206.68V491.53H212.1V486.11Z" fill="white"/>
<path d="M237.1 486.11H217.52V491.53H237.1V486.11Z" fill="white"/>
<path d="M312.33 486.11H292.75V491.53H312.33V486.11Z" fill="white"/>
<path d="M287.34 486.11H242.51V491.53H287.34V486.11Z" fill="white"/>
<path d="M201.27 496.94H195.85V502.36H201.27V496.94Z" fill="white"/>
<path d="M212.1 496.94H206.68V502.36H212.1V496.94Z" fill="white"/>
<path d="M237.1 496.94H217.52V502.36H237.1V496.94Z" fill="white"/>
<path d="M298.17 496.94H292.75V502.36H298.17V496.94Z" fill="white"/>
<path d="M287.34 496.94H242.51V502.36H287.34V496.94Z" fill="white"/>
<path d="M201.27 507.77H195.85V513.19H201.27V507.77Z" fill="white"/>
<path d="M212.1 507.77H206.68V513.19H212.1V507.77Z" fill="white"/>
<path d="M237.1 507.77H217.52V513.19H237.1V507.77Z" fill="white"/>
<path d="M312.33 507.77H292.75V513.19H312.33V507.77Z" fill="white"/>
<path d="M287.34 507.77H242.51V513.19H287.34V507.77Z" fill="white"/>
<path d="M256.36 349.51C266.301 349.51 274.36 341.451 274.36 331.51C274.36 321.569 266.301 313.51 256.36 313.51C246.419 313.51 238.36 321.569 238.36 331.51C238.36 341.451 246.419 349.51 256.36 349.51Z" fill="#FD2B38"/>
<path d="M256.36 339.51C260.778 339.51 264.36 335.928 264.36 331.51C264.36 327.092 260.778 323.51 256.36 323.51C251.942 323.51 248.36 327.092 248.36 331.51C248.36 335.928 251.942 339.51 256.36 339.51Z" fill="white"/>
<path d="M648.39 290.75C648.771 290.743 649.144 290.858 649.454 291.08C649.764 291.302 649.994 291.617 650.11 291.98L662.18 327.74C662.913 329.889 664.129 331.841 665.734 333.446C667.339 335.051 669.291 336.267 671.44 337L707.19 349.07C707.553 349.183 707.869 349.411 708.091 349.719C708.313 350.028 708.428 350.4 708.42 350.78C708.427 351.161 708.312 351.534 708.09 351.844C707.868 352.154 707.553 352.384 707.19 352.5L671.44 364.57C669.29 365.3 667.336 366.514 665.73 368.12C664.124 369.726 662.91 371.68 662.18 373.83L650.11 409.58C649.994 409.943 649.764 410.258 649.454 410.48C649.144 410.702 648.771 410.817 648.39 410.81C648.01 410.818 647.638 410.703 647.329 410.481C647.021 410.259 646.793 409.943 646.68 409.58L634.61 373.84C633.877 371.691 632.661 369.739 631.056 368.134C629.451 366.529 627.499 365.313 625.35 364.58L589.59 352.51C589.227 352.394 588.912 352.164 588.69 351.854C588.468 351.544 588.353 351.171 588.36 350.79C588.352 350.41 588.467 350.038 588.689 349.729C588.911 349.421 589.227 349.193 589.59 349.08L625.32 337C627.467 336.264 629.418 335.048 631.023 333.443C632.628 331.838 633.844 329.887 634.58 327.74L646.65 291.98C646.763 291.617 646.991 291.301 647.299 291.079C647.608 290.857 647.98 290.742 648.36 290.75H648.39ZM648.36 289.75C647.771 289.744 647.196 289.926 646.718 290.27C646.239 290.613 645.883 291.1 645.7 291.66L633.63 327.42C632.952 329.425 631.821 331.247 630.324 332.744C628.827 334.241 627.005 335.372 625 336.05L589.32 348.12C588.765 348.309 588.282 348.667 587.941 349.144C587.599 349.621 587.416 350.193 587.416 350.78C587.416 351.367 587.599 351.939 587.941 352.416C588.282 352.893 588.765 353.251 589.32 353.44L625.08 365.52C627.086 366.196 628.909 367.327 630.406 368.824C631.903 370.321 633.034 372.144 633.71 374.15L645.78 409.9C645.967 410.459 646.325 410.945 646.803 411.289C647.281 411.634 647.856 411.819 648.445 411.819C649.034 411.819 649.609 411.634 650.087 411.289C650.565 410.945 650.923 410.459 651.11 409.9L663.18 374.15C663.855 372.143 664.985 370.32 666.483 368.823C667.98 367.325 669.803 366.195 671.81 365.52L707.56 353.44C708.115 353.251 708.598 352.893 708.939 352.416C709.281 351.939 709.464 351.367 709.464 350.78C709.464 350.193 709.281 349.621 708.939 349.144C708.598 348.667 708.115 348.309 707.56 348.12L671.81 336.05C669.804 335.374 667.981 334.243 666.484 332.746C664.987 331.249 663.856 329.426 663.18 327.42L651.11 291.66C650.927 291.099 650.569 290.61 650.088 290.267C649.608 289.923 649.031 289.742 648.44 289.75H648.36Z" fill="white"/>
</svg>
