<svg xmlns="http://www.w3.org/2000/svg" viewBox="0 0 760.72 629.38"><defs><style>.cls-1{fill:#fff;}.cls-2{fill:#c6074e;}.cls-3{fill:none;}.cls-4{fill:#333266;}.cls-5{fill:#bdbdff;}.cls-6{fill:#554aff;}.cls-7{fill:#d2d2ff;}.cls-8{fill:#9593b2;}.cls-9{fill:#1f1a5c;}.cls-10{fill:#a7adce;}.cls-11{fill:#a8074e;}.cls-12{fill:#fd2b38;}.cls-13{fill:#ffa5a1;}.cls-14{fill:#3d33b3;}</style></defs><g id="Layer_2" data-name="Layer 2"><g id="Слой_7" data-name="Слой 7"><path class="cls-1" d="M461.41,699.45a140.57,140.57,0,0,0-281.14,0Z" transform="translate(-30.65 -83.37)"/><path class="cls-1" d="M556.32,699.45a81.8,81.8,0,0,0-163.59,0Z" transform="translate(-30.65 -83.37)"/><circle class="cls-1" cx="464.36" cy="39.07" r="21.46"/><circle class="cls-1" cx="281.63" cy="172.39" r="11.55"/><path class="cls-2" d="M266.31,553.44v118a34.32,34.32,0,0,1-68.63,0V550.89h-7V671.44a41.32,41.32,0,0,0,82.63,0v-118Z" transform="translate(-30.65 -83.37)"/><polygon class="cls-3" points="370.02 216.78 358.06 216.78 358.75 223.38 369.79 223.38 370.02 216.78"/><path class="cls-2" d="M473.92,253.29a26.83,26.83,0,0,0-26.8,26.8A20,20,0,0,1,427.19,300H400.8v0H384a26.83,26.83,0,0,0-26.8,26.8,20.11,20.11,0,0,1-.63,5l0,.13,6.77,1.26,0-.12a26.45,26.45,0,0,0,.75-6.28A19.94,19.94,0,0,1,384,306.87h5.27v0h37.9a26.83,26.83,0,0,0,26.8-26.8,20,20,0,0,1,19.93-19.92h16.77v-6.88Z" transform="translate(-30.65 -83.37)"/><polyline points="523.82 286.69 523.82 263.51 530.69 263.51 530.69 286.69"/><path class="cls-2" d="M554.46,369.4v53.74a30.51,30.51,0,0,1-27.8,30.38c-1.41.08-224.82.12-227.08.12h-.25v6.87h.25c2.26,0,226.28,0,227.45-.12a37.57,37.57,0,0,0,34.31-37.25V369.4Z" transform="translate(-30.65 -83.37)"/><path class="cls-2" d="M473.92,317.13a26.83,26.83,0,0,0-26.8,26.8,20,20,0,0,1-19.93,19.93H388.71v.25h0l.67,6.49h0v.13h37.79a26.83,26.83,0,0,0,26.8-26.8A20,20,0,0,1,473.92,324h16.77v-6.87Z" transform="translate(-30.65 -83.37)"/><rect x="472.75" y="370.18" width="23.2" height="6.84"/><rect x="443.38" y="169.93" width="18.24" height="6.87"/><rect x="443" y="233.76" width="18.62" height="6.87"/><polygon points="242.66 491.23 235.66 484.58 235.66 473.1 242.66 473.1 242.66 491.23"/><rect x="160.03" y="478.77" width="7" height="19.67"/><path class="cls-4" d="M711.37,490.29A46.85,46.85,0,1,1,744.51,504,46.57,46.57,0,0,1,711.37,490.29Z" transform="translate(-30.65 -83.37)"/><path class="cls-5" d="M700.62,490.29A46.85,46.85,0,1,1,733.77,504,46.57,46.57,0,0,1,700.62,490.29Z" transform="translate(-30.65 -83.37)"/><path class="cls-6" d="M692.68,467.63a42.72,42.72,0,0,1-1.3-10.47,42.39,42.39,0,0,1,81.5-16.31l-4.2,1.75a37.83,37.83,0,0,0-72.74,14.56,38.49,38.49,0,0,0,1.15,9.35Z" transform="translate(-30.65 -83.37)"/><path class="cls-7" d="M708.38,491.11a44.37,44.37,0,0,1-4.59-4,42.28,42.28,0,0,1-11.11-19.5l4.41-1.12A37.78,37.78,0,0,0,707,483.9a39.3,39.3,0,0,0,4.1,3.56Z" transform="translate(-30.65 -83.37)"/><path class="cls-1" d="M733.75,499.54a42,42,0,0,1-25.37-8.43l2.73-3.65a37.85,37.85,0,0,0,57.57-44.86l4.2-1.75a42.39,42.39,0,0,1-39.13,58.69Z" transform="translate(-30.65 -83.37)"/><path class="cls-6" d="M602.48,555l21-7.08a1.64,1.64,0,0,0,0-3.12l-21-7.08a8.07,8.07,0,0,1-5.06-5.07l-7.08-21a1.65,1.65,0,0,0-3.13,0l-7.08,21a8.05,8.05,0,0,1-5.06,5.07l-21,7.08a1.65,1.65,0,0,0,0,3.12l21,7.08a8,8,0,0,1,5.06,5.06l7.08,21a1.65,1.65,0,0,0,3.13,0l7.08-21A8.06,8.06,0,0,1,602.48,555Z" transform="translate(-30.65 -83.37)"/><circle class="cls-8" cx="543.32" cy="373.79" r="5"/><circle class="cls-8" cx="565.32" cy="373.79" r="5"/><circle class="cls-9" cx="587.32" cy="373.79" r="5"/><circle class="cls-8" cx="609.32" cy="373.79" r="5"/><circle class="cls-8" cx="631.32" cy="373.79" r="5"/><rect class="cls-10" x="458.9" y="212.92" width="232.64" height="44.31"/><polygon class="cls-9" points="691.54 212.91 691.54 257.23 458.9 257.23 458.9 263.87 698.18 263.87 698.18 257.23 698.18 212.91 691.54 212.91"/><circle class="cls-1" cx="477.73" cy="235.07" r="5.54"/><circle class="cls-1" cx="502.1" cy="235.07" r="5.54"/><circle class="cls-6" cx="526.48" cy="235.07" r="5.54"/><rect class="cls-10" x="458.9" y="150.88" width="232.64" height="44.31"/><polygon class="cls-9" points="691.54 150.88 691.54 195.19 458.9 195.19 458.9 201.84 698.18 201.84 698.18 195.19 698.18 150.88 691.54 150.88"/><circle class="cls-1" cx="477.73" cy="173.04" r="5.54"/><circle class="cls-6" cx="502.1" cy="173.04" r="5.54"/><circle class="cls-1" cx="526.48" cy="173.04" r="5.54"/><rect class="cls-10" x="458.9" y="88.84" width="232.64" height="44.31"/><polygon class="cls-9" points="691.54 88.84 691.54 133.16 458.9 133.16 458.9 139.8 698.18 139.8 698.18 133.16 698.18 88.84 691.54 88.84"/><rect class="cls-9" x="671.6" y="226.21" width="6.65" height="17.72"/><rect class="cls-9" x="658.3" y="226.21" width="6.65" height="17.72"/><rect class="cls-9" x="645.01" y="226.21" width="6.65" height="17.72"/><rect class="cls-9" x="631.72" y="226.21" width="6.65" height="17.72"/><rect class="cls-9" x="671.6" y="164.17" width="6.65" height="17.72"/><rect class="cls-9" x="658.3" y="164.17" width="6.65" height="17.72"/><rect class="cls-9" x="645.01" y="164.17" width="6.65" height="17.72"/><rect class="cls-9" x="631.72" y="164.17" width="6.65" height="17.72"/><rect class="cls-9" x="671.6" y="102.14" width="6.65" height="17.72"/><rect class="cls-9" x="658.3" y="102.14" width="6.65" height="17.72"/><rect class="cls-9" x="645.01" y="102.14" width="6.65" height="17.72"/><rect class="cls-9" x="631.72" y="102.14" width="6.65" height="17.72"/><circle class="cls-6" cx="477.73" cy="111" r="5.54"/><circle class="cls-6" cx="502.1" cy="111" r="5.54"/><circle class="cls-1" cx="526.48" cy="111" r="5.54"/><rect class="cls-9" x="698.18" y="233.96" width="24.98" height="6.65"/><rect class="cls-9" x="698.18" y="169.71" width="24.98" height="6.65"/><rect class="cls-9" x="698.18" y="105.46" width="24.98" height="6.65"/><path class="cls-6" d="M755.92,324H753.7v-6.65h2.22a28.8,28.8,0,1,0,0-57.6H753.7v-6.65h2.22a35.45,35.45,0,1,1,0,70.9Z" transform="translate(-30.65 -83.37)"/><path class="cls-6" d="M755.92,259.73H753.7v-6.65h2.22a28.8,28.8,0,1,0,0-57.6H753.7v-6.65h2.22a35.45,35.45,0,1,1,0,70.9Z" transform="translate(-30.65 -83.37)"/><rect class="cls-6" x="178.47" y="466.08" width="60.67" height="7"/><polygon class="cls-9" points="239.28 473.08 221.67 473.08 215.27 466.08 239.28 466.08 239.28 473.08"/><path class="cls-6" d="M190.32,556.45H111.49a48.67,48.67,0,1,1,0-97.34H232a21.52,21.52,0,0,0,21.5-21.5V186.45A21.53,21.53,0,0,0,232,165H195.82v-7H232a28.54,28.54,0,0,1,28.5,28.5V437.61a28.53,28.53,0,0,1-28.5,28.5H111.49a41.67,41.67,0,0,0,0,83.34h78.83Z" transform="translate(-30.65 -83.37)"/><rect class="cls-9" x="222.83" y="119.56" width="7" height="24.01"/><rect class="cls-9" x="153.04" y="375.7" width="22.43" height="7"/><rect class="cls-9" x="187.37" y="375.7" width="22.43" height="7"/><rect class="cls-2" x="160.68" y="118.26" width="7" height="349.48"/><path class="cls-1" d="M280.66,208.37a125,125,0,0,0-250,0Z" transform="translate(-30.65 -83.37)"/><path class="cls-1" d="M365.06,208.37a72.74,72.74,0,0,0-145.47,0Z" transform="translate(-30.65 -83.37)"/><rect class="cls-9" x="135.19" y="466.08" width="24.01" height="7"/><polygon class="cls-9" points="222.84 303.06 222.84 275.58 229.84 269.08 229.84 303.06 222.84 303.06"/><rect class="cls-9" x="169.77" y="466.08" width="24.01" height="7"/><circle class="cls-9" cx="309.83" cy="111.74" r="5"/><circle class="cls-9" cx="331.83" cy="111.74" r="5"/><circle class="cls-1" cx="353.83" cy="111.74" r="5"/><circle class="cls-1" cx="406.16" cy="111.74" r="5"/><rect x="160.68" y="128.95" width="7" height="19.67"/><circle class="cls-6" cx="164.18" cy="116.75" r="18"/><circle class="cls-1" cx="164.18" cy="116.75" r="8"/><path class="cls-11" d="M293.56,553.54a132,132,0,0,1-38.91-93.9c0-73.21,59.54-132.76,132.75-132.74A132.85,132.85,0,0,1,520.2,459.7c0,73.21-59.53,132.76-132.74,132.75A132,132,0,0,1,293.56,553.54Z" transform="translate(-30.65 -83.37)"/><path class="cls-12" d="M263.12,553.54A132.75,132.75,0,1,1,357,592.45,132,132,0,0,1,263.12,553.54Z" transform="translate(-30.65 -83.37)"/><path class="cls-11" d="M240.6,489.32a121.25,121.25,0,0,1-3.67-29.65,120.11,120.11,0,0,1,230.91-46.23l-11.91,5a107.18,107.18,0,0,0-206.09,41.26,108.2,108.2,0,0,0,3.27,26.48Z" transform="translate(-30.65 -83.37)"/><path class="cls-13" d="M285.09,555.84a122.89,122.89,0,0,1-13-11.28,119.74,119.74,0,0,1-31.49-55.24l12.51-3.17a107.91,107.91,0,0,0,39.73,59.37Z" transform="translate(-30.65 -83.37)"/><path class="cls-1" d="M357,579.72a118.82,118.82,0,0,1-71.89-23.88l7.75-10.32A107.23,107.23,0,0,0,455.93,418.41l11.91-5A120.11,120.11,0,0,1,357,579.72Z" transform="translate(-30.65 -83.37)"/><path class="cls-1" d="M380.61,523.93H304.07V504.57h13.75v-89.8H304.07V395.41H379a35,35,0,0,1,25.56,58.82,39,39,0,0,1-23.93,69.7Zm-43.43-19.36h43.43a19.61,19.61,0,0,0,0-39.21H337.18Zm0-58.57H379a15.62,15.62,0,0,0,0-31.23h-41.8Z" transform="translate(-30.65 -83.37)"/><rect class="cls-1" x="297.64" y="295.63" width="19.36" height="26.09"/><rect class="cls-1" x="337.87" y="295.63" width="19.36" height="26.09"/><rect class="cls-1" x="297.64" y="430.88" width="19.36" height="26.63"/><rect class="cls-1" x="337.87" y="430.88" width="19.36" height="26.63"/><path class="cls-1" d="M310.78,353.4a1.52,1.52,0,0,1-1.46-1l-4.46-13.2a4.61,4.61,0,0,0-2.87-2.88l-13.21-4.46a1.53,1.53,0,0,1,0-2.91L302,324.44a4.6,4.6,0,0,0,2.87-2.87l4.46-13.21a1.53,1.53,0,0,1,2.91,0l4.46,13.21a4.61,4.61,0,0,0,2.88,2.87l13.2,4.46a1.53,1.53,0,0,1,0,2.91l-13.2,4.46a4.63,4.63,0,0,0-2.88,2.88l-4.46,13.2A1.5,1.5,0,0,1,310.78,353.4Zm0-45.09a.52.52,0,0,0-.51.37l-4.46,13.21a5.61,5.61,0,0,1-3.5,3.5l-13.21,4.46a.52.52,0,0,0-.37.51.53.53,0,0,0,.37.51l13.21,4.46a5.61,5.61,0,0,1,3.5,3.5l4.46,13.2a.52.52,0,0,0,.51.37.53.53,0,0,0,.51-.37l4.45-13.2a5.63,5.63,0,0,1,3.51-3.5l13.2-4.46a.53.53,0,0,0,.37-.51.52.52,0,0,0-.37-.51l-13.2-4.46a5.63,5.63,0,0,1-3.51-3.5l-4.45-13.21A.53.53,0,0,0,310.78,308.31Z" transform="translate(-30.65 -83.37)"/><rect x="160.68" y="440.6" width="7" height="19.67"/><circle class="cls-14" cx="164.36" cy="469.23" r="18"/><circle class="cls-1" cx="164.36" cy="469.23" r="8"/></g></g></svg>