<svg xmlns="http://www.w3.org/2000/svg" viewBox="0 0 81.66 73.26"><defs><style>.cls-1{fill:#333266;}.cls-2{fill:#bdbdff;}.cls-3{fill:#7b7bff;}.cls-4{fill:#d2d2ff;}.cls-5{fill:#fff;}</style></defs><g id="Layer_2" data-name="Layer 2"><g id="Слой_7" data-name="Слой 7"><path class="cls-1" d="M19.13,62.52A36.62,36.62,0,1,1,45,73.26,36.39,36.39,0,0,1,19.13,62.52Z"/><path class="cls-2" d="M10.73,62.52A36.62,36.62,0,1,1,62.52,10.73,36.62,36.62,0,1,1,10.73,62.52Z"/><path class="cls-3" d="M4.52,44.81a33.5,33.5,0,0,1-1-8.18A33.12,33.12,0,0,1,60.05,13.21a32.9,32.9,0,0,1,7.16,10.67l-3.29,1.37a29.56,29.56,0,0,0-48.19-9.52,29.32,29.32,0,0,0-8.66,20.9,29.73,29.73,0,0,0,.9,7.3Z"/><path class="cls-4" d="M16.8,63.16a34.2,34.2,0,0,1-3.59-3.11A33.13,33.13,0,0,1,4.52,44.81L8,43.93a29.53,29.53,0,0,0,7.76,13.6,30.06,30.06,0,0,0,3.2,2.78Z"/><path class="cls-5" d="M36.63,69.75A32.75,32.75,0,0,1,16.8,63.16l2.13-2.85a29.57,29.57,0,0,0,45-35.06l3.29-1.37A33.13,33.13,0,0,1,36.63,69.75Z"/></g></g></svg>