<svg width="705" height="571" viewBox="0 0 705 571" fill="none" xmlns="http://www.w3.org/2000/svg">
<g clip-path="url(#clip0)">
<path d="M274 314.39H177.12C156.932 314.39 137.57 306.37 123.295 292.095C109.02 277.82 101 258.458 101 238.27C101 218.082 109.02 198.72 123.295 184.445C137.57 170.17 156.932 162.15 177.12 162.15H274V168.15H177.12C158.523 168.15 140.688 175.538 127.538 188.688C114.388 201.838 107 219.673 107 238.27C107 256.867 114.388 274.702 127.538 287.852C140.688 301.002 158.523 308.39 177.12 308.39H274V314.39Z" fill="#C6074E"/>
<path d="M261.33 162.15H246V168.15H261.33V162.15Z" fill="black"/>
<path d="M261.33 308.4H246V314.4H261.33V308.4Z" fill="black"/>
<path d="M257.96 26.8C265.361 26.8 271.36 20.8006 271.36 13.4C271.36 5.99938 265.361 0 257.96 0C250.559 0 244.56 5.99938 244.56 13.4C244.56 20.8006 250.559 26.8 257.96 26.8Z" fill="white"/>
<path d="M582.97 570.34C593.154 570.34 601.41 562.084 601.41 551.9C601.41 541.716 593.154 533.46 582.97 533.46C572.786 533.46 564.53 541.716 564.53 551.9C564.53 562.084 572.786 570.34 582.97 570.34Z" fill="white"/>
<path d="M187.73 87.02L177.44 83.55C177.282 83.4922 177.146 83.3874 177.05 83.2497C176.954 83.112 176.902 82.948 176.902 82.78C176.902 82.612 176.954 82.4481 177.05 82.3103C177.146 82.1726 177.282 82.0678 177.44 82.01L187.73 78.54C188.305 78.3422 188.827 78.016 189.256 77.5863C189.686 77.1566 190.012 76.6346 190.21 76.06L193.68 65.78C193.73 65.6162 193.832 65.4728 193.969 65.3709C194.107 65.269 194.274 65.2141 194.445 65.2141C194.616 65.2141 194.783 65.269 194.921 65.3709C195.059 65.4728 195.16 65.6162 195.21 65.78L198.68 76.06C198.878 76.6346 199.204 77.1566 199.634 77.5863C200.063 78.016 200.585 78.3422 201.16 78.54L211.45 82.01C211.608 82.0678 211.744 82.1726 211.84 82.3103C211.936 82.4481 211.988 82.612 211.988 82.78C211.988 82.948 211.936 83.112 211.84 83.2497C211.744 83.3874 211.608 83.4922 211.45 83.55L201.16 87.02C200.585 87.2178 200.063 87.544 199.634 87.9737C199.204 88.4034 198.878 88.9254 198.68 89.5L195.21 99.78C195.16 99.9438 195.059 100.087 194.921 100.189C194.783 100.291 194.616 100.346 194.445 100.346C194.274 100.346 194.107 100.291 193.969 100.189C193.832 100.087 193.73 99.9438 193.68 99.78L190.21 89.49C190.011 88.9172 189.684 88.3973 189.255 87.9693C188.825 87.5414 188.304 87.2168 187.73 87.02V87.02Z" fill="#3D33B3"/>
<path d="M652.03 209.9H531.51V216.9H652.03C656.586 216.822 661.111 217.652 665.343 219.342C669.574 221.032 673.427 223.547 676.676 226.741C679.925 229.935 682.505 233.744 684.267 237.946C686.029 242.148 686.936 246.659 686.936 251.215C686.936 255.771 686.029 260.282 684.267 264.484C682.505 268.686 679.925 272.495 676.676 275.689C673.427 278.883 669.574 281.399 665.343 283.088C661.111 284.778 656.586 285.608 652.03 285.53H534.03V292.53H652.03C657.51 292.615 662.952 291.61 668.039 289.572C673.126 287.534 677.757 284.504 681.662 280.659C685.567 276.814 688.669 272.231 690.786 267.176C692.903 262.121 693.993 256.695 693.993 251.215C693.993 245.735 692.903 240.309 690.786 235.254C688.669 230.199 685.567 225.616 681.662 221.771C677.757 217.926 673.126 214.896 668.039 212.858C662.952 210.82 657.51 209.815 652.03 209.9Z" fill="#554AFF"/>
<path d="M551.16 285.54H531.49V292.54H551.16V285.54Z" fill="#1F1A5C"/>
<path d="M551.16 209.91H531.49V216.91H551.16V209.91Z" fill="#1F1A5C"/>
<path d="M639 146.82C641.761 146.82 644 144.581 644 141.82C644 139.059 641.761 136.82 639 136.82C636.239 136.82 634 139.059 634 141.82C634 144.581 636.239 146.82 639 146.82Z" fill="#FD2B38"/>
<path d="M639 168.82C641.761 168.82 644 166.581 644 163.82C644 161.059 641.761 158.82 639 158.82C636.239 158.82 634 161.059 634 163.82C634 166.581 636.239 168.82 639 168.82Z" fill="#9593B2"/>
<path d="M639 190.82C641.761 190.82 644 188.581 644 185.82C644 183.059 641.761 180.82 639 180.82C636.239 180.82 634 183.059 634 185.82C634 188.581 636.239 190.82 639 190.82Z" fill="#9593B2"/>
<path d="M639 243.16C641.761 243.16 644 240.921 644 238.16C644 235.399 641.761 233.16 639 233.16C636.239 233.16 634 235.399 634 238.16C634 240.921 636.239 243.16 639 243.16Z" fill="#9593B2"/>
<path d="M297.11 550.66H458.7C479.521 550.66 496.4 533.781 496.4 512.96L496.4 146.7C496.4 125.879 479.521 109 458.7 109H297.11C276.289 109 259.41 125.879 259.41 146.7L259.41 512.96C259.41 533.781 276.289 550.66 297.11 550.66Z" fill="#A8074E"/>
<path d="M338.11 550.66H499.7C520.521 550.66 537.4 533.781 537.4 512.96V146.7C537.4 125.879 520.521 109 499.7 109H338.11C317.289 109 300.41 125.879 300.41 146.7L300.41 512.96C300.41 533.781 317.289 550.66 338.11 550.66Z" fill="#FD2B38"/>
<path d="M317.34 397.01H259.42V403.01H317.34V397.01Z" fill="#8A0639"/>
<path d="M519.15 371.29H537.41V306.77H519.15V371.29Z" fill="#1F1A5C"/>
<path d="M518.1 203.9L537.47 190.67V145.4H518.1V203.9Z" fill="#1F1A5C"/>
<path d="M521.24 512.95V146.69C521.24 134.794 511.596 125.15 499.7 125.15L338.11 125.15C326.214 125.15 316.57 134.794 316.57 146.69V512.95C316.57 524.846 326.214 534.49 338.11 534.49H499.7C511.596 534.49 521.24 524.846 521.24 512.95Z" fill="#F2F2F2"/>
<path d="M480.51 534.49L316.51 370.49V512.95C316.51 515.785 317.069 518.591 318.156 521.209C319.243 523.827 320.836 526.205 322.844 528.206C324.851 530.207 327.234 531.792 329.855 532.87C332.477 533.949 335.285 534.499 338.12 534.49H480.51Z" fill="white"/>
<path d="M513.17 512.95V486.81C513.17 479.371 507.139 473.34 499.7 473.34H338.13C330.691 473.34 324.66 479.371 324.66 486.81V512.95C324.66 520.389 330.691 526.42 338.13 526.42H499.7C507.139 526.42 513.17 520.389 513.17 512.95Z" fill="#BDBDFF"/>
<path d="M473.56 518.34H499.7C502.677 518.34 505.09 515.927 505.09 512.95V486.81C505.09 483.833 502.677 481.42 499.7 481.42H473.56C470.583 481.42 468.17 483.833 468.17 486.81V512.95C468.17 515.927 470.583 518.34 473.56 518.34Z" fill="#333266"/>
<path d="M428.59 518.34H454.73C457.707 518.34 460.12 515.927 460.12 512.95V486.81C460.12 483.833 457.707 481.42 454.73 481.42H428.59C425.613 481.42 423.2 483.833 423.2 486.81V512.95C423.2 515.927 425.613 518.34 428.59 518.34Z" fill="white"/>
<path d="M383.61 518.34H409.75C412.727 518.34 415.14 515.927 415.14 512.95V486.81C415.14 483.833 412.727 481.42 409.75 481.42H383.61C380.633 481.42 378.22 483.833 378.22 486.81V512.95C378.22 515.927 380.633 518.34 383.61 518.34Z" fill="#C6074E"/>
<path d="M338.64 518.34H364.78C367.757 518.34 370.17 515.927 370.17 512.95V486.81C370.17 483.833 367.757 481.42 364.78 481.42H338.64C335.663 481.42 333.25 483.833 333.25 486.81V512.95C333.25 515.927 335.663 518.34 338.64 518.34Z" fill="#FEFEFE"/>
<path d="M473.56 199.78H499.7C502.677 199.78 505.09 197.367 505.09 194.39V168.25C505.09 165.273 502.677 162.86 499.7 162.86H473.56C470.583 162.86 468.17 165.273 468.17 168.25V194.39C468.17 197.367 470.583 199.78 473.56 199.78Z" fill="#7B7BFF"/>
<path d="M428.59 199.78H454.73C457.707 199.78 460.12 197.367 460.12 194.39V168.25C460.12 165.273 457.707 162.86 454.73 162.86H428.59C425.613 162.86 423.2 165.273 423.2 168.25V194.39C423.2 197.367 425.613 199.78 428.59 199.78Z" fill="#FD2B38"/>
<path d="M383.61 199.78H409.75C412.727 199.78 415.14 197.367 415.14 194.39V168.25C415.14 165.273 412.727 162.86 409.75 162.86H383.61C380.633 162.86 378.22 165.273 378.22 168.25V194.39C378.22 197.367 380.633 199.78 383.61 199.78Z" fill="#1F1A5C"/>
<path d="M338.64 199.78H364.78C367.757 199.78 370.17 197.367 370.17 194.39V168.25C370.17 165.273 367.757 162.86 364.78 162.86H338.64C335.663 162.86 333.25 165.273 333.25 168.25V194.39C333.25 197.367 335.663 199.78 338.64 199.78Z" fill="#FD2B38"/>
<path d="M473.56 252.85H499.7C502.677 252.85 505.09 250.437 505.09 247.46V221.32C505.09 218.343 502.677 215.93 499.7 215.93H473.56C470.583 215.93 468.17 218.343 468.17 221.32V247.46C468.17 250.437 470.583 252.85 473.56 252.85Z" fill="#1F1A5C"/>
<path d="M428.59 252.85H454.73C457.707 252.85 460.12 250.437 460.12 247.46V221.32C460.12 218.343 457.707 215.93 454.73 215.93H428.59C425.613 215.93 423.2 218.343 423.2 221.32V247.46C423.2 250.437 425.613 252.85 428.59 252.85Z" fill="#1F1A5C"/>
<path d="M383.61 252.85H409.75C412.727 252.85 415.14 250.437 415.14 247.46V221.32C415.14 218.343 412.727 215.93 409.75 215.93H383.61C380.633 215.93 378.22 218.343 378.22 221.32V247.46C378.22 250.437 380.633 252.85 383.61 252.85Z" fill="#7B7BFF"/>
<path d="M338.64 252.85H364.78C367.757 252.85 370.17 250.437 370.17 247.46V221.32C370.17 218.343 367.757 215.93 364.78 215.93H338.64C335.663 215.93 333.25 218.343 333.25 221.32V247.46C333.25 250.437 335.663 252.85 338.64 252.85Z" fill="#1F1A5C"/>
<path d="M383.61 305.94H409.75C412.727 305.94 415.14 303.527 415.14 300.55V274.41C415.14 271.433 412.727 269.02 409.75 269.02H383.61C380.633 269.02 378.22 271.433 378.22 274.41V300.55C378.22 303.527 380.633 305.94 383.61 305.94Z" fill="#BDBDFF"/>
<path d="M338.64 305.94H364.78C367.757 305.94 370.17 303.527 370.17 300.55V274.41C370.17 271.433 367.757 269.02 364.78 269.02H338.64C335.663 269.02 333.25 271.433 333.25 274.41V300.55C333.25 303.527 335.663 305.94 338.64 305.94Z" fill="#7B7BFF"/>
<path d="M383.61 359.02H409.75C412.727 359.02 415.14 356.607 415.14 353.63V327.49C415.14 324.513 412.727 322.1 409.75 322.1H383.61C380.633 322.1 378.22 324.513 378.22 327.49V353.63C378.22 356.607 380.633 359.02 383.61 359.02Z" fill="#1F1A5C"/>
<path d="M338.64 359.02H364.78C367.757 359.02 370.17 356.607 370.17 353.63V327.49C370.17 324.513 367.757 322.1 364.78 322.1H338.64C335.663 322.1 333.25 324.513 333.25 327.49V353.63C333.25 356.607 335.663 359.02 338.64 359.02Z" fill="#BDBDFF"/>
<path d="M338.64 412.1H364.78C367.757 412.1 370.17 409.687 370.17 406.71V380.57C370.17 377.593 367.757 375.18 364.78 375.18H338.64C335.663 375.18 333.25 377.593 333.25 380.57V406.71C333.25 409.687 335.663 412.1 338.64 412.1Z" fill="#1F1A5C"/>
<path d="M486.63 510.65C492.578 510.65 497.4 505.828 497.4 499.88C497.4 493.932 492.578 489.11 486.63 489.11C480.682 489.11 475.86 493.932 475.86 499.88C475.86 505.828 480.682 510.65 486.63 510.65Z" fill="white"/>
<path d="M351.71 510.65C357.658 510.65 362.48 505.828 362.48 499.88C362.48 493.932 357.658 489.11 351.71 489.11C345.762 489.11 340.94 493.932 340.94 499.88C340.94 505.828 345.762 510.65 351.71 510.65Z" fill="#333266"/>
<path d="M351.71 298.25C357.658 298.25 362.48 293.428 362.48 287.48C362.48 281.532 357.658 276.71 351.71 276.71C345.762 276.71 340.94 281.532 340.94 287.48C340.94 293.428 345.762 298.25 351.71 298.25Z" fill="white"/>
<path d="M441.66 245.17C447.608 245.17 452.43 240.348 452.43 234.4C452.43 228.452 447.608 223.63 441.66 223.63C435.712 223.63 430.89 228.452 430.89 234.4C430.89 240.348 435.712 245.17 441.66 245.17Z" fill="white"/>
<path d="M383.9 140.58H453.9C458.184 140.58 462.293 138.879 465.323 135.85C468.354 132.822 470.057 128.714 470.06 124.43H367.74C367.743 128.714 369.446 132.822 372.477 135.85C375.507 138.879 379.616 140.58 383.9 140.58V140.58Z" fill="#FD2B38"/>
<path d="M396.02 129.81H439.11C439.823 129.81 440.508 129.527 441.012 129.022C441.517 128.518 441.8 127.833 441.8 127.12V127.12C441.8 126.407 441.517 125.722 441.012 125.218C440.508 124.713 439.823 124.43 439.11 124.43H396.02C395.666 124.429 395.316 124.497 394.989 124.632C394.662 124.767 394.365 124.965 394.115 125.215C393.865 125.465 393.667 125.762 393.532 126.089C393.397 126.416 393.329 126.766 393.33 127.12C393.329 127.474 393.397 127.824 393.532 128.151C393.667 128.478 393.865 128.775 394.115 129.025C394.365 129.275 394.662 129.473 394.989 129.608C395.316 129.743 395.666 129.811 396.02 129.81Z" fill="white"/>
<path d="M508.43 348.49L503.87 348.29H502.87V375.78C502.87 398 502.87 423.18 502.87 423.6C502.333 429.302 499.693 434.601 495.463 438.462C491.233 442.324 485.717 444.473 479.99 444.49H363.67V450.56H479.99C487.257 450.527 494.249 447.78 499.594 442.856C504.94 437.933 508.251 431.19 508.88 423.95C508.88 423.81 508.88 411.47 508.88 376.77V348.51L508.43 348.49Z" fill="#FD2B38"/>
<path d="M382.1 444.53H362.43V450.58H382.1V444.53Z" fill="#8A0639"/>
<path d="M508.93 348.32H502.86V367.99H508.93V348.32Z" fill="#8A0639"/>
<path d="M562.3 357.39C564.748 357.447 567.182 357.014 569.46 356.117C571.739 355.22 573.814 353.876 575.566 352.165C577.317 350.454 578.709 348.41 579.659 346.154C580.609 343.897 581.099 341.473 581.099 339.025C581.099 336.577 580.609 334.153 579.659 331.896C578.709 329.64 577.317 327.596 575.566 325.885C573.814 324.174 571.739 322.83 569.46 321.933C567.182 321.036 564.748 320.603 562.3 320.66H496.15C493.702 320.603 491.268 321.036 488.99 321.933C486.711 322.83 484.636 324.174 482.884 325.885C481.133 327.596 479.741 329.64 478.791 331.896C477.841 334.153 477.351 336.577 477.351 339.025C477.351 341.473 477.841 343.897 478.791 346.154C479.741 348.41 481.133 350.454 482.884 352.165C484.636 353.876 486.711 355.22 488.99 356.117C491.268 357.014 493.702 357.447 496.15 357.39H562.3Z" fill="#7B7BFF"/>
<path d="M560.51 345.56H497.91C497.052 345.56 496.202 345.391 495.409 345.062C494.616 344.733 493.896 344.251 493.289 343.644C492.683 343.036 492.202 342.315 491.874 341.522C491.547 340.729 491.379 339.878 491.38 339.02V339.02C491.38 337.288 492.068 335.627 493.293 334.403C494.517 333.178 496.178 332.49 497.91 332.49H560.51C562.243 332.49 563.905 333.178 565.131 334.402C566.357 335.626 567.047 337.287 567.05 339.02V339.02C567.05 340.755 566.361 342.418 565.134 343.644C563.908 344.871 562.245 345.56 560.51 345.56V345.56Z" fill="white"/>
<path d="M522.69 345.56H497.92C497.062 345.56 496.212 345.391 495.419 345.062C494.626 344.733 493.906 344.251 493.299 343.644C492.693 343.036 492.212 342.315 491.884 341.522C491.557 340.729 491.389 339.878 491.39 339.02V339.02C491.39 337.288 492.078 335.627 493.303 334.403C494.527 333.178 496.188 332.49 497.92 332.49H522.69C524.422 332.49 526.083 333.178 527.307 334.403C528.532 335.627 529.22 337.288 529.22 339.02V339.02C529.221 339.878 529.053 340.729 528.726 341.522C528.398 342.315 527.917 343.036 527.311 343.644C526.704 344.251 525.984 344.733 525.191 345.062C524.398 345.391 523.548 345.56 522.69 345.56V345.56Z" fill="white"/>
<path d="M487.02 144.2H521.28V178.49L585.81 138.16C594.021 133.026 600.792 125.888 605.487 117.418C610.182 108.948 612.647 99.4241 612.65 89.74V87.09C612.649 79.5885 611.17 72.1608 608.297 65.2311C605.425 58.3014 601.215 52.0055 595.909 46.703C590.603 41.4005 584.304 37.1953 577.372 34.3277C570.44 31.46 563.012 29.9861 555.51 29.99H487.02C471.876 29.99 457.353 36.0059 446.644 46.7142C435.936 57.4225 429.92 71.9461 429.92 87.09V87.09C429.919 94.5893 431.395 102.015 434.264 108.944C437.133 115.873 441.338 122.169 446.641 127.472C451.943 132.776 458.238 136.982 465.167 139.853C472.095 142.723 479.521 144.2 487.02 144.2V144.2Z" fill="#BDBDFF"/>
<path d="M572.75 67.11H557.83C556.504 67.11 555.232 67.6368 554.295 68.5745C553.357 69.5121 552.83 70.7839 552.83 72.11V72.11C552.83 73.4361 553.357 74.7078 554.295 75.6455C555.232 76.5832 556.504 77.11 557.83 77.11H572.75C574.076 77.11 575.348 76.5832 576.286 75.6455C577.223 74.7078 577.75 73.4361 577.75 72.11C577.75 70.7839 577.223 69.5121 576.286 68.5745C575.348 67.6368 574.076 67.11 572.75 67.11V67.11Z" fill="white"/>
<path d="M521.51 84.62H504.73C503.404 84.62 502.132 85.1468 501.194 86.0845C500.257 87.0221 499.73 88.2939 499.73 89.62C499.73 90.9461 500.257 92.2178 501.194 93.1555C502.132 94.0932 503.404 94.62 504.73 94.62H521.51C522.836 94.62 524.108 94.0932 525.046 93.1555C525.983 92.2178 526.51 90.9461 526.51 89.62C526.51 88.2939 525.983 87.0221 525.046 86.0845C524.108 85.1468 522.836 84.62 521.51 84.62V84.62Z" fill="white"/>
<path d="M489.3 84.62H471.42C470.094 84.62 468.822 85.1468 467.885 86.0845C466.947 87.0221 466.42 88.2939 466.42 89.62V89.62C466.42 90.9461 466.947 92.2178 467.885 93.1555C468.822 94.0932 470.094 94.62 471.42 94.62H489.3C490.626 94.62 491.898 94.0932 492.836 93.1555C493.773 92.2178 494.3 90.9461 494.3 89.62C494.3 88.9634 494.171 88.3132 493.919 87.7066C493.668 87.0999 493.3 86.5488 492.836 86.0845C492.371 85.6202 491.82 85.2519 491.213 85.0006C490.607 84.7493 489.957 84.62 489.3 84.62V84.62Z" fill="white"/>
<path d="M541.72 67.15H484.35C483.024 67.15 481.752 67.6768 480.814 68.6145C479.877 69.5521 479.35 70.8239 479.35 72.15C479.35 73.4761 479.877 74.7478 480.814 75.6855C481.752 76.6232 483.024 77.15 484.35 77.15H541.72C543.046 77.15 544.318 76.6232 545.256 75.6855C546.193 74.7478 546.72 73.4761 546.72 72.15V72.15C546.72 70.8239 546.193 69.5521 545.256 68.6145C544.318 67.6768 543.046 67.15 541.72 67.15Z" fill="#1F1A5C"/>
<path d="M572.75 84.62H537.35C536.024 84.62 534.752 85.1468 533.814 86.0845C532.877 87.0221 532.35 88.2939 532.35 89.62C532.35 90.9461 532.877 92.2178 533.814 93.1555C534.752 94.0932 536.024 94.62 537.35 94.62H572.75C574.076 94.62 575.348 94.0932 576.286 93.1555C577.223 92.2178 577.75 90.9461 577.75 89.62C577.75 88.2939 577.223 87.0221 576.286 86.0845C575.348 85.1468 574.076 84.62 572.75 84.62V84.62Z" fill="#1F1A5C"/>
<path d="M509.59 102.14H483.72C481.306 102.14 479.35 104.097 479.35 106.51V107.78C479.35 110.193 481.306 112.15 483.72 112.15H509.59C512.003 112.15 513.96 110.193 513.96 107.78V106.51C513.96 104.097 512.003 102.14 509.59 102.14Z" fill="#1F1A5C"/>
<path d="M259.51 464.39H231.01C225.44 464.39 220.099 462.178 216.161 458.239C212.223 454.301 210.01 448.96 210.01 443.39C210.01 441.42 209.622 439.47 208.868 437.65C208.114 435.83 207.009 434.176 205.617 432.783C204.224 431.391 202.57 430.286 200.75 429.532C198.93 428.778 196.98 428.39 195.01 428.39H18.51C13.6035 428.39 8.89796 426.441 5.42854 422.971C1.95911 419.502 0.0100098 414.797 0.0100098 409.89C0.0100098 404.984 1.95911 400.278 5.42854 396.809C8.89796 393.339 13.6035 391.39 18.51 391.39H330.88C337.536 391.398 343.918 394.044 348.627 398.749C353.335 403.454 355.987 409.834 356 416.49V443.39H350V416.49C349.992 411.421 347.975 406.563 344.391 402.979C340.807 399.395 335.949 397.378 330.88 397.37H18.51C15.1948 397.37 12.0154 398.687 9.67117 401.031C7.32697 403.375 6.01001 406.555 6.01001 409.87C6.01001 413.185 7.32697 416.365 9.67117 418.709C12.0154 421.053 15.1948 422.37 18.51 422.37H195.01C200.58 422.37 205.921 424.582 209.859 428.521C213.798 432.459 216.01 437.8 216.01 443.37C216.01 447.348 217.59 451.164 220.403 453.977C223.216 456.79 227.032 458.37 231.01 458.37H259.51V464.39Z" fill="#FD2B38"/>
<path d="M207.38 269.08C211.11 264.42 213.83 258.01 213.13 251.55C207.56 251.76 200.92 255.23 196.97 259.91C193.41 263.91 190.32 270.61 191.2 276.91C197.26 277.28 203.51 273.76 207.38 269.08Z" fill="white"/>
<path d="M223.42 319.98V319.81C221.574 315.604 220.93 310.969 221.56 306.42V306.26C222.25 300.46 225.99 294.53 228.97 292.38L229.09 292.29C230.281 291.138 231.558 290.078 232.91 289.12C230.645 285.83 227.622 283.133 224.096 281.257C220.57 279.381 216.644 278.38 212.65 278.34C204.74 277.68 196.53 283.34 192.1 283.22C187.82 283.35 181.35 278.22 174.52 278.56H174.51L173.13 278.62C164.08 278.85 156.05 284.18 151.5 292.27C149.7 295.18 147.5 301.98 147.21 306.27V306.49C146.78 309.22 147.21 316.49 147.69 319.98C147.694 320.04 147.694 320.1 147.69 320.16V320.16C148.377 324.772 149.544 329.3 151.17 333.67C153.1 338.551 155.487 343.238 158.3 347.67V347.67C162.94 354.34 168.4 361.82 175.6 361.5C182.6 361.23 185.12 356.88 193.5 356.95C201.88 357.02 204.19 361.29 211.5 361.32C218.98 361 223.62 354.32 228.26 347.67C231.123 343.272 233.504 338.579 235.36 333.67V333.67C235.5 333.26 235.72 332.62 235.86 332.16C230.95 330.76 225.43 324.28 223.5 319.96" fill="white"/>
<path d="M259.63 458.4H246V464.4H259.63V458.4Z" fill="#8A0639"/>
<path d="M356 434.21V420.58H350V434.21H356Z" fill="#8A0639"/>
<path d="M139.39 422.38H88.75V428.38H139.39V422.38Z" fill="#8A0639"/>
<path d="M113.75 443.29C123.691 443.29 131.75 435.231 131.75 425.29C131.75 415.349 123.691 407.29 113.75 407.29C103.809 407.29 95.75 415.349 95.75 425.29C95.75 435.231 103.809 443.29 113.75 443.29Z" fill="#554AFF"/>
<path d="M113.75 433.29C118.168 433.29 121.75 429.708 121.75 425.29C121.75 420.872 118.168 417.29 113.75 417.29C109.332 417.29 105.75 420.872 105.75 425.29C105.75 429.708 109.332 433.29 113.75 433.29Z" fill="white"/>
<path d="M352.93 465.87C362.871 465.87 370.93 457.811 370.93 447.87C370.93 437.929 362.871 429.87 352.93 429.87C342.989 429.87 334.93 437.929 334.93 447.87C334.93 457.811 342.989 465.87 352.93 465.87Z" fill="#554AFF"/>
<path d="M352.93 455.87C357.348 455.87 360.93 452.288 360.93 447.87C360.93 443.452 357.348 439.87 352.93 439.87C348.512 439.87 344.93 443.452 344.93 447.87C344.93 452.288 348.512 455.87 352.93 455.87Z" fill="white"/>
<path d="M581.14 117.43C581.239 117.426 581.336 117.456 581.415 117.514C581.495 117.572 581.553 117.655 581.58 117.75L587.88 136.42C588.286 137.611 588.959 138.692 589.848 139.582C590.738 140.471 591.819 141.144 593.01 141.55L611.68 147.85C611.774 147.878 611.856 147.937 611.914 148.016C611.972 148.096 612.002 148.192 612 148.29C612.003 148.39 611.973 148.487 611.915 148.568C611.857 148.65 611.775 148.71 611.68 148.74L593.01 155.04C591.819 155.446 590.738 156.119 589.848 157.008C588.959 157.898 588.286 158.979 587.88 160.17L581.58 178.84C581.551 178.933 581.493 179.014 581.413 179.07C581.333 179.126 581.237 179.154 581.14 179.15C581.041 179.155 580.944 179.127 580.863 179.071C580.781 179.015 580.721 178.934 580.69 178.84L574.39 160.17C573.984 158.979 573.311 157.898 572.422 157.008C571.532 156.119 570.451 155.446 569.26 155.04L550.59 148.74C550.496 148.709 550.415 148.649 550.359 148.567C550.303 148.486 550.275 148.389 550.28 148.29C550.276 148.193 550.304 148.097 550.36 148.017C550.416 147.937 550.497 147.879 550.59 147.85L569.26 141.55C570.451 141.144 571.532 140.471 572.422 139.582C573.311 138.692 573.984 137.611 574.39 136.42L580.69 117.75C580.719 117.654 580.779 117.571 580.86 117.513C580.942 117.455 581.04 117.426 581.14 117.43ZM581.14 116.43C580.832 116.426 580.53 116.521 580.28 116.701C580.03 116.881 579.844 117.137 579.75 117.43L573.45 136.1C573.095 137.147 572.504 138.097 571.721 138.878C570.939 139.658 569.987 140.248 568.94 140.6L550.27 146.9C549.981 147 549.729 147.187 549.552 147.436C549.374 147.685 549.278 147.984 549.278 148.29C549.278 148.596 549.374 148.895 549.552 149.144C549.729 149.393 549.981 149.58 550.27 149.68L568.94 155.98C569.987 156.336 570.938 156.928 571.72 157.71C572.502 158.492 573.094 159.443 573.45 160.49L579.75 179.16C579.843 179.454 580.028 179.711 580.279 179.891C580.529 180.071 580.831 180.166 581.14 180.16C581.448 180.162 581.749 180.067 581.998 179.887C582.248 179.707 582.434 179.453 582.53 179.16L588.83 160.49C589.182 159.443 589.772 158.491 590.552 157.709C591.333 156.926 592.283 156.335 593.33 155.98L612 149.68C612.289 149.58 612.541 149.393 612.718 149.144C612.896 148.895 612.992 148.596 612.992 148.29C612.992 147.984 612.896 147.685 612.718 147.436C612.541 147.187 612.289 147 612 146.9L593.33 140.6C592.283 140.249 591.332 139.66 590.551 138.879C589.77 138.098 589.181 137.147 588.83 136.1L582.51 117.43C582.413 117.138 582.227 116.884 581.977 116.705C581.727 116.525 581.427 116.429 581.12 116.43H581.14Z" fill="white"/>
</g>
<defs>
<clipPath id="clip0">
<rect width="704.67" height="570.34" fill="white"/>
</clipPath>
</defs>
</svg>
