<svg xmlns="http://www.w3.org/2000/svg" viewBox="0 0 237.12 46.25"><defs><style>.cls-1{fill:#fd2b38;}</style></defs><g id="Layer_2" data-name="Layer 2"><g id="Слой_7" data-name="Слой 7"><polygon class="cls-1" points="29.26 9.85 29.26 0.24 14.63 8.68 0 0.24 0 9.85 14.63 18.3 29.26 9.85"/><polygon class="cls-1" points="43.88 32.03 58.51 40.48 58.51 30.86 43.88 22.42 43.88 32.03"/><polygon class="cls-1" points="43.88 7.03 14.63 23.93 0 15.48 0 25.09 14.63 33.54 43.88 16.65 58.51 25.09 58.51 15.48 43.88 7.03"/><path d="M81.9,4.14V7.81h6.88v3.54H81.9v6.91H77.66V.48h11.7V4.14Z"/><path d="M110.66,9.29a10.05,10.05,0,0,1-.73,3.86,8.88,8.88,0,0,1-2,3,9,9,0,0,1-3.08,1.92,10.64,10.64,0,0,1-3.87.68,10.49,10.49,0,0,1-3.85-.68A9.07,9.07,0,0,1,94,16.13a8.88,8.88,0,0,1-2-3,10.05,10.05,0,0,1-.73-3.86A9.86,9.86,0,0,1,92,5.44a8.48,8.48,0,0,1,2-2.93A9.25,9.25,0,0,1,97.11.65,11.15,11.15,0,0,1,101,0a11.31,11.31,0,0,1,3.87.65,9.2,9.2,0,0,1,3.08,1.86,8.48,8.48,0,0,1,2,2.93A9.86,9.86,0,0,1,110.66,9.29Zm-4.6,0a6.13,6.13,0,0,0-.38-2.16,5.21,5.21,0,0,0-1-1.72A4.78,4.78,0,0,0,103,4.28a5.41,5.41,0,0,0-4.13,0,4.91,4.91,0,0,0-2.65,2.85,6.36,6.36,0,0,0-.36,2.16,6.35,6.35,0,0,0,.38,2.22,5.35,5.35,0,0,0,1,1.75A4.82,4.82,0,0,0,98.9,14.4a5.26,5.26,0,0,0,4.12,0,5,5,0,0,0,1.61-1.14,5.2,5.2,0,0,0,1.05-1.75A6.35,6.35,0,0,0,106.06,9.29Z"/><path d="M123,18.26l-3.86-7.06h-1.46v7.06h-4.2V.48h6.78a11.47,11.47,0,0,1,2.5.26,6.64,6.64,0,0,1,2.19.89,4.73,4.73,0,0,1,1.54,1.66,5.24,5.24,0,0,1,.58,2.56,4.74,4.74,0,0,1-1,3,5.34,5.34,0,0,1-2.71,1.76L128,18.26Zm-.18-12.33a1.76,1.76,0,0,0-.26-1,1.78,1.78,0,0,0-.68-.6A2.8,2.8,0,0,0,121,4a6.83,6.83,0,0,0-1-.08h-2.3V8.09h2A6.77,6.77,0,0,0,120.79,8a3.52,3.52,0,0,0,1-.32,1.82,1.82,0,0,0,1-1.75Z"/><path d="M130.14,18.26V.48h12V4.09h-7.81V7.46h7.39V10.9h-7.39v3.69h8.27v3.67Z"/><path d="M156.11,18.26,152.21,12l-3.74,6.28h-5.12l6.23-9.4L143.85.48H149L152.34,6,155.6.48h5L155,8.86l6.42,9.4Z"/><path class="cls-1" d="M202.88,29.72h2v1.34a5.34,5.34,0,0,1,3.89-1.6c3.25,0,5.29,2.42,5.29,5.8a5.83,5.83,0,0,1-5.95,6.16,6,6,0,0,1-3.23-.79v5.62h-2Zm2,3.23v5.67a5,5,0,0,0,3.05.89,3.86,3.86,0,0,0,4-4.17c0-2.32-1.35-4-3.72-4A4.33,4.33,0,0,0,204.92,33Z"/><path class="cls-1" d="M217,29.72h2v1.34a3.24,3.24,0,0,1,2.87-1.55,2.77,2.77,0,0,1,1.79.44l-.72,1.9a2.51,2.51,0,0,0-1.55-.43,2.55,2.55,0,0,0-2.39,1.63v8.12h-2Z"/><path class="cls-1" d="M231,29.46a5.79,5.79,0,0,1,6.1,6,6.11,6.11,0,0,1-12.21,0A5.79,5.79,0,0,1,231,29.46Zm0,10A3.83,3.83,0,0,0,235,35.44a3.95,3.95,0,1,0-7.89,0A3.86,3.86,0,0,0,231,39.51Z"/><path d="M87,26.05V40.16h-4.3V26.05h-5V22.38H92v3.67Z"/><path d="M103.47,40.16l-3.86-7H98.15v7H94V22.38h6.78a11.6,11.6,0,0,1,2.5.27,6.3,6.3,0,0,1,2.18.89A4.64,4.64,0,0,1,107,25.2a5.1,5.1,0,0,1,.58,2.56,4.7,4.7,0,0,1-1,3,5.28,5.28,0,0,1-2.71,1.75l4.65,7.61Zm-.17-12.33a1.75,1.75,0,0,0-.27-1,1.82,1.82,0,0,0-.68-.61,3.06,3.06,0,0,0-.93-.28,7.07,7.07,0,0,0-1-.08h-2.3V30h2a8.09,8.09,0,0,0,1.08-.08,3.52,3.52,0,0,0,1-.32,1.81,1.81,0,0,0,1-1.76Z"/><path d="M123.6,40.16l-1.38-3.49h-6.88L114,40.16h-4.67l7.46-17.78H121l7.38,17.78Zm-4.77-13-2.26,6.1H121Z"/><path d="M146.1,31.22a8.71,8.71,0,0,1-.87,4A8.14,8.14,0,0,1,142.94,38a9.37,9.37,0,0,1-3.2,1.61,13.06,13.06,0,0,1-3.61.51H129.5V22.38h6.43a16,16,0,0,1,3.71.44,9.52,9.52,0,0,1,3.27,1.46A7.56,7.56,0,0,1,145.22,27,9.17,9.17,0,0,1,146.1,31.22Zm-4.47,0a5.69,5.69,0,0,0-.49-2.49,4.3,4.3,0,0,0-1.31-1.59A5.26,5.26,0,0,0,138,26.3a9.49,9.49,0,0,0-2.14-.25h-2.14v10.4h2a9,9,0,0,0,2.22-.27,5.14,5.14,0,0,0,1.88-.86,4.37,4.37,0,0,0,1.31-1.61A5.75,5.75,0,0,0,141.63,31.22Z"/><path d="M149.1,40.16V22.38h4.32V40.16Z"/><path d="M168.92,40.16l-7.15-11.62h-.08l.1,11.62h-4.17V22.38h4.9L169.65,34h.08l-.1-11.61h4.16V40.16Z"/><path d="M190.2,40.19a16.19,16.19,0,0,1-3.8.43,11.11,11.11,0,0,1-3.93-.68A9,9,0,0,1,179.38,38a8.76,8.76,0,0,1-2-3,9.65,9.65,0,0,1-.73-3.83,9.85,9.85,0,0,1,.74-3.87,8.73,8.73,0,0,1,2-2.95,9.17,9.17,0,0,1,3.06-1.87,10.93,10.93,0,0,1,3.79-.65,11.55,11.55,0,0,1,3.92.64,8.08,8.08,0,0,1,2.94,1.72l-2.71,3.09a4.65,4.65,0,0,0-1.66-1.2,5.65,5.65,0,0,0-2.34-.46,5.29,5.29,0,0,0-2.08.41,5.12,5.12,0,0,0-1.66,1.16A5.18,5.18,0,0,0,181.59,29a6.13,6.13,0,0,0-.39,2.22,7.09,7.09,0,0,0,.35,2.26,4.7,4.7,0,0,0,2.75,2.92,6.05,6.05,0,0,0,2.33.42,9.32,9.32,0,0,0,1.43-.11,5.35,5.35,0,0,0,1.25-.37V33.13h-3.39V29.67h7.33v9.41A13.4,13.4,0,0,1,190.2,40.19Z"/></g></g></svg>