<svg xmlns="http://www.w3.org/2000/svg" viewBox="0 0 758.45 552.38"><defs><style>.cls-1{fill:#fff;}.cls-2{fill:#554aff;}.cls-3{fill:#333266;}.cls-4{fill:#bdbdff;}.cls-5{fill:#7b7bff;}.cls-6{fill:#d2d2ff;}.cls-7{fill:#c6074e;}.cls-8{fill:#1f1a5c;}.cls-9{fill:#3d33b3;}</style></defs><g id="Layer_2" data-name="Layer 2"><g id="Слой_7" data-name="Слой 7"><path class="cls-1" d="M385.35,670.65a141.79,141.79,0,0,1,283.58,0Z" transform="translate(0 -118.27)"/><path class="cls-1" d="M289.63,670.65a82.5,82.5,0,0,1,165,0Z" transform="translate(0 -118.27)"/><circle class="cls-1" cx="660.42" cy="464.09" r="9"/><circle class="cls-1" cx="326.14" cy="162" r="31.16"/><path class="cls-2" d="M98.67,493.27l11.49-3.88a.9.9,0,0,0,0-1.71L98.67,483.8A4.41,4.41,0,0,1,95.9,481L92,469.53a.91.91,0,0,0-1.72,0L86.42,481a4.41,4.41,0,0,1-2.77,2.77l-11.49,3.88a.9.9,0,0,0,0,1.71l11.49,3.88A4.41,4.41,0,0,1,86.42,496l3.88,11.5a.91.91,0,0,0,1.72,0L95.9,496A4.41,4.41,0,0,1,98.67,493.27Z" transform="translate(0 -118.27)"/><path class="cls-2" d="M149.37,576.39H9v6.26H149.37a32.42,32.42,0,0,1,0,64.83H0q.27,3.12.39,6.26h149a38.68,38.68,0,0,0,0-77.35Z" transform="translate(0 -118.27)"/><path class="cls-3" d="M85.47,381.25a53.39,53.39,0,1,1,37.76,15.65A53.06,53.06,0,0,1,85.47,381.25Z" transform="translate(0 -118.27)"/><path class="cls-4" d="M73.22,381.25A53.39,53.39,0,1,1,111,396.9,53.06,53.06,0,0,1,73.22,381.25Z" transform="translate(0 -118.27)"/><path class="cls-5" d="M64.16,355.42a48.59,48.59,0,0,1-1.47-11.92,48.31,48.31,0,0,1,92.87-18.59l-4.79,2A43.12,43.12,0,0,0,69.2,354.15Z" transform="translate(0 -118.27)"/><path class="cls-6" d="M82.06,382.18a48.59,48.59,0,0,1-17.9-26.76l5-1.27A42.89,42.89,0,0,0,80.5,374,43.82,43.82,0,0,0,85.17,378Z" transform="translate(0 -118.27)"/><path class="cls-1" d="M111,391.79a47.81,47.81,0,0,1-28.91-9.61L85.17,378a43.13,43.13,0,0,0,65.6-51.13l4.79-2A48.31,48.31,0,0,1,111,391.79Z" transform="translate(0 -118.27)"/><path class="cls-1" d="M118,365.65H90.3v-7h5V326.18h-5v-7h27.08a12.64,12.64,0,0,1,9.24,21.27,14.08,14.08,0,0,1-8.65,25.2Zm-15.7-7H118a7.09,7.09,0,1,0,0-14.18h-15.7Zm0-21.18h15.11a5.65,5.65,0,1,0,0-11.29H102.27Z" transform="translate(0 -118.27)"/><rect class="cls-1" x="99.06" y="194.98" width="7" height="9.43"/><rect class="cls-1" x="113.6" y="194.98" width="7" height="9.43"/><rect class="cls-1" x="99.06" y="243.88" width="7" height="9.63"/><rect class="cls-1" x="113.6" y="243.88" width="7" height="9.63"/><path class="cls-7" d="M751.45,413.63v118a34.32,34.32,0,1,1-68.63,0V411.09h-7V531.63a41.32,41.32,0,1,0,82.63,0v-118Z" transform="translate(0 -118.27)"/><rect x="675.82" y="304.06" width="7" height="19.67"/><rect class="cls-2" x="694.27" y="291.38" width="60.67" height="7"/><polygon class="cls-8" points="755.07 298.38 737.46 298.38 731.06 291.38 755.07 291.38 755.07 298.38"/><path class="cls-2" d="M738.63,118.27V297.81a21.53,21.53,0,0,1-21.5,21.5H596.63a48.67,48.67,0,1,0,0,97.34h78.83v-7H596.63a41.67,41.67,0,1,1,0-83.34h120.5a28.54,28.54,0,0,0,28.5-28.5V119A14.09,14.09,0,0,1,738.63,118.27Z" transform="translate(0 -118.27)"/><rect class="cls-8" x="668.83" y="200.99" width="22.43" height="7"/><rect class="cls-8" x="703.17" y="200.99" width="22.43" height="7"/><rect class="cls-7" x="676.47" y="46.89" width="7" height="246.15"/><rect class="cls-8" x="650.98" y="291.38" width="24.01" height="7"/><rect class="cls-8" x="685.56" y="291.38" width="24.01" height="7"/><circle class="cls-2" cx="679.97" cy="45.38" r="18"/><circle class="cls-1" cx="679.97" cy="45.38" r="8"/><rect x="676.47" y="265.9" width="7" height="19.67"/><circle class="cls-9" cx="680.15" cy="294.53" r="18"/><circle class="cls-1" cx="680.15" cy="294.53" r="8"/><path class="cls-1" d="M629.2,331.64a1.35,1.35,0,0,1-1.3-.94l-4-11.77a4.1,4.1,0,0,0-2.56-2.56l-11.77-4a1.37,1.37,0,0,1,0-2.6l11.77-4a4.12,4.12,0,0,0,2.56-2.56l4-11.78a1.37,1.37,0,0,1,2.6,0l4,11.78a4.14,4.14,0,0,0,2.56,2.56l11.77,4a1.37,1.37,0,0,1,0,2.6l-11.77,4a4.14,4.14,0,0,0-2.56,2.56l-4,11.77A1.35,1.35,0,0,1,629.2,331.64Zm0-40.18a.46.46,0,0,0-.45.32l-4,11.77a5,5,0,0,1-3.12,3.12l-11.77,4a.48.48,0,0,0,0,.9l11.77,4a5,5,0,0,1,3.12,3.12l4,11.77a.48.48,0,0,0,.9,0l4-11.77a5,5,0,0,1,3.13-3.12h0l11.77-4a.48.48,0,0,0,0-.9l-11.77-4a5,5,0,0,1-3.13-3.12l-4-11.77A.46.46,0,0,0,629.2,291.46Z" transform="translate(0 -118.27)"/></g></g></svg>