<svg width="759" height="553" viewBox="0 0 759 553" fill="none" xmlns="http://www.w3.org/2000/svg">
<g clip-path="url(#clip0)">
<path d="M660.42 473.09C665.39 473.09 669.42 469.061 669.42 464.09C669.42 459.119 665.39 455.09 660.42 455.09C655.449 455.09 651.42 459.119 651.42 464.09C651.42 469.061 655.449 473.09 660.42 473.09Z" fill="white"/>
<path d="M326.14 193.16C343.349 193.16 357.3 179.209 357.3 162C357.3 144.791 343.349 130.84 326.14 130.84C308.931 130.84 294.98 144.791 294.98 162C294.98 179.209 308.931 193.16 326.14 193.16Z" fill="white"/>
<path d="M98.67 375L110.16 371.12C110.34 371.061 110.497 370.946 110.608 370.793C110.719 370.639 110.779 370.455 110.779 370.265C110.779 370.075 110.719 369.891 110.608 369.737C110.497 369.584 110.34 369.469 110.16 369.41L98.67 365.53C98.0229 365.31 97.4358 364.942 96.955 364.456C96.4743 363.97 96.1131 363.379 95.9 362.73L92 351.26C91.9381 351.081 91.822 350.926 91.6679 350.816C91.5138 350.706 91.3292 350.647 91.14 350.647C90.9508 350.647 90.7662 350.706 90.6121 350.816C90.4579 350.926 90.3419 351.081 90.28 351.26L86.42 362.73C86.2029 363.374 85.8399 363.959 85.3594 364.439C84.8789 364.92 84.2939 365.283 83.65 365.5L72.16 369.38C71.9799 369.439 71.8232 369.554 71.712 369.707C71.6009 369.861 71.541 370.045 71.541 370.235C71.541 370.425 71.6009 370.609 71.712 370.763C71.8232 370.916 71.9799 371.031 72.16 371.09L83.65 374.97C84.2928 375.186 84.8772 375.547 85.3576 376.026C85.838 376.505 86.2016 377.088 86.42 377.73L90.3 389.23C90.3619 389.409 90.4779 389.564 90.6321 389.674C90.7862 389.783 90.9708 389.842 91.16 389.842C91.3492 389.842 91.5338 389.783 91.6879 389.674C91.842 389.564 91.9581 389.409 92.02 389.23L95.9 377.73C96.1223 377.093 96.4876 376.516 96.9678 376.043C97.448 375.57 98.0303 375.213 98.67 375Z" fill="#554AFF"/>
<path d="M149.37 458.12H9V464.38H149.37C157.868 464.529 165.968 468.01 171.925 474.073C177.883 480.136 181.221 488.295 181.221 496.795C181.221 505.295 177.883 513.454 171.925 519.517C165.968 525.58 157.868 529.061 149.37 529.21H0C0.18 531.29 0.31 533.377 0.39 535.47H149.39C159.54 535.307 169.218 531.16 176.338 523.925C183.458 516.69 187.448 506.946 187.448 496.795C187.448 486.644 183.458 476.9 176.338 469.665C169.218 462.43 159.54 458.283 149.39 458.12H149.37Z" fill="#554AFF"/>
<path d="M751.45 295.36V413.36C751.528 417.916 750.698 422.441 749.008 426.673C747.318 430.904 744.803 434.757 741.609 438.006C738.415 441.255 734.606 443.835 730.404 445.597C726.202 447.359 721.691 448.266 717.135 448.266C712.579 448.266 708.068 447.359 703.866 445.597C699.664 443.835 695.855 441.255 692.661 438.006C689.467 434.757 686.951 430.904 685.262 426.673C683.572 422.441 682.742 417.916 682.82 413.36V292.82H675.82V413.36C675.735 418.84 676.74 424.282 678.778 429.369C680.816 434.456 683.846 439.087 687.691 442.992C691.536 446.897 696.119 449.999 701.174 452.116C706.229 454.233 711.655 455.323 717.135 455.323C722.615 455.323 728.041 454.233 733.096 452.116C738.151 449.999 742.734 446.897 746.579 442.992C750.424 439.087 753.454 434.456 755.492 429.369C757.53 424.282 758.535 418.84 758.45 413.36V295.36H751.45Z" fill="#C6074E"/>
<path d="M682.82 304.06H675.82V323.73H682.82V304.06Z" fill="black"/>
<path d="M754.94 291.38H694.27V298.38H754.94V291.38Z" fill="#554AFF"/>
<path d="M755.07 298.38H737.46L731.06 291.38H755.07V298.38Z" fill="#1F1A5C"/>
<path d="M738.63 0V179.54C738.622 185.24 736.354 190.704 732.324 194.734C728.294 198.764 722.83 201.032 717.13 201.04H596.63C583.722 201.04 571.342 206.168 562.215 215.295C553.088 224.423 547.96 236.802 547.96 249.71C547.96 262.618 553.088 274.998 562.215 284.125C571.342 293.252 583.722 298.38 596.63 298.38H675.46V291.38H596.63C585.578 291.38 574.979 286.99 567.165 279.175C559.35 271.36 554.96 260.762 554.96 249.71C554.96 238.658 559.35 228.06 567.165 220.245C574.979 212.43 585.578 208.04 596.63 208.04H717.13C724.685 208.029 731.928 205.023 737.271 199.681C742.613 194.338 745.619 187.095 745.63 179.54V0.730003C743.272 1.08272 740.864 0.831548 738.63 0Z" fill="#554AFF"/>
<path d="M691.26 200.99H668.83V207.99H691.26V200.99Z" fill="#1F1A5C"/>
<path d="M725.6 200.99H703.17V207.99H725.6V200.99Z" fill="#1F1A5C"/>
<path d="M683.47 46.89H676.47V293.04H683.47V46.89Z" fill="#C6074E"/>
<path d="M674.99 291.38H650.98V298.38H674.99V291.38Z" fill="#1F1A5C"/>
<path d="M709.57 291.38H685.56V298.38H709.57V291.38Z" fill="#1F1A5C"/>
<path d="M679.97 63.38C689.911 63.38 697.97 55.3211 697.97 45.38C697.97 35.4389 689.911 27.38 679.97 27.38C670.029 27.38 661.97 35.4389 661.97 45.38C661.97 55.3211 670.029 63.38 679.97 63.38Z" fill="#554AFF"/>
<path d="M679.97 53.38C684.388 53.38 687.97 49.7983 687.97 45.38C687.97 40.9617 684.388 37.38 679.97 37.38C675.552 37.38 671.97 40.9617 671.97 45.38C671.97 49.7983 675.552 53.38 679.97 53.38Z" fill="white"/>
<path d="M683.47 265.9H676.47V285.57H683.47V265.9Z" fill="black"/>
<path d="M680.15 312.53C690.091 312.53 698.15 304.471 698.15 294.53C698.15 284.589 690.091 276.53 680.15 276.53C670.209 276.53 662.15 284.589 662.15 294.53C662.15 304.471 670.209 312.53 680.15 312.53Z" fill="#3D33B3"/>
<path d="M680.15 302.53C684.568 302.53 688.15 298.948 688.15 294.53C688.15 290.112 684.568 286.53 680.15 286.53C675.732 286.53 672.15 290.112 672.15 294.53C672.15 298.948 675.732 302.53 680.15 302.53Z" fill="white"/>
<path d="M629.2 213.37C628.911 213.373 628.629 213.283 628.395 213.114C628.161 212.945 627.988 212.705 627.9 212.43L623.9 200.66C623.698 200.066 623.362 199.526 622.918 199.082C622.474 198.638 621.934 198.302 621.34 198.1L609.57 194.1C609.297 194.009 609.059 193.835 608.891 193.601C608.723 193.368 608.632 193.088 608.632 192.8C608.632 192.512 608.723 192.232 608.891 191.999C609.059 191.765 609.297 191.591 609.57 191.5L621.34 187.5C621.933 187.296 622.473 186.96 622.916 186.516C623.36 186.073 623.696 185.533 623.9 184.94L627.9 173.16C627.991 172.887 628.165 172.649 628.399 172.481C628.632 172.313 628.912 172.222 629.2 172.222C629.488 172.222 629.768 172.313 630.001 172.481C630.235 172.649 630.409 172.887 630.5 173.16L634.5 184.94C634.705 185.533 635.042 186.071 635.485 186.515C635.929 186.958 636.467 187.295 637.06 187.5L648.83 191.5C649.103 191.591 649.34 191.765 649.509 191.999C649.677 192.232 649.768 192.512 649.768 192.8C649.768 193.088 649.677 193.368 649.509 193.601C649.34 193.835 649.103 194.009 648.83 194.1L637.06 198.1C636.467 198.305 635.929 198.642 635.485 199.085C635.042 199.529 634.705 200.067 634.5 200.66L630.5 212.43C630.412 212.705 630.239 212.945 630.005 213.114C629.771 213.283 629.489 213.373 629.2 213.37ZM629.2 173.19C629.1 173.187 629.003 173.217 628.922 173.275C628.84 173.333 628.78 173.415 628.75 173.51L624.75 185.28C624.503 186.004 624.094 186.662 623.553 187.203C623.012 187.744 622.354 188.153 621.63 188.4L609.86 192.4C609.768 192.434 609.689 192.495 609.633 192.576C609.577 192.656 609.547 192.752 609.547 192.85C609.547 192.948 609.577 193.044 609.633 193.124C609.689 193.204 609.768 193.266 609.86 193.3L621.63 197.3C622.354 197.547 623.012 197.956 623.553 198.497C624.094 199.038 624.503 199.696 624.75 200.42L628.75 212.19C628.784 212.282 628.846 212.361 628.926 212.417C629.006 212.473 629.102 212.503 629.2 212.503C629.298 212.503 629.394 212.473 629.474 212.417C629.555 212.361 629.616 212.282 629.65 212.19L633.65 200.42C633.898 199.695 634.309 199.036 634.852 198.495C635.394 197.954 636.054 197.545 636.78 197.3L648.55 193.3C648.642 193.266 648.721 193.204 648.777 193.124C648.833 193.044 648.863 192.948 648.863 192.85C648.863 192.752 648.833 192.656 648.777 192.576C648.721 192.495 648.642 192.434 648.55 192.4L636.78 188.4C636.054 188.155 635.394 187.746 634.852 187.205C634.309 186.664 633.898 186.005 633.65 185.28L629.65 173.51C629.62 173.415 629.559 173.333 629.478 173.275C629.397 173.217 629.3 173.187 629.2 173.19Z" fill="white"/>
</g>
<defs>
<clipPath id="clip0">
<rect width="758.45" height="552.38" fill="white"/>
</clipPath>
</defs>
</svg>
