<svg xmlns="http://www.w3.org/2000/svg" viewBox="0 0 652.61 781.59"><defs><style>.cls-1{fill:#fff;}.cls-2{fill:#fd2b38;}.cls-3{fill:#c6074e;}.cls-4{fill:#554aff;}.cls-5{fill:#1f1a5c;}.cls-6{fill:#3d33b3;}.cls-7{fill:#e6e6ff;}</style></defs><g id="Layer_2" data-name="Layer 2"><g id="Слой_7" data-name="Слой 7"><path class="cls-1" d="M663.72,736.45a170,170,0,0,1,340.09,0Z" transform="translate(-351.2)"/><path class="cls-1" d="M548.91,736.45a98.95,98.95,0,0,1,197.89,0Z" transform="translate(-351.2)"/><circle class="cls-2" cx="9.34" cy="361.75" r="9.34"/><circle class="cls-2" cx="9.34" cy="402.86" r="9.34"/><circle class="cls-2" cx="9.34" cy="443.96" r="9.34"/><circle class="cls-1" cx="9.34" cy="485.07" r="9.34"/><circle class="cls-1" cx="9.34" cy="526.18" r="9.34"/><circle class="cls-1" cx="9.34" cy="567.28" r="9.34"/><path class="cls-3" d="M957.24,586.92V731.11a41.93,41.93,0,0,1-83.86,0V583.82h-8.55V731.11a50.49,50.49,0,0,0,101,0V586.92Z" transform="translate(-351.2)"/><rect x="513.63" y="597.55" width="8.55" height="24.04"/><rect class="cls-4" x="536.16" y="582.05" width="74.13" height="8.55"/><polygon class="cls-5" points="610.46 590.61 588.94 590.61 581.13 582.05 610.46 582.05 610.46 590.61"/><path class="cls-4" d="M941.57,226V445.39a26.3,26.3,0,0,1-26.27,26.27H768.06a59.48,59.48,0,0,0,0,119h96.32v-8.56H768.06a50.92,50.92,0,1,1,0-101.83H915.3a34.86,34.86,0,0,0,34.82-34.83V226.89A17.25,17.25,0,0,1,941.57,226Z" transform="translate(-351.2)"/><rect class="cls-5" x="505.09" y="471.61" width="27.41" height="8.55"/><rect class="cls-3" x="514.42" y="283.3" width="8.55" height="300.77"/><rect class="cls-5" x="483.27" y="582.05" width="29.33" height="8.55"/><rect class="cls-5" x="525.53" y="582.05" width="29.33" height="8.55"/><circle class="cls-4" cx="518.7" cy="281.46" r="21.99"/><circle class="cls-1" cx="518.7" cy="281.46" r="9.78"/><rect x="514.42" y="550.92" width="8.55" height="24.04"/><circle class="cls-6" cx="518.91" cy="585.9" r="21.99"/><circle class="cls-1" cx="518.91" cy="585.9" r="9.78"/><circle class="cls-7" cx="557.55" cy="56.2" r="56.2"/></g></g></svg>