<svg width="95" height="111" viewBox="0 0 95 111" fill="none" xmlns="http://www.w3.org/2000/svg">
<path d="M87.715 34.6079C85.9203 34.6238 84.2051 35.3506 82.9454 36.629C81.6857 37.9075 80.9843 39.6332 80.995 41.4279V68.088C80.9601 68.9916 81.108 69.893 81.4297 70.7381C81.7515 71.5832 82.2405 72.3547 82.8675 73.0063C83.4945 73.658 84.2465 74.1764 85.0786 74.5305C85.9107 74.8846 86.8057 75.0671 87.71 75.0671C88.6143 75.0671 89.5093 74.8846 90.3414 74.5305C91.1735 74.1764 91.9255 73.658 92.5525 73.0063C93.1795 72.3547 93.6685 71.5832 93.9902 70.7381C94.312 69.893 94.4599 68.9916 94.425 68.088V41.4279C94.4383 39.6341 93.7391 37.9084 92.481 36.6296C91.2229 35.3509 89.5088 34.6238 87.715 34.6079V34.6079ZM6.71496 34.6079C4.92117 34.6238 3.20701 35.3509 1.94891 36.6296C0.690813 37.9084 -0.00831734 39.6341 0.00500128 41.4279V68.088C-0.0298764 68.9916 0.117947 69.893 0.439694 70.7381C0.76144 71.5832 1.25045 72.3547 1.87744 73.0063C2.50442 73.658 3.25653 74.1764 4.08862 74.5305C4.92071 74.8846 5.81567 75.0671 6.71997 75.0671C7.62427 75.0671 8.51929 74.8846 9.35138 74.5305C10.1835 74.1764 10.9355 73.658 11.5625 73.0063C12.1895 72.3547 12.6785 71.5832 13.0002 70.7381C13.322 69.893 13.4699 68.9916 13.435 68.088V41.4279C13.4457 39.6332 12.7442 37.9075 11.4846 36.629C10.2249 35.3506 8.50966 34.6238 6.71496 34.6079" fill="#554AFF"/>
<path d="M76.9251 34.6079V83.5079C76.9264 84.1956 76.792 84.8768 76.5298 85.5125C76.2675 86.1481 75.8825 86.7259 75.3967 87.2126C74.911 87.6993 74.334 88.0854 73.6988 88.3489C73.0636 88.6123 72.3827 88.7479 71.6951 88.7479H65.6951V103.578C65.7299 104.482 65.5821 105.383 65.2603 106.228C64.9386 107.073 64.4496 107.845 63.8226 108.496C63.1956 109.148 62.4435 109.666 61.6115 110.021C60.7794 110.375 59.8843 110.557 58.98 110.557C58.0757 110.557 57.1807 110.375 56.3486 110.021C55.5165 109.666 54.7645 109.148 54.1375 108.496C53.5105 107.845 53.0215 107.073 52.6998 106.228C52.378 105.383 52.2302 104.482 52.2651 103.578V88.7479H41.8651V103.578C41.8999 104.482 41.752 105.383 41.4303 106.228C41.1086 107.073 40.6195 107.845 39.9926 108.496C39.3656 109.148 38.6135 109.666 37.7814 110.021C36.9493 110.375 36.0543 110.557 35.15 110.557C34.2457 110.557 33.3508 110.375 32.5187 110.021C31.6866 109.666 30.9345 109.148 30.3075 108.496C29.6805 107.845 29.1915 107.073 28.8698 106.228C28.548 105.383 28.4002 104.482 28.4351 103.578V88.7479H22.4351C21.7542 88.7455 21.0806 88.6072 20.4537 88.3412C19.8269 88.0753 19.2595 87.687 18.7845 87.199C18.3096 86.7111 17.9368 86.1333 17.6879 85.4995C17.439 84.8657 17.3191 84.1887 17.335 83.5079V34.6079H76.9251Z" fill="#554AFF"/>
<path d="M34.205 22.218C33.5499 22.22 32.909 22.0275 32.3633 21.665C31.8177 21.3025 31.3919 20.7862 31.1398 20.1816C30.8878 19.577 30.8208 18.9111 30.9474 18.2684C31.074 17.6257 31.3884 17.0349 31.851 16.571C32.3135 16.1071 32.9032 15.7908 33.5455 15.6623C34.1879 15.5338 34.8539 15.5987 35.4594 15.849C36.0648 16.0992 36.5823 16.5235 36.9465 17.068C37.3106 17.6126 37.505 18.2529 37.505 18.908C37.505 19.7841 37.1576 20.6245 36.5391 21.245C35.9205 21.8654 35.0811 22.2153 34.205 22.218V22.218ZM59.825 22.218C59.1699 22.22 58.529 22.0275 57.9833 21.665C57.4377 21.3025 57.0119 20.7862 56.7598 20.1816C56.5078 19.577 56.4408 18.9111 56.5674 18.2684C56.694 17.6257 57.0084 17.0349 57.4709 16.571C57.9335 16.1071 58.5232 15.7908 59.1655 15.6623C59.8079 15.5338 60.4739 15.5987 61.0793 15.849C61.6848 16.0992 62.2023 16.5235 62.5665 17.068C62.9306 17.6126 63.125 18.2529 63.125 18.908C63.125 19.7841 62.7776 20.6245 62.1591 21.245C61.5405 21.8654 60.7011 22.2153 59.825 22.218V22.218ZM33.055 9.58797C24.285 13.668 18.135 21.428 17.345 30.478H76.925C76.145 21.428 70.125 13.668 61.355 9.58797L66.865 1.58797C66.9559 1.4877 67.0243 1.36916 67.0656 1.24031C67.107 1.11146 67.1203 0.975262 67.1047 0.840837C67.0892 0.706412 67.0451 0.576837 66.9755 0.460832C66.9058 0.344827 66.8121 0.245045 66.7007 0.168168C66.5894 0.0912914 66.4629 0.0391168 66.3297 0.015092C66.1965 -0.00893291 66.0598 -0.00422991 65.9286 0.0288859C65.7974 0.0620017 65.6747 0.122764 65.5689 0.207109C65.4631 0.291453 65.3765 0.397443 65.315 0.517961L59.585 8.83797C51.6111 5.74452 42.7688 5.74452 34.795 8.83797L29.065 0.517961C29.0035 0.397443 28.9169 0.291453 28.811 0.207109C28.7052 0.122764 28.5826 0.0620017 28.4514 0.0288859C28.3202 -0.00422991 28.1834 -0.00893291 28.0502 0.015092C27.9171 0.0391168 27.7906 0.0912914 27.6792 0.168168C27.5678 0.245045 27.4742 0.344827 27.4045 0.460832C27.3349 0.576837 27.2908 0.706412 27.2752 0.840837C27.2597 0.975262 27.273 1.11146 27.3143 1.24031C27.3557 1.36916 27.4241 1.4877 27.515 1.58797L33.025 9.58797" fill="#554AFF"/>
</svg>
