<svg width="1680" height="1351" viewBox="0 0 1680 1351" fill="none" xmlns="http://www.w3.org/2000/svg">
<path d="M1338.83 19.0917C1342.35 15.577 1342.35 9.87857 1338.83 6.36388C1335.32 2.8492 1329.62 2.8492 1326.1 6.36388C1322.59 9.87857 1322.59 15.577 1326.1 19.0917C1329.62 22.6064 1335.32 22.6064 1338.83 19.0917Z" fill="white"/>
<path d="M95.7 961.111C95.7 882.811 159.2 819.311 237.5 819.311C315.8 819.311 379.3 882.811 379.3 961.111H95.7Z" fill="white"/>
<path d="M0 961.111C0 915.511 36.9 878.611 82.5 878.611C128.1 878.611 165 915.511 165 961.111H0Z" fill="white"/>
<path d="M457.2 213.81C457.2 117.31 379 39.1105 282.5 39.1105C186 39.1105 107.8 117.31 107.8 213.81H457.2Z" fill="white"/>
<path d="M575.2 213.81C575.2 157.61 529.7 112.11 473.5 112.11C417.3 112.11 371.8 157.61 371.8 213.81H575.2Z" fill="white"/>
<path d="M1199.7 1335.21C1172.3 1335.21 1150.1 1312.91 1150.1 1285.61V1218.11H1157.1V1285.61C1157.1 1309.11 1176.2 1328.31 1199.8 1328.31C1223.3 1328.31 1242.5 1309.21 1242.5 1285.61V745.41C1242.5 715.41 1266.9 691.01 1296.9 691.01C1326.9 691.01 1351.3 715.41 1351.3 745.41V1333.31H1344.3V745.41C1344.3 719.31 1323 698.01 1296.9 698.01C1270.8 698.01 1249.5 719.31 1249.5 745.41V1285.61C1249.3 1312.91 1227.1 1335.21 1199.7 1335.21Z" fill="#FD2B38"/>
<path d="M210.9 750.911C216.036 750.911 220.2 746.747 220.2 741.611C220.2 736.474 216.036 732.311 210.9 732.311C205.764 732.311 201.6 736.474 201.6 741.611C201.6 746.747 205.764 750.911 210.9 750.911Z" fill="#FD2B38"/>
<path d="M252 750.911C257.136 750.911 261.3 746.747 261.3 741.611C261.3 736.474 257.136 732.311 252 732.311C246.864 732.311 242.7 736.474 242.7 741.611C242.7 746.747 246.864 750.911 252 750.911Z" fill="#FD2B38"/>
<path d="M293.1 750.911C298.236 750.911 302.4 746.747 302.4 741.611C302.4 736.474 298.236 732.311 293.1 732.311C287.964 732.311 283.8 736.474 283.8 741.611C283.8 746.747 287.964 750.911 293.1 750.911Z" fill="#FD2B38"/>
<path d="M334.2 750.911C339.336 750.911 343.5 746.747 343.5 741.611C343.5 736.474 339.336 732.311 334.2 732.311C329.064 732.311 324.9 736.474 324.9 741.611C324.9 746.747 329.064 750.911 334.2 750.911Z" fill="white"/>
<path d="M375.3 750.911C380.436 750.911 384.6 746.747 384.6 741.611C384.6 736.474 380.436 732.311 375.3 732.311C370.164 732.311 366 736.474 366 741.611C366 746.747 370.164 750.911 375.3 750.911Z" fill="white"/>
<path d="M416.4 750.911C421.536 750.911 425.7 746.747 425.7 741.611C425.7 736.474 421.536 732.311 416.4 732.311C411.264 732.311 407.1 736.474 407.1 741.611C407.1 746.747 411.264 750.911 416.4 750.911Z" fill="white"/>
<path d="M530.1 460.61V578.61C530.1 597.51 514.7 612.91 495.8 612.91C476.9 612.91 461.5 597.51 461.5 578.61V458.01H454.5V578.51C454.5 601.31 473 619.81 495.8 619.81C518.6 619.81 537.1 601.31 537.1 578.51V460.51H530.1V460.61Z" fill="#C6074E"/>
<path d="M461.5 469.31H454.5V489.01H461.5V469.31Z" fill="black"/>
<path d="M806 456.61H473V463.61H806V456.61Z" fill="#554AFF"/>
<path d="M517.3 166.51V344.811C517.3 356.711 507.7 366.311 495.8 366.311H375.3C348.5 366.311 326.6 388.111 326.6 415.011C326.6 441.911 348.4 463.711 375.3 463.711H454.1V456.711H375.3C352.3 456.711 333.6 438.011 333.6 415.011C333.6 392.011 352.3 373.311 375.3 373.311H495.8C511.5 373.311 524.3 360.511 524.3 344.811V166.51H517.3Z" fill="#554AFF"/>
<path d="M469.9 366.21H447.5V373.21H469.9V366.21Z" fill="#1F1A5C"/>
<path d="M462.2 212.11H455.2V458.211H462.2V212.11Z" fill="#C6074E"/>
<path d="M453.7 456.61H429.7V463.61H453.7V456.61Z" fill="#1F1A5C"/>
<path d="M488.3 456.61H464.3V463.61H488.3V456.61Z" fill="#1F1A5C"/>
<path d="M783.1 456.61H759.1V463.61H783.1V456.61Z" fill="#1F1A5C"/>
<path d="M458.7 228.61C468.641 228.61 476.7 220.552 476.7 210.61C476.7 200.669 468.641 192.61 458.7 192.61C448.759 192.61 440.7 200.669 440.7 210.61C440.7 220.552 448.759 228.61 458.7 228.61Z" fill="#554AFF"/>
<path d="M458.7 218.61C463.118 218.61 466.7 215.029 466.7 210.61C466.7 206.192 463.118 202.61 458.7 202.61C454.282 202.61 450.7 206.192 450.7 210.61C450.7 215.029 454.282 218.61 458.7 218.61Z" fill="white"/>
<path d="M462.2 431.11H455.2V450.81H462.2V431.11Z" fill="black"/>
<path d="M458.8 477.91C468.741 477.91 476.8 469.852 476.8 459.91C476.8 449.969 468.741 441.91 458.8 441.91C448.859 441.91 440.8 449.969 440.8 459.91C440.8 469.852 448.859 477.91 458.8 477.91Z" fill="#3D33B3"/>
<path d="M458.8 467.91C463.218 467.91 466.8 464.329 466.8 459.91C466.8 455.492 463.218 451.91 458.8 451.91C454.382 451.91 450.8 455.492 450.8 459.91C450.8 464.329 454.382 467.91 458.8 467.91Z" fill="white"/>
<path d="M384.4 615.11C383.6 615.11 382.9 614.61 382.6 613.81L377.2 597.711C376.6 596.111 375.3 594.811 373.7 594.211L357.6 588.81C356.8 588.51 356.3 587.81 356.3 587.01C356.3 586.21 356.8 585.511 357.6 585.211L373.7 579.81C375.3 579.21 376.6 577.91 377.2 576.31L382.6 560.31C382.9 559.51 383.6 559.01 384.4 559.01C385.2 559.01 385.9 559.51 386.2 560.31L391.6 576.41C392.2 578.01 393.5 579.31 395.1 579.91L411.2 585.31C412 585.61 412.5 586.31 412.5 587.11C412.5 587.91 412 588.61 411.2 588.91L395.1 594.31C393.5 594.91 392.2 596.21 391.6 597.81L386.2 613.91C385.9 614.61 385.2 615.11 384.4 615.11ZM384.4 560.211C384.3 560.211 383.9 560.21 383.8 560.61L378.4 576.711C377.7 578.711 376.1 580.31 374.1 581.01L358 586.41C357.6 586.51 357.6 586.91 357.6 587.01C357.6 587.11 357.6 587.51 358 587.61L374.1 593.01C376.1 593.71 377.7 595.31 378.4 597.31L383.8 613.41C383.9 613.81 384.3 613.81 384.4 613.81C384.5 613.81 384.9 613.81 385 613.41L390.4 597.31C391.1 595.31 392.7 593.71 394.7 593.01L410.8 587.61C411.2 587.51 411.2 587.11 411.2 587.01C411.2 586.91 411.2 586.51 410.8 586.41L394.7 581.01C392.7 580.31 391.1 578.711 390.4 576.711L385 560.61C384.9 560.31 384.5 560.211 384.4 560.211Z" fill="white"/>
<path d="M1495.6 554.81H1559.9C1625.9 554.81 1679.6 500.81 1679.6 434.51C1679.6 368.21 1625.9 314.31 1559.9 314.31H1441.1C1419.5 314.31 1402 331.91 1402 353.61V460.71H1408.4V353.61C1408.4 335.51 1423.1 320.71 1441.1 320.71H1559.9C1622.3 320.71 1673.1 371.81 1673.1 434.51C1673.1 497.21 1622.3 548.31 1559.9 548.31H1495.6V554.81Z" fill="#C6074E"/>
<path d="M1391.4 367.81H1006.5V374.21H1391.4V367.81Z" fill="#554AFF"/>
<path d="M1395.1 367.81H1374.8V374.21H1395.1V367.81Z" fill="#333266"/>
<path d="M1474.6 314.31H1453.6V320.71H1474.6V314.31Z" fill="black"/>
<path d="M1431.6 367.81H1411.3V374.21H1431.6V367.81Z" fill="#C40A3F"/>
<path d="M1431.2 374.211V367.811C1447.6 367.811 1460.9 354.511 1460.9 338.111V243.411H1467.3V338.111C1467.3 358.011 1451.1 374.211 1431.2 374.211Z" fill="#FD2B38"/>
<path d="M1467.3 222.31H1460.9V243.31H1467.3V222.31Z" fill="#8A0639"/>
<path d="M1157.1 1230.51H1150.1V1251.51H1157.1V1230.51Z" fill="#8A0639"/>
<path d="M1351.1 1296.71H1344.1V1317.71H1351.1V1296.71Z" fill="#8A0639"/>
<path d="M1432.7 210.31C1422.1 199.71 1416.3 185.71 1416.3 170.71C1416.3 139.81 1441.4 114.71 1472.3 114.71C1487.3 114.71 1501.3 120.51 1511.9 131.11C1522.5 141.71 1528.3 155.71 1528.3 170.71C1528.3 201.61 1503.2 226.71 1472.3 226.71C1457.3 226.71 1443.3 220.91 1432.7 210.31Z" fill="#1F1A5C"/>
<path d="M1419.9 210.31C1409.3 199.71 1403.5 185.71 1403.5 170.71C1403.5 139.81 1428.6 114.71 1459.5 114.71C1474.5 114.71 1488.5 120.51 1499.1 131.11C1509.7 141.71 1515.5 155.71 1515.5 170.71C1515.5 201.61 1490.4 226.71 1459.5 226.71C1444.5 226.71 1430.4 220.91 1419.9 210.31Z" fill="#BDBDFF"/>
<path d="M1410.4 183.31C1409.4 179.21 1408.9 175.01 1408.9 170.81C1408.9 157.31 1414.2 144.61 1423.7 135.01C1433.3 125.41 1446 120.21 1459.5 120.21C1473 120.21 1485.7 125.51 1495.3 135.01C1500 139.71 1503.7 145.21 1506.2 151.31L1501.2 153.41C1498.9 148.01 1495.6 143.11 1491.4 138.91C1482.9 130.41 1471.5 125.71 1459.5 125.71C1447.5 125.71 1436.1 130.41 1427.6 138.91C1419.1 147.41 1414.4 158.81 1414.4 170.81C1414.4 174.61 1414.9 178.31 1415.8 182.01L1410.4 183.31Z" fill="#7B7BFF"/>
<path d="M1429.1 211.311C1427.2 209.911 1425.3 208.311 1423.6 206.511C1417.1 200.011 1412.5 192.011 1410.3 183.211L1415.6 181.911C1417.6 189.711 1421.7 196.911 1427.4 202.711C1428.9 204.211 1430.6 205.711 1432.3 207.011L1429.1 211.311Z" fill="#D2D2FF"/>
<path d="M1459.4 221.41C1448.3 221.41 1437.9 217.91 1429.1 211.31L1432.4 206.91C1440.2 212.81 1449.6 215.91 1459.4 215.91C1471.5 215.91 1482.8 211.21 1491.3 202.71C1499.8 194.21 1504.5 182.81 1504.5 170.81C1504.5 164.81 1503.3 158.91 1501 153.41L1506 151.31C1508.6 157.51 1509.9 164.01 1509.9 170.81C1509.9 184.31 1504.6 197.01 1495.1 206.61C1485.7 216.11 1472.9 221.41 1459.4 221.41Z" fill="white"/>
<path d="M1405.5 390.21C1416.1 390.21 1424.7 381.614 1424.7 371.01C1424.7 360.407 1416.1 351.81 1405.5 351.81C1394.9 351.81 1386.3 360.407 1386.3 371.01C1386.3 381.614 1394.9 390.21 1405.5 390.21Z" fill="#FD2B38"/>
<path d="M1405.5 379.61C1410.25 379.61 1414.1 375.76 1414.1 371.01C1414.1 366.261 1410.25 362.41 1405.5 362.41C1400.75 362.41 1396.9 366.261 1396.9 371.01C1396.9 375.76 1400.75 379.61 1405.5 379.61Z" fill="white"/>
<path d="M1506.6 783.01C1519.3 783.01 1529.6 772.713 1529.6 760.01C1529.6 747.308 1519.3 737.01 1506.6 737.01C1493.9 737.01 1483.6 747.308 1483.6 760.01C1483.6 772.713 1493.9 783.01 1506.6 783.01Z" fill="#E6E6FF"/>
<path d="M1376.8 559.41C1407.07 559.41 1431.6 534.876 1431.6 504.61C1431.6 474.345 1407.07 449.81 1376.8 449.81C1346.53 449.81 1322 474.345 1322 504.61C1322 534.876 1346.53 559.41 1376.8 559.41Z" fill="white"/>
<path d="M261.2 488.01C269.098 488.01 275.5 481.608 275.5 473.71C275.5 465.813 269.098 459.41 261.2 459.41C253.302 459.41 246.9 465.813 246.9 473.71C246.9 481.608 253.302 488.01 261.2 488.01Z" fill="white"/>
<path d="M1392.4 561.91C1379.2 548.71 1371.9 531.11 1371.9 512.41C1371.9 473.81 1403.3 442.41 1441.9 442.41C1460.6 442.41 1478.2 449.71 1491.4 462.91C1504.6 476.11 1511.9 493.71 1511.9 512.41C1511.9 551.01 1480.5 582.41 1441.9 582.41C1423.2 582.41 1405.6 575.11 1392.4 561.91Z" fill="#333266"/>
<path d="M1376.3 561.91C1363.1 548.71 1355.8 531.11 1355.8 512.41C1355.8 473.81 1387.2 442.41 1425.8 442.41C1444.5 442.41 1462.1 449.71 1475.3 462.91C1488.5 476.11 1495.8 493.71 1495.8 512.41C1495.8 551.01 1464.4 582.41 1425.8 582.41C1407.1 582.41 1389.6 575.11 1376.3 561.91Z" fill="#BDBDFF"/>
<path d="M1364.5 528.11C1363.2 523.01 1362.6 517.81 1362.6 512.51C1362.6 495.61 1369.2 479.71 1381.1 467.71C1393.1 455.71 1408.9 449.21 1425.8 449.21C1442.7 449.21 1458.6 455.81 1470.5 467.71C1476.4 473.61 1481 480.51 1484.2 488.11L1477.9 490.71C1475.1 483.91 1471 477.81 1465.7 472.51C1455 461.81 1440.8 456.01 1425.8 456.01C1410.7 456.01 1396.5 461.91 1385.9 472.51C1375.2 483.21 1369.4 497.41 1369.4 512.41C1369.4 517.11 1370 521.81 1371.1 526.41L1364.5 528.11Z" fill="#7B7BFF"/>
<path d="M1387.9 563.11C1385.5 561.31 1383.2 559.31 1381 557.21C1372.9 549.11 1367.2 539.01 1364.4 528.11L1371 526.41C1373.5 536.21 1378.6 545.21 1385.8 552.41C1387.7 554.31 1389.8 556.11 1391.9 557.71L1387.9 563.11Z" fill="#D2D2FF"/>
<path d="M1425.8 575.71C1412 575.71 1398.9 571.31 1387.9 563.11L1392 557.71C1401.8 565.01 1413.5 568.91 1425.8 568.91C1440.9 568.91 1455.1 563.01 1465.7 552.41C1476.4 541.71 1482.2 527.51 1482.2 512.51C1482.2 504.91 1480.7 497.61 1477.9 490.71L1484.2 488.11C1487.4 495.81 1489 504.01 1489 512.51C1489 529.41 1482.4 545.31 1470.5 557.31C1458.6 569.11 1442.7 575.71 1425.8 575.71Z" fill="white"/>
<path d="M1435 541.51H1398.7V532.31H1405.2V489.711H1398.7V480.51H1434.2C1443.3 480.51 1450.8 487.91 1450.8 497.11C1450.8 501.51 1449.1 505.41 1446.3 508.41C1450.6 511.81 1453.4 517.11 1453.4 523.01C1453.5 533.21 1445.2 541.51 1435 541.51ZM1414.4 532.31H1435C1440.1 532.31 1444.3 528.11 1444.3 523.01C1444.3 517.91 1440.1 513.711 1435 513.711H1414.4V532.31ZM1414.4 504.51H1434.2C1438.3 504.51 1441.6 501.21 1441.6 497.11C1441.6 493.01 1438.3 489.711 1434.2 489.711H1414.4V504.51Z" fill="white"/>
<path d="M1419.4 472.81H1410.2V485.21H1419.4V472.81Z" fill="white"/>
<path d="M1438.5 472.81H1429.3V485.21H1438.5V472.81Z" fill="white"/>
<path d="M1419.4 536.91H1410.2V549.51H1419.4V536.91Z" fill="white"/>
<path d="M1438.5 536.91H1429.3V549.51H1438.5V536.91Z" fill="white"/>
<path d="M533.9 477.91C544.504 477.91 553.1 469.314 553.1 458.711C553.1 448.107 544.504 439.51 533.9 439.51C523.296 439.51 514.7 448.107 514.7 458.711C514.7 469.314 523.296 477.91 533.9 477.91Z" fill="#FD2B38"/>
<path d="M533.9 467.31C538.65 467.31 542.5 463.46 542.5 458.711C542.5 453.961 538.65 450.11 533.9 450.11C529.15 450.11 525.3 453.961 525.3 458.711C525.3 463.46 529.15 467.31 533.9 467.31Z" fill="white"/>
<path d="M1060 367.81C1019.7 367.81 933.3 367.81 933.2 367.91C916.2 369.31 902.7 383.31 901.8 400.21C901.8 400.21 901.6 431.71 901.6 431.91C900.4 445.81 888.5 456.71 874.5 456.71H792.4V463.71H874.5C892.2 463.71 907.2 449.91 908.6 432.31C908.6 432.31 908.6 425.21 908.6 414.21L908.7 402.11C908.7 388.11 919.6 376.21 933.5 375.01C933.9 375.01 1033.6 375.01 1060.1 375.01L1060 367.81Z" fill="#C6074E"/>
<path d="M825 456.61H801V463.61H825V456.61Z" fill="#1F1A5C"/>
<path d="M1052.8 367.81H1028.8V374.81H1052.8V367.81Z" fill="#1F1A5C"/>
<path d="M1091.5 367.81H1067.5V374.21H1091.5V367.81Z" fill="#1F1A5C"/>
<path d="M792.4 477.91C803.004 477.91 811.6 469.314 811.6 458.711C811.6 448.107 803.004 439.51 792.4 439.51C781.796 439.51 773.2 448.107 773.2 458.711C773.2 469.314 781.796 477.91 792.4 477.91Z" fill="#FD2B38"/>
<path d="M792.4 467.31C797.15 467.31 801 463.46 801 458.711C801 453.961 797.15 450.11 792.4 450.11C787.65 450.11 783.8 453.961 783.8 458.711C783.8 463.46 787.65 467.31 792.4 467.31Z" fill="white"/>
<path d="M1153.4 1237.61C1164 1237.61 1172.6 1229.01 1172.6 1218.41C1172.6 1207.81 1164 1199.21 1153.4 1199.21C1142.8 1199.21 1134.2 1207.81 1134.2 1218.41C1134.2 1229.01 1142.8 1237.61 1153.4 1237.61Z" fill="#FD2B38"/>
<path d="M1153.4 1227.01C1158.15 1227.01 1162 1223.16 1162 1218.41C1162 1213.66 1158.15 1209.81 1153.4 1209.81C1148.65 1209.81 1144.8 1213.66 1144.8 1218.41C1144.8 1223.16 1148.65 1227.01 1153.4 1227.01Z" fill="white"/>
<path d="M1347 1350.31C1357.6 1350.31 1366.2 1341.71 1366.2 1331.11C1366.2 1320.51 1357.6 1311.91 1347 1311.91C1336.4 1311.91 1327.8 1320.51 1327.8 1331.11C1327.8 1341.71 1336.4 1350.31 1347 1350.31Z" fill="#FD2B38"/>
<path d="M1347 1339.71C1351.75 1339.71 1355.6 1335.86 1355.6 1331.11C1355.6 1326.36 1351.75 1322.51 1347 1322.51C1342.25 1322.51 1338.4 1326.36 1338.4 1331.11C1338.4 1335.86 1342.25 1339.71 1347 1339.71Z" fill="white"/>
<path d="M1060.2 390.21C1070.14 390.21 1078.2 382.152 1078.2 372.21C1078.2 362.269 1070.14 354.21 1060.2 354.21C1050.26 354.21 1042.2 362.269 1042.2 372.21C1042.2 382.152 1050.26 390.21 1060.2 390.21Z" fill="#554AFF"/>
<path d="M1060.2 380.21C1064.62 380.21 1068.2 376.629 1068.2 372.21C1068.2 367.792 1064.62 364.21 1060.2 364.21C1055.78 364.21 1052.2 367.792 1052.2 372.21C1052.2 376.629 1055.78 380.21 1060.2 380.21Z" fill="white"/>
<path d="M520.8 169.81C522.733 169.81 524.3 168.243 524.3 166.31C524.3 164.377 522.733 162.81 520.8 162.81C518.867 162.81 517.3 164.377 517.3 166.31C517.3 168.243 518.867 169.81 520.8 169.81Z" fill="#554AFF"/>
</svg>
