<svg xmlns="http://www.w3.org/2000/svg" viewBox="0 0 1679.63 1331.45"><defs><style>.cls-1{fill:#fff;}.cls-2{fill:#fd2b38;}.cls-3{fill:#c6074e;}.cls-4{fill:#554aff;}.cls-5{fill:#1f1a5c;}.cls-6{fill:#3d33b3;}.cls-7{fill:#333266;}.cls-8{fill:#c40a3f;}.cls-9{fill:#8a0639;}.cls-10{fill:#bdbdff;}.cls-11{fill:#7b7bff;}.cls-12{fill:#d2d2ff;}.cls-13{fill:#e6e6ff;}</style></defs><g id="Layer_2" data-name="Layer 2"><g id="Слой_7" data-name="Слой 7"><circle class="cls-1" cx="1332.53" cy="9" r="9"/><path class="cls-1" d="M198.15,1251a141.79,141.79,0,0,1,283.57,0Z" transform="translate(-102.42 -293.62)"/><path class="cls-1" d="M102.42,1251a82.5,82.5,0,0,1,165,0Z" transform="translate(-102.42 -293.62)"/><path class="cls-1" d="M559.65,503.65a174.75,174.75,0,1,0-349.49,0Z" transform="translate(-102.42 -293.62)"/><path class="cls-1" d="M677.64,503.65a101.68,101.68,0,1,0-203.36,0Z" transform="translate(-102.42 -293.62)"/><path class="cls-2" d="M1302.14,1625.08a49.68,49.68,0,0,1-49.62-49.62V1508h7v67.49a42.66,42.66,0,0,0,85.31,0V1035.27a54.37,54.37,0,0,1,108.73,0v588h-7V1035.27a47.4,47.4,0,1,0-94.8,0v540.19A49.68,49.68,0,0,1,1302.14,1625.08Z" transform="translate(-102.42 -293.62)"/><circle class="cls-2" cx="210.9" cy="737.9" r="9.34"/><circle class="cls-2" cx="252" cy="737.9" r="9.34"/><circle class="cls-2" cx="293.11" cy="737.9" r="9.34"/><circle class="cls-1" cx="334.22" cy="737.9" r="9.34"/><circle class="cls-1" cx="375.32" cy="737.9" r="9.34"/><circle class="cls-1" cx="416.43" cy="737.9" r="9.34"/><path class="cls-3" d="M632.59,750.48v118a34.32,34.32,0,1,1-68.63,0V747.94h-7V868.48a41.32,41.32,0,1,0,82.63,0v-118Z" transform="translate(-102.42 -293.62)"/><rect x="454.54" y="465.56" width="7" height="19.67"/><rect class="cls-4" x="472.98" y="452.87" width="60.67" height="7"/><polygon class="cls-5" points="533.79 459.87 516.18 459.87 509.78 452.87 533.79 452.87 533.79 459.87"/><path class="cls-4" d="M619.76,455.12V634.65a21.52,21.52,0,0,1-21.5,21.5H477.77a48.67,48.67,0,1,0,0,97.34H556.6v-7H477.77a41.67,41.67,0,1,1,0-83.34H598.26a28.53,28.53,0,0,0,28.5-28.5V455.83A14.23,14.23,0,0,1,619.76,455.12Z" transform="translate(-102.42 -293.62)"/><rect class="cls-5" x="447.55" y="362.48" width="22.43" height="7"/><rect class="cls-5" x="481.88" y="362.48" width="22.43" height="7"/><rect class="cls-3" x="455.19" y="208.38" width="7" height="246.15"/><rect class="cls-5" x="429.7" y="452.87" width="24.01" height="7"/><rect class="cls-5" x="464.28" y="452.87" width="24.01" height="7"/><circle class="cls-4" cx="458.69" cy="206.87" r="18"/><circle class="cls-1" cx="458.69" cy="206.87" r="8"/><rect x="455.18" y="427.39" width="7" height="19.67"/><circle class="cls-6" cx="458.87" cy="456.02" r="18"/><circle class="cls-1" cx="458.87" cy="456.02" r="8"/><path class="cls-1" d="M486.87,905a1.86,1.86,0,0,1-1.78-1.28l-5.43-16.08a5.59,5.59,0,0,0-3.49-3.5l-16.08-5.43a1.87,1.87,0,0,1,0-3.55l16.08-5.43a5.59,5.59,0,0,0,3.49-3.5l5.43-16.08a1.88,1.88,0,0,1,3.56,0l5.42,16.08a5.63,5.63,0,0,0,3.5,3.5l16.08,5.43a1.87,1.87,0,0,1,0,3.55l-16.08,5.43a5.61,5.61,0,0,0-3.5,3.5l-5.42,16.08A1.87,1.87,0,0,1,486.87,905Zm0-54.9a.63.63,0,0,0-.62.44l-5.43,16.08a6.82,6.82,0,0,1-4.26,4.27l-16.08,5.43a.65.65,0,0,0,0,1.24L476.56,883a6.85,6.85,0,0,1,4.26,4.27l5.43,16.08a.66.66,0,0,0,1.24,0l5.43-16.08a6.85,6.85,0,0,1,4.26-4.27h0l16.08-5.42a.65.65,0,0,0,0-1.24l-16.08-5.43a6.82,6.82,0,0,1-4.26-4.27l-5.43-16.08A.63.63,0,0,0,486.87,850.13Z" transform="translate(-102.42 -293.62)"/><path class="cls-3" d="M1598.06,844.67h64.34c66,0,119.65-53.95,119.65-120.26s-53.68-120.27-119.65-120.27H1543.6a39.28,39.28,0,0,0-39.14,39.33V750.6h6.41V643.47a32.85,32.85,0,0,1,32.73-32.91h118.8c62.44,0,113.23,51.07,113.23,113.85s-50.79,113.85-113.23,113.85h-64.34Z" transform="translate(-102.42 -293.62)"/><rect class="cls-4" x="1283.88" y="364.04" width="107.55" height="6.41"/><rect class="cls-7" x="1374.86" y="364.04" width="20.31" height="6.41"/><rect x="1453.58" y="310.52" width="21.03" height="6.41"/><rect class="cls-8" x="1411.34" y="364.04" width="20.31" height="6.41"/><path class="cls-2" d="M1533.65,664.05v-6.41A29.7,29.7,0,0,0,1563.31,628V533.25h6.41V628A36.11,36.11,0,0,1,1533.65,664.05Z" transform="translate(-102.42 -293.62)"/><rect class="cls-9" x="1460.89" y="218.6" width="6.41" height="21.03"/><path class="cls-5" d="M1535.14,500.23a56,56,0,1,1,39.59,16.4A55.66,55.66,0,0,1,1535.14,500.23Z" transform="translate(-102.42 -293.62)"/><path class="cls-10" d="M1522.31,500.23a56,56,0,1,1,39.58,16.4A55.67,55.67,0,0,1,1522.31,500.23Z" transform="translate(-102.42 -293.62)"/><path class="cls-11" d="M1512.81,473.15a51.23,51.23,0,0,1-1.54-12.49,50.63,50.63,0,0,1,97.34-19.49l-5,2.09a45.2,45.2,0,0,0-85.5,28.56Z" transform="translate(-102.42 -293.62)"/><path class="cls-12" d="M1531.57,501.2a52.65,52.65,0,0,1-5.48-4.76,50.5,50.5,0,0,1-13.28-23.29l5.28-1.33a45.58,45.58,0,0,0,16.75,25Z" transform="translate(-102.42 -293.62)"/><path class="cls-1" d="M1561.88,511.26a50.11,50.11,0,0,1-30.31-10.06l3.27-4.35a45.21,45.21,0,0,0,68.75-53.59l5-2.09a50.63,50.63,0,0,1-46.73,70.09Z" transform="translate(-102.42 -293.62)"/><circle class="cls-2" cx="1405.57" cy="367.22" r="19.24"/><circle class="cls-1" cx="1405.57" cy="367.22" r="8.55"/><circle class="cls-13" cx="1506.63" cy="756.28" r="23"/><circle class="cls-1" cx="1376.87" cy="500.87" r="54.79"/><circle class="cls-1" cx="261.18" cy="469.93" r="14.32"/><path class="cls-7" d="M1494.83,851.8a70,70,0,1,1,49.5,20.51A69.55,69.55,0,0,1,1494.83,851.8Z" transform="translate(-102.42 -293.62)"/><path class="cls-10" d="M1478.78,851.8a70,70,0,1,1,49.5,20.51A69.55,69.55,0,0,1,1478.78,851.8Z" transform="translate(-102.42 -293.62)"/><path class="cls-11" d="M1466.91,818a64,64,0,0,1-1.94-15.63A63.32,63.32,0,0,1,1586.7,778l-6.28,2.62a56.5,56.5,0,0,0-108.64,21.75,56.79,56.79,0,0,0,1.73,14Z" transform="translate(-102.42 -293.62)"/><path class="cls-12" d="M1490.36,853a65.47,65.47,0,0,1-6.85-5.95,63.11,63.11,0,0,1-16.6-29.12l6.6-1.67a56.32,56.32,0,0,0,14.81,26,59.46,59.46,0,0,0,6.13,5.32Z" transform="translate(-102.42 -293.62)"/><path class="cls-1" d="M1528.26,865.6a62.67,62.67,0,0,1-37.9-12.58l4.09-5.44a56.53,56.53,0,0,0,86-67l6.28-2.62a63.31,63.31,0,0,1-58.44,87.65Z" transform="translate(-102.42 -293.62)"/><path class="cls-1" d="M1537.43,831.35h-36.27v-9.17h6.52V779.62h-6.52v-9.17h35.5a16.56,16.56,0,0,1,12.11,27.87,18.46,18.46,0,0,1-11.34,33Zm-20.58-9.17h20.58a9.29,9.29,0,0,0,0-18.58h-20.58Zm0-27.76h19.81a7.4,7.4,0,0,0,0-14.8h-19.81Z" transform="translate(-102.42 -293.62)"/><rect class="cls-1" x="1410.22" y="469.05" width="9.17" height="12.36"/><rect class="cls-1" x="1429.28" y="469.05" width="9.17" height="12.36"/><rect class="cls-1" x="1410.22" y="533.14" width="9.17" height="12.62"/><rect class="cls-1" x="1429.28" y="533.14" width="9.17" height="12.62"/></g></g></svg>