<svg width="48" height="48" viewBox="0 0 48 48" fill="none" xmlns="http://www.w3.org/2000/svg">
<path d="M14.5933 29.3734L0.733337 24.6934C0.519197 24.6192 0.333462 24.4802 0.202026 24.2956C0.0705903 24.111 0 23.89 0 23.6634C0 23.4367 0.0705903 23.2158 0.202026 23.0312C0.333462 22.8466 0.519197 22.7075 0.733337 22.6334L14.5933 17.9534C15.3718 17.6904 16.0791 17.2512 16.6602 16.6702C17.2412 16.0892 17.6804 15.3819 17.9434 14.6034L22.6234 0.733368C22.6975 0.519228 22.8365 0.333524 23.0211 0.202087C23.2057 0.0706513 23.4267 0 23.6533 0C23.8799 0 24.1009 0.0706513 24.2855 0.202087C24.4701 0.333524 24.6092 0.519228 24.6833 0.733368L29.3533 14.6034C29.616 15.3804 30.0538 16.0867 30.6329 16.6676C31.2121 17.2484 31.9171 17.6884 32.6934 17.9534L46.5634 22.6334C46.7775 22.7075 46.9632 22.8466 47.0946 23.0312C47.226 23.2158 47.2967 23.4367 47.2967 23.6634C47.2967 23.89 47.226 24.111 47.0946 24.2956C46.9632 24.4802 46.7775 24.6192 46.5634 24.6934L32.6934 29.3734C31.9171 29.6383 31.2121 30.0783 30.6329 30.6591C30.0538 31.24 29.616 31.9463 29.3533 32.7234L24.6633 46.5934C24.5892 46.8075 24.4501 46.9932 24.2655 47.1246C24.0809 47.2561 23.86 47.3267 23.6334 47.3267C23.4067 47.3267 23.1858 47.2561 23.0012 47.1246C22.8166 46.9932 22.6775 46.8075 22.6033 46.5934L17.9233 32.7234C17.6624 31.947 17.2263 31.2411 16.6489 30.6602C16.0714 30.0793 15.3681 29.639 14.5933 29.3734V29.3734Z" fill="#FD2B38"/>
</svg>
