<svg xmlns="http://www.w3.org/2000/svg" viewBox="0 0 39.23 39.23"><defs><style>.cls-1{fill:#554aff;}</style></defs><g id="Layer_2" data-name="Layer 2"><g id="Слой_7" data-name="Слой 7"><path class="cls-1" d="M27.13,24.35l11.49-3.88a.9.9,0,0,0,0-1.71L27.13,14.88a4.43,4.43,0,0,1-2.78-2.77L20.47.61a.91.91,0,0,0-1.71,0l-3.88,11.5a4.43,4.43,0,0,1-2.77,2.77L.61,18.76a.91.91,0,0,0,0,1.71l11.5,3.88a4.43,4.43,0,0,1,2.77,2.78l3.88,11.49a.9.9,0,0,0,1.71,0l3.88-11.49A4.42,4.42,0,0,1,27.13,24.35Z"/></g></g></svg>