<svg width="512" height="512" viewBox="0 0 512 512" fill="none" xmlns="http://www.w3.org/2000/svg">
<path d="M512 256C512 397.385 397.385 512 256 512C114.615 512 0 397.385 0 256C0 114.615 114.615 0 256 0C397.385 0 512 114.615 512 256Z" fill="white"/>
<path d="M436.615 143.687C423.205 149.569 408.916 153.468 394.018 155.362C409.344 146.211 421.041 131.831 426.541 114.499C412.251 123.019 396.474 129.037 379.661 132.395C366.093 117.948 346.755 109 325.659 109C284.729 109 251.777 142.222 251.777 182.949C251.777 188.809 252.273 194.443 253.49 199.807C192.028 196.81 137.643 167.352 101.108 122.478C94.7295 133.544 90.9881 146.211 90.9881 159.847C90.9881 185.45 104.173 208.147 123.827 221.287C111.949 221.061 100.296 217.613 90.4246 212.181C90.4246 212.406 90.4246 212.699 90.4246 212.992C90.4246 248.919 116.051 278.76 149.656 285.634C143.638 287.279 137.079 288.068 130.273 288.068C125.54 288.068 120.761 287.798 116.276 286.806C125.855 316.083 153.036 337.608 185.357 338.306C160.204 357.982 128.267 369.838 93.6927 369.838C87.6298 369.838 81.8149 369.567 76 368.823C108.748 389.942 147.56 402 189.414 402C325.456 402 399.833 289.308 399.833 191.626C399.833 188.358 399.72 185.203 399.562 182.07C414.235 171.657 426.563 158.652 436.615 143.687Z" fill="black"/>
</svg>
