<svg xmlns="http://www.w3.org/2000/svg" width="70.124" height="54.755" viewBox="0 0 70.124 54.755"><path d="M62.508,56H7.616A7.625,7.625,0,0,0,0,63.616v39.522a7.625,7.625,0,0,0,7.616,7.616H62.508a7.625,7.625,0,0,0,7.616-7.616V63.616A7.625,7.625,0,0,0,62.508,56Zm1.166,26.348H47.07V74.595a1.168,1.168,0,0,1,1.166-1.166H63.675Zm-16.6,2.058h16.6v8.92H47.07Zm18.663-5.489h2.333v8.92H65.733Zm0-2.058v-8.92h2.333v8.92ZM63.675,71.37H48.236a3.229,3.229,0,0,0-3.225,3.225V104.3h-19.9V62.45h37.4a1.168,1.168,0,0,1,1.166,1.166ZM23.055,82.348H6.45v-8.92h16.6ZM4.391,87.837H2.058v-8.92H4.391ZM6.45,84.407h16.6v8.92H6.45ZM36.091,60.391V58.058h18.8v2.333Zm-2.058,0h-18.8V58.058h18.8ZM23.055,62.45v8.92H6.45V63.616A1.168,1.168,0,0,1,7.616,62.45ZM4.391,76.859H2.058v-8.92H4.391ZM2.058,89.9H4.391v8.92H2.058ZM6.45,95.385h16.6v8.92H7.616a1.168,1.168,0,0,1-1.166-1.166Zm27.583,10.978V108.7h-18.8v-2.333Zm2.058,0h18.8V108.7h-18.8ZM47.07,104.3v-8.92h16.6v7.753a1.168,1.168,0,0,1-1.166,1.166ZM65.733,89.9h2.333v8.92H65.733Zm2.333-26.28v2.264H65.733V63.616a3.229,3.229,0,0,0-3.225-3.225H56.95V58.058h5.558A5.564,5.564,0,0,1,68.066,63.616ZM7.616,58.058h5.558v2.333H7.616a3.229,3.229,0,0,0-3.225,3.225v2.264H2.058V63.616A5.564,5.564,0,0,1,7.616,58.058Zm-5.558,45.08v-2.264H4.391v2.264a3.229,3.229,0,0,0,3.225,3.225h5.558V108.7H7.616A5.564,5.564,0,0,1,2.058,103.138Zm60.45,5.558H56.95v-2.333h5.558a3.229,3.229,0,0,0,3.225-3.225v-2.264h2.333v2.264A5.564,5.564,0,0,1,62.508,108.7Z" transform="translate(0 -56)" fill="#fff" opacity="0.3"/></svg>