<svg xmlns="http://www.w3.org/2000/svg" xmlns:xlink="http://www.w3.org/1999/xlink" width="295.151" height="99.351" viewBox="0 0 295.151 99.351"><defs><filter id="a" x="0" y="0" width="295.151" height="99.351" filterUnits="userSpaceOnUse"><feOffset dx="-2" dy="2" input="SourceAlpha"/><feGaussianBlur result="b"/><feFlood flood-opacity="0.251"/><feComposite operator="in" in2="b"/><feComposite in="SourceGraphic"/></filter></defs><g transform="matrix(1, 0, 0, 1, 0, 0)" filter="url(#a)"><path d="M81.874,292.149v-9.824h2.137v4.43H96.588l-2.241-4.126,1.951-.843,2.887,5.485v2.03H84.01v3.85Zm3.1-15.3a4.847,4.847,0,0,1-1.74-1.384,6.844,6.844,0,0,1-1.174-2.32,11.16,11.16,0,0,1-.428-3.257q0-1.027.066-1.845t.171-1.53h2.057q-.146.818-.224,1.727t-.079,1.859a9.144,9.144,0,0,0,.23,2.208,4.176,4.176,0,0,0,.666,1.5,2.564,2.564,0,0,0,1.055.844,3.54,3.54,0,0,0,1.4.264,2.363,2.363,0,0,0,1.239-.317,2.629,2.629,0,0,0,.884-.89,4.394,4.394,0,0,0,.534-1.371,8.017,8.017,0,0,0,.178-1.747v-1.965h1.885v1.991a4.624,4.624,0,0,0,.2,1.417,3.188,3.188,0,0,0,.586,1.094,2.543,2.543,0,0,0,.943.7,3.152,3.152,0,0,0,1.272.244,2.357,2.357,0,0,0,2.018-.843,4.1,4.1,0,0,0,.633-2.479,9.816,9.816,0,0,0-.172-1.794,15.71,15.71,0,0,0-.514-1.977h2q.158.448.284.956t.211,1.015q.085.508.131,1.009t.047.962a8.832,8.832,0,0,1-.3,2.413,4.957,4.957,0,0,1-.851,1.74,3.549,3.549,0,0,1-1.345,1.055,4.285,4.285,0,0,1-1.779.356,3.987,3.987,0,0,1-2.479-.759,5.22,5.22,0,0,1-1.6-2.076,4.67,4.67,0,0,1-.422,1.325,4.611,4.611,0,0,1-.81,1.174,3.972,3.972,0,0,1-1.167.844,3.4,3.4,0,0,1-1.49.323,5,5,0,0,1-2.112-.467Zm-3.1-15.009V251.017h2.137v4.43H96.588l-2.241-4.126,1.951-.843,2.887,5.484v2.03H84.01v3.849Zm0-15.51V234.979h2.057l4.43,4.456q1.08,1.095,1.872,1.78a9.883,9.883,0,0,0,1.444,1.067,4.387,4.387,0,0,0,1.232.515,5.687,5.687,0,0,0,1.253.131,4.188,4.188,0,0,0,1.206-.171,2.881,2.881,0,0,0,1.009-.527,2.445,2.445,0,0,0,.685-.923,3.335,3.335,0,0,0,.251-1.357,4.1,4.1,0,0,0-.488-1.991,6.827,6.827,0,0,0-1.265-1.648l1.516-1.266a7.761,7.761,0,0,1,1.648,2.248,6.684,6.684,0,0,1,.62,2.96A6.073,6.073,0,0,1,99,242.342a4.651,4.651,0,0,1-.989,1.628,4.382,4.382,0,0,1-1.582,1.062,5.622,5.622,0,0,1-2.109.375,6.127,6.127,0,0,1-1.833-.264,7.031,7.031,0,0,1-1.68-.8A13.274,13.274,0,0,1,89.075,243q-.9-.811-1.965-1.919l-3.046-3.124v8.371Zm0-31.454V204.053h2.137v4.43H96.588l-2.241-4.126,1.951-.844L99.185,209v2.03H84.01v3.849ZM14.048,198V192.21H9.9v5.568H8.357V192.21H3.743V198H2.184v-7.618h13.4V198Zm72.83,1.363a8.346,8.346,0,0,1-2.8-1.2,5.647,5.647,0,0,1-1.806-2,5.854,5.854,0,0,1-.639-2.8,5.974,5.974,0,0,1,.52-2.518,5,5,0,0,1,1.6-1.938,7.905,7.905,0,0,1,2.756-1.239,15.927,15.927,0,0,1,3.968-.436,15.12,15.12,0,0,1,3.613.4,8.521,8.521,0,0,1,2.8,1.2,5.564,5.564,0,0,1,1.806,2,5.854,5.854,0,0,1,.64,2.8,5.96,5.96,0,0,1-.521,2.518,4.982,4.982,0,0,1-1.608,1.938,7.978,7.978,0,0,1-2.762,1.239,15.93,15.93,0,0,1-3.968.435,15.28,15.28,0,0,1-3.6-.4Zm-1.4-8.82a3.868,3.868,0,0,0-1,.732,3.257,3.257,0,0,0-.441,3.851,3.637,3.637,0,0,0,1.292,1.246,7.043,7.043,0,0,0,2.129.791,13.973,13.973,0,0,0,2.947.276q.448,0,.89-.032t.863-.073l-5.418-7.29a6.766,6.766,0,0,0-1.266.5Zm4.271-.982q-.409.007-.791.046L94.35,196.9a6.169,6.169,0,0,0,1.226-.5,3.87,3.87,0,0,0,.956-.725,3.094,3.094,0,0,0,.626-.962,3.318,3.318,0,0,0-.211-2.841,3.631,3.631,0,0,0-1.3-1.246,7.131,7.131,0,0,0-2.136-.791,13.977,13.977,0,0,0-2.947-.276q-.414,0-.814,0ZM2.188,184.146l8.357-.266,3.209-.112-1.867-.626-5.332-1.979V179.9l5.126-1.887,2.072-.625-3.353-.04-8.213-.236v-1.723l13.4.656v2.164l-5.044,1.8-1.7.584,1.7.564,5.044,1.9v2.225l-13.4.646Zm79.69-.58V172.742h2.137v4.43H96.592l-2.241-4.126L96.3,172.2l2.887,5.485v2.03H84.01v3.85ZM2.188,170.905l2.922-.933v-5.578l-2.922-.943v-1.9l13.4,4.45v2.5l-13.4,4.388Zm4.553-1.456,7.168-2.266-7.168-2.266Zm80.391-2.092a7.379,7.379,0,0,1-2.98-1.793,7.216,7.216,0,0,1-1.72-2.939,13.457,13.457,0,0,1-.554-4.047v-1.437h2v1.6a11.114,11.114,0,0,0,.343,2.94,5.612,5.612,0,0,0,1.009,2.063A4.394,4.394,0,0,0,86.851,165a6.582,6.582,0,0,0,2.182.541l.54.052a7.851,7.851,0,0,1-.784-1.912,8.825,8.825,0,0,1-.3-2.346,6.343,6.343,0,0,1,.383-2.294,4.308,4.308,0,0,1,2.695-2.624,6.18,6.18,0,0,1,2.05-.329,5.756,5.756,0,0,1,2.241.435,5.485,5.485,0,0,1,1.813,1.22,5.76,5.76,0,0,1,1.22,1.879,6.3,6.3,0,0,1,.448,2.412,6.5,6.5,0,0,1-.422,2.367,4.608,4.608,0,0,1-1.364,1.878,6.765,6.765,0,0,1-2.445,1.239,12.918,12.918,0,0,1-3.652.448,13.692,13.692,0,0,1-4.328-.607Zm5.214-8.668a2.764,2.764,0,0,0-1.075.593,2.613,2.613,0,0,0-.679,1.035,4.28,4.28,0,0,0-.238,1.5,5.823,5.823,0,0,0,.093,1.009,7.8,7.8,0,0,0,.619,1.957,6.353,6.353,0,0,0,.448.8,13.506,13.506,0,0,0,2.841-.25,5.2,5.2,0,0,0,1.832-.725,2.672,2.672,0,0,0,.983-1.154,3.875,3.875,0,0,0,.29-1.536,3.721,3.721,0,0,0-.244-1.364,3.011,3.011,0,0,0-.712-1.081,3.358,3.358,0,0,0-1.154-.718,4.336,4.336,0,0,0-1.569-.264,4.958,4.958,0,0,0-1.439.2Zm-90.158-.338v-2.379l8.357-3.907,2.687-1.128H2.188v-1.7h13.4v2.348l-7.916,3.721L4.607,156.65H15.589v1.7Zm0-28.491,4.286-2a4.693,4.693,0,0,0,.815-.462,2.215,2.215,0,0,0,.513-.508,1.814,1.814,0,0,0,.272-.6,2.929,2.929,0,0,0,.082-.723v-.861H2.188v-1.825h13.4v3.589a6.937,6.937,0,0,1-.256,2.01,3.8,3.8,0,0,1-.717,1.379,2.745,2.745,0,0,1-1.113.789,3.95,3.95,0,0,1-1.44.252,3.769,3.769,0,0,1-1.184-.185,3.246,3.246,0,0,1-1.015-.549,3.479,3.479,0,0,1-.789-.9,4.124,4.124,0,0,1-.5-1.235,2.1,2.1,0,0,1-.682.958,7.37,7.37,0,0,1-1.3.8l-4.409,2.123Zm7.434-3.671a4.224,4.224,0,0,0,.148,1.164,2.5,2.5,0,0,0,.441.882,2.009,2.009,0,0,0,.718.563,2.28,2.28,0,0,0,.979.2,1.93,1.93,0,0,0,1.61-.671,2.973,2.973,0,0,0,.533-1.892V124.71H9.621ZM84.258,136.3a4.108,4.108,0,0,1-1.431-1.252,5.9,5.9,0,0,1-.883-1.9,9.881,9.881,0,0,1,.006-4.857,5.349,5.349,0,0,1,.884-1.8,3.73,3.73,0,0,1,1.345-1.094,3.951,3.951,0,0,1,1.714-.369,4.341,4.341,0,0,1,2.729.883,7.873,7.873,0,0,1,2.083,2.73,6.892,6.892,0,0,1,1.9-2.466,3.984,3.984,0,0,1,5.4.6,5.2,5.2,0,0,1,.969,1.733,7.484,7.484,0,0,1,.363,2.452,8.681,8.681,0,0,1-.284,2.34,4.952,4.952,0,0,1-.811,1.694,3.354,3.354,0,0,1-1.279,1.029,4.3,4.3,0,0,1-4.232-.494,7.141,7.141,0,0,1-1.846-2.381,11.263,11.263,0,0,1-.843,1.424,6.152,6.152,0,0,1-1.029,1.147,4.173,4.173,0,0,1-2.821,1.028,4.1,4.1,0,0,1-1.945-.448Zm.751-8.536a2.354,2.354,0,0,0-.77.7,3.2,3.2,0,0,0-.475,1.068,5.433,5.433,0,0,0-.158,1.345,5.743,5.743,0,0,0,.146,1.319,3.352,3.352,0,0,0,.441,1.075,2.212,2.212,0,0,0,.751.718,2.137,2.137,0,0,0,1.088.264,2.907,2.907,0,0,0,.949-.158,2.628,2.628,0,0,0,.91-.567,5.668,5.668,0,0,0,.9-1.094,12.886,12.886,0,0,0,.923-1.74,11.165,11.165,0,0,0-.864-1.509,5.161,5.161,0,0,0-.87-.989,2.766,2.766,0,0,0-.916-.534,3.146,3.146,0,0,0-1-.158,2.091,2.091,0,0,0-1.059.259Zm9.209.191a2.56,2.56,0,0,0-.817.613,6.3,6.3,0,0,0-.752,1.035,14.478,14.478,0,0,0-.751,1.477,7.459,7.459,0,0,0,1.457,2.215,2.467,2.467,0,0,0,1.76.724,1.983,1.983,0,0,0,1.746-.823,4.95,4.95,0,0,0,.007-4.614,1.927,1.927,0,0,0-1.7-.824,2.263,2.263,0,0,0-.954.2ZM14.052,117.388V111.6H9.9v5.567H8.361V111.6H3.747v5.793H2.188V109.77h13.4v7.618ZM96.974,121l-15.1-7.225v-2.623l15.1,7.5v-9.307H99.11V121ZM7.193,104.922a7.129,7.129,0,0,1-1.641-.477,5.51,5.51,0,0,1-1.379-.851,4.826,4.826,0,0,1-1.062-1.282,6.516,6.516,0,0,1-.681-1.764,9.815,9.815,0,0,1-.241-2.286V95.391h13.4v3.455a6.193,6.193,0,0,1-1.615,4.681,6.919,6.919,0,0,1-4.937,1.543,11.1,11.1,0,0,1-1.849-.15ZM3.769,98.58q0,4.572,5.137,4.573a9.329,9.329,0,0,0,2.409-.266,3.828,3.828,0,0,0,1.589-.81,3.112,3.112,0,0,0,.877-1.363,6.155,6.155,0,0,0,.272-1.928V97.21H3.769Zm81.34,6.642A5.362,5.362,0,0,1,83.3,104a5.706,5.706,0,0,1-1.212-1.9,6.638,6.638,0,0,1-.442-2.472,6.52,6.52,0,0,1,.454-2.518,4.481,4.481,0,0,1,1.4-1.832,6.538,6.538,0,0,1,2.38-1.12,13.341,13.341,0,0,1,3.4-.383,18.641,18.641,0,0,1,2.558.172,11.476,11.476,0,0,1,2.334.567,8.042,8.042,0,0,1,2,1.055,6.322,6.322,0,0,1,1.562,1.641,7.885,7.885,0,0,1,1.015,2.314,11.778,11.778,0,0,1,.363,3.085v1.7h-2v-1.845a8.66,8.66,0,0,0-.369-2.677,5.322,5.322,0,0,0-1.041-1.9,4.5,4.5,0,0,0-1.622-1.174,6.888,6.888,0,0,0-2.122-.514l-.541-.053a7.842,7.842,0,0,1,.785,1.918,8.914,8.914,0,0,1,.3,2.353,6.292,6.292,0,0,1-.382,2.288,4.494,4.494,0,0,1-1.062,1.634,4.384,4.384,0,0,1-1.628.982,6.29,6.29,0,0,1-2.083.33,5.808,5.808,0,0,1-2.239-.429Zm1.51-8.84a5.078,5.078,0,0,0-1.826.7,2.633,2.633,0,0,0-.976,1.154,4.032,4.032,0,0,0-.29,1.582,3.76,3.76,0,0,0,.244,1.378,2.956,2.956,0,0,0,.718,1.081,3.369,3.369,0,0,0,1.154.712,4.359,4.359,0,0,0,1.549.257,4.968,4.968,0,0,0,1.43-.192,2.7,2.7,0,0,0,1.081-.6,2.744,2.744,0,0,0,.686-1.035,4.117,4.117,0,0,0,.244-1.5,5.768,5.768,0,0,0-.092-1.015,7.286,7.286,0,0,0-.257-1.008,8.407,8.407,0,0,0-.376-.943,7.01,7.01,0,0,0-.448-.817,14.236,14.236,0,0,0-2.846.244ZM2.189,90.937v-7.71h13.4v1.856H3.746v5.854ZM85.057,88.8a5.572,5.572,0,0,1-1.813-1.522,7.25,7.25,0,0,1-1.18-2.288,9.282,9.282,0,0,1-.422-2.848q0-.382.02-.824.039-.865.125-1.727c.026-.277.057-.526.092-.745h2.083a10.983,10.983,0,0,0-.25,1.628q-.08.917-.079,1.852a6.681,6.681,0,0,0,.25,1.9,4.258,4.258,0,0,0,.718,1.437,3.158,3.158,0,0,0,1.134.91,3.449,3.449,0,0,0,1.5.316,2.566,2.566,0,0,0,2.34-1.153,6.216,6.216,0,0,0,.732-3.316v-3.27h8.807v9.281h-2V81.31H92.276v1.5a12.84,12.84,0,0,1-.224,2.413,6.187,6.187,0,0,1-.784,2.089,4.319,4.319,0,0,1-1.5,1.477,4.568,4.568,0,0,1-2.366.561,4.932,4.932,0,0,1-2.352-.557ZM5.857,77.957a6.352,6.352,0,0,1-2.169-1.148,4.544,4.544,0,0,1-1.272-1.691,5.463,5.463,0,0,1,.051-4.3,4.172,4.172,0,0,1,1.349-1.589,6.149,6.149,0,0,1,2.147-.939,12.173,12.173,0,0,1,2.856-.307,10.171,10.171,0,0,1,3.1.42,6.3,6.3,0,0,1,2.169,1.143,4.558,4.558,0,0,1,1.272,1.687,5.112,5.112,0,0,1,.415,2.04,5.046,5.046,0,0,1-.472,2.251A4.277,4.277,0,0,1,13.95,77.12a6.111,6.111,0,0,1-2.138.949,11.854,11.854,0,0,1-2.84.312,10.128,10.128,0,0,1-3.117-.426Zm.9-7.89a5.515,5.515,0,0,0-1.682.58,2.966,2.966,0,0,0-1.092,1.021,2.79,2.79,0,0,0-.39,1.508,2.631,2.631,0,0,0,.415,1.487,3.263,3.263,0,0,0,1.129,1.03,5.623,5.623,0,0,0,1.666.6,10.2,10.2,0,0,0,2.04.2A12,12,0,0,0,11,76.313a5.366,5.366,0,0,0,1.687-.58,2.977,2.977,0,0,0,1.1-1.03,2.845,2.845,0,0,0,.39-1.522,2.6,2.6,0,0,0-.416-1.482,3.225,3.225,0,0,0-1.128-1.02,5.7,5.7,0,0,0-1.671-.6,10.163,10.163,0,0,0-2.036-.2,11.791,11.791,0,0,0-2.178.181ZM2.189,64.383V62.558H8.341v-5.63H2.189V55.1h13.4v1.825H9.919v5.63h5.67v1.825Zm83.5-5.052v-2.94H81.878V54.045h3.811V45.752h2.017l11.4,7.343v3.3h-11.4v2.94Zm2.017-5.287H96.9l-9.189-6ZM7.193,51.177A7.084,7.084,0,0,1,5.552,50.7a5.538,5.538,0,0,1-1.379-.851,4.826,4.826,0,0,1-1.062-1.282A6.516,6.516,0,0,1,2.43,46.8a9.815,9.815,0,0,1-.241-2.286V41.646h13.4V45.1a6.193,6.193,0,0,1-1.615,4.681,6.919,6.919,0,0,1-4.937,1.543,11.01,11.01,0,0,1-1.849-.15ZM3.769,44.836q0,4.572,5.137,4.573a9.368,9.368,0,0,0,2.409-.266,3.849,3.849,0,0,0,1.589-.81,3.112,3.112,0,0,0,.877-1.363,6.155,6.155,0,0,0,.272-1.928v-1.57H3.769Zm-1.58-9.027,4.286-2a4.756,4.756,0,0,0,.815-.461A2.215,2.215,0,0,0,7.8,32.84a1.831,1.831,0,0,0,.272-.595,2.929,2.929,0,0,0,.082-.723v-.861H2.189V28.836h13.4v3.588a6.933,6.933,0,0,1-.256,2.01,3.8,3.8,0,0,1-.717,1.38A2.745,2.745,0,0,1,13.5,36.6a3.969,3.969,0,0,1-1.44.251,3.743,3.743,0,0,1-1.184-.185,3.263,3.263,0,0,1-1.015-.548,3.479,3.479,0,0,1-.789-.9,4.13,4.13,0,0,1-.5-1.236,2.094,2.094,0,0,1-.682.958,7.318,7.318,0,0,1-1.3.806L2.184,37.871Zm7.434-3.671A4.215,4.215,0,0,0,9.771,33.3a2.484,2.484,0,0,0,.441.882,2,2,0,0,0,.718.564,2.28,2.28,0,0,0,.979.2,1.933,1.933,0,0,0,1.61-.671,2.974,2.974,0,0,0,.533-1.892V30.662H9.622Zm75.361,9.891a4.847,4.847,0,0,1-1.74-1.384,6.844,6.844,0,0,1-1.174-2.32,11.16,11.16,0,0,1-.428-3.257q0-1.027.066-1.845t.171-1.53h2.057q-.146.818-.224,1.727t-.079,1.859a9.144,9.144,0,0,0,.23,2.208,4.176,4.176,0,0,0,.666,1.5,2.554,2.554,0,0,0,1.055.843,3.523,3.523,0,0,0,1.4.264,2.363,2.363,0,0,0,1.239-.316,2.637,2.637,0,0,0,.884-.89,4.4,4.4,0,0,0,.534-1.371,8.017,8.017,0,0,0,.178-1.747V33.8H91.7V35.8a4.624,4.624,0,0,0,.2,1.417,3.188,3.188,0,0,0,.586,1.094,2.553,2.553,0,0,0,.943.7,3.152,3.152,0,0,0,1.272.244,2.358,2.358,0,0,0,2.018-.844,4.1,4.1,0,0,0,.633-2.478,9.816,9.816,0,0,0-.172-1.794,15.709,15.709,0,0,0-.514-1.977h2q.158.448.284.956t.211,1.015q.085.508.131,1.009t.047.962a8.833,8.833,0,0,1-.3,2.413,4.956,4.956,0,0,1-.851,1.74,3.558,3.558,0,0,1-1.345,1.055,4.285,4.285,0,0,1-1.779.356,3.987,3.987,0,0,1-2.479-.759,5.22,5.22,0,0,1-1.6-2.076,4.671,4.671,0,0,1-.422,1.325,4.611,4.611,0,0,1-.81,1.174,3.972,3.972,0,0,1-1.167.844,3.4,3.4,0,0,1-1.49.322,5,5,0,0,1-2.121-.467ZM2.189,23.112l2.922-.933V16.6l-2.922-.943v-1.9l13.4,4.451v2.5L2.189,25.1Zm4.553-1.456L13.91,19.39,6.742,17.124Zm75.137,5.51V15.81h2.057l4.43,4.456q1.08,1.095,1.872,1.78a9.881,9.881,0,0,0,1.444,1.067,4.389,4.389,0,0,0,1.232.515,5.687,5.687,0,0,0,1.253.131,4.188,4.188,0,0,0,1.206-.171,2.866,2.866,0,0,0,1.009-.527,2.444,2.444,0,0,0,.685-.923,3.332,3.332,0,0,0,.251-1.357,4.1,4.1,0,0,0-.488-1.991,6.827,6.827,0,0,0-1.265-1.648l1.516-1.266a7.761,7.761,0,0,1,1.648,2.248,6.684,6.684,0,0,1,.62,2.96,6.073,6.073,0,0,1-.343,2.089,4.651,4.651,0,0,1-.989,1.628,4.382,4.382,0,0,1-1.582,1.062,5.622,5.622,0,0,1-2.109.375,6.127,6.127,0,0,1-1.833-.264,7.032,7.032,0,0,1-1.68-.8,13.269,13.269,0,0,1-1.733-1.345q-.9-.811-1.965-1.919l-3.046-3.124v8.372ZM13.315,10.425a6.842,6.842,0,0,0,.61-1.508,6.556,6.556,0,0,0,.21-1.7,4.019,4.019,0,0,0-.354-1.707,3.542,3.542,0,0,0-1.025-1.3,4.791,4.791,0,0,0-1.641-.82A7.774,7.774,0,0,0,8.906,3.1,6.2,6.2,0,0,0,4.978,4.159a3.728,3.728,0,0,0-1.323,3.1,6.7,6.7,0,0,0,.2,1.651,7.821,7.821,0,0,0,.559,1.518H2.691a8.748,8.748,0,0,1-.666-3.374,5.558,5.558,0,0,1,1.7-4.363A7.3,7.3,0,0,1,8.744,1.168a9.434,9.434,0,0,1,2.912.421,6.307,6.307,0,0,1,2.21,1.2,5.277,5.277,0,0,1,1.4,1.886,6.037,6.037,0,0,1,.492,2.481A8.958,8.958,0,0,1,15.6,8.889a7.285,7.285,0,0,1-.487,1.538Zm68.564.94V.54h2.137V4.97H96.593L94.352.844,96.3,0,99.19,5.485v2.03H84.01v3.849Z" transform="translate(2 99.35) rotate(-90)" fill="#fff" opacity="0.9"/></g></svg>