<?xml version="1.0" encoding="UTF-8" standalone="no"?>
<!-- Created with Inkscape (http://www.inkscape.org/) -->

<svg
   xmlns:dc="http://purl.org/dc/elements/1.1/"
   xmlns:cc="http://creativecommons.org/ns#"
   xmlns:rdf="http://www.w3.org/1999/02/22-rdf-syntax-ns#"
   xmlns:svg="http://www.w3.org/2000/svg"
   xmlns="http://www.w3.org/2000/svg"
   xmlns:sodipodi="http://sodipodi.sourceforge.net/DTD/sodipodi-0.dtd"
   xmlns:inkscape="http://www.inkscape.org/namespaces/inkscape"
   version="1.1"
   id="svg2"
   width="100"
   height="106.41589"
   viewBox="0 0 190 202.19019"
   sodipodi:docname="doc-fond-6.svg"
   inkscape:version="0.92.2 (5c3e80d, 2017-08-06)">
  <metadata
     id="metadata8">
    <rdf:RDF>
      <cc:Work
         rdf:about="">
        <dc:format>image/svg+xml</dc:format>
        <dc:type
           rdf:resource="http://purl.org/dc/dcmitype/StillImage" />
        <dc:title></dc:title>
      </cc:Work>
    </rdf:RDF>
  </metadata>
  <defs
     id="defs6" />
  <sodipodi:namedview
     pagecolor="#ffffff"
     bordercolor="#666666"
     borderopacity="1"
     objecttolerance="10"
     gridtolerance="10"
     guidetolerance="10"
     inkscape:pageopacity="0"
     inkscape:pageshadow="2"
     inkscape:window-width="1366"
     inkscape:window-height="715"
     id="namedview4"
     showgrid="false"
     fit-margin-left="2.7755576e-017"
     scale-x="1.9"
     fit-margin-top="0"
     fit-margin-right="0"
     fit-margin-bottom="0"
     inkscape:zoom="0.81802549"
     inkscape:cx="378.07669"
     inkscape:cy="-135.10915"
     inkscape:window-x="-8"
     inkscape:window-y="-8"
     inkscape:window-maximized="1"
     inkscape:current-layer="svg2" />
  <path
     style="fill:#6e6e6e"
     d="M 32.25,202.06288 C 11.897065,201.89636 0,201.43523 0,200.81288 c 0,-0.58246 4.093651,-0.98615 10,-0.98615 h 10 v -4.5 c 0,-3.88889 -0.282051,-4.5 -2.076923,-4.5 -1.142308,0 -3.392308,-1.31538 -5,-2.92308 C 10.580958,185.56153 10,184.10891 10,180.59478 c 0,-2.41218 0.611274,-5.22176 1.358387,-6.2435 0.862315,-1.17928 1.183143,-3.41247 0.878517,-6.1151 -0.405735,-3.59967 -0.0819,-4.65536 2.096159,-6.83342 2.733129,-2.73313 8.107012,-3.48124 11.595528,-1.61425 2.457477,1.3152 4.434295,6.45623 3.663471,9.52744 -0.37529,1.49527 -0.01304,3.7298 0.88672,5.46975 3.198226,6.18469 0.280859,14.5391 -5.479357,15.69114 C 22.215325,191.03367 22,191.39081 22,195.45173 v 4.375 H 30.5 39 V 102.34578 4.8648316 L 41.25,4.3510021 C 42.4875,4.0683959 48.43699,2.9738088 54.47109,1.9185863 L 65.442179,0 86.22109,12.626571 107,25.253141 v 16.354181 c 0,15.103193 0.13386,16.315137 1.75,15.843754 0.9625,-0.280735 4,-0.822393 6.75,-1.203685 2.75,-0.381292 6.00293,-1.067146 7.22873,-1.524121 1.74308,-0.649817 3.4863,-0.0024 8,2.97091 3.1742,2.090975 10.15877,6.40664 15.52127,9.590368 l 9.75,5.788595 v 63.376797 63.37679 h 9 9 v -4.5 c 0,-3.88889 -0.28205,-4.5 -2.07692,-4.5 -1.14231,0 -3.39231,-1.31538 -5,-2.92308 C 164.58096,185.56153 164,184.10891 164,180.59478 c 0,-2.41218 0.61127,-5.22176 1.35839,-6.2435 0.86231,-1.17928 1.18314,-3.41247 0.87851,-6.1151 -0.40573,-3.59967 -0.0819,-4.65536 2.09616,-6.83342 2.73313,-2.73313 8.10702,-3.48124 11.59553,-1.61425 2.45748,1.3152 4.4343,6.45623 3.66347,9.52744 -0.37529,1.49527 -0.013,3.7298 0.88672,5.46975 3.19823,6.18469 0.28086,14.5391 -5.47935,15.69114 C 176.21532,191.03367 176,191.39081 176,195.45173 v 4.375 h 7 c 4,0 7,0.42857 7,1 0,0.64514 -11.44416,1.01464 -32.25,1.04125 -17.7375,0.0227 -45.975,0.13518 -62.75,0.25 -16.775,0.11481 -45.0125,0.09 -62.75,-0.0551 z M 64,101.32673 V 2.8267275 l -2.25,0.050825 c -1.2375,0.027953 -6.525,0.8154534 -11.75,1.75 l -9.5,1.699175 -0.254974,96.7500025 -0.254973,96.75 H 51.995026 64 Z m 40.99369,11.75 -0.006,-86.750002 -18.14805,-11 C 76.857919,9.2767275 68.085757,4.1812316 67.34565,4.0034033 66.225066,3.7341566 66,20.083301 66,101.75341 v 98.07332 H 85.5 105 l -0.006,-86.75 z M 73,190.32673 v -4.5 H 85.5 98 v 4.5 4.5 H 85.5 73 Z m 23,0 v -2.5 H 85.5 75 v 2.5 2.5 H 85.5 96 Z M 79.75,178.08518 73,177.73535 v -4.45431 c 0,-5.15151 -0.714093,-4.98006 15.84637,-3.80457 L 98,170.12622 v 4.35025 4.35026 l -5.75,-0.19586 c -3.1625,-0.10772 -8.7875,-0.35328 -12.5,-0.54569 z M 96,174.46602 c 0,-2.1011 -0.57735,-2.43006 -5.25,-2.99131 -2.8875,-0.34683 -7.6125,-0.63451 -10.5,-0.63929 -4.902749,-0.008 -5.25,0.15286 -5.25,2.43381 0,2.6843 1.421071,3.01021 14.75,3.38279 5.951,0.16635 6.25,0.0618 6.25,-2.186 z M 81.25,161.5394 73,160.55117 v -4.36222 c 0,-5.11915 -0.678127,-4.97259 14.75,-3.18787 L 98,154.18679 v 4.31997 4.31997 l -4.25,-0.14954 c -2.3375,-0.0822 -7.9625,-0.59426 -12.5,-1.13779 z M 96,158.45454 c 0,-2.60508 -0.9519,-2.88731 -14.25,-4.225 l -6.75,-0.679 v 2.56614 c 0,2.38214 0.412283,2.61263 5.75,3.21461 3.1625,0.35666 6.2,0.80352 6.75,0.99301 0.55,0.18949 2.6875,0.38006 4.75,0.42348 3.30164,0.0695 3.75,-0.20467 3.75,-2.29324 z m -11,-12.97878 -11.5,-2.14903 -0.306145,-4.78314 c -0.291194,-4.54956 -0.193525,-4.75591 2,-4.22545 C 76.462235,134.62487 82,135.67236 87.5,136.6459 l 10,1.77008 0.30479,4.70537 c 0.16764,2.58796 -0.0574,4.65994 -0.5,4.60441 -0.44263,-0.0555 -5.97979,-1.06803 -12.30479,-2.25 z m 11,-3.02197 c 0,-2.19741 -0.65787,-2.49331 -8.89333,-4 C 75.421677,136.31599 75,136.34278 75,139.22288 c 0,2.19489 0.650955,2.52034 7.75,3.87475 11.7896,2.24931 13.25,2.17835 13.25,-0.64384 z m -11.5,-13.59578 -11,-2.75147 -0.306145,-4.67305 c -0.347593,-5.30572 -1.64012,-5.08373 11.306145,-1.9418 14.63691,3.55222 13.5,2.88914 13.5,7.87358 0,2.96044 -0.42055,4.42491 -1.25,4.35283 -0.6875,-0.0597 -6.2,-1.34678 -12.25,-2.86009 z M 96,126.9947 c 0,-2.75619 -0.25274,-2.89009 -9.43794,-5 C 74.915101,119.3193 75,119.31835 75,122.1244 c 0,2.07849 0.977804,2.54551 10.25,4.8956 5.6375,1.42886 10.3625,2.6449 10.5,2.70233 0.1375,0.0574 0.25,-1.17001 0.25,-2.72763 z m -1.5,-11.68644 c -0.55,-0.19832 -5.6125,-1.75711 -11.25,-3.464 L 73,108.74084 v -4.45705 c 0,-2.45138 0.287621,-4.457062 0.639158,-4.457062 0.351537,0 5.189037,1.379772 10.75,3.066162 5.560962,1.68639 10.898342,3.29171 11.860842,3.56739 1.32808,0.38038 1.75,1.56991 1.75,4.93384 0,4.26254 -0.61777,4.9534 -3.5,3.91414 z m 0.83467,-6.49076 c -0.90599,-0.84508 -17.422706,-5.99077 -19.229284,-5.99077 -0.607962,0 -1.105386,1.03798 -1.105386,2.30662 0,2.06412 1.077565,2.62127 10.25,5.29969 9.80374,2.86278 10.26457,2.90971 10.58467,1.07805 0.18406,-1.05326 -0.0409,-2.26538 -0.5,-2.69359 z M 85.25,96.107854 73,91.550206 v -4.361739 c 0,-2.398956 0.3375,-4.368543 0.75,-4.376859 0.4125,-0.0083 6.0375,1.883851 12.5,4.204816 L 98,91.236358 v 4.795185 c 0,2.637352 -0.1125,4.758907 -0.25,4.714577 -0.1375,-0.0443 -5.7625,-2.131559 -12.5,-4.638266 z M 95.82699,94.223645 C 95.6144,93.156677 91.91389,91.266805 85.25,88.821917 L 75,85.061338 l 0.0057,2.632695 c 0.0052,2.437162 0.766529,2.89967 10.25,6.227294 10.0788,3.536516 11.22223,3.569216 10.57132,0.302318 z M 84.75,79.505505 73,74.383207 v -4.733683 -4.733681 l 7.25,3.081902 C 99.41,76.142473 98,75.167468 98,80.271698 c 0,2.505267 -0.3375,4.510272 -0.75,4.455568 -0.4125,-0.0547 -6.0375,-2.404495 -12.5,-5.221761 z m 11.07699,-1.246666 c -0.1971,-0.968007 -4.42244,-3.331793 -10.636805,-5.950555 l -10.309814,-4.344603 0.309814,2.65934 c 0.272608,2.339966 1.510766,3.167025 10.309815,6.886703 9.66539,4.08591 11.0265,4.184645 10.32699,0.749115 z M 84.762567,62.985088 73.025133,57.326728 73.012567,52.629869 73,47.933009 l 12.25,5.767287 12.25,5.767287 0.30479,4.679573 c 0.16764,2.573764 -0.0574,4.638334 -0.5,4.587932 -0.44263,-0.0504 -6.08664,-2.637902 -12.542223,-5.75 z M 96,63.554707 C 96,61.667824 94.22011,60.397489 85.5,56.060686 75.052378,50.864735 75,50.851078 75,53.322977 c 0,2.136804 1.363767,3.17787 9.75,7.44291 5.3625,2.72724 10.0875,4.98162 10.5,5.009729 0.4125,0.02811 0.75,-0.971298 0.75,-2.220909 z M 85,46.54095 73.5,40.313142 73.19072,35.460031 72.88144,30.60692 85.19072,37.139814 97.5,43.672708 l 0.30479,4.57701 c 0.16764,2.517355 -0.0574,4.563967 -0.5,4.548025 C 96.86216,52.781801 91.325,49.966244 85,46.54095 Z m 10.99898,1.035778 c -7.6e-4,-1.680788 -1.32892,-2.979656 -5.25,-5.134207 -2.88694,-1.586315 -7.64649,-4.226872 -10.576779,-5.867903 l -5.3278,-2.983696 0.3278,2.716619 c 0.274612,2.275833 1.869232,3.583005 9.827799,8.056221 5.225,2.936782 9.8375,5.367359 10.25,5.401283 0.4125,0.03392 0.74954,-0.950817 0.74898,-2.188317 z M 85.5,30.4242 73.5,23.063865 73.191002,18.342297 c -0.169949,-2.596862 0.09517,-4.562718 0.589158,-4.368568 0.493986,0.194149 6.145535,3.491957 12.559,7.328462 L 98,28.277655 v 4.774536 c 0,2.625995 -0.1125,4.765043 -0.25,4.753441 C 97.6125,37.794032 92.1,34.472385 85.5,30.4242 Z m 10.48774,1.152528 c -0.009,-1.730359 -1.68384,-3.229229 -7.25,-6.489974 C 84.756981,22.754768 80.0375,19.898077 78.25,18.738552 L 75,16.630325 v 2.530867 c 0,2.125193 1.562829,3.491016 9.75,8.520941 5.3625,3.294541 10.0875,6.024841 10.5,6.067335 0.4125,0.04249 0.74448,-0.93524 0.73774,-2.17274 z M 124,128.32673 c 0,-39.325002 -0.36735,-71.500002 -0.81634,-71.500002 -1.22324,0 -12.42409,2.035616 -14.43366,2.62314 -1.64511,0.480968 -1.75,4.703335 -1.75,70.444252 v 69.93261 h 8.5 8.5 z m 29.99739,8.75 -0.003,-62.750002 -13.12626,-8 c -7.21907,-4.4 -13.51789,-8.15 -13.99701,-8.333333 C 126.38134,57.805979 126,88.776929 126,128.7434 v 71.08333 h 14 14 l -0.003,-62.75 z M 130,193.32673 v -3.5 h 9.5 9.5 v 3.5 3.5 h -9.5 -9.5 z m 17,0 c 0,-1.2 -1.5,-1.5 -7.5,-1.5 -6,0 -7.5,0.3 -7.5,1.5 0,1.2 1.5,1.5 7.5,1.5 6,0 7.5,-0.3 7.5,-1.5 z m -4,-11.17226 c -2.475,-0.17757 -6.4125,-0.57652 -8.75,-0.88657 -4.05819,-0.53827 -4.25,-0.7175 -4.25,-3.97114 v -3.40743 l 8.25,0.55278 c 4.5375,0.30403 8.8125,0.72582 9.5,0.93731 1.31151,0.40346 1.80467,7.57652 0.5,7.2726 -0.4125,-0.0961 -2.775,-0.31999 -5.25,-0.49755 z m 4,-3.32774 c 0,-1.64249 -0.67034,-2.00197 -3.75,-2.01101 -2.0625,-0.006 -5.48327,-0.29735 -7.6017,-0.64734 -3.41175,-0.56366 -3.8105,-0.41962 -3.49103,1.261 0.29568,1.55544 1.53039,2.0014 6.8517,2.47475 3.57007,0.31757 6.82853,0.65507 7.24103,0.75 0.4125,0.0949 0.75,-0.7274 0.75,-1.8274 z M 136.75,166.57401 130,165.59285 v -3.38306 c 0,-3.95497 0.77793,-4.09927 12.05737,-2.23651 L 149,161.11983 v 3.35345 c 0,3.82627 -0.17386,3.85608 -12.25,2.10073 z M 147,164.39412 c 0,-1.69505 -1.55629,-2.22052 -9.25,-3.1232 -4.8226,-0.56583 -5.75,-0.424 -5.75,0.87931 0,1.09736 1.39569,1.74198 4.75,2.19388 2.6125,0.35196 5.2,0.79401 5.75,0.98233 2.40475,0.82338 4.5,0.38929 4.5,-0.93232 z m -8.75,-12.74909 -8.25,-1.96841 v -3.42494 c 0,-3.95549 -0.23607,-3.90446 8.68795,-1.87832 C 149.3341,146.7905 149,146.59543 149,150.39412 c 0,3.95448 0.39071,3.90902 -10.75,1.25091 z m 8.75,-1.68819 c 0,-1.49106 -1.23613,-2.11309 -6.10127,-3.07025 -3.3557,-0.6602 -6.77634,-1.4594 -7.60143,-1.77602 -1.06436,-0.40843 -1.39515,-0.0305 -1.13872,1.30107 0.27239,1.4144 2.08339,2.28507 7.35142,3.53431 3.8445,0.91167 7.1025,1.7078 7.24,1.76918 0.1375,0.0614 0.25,-0.72985 0.25,-1.75829 z m -7.5,-12.99706 -9,-2.73227 -0.31831,-3.83359 c -0.23522,-2.83293 0.0258,-3.71409 1,-3.37576 0.72507,0.25181 5.02856,1.54925 9.56331,2.8832 l 8.245,2.42537 0.005,3.75 c 0.003,2.0625 -0.1075,3.7197 -0.245,3.68266 -0.1375,-0.037 -4.3,-1.29686 -9.25,-2.79961 z m 7.5,-1.5907 c 0,-0.93663 -2.45127,-2.18768 -6.85781,-3.5 C 132.01776,129.44952 132,129.44801 132,131.17774 c 0,0.79548 2.77556,2.20768 6.75,3.43438 8.27375,2.55367 8.25,2.5515 8.25,0.75696 z m -8.75,-13.84323 c -8.00992,-3.06266 -8.25,-3.24968 -8.25,-6.42679 0,-1.87797 0.51118,-3.27233 1.19966,-3.27233 0.65982,0 4.93482,1.40974 9.5,3.13275 8.13687,3.07105 8.30034,3.19907 8.30034,6.5 0,4.0912 -0.2201,4.09256 -10.75,0.0664 z m 8.75,-0.45472 c 0,-1.27973 -2.05165,-2.4935 -7.56907,-4.47788 -6.37675,-2.29346 -7.5188,-2.46797 -7.25,-1.10783 0.26057,1.31846 4.42118,3.38783 14.56907,7.24626 0.1375,0.0523 0.25,-0.69497 0.25,-1.66055 z m -8.25,-14.44735 C 130.29605,102.683 130,102.43134 130,99.185857 c 0,-1.84752 0.38707,-3.359129 0.86015,-3.359129 0.47309,0 4.74809,1.796229 9.5,3.99162 8.45288,3.905242 8.63985,4.067542 8.63985,7.500002 0,1.92961 -0.3375,3.48044 -0.75,3.4463 -0.4125,-0.0342 -4.6875,-1.89754 -9.5,-4.14087 z m 8.25,-0.14901 c 0,-0.74358 -3.07339,-2.76858 -6.82976,-4.5 C 132.45038,98.416449 132,98.315463 132,100.14278 c 0,0.72383 3.0375,2.70574 6.75,4.40424 7.91858,3.62282 8.25,3.70027 8.25,1.92775 z m -7.5,-14.513037 c -8.66935,-4.659056 -9.01163,-4.974699 -9.31666,-8.591433 -0.17416,-2.065072 0.0678,-3.594679 0.53775,-3.399125 0.46992,0.195554 4.77289,2.380553 9.56214,4.855553 8.59291,4.440664 8.70778,4.549446 8.71225,8.25 0.002,2.0625 -0.10798,3.743646 -0.24548,3.735879 -0.1375,-0.0078 -4.3,-2.190658 -9.25,-4.850874 z m 7.22239,-0.416065 C 145.87979,89.349896 132,82.414304 132,84.189039 c 0,1.317516 13.9614,9.799882 14.87354,9.036546 0.20544,-0.171931 0.13743,-0.927893 -0.15115,-1.679917 z M 139.25,77.001471 c -9.09906,-5.569035 -9.25,-5.7246 -9.25,-9.533092 0,-3.777237 0.0549,-3.83637 2.25,-2.424347 1.2375,0.796028 5.5125,3.374066 9.5,5.728976 7.02169,4.14682 7.25,4.404025 7.25,8.167686 0,2.137319 -0.1125,3.849171 -0.25,3.804115 -0.1375,-0.04506 -4.4125,-2.629558 -9.5,-5.743338 z m 7.75,0.533033 c 0,-0.710722 -3.01088,-3.073222 -6.69085,-5.25 -8.30207,-4.910842 -8.31246,-4.914963 -8.29397,-3.291109 0.008,0.733333 3.27086,3.237671 7.25,5.565195 C 147.59465,79.430748 147,79.201958 147,77.534504 Z M 21.073324,186.82673 c 0.509672,0 0.926676,0.68656 0.926676,1.52568 0,1.36525 0.312341,1.36416 2.970356,-0.0103 5.234096,-2.70666 6.73297,-9.19024 3.148069,-13.61741 -1.465999,-1.81043 -1.658834,-2.81251 -0.873084,-4.53704 2.445613,-5.36754 -3.211917,-11.46468 -8.70143,-9.37757 -3.494981,1.32878 -5.240855,5.33193 -3.888242,8.91541 0.844893,2.23838 0.692843,3.18761 -0.807369,5.04029 -3.518604,4.3453 -1.576619,12.09931 3.508699,14.00963 1.505515,0.56555 2.239181,0.39546 2.466325,-0.57181 0.177828,-0.75725 0.740328,-1.37683 1.25,-1.37683 z m 153.999996,0 c 0.50968,0 0.92668,0.68656 0.92668,1.52568 0,1.36525 0.31234,1.36416 2.97036,-0.0103 5.23409,-2.70666 6.73297,-9.19024 3.14807,-13.61741 -1.466,-1.81043 -1.65884,-2.81251 -0.87309,-4.53704 2.44561,-5.36754 -3.21192,-11.46468 -8.70143,-9.37757 -3.49498,1.32878 -5.24085,5.33193 -3.88824,8.91541 0.84489,2.23838 0.69284,3.18761 -0.80737,5.04029 -3.5186,4.3453 -1.57662,12.09931 3.5087,14.00963 1.50551,0.56555 2.23918,0.39546 2.46632,-0.57181 0.17783,-0.75725 0.74033,-1.37683 1.25,-1.37683 z"
     id="path12"
     inkscape:connector-curvature="0" />
  <path
     style="opacity:1;fill:#63a94f;fill-opacity:0.94117647;stroke-width:1"
     d="m 33.692595,201.85594 c -21.901242,-0.17879 -25.9024325,-0.278 -31.61453,-0.78386 -1.66413235,-0.14738 -1.8776459,-0.2287 -1.37526278,-0.52379 0.39956868,-0.2347 3.67838978,-0.38472 9.99234278,-0.45721 l 9.397629,-0.10789 v -3.87545 c 0,-4.4534 -0.243253,-5.08847 -2.071678,-5.40867 -2.239498,-0.39218 -5.822865,-3.15839 -6.973295,-5.38307 -1.3101833,-2.53361 -1.0953935,-7.87271 0.43325,-10.76943 0.773496,-1.46575 0.818959,-1.78674 0.825685,-5.82975 0.0082,-4.91303 0.181,-5.43719 2.451836,-7.43606 2.351468,-2.06984 5.829829,-2.86556 9.036043,-2.0671 1.625442,0.40479 2.16533,0.71686 3.227036,1.86533 1.879564,2.03316 2.557935,4.33612 2.474889,8.40186 -0.06212,3.04153 -0.01118,3.33651 0.976525,5.65386 0.928125,2.17757 1.041899,2.74567 1.040502,5.19544 -0.0032,5.57461 -2.360958,8.83898 -7.441112,10.30228 -1.906412,0.54913 -2.136065,1.15676 -2.141492,5.66605 l -0.0045,3.74377 h 8.556717 8.556717 l 0.07688,-97.55358 0.07688,-97.553573 1.222456,-0.261297 c 0.67235,-0.1437134 3.750302,-0.7343554 6.839894,-1.3125379 5.499559,-1.0291818 5.786409,-1.0512409 13.669907,-1.0512409 h 8.052472 l 18.877975,11.4694418 18.877979,11.469441 0.15281,15.500989 c 0.16649,16.889871 0.18633,17.076519 1.78446,16.793756 0.44729,-0.07914 3.01367,-0.50841 5.70308,-0.953931 2.6894,-0.445521 5.92093,-1.091134 7.18117,-1.434693 1.30341,-0.355328 2.6912,-0.549646 3.21871,-0.450686 1.10039,0.206433 3.56744,1.619045 11.02751,6.314229 3.04451,1.916141 8.78207,5.40926 12.75013,7.762487 l 7.21466,4.278596 0.009,63.491299 0.009,63.4913 h 9.16842 9.16841 l -0.004,-3.74377 c -0.006,-4.60671 -0.21839,-5.13365 -2.28029,-5.64517 -2.74554,-0.68112 -5.95421,-3.40021 -7.01095,-5.94121 -1.11845,-2.68941 -0.80537,-7.44452 0.67083,-10.18862 0.77844,-1.44702 0.8226,-1.75501 0.8326,-5.80666 0.0121,-4.91176 0.18522,-5.43538 2.45812,-7.43606 1.72113,-1.515 3.92178,-2.29452 6.55665,-2.32249 5.56347,-0.0591 8.3131,3.57612 8.19035,10.8282 -0.0515,3.04434 -0.002,3.32652 0.97608,5.50105 0.92953,2.06771 1.02916,2.56138 1.01769,5.04263 -0.0248,5.35353 -2.4639,8.93948 -6.86623,10.09448 -2.52475,0.6624 -2.70667,1.04226 -2.70667,5.65179 v 3.91242 l 6.34149,0.12011 c 6.48696,0.12286 8.74264,0.44878 6.34149,0.91628 -3.45595,0.67287 -106.565869,1.22566 -154.946274,0.83071 z m 30.408588,-100.527 V 2.6156352 l -0.993246,6.112e-4 C 61.117358,2.6174719 40.797098,5.934018 40.44335,6.3154184 40.381937,6.3816336 40.230591,49.997258 40.107028,103.23903 l -0.22466,96.80322 h 12.109406 12.109409 z m 40.876397,11.73581 -0.0769,-86.977507 -13.90543,-8.389541 C 72.660778,6.6360224 67.492281,3.6865014 67.111092,4.0676881 66.268065,4.9107163 66.174792,13.711372 66.035728,105.53113 l -0.143137,94.51112 h 19.580961 19.580958 z m 18.90334,17.22111 c -0.0958,-38.366009 -0.25823,-70.6296 -0.36105,-71.696868 l -0.18694,-1.940486 -1.42299,0.199923 c -5.38121,0.756043 -13.0922,2.389999 -13.58657,2.87899 -0.37127,0.367241 -0.65747,1.381446 -0.87991,3.118079 -0.22325,1.743023 -0.37288,24.30085 -0.46358,69.885282 l -0.13392,67.31147 h 8.60453 8.60453 z m 30.3007,6.89765 0.0771,-62.705936 -0.84117,-0.596305 C 152.4918,73.225 132.82424,61.262014 129.24967,59.180918 c -1.23164,-0.717056 -2.33185,-1.21154 -2.44491,-1.098851 -0.48908,0.487467 -0.64001,14.162487 -0.84079,76.179863 l -0.21298,65.78648 14.17673,-0.0795 14.17673,-0.0795 z M 19.939967,188.1233 c 0.424437,-0.67235 0.902665,-1.22245 1.06273,-1.22245 0.394636,0 0.923761,1.03881 0.923761,1.81359 0,0.86038 0.873614,0.81839 2.749404,-0.13215 3.284436,-1.66435 5.158216,-4.29991 5.425639,-7.63144 0.184699,-2.30097 -0.206303,-3.66146 -1.759384,-6.12175 -1.52676,-2.4186 -1.651658,-2.93771 -1.042429,-4.33257 0.742586,-1.70018 0.688887,-4.54184 -0.115309,-6.10187 -1.710324,-3.31782 -5.681202,-4.93491 -8.858701,-3.60759 -3.257354,1.36067 -4.933783,4.98458 -3.919656,8.47305 0.733796,2.52417 0.637471,3.59463 -0.459763,5.10932 -1.487904,2.05399 -1.892477,3.28942 -1.90272,5.81027 -0.01572,3.86929 1.773154,6.98769 4.840289,8.43768 0.840438,0.39732 1.698252,0.72374 1.906253,0.72538 0.208001,0.002 0.72545,-0.54712 1.149886,-1.21947 z m 154.029433,0 c 0.42443,-0.67235 0.90266,-1.22245 1.06273,-1.22245 0.39463,0 0.92376,1.03881 0.92376,1.81359 0,0.86038 0.87361,0.81839 2.7494,-0.13215 2.16023,-1.09467 3.52991,-2.40693 4.42782,-4.24218 1.48076,-3.02656 1.30287,-6.57919 -0.45063,-8.99984 -1.91158,-2.63885 -1.97092,-2.90931 -1.21349,-5.53059 0.65881,-2.27999 0.6634,-2.39642 0.16215,-4.12063 -1.2154,-4.18084 -5.79179,-6.49018 -9.51248,-4.80019 -1.79138,0.81367 -3.3937,2.82296 -3.8394,4.81457 -0.31094,1.38939 -0.28928,1.92681 0.1398,3.47013 0.76982,2.7689 0.6684,3.58315 -0.6966,5.59257 -2.5012,3.68201 -2.29108,8.5553 0.50996,11.82769 1.00794,1.17754 3.61732,2.7413 4.58709,2.74895 0.208,0.002 0.72545,-0.54712 1.14989,-1.21947 z"
     id="path14"
     inkscape:connector-curvature="0" />
  <path
     style="opacity:1;fill:#63a94f;fill-opacity:0.94117647;stroke-width:1"
     d="m 94.405181,162.61615 c -3.268846,-0.11436 -19.150848,-1.72742 -20.907839,-2.12351 -0.475626,-0.10722 -0.486117,-0.17432 -0.481074,-3.07689 0.0057,-3.25482 0.207224,-4.54115 0.776867,-4.95769 1.012266,-0.74018 3.27134,-0.61728 16.07391,0.87447 l 7.887712,0.91908 0.05859,4.25839 0.05859,4.25838 -0.81495,-0.044 c -0.448223,-0.0242 -1.641539,-0.0729 -2.651814,-0.10825 z m 1.231388,-2.28253 c 0.285669,-0.28614 0.382211,-0.73744 0.385279,-1.80108 0.0037,-1.28702 -0.05199,-1.46756 -0.597787,-1.93746 -1.166188,-1.00404 -3.234479,-1.37448 -13.745812,-2.46193 -3.493563,-0.36143 -6.435247,-0.65714 -6.537076,-0.65714 -0.10183,0 -0.185145,0.9022 -0.185145,2.00488 0,1.45923 0.09096,2.13475 0.33423,2.48206 0.444669,0.63486 1.964945,1.04421 5.392465,1.45198 2.343053,0.27875 6.193804,0.85143 8.536017,1.26948 0.29714,0.053 1.776942,0.0817 3.28845,0.0637 2.310937,-0.0275 2.808844,-0.0934 3.129379,-0.4145 z"
     id="path16"
     inkscape:connector-curvature="0" />
  <path
     style="opacity:1;fill:#63a94f;fill-opacity:0.94117647;stroke-width:1"
     d="m 147.9984,182.50943 c -0.17828,-0.0371 -2.65805,-0.26772 -5.51059,-0.51259 -2.85254,-0.24486 -6.30477,-0.58973 -7.67161,-0.76637 -4.58701,-0.59279 -4.61823,-0.62213 -4.72192,-4.43793 -0.0622,-2.2885 -0.0213,-2.78687 0.22865,-2.78687 2.0079,0 16.17021,1.18177 17.17026,1.43277 0.7584,0.19034 1.20172,1.60539 1.31141,4.18588 0.10025,2.35829 -0.0887,3.03428 -0.8062,2.88511 z m -1.06122,-2.64817 c 0.36062,-1.20365 0.10143,-2.32507 -0.62326,-2.69655 -0.35854,-0.1838 -1.71267,-0.35563 -3.50196,-0.4444 -1.60455,-0.0796 -4.4954,-0.33859 -6.42409,-0.57552 -3.94335,-0.48443 -4.38099,-0.41564 -4.38099,0.68854 0,1.47053 0.95286,2.28811 3.14634,2.69961 0.93724,0.17582 9.7434,1.10787 10.83757,1.14705 0.62661,0.0224 0.71808,-0.0567 0.94639,-0.81873 z"
     id="path18"
     inkscape:connector-curvature="0" />
  <path
     style="opacity:1;fill:#63a94f;fill-opacity:0.94117647;stroke-width:1"
     d="m 91.487808,178.51907 c -2.377119,-0.0964 -7.336653,-0.32538 -11.021187,-0.50876 -3.684533,-0.18337 -6.879138,-0.33284 -7.09912,-0.33216 -0.376998,0.001 -0.394689,-0.20662 -0.308055,-3.61845 0.05055,-1.99084 0.169387,-3.79348 0.264079,-4.00588 0.09469,-0.21239 0.476431,-0.55018 0.848309,-0.75064 0.975656,-0.52591 4.535525,-0.45992 14.992881,0.27796 l 8.698093,0.61374 v 4.28251 4.28252 l -1.026483,-0.0327 c -0.564566,-0.018 -2.971398,-0.11165 -5.348517,-0.20809 z m 3.413892,-1.93438 c 0.916096,-0.2544 1.234336,-0.7999 1.229109,-2.10686 -0.0074,-1.84849 -0.927113,-2.47322 -4.335772,-2.9451 -5.045269,-0.69845 -13.919624,-1.00679 -15.593881,-0.54182 -0.444311,0.12339 -0.906229,0.40819 -1.026483,0.63289 -0.289877,0.54164 -0.279627,2.51244 0.01594,3.06471 0.583844,1.09092 3.189414,1.61563 9.381942,1.88934 5.847048,0.25844 9.414607,0.2608 10.329146,0.007 z"
     id="path20"
     inkscape:connector-curvature="0" />
  <path
     style="opacity:1;fill:#63a94f;fill-opacity:0.94117647;stroke-width:1"
     d="m 73.011113,190.32135 v -4.43009 H 85.43696 97.862808 v 4.43009 4.43008 H 85.43696 73.011113 Z m 23.01483,0 v -2.59322 H 85.545011 75.064079 l -0.06174,2.36323 c -0.03396,1.29978 -0.01234,2.49197 0.04804,2.64932 0.08941,0.23301 2.045752,0.27569 10.542676,0.22999 l 10.432891,-0.0561 z"
     id="path22"
     inkscape:connector-curvature="0" />
  <path
     style="opacity:1;fill:#63a94f;fill-opacity:0.94117647;stroke-width:1"
     d="m 130.06196,193.34677 v -3.34957 h 9.40042 9.40043 v 3.34957 3.34958 h -9.40043 -9.40042 z m 15.82691,1.19146 c 1.48908,-0.43854 1.59674,-1.71325 0.19782,-2.34232 -0.66896,-0.30082 -1.66428,-0.35458 -6.51625,-0.35201 -6.63426,0.004 -7.40724,0.13994 -7.52224,1.32749 -0.0892,0.92094 0.57008,1.34099 2.48534,1.58356 1.94395,0.2462 10.32672,0.0862 11.35533,-0.21672 z"
     id="path24"
     inkscape:connector-curvature="0" />
  <path
     style="opacity:1;fill:#63a94f;fill-opacity:0.94117647;stroke-width:1"
     d="m 141.74435,167.19331 c -1.12204,-0.15258 -4.20959,-0.59486 -6.86123,-0.98284 l -4.82116,-0.70544 0.001,-2.1787 c 6.6e-4,-1.19829 0.0959,-2.51907 0.21168,-2.93507 0.53151,-1.90993 2.07613,-1.9137 13.61762,-0.0333 l 4.86229,0.79221 0.0607,2.6491 c 0.0589,2.57173 0.045,2.66479 -0.47641,3.18621 -0.49969,0.49969 -0.67704,0.5353 -2.54587,0.51116 -1.10482,-0.0143 -2.92679,-0.15079 -4.04883,-0.30336 z m 4.98632,-2.0298 c 0.51817,-0.63992 0.50976,-1.12102 -0.0316,-1.80927 -0.76349,-0.97063 -3.50261,-1.59699 -9.83184,-2.24827 -3.02311,-0.31109 -3.54113,-0.31692 -4.10593,-0.0462 -0.5328,0.25536 -0.64635,0.44064 -0.64635,1.05462 0,0.60087 0.13727,0.83735 0.71023,1.22346 0.81103,0.54656 1.6976,0.76027 5.71472,1.37758 1.57708,0.24235 3.35365,0.58045 3.94793,0.75134 0.59428,0.17088 1.70129,0.28463 2.46002,0.25277 1.13904,-0.0478 1.44981,-0.14476 1.78284,-0.55602 z"
     id="path26"
     inkscape:connector-curvature="0" />
  <path
     style="opacity:1;fill:#63a94f;fill-opacity:0.94117647;stroke-width:1"
     d="m 145.29713,153.15352 c -1.35962,-0.2548 -12.39151,-2.83248 -14.44129,-3.37431 l -0.82689,-0.21858 0.0705,-2.92248 c 0.0845,-3.50246 0.17536,-3.64819 2.1517,-3.45183 2.60003,0.25832 13.78846,2.92199 15.11406,3.59827 1.32751,0.67724 1.49757,1.08672 1.49757,3.60603 0,3.1834 -0.25744,3.38287 -3.56568,2.7629 z m 1.70066,-1.89255 c 0.24847,-0.92716 0.13404,-1.83536 -0.30092,-2.38832 -0.59984,-0.76257 -2.08714,-1.27373 -6.37992,-2.19267 -2.01514,-0.43137 -4.60827,-1.03172 -5.76252,-1.3341 -1.15425,-0.30237 -2.19964,-0.48735 -2.32309,-0.41105 -0.33041,0.2042 -0.27306,1.33732 0.10466,2.06774 0.35473,0.68598 1.60534,1.40651 3.56071,2.05148 1.31272,0.433 10.05706,2.63126 10.6178,2.66924 0.19545,0.0132 0.41113,-0.19309 0.48328,-0.46232 z"
     id="path28"
     inkscape:connector-curvature="0" />
  <path
     style="opacity:1;fill:#63a94f;fill-opacity:0.94117647;stroke-width:1"
     d="m 96.566198,147.51472 c -0.178284,-0.042 -5.378355,-1.00873 -11.555713,-2.14823 -6.177358,-1.1395 -11.276774,-2.11703 -11.332035,-2.17229 -0.282541,-0.28255 -0.568075,-7.96311 -0.320064,-8.60941 0.176479,-0.4599 0.406805,-0.44286 4.229121,0.31286 1.821225,0.36007 7.006657,1.31428 11.523182,2.12045 l 8.211865,1.46577 0.152913,1.28315 c 0.21573,1.81027 0.272334,6.80638 0.0837,7.38802 -0.152319,0.46966 -0.299794,0.52308 -0.992972,0.35968 z m -1.734448,-2.9651 c 0.960793,-0.33011 1.343619,-1.06053 1.235737,-2.35775 -0.100924,-1.21353 -0.400862,-1.62506 -1.554255,-2.1325 -1.571656,-0.69146 -13.145907,-2.8765 -16.639831,-3.14135 -1.563355,-0.1185 -1.78569,-0.0858 -2.323093,0.34145 -0.53369,0.42431 -0.59428,0.6092 -0.59428,1.81338 0,1.68167 0.310618,2.14407 1.819518,2.70862 1.293013,0.48378 5.855301,1.44082 10.822431,2.27025 4.980128,0.8316 6.048489,0.90513 7.233773,0.4979 z"
     id="path30"
     inkscape:connector-curvature="0" />
  <path
     style="opacity:1;fill:#63a94f;fill-opacity:0.94117647;stroke-width:1"
     d="m 93.324672,130.89714 c -4.943019,-1.14201 -19.462504,-4.80736 -19.604078,-4.94894 -0.242588,-0.24258 -0.677157,-7.53755 -0.479923,-8.05631 0.36161,-0.95111 0.839097,-0.87229 13.24223,2.18572 8.459729,2.08576 10.466778,2.7552 11.083843,3.69696 0.505464,0.77143 0.353346,6.45476 -0.195146,7.291 -0.210738,0.32129 -0.502475,0.57772 -0.648305,0.56984 -0.14583,-0.008 -1.67521,-0.34011 -3.398621,-0.73827 z m 2.674259,-1.86763 c 0.407166,-2.03583 -0.03482,-4.23988 -0.948267,-4.72874 -1.9328,-1.0344 -16.00055,-4.32052 -18.495988,-4.32052 -1.387826,0 -1.598648,0.27016 -1.598648,2.04858 0,1.93792 0.728602,2.44635 5.402543,3.76999 4.080225,1.15551 14.551693,3.85776 15.04608,3.88277 0.349061,0.0177 0.491614,-0.13876 0.59428,-0.65208 z"
     id="path32"
     inkscape:connector-curvature="0" />
  <path
     style="opacity:1;fill:#63a94f;fill-opacity:0.94117647;stroke-width:1"
     d="m 139.57044,136.89041 c -4.93253,-1.49054 -8.99048,-2.72634 -9.01768,-2.74622 -0.0272,-0.0199 -0.11512,-1.55904 -0.19538,-3.42033 -0.13083,-3.03428 -0.1089,-3.39837 0.21211,-3.52155 0.19692,-0.0756 3.15359,0.6955 6.57038,1.71348 3.41679,1.01798 7.45223,2.21218 8.96764,2.65377 l 2.7553,0.80289 v 3.51572 c 0,1.93365 -0.0729,3.55995 -0.16208,3.61401 -0.0891,0.0541 -4.19777,-1.12124 -9.13029,-2.61177 z m 7.46045,-0.71813 c 0.54156,-1.70629 -1.561,-2.86016 -9.26536,-5.08477 -2.46501,-0.71176 -4.42132,-1.16182 -4.88196,-1.12312 -0.71413,0.06 -0.7733,0.12043 -0.83434,0.85194 -0.0736,0.88162 0.23434,1.18386 2.22671,2.18572 2.23683,1.12478 10.23874,3.59007 11.70896,3.60738 0.72977,0.009 0.93124,-0.0756 1.04599,-0.43715 z"
     id="path34"
     inkscape:connector-curvature="0" />
  <path
     style="opacity:1;fill:#63a94f;fill-opacity:0.94117647;stroke-width:1"
     d="m 146.05349,124.19349 c -2.27417,-0.56936 -11.7959,-4.23193 -13.87666,-5.33771 -1.77012,-0.9407 -2.00682,-1.3827 -2.00682,-3.74737 0,-2.10579 0.37737,-3.12392 1.15785,-3.12392 1.04698,0 11.81029,3.83789 14.83368,5.28927 2.38044,1.14273 2.57985,1.44793 2.66188,4.07399 0.0946,3.02762 -0.32436,3.45802 -2.76993,2.84574 z m 0.9443,-1.89015 c 0.61184,-2.28307 -0.86209,-3.37241 -8.08087,-5.9723 -3.74407,-1.34846 -5.95362,-1.91781 -6.55181,-1.68826 -1.02876,0.39477 -0.005,1.74727 2.29635,3.03416 1.7631,0.98585 11.25444,5.02489 11.9611,5.09005 0.13471,0.0124 0.30356,-0.19622 0.37523,-0.46365 z"
     id="path36"
     inkscape:connector-curvature="0" />
  <path
     style="opacity:1;fill:#63a94f;fill-opacity:0.94117647;stroke-width:1"
     d="m 92.844463,114.6977 c -1.630959,-0.51589 -6.774907,-2.09106 -11.430997,-3.50039 l -8.465616,-2.5624 0.131237,-3.79953 c 0.07218,-2.08973 0.226901,-4.05113 0.343823,-4.35866 l 0.212586,-0.559152 1.254546,0.318552 c 4.124826,1.04734 21.817415,6.48708 22.13634,6.80601 0.59139,0.59139 0.834016,1.84058 0.834016,4.29405 0,3.3029 -0.401562,4.34684 -1.658172,4.31077 -0.215812,-0.006 -1.726806,-0.43336 -3.357763,-0.94925 z m 2.737024,-2.3291 c 0.477427,-0.68162 0.45137,-2.7917 -0.04177,-3.38259 -0.207998,-0.24923 -1.413887,-0.83934 -2.679754,-1.31137 -2.922197,-1.08966 -11.211064,-3.64816 -14.403473,-4.44589 l -2.442337,-0.6103 -0.460639,0.46064 c -0.337672,0.33767 -0.48576,0.80793 -0.554741,1.76158 -0.08997,1.24379 -0.06213,1.33271 0.633909,2.02441 0.900772,0.89516 2.847153,1.65168 8.785205,3.41463 8.916249,2.64714 10.557484,2.95425 11.163602,2.08889 z"
     id="path38"
     inkscape:connector-curvature="0" />
  <path
     style="opacity:1;fill:#63a94f;fill-opacity:0.94117647;stroke-width:1"
     d="m 85.220859,96.005381 -12.101695,-4.502589 -0.06377,-1.914874 c -0.07596,-2.280979 0.272865,-6.100241 0.585734,-6.41311 0.152201,-0.152202 0.64576,-0.104443 1.566688,0.151599 1.250983,0.347804 10.251089,3.495684 18.931459,6.621475 l 3.731975,1.343879 -0.05825,4.547778 c -0.03582,2.797056 -0.141436,4.571001 -0.274348,4.608111 -0.118856,0.0332 -5.661864,-1.965844 -12.317796,-4.442269 z m 10.59093,0.122985 c 0.243002,-0.370869 0.295677,-0.765458 0.190217,-1.42496 -0.121503,-0.759844 -0.31201,-1.033875 -1.141462,-1.641919 -1.500515,-1.09998 -5.471463,-2.811618 -12.665109,-5.459176 -3.565678,-1.312315 -6.662783,-2.455113 -6.882456,-2.539551 -0.375078,-0.144171 -0.394822,-0.02103 -0.324152,2.021838 0.06792,1.963465 0.127434,2.230856 0.610968,2.745115 0.735369,0.782099 2.540366,1.606804 7.29694,3.333983 7.321217,2.658437 9.931734,3.440709 11.55749,3.463345 0.845314,0.01177 1.079465,-0.07424 1.357564,-0.498675 z"
     id="path40"
     inkscape:connector-curvature="0" />
  <path
     style="opacity:1;fill:#63a94f;fill-opacity:0.94117647;stroke-width:1"
     d="m 145.18908,109.41847 c -7.51403,-3.25904 -12.69623,-5.83596 -13.87248,-6.89828 -1.05638,-0.95406 -1.33849,-1.88282 -1.19736,-3.941942 0.12186,-1.777868 0.41041,-2.58529 0.92393,-2.58529 0.47936,0 7.479,3.03812 11.74272,5.096812 5.68303,2.74399 6.07555,3.14075 6.0749,6.14048 -3.8e-4,1.78208 -0.29285,3.45973 -0.60242,3.45559 -0.0836,-0.001 -1.46474,-0.57143 -3.06929,-1.26737 z m 1.86457,-2.32972 c 0.18297,-0.72903 -0.0402,-1.07816 -1.30439,-2.04083 -1.45317,-1.10654 -4.07106,-2.51491 -7.69154,-4.13786 -5.19318,-2.327959 -6.05084,-2.491337 -6.05084,-1.152632 0,0.814472 0.56729,1.414532 2.48517,2.628672 2.68361,1.69892 10.68352,5.2652 11.82745,5.27255 0.45993,0.003 0.62193,-0.12279 0.73415,-0.5699 z"
     id="path42"
     inkscape:connector-curvature="0" />
  <path
     style="opacity:1;fill:#63a94f;fill-opacity:0.94117647;stroke-width:1"
     d="m 144.19989,94.347521 c -10.52162,-5.555277 -12.65241,-6.89722 -13.37731,-8.42484 -0.42224,-0.889787 -0.71618,-4.34347 -0.45742,-5.374438 l 0.14391,-0.573386 6.96183,3.543987 c 9.13519,4.650357 10.28222,5.364136 11.08619,6.898763 0.33895,0.646976 0.44824,5.893959 0.12691,6.092553 -0.0983,0.06078 -2.11619,-0.912408 -4.48411,-2.162639 z m 2.82378,-1.16021 c 0.27508,-0.44508 -0.18152,-1.775041 -0.83387,-2.428893 -2.10724,-2.112077 -10.56125,-6.482389 -13.15644,-6.801242 -1.33533,-0.164062 -1.36322,0.216953 -0.10104,1.380393 1.82284,1.680232 9.13353,6.202736 12.04066,7.448533 1.53711,0.658699 1.85332,0.720565 2.05069,0.401209 z"
     id="path44"
     inkscape:connector-curvature="0" />
  <path
     style="opacity:1;fill:#63a94f;fill-opacity:0.94117647;stroke-width:1"
     d="m 94.837384,83.691202 c -1.129131,-0.460576 -5.359322,-2.26735 -9.400424,-4.015053 -4.041101,-1.747703 -8.490095,-3.668887 -9.886652,-4.269298 l -2.539195,-1.091656 v -4.612391 c 0,-2.536814 0.04092,-4.61239 0.09094,-4.61239 0.311548,0 20.208659,8.62144 21.569016,9.345878 0.9188,0.489294 1.988503,1.217674 2.377119,1.618623 l 0.70657,0.728996 v 3.283548 c 0,3.402644 -0.143796,4.475991 -0.598396,4.46663 -0.146306,-0.003 -1.189846,-0.382312 -2.318978,-0.842887 z m 0.864407,-3.257566 c 0.488165,-0.488165 0.525468,-0.844077 0.208203,-1.986394 C 95.633345,77.451163 94.21668,76.473385 90.191198,74.500146 87.29214,73.079065 74.964141,67.81959 74.834984,67.948748 c -0.129508,0.129508 0.346442,3.282397 0.588104,3.89584 0.518089,1.315135 2.613767,2.563428 8.651073,5.153021 5.869658,2.517683 9.483289,3.818151 10.709198,3.854008 0.267426,0.0078 0.68072,-0.18027 0.918432,-0.417981 z"
     id="path46"
     inkscape:connector-curvature="0" />
  <path
     style="opacity:1;fill:#63a94f;fill-opacity:0.94117647;stroke-width:1"
     d=""
     id="path48"
     inkscape:connector-curvature="0" />
  <path
     style="opacity:1;fill:#63a94f;fill-opacity:0.94117647;stroke-width:1"
     d="m 142.27171,78.723287 c -10.62112,-6.471371 -11.56231,-7.190951 -12.00749,-9.180217 -0.29188,-1.30425 -0.19966,-4.758038 0.136,-5.093552 0.16283,-0.162762 2.50271,1.133518 7.99509,4.429236 4.27069,2.562639 8.19238,5.02167 8.71486,5.464517 1.57109,1.331632 1.75264,1.865685 1.75264,5.155806 0,1.569682 -0.0729,2.896413 -0.16208,2.948294 -0.0891,0.05188 -2.9822,-1.623957 -6.42902,-3.724084 z m 4.819,-0.791002 c 0.0539,-0.550403 -0.10872,-0.822506 -0.97246,-1.626935 -1.52187,-1.417359 -3.49388,-2.766223 -7.40428,-5.064569 -4.33354,-2.547045 -6.01813,-3.402889 -6.40546,-3.254255 -0.1659,0.06366 -0.30163,0.390289 -0.30163,0.725841 0,1.115712 2.14462,2.847832 7.57166,6.115301 4.33771,2.611615 6.7198,3.889292 7.12325,3.820685 0.18727,-0.03184 0.3515,-0.334232 0.38892,-0.716068 z"
     id="path50"
     inkscape:connector-curvature="0" />
  <path
     style="opacity:1;fill:#63a94f;fill-opacity:0.94117647;stroke-width:1"
     d="M 93.414611,66.947735 C 87.739082,64.351543 73.573459,57.513931 73.276728,57.227369 73.068239,57.026025 73.016189,55.894111 73.060627,52.527895 l 0.05854,-4.434249 12.081776,5.687153 c 6.644977,3.127933 12.109078,5.714454 12.142446,5.747822 0.03337,0.03337 0.150973,1.517226 0.261345,3.297461 0.229843,3.707277 0.100521,5.583151 -0.390228,5.660494 -0.178284,0.0281 -1.888234,-0.664381 -3.799892,-1.538842 z m 2.491919,-2.019396 c 0.304433,-1.096209 0.284816,-1.69483 -0.07825,-2.38785 -0.799259,-1.525623 -2.739352,-2.751252 -10.524684,-6.648838 -6.799447,-3.40402 -8.725774,-4.239627 -9.580737,-4.155959 l -0.65878,0.06447 v 1.448364 c 0,1.397395 0.03042,1.479676 0.864407,2.338137 0.475424,0.489374 1.642373,1.354974 2.59322,1.923555 4.113117,2.459532 15.808678,8.228503 16.681821,8.228503 0.368218,0 0.529618,-0.186051 0.703003,-0.810382 z"
     id="path52"
     inkscape:connector-curvature="0" />
  <path
     style="opacity:1;fill:#63a94f;fill-opacity:0.94117647;stroke-width:1"
     d="M 88.76644,32.282737 C 72.309792,22.252018 73.673164,23.135662 73.537679,22.412509 c -0.239967,-1.280822 -0.211182,-7.855375 0.03548,-8.104145 0.271855,-0.274176 2.347016,0.89514 14.781172,8.328923 4.338242,2.593626 8.251582,4.916407 8.696311,5.161736 l 0.808598,0.446053 0.0017,4.579407 c 0.0011,2.518674 -0.0758,4.627359 -0.170632,4.685966 -0.09483,0.05861 -4.110608,-2.293863 -8.923953,-5.227713 z m 7.14009,0.662551 c 0.303753,-1.093762 0.287173,-1.408762 -0.128872,-2.448565 -0.541776,-1.354031 -2.406947,-2.739624 -8.990822,-6.679079 -3.238406,-1.937696 -7.163324,-4.335542 -8.72204,-5.328546 -1.558716,-0.993005 -2.895845,-1.805462 -2.971398,-1.805462 -0.07555,0 -0.13737,0.738958 -0.13737,1.642128 0,2.755532 0.590734,3.484575 5.392785,6.655404 5.368008,3.544535 14.27664,8.774501 14.946331,8.774501 0.262349,0 0.458557,-0.260066 0.611386,-0.810381 z"
     id="path54"
     inkscape:connector-curvature="0" />
  <path
     style="opacity:1;fill:#63a94f;fill-opacity:0.94117647;stroke-width:1"
     d="M 94.250487,51.282741 C 91.757241,50.050792 73.989823,40.577959 73.676406,40.313514 c -0.116325,-0.09815 -0.696459,-8.714665 -0.616867,-9.162105 0.04418,-0.248373 3.194121,1.329715 12.16132,6.0927 l 12.101695,6.427893 0.157099,1.146706 c 0.252835,1.845481 0.27816,7.15708 0.03616,7.583403 -0.200108,0.352523 -0.482136,0.255841 -3.265324,-1.119371 z M 95.90653,48.936814 C 96.498361,46.805733 95.767384,45.488294 93.006271,43.70968 91.245296,42.575321 74.915564,33.507998 74.814905,33.608657 c -0.166937,0.166936 0.406571,3.505426 0.699493,4.071874 0.934314,1.806765 4.411616,4.082669 14.784851,9.676727 2.436546,1.313975 4.644317,2.389248 4.906156,2.389491 0.366198,3.47e-4 0.52801,-0.186584 0.701125,-0.809935 z"
     id="path56"
     inkscape:connector-curvature="0" />
  <path
     style="opacity:1;fill:#63a94f;fill-opacity:0.94117647;stroke-width:1"
     d="m 53.129757,2.3017872 c 0.178284,-0.058078 2.998411,-0.577944 6.266949,-1.1552575 l 5.942797,-1.0496611 0.972457,0.5488176 c 0.534852,0.3018497 1.311081,0.7761391 1.724953,1.0539765 l 0.752495,0.5051588 -6.155037,0.0013 c -3.385271,7.11e-4 -6.981627,0.046288 -7.991902,0.1012797 -1.010276,0.054992 -1.690996,0.052467 -1.512712,-0.00561 z"
     id="path58"
     inkscape:connector-curvature="0" />
  <path
     style="opacity:1;fill:#63a94f;fill-opacity:0.94117647;stroke-width:1"
     d="m 106.96613,47.397746 c -0.0122,-0.237352 -0.0247,-1.39904 -0.10649,-9.927678 -0.0307,-3.198918 -0.0603,-6.114905 -0.0658,-6.47997 l -0.01,-0.663756 h 0.10435 0.10434 l 4e-5,8.084444 c 2e-5,4.446444 0.006,8.335859 0.0126,8.643145 0.009,0.38953 0.006,0.5587 -0.008,0.5587 -0.0125,0 -0.0246,-0.08288 -0.0313,-0.214885 z"
     id="path60"
     inkscape:connector-curvature="0" />
  <path
     style="opacity:1;fill:#63a94f;fill-opacity:0.94117647;stroke-width:1"
     d="m 97.535005,37.687667 c -0.653553,-0.362104 -3.124652,-1.840728 -6.333771,-3.789921 l -0.476099,-0.289179 v -0.06417 c 0,-0.03529 0.0029,-0.06417 0.0065,-0.06417 0.0036,0 0.348472,0.205932 0.766485,0.457626 3.636796,2.189791 6.138148,3.630855 6.198156,3.570847 0.03469,-0.03469 0.07892,-0.512572 0.105943,-1.144866 0.03035,-0.710011 0.04249,-1.287046 0.05441,-2.586467 0.0068,-0.746564 0.01267,-1.380181 0.01293,-1.408038 l 4.79e-4,-0.05065 h 0.06276 0.06276 l -0.0082,1.279727 c -0.01066,1.666855 -0.04209,2.647735 -0.111555,3.481264 -0.03438,0.412543 -0.08823,0.722715 -0.125435,0.722552 -0.0048,-2.7e-5 -0.10167,-0.05157 -0.215345,-0.114552 z"
     id="path62"
     inkscape:connector-curvature="0" />
  <path
     style="opacity:1;fill:#63a94f;fill-opacity:0.94117647;stroke-width:1"
     d="m 145.52558,66.969161 c -0.28971,-0.176001 -1.05552,-0.639584 -1.7018,-1.030186 -3.10684,-1.877729 -5.803,-3.536159 -8.73861,-5.375194 -6.57798,-4.120813 -8.69791,-5.347448 -9.99471,-5.783167 -0.26826,-0.09013 -0.27348,-0.09075 -0.75635,-0.08857 -0.72648,0.0033 -1.41967,0.118454 -2.81804,0.468266 -1.47826,0.369798 -3.4076,0.766889 -5.772,1.187982 -1.51169,0.269226 -7.41031,1.244597 -7.5259,1.24445 -0.48634,-6.17e-4 -0.71746,-0.36083 -0.88525,-1.379728 -0.0623,-0.378456 -0.14026,-1.108009 -0.1347,-1.26086 0.005,-0.127402 0.0106,-0.08819 0.0647,0.425696 0.1146,1.088516 0.31062,1.744359 0.59662,1.996102 0.22948,0.202001 0.41052,0.209705 1.06226,0.04521 1.24422,-0.314042 3.44371,-0.704854 6.32253,-1.123405 1.38654,-0.201589 2.03013,-0.306325 3.05689,-0.497465 1.87719,-0.349457 3.31673,-0.692971 4.36366,-1.041293 0.62476,-0.207862 0.8975,-0.25288 1.42611,-0.235397 0.59567,0.0197 1.03968,0.123269 1.78284,0.415859 1.12005,0.440973 2.40559,1.175465 4.8758,2.785778 3.41157,2.223979 9.20961,5.814476 14.35725,8.890885 0.57943,0.346283 1.06505,0.640119 1.07916,0.65297 0.015,0.01365 -0.007,0.0231 -0.054,0.02272 -0.0534,-4.32e-4 -0.25364,-0.10632 -0.60644,-0.320646 z"
     id="path64"
     inkscape:connector-curvature="0" />
  <path
     style="opacity:1;fill:#63a94f;fill-opacity:0.94117647;stroke-width:1"
     d="m 123.55453,64.271783 c -0.0693,-3.641971 -0.2071,-6.814946 -0.31861,-7.334877 l -0.0282,-0.131492 -0.20667,0.01796 c -1.31776,0.11453 -6.41087,0.985155 -10.44072,1.784756 -0.48821,0.09687 -0.90758,0.172078 -0.93194,0.167128 -0.11659,-0.0237 3.55472,-0.782778 5.52034,-1.141385 1.7935,-0.32721 3.84914,-0.656476 5.62512,-0.901019 l 0.54673,-0.07528 0.0137,0.08273 c 0.008,0.0455 0.0513,0.47171 0.0974,0.947133 0.0632,0.652904 0.0892,1.095739 0.10616,1.809852 0.0282,1.186678 0.0668,5.740201 0.0486,5.740201 -0.007,0 -0.0218,-0.434567 -0.0319,-0.965704 z"
     id="path66"
     inkscape:connector-curvature="0" />
  <path
     style="opacity:1;fill:#63a94f;fill-opacity:0.94117647;stroke-width:1"
     d="m 148.45305,176.84337 c -0.0132,-0.0537 -0.0559,-0.19671 -0.0838,-0.28055 -0.1063,-0.32041 -0.23462,-0.5822 -0.37435,-0.76375 -0.15912,-0.20676 -0.33646,-0.32774 -0.54311,-0.37052 -0.40811,-0.0845 -2.02927,-0.2576 -4.6052,-0.49175 -0.95358,-0.0867 -2.85426,-0.25302 -2.89105,-0.25302 -0.006,0 -0.007,-0.009 -0.007,-0.0597 0,-0.0394 0.002,-0.0597 0.005,-0.0597 0.0101,0 1.00513,0.0769 1.26984,0.0981 3.34192,0.268 5.95111,0.55359 6.49934,0.71138 0.10062,0.029 0.18021,0.0777 0.26479,0.16227 0.21641,0.21631 0.42065,0.64475 0.58505,1.22724 0.0133,0.0473 0.0254,0.0897 0.0267,0.0943 0.002,0.008 -0.003,0.008 -0.0689,0.008 h -0.0714 z"
     id="path68"
     inkscape:connector-curvature="0" />
  <path
     style="opacity:1;fill:#63a94f;fill-opacity:0.94117647;stroke-width:1"
     d="m 148.61756,182.23973 c 0.0982,-0.18792 0.15414,-0.44217 0.19193,-0.87147 0.006,-0.063 0.0125,-0.32936 0.0154,-0.59184 0.0153,-1.37235 -0.10676,-2.81542 -0.31227,-3.69267 -0.0214,-0.0913 -0.0414,-0.17782 -0.0445,-0.19226 l -0.006,-0.0263 h 0.0677 0.0677 l 0.011,0.0406 c 0.1859,0.68351 0.31941,1.59254 0.38329,2.60966 0.0162,0.25864 0.0161,1.20757 -1.6e-4,1.42302 -0.0454,0.59951 -0.11464,0.98157 -0.23341,1.28692 l -0.0399,0.10266 h -0.0736 -0.0737 z"
     id="path70"
     inkscape:connector-curvature="0" />
  <path
     style="opacity:1;fill:#63a94f;fill-opacity:0.94117647;stroke-width:1"
     d="m 146.44776,180.63287 c 0.26721,-0.13725 0.46531,-0.63968 0.53845,-1.36571 0.0188,-0.18618 0.0159,-0.73771 -0.005,-0.90252 -0.0638,-0.51135 -0.21598,-0.81648 -0.52214,-1.0471 -0.10071,-0.0759 -0.3101,-0.18212 -0.46804,-0.23752 -0.0656,-0.023 -0.1134,-0.0421 -0.10609,-0.0424 0.0269,-0.001 0.28505,0.0696 0.35441,0.097 0.12372,0.0489 0.28301,0.1577 0.38362,0.26213 0.13783,0.14307 0.27549,0.38159 0.34915,0.60498 0.17813,0.54021 0.1643,1.17263 -0.0409,1.86828 -0.10856,0.36812 -0.19532,0.56579 -0.29147,0.66404 -0.0562,0.0574 -0.1433,0.10679 -0.20944,0.11872 -0.0306,0.006 -0.0291,0.004 0.0171,-0.0199 z"
     id="path72"
     inkscape:connector-curvature="0" />
  <path
     style="opacity:1;fill:#63a94f;fill-opacity:0.94117647;stroke-width:1"
     d="m 143.80102,176.81927 c -1.75619,-0.0222 -2.96067,-0.0819 -4.59216,-0.22762 -1.4242,-0.12717 -2.46425,-0.2547 -3.74126,-0.45874 -0.63565,-0.10156 -1.13955,-0.17478 -1.36059,-0.1977 -0.14648,-0.0152 -0.20149,-0.0279 -0.1855,-0.043 0.0216,-0.0204 1.04302,0.0843 2.34971,0.24072 2.25828,0.27038 4.63101,0.48339 6.62487,0.59473 0.57544,0.0321 1.31328,0.0828 1.35739,0.0931 0.0111,0.003 -0.0284,0.004 -0.0878,0.003 -0.0594,-8.3e-4 -0.22353,-0.003 -0.36467,-0.005 z"
     id="path74"
     inkscape:connector-curvature="0" />
</svg>
