<svg xmlns="http://www.w3.org/2000/svg" viewBox="0 0 126.63 100.9"><defs><style>.cls-1{fill:none;stroke:#639e45;stroke-miterlimit:10;}</style></defs><title>Ресурс 52</title><g id="Слой_2" data-name="Слой 2"><g id="Content"><polyline class="cls-1" points="93.23 68.68 63.49 38.93 33.74 68.68"/><path class="cls-1" d="M40.12,69.43V89.3a11.1,11.1,0,0,0,11.1,11.1h5.14V78.2H70.61v22.2h5.15a11.1,11.1,0,0,0,11.1-11.1V69.18"/><polyline class="cls-1" points="59.85 30.45 30.1 0.71 0.35 30.45"/><line class="cls-1" x1="53.47" y1="24.08" x2="53.47" y2="4.95"/><path class="cls-1" d="M6.73,30.35V50.22a11.1,11.1,0,0,0,11.1,11.1H23V39.12H37.23v18.5"/><polyline class="cls-1" points="66.78 30.45 96.53 0.71 126.27 30.45"/><line class="cls-1" x1="119.9" y1="24.08" x2="119.9" y2="4.95"/><path class="cls-1" d="M119.9,30.35V50.22a11.1,11.1,0,0,1-11.1,11.1h-5.15V39.12H89.4v18.5"/></g></g></svg>