<?xml version="1.0" encoding="UTF-8" standalone="no"?>
<!-- Created with Inkscape (http://www.inkscape.org/) -->

<svg
   xmlns:dc="http://purl.org/dc/elements/1.1/"
   xmlns:cc="http://creativecommons.org/ns#"
   xmlns:rdf="http://www.w3.org/1999/02/22-rdf-syntax-ns#"
   xmlns:svg="http://www.w3.org/2000/svg"
   xmlns="http://www.w3.org/2000/svg"
   xmlns:sodipodi="http://sodipodi.sourceforge.net/DTD/sodipodi-0.dtd"
   xmlns:inkscape="http://www.inkscape.org/namespaces/inkscape"
   version="1.1"
   id="svg2"
   width="100"
   height="80.970505"
   viewBox="0 0 250 202.42627"
   sodipodi:docname="doc-fond-5.svg"
   inkscape:version="0.92.2 (5c3e80d, 2017-08-06)">
  <metadata
     id="metadata8">
    <rdf:RDF>
      <cc:Work
         rdf:about="">
        <dc:format>image/svg+xml</dc:format>
        <dc:type
           rdf:resource="http://purl.org/dc/dcmitype/StillImage" />
        <dc:title></dc:title>
      </cc:Work>
    </rdf:RDF>
  </metadata>
  <defs
     id="defs6" />
  <sodipodi:namedview
     pagecolor="#ffffff"
     bordercolor="#666666"
     borderopacity="1"
     objecttolerance="10"
     gridtolerance="10"
     guidetolerance="10"
     inkscape:pageopacity="0"
     inkscape:pageshadow="2"
     inkscape:window-width="1366"
     inkscape:window-height="715"
     id="namedview4"
     showgrid="false"
     scale-x="2.5"
     fit-margin-top="0"
     fit-margin-left="0"
     fit-margin-right="0"
     fit-margin-bottom="0"
     inkscape:zoom="2.8284271"
     inkscape:cx="79.496473"
     inkscape:cy="22.714083"
     inkscape:window-x="-8"
     inkscape:window-y="-8"
     inkscape:window-maximized="1"
     inkscape:current-layer="svg2" />
  <path
     style="fill:#6e6e6e"
     d="m 0,201.42627 c 0,-0.66133 42.333333,-1 125,-1 82.66667,0 125,0.33867 125,1 0,0.66133 -42.33333,1 -125,1 -82.666667,0 -125,-0.33867 -125,-1 z m 31,-7.21636 c 0,-0.431 9.675,-0.78364 21.5,-0.78364 11.909951,0 21.5,0.39735 21.5,0.89082 0,0.49679 -9.509835,0.84341 -21.5,0.78363 C 40.675,195.04177 31,194.6409 31,194.20991 Z m 134,-0.93274 c 0,-0.468 10.575,-0.8509 23.5,-0.8509 13.43729,0 23.5,0.38936 23.5,0.9093 0,0.52159 -10.01989,0.8844 -23.5,0.8509 -12.925,-0.0321 -23.5,-0.44131 -23.5,-0.9093 z m -78,-1.8509 c 0,-0.64646 11.66667,-1 33,-1 21.33333,0 33,0.35354 33,1 0,0.64646 -11.66667,1 -33,1 -21.33333,0 -33,-0.35354 -33,-1 z m -56,-4.174 c 0,-0.89648 15.348426,-1.40502 30.75,-1.01885 20.77414,0.52089 13.516148,1.952 -9.25,1.8239 C 40.675,187.99078 31,187.62851 31,187.25227 Z m 134,-1.97965 c 0,-0.46549 10.575,-0.84635 23.5,-0.84635 13.13785,0 23.5,0.3941 23.5,0.89377 0,0.50101 -10.32679,0.87293 -23.5,0.84635 -12.925,-0.0261 -23.5,-0.42827 -23.5,-0.89377 z m -45.5,-2.84635 c -24.200589,-0.36668 -31.449219,-0.7329 -27.184184,-1.37345 6.599584,-0.99115 59.238434,-0.40563 60.314974,0.67091 0.3864,0.3864 0.51504,0.81504 0.28588,0.95254 -0.22917,0.1375 -15.26667,0.025 -33.41667,-0.25 z M 31,180.30362 c 0,-0.96484 16.183614,-1.52867 30.345236,-1.05721 20.576103,0.68501 14.436851,1.94192 -8.845236,1.81091 -11.825,-0.0665 -21.5,-0.40571 -21.5,-0.7537 z m 134.83413,-3.11148 c 1.22054,-1.22054 42.65524,-1.15101 44.84646,0.0752 1.10102,0.61617 -6.60121,0.93043 -22.04032,0.89928 -14.56951,-0.0294 -23.37501,-0.40566 -22.80614,-0.97453 z M 31,173.32823 c 0,-1.02695 17.884535,-1.74184 29.500893,-1.17922 19.175878,0.92875 14.627476,2.03564 -7.845187,1.90918 C 40.745068,173.99117 31,173.66269 31,173.32823 Z m 56.000801,-1.05127 c -4.41e-4,-0.35712 5.632735,-0.97423 12.518169,-1.37137 13.20112,-0.76141 53.48103,0.28392 53.48103,1.38792 0,0.35597 -14.84964,0.64397 -32.9992,0.63999 -18.14956,-0.004 -32.999559,-0.29942 -32.999999,-0.65654 z M 165,170.2858 c 0,-2.01269 27.45573,-2.94111 40.84123,-1.38104 10.65582,1.24192 5.40571,2.24946 -7.20112,1.38195 -6.52294,-0.44886 -16.76044,-0.47885 -22.75,-0.0666 C 169.90055,170.63228 165,170.66186 165,170.2858 Z M 63,167.27285 c -5.225,-0.47763 -14.675,-0.59675 -21,-0.26471 -9.019529,0.4735 -11.246803,0.34128 -10.326122,-0.61296 C 34.040615,163.94217 74,164.98354 74,167.49823 c 0,0.51042 -0.3375,0.86391 -0.75,0.78554 -0.4125,-0.0784 -5.025,-0.53329 -10.25,-1.01092 z m 75.5,-4.12049 c -7.7,-0.45258 -22.53203,-0.57158 -32.96006,-0.26443 -11.874758,0.34976 -18.601283,0.20623 -17.999996,-0.3841 2.390259,-2.34666 62.813456,-2.0575 65.182896,0.31195 1.13099,1.13098 -0.17973,1.162 -14.22284,0.33658 z m 26.5,-0.61205 c 0,-1.21341 11.11297,-2.50857 21.5,-2.50572 11.37061,0.003 25.5,1.40118 25.5,2.52315 0,0.58759 -2.96622,0.65426 -7.75,0.17419 -9.65912,-0.96932 -27.0459,-0.95758 -34,0.023 -3.18468,0.44905 -5.25,0.36463 -5.25,-0.21458 z M 30.541931,160.49412 C 29.659376,159.06611 38.293675,157.95851 50,157.99805 c 12.701687,0.0429 24,1.2397 24,2.54226 0,0.58083 -2.056413,0.65989 -5.25,0.20182 -6.723695,-0.9644 -31.415959,-0.99015 -34.938715,-0.0364 -1.478793,0.40036 -2.950002,0.30515 -3.269354,-0.21157 z M 165,154.48682 c 0,-0.5833 0.7875,-1.06397 1.75,-1.06814 0.9625,-0.004 5.575,-0.46128 10.25,-1.0158 9.19301,-1.0904 35,0.58895 35,2.27758 0,0.52283 -3.85217,0.55235 -9.25,0.0709 -11.68913,-1.04263 -21.26323,-1.04719 -30.5,-0.0145 -4.95214,0.55365 -7.25,0.47442 -7.25,-0.25 z M 30.514356,153.4495 C 29.761271,152.23098 39.839653,150.92617 50,150.92677 c 11.086058,6.5e-4 24,1.41393 24,2.62652 0,0.59434 -2.933772,0.65668 -7.75,0.16468 -9.583391,-0.97899 -23.043166,-1.02036 -29.972141,-0.0921 -2.872177,0.38477 -5.465754,0.30541 -5.763503,-0.17636 z M 87,153.46824 c 0,-2.35997 29.28653,-3.29014 53.25,-1.69128 7.0125,0.46788 12.75,1.26805 12.75,1.77814 0,0.56179 -4.82958,0.62066 -12.25,0.1493 -15.30592,-0.97225 -38.10838,-1.00415 -47,-0.0658 -3.773782,0.39828 -6.75,0.32314 -6.75,-0.1704 z m -56.406817,-6.8912 c -0.30539,-0.49413 3.727648,-1.46528 8.962307,-2.15811 7.669691,-1.01513 11.937392,-1.01298 21.981036,0.0111 C 68.391436,145.12892 74,146.12739 74,146.64884 c 0,0.58773 -2.945595,0.63058 -7.75,0.11275 -9.710527,-1.04663 -23.155741,-1.07391 -29.925781,-0.0607 -2.924308,0.43764 -5.417318,0.38378 -5.731036,-0.12383 z M 165.5,146.64676 c 0.55,-0.53972 5.38651,-1.51753 10.74779,-2.17292 7.58574,-0.92731 12.35443,-0.92212 21.5,0.0234 14.40678,1.48946 18.83452,3.37818 5.25221,2.24041 -12.29507,-1.02993 -21.67903,-1.01797 -31,0.0395 -4.90663,0.55667 -7.15422,0.51158 -6.5,-0.1304 z m -29,-2.97496 c -15.06927,-1.27358 -30.66373,-1.14168 -43.75,0.37004 -3.645921,0.42117 -5.75,0.29433 -5.75,-0.34663 0,-0.57636 6.124993,-1.53902 14.25,-2.23966 11.72846,-1.01136 17.47769,-0.97687 32.49065,0.19495 16.0641,1.25386 20.68211,1.9943 19.17602,3.07465 C 152.6875,144.88954 145.3,144.41553 136.5,143.6718 Z M 30.587129,139.56725 c -0.291998,-0.47246 3.580206,-1.44829 8.604898,-2.1685 7.464108,-1.06987 11.34735,-1.07668 21.221888,-0.0372 6.647347,0.69975 12.513585,1.67557 13.036085,2.1685 1.297849,1.22439 -2.945756,1.0885 -14.795219,-0.47378 -8.027737,-1.05841 -11.166032,-1.06148 -17,-0.0166 -8.693227,1.55695 -10.381734,1.63745 -11.067652,0.52761 z M 165,139.30443 c 0,-1.05201 2.25088,-1.57649 12.54365,-2.92284 7.5355,-0.98568 11.10464,-0.91619 21.4025,0.4167 11.62793,1.50505 13.97152,2.05386 12.97052,3.03736 -0.22917,0.22517 -6.13225,-0.29655 -13.11795,-1.15936 -11.32176,-1.39837 -13.847,-1.40908 -23.25,-0.0986 C 169.74692,139.38624 165,139.71328 165,139.30443 Z m -78,-4.70236 c 0,-1.28751 2.513307,-1.80429 15.62198,-3.21216 9.37542,-1.00692 14.16504,-0.92596 30.5,0.51555 10.65791,0.94053 19.56552,1.89248 19.79469,2.11543 1.33732,1.30109 -2.51606,1.25219 -19.4934,-0.24739 -16.0914,-1.42133 -20.6761,-1.48572 -30.90861,-0.43408 -6.608064,0.67914 -12.80216,1.45684 -13.76466,1.72821 -0.9625,0.27138 -1.75,0.0619 -1.75,-0.46556 z m -26,-2.17138 c -10.24284,-1.57016 -12.374546,-1.61225 -19.5,-0.38501 -9.002477,1.55051 -12.181899,1.73133 -11.087992,0.63059 0.409938,-0.4125 4.850976,-1.48756 9.868973,-2.38902 8.093583,-1.45398 10.145108,-1.482 18.171326,-0.24821 C 73.284347,132.31901 74,132.47701 74,133.47158 c 0,0.52508 -0.3375,0.90233 -0.75,0.83833 -0.4125,-0.064 -5.925,-0.90965 -12.25,-1.87922 z m 104,-0.7876 c 0,-1.1979 1.79526,-1.64274 13.26488,-3.28686 7.64739,-1.09623 10.35666,-1.02579 21.25,0.55246 6.86681,0.99487 12.48512,2.25084 12.48512,2.79103 0,0.5728 -1.56298,0.73711 -3.75,0.39422 -19.90697,-3.12111 -27.99678,-3.11954 -41,0.008 -1.2375,0.29764 -2.25,0.0912 -2.25,-0.45883 z M 30.440501,126.33 c -0.557203,-0.90157 0.10905,-1.10185 11.236054,-3.37756 6.616141,-1.35315 8.13482,-1.31143 19.447874,0.53424 6.749224,1.1011 12.482274,2.21296 12.740111,2.4708 1.382664,1.38266 -1.677903,1.25373 -12.621931,-0.53174 -11.90533,-1.94229 -12.271814,-1.94426 -21.197298,-0.11356 -4.995382,1.0246 -9.317547,1.48262 -9.60481,1.01782 z M 87,124.69666 c 0,-0.54188 5.814619,-1.7837 12.92138,-2.75959 12.37671,-1.69957 13.71504,-1.69944 31.75,0.003 10.35574,0.97765 19.50362,2.14827 20.32862,2.60137 2.34182,1.28616 -3.63305,1.0723 -21.47592,-0.7687 C 114.552,122.12495 109.08991,122.30846 90.75,125.10921 88.566638,125.44264 87,125.27029 87,124.69666 Z m 78,-1.16774 c 0,-0.87106 8.59522,-2.6693 18.23423,-3.81485 4.97835,-0.59166 26.58057,2.35202 28.21577,3.84489 1.39139,1.27028 -2.5213,1.00929 -14.49421,-0.96679 -10.01464,-1.65288 -11.01911,-1.65306 -20,-0.004 C 165.78071,124.64117 165,124.70258 165,123.52892 Z M 30.52514,119.46695 c -0.353746,-0.57238 -0.483047,-1.04068 -0.287337,-1.04068 0.19571,0 4.525652,-0.91008 9.622092,-2.02239 l 9.266256,-2.02239 12.436925,2.17328 C 68.403384,117.75007 74,119.11014 74,119.57716 c 0,1.10977 0.521143,1.15604 -13.040601,-1.15782 -10.997816,-1.87641 -12.240669,-1.90725 -19.111092,-0.47425 -4.041569,0.84298 -8.097936,1.7644 -9.01415,2.04761 -0.916214,0.28321 -1.955271,0.0466 -2.309017,-0.52575 z m 168.0102,-4.57339 c -11.89218,-2.16111 -12.02243,-2.16307 -21.5,-0.32411 C 166.27912,116.65651 165,116.76613 165,115.60086 c 0,-0.45397 4.87088,-1.71059 10.82418,-2.7925 l 10.82418,-1.96709 12.18396,2.13397 c 6.70118,1.17369 12.43524,2.38525 12.74235,2.69237 1.43557,1.43557 -2.00366,1.2314 -13.03933,-0.77405 z M 87,115.56105 c 0,-1.34701 1.604233,-1.74328 15,-3.70528 11.17739,-1.63708 12.04671,-1.62264 30.98843,0.51485 10.71864,1.20955 19.68114,2.39188 19.91667,2.62741 1.35047,1.35047 -2.50832,1.20578 -20.2883,-0.76077 -19.28587,-2.1331 -19.97267,-2.14285 -30.92039,-0.43878 -6.158025,0.95852 -11.98391,1.97223 -12.94641,2.25267 -0.9625,0.28044 -1.75,0.0599 -1.75,-0.4901 z m -56.423104,-3.01036 c -0.331225,-0.53593 3.592434,-1.91005 8.918483,-3.12337 l 9.509901,-2.16643 12.49736,2.28414 C 68.376188,110.80131 74,112.18852 74,112.62772 c 0,1.18275 -1.813022,1.00999 -13.699236,-1.3054 -11.115991,-2.16535 -14.093039,-1.97848 -27.466607,1.7241 -0.916214,0.25366 -1.931981,0.0306 -2.257261,-0.49573 z M 198,106.91262 l -11.5,-2.30387 -8.73941,1.90876 c -4.80668,1.04982 -9.71918,1.90876 -10.91667,1.90876 -4.41846,0 -0.40823,-1.55063 9.485,-3.66756 10.07011,-2.15477 10.26043,-2.15845 19.17108,-0.3707 4.95,0.99313 10.6875,2.10341 12.75,2.46729 2.0625,0.36388 3.75,1.09121 3.75,1.61628 0,1.22001 -0.28946,1.18777 -14,-1.55896 z M 30,105.6231 c 0,-0.44175 4.312628,-1.84285 9.583617,-3.11357 l 9.583617,-2.31038 11.666383,2.24855 c 6.416511,1.2367 12.093883,2.6378 12.616383,3.11356 1.508711,1.37374 -2.069309,1.04197 -13.661234,-1.26672 l -10.711233,-2.13329 -8.502578,2.13251 C 31.179499,106.65021 30,106.79848 30,105.6231 Z m 57,-0.0718 c 0,-0.61875 0.337241,-1.125 0.749425,-1.125 0.412184,0 6.145374,-0.95738 12.740425,-2.12751 l 11.991,-2.12752 19.00957,2.27246 c 10.45527,1.24985 19.68458,2.64354 20.50958,3.0971 2.50116,1.37506 -2.93233,1.04849 -21.36018,-1.28382 -17.99778,-2.27788 -20.13708,-2.17946 -40.88982,1.8812 -1.689238,0.3305 -2.75,0.10411 -2.75,-0.58694 z m 78,-5.0869 c 0,-0.550001 1.0125,-1.233757 2.25,-1.519463 1.2375,-0.285706 5.99547,-1.393799 10.57326,-2.462427 l 8.32326,-1.942962 12.92674,2.588967 C 206.18297,98.552417 212,100.10194 212,100.57186 c 0,1.1847 -0.23989,1.15687 -13.75827,-1.596359 l -12.03331,-2.450768 -8.35421,1.950354 c -4.59481,1.072692 -9.36671,2.184113 -10.60421,2.469823 -1.2375,0.2857 -2.25,0.0695 -2.25,-0.48054 z M 61.005083,97.687118 49.510167,95.150703 40.505083,97.304585 c -10.009946,2.394234 -11.369959,2.561344 -9.955083,1.22322 1.250832,-1.182977 15.785409,-5.101536 18.922433,-5.101536 2.078627,0 6.573626,0.912222 22.277567,4.521046 1.2375,0.284382 2.25,0.958485 2.25,1.498004 0,1.191041 0.958885,1.320781 -12.994917,-1.758201 z m 26.302266,-1.68345 C 87.50477,95.411099 93.25388,93.859163 100.08315,92.554923 L 112.5,90.183576 l 19.96803,2.672712 c 10.98242,1.469991 20.16992,2.874597 20.41667,3.121346 1.43328,1.433278 -2.53612,1.191017 -20.09585,-1.226492 l -19.53074,-2.688866 -13.15486,2.509396 C 91.964792,96.12415 87.08528,96.670219 87.307349,96.003668 Z M 62,90.87626 C 50.306509,87.972418 48.178932,87.9289 40,90.426269 33.196734,92.50359 28.911487,93.031707 30.55,91.590894 31.922247,90.384221 46.364219,86.426269 49.394943,86.426269 53.483006,86.426269 74,91.499248 74,92.510052 c 0,1.235121 -0.989882,1.10035 -12,-1.633792 z m 103,1.673431 c 0,-0.482118 4.77868,-2.074001 10.61928,-3.537517 l 10.61928,-2.660939 12.13072,2.659919 c 6.6719,1.462955 12.55822,3.054838 13.08072,3.537517 1.56235,1.44328 -1.80925,1.037779 -13.8734,-1.668545 l -11.35009,-2.546143 -10.04448,2.546143 C 164.80365,93.764398 165,93.735081 165,92.549691 Z M 87,86.534677 c 0,-0.609624 0.221043,-1.108408 0.491207,-1.108408 0.270164,0 6.007664,-1.186657 12.750003,-2.637016 L 112.5,80.152237 132,82.939408 c 10.725,1.532943 19.9275,3.169601 20.45,3.637016 1.49341,1.335964 -1.59536,1.071331 -21.16605,-1.813419 L 113.06789,82.07793 102.28395,84.337758 C 96.352776,85.580664 90.4875,86.832824 89.25,87.120336 87.955544,87.421081 87,87.172359 87,86.534677 Z M 30.470737,85.37892 c -0.28696,-0.46431 3.7227,-2.158435 8.910356,-3.764721 l 9.4321,-2.920521 12.593404,2.981012 C 68.332968,83.314247 74,85.05408 74,85.540986 74,86.860595 72.535009,86.64653 60.427863,83.557817 l -11.072137,-2.824666 -9.181623,2.744984 c -5.049892,1.509742 -9.416407,2.365095 -9.703366,1.900785 z M 198.5,83.209672 l -12,-2.892105 -9.58318,2.554351 C 166.63082,85.613603 165,85.857138 165,84.651488 c 0,-0.42613 4.8375,-2.029106 10.75,-3.56217 L 186.5,78.30193 198,80.983256 c 11.85587,2.764299 14.89662,3.819457 13.37842,4.642384 C 210.89529,85.887515 205.1,84.800329 198.5,83.209672 Z m -167.972186,-4.7384 c -0.324622,-0.525248 3.738339,-2.308027 9.028801,-3.961732 l 9.619023,-3.006736 12.40988,3.211733 c 6.825435,1.766452 12.410916,3.549232 12.412181,3.961732 0.0036,1.176242 -1.725025,0.903299 -13.823889,-2.18273 l -11.32619,-2.888945 -8.611398,2.910838 c -9.963147,3.367757 -8.960619,3.16579 -9.708408,1.95584 z M 131.2508,75.134761 113.00161,72.090817 101.2508,74.772293 c -12.512896,2.855382 -14.251053,3.087615 -14.250362,1.903976 2.41e-4,-0.4125 5.841983,-2.047574 12.981652,-3.633497 l 12.98121,-2.883497 13.76835,2.171553 C 149.89293,75.983838 153,76.59868 153,77.528924 c 0,1.196445 -0.65466,1.124379 -21.7492,-2.394163 z M 198,75.244462 186.5,72.244732 177.25692,74.8355 c -9.70572,2.720445 -12.72753,3.161244 -11.84131,1.727322 0.2935,-0.474896 5.23968,-2.110808 10.99151,-3.635361 l 10.45787,-2.771913 12.5675,3.292472 C 206.34462,75.25888 212,77.119793 212,77.583381 c 0,1.203769 -1.16397,1.00931 -14,-2.338919 z M 61.334095,69.839323 49.16819,66.496235 40.396507,69.461252 C 30.794753,72.706851 30,72.863369 30,71.508733 c 0,-0.504645 4.243373,-2.331217 9.429718,-4.05905 l 9.429718,-3.141513 11.820282,3.20237 c 11.002372,2.98078 14.323043,4.302956 13.253615,5.277133 -0.238333,0.217106 -5.90799,-1.109651 -12.599238,-2.94835 z M 165,69.5762 c 0,-1.082556 18.2491,-7.149931 21.50515,-7.149931 1.75559,0 24.59944,5.982537 25.41152,6.654978 0.22916,0.189762 0.12083,0.640853 -0.24074,1.002425 -0.36157,0.361572 -6.11977,-0.830506 -12.79599,-2.649061 l -12.13858,-3.306464 -9.62068,2.777625 C 171.82931,68.433465 166.9375,69.898688 166.25,70.161821 165.5625,70.424955 165,70.161426 165,69.5762 Z M 87,67.580262 c 0,-1.153191 1.654189,-1.683444 16.12647,-5.169367 l 9.62646,-2.318718 19.37354,3.308764 c 10.65544,1.81982 19.80103,3.694991 20.32353,4.167046 1.55893,1.408419 -1.90528,1.031812 -20.86113,-2.267893 L 113.6299,62.173919 101.56495,64.958248 C 94.929227,66.48963 88.9375,67.944554 88.25,68.191412 87.5625,68.438271 87,68.163253 87,67.580262 Z M 61.004087,62.823595 49.508173,59.425194 40.501614,62.425731 c -9.657285,3.217327 -10.91836,3.483864 -10.08221,2.130945 0.295591,-0.478276 4.621456,-2.342222 9.613034,-4.142104 8.365552,-3.01648 9.403875,-3.176926 13.271579,-2.050777 C 68.852368,62.890969 74,64.662642 74,65.486784 c 0,1.214765 0.398332,1.296393 -12.995913,-2.663189 z M 199.5,59.769408 c -6.05,-1.823192 -11.78212,-3.32125 -12.73804,-3.329017 -0.95593,-0.0078 -5.95247,1.335878 -11.10343,2.985878 C 165.25079,62.760167 165,62.809052 165,61.503922 c 0,-0.991403 18.59614,-7.073867 21.6563,-7.083391 2.32792,-0.0072 23.55519,6.049219 24.68083,7.041817 2.16018,1.904848 -1.75783,1.344497 -11.83713,-1.69294 z m -67.5,-4.09322 -18.5,-3.576167 -12.77892,3.30087 c -7.028408,1.815478 -13.065908,3.013884 -13.416668,2.663124 -0.982386,-0.982387 -0.627317,-1.111058 12.636488,-4.57927 13.84444,-3.620035 11.59903,-3.686825 36.8091,1.094886 8.9375,1.695217 16.25,3.479208 16.25,3.964425 0,1.193257 0.0298,1.197327 -21,-2.867868 z m 66.5,-4.128068 -12,-3.762317 -10.30849,3.428406 c -5.66968,1.885623 -10.58218,3.154728 -10.91667,2.820233 C 164.36152,53.121119 164.675,52.98064 176,49.22823 c 7.51404,-2.489691 11.21094,-3.255874 13,-2.69425 1.375,0.431643 7.1125,2.193933 12.75,3.9162 5.6375,1.722267 10.25,3.546451 10.25,4.053742 0,1.274082 -0.0288,1.267781 -13.5,-2.955802 z M 87,48.575603 c 0,-0.998578 4.963916,-2.698563 19.69591,-6.745232 l 6.19592,-1.701929 19.30408,3.789621 c 10.61725,2.084291 19.73159,4.176302 20.25409,4.648913 1.66087,1.502285 -2.40961,0.968477 -21.13571,-2.771771 l -18.18571,-3.632312 -11.81429,3.265836 C 94.816432,47.22494 88.9375,48.907344 88.25,49.167406 87.5625,49.427469 87,49.161157 87,48.575603 Z m 111,-5.056547 -11.5,-3.738776 -9.29961,3.322994 c -9.27928,3.315727 -13.49473,4.186282 -11.65039,2.405981 0.5225,-0.504357 5.52673,-2.501748 11.12051,-4.438646 l 10.17052,-3.521632 12.57948,4.164163 C 206.33923,44.00343 212,46.225821 212,46.651786 c 0,1.235709 -1.80685,0.831396 -14,-3.13273 z M 131.76958,36.16908 113.03916,32.117026 100.76958,35.778801 C 87.493612,39.740926 87,39.841572 87,38.586383 c 0,-0.461938 5.847504,-2.558255 12.99445,-4.658484 l 12.99446,-3.818597 13.25554,2.767801 C 149.13567,37.656864 153,38.618438 153,39.534771 c 0,1.221865 -0.0923,1.20723 -21.23042,-3.365691 z M 87.192354,29.349206 c 0.258991,-0.776972 6.077734,-3.139399 13.124946,-5.328766 l 12.65968,-3.933004 19.26151,4.264312 c 10.59383,2.345372 19.68901,4.671609 20.21151,5.169417 1.63076,1.553692 -1.27218,1.098293 -20.64414,-3.23855 l -18.69414,-4.185098 -11.69181,3.747927 c -6.430487,2.061361 -12.367026,4.007037 -13.192304,4.323726 -0.984586,0.377821 -1.340537,0.09589 -1.035252,-0.819964 z M 132.00334,16.684533 113.50668,12.146626 100.96309,16.286447 C 87.328408,20.786366 87,20.862162 87,19.509092 c 0,-0.97968 23.36073,-9.082823 26.18508,-9.082823 3.45793,0 39.81492,9.211314 39.81492,10.087409 0,1.293009 -0.46205,1.208745 -20.99666,-3.829145 z M 87,10.43132 C 87,9.1332111 88.88043,8.2971383 101.75685,3.8701608 L 113.01369,0 133.00685,4.9279565 C 144.00308,7.6383327 153,10.209243 153,10.641091 c 0,1.360743 -2.56674,0.902865 -21.51169,-3.8374491 L 113.0137,2.1810145 100.00685,6.7735089 C 92.853082,9.2993808 87,10.945395 87,10.43132 Z"
     id="path12"
     inkscape:connector-curvature="0" />
  <path
     style="opacity:1;fill:#63a94f;fill-opacity:0.94117647;stroke-width:0.99999994"
     d="m 103.37235,202.17212 c 3.37079,-0.0727 8.88663,-0.0727 12.25742,0 3.37078,0.0727 0.61287,0.13212 -6.12871,0.13212 -6.74158,0 -9.4995,-0.0595 -6.12871,-0.13212 z"
     id="path14"
     inkscape:connector-curvature="0" />
  <path
     style="opacity:1;fill:#63a94f;fill-opacity:0.94117647;stroke-width:0.99999994"
     d="m 49.527626,202.22225 c -7.037262,-0.0387 -15.250536,-0.0774 -18.251722,-0.086 l -5.4567,-0.0157 v -0.63788 c 0,-0.51471 0.03633,-0.64858 0.188162,-0.6933 0.103489,-0.0305 12.719757,-0.11261 28.03615,-0.1825 48.160294,-0.21976 160.987814,-0.0417 179.318454,0.28302 l 4.16645,0.0738 v 0.45841 0.45841 l -3.79012,0.0729 c -14.81836,0.28522 -117.27874,0.53869 -117.27874,0.29013 0,-0.0911 -1.81381,-0.12304 -6.98887,-0.12304 -4.58757,0 -6.98888,0.037 -6.98888,0.10753 0,0.1186 -30.937156,0.11519 -52.954184,-0.006 z"
     id="path16"
     inkscape:connector-curvature="0" />
  <path
     style="opacity:1;fill:#63a94f;fill-opacity:0.94117647;stroke-width:0.99999994"
     d="m 91.816576,202.36655 c 0,-0.0605 5.074989,-0.0845 17.680514,-0.0834 3.33013,2.8e-4 6.45094,3.9e-4 6.93512,2.4e-4 0.48418,-1.5e-4 3.07578,0.0146 5.7591,0.0327 2.68333,0.0181 8.85538,0.0331 13.71567,0.0333 5.87307,2.8e-4 8.8369,0.009 8.8369,0.0273 0,0.0179 -8.83914,0.0269 -26.46365,0.0269 -22.467767,0 -26.463654,-0.006 -26.463654,-0.037 z"
     id="path18"
     inkscape:connector-curvature="0" />
  <path
     style="opacity:1;fill:#63a94f;fill-opacity:0.94117647;stroke-width:1"
     d="m 150.93276,11.184705 c -0.12545,-0.02458 -0.74128,-0.126576 -1.36852,-0.226661 -2.28501,-0.364607 -7.51836,-1.6020871 -21.9048,-5.1796223 l -14.68206,-3.6510451 -7.5184,2.6516168 c -4.13512,1.458389 -8.911795,3.1037219 -10.614829,3.6562949 -3.265377,1.059497 -7.553338,2.1900967 -7.710436,2.0329997 -0.207569,-0.20757 0.144896,-0.7495727 0.764807,-1.1760826 1.391004,-0.9570357 4.218258,-2.0269218 17.112748,-6.4757857 4.30704,-1.4860174 7.96784,-2.6915322 8.1351,-2.67892175 0.40104,0.0302351 23.24863,5.68184165 27.44645,6.78918655 7.58444,2.000698 12.3167,3.4695445 12.3167,3.8229805 0,0.40775 -0.99659,0.627077 -1.97676,0.43504 z"
     id="path20"
     inkscape:connector-curvature="0" />
  <path
     style="opacity:1;fill:#63a94f;fill-opacity:0.94117647;stroke-width:1"
     d="m 148.87998,20.623666 c -2.99853,-0.626217 -6.72657,-1.519397 -22.78425,-5.458756 l -12.59636,-3.09021 -9.60409,3.174402 c -14.316199,4.731876 -16.159684,5.26314 -16.630246,4.792577 -0.550276,-0.550275 0.152868,-0.98216 4.213082,-2.587758 6.677184,-2.640471 17.955384,-6.335643 20.854804,-6.83284 0.92166,-0.158046 1.26456,-0.139063 2.90596,0.160874 7.07684,1.293168 29.0247,6.809537 35.57984,8.942624 1.68111,0.547044 2.0908,0.735118 2.0908,0.959811 0,0.617123 -0.84474,0.604393 -4.02954,-0.06072 z"
     id="path22"
     inkscape:connector-curvature="0" />
  <path
     style="opacity:1;fill:#63a94f;fill-opacity:0.94117647;stroke-width:1"
     d="m 87.220494,29.823475 c 0,-0.493618 0.472612,-0.930373 1.642922,-1.518274 1.277336,-0.641665 5.319419,-2.186979 8.392901,-3.208659 4.635423,-1.540896 15.417413,-4.860455 15.786853,-4.860455 0.17685,0 5.13066,1.065101 11.00848,2.36689 20.68399,4.580984 28.15654,6.470562 28.55846,7.221564 0.57711,1.078346 -2.18424,0.55603 -30.21206,-5.714672 l -9.29939,-2.080565 -9.02359,2.899027 c -4.96298,1.594464 -10.688276,3.44905 -12.722889,4.121302 -2.034612,0.672253 -3.796584,1.222277 -3.915491,1.222277 -0.138017,0 -0.216196,-0.16216 -0.216196,-0.448435 z"
     id="path24"
     inkscape:connector-curvature="0" />
  <path
     style="opacity:1;fill:#63a94f;fill-opacity:0.94117647;stroke-width:1"
     d=""
     id="path26"
     inkscape:connector-curvature="0" />
  <path
     style="opacity:1;fill:#63a94f;fill-opacity:0.94117647;stroke-width:1"
     d="m 149.33615,39.780591 c -2.64059,-0.470464 -8.68463,-1.754415 -30.15211,-6.405293 l -6.12697,-1.327393 -8.31853,2.480048 c -14.305209,4.264882 -16.489126,4.853929 -17.269758,4.658003 -0.268431,-0.06737 -0.400346,-0.20249 -0.400346,-0.410067 0,-0.715482 4.570935,-2.308677 18.094894,-6.306958 4.13978,-1.223902 7.69793,-2.222159 7.90701,-2.218349 0.32837,0.006 10.78995,2.169683 22.88472,4.733093 5.70507,1.209154 11.68296,2.573397 13.70735,3.128221 2.67652,0.733554 3.4425,1.163216 3.20005,1.795024 -0.13203,0.344049 -1.07601,0.310231 -3.52631,-0.126329 z"
     id="path28"
     inkscape:connector-curvature="0" />
  <path
     style="opacity:1;fill:#63a94f;fill-opacity:0.94117647;stroke-width:1"
     d="m 149.17506,49.04277 c -2.6818,-0.370321 -8.75781,-1.517108 -22.59397,-4.264388 l -13.47954,-2.676469 -7.73254,2.140824 c -4.2529,1.177454 -9.785331,2.733472 -12.294286,3.457817 -2.508956,0.724346 -4.845918,1.348003 -5.19325,1.385905 -0.543619,0.05932 -0.645892,0.0236 -0.734837,-0.25664 -0.147617,-0.465098 0.146176,-0.747228 1.366349,-1.31211 2.270526,-1.051146 6.951709,-2.496446 18.115414,-5.593075 l 6.25489,-1.735006 1.42403,0.282416 c 0.78322,0.155328 5.11904,1.007268 9.63516,1.8932 22.40037,4.394302 28.73895,5.872528 28.73895,6.70223 0,0.217398 -1.84737,0.204382 -3.50637,-0.0247 z"
     id="path30"
     inkscape:connector-curvature="0" />
  <path
     style="opacity:1;fill:#63a94f;fill-opacity:0.94117647;stroke-width:1"
     d="M 148.04366,58.635684 C 145.45681,58.189061 133.44202,55.896743 118.18759,52.9394 l -4.69048,-0.909333 -6.18166,1.599984 c -8.463169,2.190503 -11.669172,2.977153 -14.6969,3.606149 -3.509897,0.729164 -5.054772,0.932054 -5.333786,0.700493 -0.887307,-0.7364 0.436925,-1.194687 12.708596,-4.39816 8.07202,-2.107171 9.55516,-2.416009 12.18164,-2.536626 3.43782,-0.157877 6.80038,0.284323 17.54568,2.307384 12.78897,2.407828 18.60099,3.657265 21.98444,4.726098 1.07806,0.340558 1.21743,0.425781 1.1757,0.718927 -0.0421,0.295769 -0.14829,0.33593 -0.95968,0.362936 -0.50179,0.0167 -2.24666,-0.200004 -3.87748,-0.481568 z"
     id="path32"
     inkscape:connector-curvature="0" />
  <path
     style="opacity:1;fill:#63a94f;fill-opacity:0.94117647;stroke-width:1"
     d="m 87.486699,68.166334 c -0.146299,-0.02984 -0.31091,-0.233205 -0.365803,-0.451916 -0.234843,-0.935688 1.215675,-1.528854 7.903429,-3.231982 6.086135,-1.549916 17.402175,-4.255116 17.799465,-4.255116 0.45337,0 20.48765,3.424266 26.32448,4.499391 7.23813,1.333238 12.30642,2.431936 13.06965,2.833225 0.42332,0.222567 0.56081,0.466615 0.34144,0.606069 -0.71645,0.455457 -5.71502,-0.282365 -27.07697,-3.996743 -6.28302,-1.092481 -11.59474,-1.98967 -11.80382,-1.993753 -0.42937,-0.0084 -15.561899,3.478937 -21.82031,5.028537 -2.25806,0.559102 -4.225262,0.992131 -4.371561,0.962288 z"
     id="path34"
     inkscape:connector-curvature="0" />
  <path
     style="opacity:1;fill:#63a94f;fill-opacity:0.94117647;stroke-width:1"
     d="m 150.2485,78.063641 c -3.49653,-0.467156 -8.1193,-1.202567 -21.4404,-3.410834 l -15.81425,-2.621563 -8.2109,1.870421 c -14.004493,3.190188 -17.057342,3.736681 -17.551028,3.141826 -0.143831,-0.173306 -0.161793,-0.304373 -0.05619,-0.40998 0.545981,-0.545982 7.441447,-2.338538 18.115768,-4.709401 l 7.65503,-1.700255 9.83163,1.54758 c 25.4255,4.002185 29.94489,4.858523 30.10788,5.704867 0.11617,0.603208 -0.87191,0.823238 -2.63754,0.587339 z"
     id="path36"
     inkscape:connector-curvature="0" />
  <path
     style="opacity:1;fill:#63a94f;fill-opacity:0.94117647;stroke-width:1"
     d="M 148.95601,87.116062 C 146.02089,86.805255 138.78977,85.79783 126.29287,83.95868 l -13.23525,-1.947811 -10.67571,2.249554 c -5.871639,1.237254 -11.307924,2.391663 -12.080633,2.565352 -2.256227,0.507152 -3.232841,0.391206 -3.232841,-0.38381 0,-0.655394 0.255962,-0.938568 0.94838,-1.049206 0.79021,-0.126264 12.343924,-2.554427 19.140254,-4.022575 2.72738,-0.58917 5.16369,-1.071218 5.41402,-1.071218 0.69941,0 25.28215,3.550782 29.93083,4.323271 4.02274,0.668474 8.09527,1.44731 9.22402,1.764013 0.7152,0.200672 1.14396,0.590415 0.85268,0.775091 -0.24847,0.157532 -1.9026,0.136857 -3.62261,-0.04528 z"
     id="path38"
     inkscape:connector-curvature="0" />
  <path
     style="opacity:1;fill:#63a94f;fill-opacity:0.94117647;stroke-width:1"
     d="m 145.0025,96.264661 c -2.04898,-0.237734 -4.75181,-0.572028 -6.00628,-0.742877 -1.25448,-0.170848 -7.56327,-1.034361 -14.01954,-1.918918 l -11.73866,-1.608285 -6.35623,1.215305 c -13.236785,2.530861 -17.838826,3.245824 -19.103976,2.96795 -0.431465,-0.09476 -0.444453,-0.116298 -0.184708,-0.306228 0.628359,-0.459468 4.781652,-1.630252 9.054979,-2.552536 3.463035,-0.747404 15.595995,-3.02171 16.042115,-3.00707 1.44602,0.04746 31.76583,4.244572 37.01575,5.124025 2.92779,0.490456 3.43076,0.651445 3.30266,1.057107 -0.10467,0.331478 -4.18314,0.215089 -8.00611,-0.228473 z"
     id="path40"
     inkscape:connector-curvature="0" />
  <path
     style="opacity:1;fill:#63a94f;fill-opacity:0.94117647;stroke-width:1"
     d="m 148.57586,106.19322 c -2.08316,-0.14478 -9.03217,-0.91226 -16.19416,-1.78856 -10.01063,-1.22485 -11.65064,-1.3952 -15.5185,-1.61201 -6.04683,-0.33894 -11.39231,0.24356 -23.201515,2.52832 -5.375962,1.0401 -6.593249,1.06873 -6.593249,0.15508 0,-0.80813 0.28145,-0.90896 4.40968,-1.57982 2.132612,-0.34656 7.733864,-1.31167 12.447224,-2.14468 l 8.56975,-1.51456 11.34984,1.35905 c 21.62219,2.58908 28.60841,3.66071 28.60841,4.38833 0,0.29355 -1.49781,0.37423 -3.87748,0.20885 z"
     id="path42"
     inkscape:connector-curvature="0" />
  <path
     style="opacity:1;fill:#63a94f;fill-opacity:0.94117647;stroke-width:1"
     d="m 87.258508,115.86055 c -0.674138,-0.68421 0.282215,-1.38841 2.627039,-1.93437 2.545544,-0.5927 14.516043,-2.42949 19.079233,-2.92757 2.39347,-0.26126 7.70439,-0.22465 11.10022,0.0765 6.60361,0.58563 26.13704,2.87603 30.82053,3.61388 1.44263,0.22727 2.03049,0.38092 2.09438,0.54742 0.12762,0.33256 0.0208,0.38918 -0.94996,0.50352 -1.79839,0.21183 -7.08039,-0.22295 -20.48457,-1.68616 -18.16919,-1.98336 -19.09127,-1.98974 -30.48762,-0.21107 -2.968926,0.46337 -6.903425,1.12305 -8.743326,1.46595 -3.896178,0.72613 -4.788313,0.82352 -5.055926,0.5519 z"
     id="path44"
     inkscape:connector-curvature="0" />
  <path
     style="opacity:1;fill:#63a94f;fill-opacity:0.94117647;stroke-width:1"
     d="m 146.44705,125.14203 c -3.04129,-0.20346 -7.29482,-0.58036 -13.60918,-1.20589 -10.14124,-1.00465 -11.29881,-1.08515 -16.8024,-1.16846 -7.23527,-0.10952 -10.9877,0.19568 -21.949705,1.78529 -5.085845,0.7375 -7.017329,0.77781 -7.017329,0.14645 0,-0.75304 14.433544,-3.1997 22.504574,-3.8148 2.78393,-0.21216 8.03729,-0.1096 12.24066,0.23898 13.68788,1.13513 27.83872,2.74969 29.80335,3.40047 0.80655,0.26716 0.92739,0.49253 0.35111,0.65484 -0.47015,0.13242 -3.27008,0.11371 -5.52108,-0.0369 z"
     id="path46"
     inkscape:connector-curvature="0" />
  <path
     style="opacity:1;fill:#63a94f;fill-opacity:0.94117647;stroke-width:1"
     d="m 87.123251,134.81128 c -0.494495,-1.28863 2.598869,-1.97171 14.770829,-3.26168 10.52253,-1.11517 14.62627,-1.04738 32.38834,0.53506 11.95929,1.06546 18.27649,1.78679 18.62058,2.1262 0.9642,0.95108 -3.2538,0.87303 -17.25206,-0.31921 -13.95951,-1.18895 -14.00287,-1.19143 -20.90796,-1.19801 -5.13709,-0.005 -7.0238,0.0499 -9.19951,0.26703 -4.67171,0.46629 -12.067426,1.32063 -14.217412,1.64238 -3.273182,0.48982 -4.079421,0.52977 -4.202807,0.20823 z"
     id="path48"
     inkscape:connector-curvature="0" />
  <path
     style="opacity:1;fill:#63a94f;fill-opacity:0.94117647;stroke-width:1"
     d="m 147.43543,144.44516 c -1.0454,-0.072 -4.9799,-0.36976 -8.74333,-0.6617 -10.49121,-0.81382 -11.28259,-0.85083 -20.14767,-0.94215 -10.33118,-0.10643 -16.56154,0.15152 -24.758871,1.02505 -4.105199,0.43746 -6.717123,0.37865 -6.717123,-0.15123 0,-0.74441 11.836163,-2.20214 22.428544,-2.76228 5.69021,-0.3009 13.50678,-0.0659 23.46723,0.70546 14.64976,1.13455 20.09736,1.87328 20.09736,2.72531 0,0.20144 -0.27177,0.23268 -1.86271,0.21414 -1.02449,-0.0119 -2.71803,-0.0806 -3.76343,-0.1526 z"
     id="path50"
     inkscape:connector-curvature="0" />
  <path
     style="opacity:1;fill:#63a94f;fill-opacity:0.94117647;stroke-width:1"
     d="m 139.52842,153.58915 c -7.86795,-0.46706 -14.71891,-0.64327 -25.16559,-0.64727 -9.9602,-0.004 -15.146,0.1466 -19.960097,0.57893 -2.496837,0.22423 -6.649707,0.30024 -7.093774,0.12983 -0.382327,-0.14671 -0.284015,-0.3355 0.340665,-0.65419 3.133984,-1.59884 22.425876,-2.37053 41.918996,-1.6768 11.0241,0.39234 19.67591,1.14402 22.77618,1.97884 0.46261,0.12456 0.56169,0.20424 0.42465,0.34148 -0.29417,0.29458 -7.91539,0.26533 -13.24103,-0.0508 z"
     id="path52"
     inkscape:connector-curvature="0" />
  <path
     style="opacity:1;fill:#63a94f;fill-opacity:0.94117647;stroke-width:1"
     d="m 145.23059,163.46704 c -11.717,-0.67533 -11.3174,-0.66465 -25.08956,-0.6707 -7.44323,-0.003 -17.39922,0.0283 -22.124424,0.0701 -8.107335,0.0717 -10.339938,0.005 -10.339938,-0.30791 0,-0.53467 5.107543,-1.04702 13.761242,-1.38041 5.63376,-0.21705 26.0376,-0.21566 32.38834,0.002 13.64316,0.46804 19.08327,1.05301 19.08327,2.05201 0,0.11377 -0.15396,0.24811 -0.34213,0.29854 -0.44593,0.1195 -4.81551,0.0815 -7.3368,-0.0638 z"
     id="path54"
     inkscape:connector-curvature="0" />
  <path
     style="opacity:1;fill:#63a94f;fill-opacity:0.94117647;stroke-width:1"
     d="m 101.97011,172.75772 c -8.186029,-0.11779 -12.227425,-0.23819 -13.913298,-0.4145 -0.803326,-0.084 -0.859445,-0.11004 -0.469633,-0.21779 1.203933,-0.33278 7.716113,-0.93235 12.998691,-1.19676 6.39108,-0.3199 27.00514,-0.15891 38.63843,0.30175 7.05725,0.27946 13.2419,0.72164 13.48435,0.96409 0.16034,0.16035 -1.37782,0.26067 -6.18557,0.40343 -6.90376,0.20501 -34.52551,0.30407 -44.55297,0.15978 z"
     id="path56"
     inkscape:connector-curvature="0" />
  <path
     style="opacity:1;fill:#63a94f;fill-opacity:0.94117647;stroke-width:1"
     d="m 132.68581,182.53126 c -27.27092,-0.35176 -39.993083,-0.69095 -41.086463,-1.09542 -0.297609,-0.11009 -0.266682,-0.13798 0.265117,-0.23902 1.639505,-0.3115 5.049622,-0.40548 17.656516,-0.48659 20.95426,-0.13482 41.48542,0.37276 42.93236,1.06139 0.20908,0.0995 0.40201,0.33423 0.42874,0.52162 l 0.0486,0.34071 -8.79192,-0.0342 c -4.83556,-0.0188 -9.98938,-0.0496 -11.45294,-0.0685 z"
     id="path58"
     inkscape:connector-curvature="0" />
  <path
     style="opacity:1;fill:#63a94f;fill-opacity:0.94117647;stroke-width:1"
     d="m 102.88246,192.27179 c -8.121598,-0.12678 -15.245404,-0.49316 -15.552078,-0.79983 -0.610231,-0.61023 10.543148,-0.9267 32.658598,-0.92665 19.19837,4e-5 29.31483,0.21823 32.30781,0.69683 1.69644,0.27127 -0.86789,0.58388 -6.76208,0.82434 -3.70309,0.15108 -36.12835,0.30716 -42.65225,0.20531 z"
     id="path60"
     inkscape:connector-curvature="0" />
  <path
     style="opacity:1;fill:#63a94f;fill-opacity:0.94117647;stroke-width:1"
     d="m 180.81214,194.0182 c -9.25313,-0.12531 -15.43388,-0.42394 -15.43388,-0.7457 0,-0.78321 35.11189,-1.01617 44.02846,-0.29212 1.03804,0.0843 2.04053,0.20993 2.22776,0.27919 0.29115,0.1077 0.24204,0.14064 -0.33928,0.22758 -1.82525,0.27298 -5.26996,0.41149 -11.93199,0.47975 -4.01433,0.0411 -8.11989,0.0927 -9.12348,0.11453 -1.00358,0.0219 -5.24599,-0.007 -9.42759,-0.0632 z"
     id="path64"
     inkscape:connector-curvature="0" />
  <path
     style="opacity:1;fill:#63a94f;fill-opacity:0.94117647;stroke-width:1"
     d="m 177.5429,185.97098 c -5.33697,-0.11221 -10.79517,-0.38009 -11.92182,-0.5851 l -0.62296,-0.11336 0.60823,-0.10506 c 2.97869,-0.51451 19.96975,-0.82029 31.9074,-0.57422 10.70866,0.22074 15.01846,0.462 14.13283,0.79113 -1.54684,0.57487 -19.76091,0.88817 -34.10368,0.58661 z"
     id="path66"
     inkscape:connector-curvature="0" />
  <path
     style="opacity:1;fill:#63a94f;fill-opacity:0.94117647;stroke-width:1"
     d="m 188.8332,178.11065 c 1.06631,-0.0261 2.81117,-0.0261 3.87748,0 1.0663,0.0261 0.19387,0.0475 -1.93874,0.0475 -2.13261,0 -3.00505,-0.0214 -1.93874,-0.0475 z"
     id="path68"
     inkscape:connector-curvature="0" />
  <path
     style="opacity:1;fill:#63a94f;fill-opacity:0.94117647;stroke-width:1"
     d="m 165.3961,170.34933 c -0.29698,-0.093 -0.3244,-0.1446 -0.15206,-0.28645 1.3974,-1.15015 13.82803,-2.01133 26.28819,-1.82122 8.24485,0.1258 13.23205,0.46016 17.41831,1.16779 2.05845,0.34795 2.62603,0.53968 2.36656,0.79941 -0.32155,0.32186 -7.36925,0.32965 -12.33403,0.0136 -5.25722,-0.33464 -19.14871,-0.3871 -22.96075,-0.0867 -2.85668,0.2251 -10.12277,0.37113 -10.62622,0.21355 z"
     id="path70"
     inkscape:connector-curvature="0" />
  <path
     style="opacity:1;fill:#63a94f;fill-opacity:0.94117647;stroke-width:1"
     d="m 174.34968,177.91556 c -4.21702,-0.13694 -7.70016,-0.38481 -8.24587,-0.58682 -0.3327,-0.12316 -0.32862,-0.13147 0.11077,-0.22621 4.0112,-0.86482 35.47094,-0.9296 42.71461,-0.088 2.48291,0.28849 2.22835,0.51145 -0.88113,0.77173 -2.34085,0.19594 -28.54879,0.29646 -33.69838,0.12925 z"
     id="path72"
     inkscape:connector-curvature="0" />
  <path
     style="opacity:1;fill:#63a94f;fill-opacity:0.94117647;stroke-width:1"
     d="m 166.06253,162.95244 c -0.0836,-0.0327 -0.34023,-0.10092 -0.57022,-0.15165 -1.12479,-0.24807 0.22799,-0.89196 2.91224,-1.38616 9.15731,-1.68594 27.13242,-1.67976 39.02805,0.0134 3.68566,0.52461 5.2566,1.06321 4.06803,1.39475 -0.66862,0.1865 -4.57242,0.10133 -7.42362,-0.16195 -5.6248,-0.51941 -8.44058,-0.62016 -17.41064,-0.62298 -9.00595,-0.003 -12.00549,0.10957 -15.96608,0.59834 -1.94485,0.24001 -4.40375,0.40767 -4.63776,0.31623 z"
     id="path74"
     inkscape:connector-curvature="0" />
  <path
     style="opacity:1;fill:#63a94f;fill-opacity:0.94117647;stroke-width:1"
     d="m 165.30659,154.75331 c -0.34677,-0.25357 -0.23656,-0.59691 0.30565,-0.95218 0.28798,-0.18869 0.92791,-0.3011 2.25102,-0.39541 1.01676,-0.0725 3.69616,-0.33694 5.95422,-0.58771 5.73886,-0.63733 9.84849,-0.79131 16.04211,-0.60109 10.65192,0.32714 19.12824,1.15092 21.46559,2.08614 1.24822,0.49944 0.63955,0.65158 -2.61751,0.65427 -1.38383,10e-4 -4.1893,-0.13159 -6.23437,-0.29496 -7.43628,-0.59406 -9.44301,-0.68073 -15.80693,-0.68277 -6.5092,-0.002 -8.62734,0.099 -14.36287,0.68519 -3.45133,0.35275 -6.58139,0.39235 -6.99691,0.0885 z"
     id="path76"
     inkscape:connector-curvature="0" />
  <path
     style="opacity:1;fill:#63a94f;fill-opacity:0.94117647;stroke-width:1"
     d="m 165.63169,146.95102 c -0.22857,-0.22857 -0.0548,-0.35696 0.86948,-0.64245 4.00967,-1.23845 13.86759,-2.44765 19.93712,-2.44554 6.53606,0.002 20.2917,1.51557 23.77274,2.6153 l 1.0127,0.31993 -0.5322,0.13135 c -0.65099,0.16068 -3.51687,0.0512 -8.74334,-0.33405 -7.23994,-0.53364 -9.69028,-0.63714 -15.12976,-0.63908 -5.84491,-0.002 -8.86908,0.14875 -14.52153,0.72431 -3.53435,0.35989 -6.45705,0.47839 -6.66521,0.27023 z"
     id="path78"
     inkscape:connector-curvature="0" />
  <path
     style="opacity:1;fill:#63a94f;fill-opacity:0.94117647;stroke-width:1"
     d="m 206.89008,139.51211 c -1.12903,-0.11568 -4.41348,-0.4837 -7.29878,-0.81783 -8.37862,-0.97026 -9.89728,-1.09523 -13.30507,-1.09485 -3.30963,3.6e-4 -4.86428,0.1387 -12.12428,1.07887 -3.98433,0.51597 -8.13267,0.85307 -8.71114,0.70788 -1.0544,-0.26463 0.3495,-1.02166 2.81942,-1.52031 1.04382,-0.21074 3.35468,-0.59294 5.13525,-0.84934 10.69476,-1.54004 14.2399,-1.57155 24.92663,-0.22154 9.97453,1.26005 13.90897,2.03306 13.6911,2.68996 -0.0909,0.27418 -2.59304,0.28742 -5.13313,0.0272 z"
     id="path80"
     inkscape:connector-curvature="0" />
  <path
     style="opacity:1;fill:#63a94f;fill-opacity:0.94117647;stroke-width:1"
     d="m 165.34025,131.98648 c -0.14636,-0.0852 -0.2661,-0.27784 -0.2661,-0.42798 0,-0.972 2.25967,-1.54929 11.0242,-2.81643 9.25617,-1.33822 12.03713,-1.34779 21.21208,-0.0729 7.73513,1.07479 14.59756,2.49765 14.59756,3.02668 0,0.6304 -1.96139,0.58849 -6.86202,-0.14662 -4.13909,-0.62087 -8.96445,-1.21391 -12.67742,-1.55806 -3.27809,-0.30383 -11.62376,-0.25647 -14.36948,0.0815 -2.94829,0.36296 -6.11626,0.91365 -8.93052,1.55239 -2.39264,0.54304 -3.27038,0.62813 -3.7283,0.36141 z"
     id="path82"
     inkscape:connector-curvature="0" />
  <path
     style="opacity:1;fill:#63a94f;fill-opacity:0.94117647;stroke-width:1"
     d="m 165.34025,124.09003 c -0.42654,-0.26537 -0.31577,-0.67866 0.25484,-0.95077 1.74759,-0.83336 9.80836,-2.39648 16.73763,-3.24571 1.86873,-0.22902 2.50037,-0.23932 5.16997,-0.0843 9.54997,0.55448 22.98747,2.74355 23.94836,3.90135 0.32308,0.38929 0.003,0.53313 -1.18759,0.53313 -1.9712,0 -4.49129,-0.32432 -13.02906,-1.67673 -6.7292,-1.06593 -8.01522,-1.21237 -10.64661,-1.21237 -2.67637,0 -4.12711,0.17893 -9.88121,1.21876 -8.61094,1.55609 -10.82754,1.85186 -11.36633,1.51666 z"
     id="path84"
     inkscape:connector-curvature="0" />
  <path
     style="opacity:1;fill:#63a94f;fill-opacity:0.94117647;stroke-width:1"
     d="m 207.19419,116.24581 c -1.79337,-0.24345 -7.06344,-1.12698 -12.09532,-2.02777 -8.11853,-1.45336 -9.11051,-1.43062 -18.84846,0.43222 -7.76854,1.4861 -9.91804,1.79119 -10.69975,1.51868 -0.26208,-0.0914 -0.47651,-0.2603 -0.47651,-0.37542 0,-0.70254 3.92048,-1.66563 15.06446,-3.70069 l 6.49973,-1.18695 6.28641,1.10177 c 11.74224,2.05799 17.44892,3.18254 18.37501,3.62097 0.21751,0.10298 0.38014,0.30919 0.38014,0.48204 0,0.27843 -0.113,0.30401 -1.44455,0.32698 -0.7945,0.0137 -2.16302,-0.0726 -3.04116,-0.19183 z"
     id="path86"
     inkscape:connector-curvature="0" />
  <path
     style="opacity:1;fill:#63a94f;fill-opacity:0.94117647;stroke-width:1"
     d="m 210.08329,109.10602 c -0.12544,-0.0268 -0.94656,-0.16057 -1.82469,-0.29733 -0.87814,-0.13675 -6.0498,-1.1333 -11.49259,-2.21455 -5.44278,-1.08125 -10.07363,-1.96591 -10.29077,-1.96591 -0.21713,0 -2.40127,0.44028 -4.85364,0.9784 -5.41599,1.18842 -9.20837,1.95589 -11.70662,2.36908 -1.81214,0.29971 -4.37853,0.41763 -4.70453,0.21615 -0.68841,-0.42546 4.31403,-1.90143 12.04775,-3.55469 5.55255,-1.18698 6.95003,-1.40093 9.25612,-1.41712 2.45844,-0.0173 2.7077,0.0198 11.02419,1.63854 3.59617,0.69997 7.66753,1.48488 9.04745,1.74424 4.35863,0.81923 5.97074,1.57349 5.13956,2.40467 -0.16572,0.16572 -1.07243,0.22012 -1.64223,0.0985 z"
     id="path94"
     inkscape:connector-curvature="0" />
  <path
     style="opacity:1;fill:#63a94f;fill-opacity:0.94117647;stroke-width:1"
     d="m 207.95448,100.81628 c -1.37992,-0.24495 -6.84315,-1.325561 -12.14049,-2.401363 l -9.63154,-1.956007 -1.54472,0.365947 c -9.13747,2.16468 -17.95372,4.153983 -18.40973,4.153983 -0.65587,0 -1.15385,-0.2252 -1.15385,-0.5218 0,-0.38624 1.00664,-1.094569 1.91297,-1.346081 0.49506,-0.137379 5.02049,-1.20946 10.05652,-2.382403 l 9.15643,-2.132622 7.95009,1.605025 c 8.55105,1.726352 12.02755,2.503505 15.02079,3.35782 2.64175,0.754001 3.07862,1.017661 2.55457,1.541711 -0.26624,0.26624 -0.96796,0.21335 -3.77104,-0.28421 z"
     id="path96"
     inkscape:connector-curvature="0" />
  <path
     style="opacity:1;fill:#63a94f;fill-opacity:0.94117647;stroke-width:1"
     d="m 165.17552,93.122517 c -0.0558,-0.05575 -0.10137,-0.225429 -0.10137,-0.377054 0,-0.74022 3.77187,-1.949954 14.63274,-4.693085 l 6.49764,-1.641111 6.19919,1.357036 c 10.5607,2.311791 14.93691,3.377068 17.66552,4.300223 1.05091,0.355548 1.68669,0.742616 1.68669,1.026872 0,0.07067 -0.50386,0.128491 -1.11969,0.128491 -1.83005,0 -6.16028,-0.851618 -18.57181,-3.652484 -3.01075,-0.679425 -5.61094,-1.238097 -5.7782,-1.241494 -0.16726,-0.0034 -3.96491,0.922952 -8.43922,2.058552 -10.54183,2.67557 -12.34164,3.063904 -12.67149,2.734054 z"
     id="path98"
     inkscape:connector-curvature="0" />
  <path
     style="opacity:1;fill:#63a94f;fill-opacity:0.94117647;stroke-width:1"
     d="m 208.41066,85.239104 c -3.37711,-0.59023 -6.67815,-1.319779 -14.48169,-3.200538 l -7.411,-1.786149 -6.95848,1.845225 c -11.02973,2.924825 -13.22555,3.404996 -14.07825,3.078555 -1.58636,-0.607315 1.69743,-1.772596 14.1442,-5.019187 l 6.87237,-1.792574 7.95328,1.864672 c 11.52013,2.700933 15.01547,3.624972 16.41733,4.340152 0.66255,0.338006 0.89211,0.707177 0.56754,0.912693 -0.30485,0.193027 -0.72377,0.1594 -3.0253,-0.242849 z"
     id="path100"
     inkscape:connector-curvature="0" />
  <path
     style="opacity:1;fill:#63a94f;fill-opacity:0.94117647;stroke-width:1"
     d="m 207.8719,77.645121 c -1.25809,-0.276466 -6.53271,-1.605742 -11.72139,-2.953945 -5.18868,-1.348204 -9.53522,-2.45128 -9.65899,-2.45128 -0.12377,0 -2.54708,0.653454 -5.38513,1.452119 -11.53248,3.245389 -15.39419,4.064627 -15.67766,3.325915 -0.14645,-0.381639 0.22611,-0.625321 1.94816,-1.274251 2.19608,-0.827559 6.14327,-1.978276 13.38491,-3.902071 l 6.09042,-1.617967 6.55961,1.711702 c 12.62573,3.294626 18.17703,5.014275 18.44552,5.713937 0.25583,0.6667 -0.93832,0.665454 -3.98545,-0.0042 z"
     id="path102"
     inkscape:connector-curvature="0" />
  <path
     style="opacity:1;fill:#63a94f;fill-opacity:0.94117647;stroke-width:1"
     d="m 165.40359,70.090695 c -0.91988,-0.340286 0.14697,-1.074999 3.47201,-2.391088 5.43274,-2.150342 14.62294,-4.916324 17.06428,-5.135851 0.76663,-0.06894 1.43361,0.02311 3.38751,0.46748 5.34727,1.216121 17.34823,4.382998 20.86995,5.507271 1.51166,0.482583 1.71065,0.585957 1.71065,0.888667 0,0.63612 -0.32331,0.738005 -1.7095,0.538707 -2.82429,-0.406059 -7.63057,-1.580847 -17.37377,-4.246635 l -6.08232,-1.664152 -7.07069,2.047407 c -3.88888,1.126074 -8.43922,2.462334 -10.11185,2.969468 -1.67264,0.507133 -3.21286,0.97311 -3.42271,1.035503 -0.20985,0.06239 -0.53995,0.05484 -0.73356,-0.01678 z"
     id="path104"
     inkscape:connector-curvature="0" />
  <path
     style="opacity:1;fill:#63a94f;fill-opacity:0.94117647;stroke-width:1"
     d="m 208.56271,62.122632 c -2.01437,-0.421216 -4.75967,-1.16459 -11.16304,-3.022745 -5.77968,-1.67717 -9.04414,-2.51734 -10.20109,-2.62544 -1.42536,-0.133179 -4.16929,0.578664 -13.30507,3.451662 -7.71025,2.4247 -8.74333,2.640529 -8.74333,1.826628 0,-0.278746 0.15649,-0.46444 0.60823,-0.721746 2.37331,-1.351801 14.58672,-5.339677 19.231,-6.279234 1.37807,-0.27879 1.72582,-0.299062 2.58498,-0.150693 3.65807,0.631716 19.18287,5.027753 22.5089,6.373672 1.21374,0.491152 2.01101,1.169667 1.64617,1.400971 -0.33375,0.211596 -1.3224,0.132586 -3.16675,-0.253075 z"
     id="path106"
     inkscape:connector-curvature="0" />
  <path
     style="opacity:1;fill:#63a94f;fill-opacity:0.94117647;stroke-width:1"
     d="m 210.6155,55.109701 c -1.30214,-0.305006 -5.53162,-1.58284 -14.09168,-4.257461 l -9.9861,-3.120195 -6.77613,2.222579 c -9.13842,2.997416 -13.1419,4.130362 -14.17706,4.011969 -0.31029,-0.03549 -0.44778,-0.143953 -0.48136,-0.379746 -0.0736,-0.516685 1.23299,-1.048961 8.5401,-3.479081 8.78421,-2.92136 12.827,-3.933833 14.58515,-3.652694 0.81648,0.13056 15.31049,4.590963 18.0518,5.555277 2.54112,0.893897 4.62278,1.761639 5.21804,2.175149 0.58223,0.404453 0.51492,0.938436 -0.12247,0.97166 -0.2509,0.01308 -0.59303,-0.0083 -0.76029,-0.04746 z"
     id="path108"
     inkscape:connector-curvature="0" />
  <path
     style="opacity:1;fill:#63a94f;fill-opacity:0.94117647;stroke-width:1"
     d="m 209.85521,47.049563 c -2.12058,-0.502408 -6.07898,-1.728496 -16.38752,-5.075921 l -6.95992,-2.260052 -4.06428,1.452737 c -9.76737,3.491258 -13.68297,4.745964 -15.86969,5.085244 -1.20152,0.186422 -1.50003,0.07432 -1.17746,-0.442187 0.45168,-0.723252 4.88804,-2.465404 16.47152,-6.468335 l 5.00923,-1.73105 8.75202,2.927432 c 12.18914,4.077105 16.36184,5.686088 16.25136,6.266486 -0.0412,0.216421 -0.21811,0.275114 -0.88631,0.294045 -0.45916,0.01301 -0.97169,-0.0088 -1.13895,-0.0484 z"
     id="path110"
     inkscape:connector-curvature="0" />
  <path
     style="opacity:1;fill:#63a94f;fill-opacity:0.94117647;stroke-width:1"
     d="M 72.827271,66.128072 C 71.76275,65.94045 68.89441,65.122429 57.813534,61.84631 l -8.285174,-2.449555 -6.920618,2.287798 c -9.822444,3.247077 -10.743558,3.524614 -11.745826,3.539091 -0.521835,0.0075 -0.574825,-0.0055 -0.595049,-0.146809 -0.04104,-0.286709 0.301265,-0.651142 0.934548,-0.994953 2.51914,-1.367642 12.181544,-4.998276 15.657604,-5.883321 1.97589,-0.503085 3.132231,-0.558347 4.756609,-0.227319 1.044747,0.212906 9.246105,2.62298 13.72279,4.032618 4.966213,1.563782 7.465776,2.500212 8.314209,3.114814 0.277072,0.20071 0.315078,0.264214 0.315078,0.52645 0,0.404715 -0.152345,0.539677 -0.594655,0.526803 -0.195638,-0.0057 -0.441239,-0.02543 -0.545779,-0.04386 z"
     id="path112"
     inkscape:connector-curvature="0" />
  <path
     style="opacity:1;fill:#63a94f;fill-opacity:0.94117647;stroke-width:1"
     d="m 72.637199,72.609426 c -3.027373,-0.580523 -6.620507,-1.514441 -20.36619,-5.293524 l -3.107617,-0.854373 -0.465745,0.157818 c -6.752264,2.28801 -14.721879,4.929588 -15.595508,5.169228 -2.398504,0.657921 -2.937994,0.645847 -3.052303,-0.06831 -0.04164,-0.260128 -0.0233,-0.293616 0.281779,-0.514614 0.405891,-0.294025 1.709049,-0.932572 2.960597,-1.45069 2.00744,-0.831045 4.112057,-1.578261 9.747071,-3.46057 l 5.83158,-1.947969 6.789227,1.837905 c 11.847178,3.207136 15.223532,4.231357 17.173967,5.209744 1.054045,0.528735 1.395184,0.882194 1.175314,1.217758 -0.146036,0.222878 -0.197839,0.222788 -1.372172,-0.0024 z"
     id="path114"
     inkscape:connector-curvature="0" />
  <path
     style="opacity:1;fill:#63a94f;fill-opacity:0.94117647;stroke-width:1"
     d="m 31.005824,79.119182 c -0.106971,-0.08414 -0.259472,-0.297087 -0.338891,-0.473207 l -0.144398,-0.320219 0.263411,-0.220376 c 0.729887,-0.610641 3.472709,-1.787386 6.763887,-2.90189 1.956183,-0.66243 11.472815,-3.623153 11.645874,-3.623153 0.181252,0 12.457605,3.171231 15.458451,3.993231 5.62595,1.541077 9.225469,2.768319 9.299772,3.170721 0.01333,0.0722 -0.06693,0.222442 -0.178355,0.33387 l -0.202595,0.202595 -0.924065,-0.04472 c -1.78099,-0.0862 -4.412885,-0.706615 -20.872448,-4.920249 l -2.917897,-0.746979 -7.536085,2.54548 c -9.64265,3.257018 -9.900622,3.332156 -10.316661,3.004901 z"
     id="path116"
     inkscape:connector-curvature="0" />
  <path
     style="opacity:1;fill:#63a94f;fill-opacity:0.94117647;stroke-width:1"
     d="m 71.123396,86.058825 c -1.919753,-0.333157 -5.232023,-1.139663 -16.81877,-4.095213 l -4.951475,-1.263023 -5.198391,1.5517 c -2.859115,0.853436 -5.780012,1.707521 -6.490883,1.897968 -3.560004,0.953749 -6.595058,1.501558 -7.029876,1.268851 l -0.169154,-0.09053 0.178212,-0.191968 c 0.249394,-0.268645 2.057504,-1.131028 3.637529,-1.73493 1.898371,-0.725576 3.997506,-1.41376 9.604067,-3.148612 l 4.928286,-1.524972 5.487681,1.296467 c 9.531873,2.251909 11.222281,2.672463 14.383071,3.578339 3.089937,0.885571 5.145168,1.638575 5.255249,1.92544 0.07037,0.183379 -0.110947,0.543491 -0.322083,0.639691 -0.298423,0.135971 -1.344722,0.09015 -2.493463,-0.109209 z"
     id="path118"
     inkscape:connector-curvature="0" />
  <path
     style="opacity:1;fill:#63a94f;fill-opacity:0.94117647;stroke-width:1"
     d="M 72.257054,93.166561 C 70.958242,92.993562 69.147469,92.587567 63.133579,91.12098 54.685305,89.060729 52.861453,88.718179 49.897541,88.635036 c -2.962833,-0.08311 -4.934912,0.267441 -9.914781,1.762444 -4.029264,1.209623 -7.329087,1.938763 -8.774139,1.938763 -0.863858,0 -1.062141,-0.09764 -0.87904,-0.432875 0.154478,-0.282827 0.766038,-0.640428 1.744751,-1.020219 3.668915,-1.423729 12.291524,-3.740582 15.94799,-4.285148 1.292742,-0.192531 2.375956,-0.137876 4.535507,0.228845 6.759839,1.147912 18.862068,4.248643 20.972157,5.373309 0.49619,0.264467 0.558726,0.446792 0.266654,0.777444 -0.20683,0.234151 -0.723884,0.297612 -1.539586,0.188962 z"
     id="path120"
     inkscape:connector-curvature="0" />
  <path
     style="opacity:1;fill:#63a94f;fill-opacity:0.94117647;stroke-width:1"
     d="m 71.724851,99.967729 c -1.313282,-0.24857 -4.941719,-1.035847 -14.303472,-3.10346 -4.27074,-0.943225 -7.830815,-1.714955 -7.911277,-1.714955 -0.08046,0 -1.222086,0.258307 -2.536943,0.574014 -13.661248,3.280179 -16.123081,3.803501 -16.753902,3.56143 -0.181438,-0.06962 -0.150075,-0.152797 0.202861,-0.537988 0.356389,-0.388957 0.755383,-0.594271 2.197993,-1.131039 3.702481,-1.377624 12.4739,-3.642484 15.763849,-4.07037 1.412671,-0.18373 2.96698,-0.0043 7.032679,0.812 4.047019,0.812518 16.171745,3.545805 16.986335,3.829244 0.54028,0.187992 1.114197,0.54451 1.374464,0.85382 0.144233,0.171411 0.190267,0.313004 0.190267,0.585224 0,0.19751 -0.04106,0.400161 -0.09123,0.450341 -0.144141,0.14414 -1.06218,0.0979 -2.15162,-0.108261 z"
     id="path122"
     inkscape:connector-curvature="0" />
  <path
     style="opacity:1;fill:#63a94f;fill-opacity:0.94117647;stroke-width:1"
     d="m 30.499662,106.27678 c -0.221277,-0.0488 -0.489554,-0.39387 -0.461069,-0.593 0.03284,-0.22955 0.915479,-0.63996 2.531344,-1.177 2.559397,-0.85063 4.563897,-1.37803 12.445528,-3.27452 l 4.158372,-1.00059 6.371639,1.22776 c 8.365154,1.61189 10.72964,2.10448 13.898506,2.89548 1.759974,0.43932 3.126234,0.83406 3.621395,1.04631 0.341774,0.14651 0.674242,0.47247 0.674242,0.66107 0,0.27856 -1.136651,0.3392 -2.775524,0.14807 -2.555791,-0.29807 -5.536159,-0.83656 -14.933468,-2.69816 l -6.950895,-1.37696 -6.734318,1.67387 c -6.651357,1.65326 -8.53275,2.09757 -9.832035,2.32198 -0.747323,0.12907 -1.757713,0.20217 -2.013717,0.14569 z"
     id="path124"
     inkscape:connector-curvature="0" />
  <path
     style="opacity:1;fill:#63a94f;fill-opacity:0.94117647;stroke-width:1"
     d="m 71.686837,113.26592 c -1.263401,-0.10248 -4.757405,-0.70235 -10.339939,-1.77521 -3.739359,-0.71864 -6.285001,-1.14527 -8.211128,-1.37613 -1.889788,-0.2265 -5.538454,-0.24604 -7.222751,-0.0387 -3.037134,0.37392 -6.024266,1.01983 -10.872141,2.35089 -2.046317,0.56185 -2.306146,0.61632 -2.96513,0.62158 -0.589717,0.005 -0.777111,-0.023 -1.021062,-0.15098 -0.374703,-0.19657 -0.491049,-0.36508 -0.37735,-0.54652 0.140234,-0.22379 1.266683,-0.73732 2.601019,-1.18577 2.329953,-0.78305 4.042057,-1.21491 11.808647,-2.97859 l 3.925793,-0.89149 6.338116,1.1549 c 6.8971,1.25676 11.115167,2.07819 13.48484,2.62606 2.982845,0.68963 5.02116,1.3049 5.112625,1.54326 0.0791,0.20614 -0.156386,0.50165 -0.476696,0.5982 -0.288939,0.0871 -1.052986,0.10784 -1.784843,0.0485 z"
     id="path126"
     inkscape:connector-curvature="0" />
  <path
     style="opacity:1;fill:#63a94f;fill-opacity:0.94117647;stroke-width:1"
     d="m 72.751242,120.2606 c -1.078303,-0.0972 -3.067612,-0.40776 -9.389577,-1.46574 -10.474002,-1.75283 -11.223933,-1.85167 -14.065357,-1.85384 -2.016217,-0.002 -2.787161,0.0773 -5.207984,0.53271 -2.606002,0.49022 -7.831321,1.62682 -10.479472,2.27946 -1.409007,0.34725 -1.490531,0.35878 -1.963544,0.27775 -0.666872,-0.11423 -0.966703,-0.33201 -1.254018,-0.91087 -0.248091,-0.49983 -0.244968,-0.70589 0.0107,-0.70589 0.243647,0 3.614448,-0.71149 11.405468,-2.40738 3.951605,-0.86016 7.27027,-1.56167 7.374809,-1.5589 0.21424,0.006 12.906945,2.22301 15.069657,2.63259 4.804861,0.90997 8.852915,1.91225 9.539088,2.36185 0.197609,0.12948 0.24883,0.56901 0.08166,0.70074 -0.11024,0.0869 -0.735076,0.15235 -1.121427,0.11752 z"
     id="path128"
     inkscape:connector-curvature="0" />
  <path
     style="opacity:1;fill:#63a94f;fill-opacity:0.94117647;stroke-width:1"
     d="m 71.45875,126.80267 c -2.990964,-0.29659 -4.828561,-0.55159 -10.377953,-1.44011 -6.559342,-1.05023 -8.272045,-1.27954 -10.406175,-1.39327 -2.540387,-0.13538 -4.362009,0.0704 -9.361355,1.05773 -4.737189,0.93552 -7.262212,1.32505 -9.204394,1.41993 -1.181021,0.0577 -1.510727,0.0105 -1.674628,-0.23963 -0.263232,-0.40175 0.05865,-0.64117 1.413416,-1.05133 1.932706,-0.58512 11.081925,-2.48809 14.027344,-2.91757 1.289545,-0.18803 4.932549,-0.18696 6.53849,0.002 4.703755,0.55324 15.933592,2.43017 19.881573,3.32296 1.378617,0.31175 1.657704,0.43467 1.782488,0.78504 0.08934,0.25087 0.0085,0.34166 -0.385664,0.43311 -0.279313,0.0648 -1.661166,0.0779 -2.233142,0.0212 z"
     id="path130"
     inkscape:connector-curvature="0" />
  <path
     style="opacity:1;fill:#63a94f;fill-opacity:0.94117647;stroke-width:1"
     d="m 67.657302,133.42415 c -13.122399,-2.03125 -14.7978,-2.23717 -18.20097,-2.23704 -2.624047,9e-5 -3.485745,0.0951 -8.941369,0.98628 -5.501889,0.89869 -7.401535,1.14246 -8.902949,1.14246 -1.01131,0 -1.381281,-0.0891 -1.346078,-0.32437 0.03458,-0.23108 0.341955,-0.42192 1.077855,-0.66921 1.929368,-0.64835 8.191825,-1.94762 12.612473,-2.61672 2.243803,-0.33961 3.243986,-0.42995 5.226,-0.472 2.909777,-0.0617 4.344723,0.0833 11.100229,1.12217 10.555689,1.62322 12.945476,2.08907 13.485138,2.62874 0.233223,0.23322 0.264642,0.59423 0.08239,0.94667 -0.10209,0.19742 -0.391465,0.38888 -0.552517,0.36556 -0.02864,-0.004 -2.566731,-0.39679 -5.640202,-0.87254 z"
     id="path132"
     inkscape:connector-curvature="0" />
  <path
     style="opacity:1;fill:#63a94f;fill-opacity:0.94117647;stroke-width:1"
     d="m 31.871209,140.23153 c -0.52763,-0.0705 -0.727146,-0.15538 -1.030931,-0.43871 -0.280186,-0.26133 -0.263908,-0.36359 0.08632,-0.54226 1.435245,-0.73221 7.486483,-1.84434 13.085697,-2.40497 1.684048,-0.16862 6.485003,-0.23188 8.616212,-0.11353 4.220658,0.23437 10.910101,0.9473 15.446954,1.64628 3.47484,0.53535 5.14473,0.93282 5.427071,1.29176 0.385551,0.49015 -0.03651,0.60444 -2.19584,0.59463 -2.354492,-0.0107 -5.139522,-0.282 -12.392721,-1.20722 -5.526078,-0.7049 -7.232307,-0.83394 -10.294608,-0.77856 -2.496138,0.0452 -3.387689,0.13418 -6.355734,0.63469 -5.23416,0.88265 -6.076842,1.01763 -7.235957,1.15899 -1.554495,0.18958 -2.551096,0.23975 -3.156463,0.1589 z"
     id="path134"
     inkscape:connector-curvature="0" />
  <path
     style="opacity:1;fill:#63a94f;fill-opacity:0.94117647;stroke-width:1"
     d="m 69.215895,146.99531 c -0.501791,-0.0376 -1.972951,-0.17058 -3.269245,-0.29556 -6.21143,-0.59887 -11.160337,-0.80627 -17.638719,-0.73921 -5.498898,0.0569 -8.161588,0.21211 -11.670445,0.68018 -1.566399,0.20895 -2.011649,0.23882 -3.611376,0.24232 -1.560139,0.003 -1.866032,-0.0147 -2.109803,-0.12519 -0.495135,-0.22432 -0.353501,-0.39877 0.583878,-0.71915 2.507462,-0.857 9.240212,-1.9012 14.373522,-2.22923 1.543981,-0.0987 6.066903,-0.0993 7.756252,-0.001 9.069093,0.52739 20.076825,2.07686 20.317761,2.85997 0.01447,0.047 -0.120518,0.14704 -0.299976,0.22224 -0.273252,0.1145 -0.585791,0.13967 -1.922893,0.15485 -0.878134,0.01 -2.007164,-0.0126 -2.508956,-0.0502 z"
     id="path136"
     inkscape:connector-curvature="0" />
  <path
     style="opacity:1;fill:#63a94f;fill-opacity:0.94117647;stroke-width:1"
     d="m 69.329939,153.94682 c -0.229988,-0.0157 -1.564296,-0.1303 -2.96513,-0.25471 -6.356909,-0.56456 -10.650716,-0.76047 -16.650342,-0.75969 -5.616844,7.3e-4 -9.275189,0.18105 -13.381097,0.65958 -1.256407,0.14643 -2.114424,0.20127 -3.231231,0.2065 -1.649543,0.008 -2.277102,-0.0786 -2.51946,-0.34678 -0.139351,-0.15418 -0.137414,-0.16007 0.124548,-0.37899 0.973688,-0.8137 6.427145,-1.61983 13.305068,-1.96676 8.194945,-0.41337 20.081553,0.1818 26.606771,1.33222 2.894672,0.51034 4.02495,1.06085 2.903244,1.41403 -0.271721,0.0856 -3.31727,0.15428 -4.192371,0.0946 z"
     id="path138"
     inkscape:connector-curvature="0" />
  <path
     style="opacity:1;fill:#63a94f;fill-opacity:0.94117647;stroke-width:1"
     d="m 70.69846,160.94185 c -0.146356,-0.0174 -0.967468,-0.11615 -1.824695,-0.21943 -4.572851,-0.55098 -10.866431,-0.75935 -21.060022,-0.69726 -9.004917,0.0548 -11.760297,0.19175 -14.293444,0.71017 -1.524352,0.31197 -2.785626,0.1723 -2.971073,-0.32901 -0.569445,-1.53936 10.896705,-2.6606 23.65095,-2.31277 8.550323,0.23319 15.258242,0.83932 18.240986,1.64828 1.396069,0.37862 1.890933,0.83458 1.197325,1.10318 -0.237536,0.092 -2.385807,0.16275 -2.940027,0.0968 z"
     id="path140"
     inkscape:connector-curvature="0" />
  <path
     style="opacity:1;fill:#63a94f;fill-opacity:0.94117647;stroke-width:1"
     d="m 72.104996,168.12836 c -1.563212,-0.17937 -7.930431,-0.78941 -9.807736,-0.93967 -2.398585,-0.19198 -3.993563,-0.2612 -8.213364,-0.35646 -4.312737,-0.0974 -9.12635,-0.0234 -13.378861,0.20557 -1.12903,0.0608 -3.250238,0.1322 -4.713795,0.15869 -3.407501,0.0617 -4.370606,-0.0423 -4.433034,-0.47844 -0.08301,-0.57997 1.893789,-1.07026 5.459425,-1.35405 2.941942,-0.23415 5.260767,-0.29939 10.568025,-0.29735 13.631204,0.005 25.25577,1.00669 26.300717,2.26577 0.125734,0.1515 0.04989,0.59001 -0.129234,0.74725 -0.216117,0.18971 -0.38087,0.19457 -1.652143,0.0487 z"
     id="path142"
     inkscape:connector-curvature="0" />
  <path
     style="opacity:1;fill:#63a94f;fill-opacity:0.94117647;stroke-width:1"
     d="m 49.48638,173.98267 c -9.031796,-0.0765 -16.450195,-0.3118 -18.11684,-0.57452 -0.391266,-0.0617 -0.319441,-0.18595 0.198639,-0.34367 1.374753,-0.41854 5.853688,-0.77001 12.406102,-0.97354 3.115492,-0.0968 11.305346,-0.0965 14.065357,3.9e-4 6.998798,0.24581 13.326175,0.75072 14.293445,1.14059 l 0.228087,0.0919 -0.266102,0.0945 c -1.316971,0.4675 -9.716268,0.67532 -22.808688,0.56436 z"
     id="path144"
     inkscape:connector-curvature="0" />
  <path
     style="opacity:1;fill:#63a94f;fill-opacity:0.94117647;stroke-width:1"
     d="m 50.93093,181.01323 c -10.044983,-0.074 -19.500791,-0.41433 -19.798976,-0.71251 -0.109326,-0.10933 0.356683,-0.27176 1.171881,-0.40847 3.38757,-0.56811 14.254053,-0.90837 23.530963,-0.73681 9.361119,0.17311 16.721511,0.58771 17.815128,1.00351 0.189418,0.072 0.19368,0.0831 0.06064,0.15755 -0.839283,0.46969 -11.081234,0.78295 -22.779636,0.69673 z"
     id="path146"
     inkscape:connector-curvature="0" />
  <path
     style="opacity:1;fill:#63a94f;fill-opacity:0.94117647;stroke-width:1"
     d="m 47.813743,187.97534 c -9.234487,-0.11833 -16.424121,-0.42736 -16.71523,-0.71847 -0.150288,-0.15029 0.792888,-0.36861 2.269728,-0.52539 4.100987,-0.43537 10.731046,-0.61252 20.603848,-0.55054 6.709535,0.0421 9.078002,0.0917 13.305068,0.27884 4.002239,0.17713 6.690548,0.45439 6.690548,0.69003 0,0.10173 -0.503377,0.21523 -1.482564,0.33427 -2.089646,0.25404 -5.638998,0.40572 -11.632431,0.4971 -5.146021,0.0785 -6.507561,0.0778 -13.038967,-0.006 z"
     id="path148"
     inkscape:connector-curvature="0" />
  <path
     style="opacity:1;fill:#63a94f;fill-opacity:0.94117647;stroke-width:1"
     d="m 46.217135,195.0044 c -8.422256,-0.17336 -13.261394,-0.39645 -14.882669,-0.6861 -0.947013,-0.16919 0.822391,-0.39524 4.352658,-0.55607 8.056985,-0.36707 25.365216,-0.36782 32.92054,-10e-4 2.804694,0.13601 5.051718,0.3487 5.299079,0.50158 0.368896,0.22799 -2.058001,0.46221 -6.667601,0.64349 -1.879353,0.0739 -18.445976,0.15156 -21.022007,0.0985 z"
     id="path150"
     inkscape:connector-curvature="0" />
  <path
     style="opacity:1;fill:#63a94f;fill-opacity:0.94117647;stroke-width:1"
     d="M 20.747433,202.03969 C 8.4829143,201.8914 0.6257167,201.66356 0.2349178,201.44485 c -0.35536286,-0.19887 4.827595,-0.39348 14.2781412,-0.53611 11.435908,-0.1726 11.524427,-0.17314 11.423351,-0.0699 -0.0596,0.0609 -0.09504,0.31821 -0.09504,0.69015 0,0.56799 -0.0072,0.5925 -0.171066,0.58056 -0.09408,-0.007 -2.309379,-0.0383 -4.922875,-0.0699 z"
     id="path152"
     inkscape:connector-curvature="0" />
  <path
     style="opacity:1;fill:#63a94f;fill-opacity:0.94117647;stroke-width:0.99999994"
     d="m 216.48914,200.73611 c -0.51946,-0.005 -6.27918,-0.0337 -8.98473,-0.0456 -1.24742,-0.005 -2.6105,-0.0119 -3.02908,-0.0143 l -0.76105,-0.004 v -0.0437 -0.0437 l 0.72409,0.004 c 0.39825,0.002 1.48917,0.009 2.42427,0.014 0.9351,0.005 1.96932,0.0113 2.29826,0.0135 0.32895,0.002 1.52193,0.01 2.65107,0.017 1.12914,0.007 2.44762,0.0161 2.92995,0.0197 0.48234,0.004 1.1756,0.009 1.54058,0.0112 l 0.66361,0.005 v 0.0359 0.0359 l -0.14616,-0.002 c -0.0804,-8.6e-4 -0.22025,-0.002 -0.31081,-0.003 z"
     id="path154"
     inkscape:connector-curvature="0" />
  <path
     style="opacity:1;fill:#63a94f;fill-opacity:0.94117647;stroke-width:0.99999994"
     d="m 203.71428,202.22435 v -0.0435 l 1.11386,-0.005 c 1.40409,-0.006 4.94035,-0.0237 7.49456,-0.0379 2.77953,-0.0155 3.53461,-0.02 4.06396,-0.0241 l 0.55945,-0.004 v 0.0367 0.0366 l -0.65353,0.005 c -0.35944,0.003 -1.04514,0.008 -1.52377,0.0112 -0.47864,0.004 -1.7941,0.0125 -2.92324,0.0197 -1.12914,0.007 -2.32212,0.0149 -2.65107,0.017 -0.32894,0.002 -1.36165,0.008 -2.2949,0.0135 -0.93325,0.005 -2.03173,0.0116 -2.44107,0.014 l -0.74425,0.004 z"
     id="path156"
     inkscape:connector-curvature="0" />
  <path
     style="opacity:1;fill:#63a94f;fill-opacity:0.94117647;stroke-width:0.99999994"
     d="m 216.95712,202.14151 c 0,-0.0129 1.11518,-0.0313 2.49315,-0.0411 7.42918,-0.0531 12.17074,-0.10147 14.72368,-0.15028 0.73921,-0.0141 1.7946,-0.0339 2.34531,-0.044 l 1.00129,-0.0183 v -0.46627 -0.46627 l -0.14112,-1.9e-4 c -0.0776,-1.1e-4 -1.11486,-0.0179 -2.30499,-0.0395 -3.77702,-0.0686 -8.09191,-0.11465 -15.46289,-0.16495 -1.74626,-0.0119 -2.65443,-0.0273 -2.65443,-0.0451 0,-0.0339 4.16525,-0.004 12.23054,0.0887 13.05548,0.14956 20.32336,0.36382 20.76727,0.61225 0.0391,0.0219 0.0323,0.0303 -0.0453,0.0556 -0.88369,0.288 -10.07458,0.50633 -28.46353,0.67616 -3.51519,0.0325 -4.48901,0.0332 -4.48901,0.003 z"
     id="path158"
     inkscape:connector-curvature="0" />
  <path
     style="opacity:1;fill:#63a94f;fill-opacity:0.94117647;stroke-width:1"
     d="m 6.1686458,201.8151 c -1.4014457,-0.0408 -2.0574859,-0.0628 -2.8945313,-0.0969 -2.0565212,-0.0839 -3.1753813,-0.17942 -3.2651114,-0.27864 -0.10850082,-0.11997 1.2408397,-0.23298 3.9701896,-0.3325 0.5977031,-0.0218 1.0482011,-0.0363 1.75,-0.0565 0.2588867,-0.007 0.4931152,-0.0143 0.5205078,-0.0152 l 0.049805,-0.002 v 0.0187 0.0187 l -0.047852,0.002 c -0.026318,0.001 -0.147168,0.005 -0.2685547,0.008 -0.9147336,0.0244 -2.1686127,0.0668 -2.9414062,0.0995 -1.802769,0.0764 -2.7463533,0.15481 -2.8183354,0.23434 -0.043593,0.0482 0.2238181,0.0935 0.8300541,0.14056 0.6082348,0.0473 1.6420255,0.0994 2.828125,0.1426 0.08916,0.003 0.2086914,0.008 0.265625,0.01 0.2433977,0.009 0.9958614,0.0339 1.4296875,0.0468 0.1450196,0.004 0.3172852,0.01 0.3828125,0.0117 0.065527,0.002 0.1687989,0.005 0.2294922,0.006 l 0.1103516,0.003 v 0.0209 0.0209 l -0.045898,-8.2e-4 c -0.025244,-4.5e-4 -0.063477,-0.001 -0.084961,-0.002 z"
     id="path160"
     inkscape:connector-curvature="0" />
</svg>
