<?xml version="1.0" encoding="UTF-8" standalone="no"?>
<!-- Created with Inkscape (http://www.inkscape.org/) -->

<svg
   xmlns:dc="http://purl.org/dc/elements/1.1/"
   xmlns:cc="http://creativecommons.org/ns#"
   xmlns:rdf="http://www.w3.org/1999/02/22-rdf-syntax-ns#"
   xmlns:svg="http://www.w3.org/2000/svg"
   xmlns="http://www.w3.org/2000/svg"
   xmlns:sodipodi="http://sodipodi.sourceforge.net/DTD/sodipodi-0.dtd"
   xmlns:inkscape="http://www.inkscape.org/namespaces/inkscape"
   version="1.1"
   id="svg2"
   width="101.80029"
   height="103.19005"
   viewBox="0 0 193.42054 196.06109"
   sodipodi:docname="doc-fond-8.svg"
   inkscape:version="0.92.2 (5c3e80d, 2017-08-06)">
  <metadata
     id="metadata8">
    <rdf:RDF>
      <cc:Work
         rdf:about="">
        <dc:format>image/svg+xml</dc:format>
        <dc:type
           rdf:resource="http://purl.org/dc/dcmitype/StillImage" />
        <dc:title></dc:title>
      </cc:Work>
    </rdf:RDF>
  </metadata>
  <defs
     id="defs6" />
  <sodipodi:namedview
     pagecolor="#ffffff"
     bordercolor="#666666"
     borderopacity="1"
     objecttolerance="10"
     gridtolerance="10"
     guidetolerance="10"
     inkscape:pageopacity="0"
     inkscape:pageshadow="2"
     inkscape:window-width="1366"
     inkscape:window-height="715"
     id="namedview4"
     showgrid="false"
     scale-x="1.9"
     fit-margin-top="0"
     fit-margin-left="0"
     fit-margin-right="0"
     fit-margin-bottom="0"
     inkscape:zoom="4"
     inkscape:cx="3.7814349"
     inkscape:cy="61.937877"
     inkscape:window-x="-8"
     inkscape:window-y="-8"
     inkscape:window-maximized="1"
     inkscape:current-layer="svg2" />
  <path
     style="fill:#727272"
     d="M 77.624382,194.87936 C 42.235382,186.9719 15.063103,162.10337 4.2891866,127.76176 1.0315466,117.37811 -0.76994139,101.10155 0.31709161,91.873633 l 0.82458699,-7 11.9913524,0.16672 c 12.613628,0.175372 26.608875,2.071769 39.98522,5.418114 10.88682,2.723544 26.358283,7.866925 27.055009,8.994256 0.938181,1.518007 -1.788224,1.060957 -9.623726,-1.613286 C 54.105593,92.227137 38.299284,89.091196 17.598253,87.334005 6.7189436,86.410524 4.1928716,86.447663 3.4996026,87.541289 c -0.464527,0.732789 -0.851486,4.54133 -0.859908,8.463425 l -0.015313,7.131076 9.7500004,0.68208 c 12.106309,0.84691 26.080388,2.99125 37.23056,5.71307 9.461217,2.30953 10.269519,2.62904 9.559106,3.77851 -0.271127,0.43869 -4.890174,-0.26542 -10.264548,-1.56469 -12.669622,-3.06292 -29.378664,-5.37113 -38.881457,-5.37113 H 2.4804686 l 0.712379,5.70168 c 1.406567,11.25779 0.883271,10.71388 11.0006264,11.43393 16.365809,1.16474 27.160318,3.46831 25.241948,5.38668 -0.214077,0.21408 -3.971638,-0.22602 -8.350135,-0.97799 -4.378498,-0.75197 -11.892305,-1.68478 -16.697348,-2.07291 l -8.7364444,-0.70569 1.87656,5.45432 c 3.7887684,11.01224 5.3267694,12.77998 11.1190974,12.77998 1.572558,0 3.137311,0.45 3.47723,1 0.37325,0.60393 -0.989616,1 -3.440983,1 -2.232459,0 -4.059017,0.3754 -4.059017,0.83422 0,0.79812 7.255302,11.65512 9.08887,13.60078 0.529541,0.56192 5.974644,-4.04763 13.646131,-11.55212 27.029757,-26.44134 55.485569,-43.57729 89.810287,-54.083321 l 10.45471,-3.199954 V 79.267054 c 0,-11.213852 -0.0841,-11.684185 -2,-11.18317 -1.1,0.287656 -2,0.115079 -2,-0.383506 0,-0.498585 4.5,-3.12062 10,-5.826745 l 10,-4.920227 10,4.920227 c 5.5,2.706125 10,5.32816 10,5.826745 0,0.498585 -0.9,0.671162 -2,0.383506 -1.88793,-0.493705 -2,-0.03068 -2,8.263133 v 8.786145 l 10.85763,-0.514631 c 8.08436,-0.383183 11.0555,-0.194471 11.63231,0.738827 1.44494,2.337964 1.78017,18.742552 0.55432,27.126182 -3.69645,25.28013 -16.24969,47.53694 -35.41165,62.78457 -6.7543,5.37456 -8.13211,6.15473 -8.13352,4.60552 -5.1e-4,-0.55 3.24623,-3.58039 7.21497,-6.7342 8.61889,-6.84912 19.17658,-19.10231 16.87292,-19.58263 -2.83103,-0.59028 -19.03436,2.9221 -29.41236,6.37569 -18.10993,6.02662 -39.02435,17.99423 -53.174618,30.42749 l -4.5,3.95397 9.11901,0.0298 c 11.070628,0.0362 23.753588,-2.0654 33.346098,-5.52561 3.92751,-1.41673 7.67956,-2.39386 8.3379,-2.17141 1.87844,0.63473 -4.29205,3.43433 -13.95931,6.33346 -7.4777,2.2425 -11.16061,2.70616 -23.843698,3.00183 -10.605202,0.24723 -16.904413,-0.0758 -21.5,-1.1027 z m 11.86421,-6.37837 C 103.967,175.98311 123.32832,164.6616 140.62438,158.5994 c 7.67985,-2.69176 19.85893,-5.70446 31.98071,-7.91096 4.89865,-0.8917 6.06365,-2.38272 11.54388,-14.7745 l 2.57541,-5.82346 -8.8,0.70693 c -40.48866,3.25257 -79.305918,21.21805 -110.049998,50.93355 -2.8875,2.79089 -5.25,5.41427 -5.25,5.82973 0,1.03954 14.882931,5.41809 19.364213,5.69694 1.025317,0.0638 4.400317,-2.07669 7.499997,-4.75664 z m -24.822418,-6.7176 c 7.036695,-7.2451 20.810535,-18.52789 30.016318,-24.58776 23.969448,-15.77832 55.719498,-26.81375 82.114238,-28.5406 4.76979,-0.31206 9.16363,-0.87101 9.76409,-1.24212 1.1149,-0.68905 4.01481,-12.7219 4.0462,-16.78928 0.0208,-2.69101 -2.06737,-2.82908 -18.12669,-1.19853 -15.08236,1.53134 -28.57295,4.48326 -43.72097,9.56672 -7.35076,2.46681 -13.63773,4.2124 -13.97104,3.87908 -1.00133,-1.00132 1.75134,-2.23241 14.33606,-6.41155 15.85905,-5.26648 35.0815,-9.06274 49.58083,-9.79176 13.74754,-0.69122 13.26855,-0.20125 12.263,-12.543957 -0.41163,-5.052662 -1.05287,-7.75 -1.84239,-7.75 -0.66605,0 -6.9699,0.467636 -14.00854,1.039191 -42.33675,3.437847 -82.033348,18.531496 -115.492898,43.913326 -8.412057,6.38124 -33,29.62584 -33,31.19708 0,0.93032 10.301313,10.87989 12.591489,12.16154 1.134448,0.63487 3.81567,-1.49945 10.710884,-8.52611 9.808493,-9.99547 20.650795,-19.00987 32.127706,-26.71128 10.463701,-7.02152 20.322719,-12.28274 20.990859,-11.20167 0.32325,0.52302 -2.45173,2.63992 -6.166608,4.70422 -16.139474,8.96845 -31.622095,20.79791 -45.212513,34.5445 -7.533845,7.62041 -8.893618,9.45597 -7.808675,10.54091 1.626725,1.62673 13.883434,8.28451 15.30865,8.31558 0.572986,0.0125 3.047986,-2.0429 5.5,-4.56753 z m 83.330356,-92.942856 4.62785,-0.693989 v -5.327439 c 0,-2.930091 0.45,-5.605554 1,-5.945473 0.62136,-0.384021 1,1.51004 1,5.002256 v 5.62029 l 4.75,-0.635923 c 7.61349,-1.019281 7.25,-0.455722 7.25,-11.240607 v -9.816753 l -6.5,-3.205295 -6.5,-3.205295 -6.5,3.205295 -6.5,3.205295 v 12.392357 c 0,10.09141 0.25477,12.294592 1.37215,11.865814 0.75468,-0.289599 3.45468,-0.838839 6,-1.220533 z M 41.782799,44.805195 C 24.113011,35.867948 24.591441,10.947009 42.607612,1.8415064 47.697799,-0.73111056 57.969651,-0.58511385 63.219062,2.1344627 75.759969,8.6315631 80.234218,24.382969 72.905838,36.236346 66.525309,46.55661 52.746067,50.350335 41.782799,44.805195 Z M 64.831286,41.83719 c 2.796858,-1.938757 5.251531,-4.866013 7.043096,-8.399061 4.72877,-9.325352 3.295819,-17.9008 -4.20767,-25.1806455 -9.153884,-8.88105217 -20.930776,-8.88105217 -30.08466,0 -7.30972,7.0918525 -8.857346,15.4943545 -4.555512,24.7331795 4.060466,8.720452 10.567896,12.502554 20.804746,12.091665 5.555216,-0.222976 7.4441,-0.78022 11,-3.245138 z"
     id="path12"
     inkscape:connector-curvature="0" />
  <path
     style="opacity:1;fill:#63a94f;fill-opacity:0.94117647;stroke-width:1.89999986"
     d="M 86.232962,195.81287 C 81.993375,195.51575 78.52718,194.98331 74.902936,194.07245 45.879159,186.77813 22.598508,167.90257 9.8243918,141.30786 3.7158233,128.59031 0.71864173,115.88796 0.22999001,100.64586 0.07150047,95.702225 0.48657745,89.279897 1.1899013,85.793511 l 0.1694992,-0.840208 8.9954445,0.187264 c 11.99113,0.249616 18.42341,0.814739 28.497054,2.503671 10.205988,1.711123 19.467002,4.07622 31.090455,7.939948 7.295363,2.425038 10.223496,3.639492 10.223496,4.240237 0,0.659857 -3.1141,-0.01786 -9.24512,-2.011877 C 63.507177,95.40136 60.00019,94.373563 54.597312,93.028612 41.869287,89.860193 27.597316,87.802795 11.116353,86.76055 4.317863,86.330615 3.6487486,86.488596 3.0845913,88.656885 2.6383752,90.371878 2.2308703,103.24511 2.6227097,103.24791 c 0.1428401,10e-4 3.6827468,0.26014 7.8664623,0.57584 16.098686,1.21479 28.011484,3.07292 41.619074,6.49164 2.921326,0.73395 5.684028,1.52709 6.139338,1.76254 0.993738,0.51388 1.100277,1.28037 0.177783,1.27906 -1.029649,-10e-4 -5.273573,-0.79045 -10.235472,-1.90288 -14.52089,-3.2555 -26.694018,-4.88567 -39.0236848,-5.22592 -6.4837332,-0.17892 -6.7171164,-0.16619 -6.7159565,0.36639 0.00182,0.83939 1.3790599,11.45779 1.6108781,12.41982 0.3341233,1.38658 1.2375693,2.96936 1.8960544,3.32177 1.2010055,0.64276 2.4453042,0.84195 8.0331808,1.28603 16.222607,1.28922 26.376541,3.2975 25.319531,5.00777 -0.198389,0.321 -0.828007,0.25654 -8.114297,-0.83074 -3.01911,-0.45053 -7.179414,-1.02857 -9.245123,-1.28454 -4.27418,-0.52964 -16.1206878,-1.56125 -16.2927843,-1.4188 -0.2204959,0.18251 3.2221306,9.8179 4.4271983,12.39107 2.126574,4.54084 3.49573,5.57973 7.837532,5.94694 2.493244,0.21087 4.17251,0.67358 4.17251,1.1497 0,0.29771 -1.113744,0.49278 -4.107389,0.71941 -1.385112,0.10486 -2.750212,0.36445 -3.033556,0.57687 -0.489463,0.36695 -0.480673,0.44819 0.176134,1.62786 0.966452,1.73582 5.633372,8.70482 7.167765,10.70344 0.701453,0.91368 1.443278,1.66123 1.6485,1.66123 0.964828,0 5.162901,-3.5581 12.594047,-10.67418 17.19445,-16.46541 30.435238,-26.65021 46.956526,-36.1189 14.9808,-8.58581 28.458789,-14.151197 50.767289,-20.96305 l 3.3947,-1.036564 -0.002,-10.456933 c -0.001,-10.262137 -0.17662,-12.590864 -0.95092,-12.650553 -0.19116,-0.01482 -0.9145,-0.004 -1.60743,0.02379 -2.86519,0.115026 -0.34411,-1.534369 10.78877,-7.058513 l 7.79556,-3.868103 8.23907,4.157264 c 8.08337,4.078704 11.56153,6.059018 11.56153,6.582638 0,0.14478 -0.642,0.201546 -1.42667,0.126141 -0.78467,-0.07539 -1.58658,-0.03825 -1.78203,0.08254 -0.58878,0.363889 -0.79278,2.94662 -0.81495,10.317613 l -0.0211,7.014113 1.80569,-0.153976 c 4.25177,-0.362578 16.5368,-0.74156 18.144,-0.559726 2.23752,0.253146 2.79916,0.73457 3.17323,2.719988 0.51883,2.753683 0.8041,12.220496 0.53916,17.891811 -1.0777,23.06924 -11.39527,46.12428 -28.13367,62.86582 -5.28861,5.2896 -14.01706,12.2714 -15.34136,12.2714 -1.32621,0 0.54178,-1.98311 6.37863,-6.77172 4.36127,-3.57803 12.42603,-11.66553 14.85466,-14.89653 1.85466,-2.46741 2.99598,-4.54397 2.73212,-4.97091 -0.78381,-1.26823 -18.33076,2.30107 -29.43209,5.98691 -15.37938,5.10623 -32.09232,13.95948 -45.936693,24.33379 -4.186201,3.13695 -11.989765,9.80533 -11.989765,10.24563 0,0.45762 15.634538,0.0899 20.368158,-0.47899 8.24555,-0.99102 13.67281,-2.20014 22.11051,-4.92597 5.86775,-1.89559 8.3695,-2.47018 8.3695,-1.92226 0,0.89343 -7.07396,3.78627 -14.56181,5.95495 -5.13701,1.48781 -8.04559,2.04358 -12.88465,2.46198 -3.48222,0.30107 -20.664127,0.60283 -23.401708,0.41097 z m -2.802526,-2.89739 c 1.579855,-0.80393 4.416996,-2.87582 7.793771,-5.69161 15.660773,-13.05907 35.931993,-24.3625 53.368583,-29.75884 5.77904,-1.78852 14.58597,-3.96299 22.90286,-5.6548 3.84963,-0.7831 7.35006,-1.55882 7.77873,-1.72384 1.315,-0.50623 3.09092,-2.34058 4.34656,-4.48959 1.05132,-1.79931 7.15271,-14.92787 7.15271,-15.39071 0,-0.21001 -4.49342,0.0609 -10.68967,0.64437 -38.26426,3.60347 -74.04395,19.70376 -104.05795,46.82441 -4.353591,3.9339 -9.483691,9.23804 -9.483691,9.80543 0,0.55767 1.026592,1.02956 5.200381,2.39045 4.672596,1.52352 6.268267,1.96673 10.040435,2.78888 3.789165,0.82583 4.466836,0.85654 5.647281,0.25585 z m -23.021657,-7.10056 c 0.458404,-0.35046 2.648849,-2.38426 4.867654,-4.51954 8.96342,-8.62603 19.948329,-17.57131 29.046009,-23.65288 13.513928,-9.03373 32.102528,-17.62427 48.536888,-22.43086 12.44025,-3.63843 21.76689,-5.41107 33.65802,-6.39709 5.25857,-0.43604 8.6424,-0.84894 9.77226,-1.19242 0.73745,-0.22419 1.44527,-2.03546 2.61634,-6.69512 0.88795,-3.53309 1.91245,-9.20114 1.91245,-10.58065 0,-0.88903 -1.27526,-1.82243 -2.77096,-2.02814 -1.63194,-0.22445 -7.65719,0.16693 -15.57483,1.0117 -15.60095,1.66452 -27.07532,4.15762 -43.33651,9.41596 -6.11338,1.97687 -11.80113,3.66017 -13.36209,3.95454 -0.72953,0.13758 -0.93895,0.0778 -0.93895,-0.26788 0,-0.71321 3.72063,-2.25184 12.52818,-5.1809 17.36964,-5.77648 33.62836,-9.19394 48.72074,-10.24073 10.70226,-0.74229 11.89805,-0.87205 13.15326,-1.42729 1.80498,-0.79843 2.15896,-1.66852 2.15896,-5.3066 0,-5.6613 -0.99345,-13.053719 -1.84976,-13.764399 -0.43625,-0.362054 -15.69516,0.74917 -23.57431,1.716787 -29.21539,3.587867 -57.74117,13.006502 -82.62827,27.282192 -10.651435,6.10985 -21.952992,13.88809 -28.724189,19.76926 -12.087252,10.49848 -28.191087,26.07695 -28.191087,27.27138 0,0.39612 6.729458,7.20679 9.678486,9.7953 1.430105,1.25526 2.890633,2.3557 3.24562,2.44541 1.186949,0.29995 3.244848,-1.32043 9.734077,-7.6646 10.437918,-10.20458 15.939563,-15.04011 24.065992,-21.15217 10.918991,-8.2124 25.466897,-17.03486 28.825801,-17.48118 l 1.15564,-0.15356 -1.1043,0.97635 c -1.18335,1.04623 -3.310858,2.39428 -10.163193,6.43967 -10.966455,6.47422 -21.667791,14.41269 -31.924558,23.68228 -4.718129,4.26403 -14.370929,14.07247 -15.54629,15.79696 -1.400841,2.05532 -1.274153,2.55494 1.02856,4.05637 4.263022,2.77959 12.620669,7.15037 13.684264,7.15641 0.256649,0.001 0.841691,-0.28409 1.300096,-0.63456 z M 144.17295,89.689377 c 1.42266,-0.305647 3.62674,-0.699809 4.89794,-0.875917 3.95954,-0.548539 3.50871,0.0987 3.67835,-5.280835 0.10269,-3.256712 0.28164,-5.009916 0.58289,-5.71066 l 0.4347,-1.011186 0.32445,0.81331 c 0.19239,0.482277 0.32445,2.687136 0.32445,5.417063 0,2.532066 0.0975,4.600945 0.21668,4.597514 0.11917,-0.0034 2.34135,-0.312045 4.93817,-0.685801 3.45936,-0.497903 4.92674,-0.831408 5.48929,-1.247609 1.54832,-1.145506 1.60964,-1.538722 1.72511,-11.061301 l 0.10686,-8.811757 -6.60019,-3.281935 -6.60018,-3.281936 -6.59462,3.199038 -6.59463,3.199037 0.0951,11.639299 c 0.072,8.806151 0.18551,11.79753 0.46644,12.289347 0.20422,0.357527 0.40532,0.650047 0.44689,0.650047 0.0416,0 1.23959,-0.250074 2.66226,-0.555718 z"
     id="path14"
     inkscape:connector-curvature="0" />
  <path
     style="opacity:1;fill:#63a94f;fill-opacity:0.94117647;stroke-width:1.89999986"
     d="M 48.821902,47.000309 C 45.099845,46.425646 41.122697,44.716737 37.958675,42.332573 36.336265,41.110051 33.938739,38.568341 32.813211,36.877666 25.261905,25.53472 28.925412,10.100352 40.883552,2.8772943 44.198085,0.87522188 47.33753,0.12655761 52.433277,0.12302938 59.731515,0.11797614 64.42273,1.9228107 69.095136,6.5332857 c 3.512205,3.4656515 5.830079,7.7667533 6.82868,12.6714573 0.3733,1.833492 0.511954,5.443627 0.280671,7.307818 -0.492751,3.97167 -1.94297,7.763728 -4.16433,10.888954 -1.253485,1.763529 -3.635943,4.148293 -5.37806,5.383272 -2.316936,1.642462 -5.963273,3.286089 -8.595075,3.874326 -2.640174,0.590107 -6.669726,0.73882 -9.24512,0.341196 z m 6.45287,-1.946037 c 2.731801,-0.187967 4.652061,-0.564059 6.188384,-1.211999 1.43594,-0.605602 4.063463,-2.335698 5.371911,-3.537144 3.411302,-3.132328 6.228234,-8.137226 7.363644,-13.083127 0.420042,-1.829731 0.522023,-5.309432 0.208392,-7.110594 C 73.763907,16.417584 72.105101,13.107905 69.26588,9.8535541 65.46569,5.4977333 60.463965,2.5639984 55.496563,1.7772389 53.240095,1.4198491 50.192252,1.5636043 48.027399,2.1295311 c -2.743411,0.7171717 -5.028602,1.8043729 -7.54971,3.5918476 -1.621405,1.1495822 -4.894877,4.4354673 -6.0703,6.0933173 -4.761858,6.716259 -5.054807,14.139058 -0.878868,22.268914 2.877208,5.601441 6.851432,8.928358 12.332052,10.323446 2.829381,0.720218 5.592555,0.910182 9.414199,0.647216 z"
     id="path16"
     inkscape:connector-curvature="0" />
  <path
     style="opacity:1;fill:#63a94f;fill-opacity:0.94117647;stroke-width:1.89999974"
     d="m 134.4569,68.213166 c -0.0211,-0.0028 -0.09,-0.01178 -0.15322,-0.01963 -0.40445,-0.05043 -0.67033,-0.239706 -0.67033,-0.477233 0,-0.06806 0.0453,-0.139935 0.16073,-0.254839 0.78382,-0.780522 4.48074,-2.908193 8.85358,-5.095454 0.36165,-0.180899 2.15102,-1.063728 3.97636,-1.961845 l 3.3188,-1.63294 0.14581,0.0036 0.14579,0.0036 -3.03614,1.506639 c -2.83549,1.407078 -4.7215,2.353114 -6.00804,3.013689 -4.70994,2.418307 -6.84342,3.70082 -7.14372,4.294347 -0.0705,0.139384 -0.0353,0.248574 0.10067,0.312001 0.19281,0.08995 0.42685,0.108566 1.10412,0.08782 0.27937,-0.0085 0.57115,-0.01482 0.64839,-0.01387 0.1236,0.0014 0.13355,0.003 0.083,0.01387 -0.0316,0.0068 -0.18673,0.04311 -0.34474,0.08079 -0.34178,0.08149 -0.38235,0.08953 -0.57957,0.114836 -0.15086,0.01936 -0.52819,0.03487 -0.60148,0.0247 z"
     id="path18"
     inkscape:connector-curvature="0" />
  <path
     style="opacity:1;fill:#63a94f;fill-opacity:0.94117647;stroke-width:1.89999974"
     d="m 140.54061,70.068605 c -1.7e-4,-0.142196 -0.009,-1.189142 -0.0186,-2.326527 -0.0101,-1.137384 -0.0161,-2.070141 -0.0135,-2.072792 0.005,-0.0046 2.36919,-1.154364 2.6306,-1.279091 0.0702,-0.0335 2.47349,-1.199024 5.34058,-2.59004 l 5.21289,-2.52912 1.91492,0.952838 1.91493,0.952839 v 0.06169 c 0,0.03393 -0.004,0.0616 -0.01,0.06146 -0.005,-1.16e-4 -0.88219,-0.430823 -1.94871,-0.957118 l -1.93913,-0.956899 -6.5038,3.207117 -6.50381,3.207116 v 2.263538 2.263538 h -0.0383 -0.0383 z"
     id="path20"
     inkscape:connector-curvature="0" />
  <path
     style="opacity:1;fill:#63a94f;fill-opacity:0.94117647;stroke-width:1.89999986"
     d="m 157.1203,58.802403 c -1.20012,-0.605967 -2.46431,-1.244127 -2.80932,-1.418137 l -0.62729,-0.316378 -1.72423,0.855488 -1.72423,0.855486 -0.1445,-0.0055 c -0.0795,-0.003 -0.14347,-0.0063 -0.14223,-0.0074 0.001,-0.0011 0.82884,-0.40853 1.8391,-0.905446 l 1.83684,-0.903486 0.12996,0.06424 c 0.0715,0.03534 1.35067,0.664695 2.84266,1.398581 l 2.71269,1.334336 0.002,0.07547 c 0.001,0.04151 -5e-4,0.07522 -0.004,0.07494 -0.003,-2.93e-4 -0.98774,-0.496324 -2.18785,-1.102289 z"
     id="path22"
     inkscape:connector-curvature="0" />
  <path
     style="opacity:1;fill:#63a94f;fill-opacity:0.94117647;stroke-width:1.89999986"
     d="m 166.62308,67.939796 -0.002,-2.142191 -2.46282,-1.214353 -2.46281,-1.214351 0.11558,-0.0021 0.11558,-0.0021 2.13571,1.062345 c 1.17465,0.584288 2.2919,1.139388 2.48278,1.233552 l 0.34707,0.171209 -0.004,0.226889 c -0.004,0.227835 -0.0479,3.828635 -0.0479,3.955467 v 0.06772 h -0.1076 -0.10759 z"
     id="path24"
     inkscape:connector-curvature="0" />
  <path
     style="opacity:1;fill:#63a94f;fill-opacity:0.94117647;stroke-width:1.89999986"
     d="m 169.47444,76.297726 c 0.006,-0.343486 0.0169,-1.002379 0.023,-1.464208 0.0383,-2.863583 0.16066,-4.865083 0.35689,-5.839141 0.12979,-0.644248 0.29153,-0.949221 0.53883,-1.015973 0.2499,-0.06745 0.81382,-0.09566 1.28697,-0.06437 1.04875,0.06935 1.065,0.06992 1.3203,0.04682 0.28588,-0.02588 0.38687,-0.04904 0.45533,-0.104481 l 0.0471,-0.03817 -0.0467,-0.09656 c -0.29912,-0.617901 -3.65659,-2.515165 -11.18054,-6.317983 -3.15526,-1.594757 -2.95422,-1.488397 -2.96034,-1.566156 -0.003,-0.03625 -4e-4,-0.06591 0.006,-0.06591 0.0321,0 5.14937,2.529302 6.13522,3.032432 4.2656,2.176965 7.3993,4.010537 8.03741,4.702809 0.11319,0.122797 0.13519,0.181222 0.10728,0.284882 -0.0677,0.251568 -0.36811,0.392031 -0.88138,0.41216 -0.34889,0.01368 -0.63374,-0.02107 -1.12481,-0.137256 -0.45653,-0.107996 -0.66923,-0.138073 -0.85469,-0.12084 -0.71132,0.06612 -0.95873,0.808609 -1.064,3.193107 -0.032,0.724446 -0.0624,2.867744 -0.0629,4.43461 l -4.5e-4,1.348751 h -0.0749 -0.0749 z"
     id="path26"
     inkscape:connector-curvature="0" />
  <path
     style="opacity:1;fill:#63a94f;fill-opacity:0.94117647;stroke-width:1.89999986"
     d="m 166.62746,72.830327 v -2.749805 h 0.10391 0.10391 v 0.187397 c 0,0.103075 -0.003,0.441231 -0.007,0.751465 -0.0108,0.808381 -0.0353,2.858046 -0.0446,3.718358 -0.004,0.404121 -0.01,0.75898 -0.012,0.788575 l -0.004,0.05381 h -0.0699 -0.0699 z"
     id="path28"
     inkscape:connector-curvature="0" />
</svg>
