<?xml version="1.0" encoding="UTF-8" standalone="no"?>
<!-- Created with Inkscape (http://www.inkscape.org/) -->

<svg
   xmlns:dc="http://purl.org/dc/elements/1.1/"
   xmlns:cc="http://creativecommons.org/ns#"
   xmlns:rdf="http://www.w3.org/1999/02/22-rdf-syntax-ns#"
   xmlns:svg="http://www.w3.org/2000/svg"
   xmlns="http://www.w3.org/2000/svg"
   xmlns:sodipodi="http://sodipodi.sourceforge.net/DTD/sodipodi-0.dtd"
   xmlns:inkscape="http://www.inkscape.org/namespaces/inkscape"
   version="1.1"
   id="svg2"
   width="100.77843"
   height="100.75787"
   viewBox="0 0 201.55687 201.51574"
   sodipodi:docname="doc-fond-3.png"
   inkscape:version="0.92.2 (5c3e80d, 2017-08-06)">
  <metadata
     id="metadata8">
    <rdf:RDF>
      <cc:Work
         rdf:about="">
        <dc:format>image/svg+xml</dc:format>
        <dc:type
           rdf:resource="http://purl.org/dc/dcmitype/StillImage" />
        <dc:title></dc:title>
      </cc:Work>
    </rdf:RDF>
  </metadata>
  <defs
     id="defs6" />
  <sodipodi:namedview
     pagecolor="#ffffff"
     bordercolor="#666666"
     borderopacity="1"
     objecttolerance="10"
     gridtolerance="10"
     guidetolerance="10"
     inkscape:pageopacity="0"
     inkscape:pageshadow="2"
     inkscape:window-width="1366"
     inkscape:window-height="715"
     id="namedview4"
     showgrid="false"
     scale-x="2"
     fit-margin-top="0"
     fit-margin-left="0"
     fit-margin-right="0"
     fit-margin-bottom="0"
     inkscape:zoom="1.6441103"
     inkscape:cx="266.5281"
     inkscape:cy="-31.857607"
     inkscape:window-x="-8"
     inkscape:window-y="-8"
     inkscape:window-maximized="1"
     inkscape:current-layer="svg2" />
  <path
     style="fill:#6f6f6f"
     d="M 87.07727,200.93852 C 42.369223,194.62574 7.3149626,159.71485 0.77524865,114.98948 -0.79814735,104.22896 0.09414265,87.110364 2.8109296,75.934843 7.4884756,56.693732 21.266075,35.125605 36.838886,22.665816 78.589662,-10.738934 137.67351,-6.8169294 173.94131,31.766717 c 23.08728,24.561497 32.29332,57.297104 25.35746,90.168123 -8.04473,38.12628 -38.45567,68.96461 -76.36331,77.43652 -8.88134,1.98488 -27.222811,2.78648 -35.85819,1.56716 z m 36.92575,-3.8673 c 36.27778,-9.53056 63.42265,-36.5124 72.45266,-72.0175 6.09873,-23.9796 3.27271,-48.192416 -8.15402,-69.862121 C 182.84267,44.839158 177.02367,37.24877 168.07329,28.805437 159.08619,20.327461 153.83857,16.756796 142.5058,11.408431 129.56595,5.3016199 118.9345,2.7723177 103.82759,2.206597 82.790731,1.4188127 64.195472,6.5839209 46.693221,18.076512 25.664821,31.884496 11.258752,51.9984 4.6630966,76.75941 c -3.11968,11.71171 -3.582883,31.00439 -1.039459,43.29405 8.3501334,40.34729 39.4213394,70.61997 80.5380864,78.46824 9.939776,1.89729 29.858486,1.17212 39.841296,-1.45048 z M 81.827587,191.38198 C 46.597203,183.82716 19.188846,157.2159 10.688567,122.31183 7.5306746,109.34481 7.7109286,90.945967 11.124015,77.865014 18.251086,50.549888 36.320318,28.982315 62.208754,16.889884 76.749102,10.098119 91.903114,7.6481512 110.24152,9.1243686 c 36.60189,2.9464034 69.10687,30.3914474 79.72025,67.3104744 2.94695,10.251061 3.6187,30.280597 1.40861,41.999997 -6.78325,35.96933 -35.96667,65.63176 -71.75063,72.92832 -9.48976,1.93502 -28.811465,1.94464 -37.792163,0.0188 z m 27.728323,-0.52312 c 23.20306,-2.5873 42.15089,-12.20681 58.06659,-29.47948 11.27983,-12.24154 19.27204,-28.45353 22.21716,-45.06688 2.03439,-11.47597 0.85435,-30.933096 -2.5095,-41.377657 C 182.3853,59.581288 176.60648,49.781164 165.88894,38.573342 151.05868,23.064668 133.01063,13.912648 111.50523,10.995811 c -10.00385,-1.3568504 -9.67764,-1.3834964 -9.67764,0.7905 0,1.608053 1.105,1.929449 8.4049,2.44461 28.03276,1.978301 55.31084,21.125727 68.97002,48.412435 6.51987,13.024635 8.13092,20.656892 8.0827,38.291484 -0.0501,18.32462 -1.22418,23.68486 -8.43289,38.5 -8.63642,17.74933 -21.78035,30.89249 -39.52473,39.52243 -13.00174,6.32338 -19.45571,7.98318 -33.74966,8.67961 -27.66409,1.34785 -49.699584,-7.3066 -68.371694,-26.85301 -15.747818,-16.48519 -23.56131,-36.31095 -23.586983,-59.84903 -0.032,-29.340064 13.245786,-54.9642 37.208334,-71.806493 3.575,-2.512721 6.695,-4.716691 6.933333,-4.89771 0.238334,-0.18102 -0.02467,-0.787131 -0.584453,-1.346914 C 55.714516,21.421772 44.785085,28.952446 36.766666,36.946629 22.492891,51.177261 14.027332,68.297883 10.813047,89.434843 7.8319326,109.03848 13.47299,133.10298 25.176096,150.70696 c 14.951532,22.49032 41.376447,38.21044 68.151491,40.54318 2.2,0.19167 4.580236,0.42414 5.289414,0.5166 0.709176,0.0925 5.631689,-0.31609 10.938909,-0.90788 z m -9.728323,-8.92402 c 0,-2.25347 0.482493,-4 1.105043,-4 0.69181,0 0.95783,1.54354 0.71138,4.12777 l -0.39364,4.12777 8.03861,-0.50538 c 5.24356,-0.32966 11.34179,-1.6118 17.53861,-3.68745 8.86318,-2.96875 21.23502,-9.01593 22.44241,-10.96953 0.29169,-0.47196 -0.36353,-1.99448 -1.45604,-3.38337 -1.0925,-1.3889 -1.98637,-3.01679 -1.98637,-3.61754 0,-2.00827 1.55078,-1.12275 3.34093,1.90773 0.97468,1.65 2.18024,3 2.67902,3 0.49878,0 3.79022,-2.69722 7.3143,-5.99383 7.66343,-7.16876 15.90011,-18.77651 19.78347,-27.88035 l 2.82632,-6.62582 -3.46692,-1.5 c -5.99604,-2.59425 -3.50839,-3.86791 2.81514,-1.44134 1.10398,0.42363 1.8235,-0.77749 2.8429,-4.74574 1.82639,-7.1096 1.82397,-32.525304 -0.004,-39.641557 -1.44037,-5.608049 -1.79114,-5.774101 -7.53849,-3.568636 -0.87586,0.33619 -1.59267,0.142236 -1.59267,-0.431007 0,-0.573244 1.54319,-1.600285 3.42931,-2.282314 l 3.4293,-1.240053 -1.86498,-4.908237 c -3.17658,-8.360069 -9.91215,-18.649308 -17.29868,-26.425401 -9.52539,-10.027757 -10.1896,-10.324971 -13.75647,-6.155569 -1.57146,1.836921 -2.87549,2.911031 -2.89784,2.386909 -0.0223,-0.524121 -1.83238,0.796639 -4.02228,2.935023 -3.83218,3.742017 -6.94663,4.374865 -3.80938,0.774056 0.84152,-0.965872 1.32626,-2.318631 1.0772,-3.006131 -0.29833,-0.823493 0.57447,-1.25 2.55801,-1.25 2.20211,0 3.70237,-0.872984 5.58528,-3.25 l 2.57443,-3.25 -2.25195,-1.902631 C 140.85973,23.854768 121.11873,16.886049 108.07759,15.58773 l -6.25,-0.622222 v 3.984667 c 0,5.050039 -1.77535,5.240307 -2.189633,0.234668 l -0.31037,-3.75 -5.5,0.325956 c -11.413381,0.676412 -25.429077,5.077629 -36.597228,11.492284 -2.971524,1.706755 -5.402772,3.476591 -5.402772,3.932968 0,0.456378 0.980534,2.156021 2.178966,3.776986 3.100366,4.193469 1.3469,5.02616 -2.040263,0.968886 l -2.819839,-3.377712 -4.211773,3.440316 c -6.348574,5.185725 -16.600268,18.38208 -20.474268,26.355225 -5.204126,10.7107 -5.22763,10.968229 -1.136078,12.447754 1.92679,0.696736 3.503255,1.687665 3.503255,2.202065 0,1.2391 -0.456166,1.18934 -4.46952,-0.487546 l -3.405282,-1.422818 -1.497146,6.672818 c -3.141758,14.002899 -2.986958,27.698795 0.457659,40.491125 1.102817,4.09554 0.788938,4.00794 7.164289,1.99968 0.9625,-0.30319 1.75,-0.0837 1.75,0.48783 0,0.57149 -1.592423,1.56462 -3.538718,2.20696 -4.087652,1.34904 -4.05731,1.78148 0.80599,11.48722 4.717988,9.41574 9.907699,16.42667 17.729585,23.9514 l 7.225913,6.9514 2.811676,-3.445 c 3.461918,-4.24172 5.052179,-3.29257 1.90012,1.13409 l -2.283617,3.20705 2.424526,2.00316 c 7.505291,6.20093 28.980895,13.48455 40.174525,13.6255 l 5.75,0.0724 z m -4.249397,-8.64802 c -1.677211,-3.68108 0.07514,-5.82824 4.8601,-5.95509 6.61941,-0.17548 7.14325,0.17864 6.46395,4.36968 -0.59553,3.67425 -0.68102,3.73628 -5.39338,3.91307 -4.22545,0.15852 -4.922548,-0.11508 -5.93067,-2.32766 z m 3.828387,-3.00674 c -0.55526,-1.44699 -0.849857,-1.525 -1.540265,-0.4079 -1.144327,1.85156 -0.113616,4.53755 1.226845,3.19709 0.55,-0.55 0.69104,-1.80513 0.31342,-2.78919 z m 5.421013,-0.34524 c 0,-0.55 -0.45,-1 -1,-1 -0.55,0 -1,0.45 -1,1 0,0.55 0.45,1 1,1 0.55,0 1,-0.45 1,-1 z m 32.69483,-7.78472 c -2.2439,-2.47948 -2.1378,-3.90784 0.39082,-5.26112 1.1471,-0.61391 1.82891,-1.37293 1.51513,-1.68671 -0.46642,-0.46643 3.79114,-3.26745 4.96652,-3.26745 0.38179,0 2.41851,7.02576 2.42712,8.37244 0.003,0.47985 -0.63468,0.34108 -1.41722,-0.30837 -1.15349,-0.95731 -1.48473,-0.74389 -1.75,1.12756 -0.41899,2.95595 -3.86334,3.5309 -6.13237,1.02365 z m 4.30517,-1.09284 c 0,-1.30341 -2.58284,-3.20627 -3.33333,-2.45577 -0.7505,0.75049 1.15236,3.33333 2.45577,3.33333 0.48266,0 0.87756,-0.3949 0.87756,-0.87756 z m -83.600563,0.4761 c -0.295784,-0.7708 -1.406661,-1.62867 -2.468615,-1.90638 -2.197416,-0.57464 -2.647764,-4.57522 -0.730825,-6.49216 1.387666,-1.38767 5.8,-1.62731 5.8,-0.31501 0,0.48674 1.155116,1.64185 2.566924,2.5669 2.151053,1.40943 2.839601,1.46856 4.25,0.36501 1.538712,-1.20394 1.558485,-1.14535 0.23053,0.6831 -4.629607,6.37447 -8.39485,8.36423 -9.648014,5.09854 z m 0.446063,-6.04657 c 0.220995,-1.14002 -0.139373,-1.62085 -1,-1.33427 -0.740026,0.24642 -1.50098,1.25007 -1.691006,2.23033 -0.220995,1.14002 0.139373,1.62085 1,1.33427 0.740026,-0.24642 1.50098,-1.25007 1.691006,-2.23033 z m 30.154497,-1.11857 c -10.354112,-2.24222 -18.593326,-6.85415 -26.530398,-14.8505 -11.080007,-11.16275 -16.44004,-23.74214 -16.44004,-38.5829 0,-26.534038 19.670613,-49.902556 45.515274,-54.071747 6.156305,-0.993119 7.779074,-1.629649 8.394254,-3.292635 l 0.762613,-2.061518 1.13292,2.116881 c 0.83221,1.554998 2.51576,2.30707 6.34273,2.833413 37.21117,5.117845 58.24831,44.73906 41.66713,78.475606 -5.70345,11.60439 -13.71166,19.60183 -25.00507,24.97146 -12.33921,5.86687 -23.14147,7.21173 -35.839413,4.46194 z m 29.379253,-3.77831 c 17.72991,-6.44503 30.0214,-20.58468 34.19272,-39.33397 5.05868,-22.737828 -7.25106,-47.529268 -28.70829,-57.817595 -6.31856,-3.029624 -18.37204,-6.328493 -19.39296,-5.307579 -0.26385,0.263858 0.0196,1.912212 0.62995,3.663008 1.17084,3.358661 3.49344,5.141049 6.69923,5.141049 4.16883,0 15.89704,7.001444 21.41003,12.781243 6.2819,6.585912 9.13793,11.617452 11.29483,19.898356 8.61717,33.083518 -21.82173,63.421468 -54.969801,54.787488 -13.201273,-3.43849 -22.971248,-11.50082 -29.193679,-24.09106 -3.426722,-6.9335 -3.817392,-8.55385 -4.162331,-17.26385 -0.313787,-7.923373 0.0019,-10.744708 1.796856,-16.058212 5.144644,-15.229475 16.941416,-26.234494 32.255485,-30.090621 3.619743,-0.911461 4.791435,-1.787794 6.122557,-4.579185 0.905382,-1.898607 1.64615,-3.71284 1.64615,-4.03163 0,-0.957785 -8.690794,0.648811 -14.707461,2.718848 -6.962453,2.395435 -13.442719,6.493244 -19.173071,12.124128 -16.630178,16.341511 -20.668025,39.972002 -10.50211,61.460982 5.848889,12.36354 20.759583,24.20896 35.027588,27.82677 8.359846,2.11974 21.014167,1.3417 29.734307,-1.82817 z m -0.0144,-10.44505 C 140.97547,129.48341 150.18536,103.14322 138.86967,81.008217 136.00278,75.400193 127.81792,66.70383 122.45378,63.566427 103.14432,52.272636 76.838753,58.47253 64.757391,77.164745 51.154815,98.210574 57.2602,124.4198 78.967247,138.16489 c 10.558773,6.68591 27.356893,7.53384 39.225193,1.97999 z M 103.32113,54.184843 c -0.39625,-0.9625 -0.94688,-2.5375 -1.22362,-3.5 -0.75836,-2.63747 -1.9478,-2.112804 -3.172093,1.399223 -0.603809,1.732073 -1.09783,3.307073 -1.09783,3.5 0,0.192927 1.39814,0.350777 3.106993,0.350777 2.56682,0 2.98174,-0.304246 2.38655,-1.75 z M 30.909605,127.08809 c -0.56008,-1.04652 -1.311635,-3.737 -1.670121,-5.97885 -0.606771,-3.79454 -0.470979,-4.12147 1.965919,-4.73309 1.439742,-0.36135 3.293718,-0.3976 4.119948,-0.0805 1.942565,0.74543 1.948291,4.53083 0.008,5.2754 -2.1694,0.83248 -0.868094,2.27135 1.495252,1.65332 1.099432,-0.28755 1.998984,-0.0506 1.998984,0.52645 0,1.386 -3.662696,2.51052 -5.16099,1.58452 -0.792151,-0.48957 -0.97344,-0.1932 -0.552623,0.90343 0.907928,2.36602 -0.999369,3.10089 -2.204369,0.84932 z m 2.889022,-7.11419 c 0.809071,-0.51167 1.165979,-1.23537 0.793128,-1.60823 -0.915093,-0.91509 -3.764168,0.24885 -3.764168,1.53779 0,1.2701 1.035288,1.29465 2.97104,0.0704 z m 130.984443,4.87775 c -0.86716,-1.62029 -0.78681,-2.45356 0.36158,-3.75 0.81205,-0.91674 1.64059,-2.56164 1.84119,-3.65533 0.48294,-2.63307 3.51519,-3.11699 5.91615,-0.94415 2.33526,2.11338 2.38781,3.19888 0.35236,7.27903 -1.92926,3.8673 -6.65487,4.46444 -8.47128,1.07045 z m 5.04452,-1.41681 c -0.68469,-0.825 -1.63979,-1.5 -2.12244,-1.5 -0.48266,0 -0.87756,0.675 -0.87756,1.5 0,0.86218 0.90249,1.5 2.12244,1.5 1.77324,0 1.91763,-0.2468 0.87756,-1.5 z M 30.077587,85.273929 c -2.664149,-1.874413 -2.770841,-2.987759 -0.686676,-7.165567 1.98791,-3.98486 2.714191,-4.398706 5.716375,-3.257277 3.114517,1.184137 4.182897,3.904808 2.347649,5.978376 -0.78148,0.88296 -1.584997,2.500214 -1.785594,3.593898 -0.464543,2.532763 -2.714393,2.874991 -5.591754,0.85057 z m 6.218991,-6.288913 c 0.654208,-1.058531 -2.876288,-3.309543 -3.777397,-2.408434 -0.618417,0.618417 1.368582,3.257975 2.499389,3.320224 0.380041,0.02092 0.955144,-0.389385 1.278008,-0.91179 z m 128.583942,2.566006 c -2.59304,-5.692059 -2.57405,-5.948952 0.3977,-5.380866 1.39259,0.266212 2.36401,0.01838 2.25,-0.574032 -0.36626,-1.903124 3.27959,-1.889252 3.89307,0.01481 0.32321,1.003149 1.08857,2.865702 1.7008,4.139008 1.44664,3.008703 -0.0917,5.576441 -3.59244,5.996214 -2.221,0.266323 -2.8929,-0.339972 -4.64913,-4.195136 z m 6.72937,0.538318 c 0.28658,-0.860627 -0.19425,-1.220995 -1.33427,-1 -0.98026,0.190026 -1.98391,0.95098 -2.23033,1.691006 -0.28658,0.860627 0.19425,1.220995 1.33427,1 0.98026,-0.190026 1.98391,-0.95098 2.23033,-1.691006 z M 54.482575,47.106102 c -2.37608,-2.625538 -2.040809,-5.074072 0.845012,-6.171259 1.375,-0.522774 2.5,-1.411636 2.5,-1.975249 0,-1.843687 4.890431,-1.098 5.964816,0.909508 1.655778,3.093848 1.212505,5.047826 -1.367677,6.028809 -1.321573,0.502461 -2.698131,1.391323 -3.059017,1.975249 -0.988866,1.600019 -3.031309,1.279186 -4.883134,-0.767058 z m 2.345012,-3.171259 c 0,-0.55 -0.45,-1 -1,-1 -0.55,0 -1,0.45 -1,1 0,0.55 0.45,1 1,1 0.55,0 1,-0.45 1,-1 z m 6,-1.440983 c 0,-1.59263 -1.814359,-3.077992 -2.69007,-2.202281 -0.822639,0.82264 0.461519,3.643264 1.658685,3.643264 0.567262,0 1.031385,-0.648442 1.031385,-1.440983 z m 77.477253,4.369319 c -0.70052,-2.207174 1.84494,-5.928336 4.05529,-5.928336 2.46826,0 3.84217,2.882181 2.63592,5.529614 -1.44077,3.162156 -5.73295,3.417922 -6.69121,0.398722 z m 4.84686,-1.33057 c 0.29595,-0.771229 0.273,-1.667325 -0.051,-1.991324 -0.70522,-0.705222 -3.27311,1.268685 -3.27311,2.516003 0,1.430604 2.73974,0.998162 3.32411,-0.524679 z M 66.12251,20.483119 c 7.628465,-3.37367 16.802176,-5.663038 25.705077,-6.414895 5.718497,-0.482932 7.5,-0.989682 7.5,-2.133381 0,-3.2879655 -18.193724,-0.456839 -32.487312,5.055352 -7.666502,2.956516 -8.830893,3.79311 -7.346021,5.277981 0.864074,0.864074 0.286195,1.019703 6.628256,-1.785057 z"
     id="path12"
     inkscape:connector-curvature="0" />
  <path
     style="opacity:1;fill:#63a94f;fill-opacity:0.94117647;stroke-width:1"
     d="m 92.33759,192.53791 c -5.214218,-0.30396 -9.041276,-0.83875 -13.062645,-1.82536 -5.234311,-1.28421 -10.290108,-2.98117 -15.296157,-5.13412 l -2.356898,-1.01363 -0.04468,-1.09919 c -0.02457,-0.60456 0.01645,-1.0992 0.09116,-1.0992 0.07471,0 0.984758,0.40305 2.022337,0.89567 7.40738,3.51684 17.030462,6.39456 25.18449,7.53127 2.681169,0.37377 9.27447,0.9993 10.53309,0.99932 1.188033,1e-5 6.342513,-0.44014 9.883763,-0.844 20.221,-2.3061 36.73837,-9.54726 51.16749,-22.43166 4.06984,-3.63414 8.6024,-8.43183 11.56475,-12.24119 9.14638,-11.76163 15.47723,-25.9899 17.92372,-40.28269 1.8405,-10.75256 0.86668,-28.998034 -2.11325,-39.593686 -0.29585,-1.051921 -1.74811,-5.420461 -2.15097,-6.470275 -0.0773,-0.201532 0.0702,-0.237673 0.96986,-0.237673 h 1.06105 l 1.00311,3.012648 c 2.54062,7.630278 3.61052,14.973316 3.84812,26.410559 0.25006,12.037717 -0.95496,20.807017 -4.2103,30.639667 -3.6237,10.94528 -9.29803,21.03782 -17.09829,30.41159 -2.51907,3.02722 -8.45483,8.96298 -11.48206,11.48205 -10.37073,8.62988 -21.6595,14.64905 -34.06097,18.16133 -5.74869,1.62812 -10.28329,2.33764 -17.54155,2.7447 -3.13488,0.17581 -12.709827,0.16606 -15.835169,-0.0161 z"
     id="path14"
     inkscape:connector-curvature="0" />
  <path
     style="opacity:1;fill:#63a94f;fill-opacity:0.94117647;stroke-width:1"
     d="m 93.934198,187.53634 c -11.424542,-0.77839 -20.795786,-3.09775 -30.505634,-7.55007 l -1.882703,-0.86329 v -1.10495 -1.10494 l 1.407064,0.65752 c 6.684114,3.1235 16.459906,6.23086 23.682493,7.52777 3.107113,0.55793 5.302936,0.76242 9.285625,0.86476 l 3.904114,0.10032 0.0784,-3.103 c 0.0811,-3.21278 0.284353,-4.426 0.815173,-4.86653 0.20958,-0.17394 0.285,-0.15401 0.52127,0.13778 0.44702,0.55204 0.51142,1.83599 0.24117,4.80813 -0.13742,1.51133 -0.24947,2.85201 -0.249,2.97929 7.6e-4,0.20652 0.45479,0.20355 4.22046,-0.0276 7.1503,-0.4389 9.7748,-0.80658 15.0475,-2.10808 5.24131,-1.29376 10.81055,-3.28998 17.15076,-6.14748 6.08236,-2.74128 11.40666,-5.82303 11.70964,-6.77763 0.19871,-0.62608 -0.29231,-1.66375 -1.76111,-3.7217 -1.06639,-1.49414 -1.66137,-2.65868 -1.66137,-3.25176 0,-1.7844 1.17835,-1.02367 3.25829,2.1035 1.27729,1.9204 2.15772,2.89693 2.61185,2.89693 0.52755,0 3.27335,-2.20839 6.86435,-5.52082 6.8931,-6.3584 14.22143,-16.11179 18.57866,-24.72664 1.49393,-2.95369 4.62118,-10.21578 4.46183,-10.36121 -0.0646,-0.0589 -1.08481,-0.52339 -2.2672,-1.03214 -3.23967,-1.39395 -4.62267,-2.28122 -4.4119,-2.83047 0.19719,-0.51387 2.26001,-0.22858 5.14006,0.71087 1.432,0.4671 1.4774,0.47216 1.87854,0.20932 0.50041,-0.32788 1.13977,-1.69184 1.65311,-3.52662 1.16119,-4.15031 1.61474,-10.03992 1.61474,-20.96821 0,-11.135823 -0.47941,-17.17096 -1.68727,-21.240411 -1.13505,-3.824161 -1.76263,-4.133411 -5.66263,-2.790327 -2.22417,0.765963 -2.74854,0.835711 -2.98343,0.396834 -0.34708,-0.64854 1.41145,-1.74986 4.63183,-2.900775 1.00358,-0.358665 1.8857,-0.70654 1.96026,-0.773055 0.1101,-0.09823 -0.37861,-1.590529 -1.20322,-3.674068 -0.0943,-0.238348 0.007,-0.266102 0.97536,-0.266102 0.59437,0 1.08067,0.02233 1.08067,0.04963 0,0.02729 0.34679,0.968153 0.77064,2.090796 1.87829,4.974994 2.93602,9.71752 3.57531,16.030499 0.32718,3.230932 0.47703,18.176059 0.22677,22.616539 -0.59658,10.58542 -2.03067,15.89031 -7.30433,27.01955 -2.55589,5.39381 -5.14806,9.9317 -7.99726,14.00014 -8.25094,11.7817 -18.84248,20.73259 -32.37955,27.36389 -11.879,5.81908 -18.10667,7.56911 -30.33555,8.52459 -2.73281,0.21352 -12.664921,0.31197 -15.053742,0.14921 z"
     id="path16"
     inkscape:connector-curvature="0" />
  <path
     style="opacity:1;fill:#63a94f;fill-opacity:0.94117647;stroke-width:1"
     d="m 167.37719,126.88437 c -1.69078,-0.55476 -3.03516,-2.23265 -3.03869,-3.79253 -0.002,-0.75396 0.12291,-1.02606 0.94786,-2.0697 0.7634,-0.96577 1.3647,-2.16143 1.76686,-3.51329 0.63782,-2.14405 2.24588,-2.83433 4.4004,-1.88891 0.84649,0.37145 2.57728,2.02528 2.93669,2.80612 0.37725,0.81958 0.3571,1.40913 -0.0941,2.75323 -1.22789,3.65782 -3.14043,5.635 -5.58671,5.7755 -0.52315,0.0301 -1.12269,-0.002 -1.33231,-0.0704 z m 3.08602,-2.13096 c 0.55677,-0.55677 -2.07713,-3.10166 -2.92999,-2.83097 -0.38614,0.12256 -0.76328,0.82729 -0.76328,1.42628 0,0.57364 0.63142,1.33808 1.26709,1.53403 0.58387,0.17999 2.20318,0.0937 2.42618,-0.12934 z"
     id="path18"
     inkscape:connector-curvature="0" />
  <path
     style="opacity:1;fill:#63a94f;fill-opacity:0.94117647;stroke-width:1"
     d="m 139.39952,163.39895 c -0.81691,-0.28693 -2.52747,-1.92159 -3.01875,-2.88481 -0.39395,-0.77237 -0.42109,-1.73514 -0.0643,-2.27972 0.14424,-0.22014 0.8114,-0.75585 1.48257,-1.19047 1.4312,-0.92678 1.81978,-1.3181 1.71329,-1.72534 -0.14289,-0.54639 1.52844,-1.8662 3.62264,-2.86074 0.66303,-0.31486 1.2038,-0.48832 1.27898,-0.41024 0.4124,0.42828 2.28432,6.96901 2.28432,7.9817 0,0.59837 -0.3186,0.57253 -1.30335,-0.1057 -1.22224,-0.84179 -1.35425,-0.73706 -1.90904,1.51452 -0.4444,1.8036 -2.17275,2.63292 -4.08639,1.9608 z m 2.15485,-1.65995 c 0.90076,-0.81518 -0.56145,-2.88882 -2.3469,-3.32829 -1.25481,-0.30885 -1.1112,1.52093 0.21674,2.76161 0.92048,0.86001 1.60486,1.04207 2.13016,0.56668 z"
     id="path20"
     inkscape:connector-curvature="0" />
  <path
     style="opacity:1;fill:#63a94f;fill-opacity:0.94117647;stroke-width:1"
     d="m 90.360837,201.21219 c -6.159932,-0.50428 -13.83649,-2.15007 -20.983993,-4.49879 -2.6449,-0.86913 -7.506102,-2.71206 -7.72441,-2.9284 -0.06683,-0.0662 -0.101046,-0.5667 -0.07603,-1.11215 l 0.04548,-0.99174 2.754402,1.10985 c 7.896157,3.18165 17.246844,5.66488 24.007792,6.37565 9.031073,0.94944 22.872762,0.41936 31.799062,-1.21777 7.34402,-1.34694 17.86596,-5.10992 25.6028,-9.1564 19.17203,-10.02724 33.82956,-24.82049 43.24352,-43.64396 5.56938,-11.1361 8.90961,-22.83353 10.21419,-35.76987 0.32592,-3.2318 0.45515,-11.551017 0.23148,-14.901673 -0.52657,-7.888445 -1.89487,-15.308126 -4.17762,-22.653484 l -0.66664,-2.145069 0.99029,0.04457 0.99029,0.04457 0.51676,1.672637 c 1.86487,6.036244 3.25603,13.039211 3.94197,19.843559 0.52958,5.253268 0.45084,14.29053 -0.17555,20.14767 -2.12871,19.90486 -10.02577,38.5299 -22.85803,53.91013 -10.95101,13.12545 -24.80613,23.1994 -40.46812,29.42406 -6.39996,2.54359 -13.33639,4.48819 -18.92488,5.3055 -2.12517,0.31081 -5.38765,0.6587 -8.80171,0.93855 -3.40068,0.27876 -16.842956,0.41852 -19.481059,0.20256 z"
     id="path22"
     inkscape:connector-curvature="0" />
  <path
     style="opacity:1;fill:#63a94f;fill-opacity:0.94117647;stroke-width:1"
     d="m 95.315602,155.36464 c -3.993949,-0.43526 -9.108902,-1.56092 -12.63369,-2.78034 -7.351545,-2.5433 -13.58213,-6.49661 -19.653486,-12.47016 l -1.482565,-1.45867 v -1.19293 -1.19293 l 1.938738,1.82449 c 6.786126,6.38621 14.329699,10.99557 22.168026,13.54537 4.818302,1.56739 8.63855,2.06179 14.972125,1.93764 4.54118,-0.089 7.11818,-0.35877 11.10023,-1.16196 4.45536,-0.89866 7.65148,-2.01049 12.24066,-4.25815 14.21246,-6.96089 24.16608,-19.47723 28.11775,-35.35709 1.94611,-7.82049 1.97593,-15.803137 0.0887,-23.738166 -1.48011,-6.223156 -4.35588,-12.678976 -8.0359,-18.039741 l -0.91335,-1.330507 h 1.26672 1.26672 l 0.89959,1.406536 c 10.30377,16.110134 11.49141,36.041948 3.17347,53.259388 -2.98145,6.17134 -6.34611,11.04148 -10.50583,15.20653 -4.16687,4.17221 -8.20617,7.02354 -13.98933,9.87502 -7.06908,3.48553 -13.25403,5.36072 -19.82165,6.00965 -2.15849,0.21328 -7.903422,0.16596 -10.196908,-0.084 z"
     id="path24"
     inkscape:connector-curvature="0" />
  <path
     style="opacity:1;fill:#63a94f;fill-opacity:0.94117647;stroke-width:1"
     d="m 97.887704,145.71513 c -3.908062,-0.2502 -8.101781,-1.11174 -12.088605,-2.48342 -9.881546,-3.39977 -17.394664,-9.41145 -23.054133,-18.44693 l -1.199105,-1.9144 0.0023,-1.91805 0.0023,-1.91804 0.840746,1.57809 c 3.607448,6.77125 8.834529,12.4642 15.598657,16.9889 8.584437,5.74236 21.115923,7.71633 32.642146,5.14182 2.97166,-0.66375 5.67191,-1.63357 8.61982,-3.09587 8.72462,-4.32783 15.45089,-10.9192 19.78099,-19.38427 6.0229,-11.77438 6.30312,-25.152431 0.78378,-37.418454 -0.41395,-0.91995 -1.12626,-2.309172 -1.58291,-3.08716 -1.44793,-2.466783 -4.42569,-6.225592 -7.10092,-8.96343 l -1.07721,-1.10242 h 1.45747 1.45747 l 1.47156,1.65513 c 4.50477,5.066728 6.76404,8.840068 8.70516,14.539039 4.07546,11.965159 3.29957,24.148525 -2.23201,35.048055 -7.26911,14.32321 -21.41495,23.71498 -37.32534,24.78123 -2.49311,0.16708 -3.09509,0.1671 -5.702178,1.5e-4 z"
     id="path26"
     inkscape:connector-curvature="0" />
  <path
     style="opacity:1;fill:#63a94f;fill-opacity:0.94117647;stroke-width:0.99999994"
     d="M 60.112651,137.06842 C 51.647934,127.5852 47.189028,117.57187 46.156017,105.72612 43.984036,80.819542 59.646638,56.862865 83.247763,48.992572 c 2.570649,-0.857237 5.14731,-1.466194 10.629401,-2.512107 4.361562,-0.832131 5.523183,-1.466563 6.152096,-3.360033 0.19032,-0.572988 0.4205,-1.087819 0.51151,-1.14407 0.091,-0.05625 0.39405,0.385713 0.6734,0.982142 0.99909,2.133104 2.42647,2.863037 7.0848,3.623022 12.94201,2.11143 23.51977,7.53085 31.84403,16.314991 1.90683,2.012182 5.3583,6.249734 5.3583,6.578676 0,0.06809 -0.51661,0.123808 -1.14802,0.123808 h -1.14802 l -1.48625,-1.881038 c -5.29638,-6.703258 -13.05752,-12.502427 -20.84006,-15.57181 -5.58907,-2.204295 -12.5072,-4.106767 -15.05296,-4.139535 l -1.5053,-0.01938 -0.0671,0.812911 c -0.13385,1.62091 1.06354,4.632275 2.4538,6.171122 1.0601,1.173405 2.33526,1.721266 4.812,2.067439 1.17337,0.164 2.7916,0.545855 3.59607,0.848566 4.65252,1.750678 13.46275,7.457887 16.72056,10.831463 l 0.85006,0.880257 h -1.36377 -1.36376 l -1.68412,-1.609005 c -2.2108,-2.112183 -4.66335,-3.913627 -7.12231,-5.231476 -14.4385,-7.738119 -33.02934,-6.202192 -46.614773,3.851192 -2.365152,1.750241 -6.853779,6.259441 -8.497066,8.53601 -4.28633,5.938178 -7.196255,13.115787 -8.178745,20.173657 -0.446034,3.20415 -0.337941,9.938386 0.206735,12.879726 0.491879,2.65622 1.477397,6.01488 2.555513,8.70922 0.84731,2.11752 0.896813,2.35728 0.795978,3.85514 l -0.107521,1.5972 -1.544718,-3.21002 c -1.923321,-3.99677 -2.132017,-4.51329 -2.637879,-6.52876 -0.652123,-2.59819 -0.880224,-5.11242 -1.015804,-11.19661 -0.143263,-6.428946 0.08895,-8.848173 1.206608,-12.570804 3.794122,-12.637201 12.031243,-22.662468 23.238086,-28.282704 2.950213,-1.479532 5.693864,-2.528511 9.039164,-3.455936 1.356081,-0.37595 2.907203,-0.906897 3.44694,-1.179881 1.759092,-0.889705 2.940113,-2.561451 4.382981,-6.204149 0.829308,-2.093691 0.589108,-2.181222 -3.891414,-1.418065 -12.68651,2.160866 -21.942467,6.930684 -30.509567,15.722319 -4.296692,4.409304 -7.385281,8.737911 -9.876732,13.842077 -3.395325,6.955912 -4.975916,13.379896 -5.214178,21.191956 -0.199087,6.527587 0.662616,12.470747 2.703715,18.647487 2.302384,6.96743 5.207435,12.13894 9.556712,17.01264 1.166215,1.30683 1.223607,1.42534 1.223607,2.52674 0,0.63559 -0.02419,1.15555 -0.05376,1.15549 -0.02957,-7e-5 -0.593563,-0.60487 -1.253321,-1.34402 z M 102.92291,55.86011 c 0.8073,-0.22277 0.76752,-0.907548 -0.21197,-3.648706 -1.06746,-2.987339 -1.20741,-3.256471 -1.69349,-3.256471 -0.40337,0 -1.111883,0.666081 -1.486813,1.397776 -0.33671,0.657114 -1.768744,4.84146 -1.768744,5.168204 0,0.163913 0.301294,0.325517 0.698888,0.374858 1.162016,0.144205 3.889309,0.122409 4.462129,-0.03566 z"
     id="path28"
     inkscape:connector-curvature="0" />
  <path
     style="opacity:1;fill:#63a94f;fill-opacity:0.94117647;stroke-width:0.99999994"
     d="m 167.74065,85.518835 c -0.24619,-0.0996 -0.70338,-0.485034 -1.01598,-0.85653 -1.04401,-1.240737 -3.67007,-7.186105 -3.54917,-8.035294 0.0632,-0.443951 0.15715,-0.46522 1.74467,-0.394979 2.29817,0.101683 2.7305,-0.02869 2.7305,-0.823418 0,-0.729267 0.48648,-1.078681 1.50184,-1.078681 1.16839,0 1.86413,0.528568 2.33118,1.77104 0.23405,0.622618 0.77932,1.934537 1.21172,2.915377 1.20528,2.734037 1.03376,4.522939 -0.54118,5.644397 -1.24048,0.883297 -3.34152,1.291782 -4.41358,0.858088 z m 2.7573,-2.079975 c 0.75596,-0.386278 1.29113,-1.205419 1.20135,-1.838814 -0.14622,-1.031559 -2.27876,-0.698268 -3.30034,0.515805 -1.28647,1.528881 0.0489,2.370565 2.09899,1.323009 z"
     id="path30"
     inkscape:connector-curvature="0" />
  <path
     style="opacity:1;fill:#63a94f;fill-opacity:0.94117647;stroke-width:0.99999994"
     d="m 179.56077,67.771999 c -3.28503,-8.002772 -8.95334,-16.681532 -16.04875,-24.572271 -3.37819,-3.756865 -8.10644,-8.29867 -9.42862,-9.05684 -2.07891,-1.192101 -2.66897,-0.969183 -5.61532,2.121397 -1.59938,1.677681 -2.18099,2.158946 -2.4904,2.060742 -0.50332,-0.159748 -1.59679,0.615211 -3.97037,2.81386 -2.74093,2.538934 -5.1077,3.928545 -5.1077,2.998899 0,-0.16569 0.43191,-0.875826 0.9598,-1.57808 1.12764,-1.500084 1.40566,-2.149939 1.40566,-3.285572 0,-0.782941 0.0512,-0.85029 0.80641,-1.060012 0.44353,-0.123172 1.29026,-0.225436 1.88162,-0.227251 1.21999,-0.0037 2.83187,-0.679276 3.91932,-1.642567 0.84537,-0.748848 3.93064,-4.616035 3.92148,-4.915324 -0.01,-0.325004 -3.22129,-2.873152 -5.10339,-4.04945 -3.65153,-2.282177 -11.14353,-5.523618 -17.46781,-7.557513 -8.19639,-2.635967 -15.80614,-4.166054 -23.6894,-4.763212 l -1.86261,-0.141093 -0.0728,3.545937 c -0.0703,3.425084 -0.23204,4.256115 -0.8284,4.256115 -0.40307,0 -0.886583,-1.97447 -1.116463,-4.559268 l -0.24956,-2.805931 -2.702417,0.143292 c -8.298582,0.440021 -14.950866,1.682781 -22.66006,4.233283 -8.076561,2.672043 -17.552459,7.300263 -21.397462,10.450953 -1.175962,0.963614 -1.144148,1.123567 0.823769,4.1416 1.826886,2.801751 2.298775,3.834098 1.834084,4.012418 -0.596943,0.229067 -1.840673,-0.808747 -3.922543,-3.273121 -1.138944,-1.348202 -2.161359,-2.451277 -2.272033,-2.451277 -0.323142,0 -4.613214,3.576445 -6.692751,5.579453 -5.026409,4.841436 -11.793911,13.430129 -15.744367,19.981311 l -0.73086,1.212011 -5.53e-4,-1.848807 -5.53e-4,-1.848805 1.1369,-1.806915 c 2.952031,-4.691765 6.508376,-9.124203 11.002467,-13.712885 4.859761,-4.962049 8.026997,-7.581658 15.869902,-13.125934 2.217624,-1.567675 4.032044,-2.900261 4.032044,-2.961302 0,-0.342366 -0.787612,-1.36381 -1.067816,-1.384839 -1.281451,-0.09617 -3.914057,1.156994 -7.322666,3.485714 C 41.413949,31.765504 33.458874,39.45883 27.51002,47.532791 l -1.572299,2.133971 v -1.604971 -1.604968 l 2.21721,-2.782991 C 40.364439,28.348779 57.454809,17.039859 76.219026,11.869211 86.812893,8.9499766 100.56149,8.0623523 112.94192,9.4983416 c 22.33769,2.5909214 43.24986,14.1693764 58.53672,32.4100684 6.46208,7.710725 12.25596,17.527411 15.74032,26.66914 l 0.38933,1.021451 h -1.01232 -1.01232 l -0.92766,-2.419227 C 182.71308,62.112907 179.59232,56.114485 176.40491,51.320399 170.80857,42.90311 161.77936,33.592616 153.01009,27.196778 142.92727,19.842902 131.02032,14.656292 118.29844,12.076555 c -6.68157,-1.354887 -15.4152,-2.3714784 -16.14883,-1.879717 -0.39221,0.262911 -0.55018,1.341111 -0.30522,2.083339 0.38963,1.180597 1.38885,1.452986 7.09971,1.935393 10.57957,0.893675 18.18671,2.798167 26.8803,6.729638 17.72299,8.014804 32.35655,21.718637 42.02609,39.356002 1.19112,2.172629 4.42306,8.874336 4.42306,9.171613 0,0.04558 -0.43155,0.117194 -0.95899,0.159142 l -0.95899,0.07627 z M 65.139953,21.030698 c 5.146404,-2.229516 8.786476,-3.476712 13.552247,-4.643399 4.694268,-1.149183 7.903558,-1.688819 13.45203,-2.261932 4.789903,-0.494759 6.57128,-0.912063 7.056847,-1.653132 0.29766,-0.454281 0.2974,-0.555291 -0.003,-1.013118 -2.005102,-3.0601715 -24.548205,1.480937 -37.346119,7.523045 -3.110824,1.468672 -3.52123,2.025577 -2.439825,3.310754 0.741395,0.881099 0.819911,0.863795 5.7274,-1.262218 z"
     id="path32"
     inkscape:connector-curvature="0" />
  <path
     style="opacity:1;fill:#63a94f;fill-opacity:0.94117647;stroke-width:0.99999994"
     d="m 195.45853,69.641063 -0.90029,-0.06546 -0.47601,-1.439837 C 193.28842,65.734685 190.98814,60.35677 189.39277,57.172096 184.0106,46.428252 178.27504,38.618829 169.50705,30.096072 160.77607,21.609285 155.10618,17.513978 145.60882,12.834588 131.70608,5.9846435 121.66966,3.2214862 107.33495,2.2972887 88.939329,1.1112732 72.517289,4.2602637 57.246691,11.901909 c -4.090295,2.046847 -6.82469,3.650692 -11.310009,6.633831 -6.429931,4.276479 -11.01906,8.099642 -16.612024,13.83933 l -3.386917,3.475768 v -1.281947 -1.281947 l 2.204184,-2.367255 C 35.716916,22.784274 45.651381,15.609977 56.816329,10.212112 67.214907,5.1847607 78.03176,2.07797 90.127889,0.64444478 c 4.050962,-0.4800839 16.220001,-0.5501247 20.213991,-0.1163449 12.55593,1.36367772 23.81083,4.56613472 34.40678,9.79006612 9.92073,4.891044 17.88497,10.516598 25.77717,18.207742 9.94471,9.691377 17.57462,20.664568 22.87715,32.901483 1.18688,2.73904 3.11399,7.942478 3.01755,8.147779 -0.0339,0.07224 -0.46684,0.101896 -0.962,0.06589 z"
     id="path34"
     inkscape:connector-curvature="0" />
  <path
     style="opacity:1;fill:#63a94f;fill-opacity:0.94117647;stroke-width:0.99999994"
     d="m 141.9531,48.549481 c -2.02466,-0.932117 -2.16354,-3.266988 -0.34328,-5.771175 1.26695,-1.742976 3.26137,-2.227995 4.48036,-1.089569 2.23081,2.083386 1.15676,6.211617 -1.83205,7.041691 -1.07455,0.298432 -1.30266,0.280525 -2.30503,-0.180947 z m 2.15507,-1.86911 c 1.5241,-0.723229 1.87607,-3.316539 0.45014,-3.316539 -0.57576,0 -2.15444,1.078984 -2.48651,1.699453 -0.81429,1.521527 0.32732,2.428085 2.03637,1.617086 z"
     id="path36"
     inkscape:connector-curvature="0" />
  <path
     style="opacity:1;fill:#63a94f;fill-opacity:0.94117647;stroke-width:1"
     d="m 56.334523,48.476134 c -0.864676,-0.39242 -2.326545,-1.87113 -2.827869,-2.860446 -0.570922,-1.12666 -0.652859,-1.950257 -0.278272,-2.797074 0.358495,-0.810438 0.921355,-1.265405 2.468459,-1.995287 1.300397,-0.613492 2.063456,-1.283386 2.207163,-1.93768 0.06225,-0.283424 0.260947,-0.534612 0.534991,-0.676326 1.170106,-0.605085 3.99196,0.125078 4.983726,1.289553 0.427287,0.501696 1.107447,2.131344 1.193776,2.860262 0.21867,1.846322 -0.270293,2.513677 -2.732468,3.729375 -1.245303,0.614868 -1.894994,1.037942 -2.31431,1.507062 -0.320636,0.358718 -0.758687,0.771509 -0.973448,0.917313 -0.51263,0.348033 -1.447365,0.332844 -2.261748,-0.03675 z m 0.263629,-3.898243 c 0.413867,-0.526146 0.397885,-0.898961 -0.05808,-1.354927 -0.455966,-0.455966 -0.828782,-0.471947 -1.354927,-0.05808 -0.767881,0.604015 -0.332543,1.813659 0.652718,1.813659 0.299777,0 0.54805,-0.130833 0.760289,-0.400651 z m 6.036433,-1.203781 c 0.366682,-0.559627 0.21414,-1.734098 -0.315398,-2.428359 -0.839323,-1.100408 -2.099941,-1.272928 -2.430623,-0.332638 -0.318565,0.905835 0.569633,2.839779 1.480021,3.222569 0.556594,0.23403 0.889831,0.112535 1.266,-0.461572 z"
     id="path38"
     inkscape:connector-curvature="0" />
  <path
     style="opacity:1;fill:#63a94f;fill-opacity:0.94117647;stroke-width:1"
     d="M 55.755304,190.96832 C 43.332166,184.64774 33.232078,176.7395 24.215075,166.27271 11.059753,151.00222 2.3004754,130.62536 0.48786745,111.07568 -0.15206715,104.17374 0.15708395,93.800632 1.2492099,85.529955 3.0410093,71.96065 7.6667925,59.758831 15.949931,46.752623 18.317399,43.035218 22.597076,37.216771 24.783727,34.74261 l 1.209492,-1.368521 0.0077,1.216463 c 0.0066,1.054241 -0.258937,1.540908 -1.991517,3.64939 C 12.842103,51.830064 4.9208129,69.767872 2.7233266,86.442303 2.0527254,91.530796 1.7890649,106.14597 2.2745072,111.32117 c 1.7575564,18.73695 9.8494228,37.77312 22.5163818,52.96996 3.427269,4.11178 10.509839,10.97999 14.623511,14.18093 5.936846,4.61959 11.409967,8.02781 18.301046,11.39641 3.611905,1.76563 3.877477,1.9546 3.877477,2.75903 0,0.55038 -0.15942,0.86358 -0.439563,0.86358 -0.241763,0 -2.670888,-1.13524 -5.398056,-2.52276 z"
     id="path40"
     inkscape:connector-curvature="0" />
  <path
     style="opacity:1;fill:#63a94f;fill-opacity:0.94117647;stroke-width:1"
     d="M 58.031076,182.65411 C 48.83704,177.83241 41.860972,172.57461 34.200937,164.69355 21.128898,151.24432 12.442864,133.92382 9.5235866,115.48536 8.9294666,111.73284 8.8490776,110.05518 8.8459646,101.34398 8.8421486,90.665027 9.1297606,87.393529 10.69076,80.359986 13.098428,69.51153 18.491828,57.249984 24.859041,48.149319 l 1.152329,-1.647026 v 1.457971 c 0,1.264353 -0.256115,1.86675 -1.928579,4.536126 -7.500733,11.971725 -12.445813,26.546647 -13.875736,40.896769 -1.8299658,18.364771 4.061486,41.043451 14.879604,57.277871 3.785895,5.68137 6.16298,8.55905 11.254794,13.62493 6.577134,6.54363 13.954452,12.04034 21.837217,16.27052 3.251916,1.7451 3.399945,1.86731 3.406939,2.81274 0.004,0.54361 -0.05896,0.98838 -0.139957,0.98838 -0.081,0 -1.617558,-0.77107 -3.414576,-1.71349 z"
     id="path42"
     inkscape:connector-curvature="0" />
  <path
     style="opacity:1;fill:#63a94f;fill-opacity:0.94117647;stroke-width:1"
     d="M 58.095591,177.13324 C 46.323893,170.36521 35.464835,160.20805 27.738912,148.73874 20.65337,138.22008 16.627489,127.50832 14.555255,113.66067 13.776357,108.45569 13.773801,93.653762 14.550855,88.419056 15.65472,80.983153 17.63772,73.521623 20.1229,67.452847 c 1.398752,-3.415735 4.587985,-9.88185 5.408653,-10.965954 0.430494,-0.568684 0.461061,-0.506143 0.470104,0.961859 0.0084,1.357477 -0.320757,2.242887 -2.430446,6.538491 -1.342064,2.732619 -2.661497,5.668935 -2.932073,6.525146 -0.799711,2.530607 -0.543205,2.942189 2.869855,4.604888 1.838836,0.895803 2.995723,1.642678 3.056838,1.973464 0.154933,0.838578 -0.779975,0.662266 -4.382462,-0.826479 -1.808266,-0.747274 -3.314026,-1.328895 -3.346132,-1.292492 -0.234435,0.265817 -2.637818,12.374624 -3.061397,15.424039 -0.742437,5.344924 -0.743505,17.056541 -0.002,21.896341 0.653718,4.26679 1.907414,9.98896 2.59665,11.85173 0.648442,1.75251 1.228035,1.84288 4.950799,0.77187 2.673612,-0.76918 3.688318,-0.72789 3.159013,0.12855 -0.253479,0.41013 -2.649194,1.63141 -4.157622,2.11945 -1.645317,0.53234 -2.2039,1.29523 -2.009506,2.74454 0.312912,2.33294 5.243573,12.09952 8.975795,17.77912 3.374827,5.13572 6.619612,8.92505 13.269076,15.49591 l 6.414025,6.33819 1.363683,-1.6244 c 2.030399,-2.41859 4.12978,-4.5135 4.52313,-4.5135 0.77874,0 0.243478,1.35138 -1.611215,4.06788 l -1.95878,2.86894 2.122139,1.69076 c 1.167178,0.92992 3.485575,2.46274 5.151996,3.40628 2.744101,1.55372 3.029854,1.79854 3.029854,2.59578 0,0.48415 -0.102639,0.87761 -0.228087,0.87437 -0.125447,-0.003 -1.596608,-0.79271 -3.269245,-1.75438 z"
     id="path44"
     inkscape:connector-curvature="0" />
  <path
     style="opacity:1;fill:#63a94f;fill-opacity:0.94117647;stroke-width:1"
     d="m 31.59352,86.002376 c -0.525988,-0.228865 -1.518165,-0.923694 -2.20484,-1.544063 -1.617859,-1.461638 -1.648096,-2.520485 -0.160699,-5.627486 1.646555,-3.439466 2.357965,-4.249042 3.733819,-4.249042 1.516203,0 4.032103,1.285925 4.687879,2.396065 0.79338,1.343085 0.651351,2.447939 -0.527901,4.106582 -0.579823,0.815534 -1.266954,2.214552 -1.526956,3.108928 -0.648098,2.22938 -1.818795,2.75866 -4.001302,1.809016 z m 4.16955,-6.261322 c 0.737525,-0.394711 0.761252,-1.563151 0.04491,-2.211436 -0.72008,-0.651663 -2.552426,-1.383596 -3.030029,-1.210348 -0.703891,0.255334 -0.387681,1.55649 0.644141,2.650541 1.094125,1.160111 1.416145,1.266201 2.340982,0.771243 z"
     id="path46"
     inkscape:connector-curvature="0" />
  <path
     style="opacity:1;fill:#63a94f;fill-opacity:0.94117647;stroke-width:1"
     d=""
     id="path48"
     inkscape:connector-curvature="0" />
  <path
     style="opacity:1;fill:#63a94f;fill-opacity:0.94117647;stroke-width:1"
     d="m 59.585964,162.76758 c -0.351141,-0.13355 -0.932661,-0.74149 -1.292267,-1.35098 -0.42984,-0.72852 -1.122533,-1.31548 -2.021991,-1.71336 -1.567281,-0.69328 -2.282242,-1.7991 -2.280542,-3.52728 0.0023,-2.3685 1.877934,-4.04464 4.52596,-4.04464 1.476743,0 2.163452,0.24413 2.163452,0.76913 0,0.55062 2.30983,2.50335 3.873037,3.27427 1.231978,0.60757 1.334585,0.61304 2.356898,0.12553 0.587865,-0.28033 1.068845,-0.43273 1.068845,-0.33865 0,0.39236 -3.68204,4.63768 -4.68748,5.40456 -1.520811,1.15998 -2.934802,1.69469 -3.705912,1.40142 z m -1.41092,-6.06405 c 1.317239,-1.95924 0.282327,-3.62196 -1.318391,-2.11817 -0.754528,0.70884 -1.260194,2.42085 -0.89132,3.0177 0.383748,0.62092 1.490342,0.17045 2.209711,-0.89953 z"
     id="path50"
     inkscape:connector-curvature="0" />
  <path
     style="opacity:1;fill:#63a94f;fill-opacity:0.94117647;stroke-width:1"
     d="m 31.687043,127.72717 c -1.364277,-1.36427 -3.082717,-8.58328 -2.399924,-10.08185 0.570857,-1.2529 4.995787,-1.9016 6.37615,-0.93475 1.463629,1.02516 1.114455,4.00754 -0.57126,4.87926 -1.061689,0.54902 -1.167354,1.57178 -0.185251,1.7931 0.376344,0.0848 1.354062,0.12163 2.172706,0.0818 1.72754,-0.084 2.13005,0.39524 0.970228,1.15518 -1.146378,0.75114 -2.795055,1.03736 -4.022746,0.69838 -0.59287,-0.1637 -1.147179,-0.2284 -1.231797,-0.14379 -0.08462,0.0846 0.0119,0.65608 0.214479,1.2699 0.309489,0.93776 0.294141,1.19024 -0.09608,1.58045 -0.416462,0.41646 -0.543079,0.38573 -1.226508,-0.2977 z m 1.275422,-7.20167 c 0.631765,-0.3223 1.325884,-0.79954 1.542487,-1.06053 1.180548,-1.42247 -1.65709,-2.01126 -3.127147,-0.64885 -0.931301,0.8631 -0.984626,1.15966 -0.326801,1.81749 0.59366,0.59366 0.528677,0.59734 1.911461,-0.10811 z"
     id="path52"
     inkscape:connector-curvature="0" />
  <path
     style="opacity:1;fill:#63a94f;fill-opacity:0.94117647;stroke-width:1"
     d="m 97.487721,175.18107 c -1.721974,-0.9215 -2.828368,-3.74419 -2.129201,-5.43213 0.691365,-1.6691 2.31316,-2.22236 6.57326,-2.2424 4.40198,-0.0207 4.97441,0.26096 4.97441,2.44772 0,2.29013 -0.59083,4.35209 -1.39871,4.88144 -1.01065,0.6622 -6.949759,0.91797 -8.019759,0.34537 z m 1.754746,-2.12658 c 0.52371,-0.52372 0.44989,-2.72371 -0.11864,-3.5354 -0.60801,-0.86806 -1.191138,-0.47517 -1.667253,1.12335 -0.583786,1.96 0.616635,3.58131 1.785893,2.41205 z m 5.512423,-2.63421 c 0.38952,-0.72782 -0.25049,-1.6726 -1.02942,-1.51963 -0.85212,0.16735 -1.27586,1.02352 -0.79395,1.60419 0.53992,0.65055 1.4526,0.60823 1.82337,-0.0846 z"
     id="path54"
     inkscape:connector-curvature="0" />
</svg>
