<?xml version="1.0" encoding="UTF-8" standalone="no"?>
<!-- Created with Inkscape (http://www.inkscape.org/) -->

<svg
   xmlns:dc="http://purl.org/dc/elements/1.1/"
   xmlns:cc="http://creativecommons.org/ns#"
   xmlns:rdf="http://www.w3.org/1999/02/22-rdf-syntax-ns#"
   xmlns:svg="http://www.w3.org/2000/svg"
   xmlns="http://www.w3.org/2000/svg"
   xmlns:sodipodi="http://sodipodi.sourceforge.net/DTD/sodipodi-0.dtd"
   xmlns:inkscape="http://www.inkscape.org/namespaces/inkscape"
   version="1.1"
   id="svg2"
   width="81.949631"
   height="100.8493"
   viewBox="0 0 163.89926 201.69861"
   sodipodi:docname="doc-fond-2.svg"
   inkscape:version="0.92.2 (5c3e80d, 2017-08-06)">
  <metadata
     id="metadata8">
    <rdf:RDF>
      <cc:Work
         rdf:about="">
        <dc:format>image/svg+xml</dc:format>
        <dc:type
           rdf:resource="http://purl.org/dc/dcmitype/StillImage" />
        <dc:title></dc:title>
      </cc:Work>
    </rdf:RDF>
  </metadata>
  <defs
     id="defs6" />
  <sodipodi:namedview
     pagecolor="#ffffff"
     bordercolor="#666666"
     borderopacity="1"
     objecttolerance="10"
     gridtolerance="10"
     guidetolerance="10"
     inkscape:pageopacity="0"
     inkscape:pageshadow="2"
     inkscape:window-width="1366"
     inkscape:window-height="715"
     id="namedview4"
     showgrid="false"
     scale-x="2.1"
     fit-margin-top="0"
     fit-margin-left="0"
     fit-margin-right="0"
     fit-margin-bottom="0"
     inkscape:zoom="3.2882207"
     inkscape:cx="57.609802"
     inkscape:cy="90.071883"
     inkscape:window-x="-8"
     inkscape:window-y="-8"
     inkscape:window-maximized="1"
     inkscape:current-layer="svg2" />
  <path
     style="fill:#6f6f6f"
     d="M 80.45867,201.34498 C 42.549256,195.28761 13.906864,170.74812 3.3576045,135.28832 -0.37035452,122.75733 -1.1131015,100.71201 1.7303465,86.989969 9.8148045,47.975615 42.975988,16.251859 87.45867,4.9776839 96.923949,2.5787006 115.13434,0 122.61032,0 h 2.3043 l -2.94577,4.6449958 c -6.41048,10.1082882 -7.94407,22.4367282 -4.40689,35.4268942 2.39743,8.804481 2.24523,24.09528 -0.33612,33.768655 -1.32969,4.98289 -1.60687,7.447065 -0.863,7.672196 0.60271,0.182408 3.57083,0.869484 6.59583,1.526836 14.54139,3.159934 28.26895,13.63102 34.51676,26.328633 8.61807,17.51476 8.56164,38.77694 -0.15032,56.63179 -7.30374,14.96877 -25.0058,28.84082 -42.86644,33.59189 -5.93011,1.57745 -27.982937,2.71453 -34,1.75309 z m 32.20433,-3.87139 c 1.53762,-0.99894 5.33777,-4.40423 8.44477,-7.56729 5.80438,-5.90911 9.87452,-14.06426 9.82894,-19.69381 -0.0516,-6.37175 -6.97986,-15.57647 -14.74766,-19.59335 -2.57682,-1.33253 -3.3669,-1.32321 -7.30973,0.0863 l -4.42065,1.58028 3.04928,3.21554 c 7.53285,7.94356 7.00907,22.81338 -1.1389,32.33244 -3.41941,3.99482 -9.28342,7.6393 -17.381535,10.80262 -3.238342,1.26498 -2.524155,1.34862 8.675485,1.01602 9.66492,-0.28702 12.78605,-0.74036 15,-2.17871 z m -24.20433,-1.19222 c 13.95777,-4.33339 21.13838,-12.20184 22.24198,-24.37254 0.97023,-10.69985 -5.51361,-19.34798 -15.046248,-20.06866 -4.426002,-0.33462 -4.755605,-0.20484 -4.186216,1.64831 3.974992,12.93706 -1.520589,24.9334 -14.295609,31.20597 -5.316426,2.61039 -6.565996,2.80555 -17.962956,2.80555 -6.736977,0 -12.249477,0.14072 -12.25,0.31272 -0.0025,0.81797 13.869031,6.4592 21.233106,8.63501 8.725271,2.578 11.499796,2.55522 20.265943,-0.16636 z m 35.9933,-2.2785 c 2.56251,-1.09842 7.08251,-3.60569 10.04444,-5.5717 6.1219,-4.06349 9.66977,-10.08011 11.58038,-19.63845 2.18952,-10.95364 -2.41113,-21.15848 -11.43249,-25.35878 -7.43867,-3.46341 -11.82676,-3.23472 -15.65861,0.81606 l -3.07436,3.25 2.2185,1.5 c 1.22017,0.825 4.53038,3.77505 7.35602,6.55567 10.20112,10.0386 9.34261,22.25711 -2.50801,35.69433 -2.30403,2.6125 -3.96321,4.75 -3.68706,4.75 0.27614,0 2.59868,-0.89871 5.16119,-1.99713 z M 73.338862,183.95894 c 6.698278,-2.50615 13.362875,-8.18355 15.733681,-13.40313 3.623213,-7.97689 1.453112,-19.24989 -4.152681,-21.57188 -1.592185,-0.65951 -3.414901,-1.82569 -4.050481,-2.59152 -1.66058,-2.00087 -2.910711,-1.71536 -2.910711,0.66477 0,8.88457 -6.41575,18.15463 -15.171597,21.92129 -4.689775,2.01749 -6.419365,2.20682 -16.287676,1.78291 -11.465179,-0.49251 -18.4807,-2.44626 -24.709026,-6.88122 -5.160455,-3.67457 -2.939217,-0.0851 4.918299,7.94781 4.2625,4.35765 9.724936,8.92004 12.138747,10.13863 10.266253,5.18282 23.864712,5.96831 34.491445,1.99234 z M 154.1783,167 c 0.67064,-1.925 1.20865,-6.46697 1.19557,-10.09327 -0.0456,-12.65701 -5.28936,-20.36074 -15.97308,-23.46658 -6.31149,-1.8348 -15.44212,-1.201 -15.44212,1.0719 0,0.72841 -0.24964,1.97494 -0.55476,2.77007 -0.42325,1.10295 0.70285,1.61087 4.75,2.14244 7.61858,1.00067 13.2184,4.62395 16.80116,10.87098 2.64359,4.60947 2.98089,6.11905 2.95032,13.20446 -0.019,4.4 -0.66045,9.8 -1.42548,12 l -1.39098,4 3.93501,-4.5 c 2.16426,-2.475 4.48372,-6.075 5.15436,-8 z m -91.750021,0.10986 c 7.712028,-3.42403 13.508862,-12.21475 13.524814,-20.50995 0.0052,-2.71947 -4.7702,-13.61701 -5.953332,-13.5855 -0.2976,0.008 -1.775725,2.25302 -3.284721,4.98911 -5.85832,10.62221 -18.986587,16.41202 -31.75637,14.00516 -8.884493,-1.67456 -15.819993,-5.65032 -23.664301,-13.5655 l -7.1642995,-7.22902 1.506256,5.14292 c 5.4535615,18.62049 15.2766965,28.04622 33.5309715,32.17446 7.573794,1.71282 17.578283,1.10136 23.260982,-1.42168 z m 97.952741,-15.0683 c 2.10627,-9.26052 1.98866,-13.56109 -0.51214,-18.72705 -5.11889,-10.5742 -20.57405,-16.40659 -31.44233,-11.86554 -3.1133,1.30082 -3.46788,1.84614 -3.46788,5.33334 v 3.88436 l 7.25,0.0449 c 3.9875,0.0247 8.598,0.58059 10.24557,1.23528 8.89615,3.53505 14.47748,12.14585 14.49466,22.36214 0.0126,7.49484 1.42379,6.56254 3.43212,-2.26746 z M 52.184408,148.22434 c 5.991407,-2.65028 11.230778,-7.4702 13.728175,-12.62914 1.66496,-3.43935 2.136156,-6.53048 2.317932,-15.20605 C 68.427069,111.0082 68.820178,108.73822 71.068742,104 77.397862,90.663141 89.557437,82.482779 104.95856,81.2006 l 8.41539,-0.7006 1.81179,-7 c 3.08985,-11.937898 3.27997,-19.694459 0.76856,-31.35504 -3.17279,-14.731405 -2.59843,-25.276589 1.85278,-34.0168266 l 3.24505,-6.3718666 -7.79673,0.7106983 C 88.821021,4.6942414 64.779249,12.898276 46.69193,25.18114 38.857439,30.501441 26.109022,42.695438 20.291478,50.433453 12.230703,61.155229 5.7630055,76.052513 2.8964745,90.5 c -0.654754,3.3 -1.171349,11.45299 -1.147988,18.11776 0.03904,11.13756 0.260882,12.54877 2.742524,17.44606 5.390717,10.63807 18.2164585,21.16896 29.0853985,23.88129 5.349503,1.33496 13.37853,0.59248 18.607999,-1.72077 z m 50.611232,-1.07205 c 3.39066,-3.16735 4.69889,-6.88114 3.75239,-10.65229 -0.82097,-3.27099 -3.58936,-3.30728 -3.58936,-0.0471 0,4.40266 -2.19674,7.4662 -7.109005,9.91408 C 90.477971,149.04386 90.52269,150 96.019581,150 c 2.717119,0 4.553949,-0.77195 6.776059,-2.84771 z m 5.21842,1.81807 c 2.29439,-1.22792 4.94461,-6.03587 4.94461,-8.97036 0,-2.97251 -2.78952,-8 -4.43882,-8 -1.10562,0 -1.17208,0.57059 -0.32719,2.80896 1.43865,3.81142 0.23606,9.3918 -2.70871,12.56926 -2.59802,2.80331 -1.28126,3.63192 2.53011,1.59214 z M 96.574044,143.9287 c 3.472696,-2.14625 6.088306,-7.62502 4.431316,-9.28201 -0.63941,-0.63941 -2.29634,0.50427 -4.771639,3.29358 -3.451726,3.88961 -4.329843,4.33088 -9.783566,4.91644 L 80.45867,143.5 l 2.5,1.80988 c 3.033182,2.19588 8.769033,1.61402 13.615374,-1.38118 z m 21.086526,-4.74285 c 0.48205,-3.59396 0.17925,-4.45855 -2.49978,-7.13758 -3.06442,-3.06442 -5.20212,-3.90611 -5.20212,-2.04827 0,0.55 0.47296,1 1.05103,1 1.98692,0 4.17749,7.16753 3.49877,11.44799 -0.59225,3.73519 -0.51558,3.92594 0.98056,2.43959 0.89267,-0.88683 1.86987,-3.4526 2.17154,-5.70173 z m -25.537112,0.0104 c 3.172015,-1.8174 5.367032,-5.84311 3.533637,-6.48077 -0.659134,-0.22925 -2.271611,0.41599 -3.583284,1.43386 -2.940874,2.28214 -9.773765,2.43797 -14.8008,0.33754 -1.991782,-0.83222 -3.828659,-1.30589 -4.081949,-1.0526 -0.25329,0.25329 0.510806,2.03218 1.697991,3.95309 1.60502,2.59697 2.980503,3.58486 5.364068,3.85254 4.437532,0.49835 8.720629,-0.23905 11.870337,-2.04366 z m 29.819902,-5.43046 c 0.022,-2.49075 -5.0062,-7.58232 -8.23469,-8.33849 -3.15566,-0.73912 -3.8594,1.08582 -0.79392,2.05877 2.75021,0.87288 7.04095,6.24642 7.05923,8.84067 0.0125,1.76976 0.1953,1.89477 0.98469,0.67327 0.53316,-0.825 0.97627,-2.2804 0.98469,-3.23422 z m -31.249082,-1.29315 c 3.478611,-2.43651 1.900987,-4.0183 -3.62472,-3.63429 -5.364827,0.37283 -9.793565,-1.36636 -14.360888,-5.63959 l -2.75,-2.57293 v 2.75283 c 0,4.20137 1.752826,6.60589 6.330682,8.6844 5.059388,2.29715 11.4506,2.47887 14.404926,0.40958 z m 16.212382,-2.91727 c 1.66579,-1.77316 2.12505,-3.12822 1.67199,-4.93335 -0.73345,-2.92227 -4.08648,-4.30967 -6.19213,-2.56213 -0.8119,0.67382 -1.8021,0.8992 -2.20044,0.50086 C 99.26014,121.6348 102.81841,119 104.99481,119 c 0.90964,0 2.42805,0.85544 3.37424,1.90097 0.9462,1.04554 3.2527,2.18844 5.12555,2.53979 1.87286,0.35135 4.76844,1.78592 6.43463,3.18792 l 3.02944,2.54911 v -2.87701 c 0,-1.58235 -1.0125,-4.88485 -2.25,-7.33889 -4.10991,-8.15022 -15.6383,-11.53345 -22.8166,-6.69599 -3.876768,2.61255 -6.4815,8.41416 -5.511985,12.27702 1.755944,6.99623 9.992825,9.8384 14.526575,5.01244 z m 53.53274,-6.09493 c -1.67426,-8.13947 -4.45712,-11.15769 -13.45935,-14.59766 -10.19791,-3.89688 -20.65241,-2.4079 -24.51816,3.49197 -1.35592,2.06939 -1.35304,2.63903 0.0273,5.40598 l 1.54292,3.09286 4.5652,-1.55552 c 9.86685,-3.36197 24.17091,0.65249 30.12106,8.45353 1.38556,1.81657 2.66175,3.16029 2.83598,2.98606 0.17423,-0.17423 -0.32749,-3.44898 -1.11495,-7.27722 z m -71.452227,3.52432 c 2.848641,-1.52455 1.346403,-3.66918 -3.064147,-4.37446 -4.884905,-0.78113 -10.013742,-5.1758 -12.515696,-10.72414 -1.786916,-3.96267 -1.93952,-4.06933 -2.574407,-1.79926 -1.306027,4.66976 -0.845433,6.87634 2.146676,10.28417 2.931069,3.3383 10.123814,7.62655 12.794812,7.62815 0.723658,4.4e-4 2.169401,-0.45607 3.212762,-1.01446 z M 90.773444,118.75 c 0.196272,-1.03496 -0.27963,-1.75 -1.164725,-1.75 -2.348868,0 -7.783264,-5.07458 -9.286023,-8.67119 C 79.572482,106.5333 78.95867,103.24978 78.95867,101.03212 78.95867,98.814453 78.591533,97 78.142811,97 c -0.448722,0 -1.795297,1.742675 -2.992388,3.87261 -1.882549,3.34955 -2.02183,4.32879 -1.031189,7.25 1.616392,4.76643 4.603037,8.75816 8.227998,10.99695 3.706206,2.28896 7.957401,2.10251 8.426212,-0.36956 z m 2.185226,-4.85564 c 0,-0.60811 -1.097748,-2.41025 -2.43944,-4.00476 -3.065932,-3.64365 -4.15385,-10.476351 -2.631007,-16.524111 0.638276,-2.534822 1.002159,-4.767111 0.808629,-4.960641 -0.19353,-0.19353 -2.060554,0.809206 -4.148941,2.228302 l -3.797068,2.580174 0.378358,7.492576 c 0.361959,7.16785 0.53919,7.63997 4.089228,10.89334 3.607182,3.30574 7.740241,4.53126 7.740241,2.29512 z m 33.99493,-7.89226 c 5.06086,-2.09628 17.50051,-0.84238 23.8621,2.40526 6.10689,3.11762 6.15563,2.74834 0.64297,-4.87212 -5.23322,-7.234184 -8.6873,-8.845377 -17.95902,-8.377176 -8.98537,0.45374 -14.70311,3.752084 -17.55791,10.128476 l -1.85992,4.15427 2.57762,1.69089 c 2.50888,1.64581 2.64004,1.61672 4.91818,-1.09069 1.2873,-1.52988 3.7065,-3.34739 5.37598,-4.03891 z m -29.17458,3.71436 c 0.67529,-0.81367 0.72572,-1.82036 0.13776,-2.75 -0.51012,-0.80655 -0.93438,-3.90192 -0.9428,-6.8786 -0.01674,-5.916543 3.12129,-12.669277 7.22233,-15.541758 C 106.08387,83.224009 106.14583,83 104.624,83 c -5.22835,0 -10.940593,2.404294 -12.739268,5.361978 -3.754325,6.173493 -3.657791,15.166772 0.215659,20.091062 2.209994,2.80955 4.054816,3.22 5.678629,1.26342 z m 15.61644,-3.32062 c 1.89242,-7.540006 9.31008,-12.500192 19.98991,-13.367251 l 7.0733,-0.574257 -5.43496,-2.837738 c -6.20125,-3.237837 -11.13993,-3.149519 -17.94245,0.320864 -6.18959,3.157694 -9.12259,7.355303 -9.12259,13.055932 0,4.61216 0.68245,5.72302 3.64159,5.92766 0.62788,0.0434 1.43571,-1.09292 1.7952,-2.52521 z m -7.43679,-2.9455 c 0,-8.000898 4.40103,-13.5393 13.09859,-16.483717 5.67579,-1.921442 5.82697,-1.795517 -4.22711,-3.520925 -10.6313,-1.824466 -20.294968,13.969896 -14.39161,23.521732 0.35099,0.56791 1.73661,1.03257 3.07915,1.03257 2.23029,0 2.44098,-0.39269 2.44098,-4.54966 z"
     id="path12"
     inkscape:connector-curvature="0" />
  <path
     style="opacity:1;fill:#63a94f;fill-opacity:0.94117647;stroke-width:1"
     d="M 36.27188,182.93932 C 25.213898,174.60029 16.57864,164.36501 10.119249,151.94091 6.8351878,145.62428 3.8039591,137.54801 2.4717138,131.56515 -0.02487072,120.35345 -0.63175768,103.75694 1.0149092,91.72597 2.7661167,78.931199 8.0324554,65.443631 15.88768,53.635461 c 0.973611,-1.463558 2.419486,-3.531743 3.213053,-4.595968 l 1.442852,-1.934955 1.187971,-0.0038 1.187972,-0.0038 -0.826127,0.973792 C 17.075755,53.98528 11.911144,63.03393 8.2055669,72.402924 5.7377175,78.64251 3.3180167,87.099672 2.6117406,91.954057 1.9431246,96.549597 1.595128,105.46373 1.777712,113.31819 c 0.1169142,5.02945 0.2483059,6.35102 0.8373413,8.42219 0.5136812,1.80621 2.5058211,5.78712 4.0574379,8.10802 6.5552538,9.8053 18.1301538,18.27544 27.8433188,20.37484 2.09848,0.45357 7.787203,0.49297 10.357042,0.0717 3.226963,-0.52894 5.611509,-1.22397 7.949339,-2.317 6.2275,-2.9116 11.584448,-8.25522 13.709895,-13.67578 1.231344,-3.14032 1.49564,-5.40924 1.842109,-15.81403 0.275383,-8.27003 0.642578,-10.05516 3.096509,-15.05373 5.237509,-10.668623 14.307681,-17.979315 25.93816,-20.906538 3.252986,-0.818728 5.039496,-1.053973 13.213286,-1.739895 1.45489,-0.122091 2.69842,-0.276971 2.76339,-0.344177 0.16809,-0.173882 2.47084,-9.272042 3.01475,-11.911298 1.53416,-7.444308 1.71,-12.808065 0.67906,-20.713277 l -0.0942,-0.722275 h 0.85301 c 0.76031,0 0.86141,0.03718 0.93035,0.342131 0.19583,0.866364 0.38339,4.939029 0.38339,8.325171 0,6.981966 -0.63009,12.589959 -2.05016,18.24695 -1.11093,4.425508 -1.43729,7.016327 -0.93622,7.432178 0.11308,0.09385 2.01191,0.580779 4.21961,1.082068 4.74872,1.07826 6.67373,1.610348 9.16352,2.532872 2.23946,0.829774 6.73351,3.019383 8.92946,4.35065 7.60621,4.611174 14.30884,11.43691 18.10262,18.43512 3.70693,6.83797 6.04984,14.7559 6.99654,23.64501 0.27974,2.62676 0.23724,9.61771 -0.0758,12.46875 -1.06355,9.68589 -4.19024,19.22185 -8.61726,26.28145 -2.73972,4.36889 -6.94766,9.26164 -11.36592,13.21559 l -1.4018,1.25448 H 140.576 c -1.72,0 -1.65991,0.0931 -0.68379,-1.06003 1.98992,-2.3509 3.9897,-6.39807 5.17248,-10.46814 1.21201,-4.17063 1.70101,-7.5554 1.56436,-10.8284 -0.3562,-8.53197 -4.89599,-15.7145 -12.00528,-18.99386 -3.52441,-1.62573 -6.11132,-2.33573 -8.55198,-2.34715 -3.23343,-0.0152 -4.51144,0.64 -7.87801,4.03849 l -2.40393,2.42672 1.49158,1.03472 c 2.86526,1.98766 8.49234,7.17594 10.40769,9.59611 4.35623,5.50437 5.71538,11.28047 4.14504,17.61554 -0.63791,2.57346 -1.55947,4.7803 -3.22841,7.73102 l -0.70926,1.25399 -1.19594,4.5e-4 -1.19594,4.6e-4 0.27531,-0.41816 c 2.24745,-3.41367 3.82556,-6.83024 4.64376,-10.05365 0.61057,-2.40539 0.70638,-4.24869 0.31808,-6.11922 -1.35406,-6.52282 -8.30539,-14.68928 -15.23378,-17.89673 -1.40972,-0.65262 -2.56789,-0.77647 -3.95999,-0.42347 -0.89613,0.22725 -6.98885,2.32859 -7.12663,2.45794 -0.032,0.03 0.74815,0.89518 1.7337,1.92251 2.71197,2.82693 3.84246,4.45423 4.93478,7.10344 2.72392,6.6063 2.01938,15.37381 -1.78176,22.17286 l -0.70133,1.25448 h -1.12221 c -0.85738,0 -1.09521,-0.0448 -1.00783,-0.19007 0.0629,-0.10454 0.3314,-0.53221 0.59665,-0.95037 1.71711,-2.70698 2.92893,-6.21073 3.49733,-10.11185 0.19323,-1.32618 0.23665,-2.39157 0.17974,-4.40968 -0.0657,-2.32911 -0.13315,-2.88457 -0.54095,-4.45339 -0.50844,-1.95602 -1.57648,-4.36061 -2.61819,-5.89459 -0.93303,-1.37395 -2.71485,-3.18257 -4.03348,-4.09413 -2.55552,-1.76663 -5.162445,-2.62656 -8.676324,-2.86201 -2.459561,-0.16481 -3.133289,-0.10826 -3.496866,0.29349 -0.25317,0.27975 -0.240005,0.39356 0.292841,2.53144 0.797973,3.20164 0.927745,4.19778 0.925522,7.10438 -0.0023,3.03764 -0.263988,4.75971 -1.12107,7.37796 -2.01269,6.14845 -6.410873,11.20961 -12.865295,14.80459 l -1.533682,0.85431 -2.799969,-0.008 -2.799969,-0.008 1.444551,-0.52003 c 4.187129,-1.50731 8.508496,-4.29896 11.866648,-7.66596 4.234648,-4.24581 6.072595,-8.69493 6.075289,-14.70645 0.0021,-4.66721 -1.320994,-8.7443 -3.633019,-11.19517 -0.784685,-0.83181 -1.239944,-1.16189 -2.284411,-1.65627 -1.595904,-0.75539 -3.738213,-2.1514 -4.063585,-2.64798 -0.363686,-0.55506 -1.431326,-1.28008 -1.884993,-1.28008 -0.767863,0 -0.928151,0.3989 -1.144055,2.84712 -0.319552,3.62352 -0.928711,5.88363 -2.358698,8.75127 -2.935453,5.88664 -7.700093,10.28435 -13.788307,12.72646 -3.74191,1.50096 -6.357376,1.74866 -14.482658,1.37159 -12.028034,-0.55819 -18.318126,-2.20823 -24.811344,-6.50863 -2.932551,-1.9422 -3.471429,-2.18536 -3.471429,-1.56642 0,1.47864 9.416795,11.40115 15.35658,16.18129 3.419602,2.75198 5.20594,3.7491 9.352832,5.22068 l 1.824695,0.64752 -3.431003,0.008 -3.431001,0.008 z m 111.42917,-6.31849 c 3.25558,-3.74167 5.42191,-6.88087 6.35652,-9.21111 0.81058,-2.02098 1.32141,-6.02204 1.32462,-10.37487 0.002,-3.20389 -0.13741,-4.76764 -0.65468,-7.32378 -1.60245,-7.91873 -6.26979,-13.21384 -14.04273,-15.93155 -3.14644,-1.10012 -7.83698,-1.67458 -11.31984,-1.38637 -3.82336,0.31639 -5.498,1.0333 -5.498,2.35369 0,0.24915 -0.14858,1.05886 -0.33018,1.79935 l -0.33019,1.34634 0.3682,0.36817 c 0.44114,0.4411 1.94225,0.85229 4.40973,1.20792 4.46687,0.6438 7.92332,1.94917 10.97041,4.14309 4.13028,2.97383 8.04604,9.17813 8.61576,13.65122 0.54545,4.28252 0.22566,11.89827 -0.6864,16.34623 -0.12861,0.62724 -0.60387,2.22599 -1.05612,3.55277 -0.49391,1.44898 -0.73216,2.33754 -0.59661,2.22505 0.12413,-0.10302 1.2354,-1.34778 2.46951,-2.76615 z m -92.785482,-7.47561 c 6.145687,-0.94006 9.821391,-2.58025 13.487837,-6.01861 3.756719,-3.52302 6.518747,-8.56789 7.325083,-13.37932 0.494763,-2.95227 0.264549,-4.58704 -1.179312,-8.37441 -1.718895,-4.5088 -3.79921,-8.36318 -4.513843,-8.36318 -0.346619,0 -1.176805,1.19612 -3.113355,4.4857 -1.660007,2.81983 -2.635082,4.15245 -4.317793,5.9011 -4.389807,4.56181 -10.322429,7.61591 -16.895014,8.69751 -2.05542,0.33824 -5.967761,0.45541 -7.983041,0.23908 -7.263101,-0.77967 -13.994506,-3.57084 -20.130157,-8.34697 -2.369732,-1.84465 -4.695725,-4.00106 -9.2834944,-8.60665 -2.2946207,-2.30353 -4.1881823,-4.17209 -4.2079148,-4.15236 -0.05127,0.0513 1.5026324,5.30774 2.2350961,7.56079 3.3677156,10.35901 8.5138671,17.81911 15.7245041,22.79496 5.733466,3.9565 14.494028,7.02354 22.352515,7.82553 1.475685,0.1506 9.032128,-0.0388 10.498889,-0.26317 z M 158.22452,159.02215 c 0.71011,-0.99725 1.78254,-4.6841 2.72877,-9.38108 1.73302,-8.60237 1.08796,-13.40333 -2.54104,-18.91224 -1.07645,-1.63408 -3.74382,-4.30646 -5.6543,-5.66493 -1.87189,-1.33103 -5.38902,-3.09101 -7.6029,-3.80451 -6.15546,-1.98382 -11.92924,-1.89051 -17.06578,0.27581 -1.60136,0.67537 -2.26093,1.14579 -2.71294,1.93495 -0.35426,0.6185 -0.37098,0.77589 -0.41982,3.95142 l -0.0509,3.30726 3.70026,0.001 c 5.69306,0.002 10.33301,0.35972 12.84202,0.98982 1.30585,0.32795 4.38697,1.89754 5.85471,2.98252 3.27326,2.41967 5.82036,5.59286 7.43554,9.26321 1.41417,3.21359 1.93534,5.77255 2.12864,10.45162 0.1334,3.22882 0.29223,4.43802 0.63842,4.86034 0.23289,0.28411 0.3696,0.23553 0.71929,-0.25555 z m -51.48983,-9.36895 c 0.51594,-0.2087 1.28938,-0.62043 1.71875,-0.91496 2.42044,-1.66028 4.85861,-6.67713 4.54024,-9.34211 -0.38132,-3.19197 -2.98476,-7.45084 -4.55469,-7.45084 -0.99451,0 -1.06991,0.58279 -0.35208,2.72132 0.46729,1.39211 0.49034,1.57029 0.49378,3.81717 0.003,2.01195 -0.0475,2.53494 -0.34593,3.57336 -0.51342,1.78674 -1.43144,3.5702 -2.53665,4.92803 -1.18801,1.45954 -1.59738,2.11358 -1.59813,2.55327 -0.001,0.74826 0.9646,0.79033 2.63471,0.11476 z m -8.440096,0.15575 c 1.286706,-0.30333 2.382226,-0.85878 3.630146,-1.84055 2.17757,-1.71314 4.0927,-4.4579 4.67032,-6.6935 0.35527,-1.37505 0.32029,-3.72012 -0.0746,-4.99854 -0.36657,-1.18681 -1.16639,-2.15209 -1.89921,-2.29212 -1.0093,-0.19286 -1.73489,0.99754 -1.74097,2.85622 -0.007,2.20951 -0.95437,4.53754 -2.52225,6.19957 -1.18939,1.26082 -2.522523,2.18598 -5.282885,3.6662 -2.883576,1.54629 -3.807538,2.43936 -2.981262,2.88157 0.884429,0.47333 4.572965,0.60489 6.200681,0.22115 z m -8.147987,-3.33949 c 2.551495,-0.44494 5.80374,-1.86133 7.478632,-3.25703 1.207336,-1.00607 2.315061,-2.46673 3.099891,-4.08757 0.56667,-1.17026 0.69507,-1.59936 0.75078,-2.50895 0.0773,-1.26256 -0.10353,-1.86625 -0.63115,-2.10665 -0.74535,-0.33961 -1.60625,0.29281 -4.804417,3.5293 -4.090866,4.13988 -4.185177,4.18068 -11.404344,4.93344 -2.132613,0.22237 -3.973998,0.43459 -4.091969,0.4716 -0.311191,0.0976 3.051287,2.42395 3.921232,2.7129 1.721578,0.57182 3.602719,0.67544 5.681345,0.31296 z m 25.111703,-1.29536 c 1.17393,-1.08209 2.16122,-3.65194 2.53068,-6.58714 0.34924,-2.77462 -0.0338,-3.88127 -2.09215,-6.04423 -1.94821,-2.04723 -3.60301,-3.28217 -4.77966,-3.56694 -0.49367,-0.11948 -1.03957,0.35114 -1.03957,0.89621 0,0.50993 0.55747,1.16094 0.99412,1.16094 1.45165,0 3.14526,3.83535 3.59382,8.13859 0.15261,1.46407 0.14148,1.97919 -0.0759,3.51692 -0.46345,3.27767 -0.34822,3.60738 0.86871,2.48565 z m -28.652071,-4.04704 c 3.200167,-0.49185 5.696663,-1.64509 7.532499,-3.4796 2.289501,-2.28784 2.936435,-4.6382 1.383914,-5.02785 -0.50262,-0.12615 -1.939059,0.4279 -3.016976,1.16368 -2.324767,1.58687 -3.943755,2.0201 -7.565562,2.02451 -3.435742,0.004 -4.161407,-0.14731 -9.008195,-1.8806 -0.731098,-0.26145 -1.671956,-0.51595 -2.090797,-0.56556 -0.732201,-0.0867 -0.761525,-0.0758 -0.761525,0.28416 0,0.47824 1.195975,2.94093 2.057775,4.23726 0.84045,1.26422 2.138649,2.49687 3.033711,2.88054 1.730775,0.74189 5.044015,0.88466 8.435156,0.36346 z m 34.032191,-3.59409 c 0.4776,-0.50837 1.08855,-1.94075 1.27199,-2.98218 0.13359,-0.7584 0.11795,-1.04824 -0.0904,-1.67563 -0.76416,-2.30068 -3.9083,-5.55059 -6.73902,-6.96574 -0.9129,-0.45639 -1.31538,-0.56551 -2.29496,-0.62222 -1.42161,-0.0823 -1.84398,0.0839 -1.84398,0.72544 0,0.5396 0.58029,1.01013 1.87889,1.5235 1.1821,0.46731 2.368,1.36239 3.70425,2.79585 1.99987,2.14534 3.21459,4.30948 3.33798,5.94695 0.129,1.71181 0.21482,1.85063 0.77529,1.25403 z m -31.856035,-4.11715 c 1.374056,-0.47211 2.166854,-0.94117 3.001632,-1.77595 1.06427,-1.06427 1.020681,-1.95606 -0.121023,-2.47593 -0.654471,-0.29801 -1.072559,-0.33509 -4.822166,-0.42767 -4.405999,-0.10879 -4.97976,-0.19216 -7.185568,-1.04412 -2.35119,-0.90812 -4.604737,-2.41656 -7.195186,-4.8162 -0.788297,-0.73024 -1.697234,-1.57145 -2.019857,-1.86937 l -0.586588,-0.54166 0.07625,2.50895 c 0.08307,2.73347 0.264818,3.60306 1.037657,4.96485 0.568164,1.00114 2.117417,2.45115 3.43828,3.21804 2.325022,1.3499 4.487602,2.07771 7.949304,2.67531 0.209079,0.0361 1.474962,0.0485 2.813071,0.0276 2.182047,-0.0341 2.554738,-0.0799 3.614194,-0.44387 z m 14.905635,-1.77606 c 2.49411,-0.77035 4.86255,-3.27607 5.07901,-5.37342 0.1597,-1.54735 -0.66359,-3.40589 -1.87934,-4.24249 -0.83953,-0.57772 -1.31772,-0.72261 -2.38483,-0.72261 -0.85065,0 -1.06206,0.0695 -2.11211,0.6944 -0.87839,0.52275 -1.29068,0.6825 -1.66783,0.64624 -1.67725,-0.16121 0.56393,-2.56592 3.11306,-3.34019 1.02873,-0.31247 1.0937,-0.3148 1.87847,-0.0674 0.84825,0.26738 1.75687,0.88265 2.99278,2.02653 0.83236,0.77038 2.8002,1.7478 4.22992,2.10099 1.66426,0.41113 2.44548,0.69363 3.85909,1.39547 1.57642,0.78267 2.61224,1.50151 4.63777,3.21848 l 1.44455,1.22451 0.0425,-1.98569 c 0.0371,-1.73328 -0.007,-2.17248 -0.34766,-3.45531 -0.47044,-1.77189 -1.54041,-4.45734 -2.23174,-5.60126 -4.52248,-7.48329 -14.92539,-10.44765 -21.976189,-6.26224 -3.22444,1.91406 -5.855337,6.24788 -6.217232,10.24151 -0.36373,4.01391 2.875169,8.47161 6.952061,9.56814 1.23653,0.33258 3.39859,0.30165 4.58771,-0.0656 z m 57.65906,-3.63016 c -0.42853,-2.77106 -1.25104,-6.47632 -1.80537,-8.13288 -1.56902,-4.68896 -3.71798,-6.99418 -8.81782,-9.45898 -3.7368,-1.80603 -7.36691,-2.96356 -10.91039,-3.47899 -2.14977,-0.3127 -6.03731,-0.30808 -7.89872,0.009 -4.85074,0.82729 -8.43687,3.09501 -10.1035,6.38904 -0.67412,1.33238 -0.54183,2.06469 0.91215,5.04933 0.65874,1.3522 1.27382,2.45856 1.36684,2.45856 0.093,0 1.50068,-0.44819 3.12811,-0.99597 3.81223,-1.28317 5.63216,-1.61299 8.96524,-1.62472 4.97508,-0.0175 9.5764,0.99693 13.9133,3.06743 4.20506,2.00756 6.20803,3.6019 9.33394,7.42972 0.70119,0.85863 1.45387,1.70251 1.67264,1.87531 l 0.39777,0.31417 0.0477,-0.64349 c 0.0263,-0.35392 -0.0646,-1.36998 -0.20193,-2.25791 z m -73.869745,-0.32974 c 1.411919,-0.47681 2.512099,-1.19343 2.829742,-1.8432 0.24504,-0.50125 0.250701,-0.61196 0.05522,-1.07981 -0.398198,-0.95303 -1.638603,-1.5952 -4.158576,-2.15293 -2.883325,-0.63816 -4.715665,-1.49995 -6.922033,-3.25557 -2.489179,-1.98067 -4.405731,-4.54113 -6.16403,-8.235 -1.130245,-2.37443 -1.43014,-2.78082 -1.785746,-2.41986 -0.310433,0.31511 -0.958153,2.68808 -1.157037,4.2389 -0.348594,2.7182 0.359597,4.67671 2.664955,7.36997 2.173715,2.53947 7.491299,6.08362 10.968616,7.31054 1.305444,0.46061 2.441822,0.48135 3.668891,0.067 z m 2.016605,-7.33858 c 0.80186,-0.39424 1.198741,-0.89313 1.323852,-1.6641 0.181516,-1.11855 -0.302765,-1.65089 -1.676073,-1.84238 -1.80215,-0.2513 -5.837851,-3.77523 -7.803695,-6.81412 -1.353934,-2.09296 -2.083271,-4.96941 -2.323217,-9.16257 -0.07707,-1.346794 -0.184553,-2.583966 -0.238854,-2.74927 -0.300149,-0.913709 -0.433855,-1.136872 -0.681151,-1.136872 -0.862003,0 -4.182525,5.448692 -4.532973,7.438222 -0.193881,1.10068 -0.0622,2.06944 0.510519,3.75595 2.237803,6.58971 7.268196,11.73766 12.236278,12.52224 1.153035,0.1821 2.381177,0.0483 3.185314,-0.3471 z m 3.104583,-5.58957 c 0.805411,-0.63354 0.411476,-1.70724 -1.595139,-4.34767 -1.50273,-1.97738 -2.109331,-3.06494 -2.700037,-4.8408 -0.686815,-2.0648 -0.966349,-3.93453 -0.977537,-6.53849 -0.0104,-2.421977 0.112781,-3.384764 0.836592,-6.53849 0.530915,-2.313259 0.724497,-4.181593 0.433262,-4.181593 -0.390017,0 -2.443988,1.18917 -4.948052,2.864733 -1.421741,0.951341 -2.672164,1.811974 -2.778715,1.912519 -0.156894,0.148047 -0.149986,1.048505 0.03633,4.735458 0.473507,9.370263 0.652867,10.159093 2.831427,12.452543 3.292581,3.46623 7.468238,5.57802 8.861873,4.48179 z m 26.980327,-2.63648 c 0.22583,-0.11802 1.09474,-0.95201 1.9309,-1.8533 2.60838,-2.81156 4.81501,-4.20449 7.62366,-4.8124 1.28944,-0.27909 1.99123,-0.32442 4.99743,-0.32279 6.77357,0.004 11.95487,1.11947 17.56269,3.78217 2.9275,1.39003 3.59558,1.60925 3.74195,1.22784 0.21902,-0.57077 -0.4677,-1.79433 -3.01733,-5.3761 -5.0527,-7.098141 -7.7295,-8.996271 -13.57351,-9.62504 -1.77855,-0.191357 -5.59388,-0.106626 -7.85669,0.174481 -5.10926,0.634718 -9.01226,2.323618 -11.79282,5.102979 -1.5025,1.50185 -2.59776,3.24823 -4.0021,6.38136 l -1.18927,2.6533 1.5483,1.03782 c 1.80414,1.20931 2.95451,1.84427 3.34132,1.84427 0.15117,0 0.45963,-0.0966 0.68547,-0.21459 z m -22.661055,-1.57209 c 0.936972,-0.63285 1.296085,-1.17885 1.371216,-2.08482 0.04887,-0.58929 -0.01259,-0.94218 -0.24258,-1.39301 -0.54226,-1.06292 -0.801756,-2.71534 -0.89485,-5.69824 -0.102528,-3.285231 0.11097,-4.985597 0.946329,-7.536865 1.35503,-4.138401 3.54115,-7.309684 6.60972,-9.588384 1.35426,-1.005663 1.31314,-1.171786 -0.30411,-1.22839 -3.16817,-0.110885 -7.639792,1.204924 -10.288981,3.027615 -1.608843,1.106913 -2.798682,2.793841 -3.74392,5.308048 -0.915469,2.435027 -1.431746,5.848376 -1.268045,8.383655 0.263416,4.079581 1.468679,7.201601 3.68871,9.554941 1.607156,1.70367 2.886578,2.09292 4.126511,1.25545 z m 15.423585,-1.97676 c 0.51367,-0.54813 0.92316,-1.40501 1.25349,-2.62299 1.36005,-5.01471 5.81434,-9.218957 11.92626,-11.256782 3.22101,-1.073941 5.17232,-1.39283 11.65087,-1.90401 3.01564,-0.237947 3.40963,-0.290031 3.25657,-0.430525 -0.33695,-0.309298 -7.80377,-3.946391 -8.73225,-4.253483 -3.5808,-1.184345 -7.28414,-1.135042 -10.90608,0.145197 -1.82654,0.645623 -5.27964,2.399737 -6.63092,3.368386 -4.35481,3.121706 -6.25617,6.668486 -6.25617,11.670197 0,3.65325 0.65683,5.09505 2.52023,5.53214 1.0849,0.25448 1.49696,0.20117 1.918,-0.24813 z m -7.0331,-0.86746 c 0.49575,-0.44865 0.60916,-1.08689 0.75815,-4.26668 0.11231,-2.39701 0.22182,-3.34794 0.51842,-4.501595 0.71423,-2.778158 1.91716,-4.874 3.96334,-6.905264 2.20635,-2.190265 4.95188,-3.741517 9.28921,-5.248489 2.76576,-0.960945 3.15117,-1.146181 3.08801,-1.484164 -0.07,-0.374742 -1.13736,-0.678122 -4.68462,-1.331564 -5.11008,-0.941327 -7.18388,-0.860176 -9.84531,0.385259 -4.67947,2.189786 -8.57081,7.604544 -9.565167,13.309806 -0.320351,1.838062 -0.207602,4.731191 0.245547,6.300611 0.42238,1.46286 1.21027,3.02857 1.71285,3.4038 0.96429,0.71994 3.85847,0.93656 4.51957,0.33828 z"
     id="path14"
     inkscape:connector-curvature="0" />
  <path
     style="opacity:1;fill:#63a94f;fill-opacity:0.94117647;stroke-width:1"
     d="m 81.605249,201.41033 c -2.973502,-0.28736 -9.408927,-1.68025 -14.286267,-3.09213 -9.363285,-2.71047 -18.610685,-6.95189 -26.347321,-12.0845 l -2.20484,-1.46272 3.345274,-0.0418 c 3.267763,-0.0409 3.389315,-0.0312 5.245999,0.41563 7.478313,1.7999 15.086783,1.82737 22.012001,0.0795 2.007258,-0.50662 2.196506,-0.52707 4.826222,-0.52158 l 2.737042,0.006 -0.595263,0.31388 c -1.262486,0.6657 -3.685482,1.54189 -5.012551,1.81261 -2.140782,0.43672 -5.353371,0.59108 -12.639136,0.60731 -6.90291,0.0154 -11.539032,0.14983 -11.72938,0.34018 -0.174924,0.17493 0.357073,0.51315 2.321181,1.47574 2.306214,1.13026 7.135252,3.12193 11.180974,4.61144 11.067703,4.07481 16.09214,5.0732 21.187971,4.2102 2.333718,-0.39523 6.922947,-1.68962 9.807735,-2.76627 6.235397,-2.32716 11.14663,-5.69173 14.27905,-9.78221 l 0.69866,-0.91235 1.02639,0.045 c 0.56451,0.0247 1.02639,0.0827 1.02639,0.12891 0,0.0462 -0.38926,0.64177 -0.86502,1.32356 -1.06118,1.52072 -3.8023,4.27073 -5.47355,5.4913 -3.15824,2.30657 -7.388346,4.5899 -12.132203,6.54874 -2.65913,1.09801 -2.921154,1.24582 -2.662955,1.50222 0.212283,0.2108 8.502073,0.17532 13.449788,-0.0576 8.01313,-0.37718 10.37094,-0.87525 12.73781,-2.69079 3.09062,-2.3707 9.05917,-8.27946 10.83618,-10.72763 l 1.06441,-1.46642 1.18235,-0.0106 1.18235,-0.0106 -0.2176,0.41816 c -0.42562,0.81792 -2.9543,4.10315 -4.94496,6.42445 -2.32302,2.70887 -3.36049,4.04863 -3.36049,4.33966 0,0.15607 0.24302,0.1213 1.03506,-0.14809 5.66094,-1.92541 14.09083,-6.66614 17.40493,-9.78804 l 1.40357,-1.32217 1.43846,0.076 1.43846,0.076 -0.83023,0.7013 c -7.00287,5.91537 -16.99364,11.26833 -25.61567,13.72465 -2.9099,0.829 -6.6927,1.35798 -13.15301,1.8393 -6.899828,0.51407 -17.395857,0.70287 -20.797811,0.3741 z"
     id="path16"
     inkscape:connector-curvature="0" />
  <path
     style="opacity:1;fill:#63a94f;fill-opacity:0.94117647;stroke-width:1.99999988"
     d="m 117.82469,47.040282 -0.86017,-0.064 -1.03352,-5.419588 c -1.33019,-6.975346 -1.63175,-9.312706 -1.79505,-13.913754 -0.20612,-5.807132 0.36627,-10.347904 1.88866,-14.982725 0.38175,-1.162229 1.69029,-4.0914632 2.90785,-6.509409 1.21756,-2.4179456 2.19002,-4.4199941 2.16102,-4.4489966 -0.1055,-0.1055047 -11.31134,1.0035828 -14.451,1.4302742 C 85.174644,6.049648 64.493166,13.465413 48.140778,24.109064 41.413056,28.488088 31.242402,37.627892 23.925842,45.869686 c -0.963224,1.085032 -1.042004,1.127068 -2.11227,1.127068 h -1.11173 l 0.462002,-0.591368 C 22.92005,44.15743 26.702756,39.960502 29.377674,37.29211 44.662124,22.044932 65.001704,10.755704 87.263448,5.1633332 94.995106,3.2210648 106.28181,1.3953213 116.41345,0.4480133 c 3.27595,-0.30630162 8.18507,-0.44984702 8.18507,-0.23933606 0,0.0501388 -0.81037,1.38071356 -1.80083,2.95683256 -3.14815,5.0096714 -4.825,8.7611632 -5.91887,13.2418092 -0.923,3.780783 -1.18722,6.175141 -1.16865,10.590493 0.0194,4.598054 0.3232,6.975216 1.57528,12.32305 0.70195,2.998144 1.58322,7.783412 1.43342,7.783412 -0.0188,0 -0.42109,-0.0288 -0.89418,-0.064 z"
     id="path18"
     inkscape:connector-curvature="0" />
</svg>
