<?xml version="1.0" encoding="UTF-8" standalone="no"?>
<!-- Created with Inkscape (http://www.inkscape.org/) -->

<svg
   xmlns:dc="http://purl.org/dc/elements/1.1/"
   xmlns:cc="http://creativecommons.org/ns#"
   xmlns:rdf="http://www.w3.org/1999/02/22-rdf-syntax-ns#"
   xmlns:svg="http://www.w3.org/2000/svg"
   xmlns="http://www.w3.org/2000/svg"
   xmlns:sodipodi="http://sodipodi.sourceforge.net/DTD/sodipodi-0.dtd"
   xmlns:inkscape="http://www.inkscape.org/namespaces/inkscape"
   version="1.1"
   id="svg2"
   width="102.99515"
   height="90.754005"
   viewBox="0 0 278.08689 245.03582"
   sodipodi:docname="doc-fond-4.svg"
   inkscape:version="0.92.2 (5c3e80d, 2017-08-06)">
  <metadata
     id="metadata8">
    <rdf:RDF>
      <cc:Work
         rdf:about="">
        <dc:format>image/svg+xml</dc:format>
        <dc:type
           rdf:resource="http://purl.org/dc/dcmitype/StillImage" />
        <dc:title></dc:title>
      </cc:Work>
    </rdf:RDF>
  </metadata>
  <defs
     id="defs6" />
  <sodipodi:namedview
     pagecolor="#ffffff"
     bordercolor="#666666"
     borderopacity="1"
     objecttolerance="10"
     gridtolerance="10"
     guidetolerance="10"
     inkscape:pageopacity="0"
     inkscape:pageshadow="2"
     inkscape:window-width="1366"
     inkscape:window-height="715"
     id="namedview4"
     showgrid="false"
     scale-x="2.7"
     fit-margin-top="0"
     fit-margin-left="0"
     fit-margin-right="0"
     fit-margin-bottom="0"
     inkscape:zoom="1.9186992"
     inkscape:cx="1.7383034"
     inkscape:cy="-18.179853"
     inkscape:window-x="-8"
     inkscape:window-y="-8"
     inkscape:window-maximized="1"
     inkscape:current-layer="svg2" />
  <path
     style="fill:#717171"
     d="m 103.88153,224.78572 -34.739484,-20.18614 -0.01051,-41.0507 -0.01051,-41.05071 19.014274,-12.19929 c 10.457851,-6.70962 19.45784,-12.199299 19.99999,-12.199299 2.67824,0 -0.49953,2.410969 -17.111827,12.982689 -9.924081,6.31548 -18.467258,11.99295 -18.984838,12.6166 -0.562877,0.67822 -0.835875,16.93372 -0.679327,40.45002 l 0.261728,39.31612 34.180064,19.79725 34.18007,19.79726 33.56717,-19.72997 33.56718,-19.72997 0.003,-40.10154 0.003,-40.10154 -18.4768,-12.2815 C 178.48248,104.36018 170.396,98.46446 170.67477,98.0134 c 0.46331,-0.749652 12.71648,6.81666 31.19674,19.26393 l 7.25,4.8832 v 41.37134 41.37134 L 174.9912,225.0014 c -18.77168,11.054 -34.63418,20.06944 -35.25,20.03432 -0.61583,-0.0351 -16.75246,-9.14762 -35.85918,-20.25 z M 18.859925,135.52104 0.09882702,123.10989 0.35992442,81.971769 0.62102182,40.833647 35.286807,20.416823 69.952591,0 104.58527,20.078854 c 19.04797,11.04337 34.94837,19.915963 35.33422,19.716872 0.38584,-0.199091 15.82972,-9.227706 34.31974,-20.06359 l 33.6182,-19.70160711 35.1146,20.28452611 35.11461,20.284526 1.2e-4,41.5 1.3e-4,41.499999 -19.12375,12.22199 c -10.51806,6.7221 -19.56287,11.9506 -20.09957,11.6189 -0.94327,-0.58297 1.86862,-2.53489 26.03376,-18.07169 l 11.24641,-7.2308 -0.26136,-40.164971 -0.26136,-40.164968 -33.3911,-19.35423 C 223.86481,11.808985 208.41326,3.0995813 207.89313,3.0995813 c -0.52012,0 -15.98163,8.8346677 -34.35889,19.6325957 l -33.41322,19.632596 v 39.718945 39.718942 l 18.5,12.29692 c 16.24135,10.7956 20.32638,14 17.84744,14 -0.3589,0 -8.8588,-5.42432 -18.88866,-12.05403 l -18.2361,-12.05404 -18.75985,12.10552 c -10.31793,6.65804 -19.12011,11.74485 -19.56041,11.30403 -0.4403,-0.44081 7.61404,-6.21587 17.89852,-12.83346 l 18.69906,-12.03199 V 82.134741 41.73387 L 104.19893,22.376543 C 85.816783,11.730013 70.187626,3.149798 69.467473,3.3093986 68.74732,3.4689991 53.543428,12.149581 35.681047,22.599581 l -32.4770562,19 -0.031733,40.5 -0.031733,40.499999 17.9902482,11.80666 c 15.563317,10.21391 20.29703,13.95076 17.240248,13.60965 -0.4125,-0.046 -9.192494,-5.66872 -19.511096,-12.49485 z"
     id="path12"
     inkscape:connector-curvature="0" />
  <path
     style="opacity:1;fill:#63a94f;fill-opacity:0.94117647;stroke-width:1"
     d="m 131.73885,240.41352 c -8.71215,-4.84761 -21.87883,-12.41387 -45.839165,-26.34157 l -16.15678,-9.39163 -0.128174,-41.07454 -0.128174,-41.07454 13.157835,-8.42005 c 17.384468,-11.12478 25.389468,-16.005098 25.716348,-15.678212 0.52502,0.525018 -4.41188,4.045672 -17.770377,12.672592 -7.452966,4.81313 -14.745177,9.62617 -16.204913,10.69563 l -2.654065,1.94449 -0.340387,5.90761 c -0.44222,7.67499 -0.441257,50.33824 0.0014,63.7593 l 0.34383,10.42373 33.315362,19.28389 c 18.32345,10.60615 33.71455,19.47331 34.20246,19.7048 0.65895,0.31265 9.52767,-4.66076 34.48456,-19.33828 l 33.59747,-19.75918 0.1335,-40.12255 0.13349,-40.12255 -9.25426,-6.14384 c -13.1125,-8.70531 -25.74144,-17.582904 -25.44067,-17.883678 0.40706,-0.40705 6.80877,3.525768 21.78323,13.382278 l 13.93579,9.17283 0.006,41.45118 0.006,41.45117 -11.85699,7.00311 c -31.52749,18.62114 -56.1756,32.83395 -56.9412,32.83395 -0.17021,0 -3.81613,-1.95117 -8.10204,-4.33594 z"
     id="path14"
     inkscape:connector-curvature="0" />
  <path
     style="opacity:1;fill:#63a94f;fill-opacity:0.94117647;stroke-width:1"
     d="M 35.562554,146.04999 C 33.990155,145.10279 25.345326,139.46861 16.351823,133.5296 L 0,122.73139 0.34285088,110.95069 C 0.5314189,104.47131 0.68570181,86.097526 0.68570181,70.120071 V 41.070152 L 35.330576,20.667082 69.975448,0.26401281 89.664262,11.690121 C 109.40067,23.143849 129.04631,34.34975 136.00169,38.121053 l 3.71641,2.015091 4.36198,-2.523037 c 2.39909,-1.38767 17.59082,-10.269695 33.7594,-19.737833 16.16858,-9.4681372 29.67791,-17.21479513 30.02072,-17.21479513 0.34281,0 16.24966,9.01001073 35.34856,20.02224513 l 34.72526,20.022246 -0.0141,41.434322 -0.0141,41.434318 -8.18317,5.18999 c -19.60458,12.43377 -29.61528,18.37366 -30.11819,17.87076 -0.22409,-0.22409 14.61992,-10.12832 31.37013,-20.9308 l 5.58695,-3.60312 -0.34417,-26.88629 c -0.18924,-14.787466 -0.34436,-32.884805 -0.34466,-40.216319 l -5.7e-4,-13.33002 -26.18962,-15.148418 C 211.24533,4.2868199 208.27814,2.6768776 206.90864,3.3111465 205.06515,4.1649398 187.5837,14.260617 162.90498,28.723616 l -23.0625,13.515807 0.0132,39.885318 0.0132,39.885309 15.4921,10.29073 c 15.408,10.23486 21.80867,14.83761 21.31709,15.3292 -0.31873,0.31872 -6.06625,-3.29729 -23.66684,-14.88977 l -13.67234,-9.00519 -12.90816,8.30096 c -14.18164,9.11989 -23.01482,14.43945 -23.37642,14.07786 -0.36848,-0.3685 7.53979,-5.83532 21.68359,-14.98938 l 13.0262,-8.43072 -0.13347,-40.659524 -0.13346,-40.659522 -9.90254,-5.745567 C 106.11828,23.168328 82.450807,9.7058036 76.248428,6.4224208 L 69.724289,2.9687071 65.564106,5.1928997 C 61.023086,7.6207029 51.224993,13.280253 21.924049,30.400167 L 2.7704476,41.591206 v 40.486133 40.486131 l 16.2870764,10.82414 c 15.893145,10.56232 20.132374,13.61613 19.617031,14.13147 -0.139202,0.1392 -1.539602,-0.52189 -3.112001,-1.46909 z"
     id="path16"
     inkscape:connector-curvature="0" />
  <path
     style="opacity:1;fill:#63a94f;fill-opacity:0.94117647;stroke-width:1"
     d="m 207.16316,123.48629 c -0.0212,-0.0812 -1.55406,-1.13695 -4.19338,-2.88818 -19.55458,-12.97485 -23.50446,-15.65958 -28.40268,-19.30534 -2.1758,-1.619443 -3.86871,-3.031824 -3.86871,-3.22762 0,-0.104565 0.34039,-0.05244 0.77067,0.118025 2.21733,0.878424 8.91071,4.950345 19.26243,11.718305 2.20789,1.44352 10.85854,7.21485 15.87796,10.59307 l 2.4574,1.65391 0.002,0.73292 0.002,0.73291 h -0.22607 -0.22608 l -0.0182,-0.8246 -0.0182,-0.8246 -5.9285,-3.90266 c -16.91939,-11.13783 -22.485,-14.7291 -26.38506,-17.02526 -1.98594,-1.169224 -3.35514,-1.795312 -3.35514,-1.534193 0,0.218759 3.23165,2.629253 8.02945,5.989193 5.84171,4.09099 9.71833,6.72428 19.21883,13.05485 4.07584,2.7159 7.41062,4.96708 7.41062,5.00264 0,0.0356 -0.0845,0.0646 -0.18785,0.0646 -0.13193,0 -0.19781,-0.0381 -0.22132,-0.128 z"
     id="path18"
     inkscape:connector-curvature="0" />
  <path
     style="opacity:1;fill:#63a94f;fill-opacity:0.94117647;stroke-width:1"
     d="m 79.360266,118.45297 c 0.02407,-0.0227 0.479094,-0.32658 1.011166,-0.67527 3.697461,-2.42315 6.560683,-4.29223 8.396454,-5.48112 11.588154,-7.50475 15.938944,-10.44241 18.325424,-12.373343 0.63999,-0.517828 1.24726,-1.13311 1.29122,-1.308256 0.0778,-0.310002 -0.16446,-0.258864 -1.12527,0.237523 -2.86284,1.479046 -10.423334,6.171836 -26.065797,16.179016 -1.194771,0.76435 -2.184631,1.38972 -2.19969,1.38972 -0.01506,0 -0.02738,-0.0484 -0.02738,-0.10763 0,-0.10992 1.201032,-0.89255 10.180765,-6.63411 8.858075,-5.66378 16.463162,-10.332378 18.471152,-11.339048 0.42372,-0.212423 0.44537,-0.217977 0.76888,-0.197216 0.7808,0.05011 0.75364,0.409144 -0.0924,1.221349 -1.57446,1.511545 -5.57782,4.223685 -17.166789,11.629905 -5.134113,3.28109 -9.525351,6.1197 -11.124783,7.19134 -0.256687,0.17198 -0.510399,0.30842 -0.573531,0.30842 -0.06857,0 -0.09596,-0.0163 -0.06945,-0.0413 z"
     id="path20"
     inkscape:connector-curvature="0" />
  <path
     style="opacity:1;fill:#63a94f;fill-opacity:0.94117647;stroke-width:1"
     d="M 139.86671,97.64902 V 76.803789 h 0.11517 0.11517 v 20.845231 20.84523 h -0.11517 -0.11517 z"
     id="path24"
     inkscape:connector-curvature="0" />
  <path
     style="opacity:1;fill:#63a94f;fill-opacity:0.94117647;stroke-width:1"
     d="m 259.87709,132.60351 c 0.003,-0.003 0.17649,-0.11512 0.38552,-0.24966 2.40194,-1.54604 2.8633,-1.84283 4.95218,-3.18575 0.87095,-0.55992 1.58684,-1.02065 1.59086,-1.02383 0.006,-0.005 0.007,0.0195 0.006,0.12266 l -0.002,0.12846 -0.21306,0.13801 c -1.37039,0.88774 -3.79998,2.46841 -5.46837,3.55768 l -0.79259,0.51747 h -0.23211 c -0.1329,0 -0.22977,-0.002 -0.22663,-0.005 z"
     id="path26"
     inkscape:connector-curvature="0" />
  <path
     style="opacity:1;fill:#63a94f;fill-opacity:0.94117647;stroke-width:1"
     d="m 263.08523,132.95713 c 0.003,-0.003 0.27496,-0.17417 0.60434,-0.38113 1.04708,-0.65791 3.13144,-1.97324 4.39494,-2.7734 0.17175,-0.10876 0.31362,-0.19775 0.31527,-0.19775 0.002,0 0.003,0.0408 0.003,0.0907 l -7e-5,0.0907 -2.48476,1.58787 -2.48476,1.58786 h -0.17668 c -0.0972,0 -0.17422,-0.002 -0.17121,-0.005 z"
     id="path28"
     inkscape:connector-curvature="0" />
</svg>
