<svg xmlns="http://www.w3.org/2000/svg" viewBox="0 0 60 60"><defs><style>.cls-1{fill:#333;}.cls-2{fill:none;stroke:#fff;stroke-miterlimit:10;stroke-width:0.75px;}</style></defs><title>Ресурс 22</title><g id="Слой_2" data-name="Слой 2"><g id="Content"><circle class="cls-1" cx="30" cy="30" r="30"/><rect class="cls-2" x="13.87" y="20.91" width="32.26" height="21.59"/><line class="cls-2" x1="32.06" y1="31.32" x2="46.13" y2="25.83"/><line class="cls-2" x1="13.87" y1="25.83" x2="28.07" y2="31.38"/><path class="cls-2" d="M28.07,29.64h4a0,0,0,0,1,0,0V32.8a2,2,0,0,1-2,2h0a2,2,0,0,1-2-2V29.64a0,0,0,0,1,0,0Z"/><path class="cls-2" d="M26.42,17.5h7.3a1.16,1.16,0,0,1,1.16,1.16v2.24a0,0,0,0,1,0,0H25.25a0,0,0,0,1,0,0V18.66A1.16,1.16,0,0,1,26.42,17.5Z"/></g></g></svg>