<svg xmlns="http://www.w3.org/2000/svg" viewBox="0 0 60 60"><defs><style>.cls-1{fill:#333;}.cls-2{fill:none;stroke:#fff;stroke-miterlimit:10;stroke-width:0.75px;}</style></defs><title>Ресурс 20</title><g id="Слой_2" data-name="Слой 2"><g id="Content"><circle class="cls-1" cx="30" cy="30" r="30"/><circle class="cls-2" cx="30" cy="24.06" r="6.65"/><path class="cls-2" d="M32.51,13.89l2.18-.16a2.71,2.71,0,0,1,2.74,1.76l.76,2a2.68,2.68,0,0,0,.77,1.1l1.66,1.44a2.7,2.7,0,0,1,.69,3.17l-.91,2a2.65,2.65,0,0,0-.23,1.33l.16,2.18a2.71,2.71,0,0,1-1.76,2.74l-2,.76a2.68,2.68,0,0,0-1.1.77L34,34.68a2.7,2.7,0,0,1-3.17.69l-2-.91a2.65,2.65,0,0,0-1.33-.23l-2.18.16a2.71,2.71,0,0,1-2.74-1.76L22.33,32l-.52-1.4a2.68,2.68,0,0,0-.77-1.1L19.38,28a2.7,2.7,0,0,1-.69-3.17l.91-2a2.65,2.65,0,0,0,.23-1.33l-.16-2.18a2.71,2.71,0,0,1,1.76-2.74l2.05-.76a2.68,2.68,0,0,0,1.1-.77L26,13.44a2.7,2.7,0,0,1,3.17-.7l2,.92A2.76,2.76,0,0,0,32.51,13.89Z"/><path class="cls-2" d="M28.27,34.28A46.93,46.93,0,0,1,17.59,47.5c-.28-1.31-.44-2-.79-3.33-1.79-.1-2.69-.16-4.54-.3a45.62,45.62,0,0,0,10-12.07"/><path class="cls-2" d="M32.48,35.56A45.69,45.69,0,0,0,42.41,47.5c.28-1.31.44-2,.79-3.33,1.79-.1,2.69-.16,4.54-.3a45.62,45.62,0,0,1-10-12.07"/></g></g></svg>