<svg xmlns="http://www.w3.org/2000/svg" viewBox="0 0 60 60"><defs><style>.cls-1{fill:#333;}.cls-2{fill:none;stroke:#fff;stroke-miterlimit:10;stroke-width:0.75px;}</style></defs><title>Ресурс 21</title><g id="Слой_2" data-name="Слой 2"><g id="Content"><circle class="cls-1" cx="30" cy="30" r="30"/><line class="cls-2" x1="12.2" y1="41.9" x2="47.8" y2="41.9"/><line class="cls-2" x1="10.5" y1="44.02" x2="49.5" y2="44.02"/><line class="cls-2" x1="16.06" y1="41.9" x2="16.06" y2="24.49"/><line class="cls-2" x1="20.41" y1="24.49" x2="20.41" y2="41.9"/><line class="cls-2" x1="27.83" y1="41.9" x2="27.83" y2="24.49"/><line class="cls-2" x1="32.17" y1="24.49" x2="32.17" y2="41.9"/><line class="cls-2" x1="39.59" y1="41.9" x2="39.59" y2="24.49"/><line class="cls-2" x1="43.94" y1="24.49" x2="43.94" y2="41.9"/><path class="cls-2" d="M30,12l17.22,9.65a.37.37,0,0,1-.18.7H12.64a.38.38,0,0,1-.19-.7L29.67,12A.35.35,0,0,1,30,12Z"/><line class="cls-2" x1="14.12" y1="24.49" x2="22.36" y2="24.49"/><line class="cls-2" x1="25.88" y1="24.49" x2="34.12" y2="24.49"/><line class="cls-2" x1="37.64" y1="24.49" x2="45.88" y2="24.49"/><circle class="cls-2" cx="29.86" cy="17.18" r="1.91"/></g></g></svg>