<svg xmlns="http://www.w3.org/2000/svg" viewBox="0 0 60 60"><defs><style>.cls-1{fill:#333;}.cls-2{fill:none;stroke:#fff;stroke-miterlimit:10;stroke-width:0.75px;}</style></defs><title>Ресурс 19</title><g id="Слой_2" data-name="Слой 2"><g id="Content"><circle class="cls-1" cx="30" cy="30" r="30"/><polygon class="cls-2" points="14.86 45 29.61 45 29.61 22.26 14.86 28.84 14.86 45"/><polygon class="cls-2" points="29.61 45 37.3 45 37.3 24.88 29.61 22.26 29.61 45"/><polyline class="cls-2" points="37.3 45 45.14 45 45.14 18.46 35.01 15 24.87 18.46 24.87 24.37"/><line class="cls-2" x1="40.89" y1="19.82" x2="40.89" y2="23.17"/><line class="cls-2" x1="40.89" y1="24.49" x2="40.89" y2="27.85"/><line class="cls-2" x1="40.89" y1="29.17" x2="40.89" y2="32.52"/><line class="cls-2" x1="40.89" y1="33.84" x2="40.89" y2="37.2"/><line class="cls-2" x1="40.89" y1="38.52" x2="40.89" y2="41.87"/><line class="cls-2" x1="26.77" y1="29.17" x2="16.73" y2="32.07"/><line class="cls-2" x1="26.73" y1="33.63" x2="16.81" y2="35.52"/><line class="cls-2" x1="26.65" y1="37.89" x2="16.48" y2="38.9"/><line class="cls-2" x1="16.65" y1="42.36" x2="26.61" y2="42.36"/></g></g></svg>