<?xml version="1.0" encoding="UTF-8" standalone="no"?>
<!-- Created with Inkscape (http://www.inkscape.org/) -->

<svg
   xmlns:dc="http://purl.org/dc/elements/1.1/"
   xmlns:cc="http://creativecommons.org/ns#"
   xmlns:rdf="http://www.w3.org/1999/02/22-rdf-syntax-ns#"
   xmlns:svg="http://www.w3.org/2000/svg"
   xmlns="http://www.w3.org/2000/svg"
   xmlns:sodipodi="http://sodipodi.sourceforge.net/DTD/sodipodi-0.dtd"
   xmlns:inkscape="http://www.inkscape.org/namespaces/inkscape"
   version="1.1"
   id="svg61"
   width="122.33289"
   height="130.50301"
   viewBox="0 0 122.33289 130.50301"
   sodipodi:docname="main-section_icon-5.svg"
   inkscape:version="0.92.2 (5c3e80d, 2017-08-06)">
  <metadata
     id="metadata67">
    <rdf:RDF>
      <cc:Work
         rdf:about="">
        <dc:format>image/svg+xml</dc:format>
        <dc:type
           rdf:resource="http://purl.org/dc/dcmitype/StillImage" />
        <dc:title></dc:title>
      </cc:Work>
    </rdf:RDF>
  </metadata>
  <defs
     id="defs65" />
  <sodipodi:namedview
     pagecolor="#ffffff"
     bordercolor="#666666"
     borderopacity="1"
     objecttolerance="10"
     gridtolerance="10"
     guidetolerance="10"
     inkscape:pageopacity="0"
     inkscape:pageshadow="2"
     inkscape:window-width="1366"
     inkscape:window-height="715"
     id="namedview63"
     showgrid="false"
     fit-margin-top="0"
     fit-margin-left="0"
     fit-margin-right="0"
     fit-margin-bottom="0"
     inkscape:zoom="0.62765957"
     inkscape:cx="176.87007"
     inkscape:cy="188"
     inkscape:window-x="-8"
     inkscape:window-y="-8"
     inkscape:window-maximized="1"
     inkscape:current-layer="svg61" />
  <path
     style="fill:#fefefe;stroke-width:0.99999994"
     d="m 3.46e-6,129.80791 c 0,-0.58475 1.02585224,-0.69508 6.46287694,-0.69508 h 6.4628726 v -2.78034 c 0,-2.33836 -0.128422,-2.78061 -0.807858,-2.78207 -1.311094,-0.003 -3.7471049,-1.72841 -4.7342422,-3.3536 -1.2051658,-1.98415 -1.2266834,-5.6349 -0.04468,-7.58065 0.6629841,-1.09137 0.8126432,-1.97084 0.6229081,-3.66054 -0.3116306,-2.7753 0.7526215,-4.9768 2.9004761,-5.9999 4.422106,-2.1064 9.015382,1.25145 8.352514,6.10599 -0.208791,1.52908 -0.04949,2.48488 0.640366,3.84226 2.159693,4.24945 0.04313,9.34088 -4.342414,10.44577 -1.12496,0.28342 -1.202168,0.47821 -1.202168,3.03298 v 2.7301 h 5.308793 5.30879 V 66.13469 3.15655 l 4.500931,-0.78437 c 2.475512,-0.4314 6.327782,-1.14162 8.560604,-1.57827 L 42.049447,0 55.4108,8.13874 l 13.36136,8.13875 0.0056,10.53052 0.0056,10.53053 1.269495,-0.22782 c 0.698219,-0.1253 3.44047,-0.63812 6.09389,-1.1396 2.653417,-0.50149 4.938505,-0.74753 5.077975,-0.54677 0.139466,0.20076 4.460215,2.92557 9.601663,6.05513 l 9.348087,5.69011 v 40.97162 40.97162 h 5.77043 5.77042 v -2.7301 c 0,-2.57682 -0.0697,-2.74767 -1.24134,-3.04284 -4.23973,-1.06816 -6.55616,-6.3815 -4.45292,-10.214 0.47931,-0.8734 0.77856,-2.54956 0.80501,-4.50907 0.0384,-2.84155 0.1691,-3.24638 1.47012,-4.55241 4.04833,-4.0639 10.41546,-0.87561 9.76792,4.89122 -0.18973,1.6897 -0.0401,2.56917 0.62291,3.66054 1.182,1.94575 1.16048,5.5965 -0.0447,7.58065 -0.98714,1.62519 -3.42316,3.35079 -4.73425,3.3536 -0.67944,10e-4 -0.80786,0.44371 -0.80786,2.78207 v 2.78034 h 4.61634 c 3.79566,0 4.61634,0.12357 4.61634,0.69508 0,0.61436 -7.10403,0.69509 -61.166493,0.69509 C 7.1040342,130.503 0,130.4223 0,129.80791 Z M 41.54706,65.39677 c 0,-50.6795 -0.118063,-63.71007 -0.57704,-63.68683 -0.317375,0.0161 -3.796941,0.60173 -7.73237,1.30146 l -7.155327,1.27223 -0.117075,62.4146 -0.117074,62.4146 h 7.849443 7.849443 z M 67.746647,73.21863 67.629381,17.32443 55.221269,9.73427 C 48.396809,5.55968 42.736022,2.14411 42.641745,2.14411 c -0.09428,0 -0.171416,28.56796 -0.171416,63.48436 v 63.48436 H 55.16712 67.863904 Z m -20.65998,49.63844 v -3.01203 h 8.078597 8.078593 v 3.01203 3.01203 h -8.078593 -8.078597 z m 14.772288,0 v -1.62186 h -6.693691 -6.693695 v 1.62186 1.62186 h 6.693695 6.693691 z m -5.539607,-6.56563 c -1.396442,-0.0761 -4.045067,-0.26388 -5.885833,-0.41721 l -3.346848,-0.27877 v -3.01323 -3.01322 l 1.731128,0.25143 c 0.95212,0.13829 4.587487,0.3865 8.0786,0.55159 l 6.347462,0.30016 v 2.96456 2.96456 l -2.19276,-0.0857 c -1.206018,-0.0471 -3.335304,-0.14801 -4.731749,-0.22415 z m 5.539607,-2.66528 v -1.58498 l -2.885211,-0.25039 c -1.586869,-0.13772 -4.611235,-0.35726 -6.720825,-0.48787 l -3.835607,-0.23747 0.142538,1.7253 0.142537,1.72531 4.385524,0.25884 c 2.412035,0.14237 5.372263,0.29876 6.578284,0.34754 l 2.19276,0.0887 z m -7.847778,-7.16754 -6.693691,-0.74696 -0.139214,-2.96495 -0.139218,-2.96495 3.370654,0.30371 c 1.853858,0.16704 5.499941,0.53937 8.1024,0.82739 l 4.731749,0.52367 v 2.9485 c 0,3.45875 1.055614,3.22166 -9.23268,2.07359 z m 7.847778,-2.11613 c 0,-1.81685 0.295175,-1.71131 -7.155327,-2.55818 -6.347269,-0.72146 -6.232059,-0.74266 -6.232059,1.14701 0,1.35999 0.167712,1.62896 1.038677,1.6658 0.571275,0.0242 3.116032,0.30972 5.655018,0.63455 7.090092,0.90709 6.693691,0.95974 6.693691,-0.88918 z m -7.732367,-7.55168 -7.039921,-1.15988 v -2.95311 c 0,-1.6242 0.155805,-2.9559 0.346226,-2.95933 0.190424,-0.003 3.825791,0.56243 8.078596,1.25746 l 7.732368,1.2637 v 2.91304 c 0,3.45302 0.908011,3.28988 -9.117269,1.63812 z m 7.732367,-1.72828 c 0,-1.83485 0.344886,-1.68576 -6.462876,-2.79382 -2.412035,-0.3926 -4.956793,-0.82938 -5.655015,-0.97063 -1.196112,-0.24198 -1.269495,-0.16095 -1.269495,1.40185 0,0.91228 0.05193,1.67168 0.115411,1.68756 0.534299,0.1337 12.250925,2.19896 12.694932,2.23771 0.360735,0.0315 0.577043,-0.55431 0.577043,-1.56267 z M 57.70425,87.87807 C 55.80001,87.42453 52.632046,86.70189 50.664333,86.27223 L 47.086667,85.491 v -3.03447 c 0,-2.65834 0.100136,-3.00932 0.807862,-2.83155 0.444322,0.11159 4.079689,0.91574 8.078593,1.78698 l 7.270735,1.58408 v 2.90095 c 0,3.3854 0.142503,3.33443 -5.539607,1.98108 z m 4.154705,-2.06093 c 0,-1.11315 -0.24251,-1.66378 -0.807858,-1.83429 -1.595916,-0.48133 -11.332202,-2.59914 -11.94911,-2.59914 -0.403976,0 -0.630418,0.54303 -0.630418,1.51184 v 1.51184 l 6.34747,1.44466 c 3.491105,0.79457 6.503267,1.46966 6.693691,1.5002 0.190427,0.0306 0.346225,-0.66026 0.346225,-1.53511 z m -7.61696,-8.36341 -6.924509,-1.96449 -0.137545,-3.12285 c -0.105963,-2.40572 4.8e-5,-3.07272 0.461636,-2.90455 0.329544,0.12006 3.974876,1.13094 8.100727,2.24639 l 7.501553,2.02809 v 2.89692 c 0,3.54799 0.463309,3.50576 -9.001862,0.82049 z m 7.30436,-2.54108 c -0.208912,-0.18103 -2.976542,-1.02105 -6.150276,-1.8667 -3.173728,-0.84566 -6.030092,-1.6317 -6.347466,-1.74676 -0.392769,-0.14239 -0.577044,0.31887 -0.577044,1.44438 0,1.55468 0.117353,1.68476 1.961946,2.17495 1.079074,0.28675 4.039302,1.09611 6.578284,1.79858 l 4.616338,1.2772 0.14904,-1.37625 c 0.08197,-0.75694 -0.02188,-1.52436 -0.230822,-1.7054 z m -6.496502,-6.93571 -7.963186,-2.54086 v -3.11221 -3.11222 l 7.732372,2.57233 c 4.252801,1.41479 7.898884,2.72335 8.102399,2.90794 0.203515,0.18457 0.307383,1.57091 0.230818,3.08074 l -0.139214,2.74514 z m 6.496502,-2.34963 c -0.474218,-0.43283 -11.701358,-4.16935 -12.52767,-4.16935 -0.402864,0 -0.557184,0.49218 -0.460954,1.47014 0.143133,1.45465 0.212766,1.49295 6.607533,3.63395 l 6.462873,2.16381 0.14904,-1.37593 c 0.08197,-0.75676 -0.02188,-1.53193 -0.230822,-1.72262 z m -6.727316,-7.30427 -7.732372,-3.03423 v -2.93949 c 0,-2.05903 0.172843,-2.93029 0.577044,-2.9088 0.317374,0.0168 3.900808,1.33221 7.963186,2.92297 l 7.386145,2.89229 0.1365,3.10109 c 0.07507,1.7056 -0.02881,3.07844 -0.230818,3.05075 -0.202026,-0.0277 -3.846884,-1.41575 -8.099685,-3.08458 z m 6.727316,-1.95938 c -0.208912,-0.18841 -2.872674,-1.29255 -5.919458,-2.45365 -3.046784,-1.16111 -5.903144,-2.2539 -6.347466,-2.42844 -0.671882,-0.26392 -0.807862,-0.0551 -0.807862,1.24056 v 1.55789 l 6.578284,2.56755 6.578284,2.56755 0.14904,-1.35445 c 0.08197,-0.74494 -0.02188,-1.5086 -0.230822,-1.69701 z m -6.611909,-7.65563 -7.61696,-3.40331 -0.136496,-3.04473 c -0.07508,-1.6746 0.02881,-3.0342 0.230811,-3.02135 0.202026,0.0129 3.794953,1.54666 7.984278,3.40844 l 7.616963,3.38506 0.1365,3.07902 c 0.07507,1.69345 -0.02881,3.06128 -0.230818,3.0396 -0.202026,-0.0217 -3.79495,-1.57091 -7.984278,-3.44273 z m 6.838351,-0.28593 c -0.138732,-1.39165 -0.415342,-1.5707 -6.748803,-4.3685 l -6.604154,-2.91736 0.141274,1.6054 c 0.139071,1.58037 0.234827,1.64774 6.142514,4.32208 3.300685,1.49417 6.274073,2.73756 6.607533,2.76309 0.409152,0.0313 0.559258,-0.42543 0.461636,-1.40471 z M 54.819039,38.95636 47.086667,35.0394 v -3.00935 c 0,-1.65514 0.106177,-3.00935 0.235946,-3.00935 0.129772,0 3.76514,1.77362 8.078597,3.94139 l 7.842647,3.94138 v 3.00946 c 0,1.6552 -0.155801,2.99841 -0.346225,2.98492 -0.190421,-0.0135 -3.825792,-1.78717 -8.078593,-3.94149 z m 7.039916,0.262 c 0,-1.31963 -0.313926,-1.54494 -6.456717,-4.63389 -3.551203,-1.78576 -6.563365,-3.24682 -6.693698,-3.24682 -0.130333,0 -0.236971,0.62411 -0.236971,1.38692 0,1.31681 0.320889,1.54985 6.34747,4.60962 3.491105,1.77248 6.503267,3.23362 6.693691,3.24697 0.190427,0.0134 0.346225,-0.59991 0.346225,-1.3628 z m -7.035686,-9.86273 -7.728133,-4.27374 -0.0042,-3.15523 c -0.0024,-1.73537 0.151571,-3.06719 0.341991,-2.95959 0.190424,0.1076 3.825792,2.11502 8.078594,4.46094 l 7.732371,4.26531 v 2.98063 c 0,1.63936 -0.155802,2.97497 -0.346226,2.96803 -0.19042,-0.007 -3.823883,-1.93579 -8.074362,-4.28635 z m 7.035686,0.61794 c 0,-1.24991 -0.396064,-1.58444 -4.731746,-3.99666 -2.602462,-1.44791 -5.61462,-3.13665 -6.693694,-3.75274 l -1.961946,-1.12016 v 1.53264 c 0,1.48798 0.184978,1.63622 6.34747,5.08653 3.491105,1.95464 6.503267,3.56751 6.693691,3.58418 0.190427,0.0167 0.346225,-0.58355 0.346225,-1.33379 z M 54.813198,19.68176 47.086667,14.97671 v -2.99046 c 0,-2.57479 0.104678,-2.95014 0.753075,-2.70037 0.41419,0.15954 4.049557,2.2796 8.078594,4.71125 l 7.325521,4.42117 v 2.98425 c 0,1.64134 -0.158426,2.98425 -0.352066,2.98425 -0.193637,0 -3.829005,-2.11727 -8.078593,-4.70504 z m 7.045757,1.02969 c 0,-1.24857 -0.522669,-1.67947 -6.464043,-5.32898 -3.555223,-2.18382 -6.567385,-3.97057 -6.693691,-3.97057 -0.12631,0 -0.229652,0.60895 -0.229652,1.35322 0,1.23936 0.534032,1.68358 6.34747,5.27992 3.491105,2.15969 6.503267,3.94879 6.693691,3.97576 0.190427,0.027 0.346225,-0.56223 0.346225,-1.30935 z M 79.86268,83.00557 c 0,-36.57767 -0.119265,-46.10694 -0.57704,-46.10577 -0.766526,0.002 -8.665463,1.36498 -9.694317,1.67282 -0.762212,0.22805 -0.807858,2.79268 -0.807858,45.39096 v 45.14925 h 5.539607 5.539608 z m 18.81411,5.48919 -0.117935,-40.61808 -7.155327,-4.37157 c -3.935424,-2.40437 -7.830464,-4.78724 -8.655634,-5.29528 l -1.500312,-0.92371 v 45.91335 45.91336 h 8.773564 8.773568 z m -14.659405,36.44756 v -2.31695 h 6.001241 6.001247 v 2.31695 2.31695 h -6.001247 -6.001241 z m 10.617583,-0.23169 v -1.15848 h -4.847157 -4.847157 v 1.15848 1.15847 h 4.847157 4.847157 z m -0.92327,-6.97796 c -0.380844,-0.0832 -2.717866,-0.28701 -5.193382,-0.45288 l -4.500931,-0.30158 v -2.32435 -2.32434 l 5.193382,0.31542 c 7.037919,0.42746 6.809106,0.3246 6.809106,3.06082 0,2.36146 -0.154825,2.49742 -2.308175,2.02691 z m 0.92327,-2.22183 c 0,-1.02391 -0.215598,-1.10878 -3.531905,-1.39017 -5.617152,-0.47663 -6.162409,-0.4241 -6.162409,0.59374 0,0.91359 0.745625,1.08949 6.693692,1.57911 1.015597,0.0836 2.106207,0.18705 2.423578,0.2299 0.320144,0.0432 0.577044,-0.40758 0.577044,-1.01258 z m -3.693073,-7.52039 c -7.73993,-1.26025 -6.92451,-0.85302 -6.92451,-3.45826 0,-1.26277 0.105236,-2.29595 0.233858,-2.29595 0.516264,0 9.76128,1.40392 10.729954,1.62942 0.905888,0.21088 1.038676,0.53688 1.038676,2.54991 0,1.56273 -0.186356,2.29289 -0.577047,2.26096 -0.317371,-0.026 -2.34279,-0.33468 -4.500931,-0.68608 z m 3.693073,-1.76209 c 0,-1.03103 -0.255501,-1.14194 -3.808481,-1.65336 -2.094664,-0.3015 -4.275881,-0.66088 -4.847156,-0.79862 -0.85964,-0.20728 -1.038677,-0.0572 -1.038677,0.87045 0,1.06621 0.230829,1.15576 4.73175,1.83558 2.602459,0.39308 4.783683,0.74538 4.847156,0.7829 0.06347,0.0375 0.115408,-0.42911 0.115408,-1.03695 z m -5.077975,-8.10646 -5.30879,-1.23077 -0.140051,-2.43976 c -0.134211,-2.33797 -0.09569,-2.42946 0.923269,-2.19265 0.584823,0.13591 2.517464,0.5711 4.294754,0.96708 7.12909,1.58835 6.693698,1.33265 6.693698,3.93101 0,1.55787 -0.186041,2.28245 -0.577047,2.24748 -0.317371,-0.0284 -2.965996,-0.60546 -5.885833,-1.28239 z m 5.077975,-1.38921 c 0,-0.7168 -0.750572,-1.04316 -4.270117,-1.85677 -5.198174,-1.20164 -5.424197,-1.20583 -5.424197,-0.10043 0,0.7227 0.640369,1.01828 3.577662,1.65137 1.967714,0.42411 3.785401,0.84563 4.039302,0.93671 1.225448,0.43961 2.07735,0.18089 2.07735,-0.63088 z m -5.193382,-8.28733 -5.424201,-1.65407 v -2.45755 c 0,-1.76006 0.163775,-2.40277 0.577047,-2.26453 0.317371,0.10616 3.017927,0.94531 6.001237,1.86477 l 5.424204,1.67174 v 2.2912 c 0,1.54767 -0.18726,2.2768 -0.577047,2.24686 -0.317371,-0.0244 -3.017926,-0.78868 -6.00124,-1.69842 z m 5.193382,-1.03759 c 0,-0.50973 -0.06726,-0.92678 -0.149463,-0.92678 -0.133802,0 -6.703821,-1.94594 -8.736992,-2.58776 -0.587465,-0.18546 -0.807859,10e-4 -0.807859,0.68539 0,0.7789 0.733396,1.17465 4.270113,2.30415 5.211327,1.66432 5.424201,1.68492 5.424201,0.525 z m -5.193382,-8.6625 -5.424201,-2.12117 v -2.46214 -2.46214 l 1.50031,0.6037 c 0.825176,0.33203 3.525731,1.38021 6.001247,2.32927 l 4.500931,1.72558 v 2.28098 c 0,1.53022 -0.189929,2.27211 -0.577047,2.25403 -0.317371,-0.0148 -3.017926,-0.98146 -6.00124,-2.14811 z m 5.193382,-0.56478 c 0,-0.67515 -0.797233,-1.18705 -3.346848,-2.14899 -1.840766,-0.6945 -4.035801,-1.54199 -4.87786,-1.8833 -1.468439,-0.59521 -1.52504,-0.57884 -1.384902,0.40065 0.117236,0.81941 1.012779,1.36159 4.531635,2.7436 5.183656,2.03585 5.077975,2.01737 5.077975,0.88804 z m -5.077975,-9.03495 -5.30879,-2.44173 -0.140893,-2.43057 c -0.166783,-2.87719 -0.650394,-2.90838 6.657459,0.42944 l 5.024286,2.29481 0.139532,2.32752 c 0.101115,1.6867 -0.026,2.31854 -0.461636,2.2949 -0.330639,-0.0179 -2.990121,-1.13141 -5.909958,-2.47437 z m 5.077975,-0.20735 c 0,-0.63466 -1.121684,-1.37858 -4.270117,-2.83203 -5.724132,-2.64248 -5.424197,-2.55777 -5.424197,-1.53213 0,0.69043 1.094848,1.39604 4.73175,3.04955 2.602459,1.18319 4.783683,2.15669 4.847156,2.16333 0.06347,0.007 0.115408,-0.37529 0.115408,-0.84872 z m -5.183501,-9.47133 -5.41433,-2.87449 -0.0099,-2.43279 c -0.0054,-1.33804 0.09001,-2.4328 0.212098,-2.4328 0.122082,0 2.822638,1.37372 6.001237,3.0527 l 5.779278,3.05269 v 2.27629 c 0,1.52367 -0.190791,2.26911 -0.577047,2.25459 -0.317371,-0.012 -3.013484,-1.31522 -5.991359,-2.89619 z m 4.880571,-0.76657 c -0.214238,-0.18825 -2.41494,-1.41451 -4.890452,-2.72502 -3.893327,-2.06108 -4.500932,-2.26405 -4.500932,-1.50358 0,1.19876 9.379861,6.33508 9.622198,5.26902 0.08729,-0.38398 -0.01658,-0.85216 -0.230814,-1.04042 z m -4.436187,-8.68396 -5.878466,-3.56401 v -2.4874 c 0,-1.36807 0.155802,-2.40134 0.346226,-2.29615 0.190424,0.10518 2.890982,1.70826 6.00124,3.56239 l 5.655022,3.37115 v 2.48902 c 0,1.36895 -0.05525,2.48901 -0.122779,2.48901 -0.06753,0 -2.768086,-1.6038 -6.001243,-3.56401 z m 4.739117,0.35231 c 0,-0.63807 -1.330431,-1.70152 -4.637812,-3.70711 -2.550792,-1.5468 -4.74725,-2.81237 -4.881007,-2.81237 -0.133754,0 -0.176028,0.34397 -0.09393,0.76436 0.107171,0.54884 8.328682,6.27634 9.497342,6.6163 0.06347,0.0185 0.115408,-0.36906 0.115408,-0.86118 z m -81.709215,70.86657 c 0,-0.51488 0.307757,-0.92678 0.692451,-0.92678 0.384699,0 0.692451,0.4119 0.692451,0.92678 0,1.32966 1.106471,1.14385 2.970258,-0.49879 2.565035,-2.2607 2.778092,-5.4939 0.538115,-8.16609 -0.981678,-1.1711 -1.034412,-1.42342 -0.461768,-2.20954 1.335149,-1.83286 0.318673,-5.17536 -1.879621,-6.18078 -1.966986,-0.89963 -3.441834,-0.65834 -4.895565,0.80092 -1.4604385,1.46599 -1.7444539,3.29217 -0.8265309,5.31446 0.4249569,0.93623 0.3811739,1.29414 -0.2338406,1.9115 -2.6507369,2.66081 -2.2619153,7.03787 0.8001205,9.00707 1.842916,1.1852 2.60393,1.1914 2.60393,0.0212 z m 98.789667,0 c 0,-0.51488 0.30777,-0.92678 0.69245,-0.92678 0.3847,0 0.69246,0.4119 0.69246,0.92678 0,1.12503 0.60236,1.16946 2.28978,0.16888 2.95322,-1.75115 3.72589,-5.92999 1.57162,-8.49993 -1.05133,-1.25418 -1.14538,-1.60814 -0.69245,-2.606 1.41601,-3.11962 -0.56857,-6.68253 -3.71049,-6.66145 -3.35886,0.0225 -5.7521,4.18238 -3.87541,6.73612 0.59481,0.80941 0.53701,1.03019 -0.57705,2.20425 -1.03599,1.0918 -1.23806,1.72156 -1.23806,3.85857 0,2.35726 0.13272,2.67591 1.72434,4.14008 1.94486,1.78911 3.12281,2.03787 3.12281,0.65948 z"
     id="path71"
     inkscape:connector-curvature="0" />
</svg>
