<?xml version="1.0" encoding="UTF-8" standalone="no"?>
<!-- Created with Inkscape (http://www.inkscape.org/) -->

<svg
   xmlns:dc="http://purl.org/dc/elements/1.1/"
   xmlns:cc="http://creativecommons.org/ns#"
   xmlns:rdf="http://www.w3.org/1999/02/22-rdf-syntax-ns#"
   xmlns:svg="http://www.w3.org/2000/svg"
   xmlns="http://www.w3.org/2000/svg"
   xmlns:sodipodi="http://sodipodi.sourceforge.net/DTD/sodipodi-0.dtd"
   xmlns:inkscape="http://www.inkscape.org/namespaces/inkscape"
   version="1.1"
   id="svg14"
   width="107.154"
   height="130.63499"
   viewBox="0 0 107.154 130.635"
   sodipodi:docname="main-section_icon-2.svg"
   inkscape:version="0.92.2 (5c3e80d, 2017-08-06)">
  <metadata
     id="metadata20">
    <rdf:RDF>
      <cc:Work
         rdf:about="">
        <dc:format>image/svg+xml</dc:format>
        <dc:type
           rdf:resource="http://purl.org/dc/dcmitype/StillImage" />
        <dc:title></dc:title>
      </cc:Work>
    </rdf:RDF>
  </metadata>
  <defs
     id="defs18" />
  <sodipodi:namedview
     pagecolor="#ffffff"
     bordercolor="#666666"
     borderopacity="1"
     objecttolerance="10"
     gridtolerance="10"
     guidetolerance="10"
     inkscape:pageopacity="0"
     inkscape:pageshadow="2"
     inkscape:window-width="1366"
     inkscape:window-height="715"
     id="namedview16"
     showgrid="false"
     fit-margin-top="0"
     fit-margin-left="0"
     fit-margin-right="0"
     fit-margin-bottom="0"
     inkscape:zoom="2.6920153"
     inkscape:cx="101.50784"
     inkscape:cy="69.877245"
     inkscape:window-x="-8"
     inkscape:window-y="-8"
     inkscape:window-maximized="1"
     inkscape:current-layer="svg14" />
  <path
     style="fill:#9a9a9a;stroke-width:0.99999994"
     d="M 49.464268,129.64592 C 30.325829,125.81955 14.624872,114.31278 6.4222593,98.101665 1.9611901,89.285105 0.0025022,80.563605 2.1286201e-6,69.505155 -0.00299197,56.162355 3.1524935,45.509633 10.278406,34.806169 21.0665,18.601931 39.994125,6.5681152 61.876455,2.0011322 66.708263,0.99270222 80.615591,-0.38309478 81.098561,0.09956422 81.24492,0.24582922 80.590059,1.5158252 79.643317,2.9217762 75.194468,9.5285122 74.5309,15.98608 77.073167,27.933527 c 1.358603,6.384779 1.403889,6.989917 0.876957,11.719384 -0.305593,2.742834 -1.088565,6.818804 -1.739938,9.05771 l -1.184324,4.070742 2.282844,0.330327 c 3.904851,0.565029 10.858706,3.133105 14.208063,5.247055 13.579491,8.57074 19.194731,27.21019 13.324521,44.229945 -2.08192,6.03619 -4.20165,9.28597 -9.530728,14.61163 -6.709155,6.70487 -13.92792,10.61242 -23.099604,12.50392 -6.126057,1.2634 -16.265853,1.2374 -22.74669,-0.0584 z m 20.180048,-0.51176 c 3.549938,-0.63973 5.788519,-2.02185 9.692166,-5.98404 4.11488,-4.17659 5.993752,-8.10513 5.993752,-12.53237 0,-5.39242 -2.736876,-9.49463 -8.547,-12.810805 -2.365818,-1.35031 -2.725856,-1.42533 -3.90816,-0.81433 -0.716258,0.37016 -2.155387,0.83295 -3.198067,1.02843 l -1.895784,0.35543 2.050374,2.087845 c 2.363197,2.40638 4.021254,6.30602 4.021254,9.45771 0,3.13553 -1.759327,8.38675 -3.631427,10.83907 -2.352125,3.0811 -5.930213,5.42547 -11.05404,7.2426 l -4.526668,1.60536 6.021303,0.0294 c 3.311718,0.0162 7.353752,-0.21077 8.982297,-0.50425 z m -13.800072,-1.23225 c 7.400514,-1.7433 12.529536,-5.33219 15.111737,-10.57403 1.420635,-2.88387 1.633611,-3.81735 1.616554,-7.0855 -0.02311,-4.42368 -1.055534,-6.84206 -4.091008,-9.58267 -1.522589,-1.374695 -2.543137,-1.838305 -4.652036,-2.113335 -1.485861,-0.19377 -3.215622,-0.47851 -3.843919,-0.63275 l -1.142359,-0.28043 0.887232,2.17843 c 1.307119,3.209405 1.184814,8.058295 -0.278466,11.040225 -2.363397,4.81624 -7.805088,8.83857 -14.043069,10.3802 -3.297909,0.81504 -10.962754,0.84618 -13.694895,0.0557 -2.975927,-0.86109 -2.720085,-0.33737 0.670858,1.37328 6.13593,3.09543 14.838082,5.94258 18.263711,5.97548 1.097836,0.0106 3.435883,-0.32 5.19566,-0.73454 z m 30.357572,-4.65272 c 1.853527,-1.08695 3.865756,-2.44361 4.471605,-3.01482 1.60438,-1.51264 3.438932,-4.88487 4.344984,-7.98686 0.914742,-3.13174 0.984632,-9.52725 0.129435,-11.84533 -1.875347,-5.083305 -6.535939,-8.567075 -12.053143,-9.009665 l -3.12012,-0.25029 -2.303675,2.26961 -2.303682,2.26961 2.474435,1.52156 c 5.043822,3.101505 8.008519,7.109195 8.767374,11.851755 0.713134,4.45683 -2.401522,10.93769 -7.70604,16.03444 l -2.76068,2.65254 3.344731,-1.25814 c 1.839597,-0.69199 4.861249,-2.14747 6.714776,-3.23441 z m -40.850122,-3.08654 c 5.623282,-1.29558 10.841672,-5.17375 13.024126,-9.67921 2.482337,-5.12455 1.051821,-12.169485 -2.877914,-14.173005 -1.084307,-0.55281 -2.673171,-1.59519 -3.530816,-2.31638 l -1.559352,-1.31127 0.29431,1.47059 c 0.793416,3.96455 -2.032674,10.294065 -5.820638,13.036305 -3.644589,2.63843 -7.093142,3.63026 -12.696437,3.6516 -7.283438,0.0278 -14.776541,-2.25401 -19.682514,-5.99359 l -1.743466,-1.32894 1.730692,2.42995 c 2.828719,3.97163 9.187345,9.96714 12.367063,11.66082 1.622049,0.86399 4.159024,1.89606 5.637719,2.29347 3.127653,0.84059 11.686477,0.99017 14.857227,0.25966 z m 54.463022,-9.7891 c 1.701354,-2.80494 1.733554,-2.96033 1.733554,-8.3636 0,-6.644845 -1.07651,-9.628725 -4.588371,-12.718005 -2.854649,-2.51115 -5.877282,-3.50955 -10.625152,-3.50955 -4.237421,0 -5.092671,0.41532 -5.904925,2.86751 l -0.536857,1.62077 h 2.450408 c 3.051002,0 7.147813,1.49669 9.576304,3.4985 1.044671,0.86114 2.541047,2.92925 3.4404,4.75494 1.415183,2.872795 1.587426,3.686235 1.55384,7.338035 -0.03331,3.61808 -0.511542,6.07425 -1.867869,9.59274 -0.704092,1.82648 2.922907,-2.03832 4.768668,-5.08134 z m -58.593829,-2.26603 c 5.811753,-3.02043 8.180156,-6.67952 8.180156,-12.638025 0,-3.20901 -0.181818,-3.88364 -1.746559,-6.48048 -0.960606,-1.59423 -1.757358,-3.13621 -1.770559,-3.42663 -0.0132,-0.29042 -0.671667,0.72518 -1.463255,2.25688 -3.086638,5.97254 -9.514047,10.35129 -15.860404,10.80507 -4.511837,0.32262 -8.30429,-0.53289 -13.185355,-2.97438 -4.237757,-2.1197 -9.7321804,-6.93996 -11.8160921,-10.36625 -1.3978408,-2.29828 -1.3416221,-1.43135 0.2327905,3.58981 2.8278959,9.01879 7.0154496,14.419115 13.7503216,17.732555 4.99303,2.45649 8.283374,3.09814 15.142058,2.95287 5.370485,-0.11376 6.25111,-0.26347 8.536898,-1.45142 z M 105.75956,93.596025 c 0.42831,-3.74752 0.37377,-4.27288 -0.68162,-6.56688 -1.54554,-3.35939 -4.36065,-6.05324 -8.270329,-7.91404 -2.801923,-1.33357 -3.787213,-1.54191 -7.235742,-1.52997 -3.112747,0.0108 -4.448542,0.25278 -6.064113,1.0986 -2.024146,1.05972 -2.070225,1.14139 -1.996061,3.53696 l 0.07592,2.4522 4.241635,-0.0526 c 5.410622,-0.0671 8.634563,0.99696 11.893775,3.92539 3.339795,3.00084 4.676365,6.19883 4.993675,11.948265 l 0.24771,4.48828 1.16481,-3.65641 c 0.64064,-2.011025 1.3743,-5.489435 1.63035,-7.729815 z m -71.271951,2.32352 c 3.741559,-1.74976 7.353283,-5.16318 9.00067,-8.50646 1.045194,-2.12117 1.155627,-2.94698 1.01991,-7.62678 -0.247613,-8.53825 1.388336,-13.26678 6.467141,-18.69256 5.393595,-5.762079 10.854413,-8.253247 18.635882,-8.501493 l 4.491148,-0.143276 0.642806,-2.159104 c 2.466823,-8.2857 2.860173,-16.378199 1.135137,-23.35374 C 73.586642,17.661185 74.014927,11.314853 77.378042,4.7428502 L 79.293449,0.99985722 77.446427,1.2314922 c -1.015861,0.127399 -3.755755,0.361298 -6.088658,0.519775 C 58.011852,2.6578722 42.604083,8.1092852 30.282329,16.284141 24.061645,20.411248 15.322518,28.992952 11.563334,34.665938 3.8328202,46.332065 0.67587135,57.499205 1.0858076,71.728305 c 0.2055651,7.13527 0.2526196,7.39967 1.84822,10.38482 0.9005067,1.68474 2.7480365,4.30859 4.1056216,5.83079 2.4355926,2.73092 7.8579238,6.71069 10.7073438,7.85875 5.895826,2.37548 11.822533,2.41686 16.740616,0.11688 z m 32.207679,0.0604 c 2.11336,-1.61094 3.165432,-3.63431 3.165432,-6.08789 0,-2.13119 -1.029581,-3.95855 -1.920365,-3.40837 -0.316093,0.19524 -0.574718,1.09399 -0.574718,1.99723 0,3.07823 -2.902176,5.91871 -7.734756,7.57032 -0.930372,0.31797 -0.913455,0.36688 0.249509,0.72143 2.639837,0.80483 5.093476,0.5194 6.814898,-0.79275 z m 4.355646,0.23109 c 2.748458,-2.16055 3.618563,-6.1503 1.955047,-8.96461 -1.607143,-2.71892 -3.511051,-2.4607 -2.349041,0.31861 0.990843,2.3699 0.478253,4.76083 -1.605576,7.48904 -1.655866,2.16793 -1.662827,2.19839 -0.502185,2.19839 0.64732,0 1.773111,-0.46864 2.501755,-1.04143 z m -8.834344,-2.36885 c 2.647442,-1.35032 3.69155,-2.65988 4.009503,-5.02886 0.245366,-1.82821 0.165529,-2.0335 -0.790817,-2.0335 -0.585056,0 -1.063738,0.20719 -1.063738,0.46043 0,0.82759 -2.579506,3.54716 -4.119182,4.34285 -0.827873,0.42783 -2.989353,0.9247 -4.803298,1.10416 l -3.298075,0.32627 1.743883,1.14533 c 2.077929,1.36473 5.262778,1.24352 8.321724,-0.31668 z m 14.418773,-1.66074 c 1.490851,-3.30399 0.01175,-7.21165 -3.198651,-8.45028 -1.906537,-0.73559 -2.19209,0.0201 -0.606385,1.60481 2.084933,2.08361 2.580232,5.71154 1.242137,9.09836 -0.725311,1.83581 1.666787,-0.26694 2.562899,-2.25289 z m -16.661832,-1.75219 c 2.316564,-1.3558 3.71685,-3.41504 2.95008,-4.33835 -0.529825,-0.63799 -0.843282,-0.57698 -2.375992,0.46247 -3.222629,2.18554 -7.027609,2.08214 -11.737189,-0.31898 l -1.953532,-0.99598 0.840116,1.64341 c 1.540418,3.01331 2.711947,4.32001 4.0855,4.55686 2.463635,0.42481 6.614444,-0.0867 8.191017,-1.00943 z m 19.849836,-3.54955 c 0.03151,-2.0422 -1.446434,-4.1229 -3.633279,-5.11512 -1.148252,-0.52099 -2.480703,-0.95218 -2.961007,-0.9582 -1.392496,-0.0174 -1.010409,1.30736 0.565146,1.95956 2.336997,0.9674 4.099361,3.1697 4.414303,5.51625 0.275764,2.05465 0.301461,2.08002 0.940334,0.92836 0.361246,-0.65121 0.66478,-1.7001 0.674503,-2.33085 z m -20.31724,-0.92083 c 1.462193,-0.7467 1.732775,-1.61154 0.796829,-2.54689 -0.415805,-0.41554 -0.851417,-0.4275 -1.570115,-0.0432 -2.517269,1.34634 -7.799833,-0.52463 -11.275223,-3.99344 l -2.192933,-2.18878 0.350259,2.63869 c 0.469077,3.53381 0.80719,4.04255 3.620699,5.44776 4.122755,2.0591 7.181292,2.26333 10.270484,0.68577 z m 9.683201,-1.13947 c 2.758144,-1.68072 2.688586,-5.61897 -0.111645,-6.32133 -0.84737,-0.21255 -1.570944,-0.027 -2.234232,0.57286 -1.287956,1.16484 -1.896692,0.52449 -0.728125,-0.76594 1.258914,-1.39019 3.510926,-1.28011 5.0383,0.2463 0.686148,0.6857 1.693662,1.24673 2.238918,1.24673 1.705371,0 4.65402,1.45712 5.822258,2.87715 l 1.120309,1.36178 0.0022,-2.31186 c 0.006,-5.82032 -4.860224,-10.45375 -11.117128,-10.58477 -2.44293,-0.0512 -3.494777,0.1784 -4.948517,1.07997 -2.556062,1.58521 -3.892533,3.92393 -3.892533,6.81161 0,5.33912 4.593601,8.3568 8.809921,5.7875 z m 35.848972,-4.92921 c -1.04938,-4.80296 -1.62711,-5.70124 -4.87014,-7.57218 -8.020827,-4.62732 -16.434163,-4.56916 -20.027119,0.13844 l -1.330712,1.74353 1.104538,1.92631 c 0.607488,1.05946 1.150026,1.99361 1.205634,2.07588 0.05562,0.0823 1.5308,-0.33518 3.278209,-0.92768 6.494515,-2.20209 13.850927,-0.18735 18.64896,5.10749 1.56534,1.72742 2.55509,2.48851 2.66035,2.04572 0.0922,-0.38781 -0.20919,-2.42969 -0.66972,-4.53751 z m -46.446566,2.24368 c 1.529216,-1.11747 0.803492,-2.54439 -1.379207,-2.71178 -3.999543,-0.30672 -7.805651,-3.5113 -9.398345,-7.91299 -0.335334,-0.92676 -0.770537,-1.68501 -0.967118,-1.68501 -0.19658,0 -0.606098,1.1588 -0.910038,2.57512 -0.513817,2.39431 -0.465294,2.707 0.691047,4.45323 2.799098,4.22702 9.411775,7.14623 11.963661,5.28143 z m 0.879686,-4.95401 c 0.129031,-0.90794 -0.276565,-1.32426 -2.125466,-2.18165 -1.256713,-0.58277 -2.776488,-1.6841 -3.377284,-2.44739 -1.457682,-1.85196 -2.713647,-6.32592 -2.475736,-8.81901 l 0.192252,-2.01467 -1.31456,1.57363 c -2.430638,2.90965 -2.728822,3.8336 -2.052613,6.36026 1.31587,4.91674 5.205006,8.58144 9.157341,8.62887 1.532799,0.0184 1.862984,-0.16357 1.996066,-1.10004 z m 1.368019,-3.29341 c 0.395865,-0.7392 0.195595,-1.21141 -0.998771,-2.35496 -2.880378,-2.75781 -3.54698,-7.96526 -1.692155,-13.21902 0.379262,-1.07426 0.531113,-1.95208 0.337444,-1.9507 -0.193668,0.002 -1.472318,0.85039 -2.841439,1.88669 -2.012828,1.52351 -2.557625,2.26281 -2.846206,3.86239 -0.763141,4.22997 0.793436,9.22982 3.45291,11.09101 2.582365,1.80723 3.883087,2.0013 4.588217,0.68459 z m 19.134756,-2.76352 c 2.379919,-2.46962 4.594677,-3.28658 8.921337,-3.29085 3.201456,-0.003 8.151345,1.40366 11.280448,3.20605 1.16645,0.67189 2.12081,1.045 2.12081,0.82915 0,-0.85355 -3.982421,-6.39521 -5.948062,-8.27691 l -2.083766,-1.99479 h -5.590155 c -6.035991,0 -7.581395,0.46707 -10.501263,3.17379 -1.451712,1.34574 -3.322657,4.52126 -3.322657,5.63949 0,0.49474 2.308361,2.81148 2.877734,2.88817 0.07321,0.01 1.083744,-0.96848 2.245574,-2.1741 z m -15.715998,-0.19655 c 0.508402,-0.34194 0.483506,-0.78998 -0.124755,-2.24483 -1.744477,-4.17244 -0.237123,-9.9897 3.419995,-13.198639 L 69.39643,53.86578 h -1.922856 c -1.057571,0 -3.042783,0.332372 -4.41158,0.738601 -2.073234,0.615287 -2.641349,1.052386 -3.402943,2.618164 -0.969794,1.99381 -1.618645,8.17599 -1.082268,10.31171 0.175994,0.70078 1.010968,2.06062 1.855489,3.02186 1.555963,1.77102 1.719675,1.78686 3.825925,0.37027 z m 9.594654,-0.87281 c 0,-1.29575 1.819946,-4.38348 3.574144,-6.0639 2.519205,-2.41326 5.072348,-3.30022 10.398319,-3.61235 l 4.740654,-0.27783 -2.994099,-1.74544 c -2.662592,-1.55219 -3.380847,-1.74344 -6.487209,-1.72736 -5.275498,0.0273 -10.043124,2.53211 -12.020951,6.31554 -0.740077,1.41571 -0.947683,5.7342 -0.322071,6.69949 0.315009,0.48604 1.339156,0.90585 2.736951,1.12191 0.205844,0.0318 0.374262,-0.28771 0.374262,-0.71006 z m -5.448366,-0.22948 c 0.826196,0 0.957218,-0.37099 0.957218,-2.71037 0,-3.37851 0.619988,-5.05865 2.650441,-7.18261 1.822813,-1.90674 4.115457,-3.1905 7.332691,-4.105924 L 81.58761,55.187039 79.092523,54.574284 C 77.72023,54.23727 75.435972,53.939981 74.0164,53.913655 c -2.179255,-0.04045 -2.917231,0.20496 -4.740658,1.576317 -2.68921,2.022483 -4.904204,6.164273 -4.904204,9.170303 0,2.60729 1.405305,5.80441 2.386037,5.4283 0.379328,-0.14547 1.120437,-0.26448 1.64691,-0.26448 z"
     id="path24"
     inkscape:connector-curvature="0" />
</svg>
