<?xml version="1.0" encoding="UTF-8" standalone="no"?>
<!-- Created with Inkscape (http://www.inkscape.org/) -->

<svg
   xmlns:dc="http://purl.org/dc/elements/1.1/"
   xmlns:cc="http://creativecommons.org/ns#"
   xmlns:rdf="http://www.w3.org/1999/02/22-rdf-syntax-ns#"
   xmlns:svg="http://www.w3.org/2000/svg"
   xmlns="http://www.w3.org/2000/svg"
   xmlns:sodipodi="http://sodipodi.sourceforge.net/DTD/sodipodi-0.dtd"
   xmlns:inkscape="http://www.inkscape.org/namespaces/inkscape"
   version="1.1"
   id="svg49"
   width="161.66701"
   height="130.64597"
   viewBox="0 0 161.66701 130.64596"
   sodipodi:docname="main-section_icon-4.svg"
   inkscape:version="0.92.2 (5c3e80d, 2017-08-06)">
  <metadata
     id="metadata55">
    <rdf:RDF>
      <cc:Work
         rdf:about="">
        <dc:format>image/svg+xml</dc:format>
        <dc:type
           rdf:resource="http://purl.org/dc/dcmitype/StillImage" />
        <dc:title></dc:title>
      </cc:Work>
    </rdf:RDF>
  </metadata>
  <defs
     id="defs53" />
  <sodipodi:namedview
     pagecolor="#ffffff"
     bordercolor="#666666"
     borderopacity="1"
     objecttolerance="10"
     gridtolerance="10"
     guidetolerance="10"
     inkscape:pageopacity="0"
     inkscape:pageshadow="2"
     inkscape:window-width="1366"
     inkscape:window-height="715"
     id="namedview51"
     showgrid="false"
     fit-margin-top="0"
     fit-margin-left="0"
     fit-margin-right="0"
     fit-margin-bottom="0"
     inkscape:zoom="1.0386547"
     inkscape:cx="461.13825"
     inkscape:cy="157.13919"
     inkscape:window-x="-8"
     inkscape:window-y="-8"
     inkscape:window-maximized="1"
     inkscape:current-layer="svg49" />
  <path
     style="fill:#fefefe;stroke-width:1"
     d="m 0,129.83361 c 0,-0.71847 9.3419618,-0.81236 80.833501,-0.81236 71.491539,0 80.833499,0.0939 80.833499,0.81236 0,0.71847 -9.34196,0.81236 -80.833499,0.81236 C 9.3419618,130.64597 0,130.55208 0,129.83361 Z m 20.006264,-4.39699 c -8.52e-4,-0.80893 9.285331,-1.21276 19.869794,-0.86407 5.50178,0.18125 8.245604,0.47103 8.245702,0.87084 1.01e-4,0.42254 -4.144638,0.59921 -14.057351,0.59921 -10.006839,0 -14.057683,-0.17462 -14.058145,-0.60598 z m 86.510116,-0.66768 c 0,-1.00578 13.15388,-1.44472 24.19599,-0.80742 10.94211,0.63152 6.39358,1.26872 -9.0566,1.26872 -8.32666,0 -15.13939,-0.20758 -15.13939,-0.4613 z m -50.284381,-1.09572 c 0,-0.93638 3.62595,-1.15079 19.397339,-1.147 16.450148,0.004 23.317357,0.34489 23.317357,1.15761 0,0.2548 -9.610806,0.46326 -21.357348,0.46326 -11.843737,0 -21.357348,-0.21108 -21.357348,-0.47387 z m -22.573902,-2.09817 c -12.899222,-0.1459 -16.792519,-0.64065 -11.143901,-1.41614 3.254014,-0.44674 16.166765,-0.44322 21.470647,0.006 2.945043,0.24935 4.136771,0.56138 4.136771,1.08314 0,0.40309 -0.182484,0.67634 -0.405519,0.60722 -0.223036,-0.0691 -6.549136,-0.19515 -14.057998,-0.28008 z m 72.858283,-2.08114 c 0,-0.63644 2.36232,-0.76255 14.28413,-0.76255 7.85627,0 14.66899,0.14792 15.13938,0.32873 2.5175,0.96762 -0.55797,1.22888 -14.28412,1.21342 -12.64915,-0.0143 -15.13939,-0.14248 -15.13939,-0.7796 z m -50.28413,-2.16732 c -3.81e-4,-0.89691 14.101335,-1.34747 29.435887,-0.94049 9.624006,0.25542 13.278558,0.52784 13.278558,0.98985 0,0.47891 -5.311435,0.62571 -21.357101,0.59025 -15.070531,-0.0333 -21.357166,-0.22158 -21.357344,-0.63961 z m -36.51389,-0.78892 c -0.509508,-0.82575 2.918709,-1.11451 13.144578,-1.1072 10.659573,0.008 15.258676,0.35526 15.258676,1.15337 0,0.54618 -28.065908,0.50055 -28.403254,-0.0462 z m 86.79812,-1.92678 c -1.4e-4,-0.90095 11.74427,-1.43471 21.71895,-0.98709 5.77893,0.25933 8.55973,0.58303 8.55973,0.99641 0,0.44101 -4.23497,0.6093 -15.13929,0.6016 -10.71247,-0.008 -15.13932,-0.18619 -15.13939,-0.61092 z m -86.841443,-2.47638 c -0.606839,-0.98254 2.109906,-1.21988 13.57754,-1.18614 11.840299,0.0348 14.869037,0.28697 14.869037,1.23778 0,0.51677 -28.127044,0.46572 -28.446577,-0.0516 z m 36.556962,-0.62515 c 0,-0.61341 1.013822,-0.90719 4.190368,-1.21427 5.395616,-0.5216 20.359669,-0.51564 30.549115,0.0122 6.509707,0.33719 7.975213,0.56097 7.975213,1.21778 0,0.68137 -0.72498,0.74267 -4.73106,0.40008 -6.194549,-0.52975 -33.964458,-0.54152 -36.226384,-0.0153 -1.380566,0.32114 -1.757252,0.23531 -1.757252,-0.40042 z m 50.284381,-1.62637 c 0,-1.43176 11.80097,-2.03325 23.92564,-1.21949 5.04946,0.3389 6.35314,0.59047 6.35314,1.22598 0,0.67822 -0.7592,0.73478 -5.00141,0.37263 -6.17202,-0.52689 -17.99543,-0.51461 -22.16838,0.023 -2.56634,0.33065 -3.10899,0.26046 -3.10899,-0.40215 z m -86.780885,-1.98272 c -0.208371,-0.33771 -0.293665,-0.68638 -0.189541,-0.77485 0.104124,-0.0885 2.903132,-0.37688 6.220018,-0.64093 7.650002,-0.60901 21.88146,0.24728 22.24174,1.33827 0.201226,0.60934 -0.948498,0.65717 -6.71548,0.27935 -8.657608,-0.5672 -10.086453,-0.56946 -16.230844,-0.0257 -3.528378,0.31227 -5.055681,0.26174 -5.325893,-0.17617 z m 36.496504,-2.87744 c 0,-1.28952 15.764114,-1.9254 29.861658,-1.20452 6.75904,0.34562 12.456586,0.7961 12.661215,1.00106 0.980805,0.98241 -1.331227,1.06792 -13.469853,0.49823 -8.470133,-0.39753 -15.109813,-0.44104 -18.779864,-0.12307 -8.157372,0.70673 -10.273156,0.67137 -10.273156,-0.1717 z m 50.284381,-0.11994 c 0,-1.08979 4.04971,-1.56527 13.51732,-1.58707 10.59503,-0.0244 16.76146,0.58878 16.76146,1.66671 0,0.63288 -0.64172,0.71783 -3.37933,0.44733 -10.86942,-1.07399 -16.06808,-1.08225 -24.87185,-0.0395 -1.45589,0.17244 -2.0276,0.035 -2.0276,-0.48748 z m -86.669275,-1.1333 c -0.90273,-0.9042 -0.04634,-1.16087 5.882051,-1.76287 7.784945,-0.79054 22.392458,0.1593 22.392458,1.45605 0,0.63681 -0.916263,0.68614 -5.542094,0.29835 -6.913824,-0.57959 -13.593016,-0.5928 -18.54205,-0.0367 -2.094501,0.23536 -3.980165,0.25567 -4.190365,0.0451 z M 128.95511,99.95074 c -5.75044,-0.63804 -8.38718,-0.66504 -14.49579,-0.14845 -7.14321,0.60408 -8.74785,0.49977 -7.63654,-0.49642 1.13106,-1.0139 13.9363,-1.78848 19.72335,-1.19306 9.44138,0.97142 10.24903,1.12646 10.24903,1.96746 0,0.42854 -0.18249,0.75019 -0.40552,0.71477 -0.22304,-0.0354 -3.56857,-0.41535 -7.43453,-0.8443 z M 19.713037,99.19869 c -0.196019,-0.31768 -0.271207,-0.65891 -0.167083,-0.75828 0.104124,-0.0994 2.880079,-0.51998 6.168789,-0.93468 5.154712,-0.64999 7.112409,-0.64544 14.193173,0.033 6.111109,0.58552 8.213698,0.97264 8.213698,1.51225 0,0.89093 -0.668766,0.88827 -9.398939,-0.0374 -5.867948,-0.62218 -7.827962,-0.62298 -12.435923,-0.005 -6.701461,0.89858 -6.146521,0.88253 -6.573715,0.19019 z m 36.518962,-0.23475 c 0,-0.47066 0.511728,-0.82762 1.216557,-0.84863 0.669107,-0.0199 4.383817,-0.32501 8.254904,-0.67792 8.861106,-0.80784 33.243235,0.37759 33.243235,1.61624 0,0.89613 -0.571288,0.89411 -14.780572,-0.0523 -9.5833,-0.63831 -12.40994,-0.63888 -18.924233,-0.004 -9.5492,0.93095 -9.009891,0.93296 -9.009891,-0.0336 z M 19.740113,94.90999 c -0.210911,-0.34182 -0.298283,-0.70474 -0.194159,-0.80648 0.104124,-0.10174 2.926619,-0.58744 6.272211,-1.07934 5.581677,-0.82067 6.68221,-0.82477 13.356281,-0.0498 4.00036,0.46452 7.649985,0.84459 8.110277,0.84459 0.460289,0 0.836891,0.36556 0.836891,0.81236 0,0.99433 0.448415,0.99712 -8.541757,-0.0532 -7.118449,-0.83162 -12.678044,-0.62382 -18.298698,0.68395 -0.636664,0.14813 -1.330134,-0.0104 -1.541046,-0.35215 z m 86.776267,-0.18717 c 0,-0.52088 1.98753,-0.95778 7.16418,-1.57481 6.63304,-0.79062 7.73442,-0.78499 14.85605,0.076 4.23053,0.51148 7.85993,1.0983 8.06533,1.30403 0.97979,0.98139 -0.98251,1.03495 -8.32657,0.22728 -7.09851,-0.78066 -8.65217,-0.79151 -14.18929,-0.0991 -7.62262,0.95327 -7.5697,0.95281 -7.5697,0.0665 z m -50.284381,-1.7655 c 0,-0.87948 1.256452,-1.12293 9.806598,-1.90018 5.799128,-0.52717 9.377949,-0.53165 16.761461,-0.021 14.502426,1.00306 16.146637,1.21133 16.146637,2.04524 0,0.40567 -0.30414,0.72348 -0.675867,0.70625 -0.371727,-0.0172 -6.181606,-0.4591 -12.910837,-0.98194 -11.415415,-0.88693 -12.800766,-0.89207 -20.681481,-0.0767 -6.411133,0.66333 -8.446511,0.71834 -8.446511,0.22828 z M 19.691034,90.49785 c -0.183918,-0.29806 -0.232791,-0.64371 -0.108608,-0.76809 0.674418,-0.67552 12.866778,-2.16242 15.020631,-1.83182 1.338902,0.20551 4.92831,0.6744 7.976463,1.04198 4.045541,0.48786 5.542094,0.87125 5.542094,1.41977 0,0.92855 0.223145,0.93556 -8.746127,-0.27478 -6.354214,-0.85746 -7.951479,-0.90372 -11.354539,-0.32879 -7.21993,1.21978 -7.992501,1.28857 -8.329914,0.74173 z m 86.825346,-0.67483 c 0,-0.72847 2.97395,-1.3472 11.03874,-2.2966 4.08355,-0.48073 19.24004,1.36362 19.24004,2.34125 0,0.89672 -0.92838,0.87023 -9.46378,-0.27011 -6.62959,-0.88571 -7.38524,-0.88708 -13.24696,-0.024 -7.80072,1.14859 -7.56804,1.14092 -7.56804,0.2495 z M 85.699731,86.56874 C 73.615189,85.45308 73.057568,85.44687 65.96446,86.34896 c -8.942299,1.13727 -9.732461,1.15782 -9.732461,0.25307 0,-0.52446 2.308961,-0.98522 8.563163,-1.70883 8.197961,-0.94849 9.033849,-0.95117 19.600095,-0.0627 13.335375,1.12131 14.551438,1.31177 14.551438,2.2791 0,0.41365 -0.182484,0.7195 -0.40552,0.67967 C 98.31814,87.74947 92.539491,87.2002 85.699731,86.56875 Z M 19.671861,86.1342 c -0.517011,-0.83791 -0.04467,-0.99898 6.235172,-2.1262 l 6.015762,-1.07982 7.602053,1.11282 c 4.181128,0.61205 7.825866,1.11282 8.099409,1.11282 0.273547,0 0.497357,0.39268 0.497357,0.87263 0,0.68718 -0.373443,0.80661 -1.757249,0.56198 -0.966486,-0.17086 -4.676987,-0.70731 -8.245557,-1.19212 -6.220762,-0.84512 -6.728367,-0.83755 -12.310016,0.18365 -3.513674,0.64284 -5.94668,0.86257 -6.136931,0.55424 z m 86.844519,-1.19782 c 0,-0.86293 0.58555,-1.02044 8.34954,-2.2461 5.15907,-0.81443 5.70931,-0.79975 13.65248,0.36421 5.87776,0.86131 8.27676,1.41981 8.27676,1.92687 0,0.90105 0.41706,0.92124 -8.74292,-0.42319 -7.46019,-1.09495 -7.95923,-1.10426 -13.42547,-0.25053 -3.1225,0.48768 -6.22472,1.00407 -6.89383,1.14753 -0.81883,0.17558 -1.21656,0.006 -1.21656,-0.51879 z M 19.775577,81.54351 c -0.29089,-0.75928 -0.194428,-0.79226 6.077829,-2.07786 5.120238,-1.04947 7.126327,-1.01296 14.968861,0.27243 3.56857,0.58489 6.670792,1.06787 6.893828,1.07329 0.223035,0.005 0.405519,0.37542 0.405519,0.82222 0,0.994 0.713884,1.03259 -8.437639,-0.45601 l -7.626603,-1.24056 -6.004655,1.15886 c -4.82787,0.93176 -6.058056,1.01948 -6.27714,0.44763 z m 36.456422,-0.88976 c 0,-0.87723 0.382173,-0.96625 9.966105,-2.32156 6.297471,-0.89055 6.765724,-0.88209 19.6001,0.35422 9.788674,0.94293 13.148491,1.44669 13.148491,1.97148 0,0.91678 0.09286,0.91988 -13.759284,-0.45985 -11.575202,-1.15294 -12.040321,-1.1592 -18.924233,-0.25463 -3.881553,0.51004 -7.726476,1.05743 -8.544274,1.21641 -1.077939,0.20954 -1.486905,0.0703 -1.486905,-0.50607 z m 50.396531,-0.82821 c 0.12033,-0.62582 1.88125,-1.14199 6.89887,-2.02224 l 6.73729,-1.18193 7.85971,1.27925 c 4.32285,0.70359 8.0422,1.283 8.26524,1.28757 0.43571,0.009 0.57999,1.63304 0.14507,1.63304 -0.14324,0 -3.85374,-0.58921 -8.24556,-1.30936 l -7.98511,-1.30936 -6.91854,1.23166 c -6.04473,1.07611 -6.89812,1.12554 -6.75697,0.39137 z m -66.887645,-3.14892 -7.029,-1.33528 -6.106792,1.1995 c -4.516535,0.88713 -6.264886,1.04114 -6.713894,0.5914 -0.750943,-0.75217 -0.696938,-0.77102 6.435868,-2.2474 l 5.510414,-1.14056 6.655163,1.11294 c 9.40106,1.57214 9.62897,1.631 9.62897,2.48682 0,0.94595 0.193023,0.96132 -8.380729,-0.66742 z m 88.403195,-2.24033 -7.29935,-1.38025 -5.67727,0.98761 c -3.12249,0.54318 -6.34637,1.09946 -7.16417,1.23619 -1.05364,0.17616 -1.48691,0.0193 -1.48691,-0.53819 0,-0.58311 1.8165,-1.11169 7.01686,-2.04185 6.97055,-1.24677 7.05352,-1.24876 12.5711,-0.30029 9.32381,1.60275 10.69082,1.95823 10.69082,2.78008 0,0.92854 0.34878,0.95851 -8.65108,-0.7433 z m -72.140766,0.0703 c -0.323495,-0.8444 -0.191308,-0.87744 9.548936,-2.38657 l 7.427819,-1.15085 12.577796,1.40954 c 6.917785,0.77524 12.760275,1.40786 12.98331,1.40581 0.223036,-0.002 0.40552,0.39297 0.40552,0.87784 0,0.71165 -0.390816,0.82303 -2.027597,0.57786 -1.115178,-0.16705 -7.015482,-0.83786 -13.111791,-1.49069 l -11.084191,-1.18697 -8.222986,1.3294 c -6.63047,1.07194 -8.276015,1.19097 -8.496816,0.61463 z m -16.596192,-2.30535 -7.362763,-1.4583 -5.563839,1.27334 c -5.186134,1.1869 -7.878948,1.2655 -6.700491,0.19559 0.673377,-0.61136 10.365954,-2.77209 12.414055,-2.76743 0.904733,0.002 4.797717,0.61169 8.651079,1.35473 3.853357,0.74305 7.066935,1.35232 7.141279,1.35394 0.07434,0.002 0.135172,0.36851 0.135172,0.81531 0,0.99169 0.298482,1.01797 -8.714492,-0.76718 z m 89.007298,-2.83382 -7.56969,-1.59774 -5.94761,1.18798 c -3.27119,0.65338 -6.49507,1.30317 -7.16418,1.44396 -0.86531,0.18208 -1.21656,0.003 -1.21656,-0.6195 0,-0.48153 0.15751,-0.8755 0.35002,-0.8755 0.1925,0 3.33851,-0.62748 6.99112,-1.39441 l 6.64112,-1.39441 7.20204,1.42846 c 9.01694,1.78843 9.09448,1.81189 9.09448,2.75079 0,0.42672 -0.18249,0.75162 -0.40552,0.72199 -0.22304,-0.0296 -3.81188,-0.77286 -7.97522,-1.65162 z M 39.740885,67.7531 32.171193,66.16577 26.321701,67.6074 c -4.301276,1.06006 -6.009031,1.28183 -6.452262,0.83787 -0.331523,-0.33206 -0.497335,-0.69079 -0.368469,-0.79717 0.128864,-0.1064 3.035308,-0.84657 6.458763,-1.64483 l 6.224464,-1.4514 6.752151,1.35904 c 9.309736,1.87382 9.185266,1.83676 9.185266,2.73524 0,0.44112 -0.182484,0.7778 -0.405519,0.74817 -0.223036,-0.0296 -3.811881,-0.76818 -7.97521,-1.64122 z m 45.958846,-0.0487 -12.435924,-1.61961 -8.299795,1.46488 c -5.957357,1.05146 -8.46506,1.29936 -8.885381,0.87836 -0.322067,-0.3226 -0.480143,-0.67176 -0.351277,-0.77591 0.128866,-0.10415 4.127286,-0.85322 8.885377,-1.66459 l 8.651076,-1.47523 11.084195,1.3818 c 14.423399,1.79807 14.598693,1.83128 14.598693,2.76624 0,0.4333 -0.182484,0.75989 -0.40552,0.72575 -0.223035,-0.0341 -6.001684,-0.7909 -12.841444,-1.68169 z m 20.816649,-2.81009 c 0,-0.5317 2.08878,-1.25235 6.89383,-2.37844 l 6.89383,-1.61561 8.06735,1.70148 c 4.64315,0.97928 8.16212,1.98882 8.29062,2.37844 0.31795,0.96409 -0.82953,0.84789 -9.05863,-0.91728 l -7.29934,-1.56575 -6.65793,1.58 c -7.79484,1.84981 -7.12973,1.77358 -7.12973,0.81717 z M 40.551923,63.44938 c -3.717259,-0.84885 -7.455731,-1.55233 -8.307716,-1.56328 -0.851983,-0.0109 -3.833164,0.60333 -6.624847,1.36512 -4.681523,1.27746 -6.154437,1.35404 -6.154437,0.31997 0,-0.21854 2.800388,-1.11351 6.223084,-1.98884 l 6.223083,-1.59151 6.077667,1.24533 c 8.885074,1.82059 10.132857,2.20085 10.132857,3.08795 0,0.43531 -0.182484,0.76384 -0.405519,0.73005 -0.223036,-0.0338 -3.446914,-0.75594 -7.164172,-1.60479 z m 15.502069,-1.26669 c -0.206969,-0.54024 1.857984,-1.14672 8.272507,-2.42966 l 8.54833,-1.70972 12.630415,1.72122 c 11.94272,1.6275 14.140468,2.12358 13.270102,2.99536 -0.203278,0.20361 -6.14819,-0.41309 -13.210912,-1.37045 L 72.723116,59.6488 66.234808,60.95949 c -10.129121,2.04617 -9.877123,2.01589 -10.180816,1.2232 z m -16.042761,-3.39575 -7.840038,-1.8488 -5.888773,1.68352 c -4.084675,1.16775 -6.061404,1.51059 -6.452261,1.1191 -0.30992,-0.31042 -0.458055,-0.66283 -0.329189,-0.78313 0.128864,-0.1203 2.979596,-0.99373 6.334959,-1.94097 l 6.100659,-1.72223 7.686995,1.75516 c 7.775517,1.77537 8.777482,2.14064 8.423687,3.07083 -0.110764,0.29122 -3.605472,-0.28868 -8.036039,-1.33348 z m 66.585489,1.18495 c 0.14879,-0.75895 1.67322,-1.32356 7.02787,-2.60297 l 6.83787,-1.63381 8.16634,1.82178 c 5.39378,1.20326 8.16636,2.06017 8.16636,2.52395 0,0.95268 -0.11129,0.9397 -8.74656,-1.02013 l -7.58872,-1.7223 -6.29588,1.5296 c -3.46274,0.84129 -6.6247,1.65188 -7.02659,1.80133 -0.4772,0.17745 -0.66478,-0.0645 -0.54069,-0.69745 z M 84.888693,55.03951 73.263807,53.22062 65.275061,54.88826 c -4.393805,0.91721 -8.408445,1.49629 -8.921423,1.28685 -0.848561,-0.34646 -0.835146,-0.42401 0.148708,-0.85984 0.594763,-0.26347 4.548174,-1.20428 8.785368,-2.09069 l 7.703981,-1.61165 12.301637,1.86944 c 6.765894,1.0282 12.605769,1.87292 12.977496,1.87718 0.371727,0.004 0.675867,0.3733 0.675867,0.82009 0,1.04767 -0.156271,1.035 -14.058002,-1.14013 z M 19.735818,55.36817 C 19.527269,55.03018 19.44183,54.67411 19.545954,54.57689 20.08149,54.07686 30.872089,51.0347 32.110142,51.0347 c 1.82094,0 15.027885,3.24374 15.705082,3.85731 1.337057,1.21141 -0.885407,1.03947 -8.063202,-0.62382 l -7.834592,-1.81548 -5.280042,1.52691 c -2.904023,0.8398 -5.55957,1.63405 -5.901216,1.765 -0.341646,0.13094 -0.791804,-0.0385 -1.000354,-0.37645 z m 108.137912,-1.40996 -7.56969,-1.88993 -6.10805,1.6495 c -6.75784,1.82499 -7.87596,1.96912 -7.5447,0.97254 0.12376,-0.37233 3.21247,-1.48128 6.8638,-2.46433 l 6.63879,-1.78735 8.32064,1.99017 c 5.73794,1.37243 8.32064,2.2214 8.32064,2.73511 0,0.99758 -0.21073,0.9691 -8.92143,-1.20571 z M 19.8422,51.23207 c -0.8572,-0.8586 -0.09473,-1.26917 5.825106,-3.13665 l 6.202382,-1.95662 7.720445,1.94257 c 4.246245,1.06841 7.947533,2.16592 8.225091,2.43892 1.341392,1.31936 -0.942301,1.11113 -8.062784,-0.73518 l -7.782324,-2.01793 -5.303953,1.70178 c -2.917174,0.93598 -5.561069,1.8006 -5.87532,1.92139 -0.314252,0.12078 -0.741141,0.0496 -0.948643,-0.15828 z m 65.587184,-2.38963 -12.165577,-2.06327 -8.300853,1.9099 c -5.948854,1.36875 -8.46648,1.74402 -8.885381,1.32444 -0.321484,-0.32201 -0.479085,-0.67611 -0.350219,-0.78689 0.128866,-0.11077 4.07806,-1.0642 8.775988,-2.11873 l 8.541691,-1.91731 12.815657,2.10028 c 7.04861,1.15515 12.876485,2.10452 12.950829,2.1097 0.07435,0.005 0.135176,0.37498 0.135176,0.82178 0,0.98972 1.141945,1.10629 -13.517311,-1.3799 z m 42.421826,0.0373 -7.59222,-2.01078 -6.19543,1.79743 c -6.98966,2.02784 -7.54718,2.11037 -7.54718,1.11724 0,-0.44597 2.56036,-1.43279 6.89383,-2.65704 l 6.89383,-1.9476 6.75865,1.75733 c 3.71726,0.96652 7.42776,1.92313 8.24556,2.12579 1.44493,0.35807 2.16477,2.04485 0.81104,1.90048 -0.37173,-0.0396 -4.09236,-0.97693 -8.26808,-2.08286 z M 19.775919,46.83309 c -0.171048,-0.17133 -0.310996,-0.49444 -0.310996,-0.71804 0,-0.43673 11.089336,-4.27524 12.436937,-4.30497 1.987333,-0.0438 16.218424,4.12976 16.219064,4.75664 8.11e-4,0.97409 -0.604479,0.88483 -8.265797,-1.21854 -3.797303,-1.04253 -7.335962,-1.89551 -7.863689,-1.89551 -0.527726,0 -3.422132,0.83069 -6.432013,1.84596 -3.009881,1.01528 -5.61246,1.70579 -5.783506,1.53446 z m 108.441431,-2.97508 -7.76678,-2.21133 -6.02088,1.78449 c -3.31148,0.98148 -6.44668,1.90367 -6.96709,2.04931 -0.60775,0.17009 -0.94622,-0.0353 -0.94622,-0.57421 0,-0.46147 0.4258,-0.96118 0.94622,-1.11048 0.52041,-0.1493 3.4063,-1.0187 6.41306,-1.93201 3.00678,-0.9133 5.93703,-1.66055 6.51168,-1.66055 0.57466,0 3.22412,0.62126 5.88769,1.38058 2.66357,0.75932 6.12024,1.74096 7.68149,2.18142 1.77673,0.50126 2.83864,1.09908 2.83864,1.59808 0,1.00079 0.58454,1.10337 -8.57781,-1.5053 z m -72.158804,-0.0769 c -0.220911,-0.57663 1.736243,-1.26254 8.293619,-2.9066 l 8.582766,-2.15187 12.834059,2.2549 c 7.725328,1.35731 12.920382,2.51431 13.050939,2.9066 0.325279,0.97744 -1.177952,0.82101 -14.080706,-1.46529 l -11.774349,-2.08634 -8.231266,2.08861 c -4.527196,1.14873 -8.266059,2.09449 -8.308586,2.10167 -0.04255,0.007 -0.207444,-0.32657 -0.366476,-0.74168 z M 19.683979,42.28643 c -0.495685,-0.80334 0.326376,-1.22384 6.713967,-3.4343 l 5.581294,-1.93144 8.071187,2.28173 c 5.16408,1.45989 8.071187,2.53872 8.071187,2.99522 0,1.01164 -0.322489,0.95749 -8.649509,-1.45235 l -7.483908,-2.16584 -5.97331,2.14326 c -3.93898,1.41334 -6.095098,1.94589 -6.330908,1.56372 z M 106.59672,39.9533 c 0.13897,-0.69448 2.00908,-1.52384 6.96104,-3.08712 l 6.77103,-2.13754 8.06061,2.35415 c 4.43334,1.29477 8.15854,2.64842 8.27824,3.00809 0.34697,1.04259 -1.13353,0.79195 -8.91573,-1.50939 l -7.31556,-2.16335 -6.28412,1.96326 c -3.45626,1.07979 -6.61293,2.08885 -7.01482,2.24237 -0.4761,0.18185 -0.6645,-0.0518 -0.54069,-0.67047 z M 84.888693,36.18412 73.263807,33.91624 65.235621,36.01419 c -7.129021,1.86297 -10.483597,2.2458 -9.308431,1.06228 0.21486,-0.21639 4.165656,-1.38109 8.779544,-2.58822 l 8.388888,-2.19478 12.925536,2.43254 c 9.065667,1.70613 12.925537,2.64456 12.925537,3.14254 0,0.98929 -0.914568,0.87971 -14.058002,-1.68443 z m 21.728707,-1.2423 c 0.11419,-0.58788 2.37828,-1.61169 6.95226,-3.14378 l 6.78292,-2.27199 8.21649,2.49535 c 4.86841,1.47853 8.21845,2.7712 8.22129,3.17231 0.007,0.99576 -0.61899,0.87858 -8.94394,-1.67416 l -7.597,-2.32952 -6.90067,2.3118 c -5.5823,1.87012 -6.86833,2.14523 -6.73135,1.43999 z m -21.262023,-4.924 -12.239585,-2.48765 -8.254072,2.3004 c -5.666645,1.57929 -8.428779,2.12542 -8.81137,1.7422 -0.306515,-0.30701 -0.451862,-0.64196 -0.322996,-0.74433 0.58613,-0.46564 16.27219,-4.70608 17.408511,-4.70608 0.702522,0 6.721226,1.09668 13.374905,2.43708 6.653678,1.34039 12.17372,2.43708 12.266758,2.43708 0.09304,0 0.169167,0.36556 0.169167,0.81236 0,1.02814 0.794866,1.13289 -13.591318,-1.79106 z m 42.544523,-1.54984 -7.54353,-2.447 -5.70344,2.00917 c -7.26275,2.55849 -8.13655,2.75141 -8.13655,1.79646 0,-0.48136 2.51403,-1.62333 6.94271,-3.15367 l 6.94271,-2.39907 8.19668,2.65085 c 5.05813,1.63583 8.19668,2.92289 8.19668,3.36132 0,1.0091 -0.48599,0.90977 -8.89526,-1.81806 z M 85.8438,23.7702 73.011245,21.06401 64.768937,23.56115 c -5.98048,1.81188 -8.350193,2.32229 -8.635447,1.85999 -0.523075,-0.84774 -0.330308,-0.92674 8.881094,-3.63971 l 7.971547,-2.3478 12.574763,2.61413 c 6.916118,1.43777 12.784618,2.79956 13.041109,3.02619 1.585317,1.40076 -1.361583,1.09962 -12.758203,-1.30375 z m -0.760908,-6.41758 -11.97137,-2.72726 -7.959126,2.53392 c -4.377519,1.39365 -8.337755,2.38839 -8.800518,2.21052 -1.447339,-0.5563 -0.128306,-1.15957 8.381758,-3.83344 l 8.231287,-2.58629 12.990886,2.9129 c 8.696429,1.94993 12.990886,3.14248 12.990886,3.60746 0,0.995 -0.606896,0.90229 -13.863803,-2.11784 z M 85.298596,11.12589 73.002239,8.15312 64.775786,10.9061 c -5.353973,1.79171 -8.410862,2.56827 -8.754593,2.22398 -0.290473,-0.29095 -0.422705,-0.62161 -0.293839,-0.73479 0.128866,-0.11319 4.06679,-1.47798 8.750951,-3.03288 l 8.516655,-2.82709 6.082038,1.42782 c 18.495558,4.342 19.869697,4.72078 19.869697,5.47706 0,1.01633 0.430264,1.08929 -13.648099,-2.31431 z M 85.699731,4.95904 73.263807,1.76614 64.793025,4.70428 C 58.216926,6.98524 56.258868,7.477 56.038903,6.90286 55.756499,6.16572 57.499291,5.43457 68.938271,1.49116 L 73.263807,0 85.969114,3.21097 c 9.884223,2.498 12.744334,3.41396 12.881087,4.12521 0.09668,0.50284 -0.02453,0.8921 -0.269382,0.86501 C 98.335983,8.17409 92.539491,6.71514 85.699731,4.95904 Z"
     id="path59"
     inkscape:connector-curvature="0" />
</svg>
