<?xml version="1.0" encoding="UTF-8" standalone="no"?>
<!-- Created with Inkscape (http://www.inkscape.org/) -->

<svg
   xmlns:dc="http://purl.org/dc/elements/1.1/"
   xmlns:cc="http://creativecommons.org/ns#"
   xmlns:rdf="http://www.w3.org/1999/02/22-rdf-syntax-ns#"
   xmlns:svg="http://www.w3.org/2000/svg"
   xmlns="http://www.w3.org/2000/svg"
   xmlns:sodipodi="http://sodipodi.sourceforge.net/DTD/sodipodi-0.dtd"
   xmlns:inkscape="http://www.inkscape.org/namespaces/inkscape"
   version="1.1"
   id="svg2"
   width="130.02301"
   height="130.63"
   viewBox="0 0 130.02301 130.63"
   sodipodi:docname="main-section_icon-1.svg"
   inkscape:version="0.92.2 (5c3e80d, 2017-08-06)">
  <metadata
     id="metadata8">
    <rdf:RDF>
      <cc:Work
         rdf:about="">
        <dc:format>image/svg+xml</dc:format>
        <dc:type
           rdf:resource="http://purl.org/dc/dcmitype/StillImage" />
        <dc:title></dc:title>
      </cc:Work>
    </rdf:RDF>
  </metadata>
  <defs
     id="defs6" />
  <sodipodi:namedview
     pagecolor="#ffffff"
     bordercolor="#666666"
     borderopacity="1"
     objecttolerance="10"
     gridtolerance="10"
     guidetolerance="10"
     inkscape:pageopacity="0"
     inkscape:pageshadow="2"
     inkscape:window-width="1366"
     inkscape:window-height="715"
     id="namedview4"
     showgrid="false"
     fit-margin-top="0"
     fit-margin-left="0"
     fit-margin-right="0"
     fit-margin-bottom="0"
     inkscape:zoom="1.8963318"
     inkscape:cx="103.51841"
     inkscape:cy="84.792583"
     inkscape:window-x="-8"
     inkscape:window-y="-8"
     inkscape:window-maximized="1"
     inkscape:current-layer="svg2" />
  <path
     style="fill:#999999;stroke-width:0.99999994"
     d="m 59.875291,130.56394 c 0,-0.2321 0.4407,-1.73404 0.979333,-3.33765 0.538633,-1.6036 0.973472,-3.16243 0.966308,-3.46407 -0.0071,-0.30165 -1.384351,-1.56411 -3.060416,-2.80548 l -3.047391,-2.25704 3.949273,-0.14418 3.949274,-0.14417 1.098047,-3.49217 c 0.603926,-1.92069 1.186184,-3.49217 1.293906,-3.49217 0.107726,0 0.652603,1.57092 1.210837,3.49092 l 1.014976,3.49091 4.016059,0.14543 4.016059,0.14543 -3.037362,2.25704 c -1.670547,1.24137 -3.043782,2.50383 -3.051632,2.80548 -0.0078,0.30164 0.426426,1.86047 0.965059,3.46407 0.538634,1.60361 0.979334,3.11314 0.979334,3.35451 0,0.24138 -1.156837,-0.42931 -2.57075,-1.4904 -1.413912,-1.06111 -2.823407,-2.0828 -3.132211,-2.27042 -0.308803,-0.18763 -1.90634,0.67296 -3.550082,1.91242 -1.643743,1.23945 -2.988621,2.06365 -2.988621,1.83154 z m 4.652121,-4.39474 1.469288,-1.12817 1.919974,1.46635 c 1.05598,0.80649 1.98426,1.40049 2.062837,1.32001 0.07857,-0.0805 -0.166256,-1.19842 -0.544064,-2.48428 l -0.686928,-2.33795 2.025515,-1.52577 2.025521,-1.52578 H 70.294107 67.78866 l -0.813204,-2.50782 c -0.447262,-1.3793 -0.887962,-2.50782 -0.979334,-2.50782 -0.09137,0 -0.528408,1.11723 -0.971194,2.48272 l -0.805066,2.48271 -2.510584,0.1505 -2.510584,0.15049 2.032537,1.37313 2.032533,1.37314 -0.714903,2.07549 c -1.171528,3.40114 -1.052133,3.47012 1.978551,1.14305 z m -32.563115,-3.09565 c 0,-0.25029 0.4407,-1.76711 0.979333,-3.37072 0.538633,-1.60361 0.979333,-3.0916 0.979333,-3.30666 0,-0.21505 -1.357779,-1.36466 -3.017287,-2.55469 l -3.017286,-2.16368 3.835559,-0.25079 3.835559,-0.25078 1.227405,-3.76173 1.227406,-3.76173 1.236674,3.88713 1.236674,3.88711 h 3.915787 3.915787 l -3.035973,2.2628 c -1.669785,1.24454 -3.035973,2.56343 -3.035973,2.93086 0,0.36745 0.44127,1.98182 0.980601,3.5875 0.539331,1.60568 0.906224,2.9956 0.815319,3.08871 -0.0909,0.0931 -1.39664,-0.73387 -2.901634,-1.83776 -1.504993,-1.10389 -2.908975,-2.00707 -3.119962,-2.00707 -0.210986,0 -1.660196,0.91723 -3.220466,2.03829 -1.560271,1.12106 -2.836856,1.8335 -2.836856,1.58321 z m 9.554674,-4.9181 c -0.401541,-1.35583 -0.732461,-2.49157 -0.735376,-2.52387 -0.0029,-0.0323 0.931187,-0.70943 2.075782,-1.50469 l 2.081084,-1.44596 -2.653693,-0.25078 -2.653692,-0.25079 -0.816309,-2.50782 -0.816309,-2.50782 -0.853934,2.63322 -0.853934,2.63321 h -2.750278 -2.750279 l 2.055131,1.54808 c 2.223287,1.67475 2.333613,1.99804 1.50885,4.42144 -0.750279,2.20456 -0.314131,2.39621 1.761932,0.77424 l 1.769639,-1.38256 2.057438,1.5067 c 1.131591,0.82869 2.11292,1.46526 2.180732,1.41461 0.06781,-0.0506 -0.205242,-1.2014 -0.606784,-2.55721 z m 44.308645,5.16645 c 0,-0.11102 0.4407,-1.5139 0.979338,-3.11751 0.538631,-1.6036 0.979331,-3.1967 0.979331,-3.54022 0,-0.34352 -1.363467,-1.66241 -3.02993,-2.93087 l -3.029929,-2.30629 h 3.909743 3.909742 l 1.253784,-3.88711 1.253777,-3.88713 1.119289,3.868 1.11929,3.868 3.924462,0.14451 3.924457,0.14452 -3.015176,2.16368 c -1.658346,1.19003 -3.01518,2.33964 -3.01518,2.55469 0,0.21506 0.444188,1.71344 0.987079,3.32972 0.542899,1.61629 0.925463,3.12807 0.850155,3.35949 -0.07532,0.23143 -1.330525,-0.4914 -2.789352,-1.60628 -1.458834,-1.11488 -2.858541,-2.02705 -3.11046,-2.02705 -0.251926,0 -1.479143,0.75407 -2.727146,1.67571 -2.599476,1.91968 -3.493274,2.48109 -3.493274,2.19414 z m 6.145075,-5.37455 c 0.205146,0 1.124395,0.58705 2.042784,1.30457 0.918389,0.71751 1.755925,1.21634 1.861186,1.10852 0.105268,-0.10783 -0.10084,-1.20272 -0.458012,-2.43308 l -0.649408,-2.23705 2.225879,-1.63008 2.22588,-1.63008 h -2.740007 -2.740008 l -0.85393,-2.63321 -0.853929,-2.63322 -0.816316,2.50782 -0.816308,2.50782 -2.653689,0.25079 -2.653697,0.25078 2.081088,1.44596 c 1.144593,0.79526 2.08108,1.50043 2.08108,1.56701 0,0.0666 -0.330525,1.08064 -0.7345,2.25345 -1.066941,3.09752 -0.942172,3.26216 1.172211,1.54684 1.048697,-0.85076 2.074565,-1.54684 2.279696,-1.54684 z M 11.887968,102.44251 c 0,-0.25072 0.437857,-1.8866 0.973015,-3.635306 0.535159,-1.7487 0.975859,-3.2333 0.979334,-3.2991 0.0035,-0.0658 -1.346376,-1.12784 -2.999667,-2.36008 l -3.0059848,-2.24044 3.8236038,-0.14774 3.823602,-0.14774 1.22806,-3.76174 1.228059,-3.76173 1.230537,3.86775 1.230536,3.86774 3.701534,0.14477 3.701534,0.14477 -3.017381,2.1734 -3.017382,2.1734 1.181132,3.55705 c 0.649623,1.956376 1.181132,3.650176 1.181132,3.763996 0,0.11383 -1.412286,-0.82531 -3.138414,-2.08698 l -3.138413,-2.293936 -2.982419,2.248876 c -1.64033,1.23689 -2.982418,2.04375 -2.982418,1.79304 z m 5.247105,-4.638046 c 0.917013,-0.47888 1.357786,-0.3534 2.847744,0.81065 0.969542,0.75748 1.860859,1.27679 1.980705,1.15404 0.119845,-0.12276 -0.124034,-1.21589 -0.541953,-2.42919 l -0.759853,-2.20597 1.611541,-1.36973 c 0.886348,-0.75334 1.831891,-1.41256 2.101208,-1.46495 0.269316,-0.0524 -0.704495,-0.22774 -2.164026,-0.38967 l -2.653692,-0.29442 -0.80767,-2.48157 c -0.874913,-2.68819 -1.089284,-2.62423 -1.926921,0.57492 -0.550503,2.10252 -0.555454,2.10611 -3.110035,2.25704 l -2.558653,0.15118 1.863849,1.25391 c 1.959639,1.31835 2.04878,1.80724 1.005197,5.51285 -0.349434,1.240786 -0.343558,1.243376 0.837859,0.36852 0.654369,-0.48457 1.677984,-1.13599 2.2747,-1.44761 z m 89.258537,4.732446 c 0,-0.26542 0.4407,-1.79462 0.97934,-3.398216 0.53863,-1.6036 0.97933,-3.10648 0.97933,-3.33973 0,-0.23324 -1.33347,-1.42958 -2.96328,-2.65851 l -2.96326,-2.23444 3.82018,-0.14696 3.82019,-0.14695 1.16907,-3.7553 1.16906,-3.75529 1.27927,3.75529 1.27927,3.7553 3.67249,0.25078 3.6725,0.25078 -2.797,2.00626 c -1.53835,1.10344 -2.80536,2.25305 -2.81558,2.55469 -0.0102,0.30164 0.42212,1.86048 0.96075,3.46408 0.53863,1.603596 0.97933,3.117416 0.97933,3.364026 0,0.24661 -1.40379,-0.57768 -3.11956,-1.83177 -3.09129,-2.259496 -3.1301,-2.271926 -4.28458,-1.371296 -3.892,3.036256 -4.83752,3.668996 -4.83752,3.237256 z m 5.18712,-4.646996 c 0.89227,-0.56563 1.26904,-0.47986 2.91017,0.6624 1.03686,0.72169 1.95517,1.24049 2.04069,1.1529 0.0855,-0.0876 -0.18585,-1.15018 -0.60302,-2.3613 -0.739,-2.14545 -0.7297,-2.22389 0.36202,-3.05206 3.35012,-2.54136 3.31627,-2.39244 0.54779,-2.4099 l -2.5314,-0.016 -0.8132,-2.50782 c -0.44726,-1.3793 -0.88796,-2.50782 -0.97933,-2.50782 -0.0914,0 -0.52842,1.11722 -0.9712,2.48272 l -0.80507,2.48272 -2.50408,0.15049 -2.50408,0.1505 2.00966,1.42198 2.00967,1.422 -0.69324,2.33973 c -0.38128,1.28687 -0.69561,2.42214 -0.69854,2.52283 -0.003,0.1007 0.49049,-0.14694 1.09646,-0.55029 0.60596,-0.40336 1.56298,-1.02577 2.1267,-1.38313 z M 4.0533029,74.433804 c 0,-0.25689 0.4406999,-1.77911 0.9793328,-3.38272 0.5386337,-1.6036 0.9793336,-3.10342 0.9793336,-3.33293 0,-0.22951 -1.3526931,-1.42549 -3.0059846,-2.65774 L 0,62.819984 l 3.8629014,-0.14775 3.8629006,-0.14774 1.1882482,-3.69874 1.1882478,-3.698739 1.260085,3.698739 1.260085,3.69874 3.862901,0.14774 3.8629,0.14775 -3.005984,2.24043 c -1.653291,1.23225 -3.003141,2.40714 -2.999667,2.61087 0.0035,0.20373 0.448232,1.81453 0.988349,3.57955 0.540117,1.76503 0.920938,3.27172 0.846269,3.3482 -0.07467,0.0765 -1.453028,-0.83304 -3.063017,-2.02117 l -2.927252,-2.16023 -3.066832,2.24162 c -1.6867576,1.23289 -3.0668321,2.03143 -3.0668321,1.77455 z m 4.118641,-3.88428 c 1.9828561,-1.54915 2.0221521,-1.54866 4.0692141,0.0506 0.918389,0.71751 1.767853,1.20413 1.887699,1.08137 0.119845,-0.12276 -0.114978,-1.18959 -0.521828,-2.37075 -0.406851,-1.18116 -0.739728,-2.20134 -0.739728,-2.26707 0,-0.0657 0.921103,-0.77089 2.046897,-1.56702 l 2.046897,-1.44752 -2.610441,-0.25078 -2.610441,-0.25078 -0.67544,-2.38243 c -0.371492,-1.31034 -0.761238,-2.38243 -0.866102,-2.38243 -0.104866,0 -0.556607,1.12852 -1.0038693,2.50782 l -0.8132051,2.50782 -2.5313972,0.0167 c -2.4570966,0.0162 -2.5018717,0.042 -1.525482,0.87774 0.5532525,0.47358 1.5006684,1.19961 2.1053674,1.6134 1.0694803,0.73183 1.0787673,0.81217 0.3406684,2.94705 -1.0900433,3.15284 -1.0262725,3.21275 1.4011907,1.31624 z m 105.5666661,4.15221 c 0,-0.12839 0.4407,-1.54548 0.97933,-3.14908 0.53864,-1.60361 0.97934,-3.21933 0.97934,-3.59051 0,-0.37117 -1.34634,-1.69006 -2.99187,-2.93087 l -2.99187,-2.256 h 3.87168 3.87168 l 1.23668,-3.88712 1.23667,-3.887127 1.22806,3.761737 1.22806,3.76173 3.81832,0.14764 3.81831,0.14765 -3.0007,2.28403 c -1.65038,1.25622 -3.0007,2.45224 -3.0007,2.65783 0,0.20559 0.44419,1.69622 0.98708,3.31251 0.5429,1.61629 0.92851,3.10538 0.85692,3.30909 -0.0716,0.20372 -1.4261,-0.6247 -3.01003,-1.84093 l -2.87987,-2.21133 -2.15273,1.61397 c -3.35914,2.51843 -4.08436,3.00793 -4.08436,2.75678 z m 4.3053,-4.23004 c 1.82514,-1.42592 1.6154,-1.45662 4.87594,0.71374 1.27947,0.85166 1.35298,0.47033 0.42736,-2.21689 l -0.6744,-1.95789 2.02098,-1.49073 2.02098,-1.49074 -2.53954,-0.15049 -2.53953,-0.1505 -0.84579,-2.60811 -0.84579,-2.60811 -0.81632,2.50783 -0.81631,2.50782 -2.6195,0.25078 -2.61951,0.25078 2.0469,1.44752 c 1.1258,0.79613 2.0469,1.50129 2.0469,1.56702 0,0.0657 -0.33053,1.07908 -0.7345,2.25189 -1.07024,3.10709 -0.96126,3.1866 1.61213,1.17608 z M 105.87266,46.057172 c 0.23877,-0.643284 0.76372,-2.30642 1.16654,-3.695857 l 0.73243,-2.52625 -3.01493,-2.197525 -3.01492,-2.197525 3.77318,-0.146087 3.77319,-0.14609 1.09745,-3.490253 c 0.60359,-1.919639 1.21933,-3.488861 1.36831,-3.48716 0.14898,0.0017 0.7152,1.525203 1.25827,3.38556 l 0.98741,3.382466 3.84439,0.250782 3.8444,0.250782 -2.99556,2.218592 c -1.64755,1.220225 -2.99554,2.252787 -2.99554,2.29458 0,0.04179 0.53774,1.69545 1.19499,3.674791 0.65725,1.97934 1.06288,3.598801 0.90141,3.598801 -0.16147,0 -1.46099,-0.902816 -2.88781,-2.006258 -1.42684,-1.103441 -2.85911,-2.006257 -3.18283,-2.006257 -0.32374,0 -1.75602,0.902816 -3.18284,2.006257 -1.42683,1.103442 -2.70841,2.006258 -2.84796,2.006258 -0.13955,0 -0.0584,-0.526323 0.18042,-1.169607 z m 8.05075,-2.885211 2.22809,1.570206 -0.71679,-2.080923 c -1.01737,-2.953624 -0.95147,-3.195917 1.33837,-4.920798 l 2.05513,-1.548084 h -2.726 -2.72599 l -0.61694,-2.25704 c -0.33932,-1.241372 -0.78002,-2.25704 -0.97933,-2.25704 -0.19932,0 -0.64002,1.015668 -0.97934,2.25704 l -0.61694,2.25704 -2.75195,0.01595 c -3.01182,0.01746 -3.03634,-0.140424 0.38041,2.44956 1.16808,0.885435 1.16983,0.901266 0.36725,3.31395 -0.44354,1.333347 -0.80643,2.510936 -0.80643,2.616866 0,0.105929 0.97253,-0.522796 2.16119,-1.397167 l 2.1612,-1.589766 z M 12.626235,43.097915 13.749,39.470617 10.506027,37.079142 7.2630554,34.687668 h 3.9980506 3.998052 l 1.100355,-3.499506 c 0.605195,-1.924729 1.223865,-3.37595 1.374821,-3.224936 0.150956,0.151014 0.732953,1.669365 1.293327,3.374115 l 1.01886,3.099546 3.870797,0.250782 3.870796,0.250782 -2.686157,1.967934 c -1.477387,1.082363 -2.844259,2.101982 -3.037494,2.265817 -0.193236,0.163837 0.0822,1.724693 0.612083,3.468571 0.529881,1.743877 0.963419,3.390696 0.963419,3.659599 0,0.268901 -1.276585,-0.42832 -2.836855,-1.549381 -1.560271,-1.12106 -3.002,-2.038292 -3.203843,-2.038292 -0.201843,0 -1.534392,0.902816 -2.961221,2.006258 -1.426829,1.103441 -2.715812,2.006257 -2.864405,2.006257 -0.148594,0 0.235074,-1.632284 0.852594,-3.627299 z m 6.71234,-0.798512 c 2.745463,2.111254 2.797333,2.094094 1.942892,-0.642734 -0.882777,-2.827585 -0.94588,-2.693663 2.385079,-5.061826 1.188885,-0.845243 1.17718,-0.85162 -1.610947,-0.877737 l -2.808532,-0.02631 -0.554848,-2.257039 c -0.305166,-1.241372 -0.720402,-2.25704 -0.922746,-2.25704 -0.202343,0 -0.645521,1.015668 -0.98484,2.25704 l -0.616942,2.257039 -2.751944,0.01669 c -2.665555,0.01616 -2.720367,0.04372 -1.746031,0.877737 0.553252,0.473578 1.524634,1.213403 2.158626,1.644055 1.147199,0.779261 1.148828,0.794678 0.340668,3.224126 -0.446623,1.342616 -0.812042,2.52779 -0.812042,2.63372 0,0.10593 0.984011,-0.531235 2.186691,-1.415921 l 2.186693,-1.608519 z M 31.78476,25.283336 c 0.180834,-0.758616 0.625731,-2.254068 0.988663,-3.323228 0.362931,-1.069159 0.659873,-2.138665 0.659873,-2.376678 0,-0.238014 -1.366188,-1.451009 -3.035973,-2.695544 L 27.36135,14.625093 h 3.929096 3.929096 l 1.17431,-3.835405 1.174311,-3.8354052 1.214918,3.8354052 1.214919,3.835405 h 3.909744 3.909744 l -3.02993,2.306286 c -1.666461,1.268457 -3.02993,2.474495 -3.02993,2.680084 0,0.205589 0.4407,1.685839 0.979333,3.289443 0.538633,1.603604 0.979333,3.125825 0.979333,3.382714 0,0.256889 -1.386182,-0.546123 -3.080405,-1.78447 l -3.080405,-2.251542 -2.880922,2.207515 c -1.584507,1.214134 -2.956897,2.207516 -3.049756,2.207516 -0.09286,0 -0.02088,-0.620686 0.159954,-1.379303 z m 3.808511,-2.883995 c 1.982856,-1.549145 2.022152,-1.548656 4.069215,0.05066 0.918389,0.717509 1.767853,1.204124 1.887698,1.081367 0.119846,-0.122757 -0.116855,-1.195047 -0.526001,-2.382866 -0.688468,-1.99874 -0.679736,-2.205806 0.117189,-2.778804 0.473599,-0.340523 1.411964,-1.08915 2.085255,-1.663614 l 1.224167,-1.044485 -2.531396,-0.01669 -2.531397,-0.01669 -0.823742,-2.540315 c -0.453058,-1.397173 -0.91619,-2.445619 -1.029183,-2.329881 -0.112994,0.115738 -0.484659,1.202454 -0.825926,2.414923 l -0.620483,2.204491 -2.674268,0.250782 -2.674269,0.250782 2.081083,1.445953 c 1.144596,0.795275 2.081083,1.500436 2.081083,1.567025 0,0.06659 -0.330525,1.080641 -0.7345,2.253448 -1.061713,3.082334 -0.992629,3.143103 1.425475,1.253911 z m 50.989308,0.484296 1.142279,-3.792253 -2.89426,-2.107755 c -1.591844,-1.159264 -2.900121,-2.267538 -2.907289,-2.462829 -0.0073,-0.195291 1.682871,-0.420995 3.755629,-0.501564 l 3.76866,-0.146489 0.977458,-3.134778 c 0.537603,-1.7241282 1.112958,-3.1347782 1.278559,-3.1347782 0.165607,0 0.740963,1.41065 1.278566,3.1347782 l 0.977457,3.134778 3.768653,0.146489 c 2.072762,0.08057 3.762799,0.306273 3.755629,0.501564 -0.007,0.195291 -1.32514,1.310723 -2.928847,2.478738 -2.613306,1.903338 -2.870469,2.245833 -2.478716,3.301255 0.240409,0.647677 0.779377,2.358174 1.197719,3.801106 l 0.760619,2.623511 -3.16554,-2.313767 -3.16554,-2.313768 -3.131658,2.289007 -3.131665,2.289007 z m 2.87401,-0.484296 c 0.882736,-0.689651 1.893893,-1.253911 2.247026,-1.253911 0.353132,0 1.364296,0.56426 2.247026,1.253911 0.882736,0.689652 1.720066,1.253912 1.860752,1.253912 0.140679,0 -0.065,-0.931193 -0.456998,-2.069318 -0.984487,-2.858128 -0.940094,-3.033065 1.129536,-4.45102 l 1.830182,-1.253911 -2.426765,-0.250782 c -2.407434,-0.248784 -2.432502,-0.269765 -3.146385,-2.633213 -0.395792,-1.310337 -0.846195,-2.381246 -1.000902,-2.379798 -0.154701,0.0014 -0.611802,1.073541 -1.015777,2.38243 -0.729006,2.36199 -0.752826,2.381675 -3.18283,2.630581 l -2.448338,0.250782 1.83019,1.253911 c 2.069622,1.417955 2.114015,1.592892 1.129536,4.45102 -0.392032,1.138125 -0.597677,2.069318 -0.456999,2.069318 0.140679,0 0.978016,-0.56426 1.860746,-1.253912 z m -30.070965,-3.3935 c 0,-0.105892 0.529922,-1.788419 1.177599,-3.738945 l 1.1776,-3.546413 -2.947216,-2.1840372 -2.947215,-2.184037 3.714171,-0.146228 3.714164,-0.146229 1.198195,-3.866286 c 0.683011,-2.20393396 1.317986,-3.54280696 1.47682,-3.11393996 0.153246,0.41379 0.675171,2.10656996 1.159834,3.76173296 l 0.881203,3.009386 3.842595,0.250783 3.842602,0.250781 -2.772695,1.951717 c -1.524983,1.0734442 -2.872786,2.1176032 -2.995119,2.3203532 -0.122333,0.20275 0.311472,1.976499 0.964011,3.941665 0.652544,1.965166 1.090013,3.573029 0.972155,3.573029 -0.117858,0 -1.55382,-1.010067 -3.191025,-2.244592 l -2.976732,-2.244592 -2.533393,1.901009 c -2.865127,2.149941 -3.757554,2.73297 -3.757554,2.454843 z M 69.402067,14.562033 C 68.38121,11.59831 68.464042,11.287566 70.721424,9.6125948 l 2.032137,-1.507839 H 70.04001 c -2.473086,0 -2.740302,-0.109158 -3.015377,-1.231791 -0.166006,-0.677484 -0.546345,-1.86243 -0.845204,-2.633212 l -0.543373,-1.401423 -0.839249,2.507822 -0.839245,2.507822 -2.589694,0.153695 -2.589695,0.153694 2.017558,1.51978 c 1.109658,0.8358792 2.017559,1.6975822 2.017559,1.9148952 0,0.217312 -0.320751,1.326306 -0.712778,2.464431 -0.392027,1.138125 -0.578091,2.069318 -0.413469,2.069318 0.16462,0 1.021542,-0.56426 1.904273,-1.253912 0.882732,-0.689651 1.800764,-1.253911 2.040074,-1.253911 0.239309,0 1.300672,0.670833 2.358587,1.49074 1.057914,0.819907 1.968792,1.497019 2.024173,1.504693 0.05538,0.0077 -0.220056,-0.917239 -0.612083,-2.055364 z"
     id="path12"
     inkscape:connector-curvature="0" />
</svg>
