<?xml version="1.0" encoding="UTF-8" standalone="no"?>
<!-- Created with Inkscape (http://www.inkscape.org/) -->

<svg
   xmlns:dc="http://purl.org/dc/elements/1.1/"
   xmlns:cc="http://creativecommons.org/ns#"
   xmlns:rdf="http://www.w3.org/1999/02/22-rdf-syntax-ns#"
   xmlns:svg="http://www.w3.org/2000/svg"
   xmlns="http://www.w3.org/2000/svg"
   xmlns:sodipodi="http://sodipodi.sourceforge.net/DTD/sodipodi-0.dtd"
   xmlns:inkscape="http://www.inkscape.org/namespaces/inkscape"
   version="1.1"
   id="svg37"
   width="130.478"
   height="130.582"
   viewBox="0 0 130.478 130.582"
   sodipodi:docname="main-section_icon-3.svg"
   inkscape:version="0.92.2 (5c3e80d, 2017-08-06)">
  <metadata
     id="metadata43">
    <rdf:RDF>
      <cc:Work
         rdf:about="">
        <dc:format>image/svg+xml</dc:format>
        <dc:type
           rdf:resource="http://purl.org/dc/dcmitype/StillImage" />
        <dc:title></dc:title>
      </cc:Work>
    </rdf:RDF>
  </metadata>
  <defs
     id="defs41" />
  <sodipodi:namedview
     pagecolor="#ffffff"
     bordercolor="#666666"
     borderopacity="1"
     objecttolerance="10"
     gridtolerance="10"
     guidetolerance="10"
     inkscape:pageopacity="0"
     inkscape:pageshadow="2"
     inkscape:window-width="1366"
     inkscape:window-height="715"
     id="namedview39"
     showgrid="false"
     fit-margin-top="0"
     fit-margin-left="0"
     fit-margin-right="0"
     fit-margin-bottom="0"
     inkscape:zoom="1.9035423"
     inkscape:cx="182.33692"
     inkscape:cy="91.512748"
     inkscape:window-x="-8"
     inkscape:window-y="-8"
     inkscape:window-maximized="1"
     inkscape:current-layer="svg37" />
  <path
     style="fill:#9a9a9a;stroke-width:1"
     d="M 56.483269,130.00013 C 12.751189,123.69494 -12.360361,77.481129 6.1599999,37.388172 11.848414,25.073871 22.918547,13.558763 35.136047,7.2474022 c 9.02825,-4.663846 17.476416,-6.82717498 28.077584,-7.18985098 8.431155,-0.288438 14.225216,0.481427 21.8048,2.89723398 21.849949,6.964138 37.895019,24.1660968 43.759529,46.9147118 1.76503,6.846592 2.23063,18.219542 1.042,25.451962 -1.58586,9.64928 -5.74954,19.88825 -11.30736,27.806051 -3.57318,5.09044 -11.27211,12.60818 -16.46558,16.07808 -13.380553,8.93992 -30.423123,12.97749 -45.563751,10.79454 z m 21.095315,-1.69846 c 22.213584,-4.23932 41.465066,-21.14445 48.658836,-42.728301 5.25482,-15.76637 3.99863,-34.279013 -3.30902,-48.76572 -3.36767,-6.676067 -6.72367,-11.315787 -12.10369,-16.7335 C 101.50735,10.691502 90.719991,4.8344422 77.671448,2.0733832 71.744545,0.81925722 58.633226,0.83238122 52.764365,2.0983142 30.304253,6.9430352 12.302919,22.515115 4.7049636,43.672169 1.0402125,53.876932 0.10205158,67.610979 2.3467232,78.195229 6.445478,97.522009 19.135304,113.9311 36.904213,122.88118 c 5.969284,3.00668 14.043039,5.30845 22.321056,6.36354 3.249902,0.41423 14.185718,-0.14768 18.353315,-0.94305 z m -18.353315,-3.49598 c -0.4113,-0.0806 -2.430409,-0.41893 -4.486909,-0.75183 C 43.176776,122.18225 31.904196,116.25828 23.047218,107.39952 14.413794,98.764359 9.1724855,89.016179 6.5406229,76.699299 5.3493031,71.124029 5.3583061,58.670709 6.5575086,53.343919 11.423829,31.727989 26.456854,14.859582 46.632597,8.3760672 71.555204,0.36714122 97.947532,8.8349512 113.54602,29.844807 c 12.79259,17.230565 15.11713,40.542862 6.03936,60.567472 -5.29827,11.687431 -16.78947,23.261791 -28.684687,28.892231 -7.84663,3.7141 -17.445346,5.80401 -26.191425,5.70263 -2.604899,-0.0302 -5.072699,-0.12085 -5.483999,-0.20145 z m 12.975255,-1.26002 c 13.642025,-1.69521 24.845005,-7.22586 34.665826,-17.11372 9.1402,-9.202601 14.39438,-19.371711 16.39994,-31.740931 5.2131,-32.151628 -16.93854,-62.734466 -48.933363,-67.5580318 -6.878295,-1.036978 -8.626569,-0.991578 -8.626569,0.224018 0,1.015396 0.189302,1.0632 7.103668,1.793878 4.431741,0.468326 11.552741,2.5413788 16.180411,4.7104138 16.590613,7.776187 28.380393,22.847688 31.870703,40.742021 1.04394,5.352141 1.15335,14.919861 0.22987,20.101391 -3.9564,22.19881 -19.78981,39.243201 -42.251126,45.482631 -3.373587,0.93713 -5.210871,1.08832 -13.382799,1.10125 -8.366702,0.0132 -9.966998,-0.11936 -13.709997,-1.13595 C 34.698722,115.5223 22.106626,105.28272 14.560485,89.913409 10.822132,82.299459 9.3274035,76.294069 9.0006952,67.575759 8.8381854,63.239149 8.9711639,59.276229 9.3604496,56.854879 11.942065,40.797145 20.639822,27.058486 33.796057,18.25729 c 2.058369,-1.376997 3.720054,-2.703075 3.692634,-2.94684 -0.222509,-1.9781 -0.355909,-1.946958 -5.017069,1.171243 -13.019121,8.70947 -22.397348,23.174575 -25.1397179,38.775846 -0.9269765,5.27354 -0.8092378,15.73627 0.2377665,21.12881 4.0473274,20.84556 19.8459594,38.579211 39.9397814,44.831611 3.42922,1.06704 6.726564,1.75227 12.214361,2.53833 2.695695,0.38613 8.457155,0.28886 12.476711,-0.21062 z m -7.392674,-5.58345 c 0.08288,-1.43983 0.36483,-2.61788 0.626556,-2.61788 0.261727,0 0.4115,1.21296 0.332829,2.69546 l -0.143032,2.69548 4.409464,-0.31305 c 8.230188,-0.58432 17.01429,-3.46786 24.59484,-8.07373 l 2.947494,-1.79086 -1.773046,-2.46845 c -1.080425,-1.50418 -1.51134,-2.46429 -1.103099,-2.4578 0.368472,0.006 1.30145,0.90342 2.073281,1.99458 0.77183,1.09117 1.571083,1.98394 1.776105,1.98394 0.836868,0 8.083198,-7.17916 10.671218,-10.572321 2.9495,-3.86707 6.1199,-9.44964 7.78224,-13.70323 l 1.01002,-2.58445 -2.223,-0.84915 c -1.22266,-0.46702 -2.223,-1.04305 -2.223,-1.28004 0,-0.61607 0.62013,-0.53755 2.73499,0.34628 1.02283,0.42744 1.95999,0.67685 2.0826,0.55422 0.1226,-0.12262 0.65626,-2.32358 1.18592,-4.891 1.31439,-6.37126 1.31439,-16.42828 0,-22.799537 -0.52966,-2.567426 -1.07827,-4.783322 -1.21912,-4.924213 -0.14087,-0.140892 -1.16735,0.10851 -2.28107,0.554222 -2.37892,0.952045 -2.50332,0.967338 -2.50332,0.307705 0,-0.276474 0.89738,-0.861815 1.99417,-1.300755 1.24056,-0.49647 1.99419,-1.12107 1.99419,-1.652753 0,-1.255927 -4.14448,-9.557609 -6.51322,-13.046439 -2.31175,-3.404888 -7.61524,-9.185939 -10.58619,-11.539448 l -1.977979,-1.566905 -1.886835,2.213165 c -2.300131,2.697953 -3.210465,2.29881 -1.031877,-0.452436 0.855654,-1.080569 1.555335,-2.156773 1.554841,-2.391561 C 97.11172,19.015026 88.36037,14.398316 82.906174,12.536103 78.692893,11.097574 72.037729,9.8807872 68.383053,9.8807872 h -2.676695 v 2.4932278 c 0,1.371275 -0.224346,2.493228 -0.498545,2.493228 -0.2742,0 -0.498546,-1.155796 -0.498546,-2.568436 V 9.7303722 l -4.611545,0.3146668 c -2.536349,0.173067 -6.742825,0.886987 -9.347724,1.586488 -4.928849,1.323559 -13.635367,5.294919 -16.17495,7.377984 l -1.467862,1.203997 1.652599,2.086995 c 2.254099,2.846604 1.421859,3.33927 -0.947059,0.560636 l -1.89887,-2.227289 -3.385802,2.973168 c -5.825455,5.115494 -11.610688,13.167834 -14.408689,20.055142 -0.692348,1.704221 -1.258815,3.283107 -1.258815,3.508634 0,0.225527 1.138158,0.819407 2.529238,1.319733 1.516065,0.545279 2.347828,1.091131 2.076375,1.362638 -0.271453,0.271508 -1.372964,0.05847 -2.749761,-0.53181 l -2.296899,-0.984764 -0.514972,1.590554 c -1.374886,4.246491 -2.1397347,11.203644 -1.901679,17.297884 0.222546,5.69722 1.451309,13.15532 2.322459,14.0964 0.195324,0.211 1.321247,0.0427 2.502049,-0.37399 2.434849,-0.85923 3.018644,-0.92837 3.018644,-0.35748 0,0.22007 -1.121727,0.80359 -2.492727,1.29669 -1.371,0.4931 -2.492727,1.10517 -2.492727,1.36015 0,0.92258 2.646715,6.74193 4.559175,10.02428 2.75663,4.73122 7.43422,10.392261 11.290832,13.664711 l 3.289697,2.79142 0.95729,-1.18061 c 0.52651,-0.64932 1.250118,-1.59789 1.608019,-2.10792 0.357901,-0.51003 0.899827,-0.84426 1.204279,-0.74276 0.319931,0.10666 -0.124414,1.10662 -1.052856,2.36937 l -1.606406,2.18481 1.451084,1.15729 c 2.021835,1.61247 9.780368,5.34992 13.862189,6.67771 4.302652,1.39961 9.727065,2.39194 13.392725,2.45001 l 2.840581,0.045 z m -2.691173,-5.62985 c -0.391478,-0.85938 -0.424467,-1.7012 -0.102586,-2.61789 0.434931,-1.23866 0.709241,-1.35795 3.293859,-1.43239 3.877687,-0.11167 4.643023,0.51873 3.914609,3.2244 -0.500679,1.85977 -0.727627,2.09258 -2.039779,2.09258 -0.815964,0 -1.476422,-0.26767 -1.476422,-0.59837 0,-0.46541 -0.132947,-0.46541 -0.598255,0 -0.988555,0.98875 -2.377966,0.67834 -2.991426,-0.66833 z m 2.510161,-1.79232 c -0.09176,-0.6487 -0.388118,-1.17946 -0.658559,-1.17946 -0.620813,0 -0.936597,1.54906 -0.531195,2.60573 0.450506,1.17424 1.397099,0.0394 1.189754,-1.42627 z m 3.229681,-0.97359 c -0.661978,-0.66211 -1.395583,0.24485 -0.876951,1.08419 0.241207,0.39036 0.486665,0.39036 0.876951,0 0.390281,-0.39036 0.390281,-0.69383 0,-1.08419 z m 22.160037,-3.98224 c -2.162533,-1.26016 -2.076205,-4.45128 0.120421,-4.45128 0.651977,0 0.871036,-0.24205 0.67694,-0.74797 -0.162853,-0.424461 -0.01129,-0.747971 0.350293,-0.747971 0.350502,0 1.032549,-0.3578 1.51567,-0.79511 0.823116,-0.74506 0.927451,-0.62988 1.65783,1.830061 0.86014,2.89697 0.73598,3.44432 -0.54483,2.40196 -0.754982,-0.61442 -0.81397,-0.58974 -0.51239,0.21439 0.771554,2.0572 -1.242448,3.47389 -3.263934,2.29592 z m 2.112705,-1.72062 c 0,-0.38554 -0.452018,-0.94296 -1.004491,-1.23869 -1.387136,-0.74253 -2.048633,0.8541 -0.747975,1.80535 1.006802,0.73634 1.752466,0.49523 1.752466,-0.56666 z m -53.743188,1.15877 c -0.32904,-0.32911 -0.598255,-0.87448 -0.598255,-1.21193 0,-0.33746 -0.481865,-0.68527 -1.070812,-0.77291 -1.824231,-0.27145 -2.296903,-1.66034 -1.108743,-3.257911 1.252271,-1.68376 2.843049,-2.01688 3.751689,-0.78564 1.011279,1.370331 3.364651,2.726541 4.023994,2.318961 0.770589,-0.47634 -1.600693,2.88696 -2.586552,3.66864 -0.98132,0.77808 -1.662661,0.7896 -2.411321,0.0408 z m 2.891562,-2.92158 c 0,-0.25806 -0.336518,-0.46921 -0.747818,-0.46921 -0.770955,0 -0.990462,0.58838 -0.429008,1.14995 0.398304,0.39839 1.176826,-0.052 1.176826,-0.68074 z m -3.244105,-0.7862 c 0.542053,-0.54217 0.648809,-0.98236 0.318394,-1.31284 -0.747136,-0.747281 -2.059742,-0.0364 -2.059742,1.11554 0,1.22426 0.641882,1.29697 1.741348,0.1973 z m 19.945375,-1.419331 c -9.670683,-2.13294 -18.121752,-8.1339 -23.115188,-16.41369 -0.922755,-1.53006 -2.375524,-4.74786 -3.228376,-7.15067 -1.448304,-4.08042 -1.54948,-4.813 -1.533071,-11.10045 0.01549,-5.93282 0.175232,-7.20514 1.346076,-10.720881 1.907917,-5.728992 4.527782,-9.904207 9.081471,-14.472922 5.694956,-5.713747 12.931564,-9.246232 20.538648,-10.025757 2.857672,-0.292836 3.282702,-0.477165 3.755074,-1.628521 l 0.532666,-1.298308 0.497643,1.306015 c 0.444498,1.166542 0.833049,1.337341 3.638369,1.599359 12.774087,1.193102 25.105479,11.202585 29.34732,23.821432 1.686823,5.018063 2.259543,13.032753 1.288383,18.030103 -3.230661,16.62443 -18.198815,28.914761 -35.018525,28.753671 -2.276568,-0.0218 -5.48529,-0.33652 -7.13049,-0.699381 z m 14.040049,-0.99518 c 2.459161,-0.46376 5.577772,-1.56135 8.413453,-2.9611 C 99.1189,86.714929 105.41783,63.005769 93.714478,45.94534 88.227618,37.946933 79.176985,32.315226 69.819357,31.07673 c -2.971988,-0.393347 -3.028404,-0.297332 -1.677485,2.854872 0.885521,2.066253 1.103206,2.229649 3.763878,2.825201 7.971948,1.784403 15.605346,7.817346 19.251482,15.215128 5.899544,11.969788 3.88754,24.425958 -5.452244,33.754468 -8.025703,8.01602 -19.120636,10.66765 -29.566767,7.06629 -12.284359,-4.23509 -19.846039,-14.73677 -19.846039,-27.56224 0,-8.28534 2.572456,-14.50785 8.475271,-20.500834 4.099426,-4.162044 8.753086,-6.795315 14.042976,-7.946211 2.713672,-0.590401 2.861914,-0.705807 3.73909,-2.910819 0.502359,-1.262825 0.988166,-2.465389 1.079565,-2.672364 0.641214,-1.452029 -8.476737,0.769195 -13.626904,3.31965 -7.231631,3.581233 -12.814181,9.398698 -16.145709,16.825128 -2.202907,4.91058 -2.804049,8.05884 -2.746558,14.3841 0.04304,4.73503 0.278864,6.42965 1.353159,9.72358 3.067834,9.40642 9.129363,16.35912 18.037652,20.68956 6.804447,3.30774 13.828642,4.207981 21.51823,2.75784 z m 0.345806,-6.53543 c 4.696798,-1.21121 8.690625,-3.56565 12.59081,-7.42254 5.547322,-5.48573 8.260256,-11.84069 8.295157,-19.43111 0.02423,-5.26785 -0.777357,-8.59769 -3.20639,-13.31952 C 86.59985,45.4957 80.219653,40.306899 72.720143,38.102307 69.25303,37.083098 61.84985,37.066758 57.999619,38.069817 c -4.668383,1.216205 -8.67131,3.609811 -12.562958,7.512198 -8.733278,8.757377 -10.660264,21.266994 -5.023751,32.613214 3.201844,6.44527 10.857808,12.5252 17.928567,14.23785 3.708824,0.89834 10.401052,0.86568 14.023283,-0.0684 z M 67.165022,35.187051 c -0.02034,-0.342819 -0.442858,-1.520869 -0.93894,-2.61789 l -0.901964,-1.994582 -1.055241,2.409907 c -0.580387,1.325449 -1.055246,2.503499 -1.055246,2.617889 0,0.114391 0.897382,0.207983 1.994182,0.207983 1.282702,0 1.980989,-0.222383 1.957209,-0.623307 z M 19.497539,80.069619 c -0.993594,-2.83679 -1.020833,-3.18853 -0.307934,-3.97644 1.779272,-1.96646 4.638943,-1.41348 4.638943,0.89705 0,0.93689 -0.408913,1.43091 -1.620272,1.95753 l -1.620273,0.70437 2.368091,0.0195 c 2.334258,0.0192 3.1191,0.62186 1.579498,1.21278 -0.433727,0.16647 -1.331109,0.30267 -1.994182,0.30267 -0.873225,2e-5 -1.205589,0.27496 -1.205589,0.99731 0,1.86356 -0.745073,1.00641 -1.838282,-2.11478 z m 2.735664,-2.47276 c 0.978099,-0.9783 0.686892,-1.47268 -0.768483,-1.30467 -1.593945,0.18401 -2.283807,1.90304 -0.763709,1.90304 0.513666,0 1.203152,-0.26926 1.532192,-0.59837 z m 85.178967,3.67564 c -1.09168,-1.20651 -1.04424,-2.43328 0.12226,-3.16191 0.52103,-0.32547 0.83034,-0.8967 0.68735,-1.26942 -0.39376,-1.02632 1.24814,-2.5701 2.41018,-2.26616 0.56485,0.14774 0.88771,0.54555 0.74489,0.91781 -0.14971,0.3902 0.009,0.55689 0.39047,0.41042 1.08786,-0.41754 1.95497,1.0695 1.31791,2.26012 -0.30289,0.56604 -0.78583,1.02916 -1.07324,1.02916 -0.2874,0 -0.422,0.28049 -0.2991,0.62332 0.74866,2.08835 -2.6788,3.24924 -4.30072,1.45666 z m 3.16327,-0.81582 c 0,-1.07924 -1.94821,-2.01056 -2.67089,-1.27678 -0.42836,0.43494 -0.32962,0.75561 0.39809,1.29281 1.24656,0.92022 2.2728,0.91299 2.2728,-0.016 z m 1.2983,-3.62234 c -0.16567,-0.16569 -0.28349,0.12883 -0.26185,0.65448 0.0239,0.5809 0.14205,0.69905 0.30121,0.30126 0.14401,-0.35996 0.1263,-0.79003 -0.0393,-0.95574 z m -1.423,-0.92464 c -0.47509,-0.47518 -1.42759,0.29451 -1.07353,0.8675 0.21046,0.34058 0.48931,0.33198 0.84736,-0.0261 0.29352,-0.29358 0.39529,-0.67219 0.22617,-0.84135 z M 19.689308,54.978454 c -2.128854,-1.446885 -2.224367,-1.833005 -0.804668,-3.252989 0.57125,-0.571368 0.915661,-1.161844 0.765358,-1.31218 -0.659766,-0.659899 0.808725,-2.136787 2.124641,-2.136787 2.422063,0 3.940527,2.630016 2.303182,3.989165 -0.4113,0.341417 -0.747818,1.007284 -0.747818,1.479711 0,0.472422 -0.404413,1.225013 -0.898695,1.672425 -0.83625,0.75694 -1.026775,0.72641 -2.742,-0.439345 z m 2.550126,-1.185689 c 0.124637,-0.373984 -0.06231,-0.560976 -0.436227,-0.436314 -0.359887,0.119983 -0.752491,0.512672 -0.872454,0.872629 -0.124636,0.373984 0.06232,0.560976 0.436228,0.436315 0.359887,-0.119984 0.752491,-0.512672 0.872453,-0.87263 z m -2.59659,-1.392054 c -0.165662,-0.165695 -0.283492,0.12882 -0.261845,0.654473 0.02392,0.580897 0.142056,0.699051 0.301204,0.301267 0.144015,-0.359958 0.126304,-0.79004 -0.03936,-0.95574 z m 3.704694,-2.35782 c -0.785903,-0.947145 -2.510262,-1.014006 -2.510262,-0.09733 0,0.85047 2.092746,1.850449 2.695943,1.288201 0.267874,-0.249687 0.192116,-0.735563 -0.185681,-1.190871 z m 84.834892,5.114917 c -0.32904,-0.329107 -0.59826,-0.842637 -0.59826,-1.141181 0,-0.298544 -0.44782,-1.421359 -0.99517,-2.495152 -1.22027,-2.39398 -0.68537,-3.12544 1.47023,-2.01051 0.87269,0.451379 1.85194,0.709967 2.1761,0.574639 0.32608,-0.13613 0.0883,-0.398402 -0.53234,-0.58709 -1.291,-0.392502 -1.46472,-1.121672 -0.36756,-1.542775 1.12705,-0.432577 2.35153,0.828864 2.09705,2.160352 -0.12112,0.633754 -0.0349,1.152281 0.19164,1.152281 0.22653,0 0.65281,0.450282 0.94729,1.000627 0.4388,0.820078 0.31113,1.224958 -0.70762,2.243905 -1.34759,1.347865 -2.73546,1.590995 -3.68136,0.644904 z m 3.29775,-2.019515 c 0.19404,-1.023361 -1.3658,-1.209306 -2.30067,-0.274255 -0.9781,0.978297 -0.68689,1.472685 0.76848,1.304666 0.82432,-0.09516 1.4324,-0.504101 1.53219,-1.030411 z m -2.40037,-1.567248 c 0,-0.107788 -0.33652,-0.325132 -0.74782,-0.482999 -0.4113,-0.157861 -0.74782,-0.06967 -0.74782,0.195973 0,0.265649 0.33652,0.482999 0.74782,0.482999 0.4113,0 0.74782,-0.08819 0.74782,-0.195973 z M 35.568718,30.459521 C 34.869823,29.705643 34.298,28.738735 34.298,28.310837 c 0,-0.997968 0.976393,-1.974746 1.973967,-1.974746 0.427603,0 1.057671,-0.448781 1.400152,-0.997291 1.081063,-1.731404 3.430222,-0.898837 4.220914,1.495937 0.364299,1.103356 -0.514641,2.493228 -1.57669,2.493228 -0.509416,0 -1.049714,0.321908 -1.200662,0.71535 -0.150947,0.393442 -0.724854,0.956447 -1.275347,1.251122 -0.831018,0.444836 -1.216574,0.303128 -2.271616,-0.834916 z m 1.222009,-2.158276 c 0,-0.258069 -0.336518,-0.469217 -0.747818,-0.469217 -0.770956,0 -0.990462,0.588384 -0.429008,1.149951 0.398303,0.398383 1.176826,-0.05195 1.176826,-0.680734 z M 40.77909,27.39444 c 0,-1.123002 -1.243512,-2.270349 -1.972343,-1.819816 -0.729861,0.45117 -0.648581,1.060655 0.263045,1.972464 1.047884,1.048095 1.709298,0.989028 1.709298,-0.152648 z m 50.637964,3.643167 c -0.430885,-0.430972 -0.783429,-1.0067 -0.783429,-1.279396 0,-1.018104 1.098171,-2.494648 2.151405,-2.892678 2.693768,-1.018 3.887054,2.060233 1.520449,3.922178 -1.576101,1.240013 -1.872835,1.265686 -2.888425,0.249896 z m 2.884596,-1.810386 c 0.293885,-0.466792 0.36326,-1.019832 0.154155,-1.228978 -0.531878,-0.531985 -2.042575,0.512116 -2.247178,1.553113 -0.218729,1.112819 1.340329,0.871375 2.093023,-0.324135 z M 89.028082,29.05504 c -0.197551,-0.199359 0.09707,-1.003342 0.654707,-1.786629 0.557641,-0.783288 0.883869,-1.634576 0.724958,-1.891752 -0.416804,-0.674531 0.29476,-0.924285 1.646381,-0.577876 1.159522,0.297177 1.152059,0.321742 -0.747818,2.459452 -1.055478,1.187601 -2.080677,1.996163 -2.278228,1.796805 z M 43.131374,13.16417 c 4.418237,-1.829952 10.871851,-3.6275828 14.354046,-3.9982688 7.071861,-0.752811 7.223847,-0.79087 7.223847,-1.808896 0,-0.786445 -0.348662,-0.964896 -1.869545,-0.95686 -5.496986,0.02904 -14.18582,2.022713 -20.697398,4.7490608 -3.969732,1.662097 -4.294454,1.901247 -3.810255,2.806164 0.29112,0.544073 0.792535,0.877528 1.114256,0.741013 0.321721,-0.136515 1.979993,-0.82601 3.685049,-1.532213 z"
     id="path47"
     inkscape:connector-curvature="0" />
</svg>
