<svg xmlns="http://www.w3.org/2000/svg" viewBox="0 0 44.1 44.98"><defs><style>.cls-1{fill:none;stroke:#000;stroke-miterlimit:10;}</style></defs><title>Ресурс 48</title><g id="Слой_2" data-name="Слой 2"><g id="Content"><g id="Слой_8" data-name="Слой 8"><path class="cls-1" d="M26.1,28.2a43.29,43.29,0,0,1,17.13-3.52h.3"/><path class="cls-1" d="M9.69,40.58a43.44,43.44,0,0,1,13.89-11.2"/><path class="cls-1" d="M13.76,42.82A41.7,41.7,0,0,1,42.6,29.43"/><path class="cls-1" d="M19.18,44.29a39.28,39.28,0,0,1,21.07-9.83"/><path class="cls-1" d="M14.13,26.09A43.21,43.21,0,0,0,.79,24H.5"/><path class="cls-1" d="M9.69,29.62a41.71,41.71,0,0,0-8.43-1.24"/><path class="cls-1" d="M5.76,33.4c-.93-.2-1.88-.36-2.84-.5"/><path class="cls-1" d="M5.78,37.06A50.66,50.66,0,0,1,43.36,19.7h0a21.73,21.73,0,0,1-.73,9.64A22.72,22.72,0,0,1,33.1,41.43"/><path class="cls-1" d="M30.88,42.59A21.55,21.55,0,0,1,.76,19.6h.1a50.64,50.64,0,0,1,18.06,3.56"/><line class="cls-1" x1="31.65" y1="21.21" x2="31.65" y2="15.07"/><line class="cls-1" x1="34.9" y1="20.48" x2="34.9" y2="17.01"/><line class="cls-1" x1="38.21" y1="20.02" x2="38.21" y2="15.1"/><polyline class="cls-1" points="29.79 16.01 34.9 13.43 40.01 16.01"/><circle class="cls-1" cx="12.07" cy="5.7" r="5.2"/></g></g></g></svg>