<svg xmlns="http://www.w3.org/2000/svg" viewBox="0 0 47.45 51.39"><defs><style>.cls-1{fill:none;stroke:#fff;stroke-miterlimit:10;}</style></defs><title>Ресурс 51</title><g id="Слой_2" data-name="Слой 2"><g id="Content"><g id="Слой_8" data-name="Слой 8"><polygon class="cls-1" points="26.54 50.89 16.31 50.89 16.31 0.89 26.54 7.11 26.54 50.89"/><line class="cls-1" x1="18.49" y1="44.31" x2="24.27" y2="44.7"/><line class="cls-1" x1="18.49" y1="34.78" x2="24.27" y2="35.95"/><line class="cls-1" x1="18.49" y1="25.24" x2="24.27" y2="27.19"/><line class="cls-1" x1="18.49" y1="15.71" x2="24.27" y2="18.43"/><line class="cls-1" x1="18.49" y1="6.17" x2="24.27" y2="9.67"/><polygon class="cls-1" points="9.84 50.89 16.31 50.89 16.31 0.89 9.84 2.01 9.84 50.89"/><polygon class="cls-1" points="38.69 50.89 31.25 50.89 31.25 14.5 38.69 19.03 38.69 50.89"/><line class="cls-1" x1="32.83" y1="49.57" x2="37.04" y2="49.57"/><line class="cls-1" x1="32.83" y1="41.77" x2="37.04" y2="42.4"/><line class="cls-1" x1="32.83" y1="33.96" x2="37.04" y2="35.23"/><line class="cls-1" x1="32.83" y1="26.15" x2="37.04" y2="28.06"/><line class="cls-1" x1="32.83" y1="18.35" x2="37.04" y2="20.89"/><polygon class="cls-1" points="26.54 50.89 31.25 50.89 31.25 14.5 26.54 15.32 26.54 50.89"/><line class="cls-1" y1="50.89" x2="47.45" y2="50.89"/><line class="cls-1" x1="5.22" y1="50.89" x2="5.22" y2="47.28"/><path class="cls-1" d="M6.81,43.67a2,2,0,0,0,.42-1.21,2,2,0,0,0-4,0,2,2,0,0,0,.42,1.21,2.56,2.56,0,1,0,3.17,0Z"/><line class="cls-1" x1="43.72" y1="50.89" x2="43.72" y2="47.28"/><path class="cls-1" d="M45.3,43.67a2,2,0,0,0,.42-1.21,2,2,0,0,0-4,0,2,2,0,0,0,.41,1.21,2.57,2.57,0,1,0,3.17,0Z"/></g></g></g></svg>