<svg xmlns="http://www.w3.org/2000/svg" viewBox="0 0 62.64 50.77"><defs><style>.cls-1{fill:none;stroke:#fff;stroke-miterlimit:10;stroke-width:0.75px;}</style></defs><title>Ресурс 50</title><g id="Слой_2" data-name="Слой 2"><g id="Content"><g id="Слой_8" data-name="Слой 8"><polyline class="cls-1" points="21.82 2.69 28.33 0.39 38.27 2.88"/><polyline class="cls-1" points="21.82 7.46 28.33 5.39 38.27 7.63"/><polyline class="cls-1" points="21.82 12.23 28.33 10.39 38.27 12.38"/><polyline class="cls-1" points="21.82 17 28.33 15.39 38.27 17.13"/><polyline class="cls-1" points="21.82 21.77 28.33 20.39 38.27 21.88"/><polyline class="cls-1" points="21.82 26.54 28.33 25.39 38.27 26.64"/><polyline class="cls-1" points="21.82 31.31 28.33 30.39 38.27 31.39"/><polyline class="cls-1" points="21.82 36.08 28.33 35.39 38.27 36.14"/><polyline class="cls-1" points="21.82 40.85 28.33 40.39 38.27 40.89"/><polyline class="cls-1" points="21.82 45.62 28.33 45.39 38.27 45.64"/><polyline class="cls-1" points="21.82 50.39 28.33 50.39 38.27 50.39"/><polyline class="cls-1" points="41.42 11.65 46.7 9.79 52.96 11.81"/><polyline class="cls-1" points="41.42 15.53 46.7 13.85 52.96 15.67"/><polyline class="cls-1" points="41.42 19.4 46.7 17.91 52.96 19.53"/><polyline class="cls-1" points="41.42 23.28 46.7 21.97 52.96 23.39"/><polyline class="cls-1" points="41.42 27.15 46.7 26.03 52.96 27.24"/><polyline class="cls-1" points="41.42 31.02 46.7 30.09 52.96 31.1"/><polyline class="cls-1" points="41.42 34.9 46.7 34.15 52.96 34.96"/><polyline class="cls-1" points="41.42 38.77 46.7 38.21 52.96 38.82"/><polyline class="cls-1" points="41.42 42.64 46.7 42.27 52.96 42.67"/><polyline class="cls-1" points="41.42 46.52 46.7 46.33 52.96 46.53"/><polyline class="cls-1" points="41.42 50.39 46.7 50.39 52.96 50.39"/><polyline class="cls-1" points="7.72 16.34 12.36 14.7 18.54 16.47"/><polyline class="cls-1" points="7.72 19.74 12.36 18.27 18.54 19.86"/><polyline class="cls-1" points="7.72 23.15 12.36 21.83 18.54 23.25"/><polyline class="cls-1" points="7.72 26.55 12.36 25.4 18.54 26.65"/><polyline class="cls-1" points="7.72 29.96 12.36 28.97 18.54 30.04"/><polyline class="cls-1" points="7.72 33.36 12.36 32.54 18.54 33.43"/><polyline class="cls-1" points="7.72 36.77 12.36 36.11 18.54 36.82"/><polyline class="cls-1" points="7.72 40.17 12.36 39.68 18.54 40.22"/><polyline class="cls-1" points="7.72 43.58 12.36 43.25 18.54 43.61"/><polyline class="cls-1" points="7.72 46.99 12.36 46.82 18.54 47"/><polyline class="cls-1" points="7.72 50.39 12.36 50.39 18.54 50.39"/><line class="cls-1" y1="50.39" x2="62.64" y2="50.39"/></g></g></g></svg>