<svg xmlns="http://www.w3.org/2000/svg" viewBox="0 0 56.55 45.18"><defs><style>.cls-1{fill:none;stroke:#fff;stroke-linecap:round;stroke-miterlimit:10;}</style></defs><title>Ресурс 53</title><g id="Слой_2" data-name="Слой 2"><g id="Content"><g id="Слой_8" data-name="Слой 8"><polyline class="cls-1" points="41.47 30.69 28.35 17.57 15.23 30.69"/><path class="cls-1" d="M18,31v8.77a4.89,4.89,0,0,0,4.9,4.89h2.27V34.89h6.28v9.79h2.27a4.89,4.89,0,0,0,4.9-4.89V30.91"/><polyline class="cls-1" points="26.74 13.83 13.62 0.71 0.5 13.83"/><line class="cls-1" x1="23.93" y1="11.02" x2="23.93" y2="2.58"/><path class="cls-1" d="M3.31,13.78v8.77a4.89,4.89,0,0,0,4.9,4.89h2.27V17.65h6.29v8.16"/><polyline class="cls-1" points="29.8 13.83 42.92 0.71 56.05 13.83"/><line class="cls-1" x1="53.23" y1="11.02" x2="53.23" y2="2.58"/><path class="cls-1" d="M53.23,13.78v8.77a4.89,4.89,0,0,1-4.89,4.89H46.07V17.65H39.78v8.16"/></g></g></g></svg>