<?xml version="1.0" encoding="UTF-8" standalone="no"?>
<!-- Created with Inkscape (http://www.inkscape.org/) -->

<svg
   xmlns:dc="http://purl.org/dc/elements/1.1/"
   xmlns:cc="http://creativecommons.org/ns#"
   xmlns:rdf="http://www.w3.org/1999/02/22-rdf-syntax-ns#"
   xmlns:svg="http://www.w3.org/2000/svg"
   xmlns="http://www.w3.org/2000/svg"
   xmlns:sodipodi="http://sodipodi.sourceforge.net/DTD/sodipodi-0.dtd"
   xmlns:inkscape="http://www.inkscape.org/namespaces/inkscape"
   version="1.1"
   id="svg2"
   width="192.98799"
   height="170.036"
   viewBox="0 0 192.98799 170.036"
   sodipodi:docname="services-section-4.svg"
   inkscape:version="0.92.2 (5c3e80d, 2017-08-06)">
  <metadata
     id="metadata8">
    <rdf:RDF>
      <cc:Work
         rdf:about="">
        <dc:format>image/svg+xml</dc:format>
        <dc:type
           rdf:resource="http://purl.org/dc/dcmitype/StillImage" />
        <dc:title></dc:title>
      </cc:Work>
    </rdf:RDF>
  </metadata>
  <defs
     id="defs6" />
  <sodipodi:namedview
     pagecolor="#ffffff"
     bordercolor="#666666"
     borderopacity="1"
     objecttolerance="10"
     gridtolerance="10"
     guidetolerance="10"
     inkscape:pageopacity="0"
     inkscape:pageshadow="2"
     inkscape:window-width="1366"
     inkscape:window-height="715"
     id="namedview4"
     showgrid="false"
     inkscape:snap-text-baseline="false"
     inkscape:zoom="1.3567252"
     inkscape:cx="223.23789"
     inkscape:cy="146.47675"
     inkscape:window-x="-8"
     inkscape:window-y="-8"
     inkscape:window-maximized="1"
     inkscape:current-layer="svg2"
     fit-margin-top="0"
     fit-margin-left="0"
     fit-margin-right="0"
     fit-margin-bottom="0" />
  <path
     style="fill:#63a94f;fill-opacity:0.94117647;stroke-width:0.99999994"
     d="m 72.049196,155.98399 -24.117236,-14.00763 -0.0073,-28.48602 -0.0073,-28.486042 13.200303,-8.46537 c 7.26017,-4.65595 13.508245,-8.46537 13.884622,-8.46537 1.859318,0 -0.346789,1.67302 -11.879569,9.00899 -6.889607,4.38246 -12.820547,8.32218 -13.179868,8.75495 -0.390766,0.47063 -0.58029,11.75069 -0.47161,28.069202 l 0.1817,27.28236 23.728872,13.73776 23.728873,13.73778 23.303377,-13.69108 23.30338,-13.69108 0.002,-27.82738 0.002,-27.827392 -12.82717,-8.52241 c -7.05494,-4.68732 -12.66883,-8.7785 -12.4753,-9.0915 0.32165,-0.5202 8.82818,4.73024 21.65776,13.36768 l 5.03317,3.38857 v 28.708522 28.70853 l -23.69432,13.94659 c -13.03189,7.67063 -24.044143,13.92665 -24.471665,13.90228 -0.427528,-0.0243 -11.630081,-6.34774 -24.894563,-14.05194 z M 13.02454,94.041168 0,85.428788 0.1812624,56.882098 0.3625241,28.335408 24.428595,14.167704 48.494665,0 72.537754,13.933179 c 13.223696,7.663248 24.262251,13.820149 24.53012,13.681989 0.267862,-0.13815 10.989476,-6.403315 23.825826,-13.922585 l 23.33882,-13.671398 24.37764,14.075899 24.37766,14.075904 8e-5,28.7978 9e-5,28.79781 -13.2763,8.48112 c -7.30197,4.66461 -13.58116,8.292792 -13.95374,8.062622 -0.65486,-0.40454 1.29724,-1.75902 18.07345,-12.540372 l 7.80761,-5.01761 -0.18145,-27.8714 -0.18144,-27.8714 -23.18114,-13.430342 C 155.34534,8.194527 144.61839,2.150871 144.25729,2.150871 c -0.36107,0 -11.09494,6.130579 -23.85301,13.62351 L 97.207782,29.397888 v 27.56189 27.56189 l 12.843278,8.53312 c 11.27525,7.491322 14.1112,9.714922 12.39025,9.714922 -0.24916,0 -6.15006,-3.764062 -13.1131,-8.364572 l -12.660068,-8.36457 -13.023674,8.4003 c -7.163029,4.62016 -13.273777,8.150022 -13.579447,7.844122 -0.30567,-0.30588 5.285904,-4.313342 12.425711,-8.905432 l 12.981472,-8.34928 V 56.995188 28.960098 L 72.269545,15.527598 C 59.508083,8.139726 48.657834,2.185717 48.157881,2.296468 47.657928,2.407218 37.102912,8.430874 24.702289,15.682369 l -22.5465871,13.184539 -0.022028,28.10388 -0.022028,28.10388 12.4893921,8.19292 c 10.804541,7.087662 14.090832,9.680752 11.968719,9.444052 -0.286371,-0.0319 -6.381717,-3.933662 -13.545213,-8.670472 z"
     id="path12"
     inkscape:connector-curvature="0" />
</svg>
