<svg xmlns="http://www.w3.org/2000/svg" width="70.124" height="54.755"><path d="M62.508 0H7.616A7.625 7.625 0 000 7.616v39.522a7.625 7.625 0 007.616 7.616h54.892a7.625 7.625 0 007.616-7.616V7.616A7.625 7.625 0 0062.508 0zm1.166 26.348H47.07v-7.753a1.168 1.168 0 011.166-1.166h15.439zm-16.6 2.058h16.6v8.92H47.07zm18.663-5.489h2.333v8.92h-2.337zm0-2.058v-8.92h2.333v8.92zm-2.062-5.489H48.236a3.229 3.229 0 00-3.225 3.225V48.3h-19.9V6.45h37.4a1.168 1.168 0 011.166 1.166zm-40.62 10.978H6.45v-8.92h16.6zM4.391 31.837H2.058v-8.92h2.333zm2.059-3.43h16.6v8.92H6.45zM36.091 4.391V2.058h18.8v2.333zm-2.058 0h-18.8V2.058h18.8zM23.055 6.45v8.92H6.45V7.616A1.168 1.168 0 017.616 6.45zM4.391 20.859H2.058v-8.92h2.333zM2.058 33.9h2.333v8.92H2.058zm4.392 5.485h16.6v8.92H7.616a1.168 1.168 0 01-1.166-1.166zm27.583 10.978V52.7h-18.8v-2.333zm2.058 0h18.8V52.7h-18.8zM47.07 48.3v-8.92h16.6v7.753a1.168 1.168 0 01-1.166 1.166zm18.663-14.4h2.333v8.92h-2.333zm2.333-26.28v2.264h-2.333V7.616a3.229 3.229 0 00-3.225-3.225H56.95V2.058h5.558a5.564 5.564 0 015.558 5.558zM7.616 2.058h5.558v2.333H7.616a3.229 3.229 0 00-3.225 3.225V9.88H2.058V7.616a5.564 5.564 0 015.558-5.558zm-5.558 45.08v-2.264h2.333v2.264a3.229 3.229 0 003.225 3.225h5.558V52.7H7.616a5.564 5.564 0 01-5.558-5.562zm60.45 5.558H56.95v-2.333h5.558a3.229 3.229 0 003.225-3.225v-2.264h2.333v2.264a5.564 5.564 0 01-5.558 5.562z" fill="#fff" opacity=".3"/></svg>