<svg xmlns="http://www.w3.org/2000/svg" width="295.151" height="99.351"><defs><filter id="a" x="0" y="0" width="295.151" height="99.351" filterUnits="userSpaceOnUse"><feOffset dx="-2" dy="2"/><feGaussianBlur result="b"/><feFlood flood-opacity=".251"/><feComposite operator="in" in2="b"/><feComposite in="SourceGraphic"/></filter></defs><g filter="url(#a)"><path d="M294.149 17.476h-9.824v-2.137h4.43V2.762l-4.126 2.241-.843-1.951 5.485-2.887h2.03V15.34h3.85zm-15.3-3.1a4.847 4.847 0 01-1.384 1.74 6.844 6.844 0 01-2.32 1.174 11.16 11.16 0 01-3.257.428q-1.027 0-1.845-.066t-1.53-.171v-2.057q.818.146 1.727.224t1.859.079a9.144 9.144 0 002.208-.23 4.176 4.176 0 001.5-.666 2.564 2.564 0 00.844-1.055 3.54 3.54 0 00.264-1.4 2.363 2.363 0 00-.317-1.239 2.629 2.629 0 00-.89-.884 4.394 4.394 0 00-1.371-.534 8.017 8.017 0 00-1.747-.178h-1.965V7.656h1.991a4.624 4.624 0 001.417-.2 3.188 3.188 0 001.094-.586 2.543 2.543 0 00.7-.943 3.152 3.152 0 00.244-1.272 2.357 2.357 0 00-.843-2.018 4.1 4.1 0 00-2.479-.633 9.816 9.816 0 00-1.794.172 15.71 15.71 0 00-1.977.514v-2q.448-.158.956-.284t1.015-.211q.508-.085 1.009-.131t.962-.047a8.832 8.832 0 012.413.3 4.957 4.957 0 011.74.851 3.549 3.549 0 011.055 1.345 4.285 4.285 0 01.356 1.779 3.987 3.987 0 01-.759 2.479 5.22 5.22 0 01-2.076 1.6 4.67 4.67 0 011.325.422 4.611 4.611 0 011.174.81 3.972 3.972 0 01.844 1.167 3.4 3.4 0 01.323 1.49 5 5 0 01-.467 2.112zm-15.009 3.1h-10.823v-2.137h4.43V2.762l-4.126 2.241-.843-1.951 5.484-2.887h2.03V15.34h3.849zm-15.51 0h-11.351v-2.057l4.456-4.43q1.095-1.08 1.78-1.872a9.883 9.883 0 001.067-1.444 4.387 4.387 0 00.515-1.232 5.687 5.687 0 00.131-1.253 4.188 4.188 0 00-.171-1.206 2.881 2.881 0 00-.527-1.009 2.445 2.445 0 00-.923-.685 3.335 3.335 0 00-1.357-.251 4.1 4.1 0 00-1.991.488 6.827 6.827 0 00-1.648 1.265l-1.266-1.516a7.761 7.761 0 012.248-1.648 6.684 6.684 0 012.96-.62 6.073 6.073 0 012.089.344 4.651 4.651 0 011.628.989 4.382 4.382 0 011.062 1.582 5.622 5.622 0 01.375 2.109 6.127 6.127 0 01-.264 1.833 7.031 7.031 0 01-.8 1.68A13.274 13.274 0 01245 10.275q-.811.9-1.919 1.965l-3.124 3.046h8.371zm-31.454 0h-10.823v-2.137h4.43V2.762l-4.126 2.241-.844-1.951L211 .165h2.03V15.34h3.849zM200 85.302h-5.79v4.148h5.568v1.543h-5.568v4.614H200v1.559h-7.618v-13.4H200zm1.363-72.83a8.346 8.346 0 01-1.2 2.8 5.647 5.647 0 01-2 1.806 5.854 5.854 0 01-2.8.639 5.974 5.974 0 01-2.518-.52 5 5 0 01-1.938-1.6 7.905 7.905 0 01-1.239-2.756 15.927 15.927 0 01-.436-3.968 15.12 15.12 0 01.4-3.613 8.521 8.521 0 011.2-2.8 5.564 5.564 0 012-1.806 5.854 5.854 0 012.8-.64 5.96 5.96 0 012.518.521 4.982 4.982 0 011.938 1.608 7.978 7.978 0 011.239 2.762 15.93 15.93 0 01.435 3.968 15.28 15.28 0 01-.4 3.6zm-8.82 1.4a3.868 3.868 0 00.732 1 3.257 3.257 0 003.851.441 3.637 3.637 0 001.246-1.292 7.043 7.043 0 00.791-2.129 13.973 13.973 0 00.276-2.947q0-.448-.032-.89t-.073-.863l-7.29 5.418a6.766 6.766 0 00.5 1.266zm-.982-4.271q.007.409.046.791L198.9 5a6.169 6.169 0 00-.5-1.226 3.87 3.87 0 00-.725-.956 3.094 3.094 0 00-.962-.626 3.318 3.318 0 00-2.841.211 3.631 3.631 0 00-1.246 1.3 7.131 7.131 0 00-.791 2.136 13.977 13.977 0 00-.276 2.947V9.6zm-5.415 87.561l-.266-8.357-.112-3.209-.626 1.867-1.979 5.332H181.9l-1.887-5.126-.625-2.072-.04 3.353-.236 8.213h-1.723l.656-13.4h2.164l1.8 5.044.584 1.7.564-1.7 1.9-5.044h2.225l.646 13.4zm-.58-79.69h-10.824v-2.137h4.43V2.758l-4.126 2.241-.846-1.949 5.485-2.887h2.03V15.34h3.85zm-12.661 79.69l-.933-2.922h-5.578l-.943 2.922h-1.9l4.45-13.4h2.5l4.388 13.4zm-1.456-4.553l-2.266-7.168-2.266 7.168zm-2.092-80.391a7.379 7.379 0 01-1.793 2.98 7.216 7.216 0 01-2.939 1.72 13.457 13.457 0 01-4.047.554h-1.437v-2h1.6a11.114 11.114 0 002.94-.343 5.612 5.612 0 002.063-1.009A4.394 4.394 0 00167 12.499a6.582 6.582 0 00.541-2.182l.052-.54a7.851 7.851 0 01-1.912.784 8.825 8.825 0 01-2.346.3 6.343 6.343 0 01-2.294-.383 4.308 4.308 0 01-2.624-2.695 6.18 6.18 0 01-.329-2.05 5.756 5.756 0 01.435-2.241 5.485 5.485 0 011.22-1.813 5.76 5.76 0 011.879-1.22 6.3 6.3 0 012.412-.448 6.5 6.5 0 012.367.422 4.608 4.608 0 011.878 1.364 6.765 6.765 0 011.239 2.445 12.918 12.918 0 01.448 3.652 13.692 13.692 0 01-.607 4.328zm-8.668-5.214a2.764 2.764 0 00.593 1.075 2.613 2.613 0 001.035.679 4.28 4.28 0 001.5.238 5.823 5.823 0 001.009-.093 7.8 7.8 0 001.957-.619 6.353 6.353 0 00.8-.448 13.506 13.506 0 00-.25-2.841 5.2 5.2 0 00-.725-1.832 2.672 2.672 0 00-1.154-.983 3.875 3.875 0 00-1.536-.29 3.721 3.721 0 00-1.364.244 3.011 3.011 0 00-1.081.712A3.358 3.358 0 00160.755 4a4.336 4.336 0 00-.264 1.569 4.958 4.958 0 00.2 1.439zm-.338 90.158h-2.379l-3.907-8.357-1.128-2.687v11.044h-1.7v-13.4h2.348l3.721 7.916 1.344 3.065V83.761h1.7zm-28.491 0l-2-4.286a4.693 4.693 0 00-.462-.815 2.215 2.215 0 00-.508-.513 1.814 1.814 0 00-.6-.272 2.929 2.929 0 00-.723-.082h-.861v5.968h-1.825v-13.4h3.589a6.937 6.937 0 012.01.256 3.8 3.8 0 011.379.717 2.745 2.745 0 01.789 1.113 3.95 3.95 0 01.252 1.44 3.769 3.769 0 01-.185 1.184 3.246 3.246 0 01-.549 1.015 3.479 3.479 0 01-.9.789 4.124 4.124 0 01-1.235.5 2.1 2.1 0 01.958.682 7.37 7.37 0 01.8 1.3l2.123 4.409zm-3.671-7.434a4.224 4.224 0 001.164-.148 2.5 2.5 0 00.882-.441 2.009 2.009 0 00.563-.718 2.28 2.28 0 00.2-.979 1.93 1.93 0 00-.671-1.61 2.973 2.973 0 00-1.892-.533h-1.725v4.43zM138.3 15.092a4.108 4.108 0 01-1.252 1.431 5.9 5.9 0 01-1.9.883 9.881 9.881 0 01-4.857-.006 5.349 5.349 0 01-1.8-.884 3.73 3.73 0 01-1.094-1.345 3.951 3.951 0 01-.369-1.714 4.341 4.341 0 01.883-2.729 7.873 7.873 0 012.73-2.083 6.892 6.892 0 01-2.466-1.9 3.984 3.984 0 01.6-5.4 5.2 5.2 0 011.733-.969 7.484 7.484 0 012.452-.363 8.681 8.681 0 012.34.284 4.952 4.952 0 011.694.811 3.354 3.354 0 011.029 1.279 4.3 4.3 0 01-.494 4.232 7.141 7.141 0 01-2.381 1.846 11.263 11.263 0 011.424.843 6.152 6.152 0 011.147 1.029 4.173 4.173 0 011.028 2.821 4.1 4.1 0 01-.448 1.945zm-8.536-.751a2.354 2.354 0 00.7.77 3.2 3.2 0 001.068.475 5.433 5.433 0 001.345.158 5.743 5.743 0 001.319-.146 3.352 3.352 0 001.075-.441 2.212 2.212 0 00.718-.751 2.137 2.137 0 00.264-1.088 2.907 2.907 0 00-.158-.949 2.628 2.628 0 00-.567-.91 5.668 5.668 0 00-1.094-.9 12.886 12.886 0 00-1.74-.923 11.165 11.165 0 00-1.509.864 5.161 5.161 0 00-.989.87 2.766 2.766 0 00-.534.916 3.146 3.146 0 00-.158 1 2.091 2.091 0 00.259 1.059zm.191-9.209a2.56 2.56 0 00.613.817 6.3 6.3 0 001.035.752 14.478 14.478 0 001.477.751 7.459 7.459 0 002.215-1.457 2.467 2.467 0 00.724-1.76 1.983 1.983 0 00-.823-1.746 4.95 4.95 0 00-4.614-.007 1.927 1.927 0 00-.824 1.7 2.263 2.263 0 00.2.954zm-10.567 80.166H113.6v4.152h5.567v1.539H113.6v4.614h5.793v1.559h-7.623v-13.4h7.618zM123 2.376l-7.225 15.1h-2.623l7.5-15.1h-9.307V.24H123zm-16.078 89.781a7.129 7.129 0 01-.477 1.641 5.51 5.51 0 01-.851 1.379 4.826 4.826 0 01-1.282 1.062 6.516 6.516 0 01-1.764.681 9.815 9.815 0 01-2.286.241h-2.871v-13.4h3.455a6.193 6.193 0 014.681 1.615 6.919 6.919 0 011.543 4.937 11.1 11.1 0 01-.15 1.849zm-6.342 3.424q4.572 0 4.573-5.137a9.329 9.329 0 00-.266-2.409 3.828 3.828 0 00-.81-1.589 3.112 3.112 0 00-1.363-.877 6.155 6.155 0 00-1.928-.272H99.21v10.284zm6.642-81.34A5.362 5.362 0 01106 16.05a5.706 5.706 0 01-1.9 1.212 6.638 6.638 0 01-2.472.442 6.52 6.52 0 01-2.518-.454 4.481 4.481 0 01-1.832-1.4 6.538 6.538 0 01-1.12-2.38 13.341 13.341 0 01-.383-3.4 18.641 18.641 0 01.172-2.558 11.476 11.476 0 01.567-2.334 8.042 8.042 0 011.055-2 6.322 6.322 0 011.641-1.562 7.885 7.885 0 012.314-1.015 11.778 11.778 0 013.085-.363h1.7v2h-1.845a8.66 8.66 0 00-2.677.369 5.322 5.322 0 00-1.9 1.041 4.5 4.5 0 00-1.174 1.622 6.888 6.888 0 00-.514 2.122l-.053.541a7.842 7.842 0 011.918-.785 8.914 8.914 0 012.353-.3 6.292 6.292 0 012.288.382 4.494 4.494 0 011.634 1.062 4.384 4.384 0 01.982 1.628 6.29 6.29 0 01.33 2.083 5.808 5.808 0 01-.429 2.239zm-8.84-1.51a5.078 5.078 0 00.7 1.826 2.633 2.633 0 001.154.976 4.032 4.032 0 001.582.29 3.76 3.76 0 001.378-.244 2.956 2.956 0 001.081-.718 3.369 3.369 0 00.712-1.154 4.359 4.359 0 00.257-1.549 4.968 4.968 0 00-.192-1.43 2.7 2.7 0 00-.6-1.081 2.744 2.744 0 00-1.035-.686 4.117 4.117 0 00-1.5-.244 5.768 5.768 0 00-1.015.092 7.286 7.286 0 00-1.008.257 8.407 8.407 0 00-.943.376 7.01 7.01 0 00-.817.448 14.236 14.236 0 00.244 2.846zm-5.445 84.43h-7.71v-13.4h1.856v11.843h5.854zM90.8 14.293a5.572 5.572 0 01-1.522 1.813 7.25 7.25 0 01-2.288 1.18 9.282 9.282 0 01-2.848.422q-.382 0-.824-.02-.865-.039-1.727-.125a11.675 11.675 0 01-.745-.092v-2.083a10.983 10.983 0 001.628.25q.917.08 1.852.079a6.681 6.681 0 001.9-.25 4.258 4.258 0 001.437-.718 3.158 3.158 0 00.91-1.134 3.449 3.449 0 00.316-1.5 2.566 2.566 0 00-1.153-2.34 6.216 6.216 0 00-3.316-.732h-3.27V.236h9.281v2H83.31v4.838h1.5a12.84 12.84 0 012.413.224 6.187 6.187 0 012.089.784 4.319 4.319 0 011.477 1.5 4.568 4.568 0 01.561 2.366 4.932 4.932 0 01-.557 2.352zm-10.843 79.2a6.352 6.352 0 01-1.148 2.169 4.544 4.544 0 01-1.691 1.272 5.463 5.463 0 01-4.3-.051 4.172 4.172 0 01-1.589-1.349 6.149 6.149 0 01-.939-2.147 12.173 12.173 0 01-.307-2.856 10.171 10.171 0 01.42-3.1 6.3 6.3 0 011.143-2.169 4.558 4.558 0 011.687-1.272 5.112 5.112 0 012.04-.415 5.046 5.046 0 012.251.472A4.277 4.277 0 0179.12 85.4a6.111 6.111 0 01.949 2.138 11.854 11.854 0 01.312 2.84 10.128 10.128 0 01-.426 3.117zm-7.89-.9a5.515 5.515 0 00.58 1.682 2.966 2.966 0 001.021 1.092 2.79 2.79 0 001.508.39 2.631 2.631 0 001.487-.415 3.263 3.263 0 001.03-1.129 5.623 5.623 0 00.6-1.666 10.2 10.2 0 00.2-2.04 12 12 0 00-.18-2.157 5.366 5.366 0 00-.58-1.687 2.977 2.977 0 00-1.03-1.1 2.845 2.845 0 00-1.522-.39 2.6 2.6 0 00-1.482.416 3.225 3.225 0 00-1.02 1.128 5.7 5.7 0 00-.6 1.671 10.163 10.163 0 00-.2 2.036 11.791 11.791 0 00.181 2.178zm-5.684 4.568h-1.825v-6.152h-5.63v6.152H57.1v-13.4h1.825v5.67h5.63v-5.67h1.825zm-5.052-83.5h-2.94v3.811h-2.346v-3.811h-8.293v-2.017l7.343-11.4h3.3v11.4h2.94zm-5.287-2.017V2.45l-6 9.189zm-2.867 80.513a7.084 7.084 0 01-.477 1.641 5.538 5.538 0 01-.851 1.379 4.826 4.826 0 01-1.282 1.062 6.516 6.516 0 01-1.767.681 9.815 9.815 0 01-2.286.241h-2.868v-13.4H47.1a6.193 6.193 0 014.681 1.615 6.919 6.919 0 011.543 4.937 11.01 11.01 0 01-.15 1.849zm-6.341 3.424q4.572 0 4.573-5.137a9.368 9.368 0 00-.266-2.409 3.849 3.849 0 00-.81-1.589 3.112 3.112 0 00-1.363-.877 6.155 6.155 0 00-1.928-.272h-1.57v10.284zm-9.027 1.58l-2-4.286a4.756 4.756 0 00-.461-.815 2.215 2.215 0 00-.508-.51 1.831 1.831 0 00-.595-.272 2.929 2.929 0 00-.723-.082h-.861v5.965h-1.825v-13.4h3.588a6.933 6.933 0 012.01.256 3.8 3.8 0 011.38.717 2.745 2.745 0 01.786 1.116 3.969 3.969 0 01.251 1.44 3.743 3.743 0 01-.185 1.184 3.263 3.263 0 01-.548 1.015 3.479 3.479 0 01-.9.789 4.13 4.13 0 01-1.236.5 2.094 2.094 0 01.958.682 7.318 7.318 0 01.806 1.3l2.125 4.406zm-3.671-7.434a4.215 4.215 0 001.162-.148 2.484 2.484 0 00.882-.441 2 2 0 00.564-.718 2.28 2.28 0 00.2-.979 1.933 1.933 0 00-.671-1.61 2.974 2.974 0 00-1.892-.533h-1.721v4.43zm9.891-75.361a4.847 4.847 0 01-1.384 1.74 6.844 6.844 0 01-2.32 1.174 11.16 11.16 0 01-3.257.428q-1.027 0-1.845-.066t-1.53-.171v-2.057q.818.146 1.727.224t1.859.079a9.144 9.144 0 002.208-.23 4.176 4.176 0 001.5-.666 2.554 2.554 0 00.843-1.055 3.523 3.523 0 00.264-1.4 2.363 2.363 0 00-.316-1.239 2.637 2.637 0 00-.89-.884 4.4 4.4 0 00-1.371-.534 8.017 8.017 0 00-1.747-.178H35.8V7.65h2a4.624 4.624 0 001.417-.2 3.188 3.188 0 001.094-.586 2.553 2.553 0 00.7-.943 3.152 3.152 0 00.244-1.272 2.358 2.358 0 00-.844-2.018 4.1 4.1 0 00-2.478-.633 9.816 9.816 0 00-1.794.172 15.709 15.709 0 00-1.977.514v-2q.448-.158.956-.284t1.015-.211q.508-.085 1.009-.131t.962-.047a8.833 8.833 0 012.413.3 4.956 4.956 0 011.74.851 3.558 3.558 0 011.055 1.345 4.285 4.285 0 01.356 1.779 3.987 3.987 0 01-.759 2.479 5.22 5.22 0 01-2.076 1.6 4.671 4.671 0 011.325.422 4.611 4.611 0 011.174.81 3.972 3.972 0 01.844 1.167 3.4 3.4 0 01.322 1.49 5 5 0 01-.467 2.121zM25.112 97.161l-.933-2.922H18.6l-.943 2.922h-1.9l4.451-13.4h2.5l4.392 13.4zm-1.456-4.553L21.39 85.44l-2.266 7.168zm5.51-75.137H17.81v-2.057l4.456-4.43q1.095-1.08 1.78-1.872a9.881 9.881 0 001.067-1.444 4.389 4.389 0 00.515-1.232 5.687 5.687 0 00.131-1.253 4.188 4.188 0 00-.171-1.206 2.866 2.866 0 00-.527-1.009 2.444 2.444 0 00-.923-.685 3.332 3.332 0 00-1.357-.251 4.1 4.1 0 00-1.991.488 6.827 6.827 0 00-1.648 1.265l-1.266-1.516A7.761 7.761 0 0120.124.621a6.684 6.684 0 012.96-.62 6.073 6.073 0 012.089.343 4.651 4.651 0 011.628.989 4.382 4.382 0 011.062 1.582 5.622 5.622 0 01.375 2.109 6.127 6.127 0 01-.264 1.833 7.032 7.032 0 01-.8 1.68 13.269 13.269 0 01-1.345 1.733q-.811.9-1.919 1.965l-3.124 3.046h8.372zM12.425 86.035a6.842 6.842 0 00-1.508-.61 6.556 6.556 0 00-1.7-.21 4.019 4.019 0 00-1.707.354 3.542 3.542 0 00-1.3 1.025 4.791 4.791 0 00-.82 1.641 7.774 7.774 0 00-.29 2.209 6.2 6.2 0 001.059 3.928 3.728 3.728 0 003.1 1.323 6.7 6.7 0 001.651-.2 7.821 7.821 0 001.518-.559v1.723a8.748 8.748 0 01-3.374.666 5.558 5.558 0 01-4.363-1.7 7.3 7.3 0 01-1.523-5.019 9.434 9.434 0 01.421-2.912 6.307 6.307 0 011.2-2.21 5.277 5.277 0 011.886-1.4 6.037 6.037 0 012.481-.492 8.958 8.958 0 011.733.158 7.285 7.285 0 011.538.487zm.94-68.564H2.54v-2.137h4.43V2.757L2.844 4.998 2 3.05 7.485.16h2.03v15.18h3.849z" fill="#fff" opacity=".9"/></g></svg>