<?xml version="1.0" encoding="UTF-8" standalone="no"?>
<!-- Created with Inkscape (http://www.inkscape.org/) -->

<svg
   xmlns:dc="http://purl.org/dc/elements/1.1/"
   xmlns:cc="http://creativecommons.org/ns#"
   xmlns:rdf="http://www.w3.org/1999/02/22-rdf-syntax-ns#"
   xmlns:svg="http://www.w3.org/2000/svg"
   xmlns="http://www.w3.org/2000/svg"
   xmlns:sodipodi="http://sodipodi.sourceforge.net/DTD/sodipodi-0.dtd"
   xmlns:inkscape="http://www.inkscape.org/namespaces/inkscape"
   version="1.1"
   id="svg875"
   width="182.694"
   height="24"
   viewBox="0 0 182.694 24"
   sodipodi:docname="logo.svg"
   inkscape:version="0.92.1 r15371">
  <metadata
     id="metadata881">
    <rdf:RDF>
      <cc:Work
         rdf:about="">
        <dc:format>image/svg+xml</dc:format>
        <dc:type
           rdf:resource="http://purl.org/dc/dcmitype/StillImage" />
        <dc:title></dc:title>
      </cc:Work>
    </rdf:RDF>
  </metadata>
  <defs
     id="defs879" />
  <sodipodi:namedview
     pagecolor="#ffffff"
     bordercolor="#666666"
     borderopacity="1"
     objecttolerance="10"
     gridtolerance="10"
     guidetolerance="10"
     inkscape:pageopacity="0"
     inkscape:pageshadow="2"
     inkscape:window-width="1366"
     inkscape:window-height="715"
     id="namedview877"
     showgrid="false"
     inkscape:zoom="2.0836189"
     inkscape:cx="193.29979"
     inkscape:cy="-29.078271"
     inkscape:window-x="-8"
     inkscape:window-y="-8"
     inkscape:window-maximized="1"
     inkscape:current-layer="g885"
     fit-margin-top="0"
     fit-margin-left="0"
     fit-margin-right="0"
     fit-margin-bottom="0" />
  <g
     id="g885"
     transform="translate(-6.4844632,-168.33936)">
    <path
       style="fill:#feeeee"
       d="m 1026.4713,128 c 0,-35.475 0.1252,-49.9875 0.2782,-32.25 0.153,17.7375 0.153,46.7625 0,64.5 -0.153,17.7375 -0.2782,3.225 -0.2782,-32.25 z"
       id="path911"
       inkscape:connector-curvature="0" />
    <path
       style="fill:#fed5d4"
       d="m 128.40709,16 c 0,-9.075 0.1516,-12.7875 0.3369,-8.25 0.18529,4.5375 0.18529,11.9625 0,16.5 -0.1853,4.5375 -0.3369,0.825 -0.3369,-8.25 z"
       id="path905"
       inkscape:connector-curvature="0" />
    <path
       style="fill:#fec4c3"
       d="m 1170.4627,128 c 0,-26.675 0.1289,-37.5875 0.2864,-24.25 0.1576,13.3375 0.1576,35.1625 0,48.5 -0.1575,13.3375 -0.2864,2.425 -0.2864,-24.25 z"
       id="path903"
       inkscape:connector-curvature="0" />
    <path
       style="fill:#feb3b2"
       d="m 1218.4627,112 c 0,-26.675 0.1289,-37.5875 0.2864,-24.25 0.1576,13.3375 0.1576,35.1625 0,48.5 -0.1575,13.3375 -0.2864,2.425 -0.2864,-24.25 z"
       id="path901"
       inkscape:connector-curvature="0" />
    <path
       style="fill:#fe9a99"
       d="m 1314.3494,168 c 0,-4.675 0.1723,-6.5875 0.3828,-4.25 0.2105,2.3375 0.2105,6.1625 0,8.5 -0.2105,2.3375 -0.3828,0.425 -0.3828,-4.25 z"
       id="path895"
       inkscape:connector-curvature="0" />
    <path
       style="fill:#fe8a88"
       d="m 1362.4469,128 c 0,-17.875 0.1356,-25.1875 0.3013,-16.25 0.1657,8.9375 0.1657,23.5625 0,32.5 -0.1657,8.9375 -0.3013,1.625 -0.3013,-16.25 z"
       id="path893"
       inkscape:connector-curvature="0" />
    <g
       id="g81"
       transform="matrix(0.12524489,0,0,0.125,5.6723173,168.29694)">
      <g
         id="g48">
        <g
           id="g51">
          <path
             sodipodi:nodetypes="ccccccccssssscccccccscssccccccccssscscccccccccccccccccsscsssscssccccccccccccccscsccscccccccccccccccccccccccccsscscsssccccccccccccccccssscccccccccssccccc"
             inkscape:connector-curvature="0"
             id="path915"
             d="m 8,176 v -16 h 48 48 v -8 -8 l -42.75,-0.004 c -40.893998,-0.004 -42.891496,-0.09 -46.00914,-1.99086 -1.792527,-1.09266 -4.153345,-3.45347 -5.246262,-5.246 C 8.1303284,133.70149 8.0074761,131.67619 8.0074761,104 c 0,-27.676185 0.1228523,-29.701494 1.9871219,-32.75914 1.092917,-1.792527 3.453735,-4.153345 5.246262,-5.246262 3.155091,-1.923682 5.150716,-1.987241 62.50914,-1.99086 L 137,64 V 80 96 H 89 41 v 8 8 h 42.352117 c 42.274513,0 42.358173,0.004 45.658053,2.25 1.81826,1.2375 4.24731,3.5205 5.39788,5.07333 2.01283,2.71655 2.09195,3.95236 2.09195,32.67667 0,28.72431 -0.0791,29.96012 -2.09195,32.67667 -1.15057,1.55283 -3.57962,3.83583 -5.39788,5.07333 L 125.70423,192 H 66.852117 8 Z M 152,128 V 64 h 58.7656 c 66.61598,0 63.52989,-0.36386 67.95948,8.01262 C 280.93327,76.188379 281,77.126658 281,104 c 0,26.87334 -0.0667,27.81162 -2.27492,31.98738 C 274.41435,144.13908 275.30754,144 227.2656,144 H 185 v 24 24 H 168.5 152 Z m 96,-24 V 96 H 216.5 185 v 8 8 h 31.5 31.5 z m 57.5,87.04051 c -2.8047,-1.16775 -7.17315,-6.01219 -8.43638,-9.35561 C 296.36286,179.8302 296,161.48198 296,127.90278 296,72.146728 295.89763,73.187416 301.94193,67.5 l 3.18825,-3 54.68491,-0.260375 c 53.18351,-0.253226 54.77439,-0.20543 57.94405,1.74086 1.79253,1.100679 4.15334,3.467848 5.24626,5.260375 1.91746,3.144878 1.98712,5.134801 1.98712,56.75914 0,51.62434 -0.0697,53.61426 -1.98712,56.75914 -1.09292,1.79253 -3.45373,4.15334 -5.24626,5.24626 -3.14829,1.91954 -5.07885,1.9851 -56.75914,1.92748 -29.425,-0.0328 -54.4,-0.43437 -55.5,-0.89237 z M 392,128 V 96 H 360.5 329 v 32 32 h 31.5 31.5 z m 48,0 V 64 h 59.35212 59.35211 l 3.34382,2.253398 c 1.8391,1.239369 4.26815,3.826869 5.39788,5.75 C 569.38818,75.309654 569.5,77.051467 569.5,104 c 0,26.94853 -0.11182,28.69035 -2.05407,31.9966 -1.12973,1.92313 -3.55878,4.51063 -5.39788,5.75 -2.9348,1.97777 -4.61133,2.2534 -13.70614,2.2534 H 537.97959 L 554,168 l 16.02041,24 h -20.8579 -20.8579 L 512.40231,168.0243 496.5,144.0486 484.75,144.0243 473,144 v 24 24 H 456.5 440 Z m 97,-24 v -8 h -32 -32 v 8 8 h 32 32 z m 112,40 V 96 h -26.85212 c -2.811,0 -5.32884,-6.26e-4 -7.58802,-0.0045 C 595.75965,95.963692 594.87105,95.71009 591.99949,93.75 586.42735,89.946512 585,85.969474 585,74.24721 V 63.963217 l 75.75,0.268392 C 734.70097,64.493626 736.56497,64.547499 739.23547,66.5 744.17391,70.110675 746,75.459951 746,86.315724 V 96 h -32 -32 v 48 48 H 665.5 649 Z m 112,32 v -16 h 48 48 v -7.96945 -7.96946 l -43.43518,-0.28054 -43.43518,-0.28055 -3.18798,-3 C 761.233,135.12795 761,133.69664 761,104 c 0,-29.696989 0.233,-31.12821 5.94201,-36.5 l 3.18833,-3 59.93483,-0.272874 L 890,63.954251 V 79.977126 96 h -48 -48 v 8 8 h 42.85212 C 894.45843,112 890,108.64451 890,152 c 0,31.81984 -0.24463,33.1392 -6.99949,37.75 L 879.70423,192 H 820.35212 761 Z"
             style="fill:#fefefe" />
        </g>
      </g>
      <g
         id="g926">
        <g
           id="g918">
          <g
             id="g921">
            <g
               id="g24">
              <g
                 id="g30">
                <path
                   style="fill:#fe716f"
                   d="M 904.67873,128.33936 V 64.339365 h 15.5 15.5 v 24 23.999995 h 33 32.99997 v -23.999995 -24 h 15.5 15.5 v 63.999995 64 h -15.5 -15.5 v -24 -24 h -32.99997 -33 v 24 24 h -15.5 -15.5 z m 157.27497,63.05082 c -4.508,-1.10148 -8.0361,-3.61386 -10.3288,-7.35515 -1.8886,-3.08204 -1.9492,-5.08647 -1.7022,-56.37293 0.2518,-52.295554 0.2909,-53.224048 2.3605,-55.999991 1.1575,-1.552509 3.6325,-3.722744 5.5,-4.822744 3.2781,-1.930827 5.194,-2 55.3955,-2 h 52 l 3.679,2.287709 c 2.1597,1.342916 4.5344,4.054472 5.75,6.565724 2.0106,4.153281 2.071,5.746615 2.071,54.646562 0,48.89995 -0.06,50.49329 -2.071,54.64657 -1.2156,2.51125 -3.5903,5.22281 -5.75,6.56572 l -3.679,2.28771 -50,0.1694 c -27.5,0.0932 -51.4512,-0.18519 -53.225,-0.61858 z m 83.725,-63.05082 V 96.339365 h -32.5 -32.5 v 31.999995 32 h 32.5 32.5 z m 60.4791,63.09255 c -4.7088,-1.1632 -8.4174,-4.05124 -10.5367,-8.20547 -1.8566,-3.63918 -1.9424,-6.34967 -1.9424,-61.34724 V 64.339365 h 15.5 15.5 v 47.999995 48 h 48.0885 48.0885 l -0.3385,10.75 c -0.294,9.33718 -0.6446,11.17911 -2.6673,14.01509 -4.9383,6.92351 -3.1774,6.7163 -58.6712,6.90431 -27.5,0.0932 -51.3594,-0.16641 -53.0209,-0.57685 z m 131.5209,-63.09255 V 64.339365 h 47.3163 c 47.61,0 55.7971,0.489632 62.1635,3.717695 6.4735,3.282354 11.422,8.337387 14.7204,15.03743 l 3.2998,6.70282 v 38.54205 38.54205 l -3.2998,6.70282 c -3.2984,6.70005 -8.2469,11.75508 -14.7204,15.03744 -6.3664,3.22806 -14.5535,3.71769 -62.1635,3.71769 h -47.3163 z m 96,0 V 96.339365 h -32.5 -32.5 v 31.999995 32 h 32.5 32.5 z M 19.801532,47.337288 C 15.394122,46.296702 11.661238,43.449476 9.1787295,39.234835 7.4247163,36.256985 7.1360344,33.656233 6.8315964,18.089365 L 6.4844632,0.33936474 h 11.8969098 11.89691 l 3.900446,7.99999996 3.900446,8.0000003 h 4.788616 4.788617 L 51.678729,8.3393647 55.70105,0.33936474 h 15.288617 15.288616 l 3.900446,7.99999996 3.900446,8.0000003 h 4.788614 4.788621 l 4.02232,-8.0000003 4.02232,-7.99999996 h 11.48884 11.48884 V 17.371484 c 0,18.609032 -0.61389,21.463091 -5.62684,26.159781 -1.58024,1.480545 -4.89816,3.157044 -7.37316,3.725554 -5.32216,1.222505 -96.734282,1.294708 -101.877198,0.08047 z"
                   id="path887"
                   inkscape:connector-curvature="0" />
              </g>
            </g>
          </g>
        </g>
      </g>
    </g>
  </g>
</svg>
