<svg width="42" height="42" viewBox="0 0 42 42" fill="none" xmlns="http://www.w3.org/2000/svg">
<path d="M21 10.3359C20.5472 10.3359 20.1797 10.7035 20.1797 11.1562C20.1797 11.609 20.5472 11.9766 21 11.9766C21.4528 11.9766 21.8203 11.609 21.8203 11.1562C21.8203 10.7035 21.4528 10.3359 21 10.3359Z" fill="#F2F2F2"/>
<path d="M7.38281 25.1016C7.83559 25.1016 8.20312 24.734 8.20312 24.2812C8.20312 23.8285 7.83559 23.4609 7.38281 23.4609C6.93004 23.4609 6.5625 23.8285 6.5625 24.2812C6.5625 24.734 6.93004 25.1016 7.38281 25.1016Z" fill="#F2F2F2"/>
<path d="M27.5625 2.13281C20.1774 2.13281 14.1161 7.22452 13.6473 13.638C6.61409 13.9908 0 19.0623 0 25.9219C0 28.7885 1.13434 31.566 3.19922 33.7668C3.60777 35.451 3.11174 37.2361 1.88095 38.4669C1.64639 38.7014 1.57622 39.0542 1.70311 39.3609C1.83 39.6672 2.12897 39.8672 2.46094 39.8672C4.80043 39.8672 7.05501 38.9498 8.73024 37.3332C10.3622 37.8895 12.4915 38.2266 14.4375 38.2266C21.8216 38.2266 27.8823 33.1361 28.3524 26.7239C30.0699 26.6477 31.8563 26.3304 33.2698 25.8488C34.945 27.4654 37.1996 28.3828 39.5391 28.3828C39.871 28.3828 40.17 28.1829 40.2969 27.8765C40.4238 27.5699 40.3536 27.2171 40.119 26.9825C38.8883 25.7517 38.3922 23.9666 38.8008 22.2824C40.8657 20.0816 42 17.3041 42 14.4375C42 7.31007 34.8764 2.13281 27.5625 2.13281ZM14.4375 36.5859C12.5014 36.5859 10.2952 36.2059 8.8174 35.6179C8.50081 35.4917 8.13904 35.5746 7.90865 35.8262C6.91818 36.9089 5.63036 37.6639 4.22717 38.0109C5.00038 36.5295 5.19777 34.7832 4.72737 33.1284C4.6902 32.998 4.62131 32.8788 4.52678 32.7817C2.6657 30.8649 1.64062 28.4286 1.64062 25.9219C1.64062 20.1412 7.50073 15.2578 14.4375 15.2578C20.9878 15.2578 26.7422 19.8128 26.7422 25.9219C26.7422 31.8022 21.2224 36.5859 14.4375 36.5859ZM37.4732 21.2974C37.3787 21.3948 37.3098 21.514 37.2726 21.6441C36.8022 23.2988 36.9996 25.0452 37.7728 26.5265C36.3696 26.1798 35.0818 25.4246 34.0914 24.3418C33.861 24.0906 33.4992 24.0073 33.1826 24.1335C31.9018 24.643 30.0747 24.9958 28.3498 25.0811C28.1101 21.9789 26.5627 19.0633 23.9172 16.8984H34.6172C35.0703 16.8984 35.4375 16.5312 35.4375 16.0781C35.4375 15.625 35.0703 15.2578 34.6172 15.2578H21.397C19.535 14.31 17.4441 13.7572 15.2921 13.6412C15.7635 8.13167 21.0868 3.77344 27.5625 3.77344C34.4993 3.77344 40.3594 8.65686 40.3594 14.4375C40.3594 16.9443 39.3343 19.3805 37.4732 21.2974Z" fill="#F2F2F2"/>
<path d="M21 23.4609H10.6641C10.211 23.4609 9.84375 23.8282 9.84375 24.2812C9.84375 24.7343 10.211 25.1016 10.6641 25.1016H21C21.4531 25.1016 21.8203 24.7343 21.8203 24.2812C21.8203 23.8282 21.4531 23.4609 21 23.4609Z" fill="#F2F2F2"/>
<path d="M21 28.3828H7.38281C6.92972 28.3828 6.5625 28.75 6.5625 29.2031C6.5625 29.6562 6.92972 30.0234 7.38281 30.0234H21C21.4531 30.0234 21.8203 29.6562 21.8203 29.2031C21.8203 28.75 21.4531 28.3828 21 28.3828Z" fill="#F2F2F2"/>
<path d="M34.6172 10.3359H24.2812C23.8282 10.3359 23.4609 10.7032 23.4609 11.1562C23.4609 11.6093 23.8282 11.9766 24.2812 11.9766H34.6172C35.0703 11.9766 35.4375 11.6093 35.4375 11.1562C35.4375 10.7032 35.0703 10.3359 34.6172 10.3359Z" fill="#F2F2F2"/>
</svg>
