<svg width="100" height="100" viewBox="0 0 100 100" fill="none" xmlns="http://www.w3.org/2000/svg">
<path d="M95.3125 95.3125H98.4375V98.4375H95.3125V95.3125Z" fill="#F2F2F2"/>
<path d="M1.5625 95.3125H4.6875V98.4375H1.5625V95.3125Z" fill="#F2F2F2"/>
<path d="M89.0625 68.75C86.0031 68.75 83.2375 70.0157 81.25 72.0485V67.1875C83.8344 67.1875 85.9375 65.0844 85.9375 62.5V58.1391C85.9375 57.0766 86.4406 56.1188 87.2844 55.5766C91.3328 52.9735 93.75 48.5516 93.75 43.75C93.75 39.75 92.0375 35.9266 89.0531 33.2594C86.0703 30.5938 82.0609 29.3282 78.0547 29.7797C71.725 30.4953 66.5469 35.5969 65.7422 41.9094C65.0437 47.3922 67.4891 52.6375 72.1234 55.5985C72.9328 56.1157 73.4359 57.1141 73.4359 58.2032V62.5C73.4359 65.0844 75.5391 67.1875 78.1234 67.1875V79.6875V81.25V82.986C76.1375 80.9532 73.3719 79.6875 70.3125 79.6875H60.9375V81.25C60.9375 87.2797 65.8438 92.1875 71.875 92.1875H78.125V95.3125H51.5625V92.1875V90.625V79.6875H56.25C60.5578 79.6875 64.0625 76.1828 64.0625 71.875V70.3125H56.25C54.4844 70.3125 52.8719 70.9235 51.5625 71.9157V67.1875H56.25C62.2812 67.1875 67.1875 62.2797 67.1875 56.25V54.6875H59.375C56.3156 54.6875 53.55 55.9532 51.5625 57.986V51.5625C55.8703 51.5625 59.375 48.0578 59.375 43.75V39.7969C59.375 37.911 60.2547 36.1172 61.7875 34.8766C66.2125 31.2969 68.75 25.9891 68.75 20.3125C68.75 14.9844 66.4719 9.88909 62.4969 6.3344C58.5266 2.7844 53.1891 1.09065 47.8469 1.68284C39.6203 2.60159 32.7375 9.18597 31.4797 17.3407C30.4469 24.0297 32.9344 30.561 38.1328 34.8125C39.7156 36.1078 40.625 37.9266 40.625 39.8047V43.75C40.625 48.0578 44.1297 51.5625 48.4375 51.5625V59.4157C47.1281 58.4235 45.5156 57.8125 43.75 57.8125H35.9375V59.375C35.9375 63.6828 39.4422 67.1875 43.75 67.1875H48.4375V78.125V79.6875V84.4157C47.1281 83.4235 45.5156 82.8125 43.75 82.8125H35.9375V84.375C35.9375 88.6828 39.4422 92.1875 43.75 92.1875H48.4375V95.3125H21.875V92.1875V90.625V81.25H28.125C34.1562 81.25 39.0625 76.3422 39.0625 70.3125V68.75H29.6875C26.6281 68.75 23.8625 70.0157 21.875 72.0485V67.1875C24.4594 67.1875 26.5625 65.0844 26.5625 62.5V58.1391C26.5625 57.0766 27.0656 56.1188 27.9094 55.5766C31.9578 52.9735 34.375 48.5516 34.375 43.75C34.375 39.75 32.6625 35.9266 29.6781 33.2594C26.6953 30.5938 22.6844 29.3282 18.6797 29.7797C12.35 30.4953 7.17187 35.5969 6.36719 41.9094C5.66875 47.3922 8.11406 52.6375 12.7484 55.5985C13.5594 56.1157 14.0625 57.1141 14.0625 58.2032V62.5C14.0625 65.0844 16.1656 67.1875 18.75 67.1875V79.6875V81.25V82.986C16.7625 80.9532 13.9969 79.6875 10.9375 79.6875H1.5625V81.25C1.5625 87.2797 6.46875 92.1875 12.5 92.1875H18.75V95.3125H7.8125V98.4375H92.1875V95.3125H81.25V92.1875V90.625V81.25H87.5C93.5312 81.25 98.4375 76.3422 98.4375 70.3125V68.75H89.0625ZM73.8063 52.9641C70.2 50.661 68.2984 46.5766 68.8422 42.3047C69.4672 37.4032 73.4891 33.4407 78.4047 32.8844C78.8406 32.836 79.2719 32.8125 79.7016 32.8125C82.3969 32.8125 84.9406 33.7766 86.9703 35.5907C89.2922 37.6641 90.625 40.6391 90.625 43.75C90.625 47.4844 88.7438 50.9235 85.5938 52.95C83.9422 54.011 82.9328 55.8141 82.8313 57.8125H81.25V48.15C83.0641 47.5032 84.375 45.7844 84.375 43.75C84.375 41.1657 82.2719 39.0625 79.6875 39.0625C77.1031 39.0625 75 41.1657 75 43.75C75 45.7844 76.3109 47.5032 78.125 48.15V57.8125H76.5391C76.4234 55.7953 75.4281 54.0016 73.8063 52.9641ZM78.125 43.75C78.125 42.8891 78.8266 42.1875 79.6875 42.1875C80.5484 42.1875 81.25 42.8891 81.25 43.75C81.25 44.611 80.5484 45.3125 79.6875 45.3125C78.8266 45.3125 78.125 44.611 78.125 43.75ZM76.5625 62.5V60.9375H82.8125V62.5C82.8125 63.3625 82.1109 64.0625 81.25 64.0625H78.125C77.2641 64.0625 76.5625 63.3625 76.5625 62.5ZM71.875 89.0625C68.1016 89.0625 64.9453 86.3735 64.2203 82.8125H70.3125C74.0859 82.8125 77.2422 85.5016 77.9672 89.0625H71.875ZM56.25 73.4375H60.6703C60.025 75.2563 58.2875 76.5625 56.25 76.5625H51.8297C52.475 74.7438 54.2125 73.4375 56.25 73.4375ZM59.375 57.8125H63.9047C63.1797 61.3735 60.0219 64.0625 56.25 64.0625H51.7203C52.4453 60.5016 55.6016 57.8125 59.375 57.8125ZM40.1109 32.3938C35.7781 28.85 33.7062 23.4 34.5672 17.8157C35.6141 11.0328 41.3438 5.55315 48.1922 4.78753C48.8047 4.72034 49.4141 4.68597 50.0172 4.68597C53.8719 4.68597 57.5078 6.06722 60.4109 8.66253C63.725 11.6266 65.625 15.8719 65.625 20.3125C65.625 25.0407 63.5094 29.4641 59.8234 32.4469C57.75 34.1235 56.4969 36.5047 56.2922 39.0625H53.2328L54.1703 25H56.25C58.8344 25 60.9375 22.8969 60.9375 20.3125C60.9375 17.7282 58.8344 15.625 56.25 15.625H56.0484C53.5906 15.625 51.5359 17.5469 51.3719 20.0016L51.2469 21.875H48.7531L48.6281 20C48.4641 17.5469 46.4094 15.625 43.9516 15.625H43.75C41.1656 15.625 39.0625 17.7282 39.0625 20.3125C39.0625 22.8969 41.1656 25 43.75 25H45.8297L46.7672 39.0625H43.7062C43.4953 36.5157 42.2203 34.1172 40.1109 32.3938ZM49.8984 39.0625L48.9609 25H51.0375L50.1 39.0625H49.8984ZM54.3781 21.875L54.4891 20.2094C54.5438 19.3907 55.2297 18.75 56.0484 18.75H56.25C57.1109 18.75 57.8125 19.4516 57.8125 20.3125C57.8125 21.1735 57.1109 21.875 56.25 21.875H54.3781ZM45.6219 21.875H43.75C42.8891 21.875 42.1875 21.1735 42.1875 20.3125C42.1875 19.4516 42.8891 18.75 43.75 18.75H43.9516C44.7703 18.75 45.4563 19.3907 45.5109 20.2094L45.6219 21.875ZM43.75 43.75V42.1875H56.25V43.75C56.25 46.3344 54.1469 48.4375 51.5625 48.4375H48.4375C45.8531 48.4375 43.75 46.3344 43.75 43.75ZM43.75 64.0625C41.7125 64.0625 39.975 62.7563 39.3297 60.9375H43.75C45.7875 60.9375 47.525 62.2438 48.1703 64.0625H43.75ZM43.75 89.0625C41.7125 89.0625 39.975 87.7563 39.3297 85.9375H43.75C45.7875 85.9375 47.525 87.2438 48.1703 89.0625H43.75ZM29.6875 71.875H35.7797C35.0547 75.436 31.8969 78.125 28.125 78.125H22.0328C22.7578 74.5641 25.9141 71.875 29.6875 71.875ZM14.4312 52.9641C10.825 50.661 8.92344 46.5766 9.46719 42.3047C10.0922 37.4032 14.1141 33.4407 19.0297 32.8844C19.4656 32.836 19.8969 32.8125 20.3266 32.8125C23.0219 32.8125 25.5656 33.7766 27.5953 35.5907C29.9172 37.6641 31.25 40.6391 31.25 43.75C31.25 47.4844 29.3688 50.9235 26.2188 52.95C24.5672 54.011 23.5578 55.8141 23.4562 57.8125H21.875V48.15C23.6891 47.5032 25 45.7844 25 43.75C25 41.1657 22.8969 39.0625 20.3125 39.0625C17.7281 39.0625 15.625 41.1657 15.625 43.75C15.625 45.7844 16.9359 47.5032 18.75 48.15V57.8125H17.1641C17.0484 55.7953 16.0531 54.0016 14.4312 52.9641ZM18.75 43.75C18.75 42.8891 19.4516 42.1875 20.3125 42.1875C21.1734 42.1875 21.875 42.8891 21.875 43.75C21.875 44.611 21.1734 45.3125 20.3125 45.3125C19.4516 45.3125 18.75 44.611 18.75 43.75ZM17.1875 62.5V60.9375H23.4375V62.5C23.4375 63.3625 22.7359 64.0625 21.875 64.0625H18.75C17.8891 64.0625 17.1875 63.3625 17.1875 62.5ZM12.5 89.0625C8.72656 89.0625 5.57031 86.3735 4.84531 82.8125H10.9375C14.7109 82.8125 17.8672 85.5016 18.5922 89.0625H12.5ZM87.5 78.125H81.4078C82.1328 74.5641 85.2906 71.875 89.0625 71.875H95.1547C94.4297 75.436 91.2734 78.125 87.5 78.125Z" fill="#F2F2F2"/>
</svg>
