<svg width="42" height="42" viewBox="0 0 42 42" fill="none" xmlns="http://www.w3.org/2000/svg">
<path d="M35.8493 6.1507C31.8829 2.18433 26.6093 0 21 0C15.3907 0 10.1171 2.18433 6.1507 6.1507C2.18441 10.1171 0 15.3907 0 21C0 26.6093 2.18441 31.8829 6.1507 35.8493C10.1171 39.8157 15.3907 42 21 42C26.6093 42 31.8829 39.8157 35.8493 35.8493C39.8156 31.8829 42 26.6093 42 21C42 15.3907 39.8156 10.1171 35.8493 6.1507ZM21 39.5391C10.7775 39.5391 2.46094 31.2225 2.46094 21C2.46094 10.7775 10.7775 2.46094 21 2.46094C31.2225 2.46094 39.5391 10.7775 39.5391 21C39.5391 31.2225 31.2225 39.5391 21 39.5391Z" fill="#F2F2F2"/>
<path d="M22.318 19.7695H19.682C18.1802 19.7695 16.9585 18.5478 16.9585 17.0462C16.9585 15.5444 18.1803 14.3227 19.682 14.3227H24.9539C25.6334 14.3227 26.1844 13.7718 26.1844 13.0923C26.1844 12.4127 25.6334 11.8618 24.9539 11.8618H22.2304V9.13837C22.2304 8.45882 21.6795 7.9079 21 7.9079C20.3204 7.9079 19.7695 8.45882 19.7695 9.13837V11.8618H19.6821C16.8234 11.8618 14.4977 14.1876 14.4977 17.0462C14.4977 19.9048 16.8234 22.2305 19.6821 22.2305H22.3181C23.8197 22.2305 25.0414 23.4522 25.0414 24.9539C25.0414 26.4556 23.8197 27.6773 22.3181 27.6773H17.0461C16.3666 27.6773 15.8157 28.2283 15.8157 28.9078C15.8157 29.5874 16.3666 30.1383 17.0461 30.1383H19.7695V32.8618C19.7695 33.5414 20.3204 34.0923 21 34.0923C21.6795 34.0923 22.2304 33.5414 22.2304 32.8618V30.1383H22.318C25.1766 30.1383 27.5023 27.8125 27.5023 24.9539C27.5023 22.0953 25.1766 19.7695 22.318 19.7695Z" fill="#F2F2F2"/>
</svg>
