<svg width="100" height="100" viewBox="0 0 100 100" fill="none" xmlns="http://www.w3.org/2000/svg">
<path d="M42.6383 53.5632C42.643 53.5585 42.6461 53.5523 42.6508 53.5476L70.3508 25.8484C70.4881 25.7111 70.5946 25.5461 70.6632 25.3644C70.7318 25.1827 70.7609 24.9885 70.7485 24.7947C70.7362 24.6009 70.6827 24.4119 70.5916 24.2404C70.5005 24.0689 70.374 23.9187 70.2203 23.8C64.4398 19.3064 57.3216 16.8768 50 16.8984C41.224 16.9083 32.8102 20.399 26.6046 26.6046C20.3991 32.8102 16.9084 41.2239 16.8985 50C16.8765 57.3214 19.3061 64.4395 23.8 70.2195C23.9188 70.3732 24.0689 70.4998 24.2404 70.591C24.4118 70.6822 24.6007 70.7358 24.7946 70.7484H24.8821C25.0616 70.7483 25.2393 70.7129 25.4051 70.6442C25.571 70.5754 25.7216 70.4746 25.8485 70.3476L42.6258 53.5734L42.6383 53.5632ZM38.5203 53.8117L27.6828 42.7734L43.1836 27.5539L53.8821 38.45L52.6477 39.6843L46.1242 33.0437C45.9985 32.9155 45.8486 32.8134 45.6834 32.7431C45.5181 32.6729 45.3405 32.6359 45.161 32.6343C44.981 32.6293 44.8019 32.6615 44.6348 32.7287C44.4677 32.7959 44.3163 32.8967 44.1899 33.025C43.9068 33.3022 43.5254 33.4558 43.1292 33.4522C42.733 33.4485 42.3545 33.2878 42.0766 33.0054C41.9509 32.8773 41.8012 32.7752 41.6361 32.7049C41.4709 32.6347 41.2936 32.5977 41.1141 32.5961C40.7533 32.601 40.4073 32.7403 40.1438 32.9867L33.1696 39.8336C33.0414 39.9593 32.9393 40.1091 32.869 40.2744C32.7987 40.4396 32.7617 40.6171 32.7601 40.7966C32.7584 40.9762 32.7921 41.1543 32.8593 41.3208C32.9265 41.4874 33.0258 41.639 33.1516 41.7671C33.2892 41.9072 33.3978 42.073 33.4713 42.2551C33.5448 42.4371 33.5816 42.6319 33.5798 42.8282C33.578 43.0245 33.5375 43.2186 33.4607 43.3993C33.3839 43.5799 33.2722 43.7437 33.1321 43.8812C32.8735 44.1354 32.7265 44.4819 32.7233 44.8444C32.72 45.207 32.8609 45.556 33.1149 45.8148L39.7555 52.5781L38.5203 53.8117ZM35.8641 44.7132C36.1528 44.135 36.3059 43.4986 36.3117 42.8523C36.3175 42.206 36.1759 41.5669 35.8977 40.9836L41.2414 35.7375C41.819 36.0279 42.4559 36.1811 43.1024 36.1851C43.7479 36.1871 44.3859 36.0459 44.9703 35.7718L50.7117 41.6179L41.6883 50.6437L35.8641 44.7132ZM25.0391 67.2914C21.5005 62.2212 19.6126 56.1828 19.6328 50C19.6419 41.9489 22.8442 34.2301 28.5372 28.5372C34.2302 22.8442 41.9489 19.6419 50 19.6328C56.183 19.6135 62.2214 21.5023 67.2914 25.0414L55.8156 36.5164L44.175 24.6625C44.0492 24.5344 43.8994 24.4323 43.7341 24.3621C43.5688 24.2919 43.3913 24.255 43.2118 24.2534C43.0322 24.2518 42.8541 24.2855 42.6876 24.3528C42.5211 24.42 42.3695 24.5194 42.2414 24.6453L24.7914 41.7804C24.6633 41.9062 24.5611 42.056 24.4909 42.2212C24.4206 42.3865 24.3836 42.5639 24.3819 42.7435C24.3803 42.9231 24.414 43.1012 24.4812 43.2677C24.5483 43.4342 24.6477 43.5859 24.7735 43.714L36.5867 55.7453L25.0391 67.2914Z" fill="#F2F2F2"/>
<path d="M76.2 29.7805C76.0814 29.6266 75.9313 29.4999 75.7597 29.4086C75.5882 29.3174 75.3992 29.2638 75.2053 29.2515C75.0114 29.2391 74.8171 29.2683 74.6354 29.337C74.4537 29.4057 74.2887 29.5125 74.1516 29.65L60.5383 43.2625L60.5305 43.2695L60.5219 43.2797L57.3734 46.4274L57.3617 46.4367L57.35 46.4516L29.6492 74.1516C29.5119 74.2889 29.4054 74.4539 29.3368 74.6356C29.2682 74.8173 29.2391 75.0115 29.2515 75.2053C29.2638 75.3991 29.3173 75.588 29.4084 75.7596C29.4995 75.9311 29.626 76.0812 29.7797 76.2C35.5602 80.6936 42.6784 83.1232 50 83.1016C58.776 83.0917 67.1898 79.601 73.3954 73.3954C79.601 67.1898 83.0916 58.776 83.1016 50C83.1235 42.6786 80.6939 35.5605 76.2 29.7805ZM47.3523 60.3125L53.8758 66.9531C54.0016 67.0813 54.1514 67.1834 54.3167 67.2537C54.482 67.3239 54.6595 67.3609 54.8391 67.3625H54.8516C55.2099 67.363 55.5542 67.2227 55.8101 66.9719C56.0939 66.696 56.4745 66.5423 56.8703 66.5438C57.0667 66.545 57.261 66.5852 57.4417 66.662C57.6225 66.7389 57.7862 66.8508 57.9234 66.9914C58.0491 67.1196 58.1988 67.2217 58.3639 67.2919C58.5291 67.3622 58.7065 67.3992 58.8859 67.4008H58.8992C59.2571 67.4013 59.6009 67.261 59.8562 67.0102L66.8305 60.1633C66.9586 60.0375 67.0607 59.8877 67.131 59.7225C67.2013 59.5572 67.2383 59.3798 67.24 59.2002C67.2416 59.0207 67.2079 58.8425 67.1407 58.676C67.0736 58.5095 66.9742 58.3578 66.8484 58.2297C66.7109 58.0896 66.6022 57.9238 66.5287 57.7418C66.4553 57.5597 66.4184 57.3649 66.4202 57.1686C66.422 56.9723 66.4625 56.7783 66.5393 56.5976C66.6161 56.4169 66.7278 56.2531 66.868 56.1156C67.1265 55.8614 67.2735 55.515 67.2767 55.1524C67.28 54.7898 67.1391 54.4408 66.8851 54.182L60.2445 47.4188L61.4789 46.1844L72.3172 57.2266L56.8164 72.4461L46.118 61.5492L47.3523 60.3125ZM58.3117 49.3563L64.1336 55.2867C63.8449 55.865 63.6918 56.5014 63.686 57.1477C63.6801 57.794 63.8217 58.4331 64.1 59.0164L58.7562 64.2625C58.1787 63.9719 57.5418 63.8187 56.8953 63.8149C56.2481 63.7996 55.6069 63.9415 55.0266 64.2281L49.2859 58.3813L58.3117 49.3563ZM50 80.3672C43.817 80.3865 37.7785 78.4978 32.7086 74.9586L44.1844 63.4836L55.825 75.3375C56.0795 75.5962 56.4262 75.7434 56.7891 75.7469H56.7969C57.155 75.7473 57.499 75.607 57.7547 75.3563L75.2086 58.2195C75.3367 58.0938 75.4389 57.944 75.5091 57.7787C75.5794 57.6135 75.6164 57.436 75.6181 57.2565C75.6198 57.0769 75.586 56.8988 75.5189 56.7323C75.4517 56.5657 75.3524 56.4141 75.2266 56.286L63.4133 44.2547L74.9586 32.7094C78.4978 37.779 80.3866 43.8172 80.3672 50C80.3581 58.0511 77.1558 65.7698 71.4628 71.4628C65.7698 77.1558 58.0511 80.3581 50 80.3672Z" fill="#F2F2F2"/>
<path d="M50 8.78906C41.8493 8.78906 33.8816 11.206 27.1044 15.7344C20.3273 20.2627 15.0452 26.6989 11.9261 34.2293C8.80692 41.7596 7.9908 50.0457 9.58094 58.0399C11.1711 66.034 15.096 73.3771 20.8595 79.1405C26.6229 84.904 33.966 88.8289 41.9602 90.4191C49.9543 92.0092 58.2405 91.1931 65.7708 88.0739C73.3011 84.9548 79.7374 79.6727 84.2657 72.8956C88.794 66.1185 91.211 58.1508 91.211 50C91.1986 39.074 86.8527 28.599 79.1269 20.8732C71.401 13.1473 60.926 8.80147 50 8.78906ZM50 88.4766C42.3901 88.4766 34.951 86.2199 28.6236 81.9921C22.2961 77.7642 17.3645 71.755 14.4523 64.7243C11.5401 57.6937 10.7781 49.9573 12.2628 42.4936C13.7474 35.0299 17.4119 28.174 22.793 22.793C28.174 17.4119 35.0299 13.7474 42.4936 12.2628C49.9573 10.7781 57.6937 11.5401 64.7244 14.4523C71.755 17.3645 77.7643 22.2961 81.9921 28.6236C86.22 34.951 88.4766 42.3901 88.4766 50C88.465 60.2011 84.4075 69.981 77.1943 77.1943C69.981 84.4075 60.2011 88.465 50 88.4766Z" fill="#F2F2F2"/>
</svg>
