<svg width="42" height="42" viewBox="0 0 42 42" fill="none" xmlns="http://www.w3.org/2000/svg">
<g clip-path="url(#clip0)">
<path d="M20.5527 21.9055C20.6882 21.993 20.843 22.0369 20.9978 22.0369C21.1528 22.0369 21.3076 21.9933 21.4432 21.9055C21.7527 21.7056 29.0272 16.9487 29.0272 12.189C29.0272 9.34644 26.7861 7.03354 24.0313 7.03354C22.9325 7.03354 21.8632 7.41293 20.9978 8.09354C20.1326 7.41293 19.0633 7.03354 17.9645 7.03354C15.2097 7.03354 12.9686 9.34612 12.9686 12.189C12.9686 16.9487 20.2428 21.7056 20.5527 21.9055ZM17.9645 8.67416C18.8899 8.67416 19.7519 9.06061 20.3915 9.76268C20.5469 9.93315 20.767 10.0302 20.9978 10.0302C21.2285 10.0302 21.4486 9.93315 21.604 9.76268C22.2436 9.06061 23.1059 8.67416 24.0313 8.67416C25.8815 8.67416 27.3866 10.251 27.3866 12.189C27.3866 15.1732 23.1258 18.7499 20.9978 20.2287C18.8698 18.7502 14.6089 15.1732 14.6089 12.189C14.6093 10.251 16.1143 8.67416 17.9645 8.67416Z" fill="#F2F2F2"/>
<path d="M20.9977 3.71576C21.4508 3.71576 21.8181 3.34854 21.8181 2.89545V0.820312C21.8181 0.367218 21.4508 0 20.9977 0C20.5446 0 20.1774 0.367218 20.1774 0.820312V2.89545C20.1774 3.34854 20.5446 3.71576 20.9977 3.71576Z" fill="#F2F2F2"/>
<path d="M20.9977 23.4475C20.5446 23.4475 20.1774 23.8147 20.1774 24.2675V26.3461C20.1774 26.7989 20.5446 27.1664 20.9977 27.1664C21.4508 27.1664 21.8181 26.7989 21.8181 26.3461V24.2675C21.8181 23.8147 21.4508 23.4475 20.9977 23.4475Z" fill="#F2F2F2"/>
<path d="M30.8652 13.5832C30.8652 14.036 31.2325 14.4035 31.6855 14.4035H33.7607C34.2138 14.4035 34.581 14.036 34.581 13.5832C34.581 13.1301 34.2138 12.7629 33.7607 12.7629H31.6855C31.2325 12.7629 30.8652 13.1301 30.8652 13.5832Z" fill="#F2F2F2"/>
<path d="M8.23486 14.4035H10.3135C10.7663 14.4035 11.1335 14.036 11.1335 13.5832C11.1335 13.1301 10.7663 12.7629 10.3135 12.7629H8.23486C7.78177 12.7629 7.41455 13.1301 7.41455 13.5832C7.41455 14.036 7.78177 14.4035 8.23486 14.4035Z" fill="#F2F2F2"/>
<path d="M29.1352 20.5604C28.8148 20.2403 28.2957 20.2403 27.9753 20.5604C27.6548 20.8808 27.6548 21.4002 27.9753 21.7207L29.8049 23.5503C29.9651 23.7106 30.175 23.7907 30.3849 23.7907C30.5951 23.7907 30.805 23.7106 30.9649 23.5503C31.2853 23.2302 31.2853 22.7108 30.9649 22.3904L29.1352 20.5604Z" fill="#F2F2F2"/>
<path d="M12.8629 6.60799C13.0231 6.76821 13.233 6.84832 13.4429 6.84832C13.6528 6.84832 13.8627 6.76821 14.0229 6.60799C14.343 6.28788 14.343 5.76845 14.0229 5.44802L12.2166 3.64173C11.8965 3.32161 11.377 3.32161 11.0566 3.64173C10.7365 3.96216 10.7362 4.48159 11.0566 4.80202L12.8629 6.60799Z" fill="#F2F2F2"/>
<path d="M12.8603 20.5604L11.0047 22.4163C10.6842 22.7368 10.6842 23.2559 11.0047 23.5763C11.1649 23.7365 11.3748 23.8166 11.5847 23.8166C11.7945 23.8166 12.0044 23.7365 12.1646 23.5763L14.0203 21.7207C14.3407 21.4002 14.3407 20.8808 14.0203 20.5604C13.7002 20.2403 13.1807 20.2403 12.8603 20.5604Z" fill="#F2F2F2"/>
<path d="M28.553 6.84832C28.7629 6.84832 28.9727 6.76821 29.133 6.60799L30.9393 4.80202C31.2594 4.48159 31.2594 3.96216 30.9393 3.64173C30.6188 3.32161 30.0994 3.32161 29.779 3.64173L27.973 5.44802C27.6526 5.76845 27.6526 6.28755 27.973 6.60799C28.1329 6.76821 28.3431 6.84832 28.553 6.84832Z" fill="#F2F2F2"/>
<path d="M39.2257 13.332C37.6982 13.332 36.4555 14.5746 36.4555 16.1018V23.0719C36.4555 24.3325 36.187 25.57 35.683 26.7076C35.409 26.1859 34.9943 25.7437 34.4752 25.4361C33.2191 24.6914 31.6154 24.8866 30.5743 25.9103L27.3478 29.0836C25.3909 31.0085 24.2684 33.6863 24.2684 36.4312V41.1797C24.2684 41.6325 24.6357 41.9997 25.0887 41.9997C25.5418 41.9997 25.9091 41.6325 25.9091 41.1797V36.4312C25.9091 34.1234 26.8527 31.8717 28.4982 30.2532L31.7246 27.0796C32.2354 26.5775 33.0224 26.4817 33.6386 26.847C34.0388 27.0844 34.3128 27.4837 34.3906 27.9425C34.4682 28.4014 34.3407 28.8686 34.0407 29.2243L30.623 33.2797C30.3311 33.6261 30.3753 34.1433 30.7217 34.4355C31.0677 34.7274 31.5856 34.6832 31.8775 34.3368L35.5785 29.935C37.2018 28.0198 38.0958 25.5825 38.0958 23.0719V16.1018C38.0958 15.4789 38.6027 14.9723 39.2257 14.9723C39.8486 14.9723 40.3552 15.4792 40.3552 16.1018V18.4176C40.3552 18.8707 40.7224 19.2379 41.1755 19.2379C41.6286 19.2379 41.9958 18.8707 41.9958 18.4176V16.1018C41.9958 14.5746 40.7532 13.332 39.2257 13.332Z" fill="#F2F2F2"/>
<path d="M41.1755 24.9795C40.7224 24.9795 40.3552 25.3467 40.3552 25.7998V28.5017C40.3552 29.9853 39.9611 31.4471 39.2145 32.7308L34.5547 40.7682C34.3275 41.1601 34.4611 41.6619 34.853 41.8891C34.9825 41.9641 35.1241 42 35.2635 42C35.5464 42 35.8217 41.8536 35.9739 41.5911L40.6333 33.5546C41.5245 32.0217 41.9958 30.2746 41.9958 28.5017V25.7998C41.9958 25.3467 41.6286 24.9795 41.1755 24.9795Z" fill="#F2F2F2"/>
<path d="M11.4212 25.91C10.3805 24.8866 8.77638 24.6914 7.5206 25.4361C7.00117 25.7437 6.58685 26.1859 6.31288 26.7076C5.80884 25.5704 5.54031 24.3325 5.54031 23.0719V16.1018C5.54031 14.5746 4.29767 13.332 2.77016 13.332C1.24265 13.332 0 14.5746 0 16.1018V28.5017C0 30.2747 0.471039 32.0217 1.36185 33.5537L6.02161 41.5908C6.17381 41.8533 6.44907 42 6.73201 42C6.87172 42 7.01335 41.9641 7.14281 41.8891C7.5347 41.662 7.66832 41.1602 7.44081 40.7683L2.78073 32.7298C2.03476 31.4471 1.64062 29.985 1.64062 28.5017V16.1022C1.64062 15.4792 2.14723 14.9723 2.77016 14.9723C3.39308 14.9723 3.90001 15.4792 3.90001 16.1022V23.0719C3.90001 25.5825 4.79402 28.0198 6.41734 29.935L10.1184 34.3368C10.4103 34.6835 10.9278 34.7274 11.2742 34.4355C11.6206 34.1436 11.6648 33.6261 11.3729 33.2797L7.95511 29.2246C7.65518 28.8686 7.52765 28.4014 7.60519 27.9425C7.68306 27.4837 7.95703 27.0844 8.35725 26.8473C8.97345 26.4817 9.76044 26.5775 10.2712 27.0799L13.4977 30.2535C15.1431 31.8717 16.0868 34.1234 16.0868 36.4312V41.1797C16.0868 41.6325 16.454 42 16.9068 42C17.3599 42 17.7271 41.6325 17.7271 41.1797V36.4312C17.7271 33.6863 16.6049 31.0085 14.648 29.0836L11.4212 25.91Z" fill="#F2F2F2"/>
<path d="M41.1755 21.2884C40.7224 21.2884 40.3552 21.6559 40.3552 22.1087V22.1359C40.3552 22.589 40.7224 22.9563 41.1755 22.9563C41.6286 22.9563 41.9958 22.589 41.9958 22.1359V22.1087C41.9958 21.6559 41.6286 21.2884 41.1755 21.2884Z" fill="#F2F2F2"/>
</g>
<defs>
<clipPath id="clip0">
<rect width="42" height="42" fill="white"/>
</clipPath>
</defs>
</svg>
