<svg width="100" height="100" viewBox="0 0 100 100" fill="none" xmlns="http://www.w3.org/2000/svg">
<g clip-path="url(#clip0)">
<path d="M7.60277 72.2204H12.6458V76.5288C12.6458 83.9804 18.7081 90.0427 26.1597 90.0427C27.9358 90.0427 29.3808 91.4877 29.3808 93.263V97.1128C29.3808 98.7043 30.6755 99.9998 32.2678 99.9998H39.3196C40.1291 99.9998 40.7845 99.3436 40.7845 98.5349C40.7845 97.7255 40.1291 97.0701 39.3196 97.0701H32.3105V93.263C32.3105 89.8718 29.551 87.113 26.1597 87.113C20.324 87.113 15.5762 82.3645 15.5762 76.5288V72.0938C15.5762 70.5481 14.3182 69.29 12.7724 69.29H7.60277C6.75286 69.29 6.32867 68.2677 6.93063 67.6665L10.5248 64.0723C13.7818 60.8145 15.5762 56.4833 15.5762 51.8759V47.9956C15.5762 36.8728 22.8394 27.3788 33.2436 24.3514L32.9453 24.8924C32.251 26.1505 33.1658 27.6946 34.5993 27.6946H40.9226V44.6097C40.9226 46.543 43.5288 47.2205 44.4656 45.523C45.4521 43.7346 53.2837 29.5425 54.2717 27.7526C57.6042 30.0674 60.2997 33.1466 62.1521 36.7614L53.0838 47.1618C51.6502 48.8059 53.3577 51.0772 55.2498 50.1662L64.7422 45.5954C64.8193 46.392 64.8582 47.1946 64.8582 47.9964V57.1158L56.4873 58.1748C54.6188 58.4105 54.3373 60.9831 56.044 61.6614L64.2311 64.9168C63.3171 68.8917 61.4189 72.5882 58.7005 75.6689C55.9807 78.7504 54.483 82.8527 54.483 87.2198V97.0701H46.1563C45.3468 97.0701 44.6915 97.7262 44.6915 98.5349C44.6915 99.3444 45.3468 99.9998 46.1563 99.9998H54.5044C56.1081 99.9998 57.4127 98.6951 57.4127 97.0915V87.2198C57.4127 83.5669 58.6502 80.1535 60.897 77.6076C63.8389 74.2735 65.9217 70.2933 66.9807 66.0101L76.992 69.9904C78.2783 70.5023 79.6356 69.438 79.4631 68.0762L78.8406 63.1529L92.4346 61.434C94.2893 61.1998 94.6113 58.6363 92.8771 57.9466L71.9299 49.6177C70.6504 49.1088 69.2855 50.1624 69.4587 51.5319L70.0813 56.4543L67.7887 56.745V47.9956C67.7887 46.7437 67.7024 45.4879 67.5346 44.2504L85.4354 35.6307C86.7309 35.0066 87.0666 33.2679 86.0152 32.3516L81.2492 28.1959L95.8381 11.4647C97.2716 9.82053 95.5642 7.54927 93.6721 8.46022L63.4864 22.9957C62.1917 23.6198 61.856 25.3578 62.9074 26.274L67.6727 30.4305L64.2074 34.4047C62.1162 30.7136 59.2148 27.5688 55.6923 25.1792L57.6652 21.6041C58.358 20.346 57.4432 18.8026 56.0104 18.8026H49.6872V15.7829C49.6872 14.9742 49.0318 14.3181 48.2223 14.3181C47.4129 14.3181 46.7575 14.9742 46.7575 15.7829V19.8432C46.7575 20.8847 47.6044 21.7323 48.6465 21.7323H54.2473L52.4673 24.9587L43.853 40.5692V26.654C43.853 25.6118 43.0054 24.7642 41.9632 24.7642H36.3625L46.7575 5.92726V8.94697C46.7575 9.75568 47.4129 10.4118 48.2223 10.4118C49.0318 10.4118 49.6872 9.75568 49.6872 8.94697V1.88675C49.6872 -0.0541678 47.0848 -0.730131 46.1441 0.974272L35.1525 20.8923C29.0238 22.0329 23.4261 25.2487 19.3261 30.0033C15.0185 34.999 12.6466 41.3886 12.6466 47.9956V51.8759C12.6466 55.7006 11.1573 59.2955 8.45269 62.0001L4.85925 65.5943C2.38809 68.064 4.18405 72.2204 7.60277 72.2204ZM71.5545 59.2215C72.5479 59.0964 73.2528 58.1862 73.1277 57.1936L72.602 53.0387L87.773 59.0705L77.3666 60.3865C76.374 60.5124 75.669 61.4218 75.7942 62.4152L76.3198 66.5701L61.1488 60.5383C62.7769 60.3316 70.0614 59.4107 71.5545 59.2215ZM84.0896 34.5603C84.0888 34.5603 84.0888 34.5596 84.0881 34.5596L84.0896 34.5603ZM70.4849 31.6627C71.2165 30.8234 71.1746 29.5959 70.3826 28.9062L65.9652 25.0541L90.3327 13.3201L78.437 26.963C77.7084 27.7984 77.7542 29.0351 78.5392 29.7202L82.9566 33.5723L58.5891 45.3063C59.9807 43.7095 69.1223 33.2259 70.4849 31.6627Z" fill="#F2F2F2"/>
</g>
<defs>
<clipPath id="clip0">
<rect width="100" height="100" fill="white"/>
</clipPath>
</defs>
</svg>
