<svg width="100" height="100" viewBox="0 0 100 100" fill="none" xmlns="http://www.w3.org/2000/svg">
<path d="M50 100C36.6445 100 24.0885 94.799 14.6445 85.3555C5.20098 75.9115 0 63.3555 0 50C0 36.6445 5.20098 24.0885 14.6445 14.6445C24.0885 5.20098 36.6445 0 50 0C63.3555 0 75.9115 5.20098 85.3555 14.6445C94.799 24.0885 100 36.6445 100 50C100 63.3555 94.799 75.9115 85.3555 85.3555C75.9115 94.799 63.3555 100 50 100ZM50 5.85938C38.2096 5.85938 27.125 10.4508 18.7879 18.7879C10.4508 27.125 5.85938 38.2096 5.85938 50C5.85938 61.7904 10.4508 72.875 18.7879 81.2121C27.125 89.5492 38.2096 94.1406 50 94.1406C61.7904 94.1406 72.875 89.5492 81.2121 81.2121C89.5492 72.875 94.1406 61.7904 94.1406 50C94.1406 38.2096 89.5492 27.125 81.2121 18.7879C72.875 10.4508 61.7904 5.85938 50 5.85938Z" fill="#F2F2F2"/>
<path d="M47.0703 11.7258H52.9297V19.5445H47.0703V11.7258Z" fill="#F2F2F2"/>
<path d="M69.4537 26.3982L74.9815 20.8704L79.1241 25.0129L73.5962 30.5408L69.4537 26.3982Z" fill="#F2F2F2"/>
<path d="M80.4555 47.0703H88.2742V52.9297H80.4555V47.0703Z" fill="#F2F2F2"/>
<path d="M69.4485 73.607L73.591 69.4644L79.1189 74.9922L74.9763 79.1348L69.4485 73.607Z" fill="#F2F2F2"/>
<path d="M47.0703 80.4555H52.9297V88.2742H47.0703V80.4555Z" fill="#F2F2F2"/>
<path d="M20.8544 74.9871L26.3823 69.4592L30.5249 73.6018L24.997 79.1296L20.8544 74.9871Z" fill="#F2F2F2"/>
<path d="M11.7258 47.0703H19.5445V52.9297H11.7258V47.0703Z" fill="#F2F2F2"/>
<path d="M20.8596 25.0078L25.0022 20.8652L30.5301 26.393L26.3875 30.5356L20.8596 25.0078Z" fill="#F2F2F2"/>
<path d="M70.682 52.9297H47.0703V29.318H52.9297V47.0703H70.682V52.9297Z" fill="#F2F2F2"/>
</svg>
