<svg width="43" height="43" viewBox="0 0 43 43" fill="none" xmlns="http://www.w3.org/2000/svg">
<path d="M40.8164 27.6746H30.4118C30.5569 22.2875 30.999 18.2078 31.728 15.5338C31.8513 15.5657 31.9781 15.5825 32.1055 15.5838C32.3582 15.5833 32.6071 15.5227 32.8316 15.4069C33.0562 15.2911 33.25 15.1235 33.3969 14.918C35.8099 14.623 37.1036 16.2386 38.7658 18.7168C38.8382 18.8253 38.9445 18.9066 39.0681 18.9481C39.1918 18.9895 39.3257 18.9887 39.4488 18.9457C39.5719 18.9028 39.6772 18.8201 39.7482 18.7107C39.8191 18.6013 39.8517 18.4715 39.8408 18.3415C39.8274 18.1783 39.5694 15.31 37.9808 13.3891C38.8586 13.7601 39.7078 14.1954 40.5215 14.6916C40.634 14.7571 40.7651 14.7834 40.8942 14.7663C41.0233 14.7493 41.143 14.6898 41.2347 14.5974C41.3264 14.5049 41.3847 14.3846 41.4007 14.2554C41.4166 14.1261 41.3891 13.9953 41.3227 13.8833C41.232 13.7305 39.0648 10.1346 35.9379 9.82418C34.9031 9.72965 33.8671 9.99315 33.0032 10.5706C33.1871 9.52742 33.0028 8.45272 32.4818 7.5304C30.9062 4.80393 26.7218 4.32556 26.5448 4.30674C26.4153 4.2927 26.2849 4.32203 26.1739 4.39012C26.063 4.45821 25.9777 4.56121 25.9316 4.68296C25.8855 4.80471 25.8811 4.93833 25.9191 5.06285C25.9571 5.18737 26.0354 5.29575 26.1416 5.37099C27.1138 6.00792 28.0098 6.75396 28.8124 7.59456C26.1292 6.55887 22.7682 8.13206 22.5864 8.21739C22.4689 8.27352 22.3733 8.3671 22.3147 8.48344C22.256 8.59979 22.2377 8.73231 22.2626 8.86018C22.2875 8.98806 22.3541 9.10405 22.4521 9.18994C22.55 9.27584 22.6737 9.32676 22.8038 9.33472C23.7574 9.37357 24.7068 9.4835 25.6441 9.6636C23.2539 10.3765 21.4449 12.6215 21.3441 12.7499C21.2641 12.8519 21.22 12.9776 21.2188 13.1073C21.2176 13.237 21.2594 13.3635 21.3375 13.467C21.4157 13.5705 21.5259 13.6453 21.651 13.6796C21.7761 13.7139 21.909 13.706 22.0291 13.6569C25.0556 12.4072 27.0346 11.7961 29.0018 13.8554C29.0606 13.9164 29.1319 13.9638 29.2108 13.9945C29.2529 14.0408 29.2978 14.0845 29.3451 14.1255C27.5311 17.9304 26.5804 23.4491 26.0923 27.6729H2.18359C2.02768 27.6729 1.87814 27.7348 1.76789 27.8451C1.65764 27.9553 1.5957 28.1048 1.5957 28.2608C1.5957 28.4167 1.65764 28.5662 1.76789 28.6765C1.87814 28.7867 2.02768 28.8487 2.18359 28.8487H25.9646C25.8732 29.7416 25.795 30.6291 25.7328 31.4811C25.5475 31.4613 25.3612 31.4509 25.1748 31.4498H22.7181C21.5578 31.4502 20.4264 31.812 19.4812 32.485C18.536 33.1579 17.8239 34.1086 17.4439 35.2049C17.4133 35.2935 17.4044 35.3881 17.4178 35.4808C17.4312 35.5735 17.4665 35.6617 17.5209 35.738C17.5752 35.8143 17.647 35.8766 17.7303 35.9195C17.8135 35.9625 17.9058 35.9849 17.9995 35.985H29.8917H29.9001H34.872C34.9658 35.985 35.0582 35.9625 35.1415 35.9195C35.2248 35.8765 35.2966 35.8142 35.351 35.7378C35.4053 35.6614 35.4406 35.5731 35.4539 35.4803C35.4672 35.3875 35.4581 35.2928 35.4273 35.2043C35.102 34.2685 34.4937 33.4572 33.6866 32.8827C32.8795 32.3082 31.9137 31.9991 30.923 31.9981H30.352C30.352 30.8559 30.3627 29.8178 30.3832 28.8503H40.8164C40.9723 28.8503 41.1219 28.7884 41.2321 28.6781C41.3424 28.5679 41.4043 28.4184 41.4043 28.2624C41.4043 28.1065 41.3424 27.957 41.2321 27.8467C41.1219 27.7365 40.9723 27.6746 40.8164 27.6746ZM30.3936 12.5137C30.4886 12.5155 30.5801 12.5501 30.6526 12.6115C30.6045 12.7065 30.5836 12.813 30.5924 12.9192C30.6012 13.0253 30.6392 13.127 30.7023 13.2128C30.6637 13.2566 30.6162 13.2919 30.563 13.3161C30.5098 13.3404 30.4521 13.3531 30.3936 13.3535C30.2822 13.3535 30.1754 13.3093 30.0967 13.2305C30.0179 13.1518 29.9737 13.045 29.9737 12.9336C29.9737 12.8222 30.0179 12.7154 30.0967 12.6367C30.1754 12.5579 30.2822 12.5137 30.3936 12.5137ZM32.1069 14.408C32.0238 14.408 31.9427 14.3834 31.8736 14.3373C31.8045 14.2911 31.7507 14.2256 31.7189 14.1488C31.6872 14.0721 31.6788 13.9877 31.695 13.9062C31.7112 13.8247 31.7512 13.7499 31.81 13.6912C31.8687 13.6325 31.9435 13.5925 32.025 13.5763C32.1064 13.5601 32.1909 13.5684 32.2676 13.6002C32.3443 13.632 32.4099 13.6858 32.456 13.7548C32.5022 13.8239 32.5268 13.9051 32.5268 13.9881C32.5268 14.0434 32.5158 14.0981 32.4946 14.1491C32.4734 14.2001 32.4424 14.2464 32.4032 14.2854C32.3641 14.3244 32.3177 14.3553 32.2666 14.3764C32.2155 14.3974 32.1608 14.4082 32.1055 14.408H32.1069ZM33.6744 13.709C33.6264 13.4451 33.5121 13.1978 33.3421 12.9904C33.4093 12.9749 33.4782 12.9568 33.5437 12.9434C34.1501 12.813 34.7787 12.8273 35.3786 12.985C35.3877 12.9877 35.3967 12.9901 35.4065 12.9921C36.7166 13.3791 37.5125 14.5562 37.9888 15.7175C36.8221 14.4201 35.5146 13.6055 33.673 13.709H33.6744ZM35.819 10.9939C36.8285 11.149 37.7646 11.6148 38.4971 12.3266C37.5808 11.9169 36.5762 11.7444 35.5758 11.825C34.8365 11.6466 34.0668 11.6338 33.322 11.7874L33.3146 11.7894C34.0171 11.215 34.9124 10.9305 35.8177 10.9939H35.819ZM31.4649 8.12131C32.0276 9.09788 32.0202 10.3214 31.4589 11.7545C31.2937 11.6055 31.0992 11.4929 30.8878 11.4239C31.0324 10.8024 31.0682 10.1606 30.9936 9.52688C30.9936 9.51713 30.9896 9.50806 30.9886 9.49832L30.9855 9.4822C30.8065 8.17607 30.1269 7.16423 29.1379 6.23166C30.092 6.60291 30.9058 7.26374 31.4649 8.12131ZM29.837 9.81612C29.8577 10.0235 29.8614 10.2323 29.848 10.4403C29.4403 10.121 28.9839 9.86928 28.4962 9.69484C27.7161 9.07808 26.7943 8.66606 25.8144 8.49622C27.2237 8.30709 28.8517 8.47069 29.837 9.81612ZM24.3323 11.5996C25.3784 10.8925 26.704 10.3509 28.0232 10.7725C28.5596 10.9556 29.0491 11.2545 29.457 11.648C29.2407 11.8057 29.0674 12.0153 28.9531 12.2574C27.5066 11.214 25.9915 11.1757 24.3323 11.5996ZM22.7198 32.6273H25.1765C25.9459 32.6278 26.7017 32.8296 27.369 33.2127C28.0362 33.5957 28.5916 34.1467 28.98 34.8109H24.9131H18.9143C19.3026 34.1466 19.8581 33.5956 20.5254 33.2125C21.1927 32.8294 21.9487 32.6277 22.7181 32.6273H22.7198ZM33.9378 34.8109H30.2932C30.0292 34.2049 29.6592 33.6509 29.2007 33.1749H30.923C31.5217 33.1751 32.1107 33.3248 32.6369 33.6103C33.163 33.8958 33.6096 34.3081 33.9361 34.8099L33.9378 34.8109ZM28.8651 31.9991C28.5107 31.9994 28.1574 32.0397 27.8119 32.119C27.519 31.9603 27.2124 31.8281 26.8958 31.7243C26.9734 30.6358 27.0772 29.4735 27.2022 28.3276C27.6661 24.0948 28.6084 18.3325 30.4608 14.5236C30.5095 14.5216 30.5572 14.5155 30.6049 14.5092C30.6365 14.5996 30.6762 14.6869 30.7235 14.7702L30.6818 14.9066C29.8346 17.8047 29.3569 22.1699 29.2202 28.2473C29.191 29.3845 29.1762 30.6167 29.1755 31.9981L28.8651 31.9991Z" fill="#F2F2F2"/>
<path d="M32.4771 24.4418C32.3212 24.4418 32.1716 24.5037 32.0614 24.614C31.9511 24.7242 31.8892 24.8738 31.8892 25.0297C31.8892 25.1856 31.9511 25.3351 32.0614 25.4454C32.1716 25.5556 32.3212 25.6176 32.4771 25.6176H36.5319C36.6878 25.6176 36.8373 25.5556 36.9476 25.4454C37.0578 25.3351 37.1198 25.1856 37.1198 25.0297C37.1198 24.8738 37.0578 24.7242 36.9476 24.614C36.8373 24.5037 36.6878 24.4418 36.5319 24.4418H32.4771Z" fill="#F2F2F2"/>
<path d="M19.4004 25.6176H22.6422C22.7981 25.6176 22.9476 25.5556 23.0579 25.4454C23.1681 25.3351 23.2301 25.1856 23.2301 25.0297C23.2301 24.8738 23.1681 24.7242 23.0579 24.614C22.9476 24.5037 22.7981 24.4418 22.6422 24.4418H19.4004C19.2445 24.4418 19.0949 24.5037 18.9847 24.614C18.8744 24.7242 18.8125 24.8738 18.8125 25.0297C18.8125 25.1856 18.8744 25.3351 18.9847 25.4454C19.0949 25.5556 19.2445 25.6176 19.4004 25.6176Z" fill="#F2F2F2"/>
<path d="M8.1186 24.4418C7.96268 24.4418 7.81315 24.5037 7.7029 24.614C7.59265 24.7242 7.53071 24.8738 7.53071 25.0297C7.53071 25.1856 7.59265 25.3351 7.7029 25.4454C7.81315 25.5556 7.96268 25.6176 8.1186 25.6176H15.1172C15.2731 25.6176 15.4226 25.5556 15.5329 25.4454C15.6431 25.3351 15.7051 25.1856 15.7051 25.0297C15.7051 24.8738 15.6431 24.7242 15.5329 24.614C15.4226 24.5037 15.2731 24.4418 15.1172 24.4418H8.1186Z" fill="#F2F2F2"/>
<path d="M20.2708 21.7966C20.2708 21.9526 20.3327 22.1021 20.443 22.2123C20.5532 22.3226 20.7028 22.3845 20.8587 22.3845H25.0693C25.2253 22.3845 25.3748 22.3226 25.485 22.2123C25.5953 22.1021 25.6572 21.9526 25.6572 21.7966C25.6572 21.6407 25.5953 21.4912 25.485 21.3809C25.3748 21.2707 25.2253 21.2087 25.0693 21.2087H20.8587C20.7028 21.2088 20.5533 21.2708 20.4431 21.381C20.3328 21.4913 20.2709 21.6407 20.2708 21.7966Z" fill="#F2F2F2"/>
<path d="M39.8422 21.7966C39.8421 21.6407 39.7801 21.4913 39.6699 21.381C39.5597 21.2708 39.4102 21.2088 39.2543 21.2087H34.311C34.1551 21.2087 34.0055 21.2707 33.8953 21.3809C33.785 21.4912 33.7231 21.6407 33.7231 21.7966C33.7231 21.9526 33.785 22.1021 33.8953 22.2123C34.0055 22.3226 34.1551 22.3845 34.311 22.3845H39.2543C39.4102 22.3845 39.5597 22.3226 39.67 22.2123C39.7802 22.1021 39.8422 21.9526 39.8422 21.7966Z" fill="#F2F2F2"/>
<path d="M13.4654 21.7966C13.4654 21.9526 13.5273 22.1021 13.6376 22.2123C13.7478 22.3226 13.8974 22.3845 14.0533 22.3845H17.5023C17.6583 22.3845 17.8078 22.3226 17.918 22.2123C18.0283 22.1021 18.0902 21.9526 18.0902 21.7966C18.0902 21.6407 18.0283 21.4912 17.918 21.3809C17.8078 21.2707 17.6583 21.2087 17.5023 21.2087H14.0533C13.8974 21.2088 13.7479 21.2708 13.6377 21.381C13.5274 21.4913 13.4655 21.6407 13.4654 21.7966Z" fill="#F2F2F2"/>
<path d="M5.03705 22.3845H9.2104C9.36632 22.3845 9.51585 22.3226 9.6261 22.2123C9.73635 22.1021 9.79829 21.9526 9.79829 21.7966C9.79829 21.6407 9.73635 21.4912 9.6261 21.3809C9.51585 21.2707 9.36632 21.2087 9.2104 21.2087H5.03705C4.88113 21.2087 4.7316 21.2707 4.62135 21.3809C4.5111 21.4912 4.44916 21.6407 4.44916 21.7966C4.44916 21.9526 4.5111 22.1021 4.62135 22.2123C4.7316 22.3226 4.88113 22.3845 5.03705 22.3845Z" fill="#F2F2F2"/>
<path d="M19.9883 19.1518H24.4395C24.5954 19.1518 24.7449 19.0899 24.8552 18.9796C24.9654 18.8694 25.0273 18.7198 25.0273 18.5639C25.0273 18.408 24.9654 18.2585 24.8552 18.1482C24.7449 18.038 24.5954 17.976 24.4395 17.976H19.9883C19.8324 17.976 19.6828 18.038 19.5726 18.1482C19.4623 18.2585 19.4004 18.408 19.4004 18.5639C19.4004 18.7198 19.4623 18.8694 19.5726 18.9796C19.6828 19.0899 19.8324 19.1518 19.9883 19.1518Z" fill="#F2F2F2"/>
<path d="M12.2617 17.976C12.1058 17.976 11.9563 18.038 11.846 18.1482C11.7358 18.2585 11.6738 18.408 11.6738 18.5639C11.6738 18.7198 11.7358 18.8694 11.846 18.9796C11.9563 19.0899 12.1058 19.1518 12.2617 19.1518H16.1586C16.3145 19.1518 16.464 19.0899 16.5743 18.9796C16.6845 18.8694 16.7465 18.7198 16.7465 18.5639C16.7465 18.408 16.6845 18.2585 16.5743 18.1482C16.464 18.038 16.3145 17.976 16.1586 17.976H12.2617Z" fill="#F2F2F2"/>
<path d="M6.76242 7.26297H7.69095C7.77993 7.80882 7.9949 8.32642 8.31882 8.77469L7.65937 9.43413C7.6048 9.4887 7.56151 9.55349 7.53198 9.62479C7.50245 9.69609 7.48725 9.77251 7.48725 9.84969C7.48725 9.92686 7.50245 10.0033 7.53198 10.0746C7.56151 10.1459 7.6048 10.2107 7.65937 10.2652C7.71395 10.3198 7.77873 10.3631 7.85003 10.3926C7.92133 10.4222 7.99775 10.4374 8.07493 10.4374C8.1521 10.4374 8.22852 10.4222 8.29983 10.3926C8.37113 10.3631 8.43591 10.3198 8.49048 10.2652L9.14892 9.6068C9.59731 9.93058 10.1148 10.1456 10.6606 10.235V11.1632C10.6606 11.2404 10.6758 11.3169 10.7054 11.3882C10.7349 11.4595 10.7782 11.5243 10.8328 11.5789C10.8874 11.6335 10.9522 11.6768 11.0236 11.7063C11.0949 11.7359 11.1713 11.7511 11.2485 11.7511C11.3257 11.7511 11.4022 11.7359 11.4735 11.7063C11.5448 11.6768 11.6096 11.6335 11.6642 11.5789C11.7188 11.5243 11.7621 11.4595 11.7917 11.3882C11.8212 11.3169 11.8364 11.2404 11.8364 11.1632V10.235C12.3823 10.1455 12.8998 9.93017 13.3481 9.60613L14.0099 10.2659C14.121 10.3729 14.2696 10.4319 14.4237 10.4304C14.5778 10.4288 14.7252 10.3668 14.8341 10.2576C14.9429 10.1485 15.0045 10.0009 15.0057 9.84676C15.0068 9.69261 14.9473 9.54418 14.84 9.43346L14.1829 8.77469C14.5065 8.32626 14.7214 7.80872 14.8105 7.26297H15.742C15.8979 7.26297 16.0475 7.20103 16.1577 7.09078C16.268 6.98053 16.3299 6.831 16.3299 6.67508C16.3299 6.51916 16.268 6.36963 16.1577 6.25938C16.0475 6.14913 15.8979 6.08719 15.742 6.08719H14.8105C14.7214 5.54144 14.5065 5.0239 14.1829 4.57547L14.8437 3.9167C14.951 3.80597 15.0105 3.65755 15.0093 3.5034C15.0082 3.34925 14.9466 3.2017 14.8378 3.09255C14.7289 2.98339 14.5815 2.92135 14.4274 2.9198C14.2732 2.91824 14.1247 2.9773 14.0136 3.08424L13.3518 3.74369C12.9034 3.41989 12.3859 3.20472 11.8401 3.11515V2.18359C11.8401 2.02768 11.7782 1.87814 11.6679 1.76789C11.5577 1.65764 11.4081 1.5957 11.2522 1.5957C11.0963 1.5957 10.9468 1.65764 10.8365 1.76789C10.7263 1.87814 10.6643 2.02768 10.6643 2.18359V3.11515C10.1185 3.20451 9.601 3.41957 9.15262 3.74335L8.49418 3.08491C8.43961 3.0301 8.37477 2.98657 8.30338 2.95681C8.23199 2.92706 8.15543 2.91165 8.07808 2.91148C8.00074 2.91131 7.92411 2.92637 7.85259 2.95581C7.78106 2.98525 7.71604 3.02849 7.66122 3.08307C7.60641 3.13764 7.56288 3.20247 7.53312 3.27386C7.50336 3.34526 7.48796 3.42182 7.48779 3.49916C7.48762 3.57651 7.50268 3.65313 7.53212 3.72466C7.56156 3.79618 7.6048 3.86121 7.65937 3.91602L8.31781 4.57446C7.99397 5.02277 7.779 5.54035 7.68994 6.08618H6.76242C6.6065 6.08618 6.45697 6.14812 6.34672 6.25837C6.23647 6.36862 6.17453 6.51815 6.17453 6.67407C6.17453 6.82999 6.23647 6.97952 6.34672 7.08977C6.45697 7.20002 6.6065 7.26196 6.76242 7.26196V7.26297ZM9.52954 4.95407C9.92758 4.55735 10.4508 4.31087 11.0102 4.2566C11.5695 4.20233 12.1304 4.34362 12.5973 4.65642C13.0642 4.96923 13.4082 5.43419 13.5708 5.97215C13.7334 6.5101 13.7044 7.08777 13.4889 7.6068C13.2734 8.12582 12.8847 8.5541 12.3889 8.81871C11.8931 9.08332 11.3209 9.16789 10.7698 9.05803C10.2187 8.94816 9.72266 8.65065 9.36623 8.21616C9.0098 7.78167 8.815 7.23706 8.815 6.67508C8.81439 6.35522 8.87723 6.03841 8.99988 5.743C9.12253 5.44759 9.30256 5.17944 9.52954 4.95407Z" fill="#F2F2F2"/>
<path d="M9.2104 32.166C9.58147 32.166 9.88227 31.8652 9.88227 31.4941C9.88227 31.1231 9.58147 30.8223 9.2104 30.8223C8.83933 30.8223 8.53852 31.1231 8.53852 31.4941C8.53852 31.8652 8.83933 32.166 9.2104 32.166Z" fill="#F2F2F2"/>
<path d="M12.7992 35.3987C13.1703 35.3987 13.4711 35.0979 13.4711 34.7269C13.4711 34.3558 13.1703 34.055 12.7992 34.055C12.4282 34.055 12.1273 34.3558 12.1273 34.7269C12.1273 35.0979 12.4282 35.3987 12.7992 35.3987Z" fill="#F2F2F2"/>
<path d="M16.8305 32.8379C17.2015 32.8379 17.5023 32.5371 17.5023 32.166C17.5023 31.7949 17.2015 31.4941 16.8305 31.4941C16.4594 31.4941 16.1586 31.7949 16.1586 32.166C16.1586 32.5371 16.4594 32.8379 16.8305 32.8379Z" fill="#F2F2F2"/>
<path d="M24.727 38.1289C25.0981 38.1289 25.3989 37.8281 25.3989 37.457C25.3989 37.086 25.0981 36.7852 24.727 36.7852C24.356 36.7852 24.0551 37.086 24.0551 37.457C24.0551 37.8281 24.356 38.1289 24.727 38.1289Z" fill="#F2F2F2"/>
<path d="M30.653 39.3467C31.024 39.3467 31.3248 39.0459 31.3248 38.6748C31.3248 38.3037 31.024 38.0029 30.653 38.0029C30.2819 38.0029 29.9811 38.3037 29.9811 38.6748C29.9811 39.0459 30.2819 39.3467 30.653 39.3467Z" fill="#F2F2F2"/>
<path d="M34.6177 38.6748C34.9888 38.6748 35.2896 38.374 35.2896 38.0029C35.2896 37.6319 34.9888 37.3311 34.6177 37.3311C34.2466 37.3311 33.9458 37.6319 33.9458 38.0029C33.9458 38.374 34.2466 38.6748 34.6177 38.6748Z" fill="#F2F2F2"/>
<path d="M37.2037 32.166C37.5748 32.166 37.8756 31.8652 37.8756 31.4941C37.8756 31.1231 37.5748 30.8223 37.2037 30.8223C36.8327 30.8223 36.5319 31.1231 36.5319 31.4941C36.5319 31.8652 36.8327 32.166 37.2037 32.166Z" fill="#F2F2F2"/>
<path d="M16.9077 37.4167H14.8484C14.4953 37.4172 14.1434 37.4576 13.7993 37.537C12.9887 37.0994 12.0821 36.8699 11.1609 36.8691H8.70381C7.54348 36.8694 6.41206 37.2312 5.46683 37.9042C4.5216 38.5771 3.80952 39.5279 3.42959 40.6243C3.39895 40.7128 3.38994 40.8074 3.40329 40.9002C3.41665 40.9929 3.45198 41.0812 3.50635 41.1575C3.56072 41.2338 3.63255 41.296 3.71585 41.339C3.79916 41.3819 3.89151 41.4043 3.98523 41.4043H20.8584C20.952 41.4043 21.0444 41.3819 21.1276 41.339C21.2109 41.2961 21.2827 41.2339 21.3371 41.1576C21.3914 41.0813 21.4268 40.9931 21.4401 40.9004C21.4535 40.8077 21.4446 40.7131 21.414 40.6246C21.0896 39.6878 20.4813 38.8753 19.6736 38.3004C18.8659 37.7254 17.8991 37.4166 16.9077 37.4167ZM4.89999 40.2285C5.28837 39.5643 5.84381 39.0133 6.51112 38.6302C7.17843 38.2471 7.93436 38.0453 8.70381 38.0449H11.1609C11.9303 38.0452 12.6863 38.247 13.3536 38.6301C14.0209 39.0131 14.5764 39.5642 14.9647 40.2285H4.89999ZM16.2795 40.2285C16.0159 39.6225 15.6462 39.0685 15.1877 38.5925H16.9077C17.5067 38.5925 18.0962 38.7421 18.6226 39.0278C19.1491 39.3135 19.5958 39.7263 19.9221 40.2285H16.2795Z" fill="#F2F2F2"/>
</svg>
