<?xml version="1.0" encoding="UTF-8" standalone="no"?>
<!-- Created with Inkscape (http://www.inkscape.org/) -->

<svg
   xmlns:dc="http://purl.org/dc/elements/1.1/"
   xmlns:cc="http://creativecommons.org/ns#"
   xmlns:rdf="http://www.w3.org/1999/02/22-rdf-syntax-ns#"
   xmlns:svg="http://www.w3.org/2000/svg"
   xmlns="http://www.w3.org/2000/svg"
   xmlns:sodipodi="http://sodipodi.sourceforge.net/DTD/sodipodi-0.dtd"
   xmlns:inkscape="http://www.inkscape.org/namespaces/inkscape"
   version="1.1"
   id="svg2"
   width="50.800961"
   height="50.113781"
   viewBox="0 0 50.800961 50.113781"
   sodipodi:docname="logo.svg"
   inkscape:version="0.92.2 (5c3e80d, 2017-08-06)">
  <metadata
     id="metadata8">
    <rdf:RDF>
      <cc:Work
         rdf:about="">
        <dc:format>image/svg+xml</dc:format>
        <dc:type
           rdf:resource="http://purl.org/dc/dcmitype/StillImage" />
        <dc:title></dc:title>
      </cc:Work>
    </rdf:RDF>
  </metadata>
  <defs
     id="defs6" />
  <sodipodi:namedview
     pagecolor="#ffffff"
     bordercolor="#666666"
     borderopacity="1"
     objecttolerance="10"
     gridtolerance="10"
     guidetolerance="10"
     inkscape:pageopacity="0"
     inkscape:pageshadow="2"
     inkscape:window-width="1366"
     inkscape:window-height="715"
     id="namedview4"
     showgrid="false"
     fit-margin-top="0"
     fit-margin-left="0"
     fit-margin-right="0"
     fit-margin-bottom="0"
     inkscape:zoom="7.4167645"
     inkscape:cx="50.082322"
     inkscape:cy="5.2447596"
     inkscape:window-x="-8"
     inkscape:window-y="-8"
     inkscape:window-maximized="1"
     inkscape:current-layer="svg2" />
  <path
     style="fill:#94774a;fill-opacity:1;stroke-width:1"
     d="M 25.424006,0 C 23.041841,0 20.659808,0.21823 19.031428,0.6543 10.009618,3.07031 3.1176626,9.85598 0.6642405,18.74024 c -0.885654,3.2071 -0.885654,9.38469 0,12.5918 2.6589241,9.62842 10.3315875,16.61289 20.3105465,18.49023 2.783748,0.5237 7.912088,0.31904 10.841797,-0.43164 8.922467,-2.28619 15.905858,-9.15277 18.365234,-18.05859 0.501819,-1.81718 0.619141,-3.00325 0.619141,-6.29688 0,-3.29363 -0.117322,-4.47775 -0.619141,-6.29492 C 47.728395,9.85598 40.838394,3.07031 31.816584,0.6543 30.188203,0.21823 27.806171,0 25.424006,0 Z"
     id="path5113"
     inkscape:connector-curvature="0" />
  <path
     style="fill:#94774a;fill-opacity:1;stroke-width:1"
     d="m 6.0703632,24.00996 v 4.27735 c -0.239848,-1.44268 -0.238202,-2.87597 0,-4.27735 z"
     id="path817"
     inkscape:connector-curvature="0" />
  <g
     transform="matrix(0.38534493,0.08542891,-0.09250411,0.41725914,-49.063792,-4.06371)"
     id="layer1"
     style="fill:#ffffff;fill-opacity:1;stroke-width:9.20219231">
    <path
       id="path4242"
       d="M 183.75565,67.66426 C 168.38713,65.26445 156.86028,55.03557 153.0906,40.45215 149.53402,26.69314 156.86668,9.530633 169.00183,3.21099 c 7.71732,-4.01900102 15.21922,-4.259259 29.76641,-0.953334 l 1.5303,0.348073 -1.59519,-2.08243002 C 194.97897,-4.338708 193.70474,-8.444332 195.11006,-11.054484 c 0.73619,-1.367271 4.28103,-3.277103 7.27639,-3.920201 2.03571,-0.437426 2.07163,-0.410048 1.71099,1.298374 -1.00087,4.740581 -1.78716,12.374232 -1.42308,13.81615498 0.73547,2.91274802 2.29454,3.15438102 8.57243,1.32870802 3.09851,-0.90108202 6.73855,-1.90817202 8.08898,-2.23794002 2.89566,-0.70694898 9.78913,-0.224841 14.11807,0.987273 l 3.06912,0.85951302 -3.37601,0.09732 c -1.85685,0.05048 -3.89757,0.301232 -4.53491,0.549857 -0.94649,0.36896 -0.64017,0.649295 1.67075,1.526376 3.75227,1.424415 8.31793,5.590433 10.54373,9.620815 1.65204,2.991515 1.8127,3.822197 1.92893,9.97479 l 0.12687,6.711594 -0.5684,-4.564734 c -0.7105,-5.706526 -2.81762,-10.082674 -6.46325,-13.42291 -2.50529,-2.295447 -9.1772,-5.983168 -9.76604,-5.39787 -0.1276,0.126836 0.58217,1.870777 1.57585,3.875961 1.20465,2.429992 1.91667,4.968516 2.13503,7.611811 l 0.32771,3.965894 -1.23728,-3.050681 c -0.68077,-1.67793 -2.07138,-4.055532 -3.09087,-5.283722 -3.23594,-3.898292 -10.13562,-6.411588 -13.78263,-5.020474 -0.86363,0.329337 -0.82454,0.62119 0.33271,2.482167 l 1.31127,2.108953 -2.36872,-1.261911 c -1.3028,-0.693977 -3.2015,-1.261696 -4.21932,-1.26148 -5.49366,9.82e-4 -16.45005,8.466925 -19.93816,15.405312 -1.02401,2.036954 -1.86183,4.224954 -1.86183,4.862354 0,2.17417 -1.15557,0.45617 -1.57844,-2.34712 -0.81809,-5.422581 1.328,-13.518453 4.73195,-17.850784 1.92566,-2.45082 1.50376,-2.720127 -3.59091,-2.292069 -6.7007,0.562819 -11.25371,2.818132 -16.77972,8.310913 -4.71146,4.683144 -4.9423,4.398342 -1.77301,-2.187721 0.98599,-2.048913 3.19141,-5.137785 4.90095,-6.864079 1.70954,-1.726284 2.88578,-3.136076 2.61388,-3.132973 -1.45261,0.01444 -7.1172,3.977276 -9.57482,6.694368 -4.73106,5.230467 -6.70985,12.793285 -5.82993,22.281645 1.11938,12.07033 10.22459,21.63904 25.34548,26.63566 3.4478,1.13933 5.63093,1.42096 11.0489,1.42535 6.04129,0.005 7.12023,-0.16646 10.2488,-1.62375 4.17471,-1.94514 8.42615,-5.99808 10.55218,-10.0596 2.03763,-3.89268 2.04335,-2.88745 0.008,1.38931 -0.87771,1.84419 -3.06357,4.84738 -4.85745,6.67377 -3.61348,3.67886 -3.49336,3.77838 2.92827,2.42574 6.1307,-1.29131 11.98744,-4.62996 17.65863,-10.06623 2.69234,-2.58076 4.89509,-4.49528 4.89509,-4.25437 0,0.94944 -5.51706,7.75869 -8.66455,10.69384 -8.567,7.98907 -29.72599,13.40294 -43.79584,11.20593 z"
       style="fill:#ffffff;fill-opacity:1;stroke-width:5.7174921"
       inkscape:connector-curvature="0" />
  </g>
</svg>
