<?xml version="1.0" encoding="UTF-8" standalone="no"?>
<!-- Created with Inkscape (http://www.inkscape.org/) -->

<svg
   xmlns:dc="http://purl.org/dc/elements/1.1/"
   xmlns:cc="http://creativecommons.org/ns#"
   xmlns:rdf="http://www.w3.org/1999/02/22-rdf-syntax-ns#"
   xmlns:svg="http://www.w3.org/2000/svg"
   xmlns="http://www.w3.org/2000/svg"
   xmlns:sodipodi="http://sodipodi.sourceforge.net/DTD/sodipodi-0.dtd"
   xmlns:inkscape="http://www.inkscape.org/namespaces/inkscape"
   version="1.1"
   id="svg2"
   width="191.524"
   height="61.737999"
   viewBox="0 0 191.524 61.737999"
   sodipodi:docname="logo.svg"
   inkscape:version="0.92.2 (5c3e80d, 2017-08-06)">
  <metadata
     id="metadata8">
    <rdf:RDF>
      <cc:Work
         rdf:about="">
        <dc:format>image/svg+xml</dc:format>
        <dc:type
           rdf:resource="http://purl.org/dc/dcmitype/StillImage" />
        <dc:title></dc:title>
      </cc:Work>
    </rdf:RDF>
  </metadata>
  <defs
     id="defs6" />
  <sodipodi:namedview
     pagecolor="#ffffff"
     bordercolor="#666666"
     borderopacity="1"
     objecttolerance="10"
     gridtolerance="10"
     guidetolerance="10"
     inkscape:pageopacity="0"
     inkscape:pageshadow="2"
     inkscape:window-width="1366"
     inkscape:window-height="715"
     id="namedview4"
     showgrid="false"
     fit-margin-top="0"
     fit-margin-left="0"
     fit-margin-right="0"
     fit-margin-bottom="0"
     inkscape:zoom="0.66757907"
     inkscape:cx="216.99129"
     inkscape:cy="-33.911553"
     inkscape:window-x="-8"
     inkscape:window-y="-8"
     inkscape:window-maximized="1"
     inkscape:current-layer="g14" />
  <g
     id="g14"
     transform="translate(-0.34703,-193.05404)">
    <g
       id="g4536"
       transform="matrix(0.24044968,0,0,0.24427716,0.26358675,193.04072)"
       style="stroke-width:4.12616396">
      <path
         inkscape:connector-curvature="0"
         id="path18"
         d="m 678.27083,208.39583 c 0.33229,-0.33229 1.1948,-0.36781 1.91667,-0.0789 0.79773,0.31922 0.56078,0.55618 -0.60417,0.60416 -1.05416,0.0434 -1.64479,-0.19292 -1.3125,-0.52522 z m 14,0 c 0.33229,-0.33229 1.1948,-0.36781 1.91667,-0.0789 0.79773,0.31922 0.56078,0.55618 -0.60417,0.60416 -1.05416,0.0434 -1.64479,-0.19292 -1.3125,-0.52522 z M 368.4508,173 c 0,-19.525 0.13396,-27.5125 0.29768,-17.75 0.16372,9.7625 0.16372,25.7375 0,35.5 -0.16372,9.7625 -0.29768,1.775 -0.29768,-17.75 z m 14.92327,24.5 c -0.002,-6.05 0.1606,-8.65393 0.36191,-5.78651 0.2013,2.86742 0.20315,7.81742 0.004,11 -0.19905,3.18258 -0.36376,0.83651 -0.36601,-5.21349 z M 520.4508,173 c 0,-19.525 0.13396,-27.5125 0.29768,-17.75 0.16372,9.7625 0.16372,25.7375 0,35.5 -0.16372,9.7625 -0.29768,1.775 -0.29768,-17.75 z m 14.92327,24.5 c -0.002,-6.05 0.1606,-8.65393 0.36191,-5.78651 0.2013,2.86742 0.20315,7.81742 0.004,11 -0.19905,3.18258 -0.36376,0.83651 -0.36601,-5.21349 z M 737.4508,173 c 0,-19.525 0.13396,-27.5125 0.29768,-17.75 0.16372,9.7625 0.16372,25.7375 0,35.5 -0.16372,9.7625 -0.29768,1.775 -0.29768,-17.75 z m 14.94659,21 c 0,-7.975 0.1553,-11.2375 0.34512,-7.25 0.18981,3.9875 0.18981,10.5125 0,14.5 -0.18982,3.9875 -0.34512,0.725 -0.34512,-7.25 z m 29,0 c 0,-7.975 0.1553,-11.2375 0.34512,-7.25 0.18981,3.9875 0.18981,10.5125 0,14.5 -0.18982,3.9875 -0.34512,0.725 -0.34512,-7.25 z m 15.05341,-21 c 0,-19.525 0.13396,-27.5125 0.29768,-17.75 0.16372,9.7625 0.16372,25.7375 0,35.5 -0.16372,9.7625 -0.29768,1.775 -0.29768,-17.75 z m -137.57836,25.25 c -1.24387,-1.58606 -1.2085,-1.62143 0.37756,-0.37756 1.66575,1.30637 2.19548,2.12756 1.37244,2.12756 -0.20765,0 -0.99515,-0.7875 -1.75,-1.75 z M 671.5,189 c -1.5808,-1.65 -2.64918,-3 -2.37418,-3 0.275,0 1.79338,1.35 3.37418,3 1.5808,1.65 2.64918,3 2.37418,3 -0.275,0 -1.79338,-1.35 -3.37418,-3 z m -119.75,-2.66228 c 0.6875,-0.27741 1.8125,-0.27741 2.5,0 0.6875,0.27741 0.125,0.50439 -1.25,0.50439 -1.375,0 -1.9375,-0.22698 -1.25,-0.50439 z M 389,180.5 c 1.29175,-1.375 2.57363,-2.5 2.84863,-2.5 0.275,0 -0.55688,1.125 -1.84863,2.5 -1.29175,1.375 -2.57363,2.5 -2.84863,2.5 -0.275,0 0.55688,-1.125 1.84863,-2.5 z M 649.29966,173 c 0,-3.025 0.18747,-4.2625 0.41659,-2.75 0.22913,1.5125 0.22913,3.9875 0,5.5 -0.22912,1.5125 -0.41659,0.275 -0.41659,-2.75 z m 16,0 c 0,-3.025 0.18747,-4.2625 0.41659,-2.75 0.22913,1.5125 0.22913,3.9875 0,5.5 -0.22912,1.5125 -0.41659,0.275 -0.41659,-2.75 z m 42,0 c 0,-3.025 0.18747,-4.2625 0.41659,-2.75 0.22913,1.5125 0.22913,3.9875 0,5.5 -0.22912,1.5125 -0.41659,0.275 -0.41659,-2.75 z m 16,0 c 0,-3.025 0.18747,-4.2625 0.41659,-2.75 0.22913,1.5125 0.22913,3.9875 0,5.5 -0.22912,1.5125 -0.41659,0.275 -0.41659,-2.75 z m -187.86941,-0.32118 c -0.27884,-0.72665 -0.3589,-5.78915 -0.17791,-11.25 l 0.32908,-9.92882 0.20929,10.70619 0.20929,10.70619 7.25,0.34511 7.25,0.34512 -7.28138,0.19869 c -5.2587,0.1435 -7.42222,-0.16831 -7.78837,-1.12248 z M 383.40249,153 c 0,-8.525 0.15337,-12.0125 0.34082,-7.75 0.18745,4.2625 0.18745,11.2375 0,15.5 -0.18745,4.2625 -0.34082,0.775 -0.34082,-7.75 z M 402,167.87418 c 0,-0.275 1.35,-1.79338 3,-3.37418 1.65,-1.5808 3,-2.64918 3,-2.37418 0,0.275 -1.35,1.79338 -3,3.37418 -1.65,1.5808 -3,2.64918 -3,2.37418 z M 575.30987,162.5 c -0.006,-3.3 0.17648,-4.77056 0.40466,-3.26791 0.22817,1.50265 0.23276,4.20265 0.0102,6 -0.22256,1.79735 -0.40925,0.56791 -0.41486,-2.73209 z M 389,162.5 c 1.86578,-1.925 3.61733,-3.5 3.89233,-3.5 0.275,0 -1.02655,1.575 -2.89233,3.5 -1.86578,1.925 -3.61733,3.5 -3.89233,3.5 -0.275,0 1.02655,-1.575 2.89233,-3.5 z m 363.39456,-11 c 0.002,-7.7 0.15853,-10.71781 0.34883,-6.70625 0.1903,4.01156 0.18902,10.31156 -0.003,14 C 752.5487,162.48219 752.393,159.2 752.39456,151.5 Z m 29,0 c 0.002,-7.7 0.15853,-10.71781 0.34883,-6.70625 0.1903,4.01156 0.18902,10.31156 -0.003,14 C 781.5487,162.48219 781.393,159.2 781.39456,151.5 Z M 700.5,157 c -1.5808,-1.65 -2.64918,-3 -2.37418,-3 0.275,0 1.79338,1.35 3.37418,3 1.5808,1.65 2.64918,3 2.37418,3 -0.275,0 -1.79338,-1.35 -3.37418,-3 z M 399,151.87418 c 0,-0.275 1.35,-1.79338 3,-3.37418 1.65,-1.5808 3,-2.64918 3,-2.37418 0,0.275 -1.35,1.79338 -3,3.37418 -1.65,1.5808 -3,2.64918 -3,2.37418 z M 582.33621,145 c 0,-4.125 0.17651,-5.8125 0.39226,-3.75 0.21574,2.0625 0.21574,5.4375 0,7.5 -0.21575,2.0625 -0.39226,0.375 -0.39226,-3.75 z m 58,0 c 0,-4.125 0.17651,-5.8125 0.39226,-3.75 0.21574,2.0625 0.21574,5.4375 0,7.5 -0.21575,2.0625 -0.39226,0.375 -0.39226,-3.75 z M 420,148.93168 c 0,-0.275 2.475,-2.94426 5.5,-5.93168 3.025,-2.98742 5.5,-5.20668 5.5,-4.93168 0,0.275 -2.475,2.94426 -5.5,5.93168 -3.025,2.98742 -5.5,5.20668 -5.5,4.93168 z M 712.87244,147.25 c -1.24387,-1.58606 -1.2085,-1.62143 0.37756,-0.37756 1.66575,1.30637 2.19548,2.12756 1.37244,2.12756 -0.20765,0 -0.99515,-0.7875 -1.75,-1.75 z m -144,-2 c -1.24387,-1.58606 -1.2085,-1.62143 0.37756,-0.37756 1.66575,1.30637 2.19548,2.12756 1.37244,2.12756 -0.20765,0 -0.99515,-0.7875 -1.75,-1.75 z m -15.60161,-6.85417 c 0.33229,-0.33229 1.1948,-0.36781 1.91667,-0.0789 0.79773,0.31922 0.56078,0.55618 -0.60417,0.60416 -1.05416,0.0434 -1.64479,-0.19292 -1.3125,-0.52522 z m -84.4944,-1.12933 c 2.35204,-0.21124 5.95204,-0.20827 8,0.007 2.04796,0.21487 0.12357,0.38771 -4.27643,0.38408 -4.4,-0.004 -6.07561,-0.17944 -3.72357,-0.39069 z m 209.4944,0.12933 c 0.33229,-0.33229 1.1948,-0.36781 1.91667,-0.0789 0.79773,0.31922 0.56078,0.55618 -0.60417,0.60416 -1.05416,0.0434 -1.64479,-0.19292 -1.3125,-0.52522 z m 14,0 c 0.33229,-0.33229 1.1948,-0.36781 1.91667,-0.0789 0.79773,0.31922 0.56078,0.55618 -0.60417,0.60416 -1.05416,0.0434 -1.64479,-0.19292 -1.3125,-0.52522 z M 361.73097,119.34406 c 0.67703,-0.27392 2.02703,-0.29059 3,-0.037 0.97297,0.25354 0.41903,0.47766 -1.23097,0.49804 -1.65,0.0204 -2.44606,-0.18706 -1.76903,-0.46099 z m 47.45811,-5.59406 0.18909,-6.25 0.36082,5.75 c 0.30418,4.84747 0.65788,5.75 2.25342,5.75 1.49987,0 1.97203,-0.8819 2.27538,-4.25 l 0.3828,-4.25 0.1747,4.75 C 414.99632,119.89993 414.9368,120 412,120 h -3 z m -42.99413,-3.25 c -0.0204,-1.65 0.18706,-2.44606 0.46099,-1.76903 0.27392,0.67703 0.29059,2.02703 0.0371,3 C 366.4395,112.70394 366.21538,112.15 366.195,110.5 Z M 443.75,108.33772 c 0.6875,-0.27741 1.8125,-0.27741 2.5,0 0.6875,0.27741 0.125,0.50439 -1.25,0.50439 -1.375,0 -1.9375,-0.22698 -1.25,-0.50439 z m 8,0 c 0.6875,-0.27741 1.8125,-0.27741 2.5,0 0.6875,0.27741 0.125,0.50439 -1.25,0.50439 -1.375,0 -1.9375,-0.22698 -1.25,-0.50439 z M 487.4751,81.5 487.5,55.5 506,55.46691 l 18.5,-0.0331 -18.23344,0.305099 -18.23344,0.305099 -0.29146,25.727995 -0.29147,25.727997 0.0249,-26.000001 z m 25.79573,25.89583 c 0.33229,-0.33229 1.1948,-0.36781 1.91667,-0.0789 0.79773,0.31922 0.56078,0.55618 -0.60417,0.60416 -1.05416,0.0434 -1.64479,-0.19292 -1.3125,-0.52522 z M 540.4751,81.5 l 0.0249,-26 11,-0.0491 11,-0.0491 -10.73346,0.3317 -10.73346,0.331699 -0.29144,25.717403 -0.29145,25.717408 0.0249,-26.000004 z m 51,0 0.0249,-26 3,-0.144743 c 2.81736,-0.135932 2.83358,-0.116765 0.26648,0.314832 l -2.73353,0.459576 -0.29138,25.685167 -0.29138,25.685168 0.0249,-26 z m 23.79573,25.89583 c 0.33229,-0.33229 1.1948,-0.36781 1.91667,-0.0789 0.79773,0.31922 0.56078,0.55618 -0.60417,0.60416 -1.05416,0.0434 -1.64479,-0.19292 -1.3125,-0.52522 z M 643,82.066422 V 56.132845 l -2.75,-0.416591 c -2.55956,-0.38774 -2.52493,-0.426966 0.5,-0.566422 L 644,55 v 26.5 c 0,14.575 -0.225,26.5 -0.5,26.5 -0.275,0 -0.5,-11.67011 -0.5,-25.933578 z M 658.4751,81.5 l 0.0249,-26 3,-0.144743 c 2.81736,-0.135932 2.83358,-0.116765 0.26648,0.314832 l -2.73353,0.459576 -0.29138,25.685167 -0.29138,25.685168 0.0249,-26 z m 36.31279,4.999068 c -0.15834,-11.825512 0.0496,-21.500512 0.46211,-21.5 C 695.6625,64.999581 696,74.675 696,86.5 c 0,11.825 -0.20795,21.5 -0.46211,21.5 -0.25417,0 -0.59167,-9.675419 -0.75,-21.500932 z M 447.25,103.31067 c 0.9625,-0.25152 2.5375,-0.25152 3.5,0 0.9625,0.25153 0.175,0.45733 -1.75,0.45733 -1.925,0 -2.7125,-0.2058 -1.75,-0.45733 z m -85.51903,-0.96661 c 0.67703,-0.27392 2.02703,-0.29059 3,-0.037 0.97297,0.25354 0.41903,0.47766 -1.23097,0.49804 -1.65,0.0204 -2.44606,-0.18706 -1.76903,-0.46099 z m 11.26747,-0.0941 c -8.5e-4,-0.4125 6.51495,-0.61448 14.47956,-0.44885 l 14.48111,0.30115 0.29187,-20.801151 L 402.54286,60.5 402.77143,81.75 403,103 h -15 c -8.25,0 -15.0007,-0.3375 -15.00156,-0.75 z M 408,79.523614 V 56.047228 l -17.25,-0.311177 -17.25,-0.311176 17.5,0.03756 17.5,0.03756 0.26828,23.188005 0.26828,23.188 3.23172,0.40196 c 3.15935,0.39295 3.14775,0.40554 -0.51828,0.56199 L 408,103 Z M 467.5,101 c 0.99549,-1.1 2.03498,-2 2.30998,-2 0.275,0 -0.31449,0.9 -1.30998,2 -0.99549,1.1 -2.03498,2 -2.30998,2 -0.275,0 0.31449,-0.9 1.30998,-2 z m 30.21349,1.26402 c 2.86742,-0.2013 7.81742,-0.20315 11,-0.004 3.18258,0.19905 0.83651,0.36376 -5.21349,0.36601 -6.05,0.002 -8.65393,-0.1606 -5.78651,-0.36191 z m 103.50299,0.002 c 2.59406,-0.20525 7.09406,-0.20738 10,-0.005 2.90594,0.20264 0.78352,0.37057 -4.71648,0.37317 -5.5,0.003 -7.87758,-0.16319 -5.28352,-0.36844 z M 433.92431,97.25 431.5,94.5 l 2.75,2.424314 c 1.5125,1.333373 2.75,2.570873 2.75,2.75 0,0.784276 -0.8098,0.145975 -3.07569,-2.424314 z M 463,97.5 c 0.68469,-0.825 1.46989,-1.5 1.74489,-1.5 0.275,0 -0.0602,0.675 -0.74489,1.5 -0.68469,0.825 -1.46989,1.5 -1.74489,1.5 -0.275,0 0.0602,-0.675 0.74489,-1.5 z m 65.28601,-5 c 0.008,-2.75 0.20172,-3.756313 0.43157,-2.23625 0.22986,1.520062 0.22371,3.770062 -0.0136,5 C 528.46657,96.493687 528.27851,95.25 528.28601,92.5 Z M 549.75,89.267795 c 2.3375,-0.210535 6.1625,-0.210535 8.5,0 2.3375,0.210535 0.425,0.382791 -4.25,0.382791 -4.675,0 -6.5875,-0.172256 -4.25,-0.382791 z m 80.32895,-1.684462 c -0.0434,-1.054166 0.19293,-1.644791 0.52522,-1.3125 0.33229,0.332292 0.36781,1.194792 0.0789,1.916667 -0.31922,0.797733 -0.55618,0.560776 -0.60416,-0.604167 z M 422.19495,85.5 c -0.0204,-1.65 0.18706,-2.446064 0.46099,-1.769032 0.27392,0.677033 0.29059,2.027033 0.0371,3 C 422.43945,87.703936 422.21533,87.15 422.19495,85.5 Z m 5.884,0.08333 c -0.0434,-1.054166 0.19293,-1.644791 0.52522,-1.3125 0.33229,0.332292 0.36781,1.194792 0.0789,1.916667 -0.31922,0.797733 -0.55618,0.560776 -0.60416,-0.604167 z M 469.27236,82 c 0,-2.475 0.19502,-3.4875 0.43337,-2.25 0.23836,1.2375 0.23836,3.2625 0,4.5 -0.23835,1.2375 -0.43337,0.225 -0.43337,-2.25 z m 6,0 c 0,-2.475 0.19502,-3.4875 0.43337,-2.25 0.23836,1.2375 0.23836,3.2625 0,4.5 -0.23835,1.2375 -0.43337,0.225 -0.43337,-2.25 z m -97.19341,1.583333 c -0.0434,-1.054166 0.19293,-1.644791 0.52522,-1.3125 0.33229,0.332292 0.36781,1.194792 0.0789,1.916667 -0.31922,0.797733 -0.55618,0.560776 -0.60416,-0.604167 z M 575,83.5 c 0.68469,-0.825 1.46989,-1.5 1.74489,-1.5 0.275,0 -0.0602,0.675 -0.74489,1.5 -0.68469,0.825 -1.46989,1.5 -1.74489,1.5 -0.275,0 0.0602,-0.675 0.74489,-1.5 z m -63.72917,-1.104167 c 0.33229,-0.332291 1.1948,-0.367818 1.91667,-0.07895 0.79773,0.319226 0.56078,0.556183 -0.60417,0.604167 -1.05416,0.04342 -1.64479,-0.192928 -1.3125,-0.52522 z M 626.87244,81.25 C 625.62857,79.663944 625.66394,79.628574 627.25,80.872445 628.91575,82.178814 629.44548,83 628.62244,83 c -0.20765,0 -0.99515,-0.7875 -1.75,-1.75 z m -12.60161,0.145833 c 0.33229,-0.332291 1.1948,-0.367818 1.91667,-0.07895 0.79773,0.319226 0.56078,0.556183 -0.60417,0.604167 -1.05416,0.04342 -1.64479,-0.192928 -1.3125,-0.52522 z M 373.15789,78 c 0,-1.375 0.22698,-1.9375 0.50439,-1.25 0.27741,0.6875 0.27741,1.8125 0,2.5 -0.27741,0.6875 -0.50439,0.125 -0.50439,-1.25 z m 49,0 c 0,-1.375 0.22698,-1.9375 0.50439,-1.25 0.27741,0.6875 0.27741,1.8125 0,2.5 -0.27741,0.6875 -0.50439,0.125 -0.50439,-1.25 z m 5.92106,-0.416667 c -0.0434,-1.054166 0.19293,-1.644791 0.52522,-1.3125 0.33229,0.332292 0.36781,1.194792 0.0789,1.916667 -0.31922,0.797733 -0.55618,0.560776 -0.60416,-0.604167 z M 379.35496,69.5 c -0.003,-4.95 0.16605,-7.101078 0.37577,-4.780173 0.20972,2.320905 0.21222,6.370905 0.006,9 C 379.5296,76.348922 379.358,74.45 379.35496,69.5 Z m 132.91587,7.895833 c 0.33229,-0.332291 1.1948,-0.367818 1.91667,-0.07895 0.79773,0.319226 0.56078,0.556183 -0.60417,0.604167 -1.05416,0.04342 -1.64479,-0.192928 -1.3125,-0.52522 z M 579.27236,72 c 0,-2.475 0.19502,-3.4875 0.43337,-2.25 0.23836,1.2375 0.23836,3.2625 0,4.5 -0.23835,1.2375 -0.43337,0.225 -0.43337,-2.25 z M 86.255482,51.674487 C 45.420997,42.277489 12.345997,34.295628 12.755482,33.937017 13.164967,33.578407 47.475,25.808146 89,16.66977 L 164.5,0.05454056 240.03182,19.37121 c 41.5425,10.624168 76.07741,19.499396 76.74424,19.72273 C 318.35176,39.621664 166.28771,69.10461 163,68.908819 161.625,68.826935 127.08997,61.071485 86.255482,51.674487 Z M 570.40499,64.75 568.5,62.5 l 2.25,1.904988 c 1.2375,1.047743 2.25,2.060243 2.25,2.25 0,0.800253 -0.80479,0.209457 -2.59501,-1.904988 z m 126.32598,-9.405937 c 0.67703,-0.273923 2.02703,-0.290597 3,-0.03705 0.97297,0.253544 0.41903,0.477663 -1.23097,0.498042 -1.65,0.02038 -2.44606,-0.187065 -1.76903,-0.460988 z M 447.75,54.337719 c 0.6875,-0.277412 1.8125,-0.277412 2.5,0 0.6875,0.277413 0.125,0.504386 -1.25,0.504386 -1.375,0 -1.9375,-0.226973 -1.25,-0.504386 z m 231.52083,-7.941886 c 0.33229,-0.332291 1.1948,-0.367818 1.91667,-0.07895 0.79773,0.319226 0.56078,0.556183 -0.60417,0.604167 -1.05416,0.04342 -1.64479,-0.192928 -1.3125,-0.52522 z M 674.87244,44.25 C 673.62857,42.663944 673.66394,42.628574 675.25,43.872445 676.91575,45.178814 677.44548,46 676.62244,46 c -0.20765,0 -0.99515,-0.7875 -1.75,-1.75 z m 11.89601,-2.41845 c 0.5811,-0.581102 1.64682,-0.859794 2.36826,-0.619313 0.74895,0.249648 0.29565,0.702941 -1.05655,1.05655 -1.66335,0.434974 -2.05378,0.304831 -1.31171,-0.437237 z m -15.49762,-0.435717 c 0.33229,-0.332291 1.1948,-0.367818 1.91667,-0.07895 0.79773,0.319226 0.56078,0.556183 -0.60417,0.604167 -1.05416,0.04342 -1.64479,-0.192928 -1.3125,-0.52522 z"
         style="fill:#966400;fill-opacity:1;stroke-width:4.12616396" />
      <path
         inkscape:connector-curvature="0"
         id="path16"
         d="m 677.22252,208.00101 c -10.6863,-2.26368 -21.37854,-11.48976 -25.26362,-21.79938 -1.76848,-4.69291 -2.081,-7.29389 -1.76646,-14.70163 0.46002,-10.83386 2.8975,-16.67305 9.87609,-23.65891 5.60413,-5.60997 10.4456,-8.19969 18.3982,-9.84124 16.90362,-3.48919 34.16141,4.36504 41.19951,18.7504 3.49081,7.13495 4.3636,19.23582 1.97202,27.34111 -2.87683,9.74985 -13.11874,20.20516 -22.45664,22.92456 -5.2391,1.52574 -16.93082,2.05023 -21.9591,0.98509 z m 18.72059,-14.97199 c 20.43461,-10.42496 13.13911,-41.9121 -9.73295,-42.00706 -18.19683,-0.0756 -27.82463,22.0715 -15.88947,36.55092 5.87615,7.1288 17.49428,9.60281 25.62242,5.45614 z M 369,173 v -35 h 7 7 v 15 c 0,8.25 0.39835,15 0.88523,15 0.48688,0 7.0784,-6.75 14.64783,-15 l 13.76259,-15 h 9.06802 9.06801 l -5.45748,5.75 c -3.00161,3.1625 -9.4091,9.81886 -14.23886,14.79191 l -8.78138,9.0419 14.52302,19.66327 C 424.46464,198.06188 431,207.15552 431,207.45517 431,207.75483 427.17867,208 422.50815,208 h -8.49185 l -7.18112,-9.75 c -3.94961,-5.3625 -8.97772,-12.19405 -11.17357,-15.18123 l -3.99246,-5.43122 -4.31401,4.93122 -4.31401,4.93123 -0.0206,10.25 L 383,208 h -7 -7 z m 67.27132,33.75 c 0.26692,-0.6875 6.93793,-16.4375 14.82448,-35 L 465.43497,138 h 7.06503 7.06503 l 14.33917,33.75 c 7.88655,18.5625 14.56521,34.33243 14.84147,35.0443 0.39037,1.00586 -1.23207,1.22871 -7.28046,1 l -7.78276,-0.2943 -3.18449,-7.5 -3.18449,-7.5 -14.96421,-0.27501 -14.96421,-0.27501 -3.3133,8.02501 L 450.75846,208 h -7.48622 c -5.58113,0 -7.36272,-0.3181 -7.00092,-1.25 z m 44.40808,-31 c -0.74109,-1.7875 -2.86108,-6.96355 -4.71108,-11.50233 -1.85001,-4.53879 -3.65182,-7.91379 -4.00402,-7.5 -0.71347,0.83822 -8.9643,20.80105 -8.9643,21.68906 0,0.3098 4.28104,0.56327 9.51342,0.56327 h 9.51342 z M 521,172.89036 v -35.10965 l 18.25,0.42133 c 19.70478,0.45491 22.33717,1.03898 28.6423,6.35505 4.88659,4.12006 7.05953,9.60235 7.08574,17.87719 0.0509,16.07806 -8.59126,23.14044 -29.72804,24.29369 L 535,187.28723 V 197.64361 208 h -7 -7 z m 34.77303,-1.55781 c 1.49983,-1.11297 3.29766,-3.72853 3.99516,-5.81237 1.09877,-3.28266 1.03198,-4.27076 -0.5,-7.3966 -2.4326,-4.96344 -5.29849,-6.09162 -15.51819,-6.10884 L 535,152 v 10.33333 c 0,5.68334 0.3375,10.67951 0.75,11.10262 0.4125,0.4231 4.47286,0.57823 9.02303,0.34472 6.27105,-0.32182 8.93293,-0.91424 11,-2.44812 z M 604,180 V 152 H 593.5 583 v -7 -7 h 28.5 28.5 v 7 7 H 629.5 619 v 28 28 h -7.5 -7.5 z m 134,-7 v -35 h 6.97178 6.97178 l 0.27822,13.75 0.27822,13.75 h 14.5 14.5 l 0.27822,-13.75 0.27822,-13.75 H 789.02822 796 v 35 35 h -7 -7 v -14 -14 h -15 -15 v 14 14 h -7 -7 z M 361,111.06642 c 0,-7.91143 0.008,-7.93446 2.75,-8.25 C 369.42508,102.16343 374,86.196165 374,67.042158 V 56 h 17 17 V 79.5 103 h 3.5 c 3.93804,0 3.90083,-0.12831 2.85754,9.85331 -0.53225,5.09232 -0.96109,6.14669 -2.5,6.14669 C 410.27264,119 410,118.19273 410,113.5 V 108 h -22 -22 v 5.5 c 0,5.2 -0.13636,5.5 -2.5,5.5 -2.45659,0 -2.5,-0.13776 -2.5,-7.93358 z M 403,82 V 61 h -12 -12 v 9.412032 c 0,10.094688 -1.86735,21.941389 -4.42245,28.056614 C 373.7099,100.54523 373,102.41429 373,102.62212 373,102.82996 379.75,103 388,103 h 15 z m 40.14677,25.93565 C 434.44059,106.2025 427.20199,99.998166 423.97128,91.5 c -0.62728,-1.65 -1.16525,-6.053957 -1.19549,-9.78657 -0.0453,-5.5859 0.45807,-7.789782 2.84499,-12.457045 5.184,-10.136508 14.13593,-14.935539 26.08942,-13.98626 14.22264,1.129483 23.15569,11.40568 23.23614,26.729875 0.091,17.333934 -14.64309,29.35102 -31.79957,25.93565 z m 16.49569,-7.46627 c 2.48755,-1.457802 5.34902,-4.305193 6.7793,-6.745958 8.79651,-15.011159 -0.92702,-33.623269 -17.60666,-33.70146 -6.00398,-0.02815 -9.48735,1.317991 -13.68721,5.289372 -9.29149,8.786028 -9.5444,23.305177 -0.56263,32.300405 6.79477,6.804951 16.46188,7.906551 25.0772,2.857641 z M 488,82.111203 V 56 h 18.5 18.5 v 2.5 2.5 h -16 -16 v 7.862731 7.862732 l 11.75,0.48635 c 17.71326,0.733177 23.25383,4.30903 23.24626,15.003004 -0.005,6.591538 -2.40769,10.788623 -7.6282,13.323253 -3.07013,1.49059 -6.80765,1.96116 -18.11806,2.28117 L 488,108.22241 Z m 28.40143,19.494427 C 525.67241,97.731967 525.24561,86.689068 515.6849,83.066612 514.1366,82.479976 508.3991,82 502.9349,82 H 493 V 92.5 103 h 10.03212 c 6.31743,0 11.26781,-0.5163 13.36931,-1.39437 z M 541,82 V 56 h 12.68428 c 14.57088,0 19.6919,1.636528 23.27801,7.438986 2.89694,4.68734 2.7916,13.130819 -0.22036,17.663131 C 572.92839,86.840619 567.19936,89 555.78811,89 H 546 v 9.5 c 0,9.46667 -0.009,9.5 -2.5,9.5 H 541 Z m 26.39281,0.483842 c 8.07155,-3.8302 8.85848,-14.921306 1.38212,-19.479644 -2.68046,-1.634273 -5.04477,-1.9974 -13.02493,-2.00046 L 546,61 V 72.5 84 h 9.09887 c 6.05942,0 10.16617,-0.506468 12.29394,-1.516158 z M 592,82.115829 V 56 h 2.5 c 2.49814,0 2.5,0.0074 2.5,9.889376 v 9.889376 l 10.75,0.386306 c 16.56573,0.595298 22.68285,4.671824 22.67428,15.110437 -0.005,6.552488 -2.39218,10.771615 -7.83421,13.848455 -3.56912,2.01792 -5.77773,2.36311 -17.34007,2.71008 L 592,108.23166 Z m 26.40143,19.489801 C 622.88996,99.730202 625,96.427559 625,91.277494 625,83.477359 620.52494,81 606.4349,81 H 597 v 11 11 h 9.03212 c 5.46221,0 10.35113,-0.55112 12.36931,-1.39437 z M 638,82 V 56 h 2.5 2.5 v 26 26 h -2.5 -2.5 z m 21,0 V 56 h 2.4805 2.4805 L 664.2305,77.628049 664.5,99.256099 680,77.653407 C 693.68407,58.581612 695.82218,56.047745 698.25,56.025358 L 701,56 v 26 26 H 698.5 696 V 86.5 c 0,-11.825 -0.3375,-21.477989 -0.75,-21.451087 -0.4125,0.0269 -7.64094,9.701902 -16.06321,21.5 C 666.42524,104.42557 663.46753,108 661.43679,108 H 659 Z m 16.11007,-32.395507 c -2.17709,-1.206671 -4.98712,-5.002279 -5.07463,-6.854493 -0.0715,-1.513314 3.19223,-0.693106 4.80427,1.207359 2.82971,3.336022 6.42899,3.528867 9.9869,0.535086 1.7288,-1.454691 3.82501,-2.498092 4.65824,-2.318669 1.28477,0.276654 1.21101,0.82385 -0.4854,3.60115 -3.02915,4.959209 -8.92055,6.58358 -13.88938,3.829567 z"
         style="fill:#030303;stroke-width:4.12616396" />
      <path
         sodipodi:nodetypes="ssscssccscccscssscccs"
         transform="translate(-64)"
         inkscape:connector-curvature="0"
         id="path4528"
         d="M 144.65038,231.0333 C 103.49493,219.5144 70.093247,210.84921 68.054266,210.06143 64.943307,208.85948 64.34703,205.8477 64.34703,191.33631 v -17.29278 l 8.447266,1.13301 c 8.25732,1.10754 8.491867,0.959 10.430786,-6.60593 11.485933,-44.81378 28.091398,-107.315861 28.663528,-107.887989 0.98905,-0.98906 96.9994,18.372847 98.49328,19.862627 0.65747,0.65567 1.47643,27.852572 1.81991,60.437562 0.46296,43.92018 1.28493,59.44704 3.17763,60.02481 1.40422,0.42865 5.17467,1.3538 8.37878,2.05588 l 5.82566,1.2765 v 23.26228 c 0,20.79349 1.85348,25.30767 -1.46032,25.18745 -2.03898,-0.074 -43.04722,-10.4417 -83.47317,-21.75643 z m 2.31507,-87.13128 c 0,-46.293257 -0.1036,-47.429582 -4.45009,-48.809102 -2.44755,-0.776823 -5.24005,-0.60274 -6.20557,0.386849 -2.29129,2.348424 -21.25509,88.158493 -19.81013,89.639703 1.76015,1.80432 27.12134,7.98437 28.87697,7.03678 0.87385,-0.47164 1.58882,-22.18605 1.58882,-48.25423 z"
         style="opacity:1;fill:#d19000;fill-opacity:1;stroke-width:4.12616396" />
      <path
         sodipodi:nodetypes="scssscccccscccsssscsccsccscccscss"
         inkscape:connector-curvature="0"
         id="path4530"
         d="M 177.00001,163.66351 V 79.103083 l 28.54158,-4.814153 c 15.69788,-2.647787 33.15826,-6.649061 35.588,-6.838994 4.11407,-0.321597 3.02222,2.089401 1.81688,24.858768 L 243,117 l 5.52829,-0.35399 6.15311,-0.83229 5.36175,-25.78722 5.49178,-25.852035 19.0488,-4.568047 c 10.03633,-2.406789 21.0084,-5.381435 24.49864,-6.146726 l 6.34592,-1.391437 -1.51186,8.297162 c -0.83149,4.56344 -4.70828,23.238388 -11.47561,41.499883 -6.66227,17.97799 -10.15102,34.1265 -10.15102,35.82768 0,2.45018 5.12681,14.38013 14.1406,25.69533 14.9607,18.78048 12.73901,17.66991 12.73901,33.03555 v 10.63661 l -12.38597,3.63925 c -6.81228,2.00158 -18.42674,5.38386 -25.8099,7.51618 l -14.48316,4.14173 -2.02768,-7.23919 c -1.21008,-4.3202 -3.40721,-16.17236 -5.41693,-25.63428 -2.00973,-9.46192 -3.55529,-18.36241 -4.4055,-19.29343 -0.85022,-0.931 -3.58602,0.43532 -6.88464,1.1464 l -4.72599,1.01877 -0.34797,29.09218 -0.18167,28.85406 -16.49464,5.08823 c -8.54931,2.63727 -22.02228,6.41537 -29.85087,8.69281 -7.82857,2.27741 -15.34092,4.14075 -16.69412,4.14075 -1.80272,0 -2.46036,-22.60267 -2.46036,-84.56042 z"
         style="opacity:1;fill:#ffb600;fill-opacity:1;stroke-width:4.12616396" />
    </g>
  </g>
</svg>
